G75*
%MOIN*%
%OFA0B0*%
%FSLAX24Y24*%
%IPPOS*%
%LPD*%
%AMOC8*
5,1,8,0,0,1.08239X$1,22.5*
%
%ADD10C,0.0000*%
%ADD11C,0.0030*%
%ADD12C,0.0740*%
%ADD13C,0.0520*%
%ADD14R,0.0512X0.0591*%
%ADD15R,0.0512X0.0630*%
%ADD16R,0.0472X0.0472*%
%ADD17C,0.0120*%
%ADD18OC8,0.0356*%
%ADD19C,0.0100*%
D10*
X000255Y000100D02*
X000255Y019785D01*
X019940Y019785D01*
X019940Y000100D01*
X000255Y000100D01*
X000664Y001100D02*
X000666Y001148D01*
X000672Y001196D01*
X000682Y001243D01*
X000695Y001289D01*
X000713Y001334D01*
X000733Y001378D01*
X000758Y001420D01*
X000786Y001459D01*
X000816Y001496D01*
X000850Y001530D01*
X000887Y001562D01*
X000925Y001591D01*
X000966Y001616D01*
X001009Y001638D01*
X001054Y001656D01*
X001100Y001670D01*
X001147Y001681D01*
X001195Y001688D01*
X001243Y001691D01*
X001291Y001690D01*
X001339Y001685D01*
X001387Y001676D01*
X001433Y001664D01*
X001478Y001647D01*
X001522Y001627D01*
X001564Y001604D01*
X001604Y001577D01*
X001642Y001547D01*
X001677Y001514D01*
X001709Y001478D01*
X001739Y001440D01*
X001765Y001399D01*
X001787Y001356D01*
X001807Y001312D01*
X001822Y001267D01*
X001834Y001220D01*
X001842Y001172D01*
X001846Y001124D01*
X001846Y001076D01*
X001842Y001028D01*
X001834Y000980D01*
X001822Y000933D01*
X001807Y000888D01*
X001787Y000844D01*
X001765Y000801D01*
X001739Y000760D01*
X001709Y000722D01*
X001677Y000686D01*
X001642Y000653D01*
X001604Y000623D01*
X001564Y000596D01*
X001522Y000573D01*
X001478Y000553D01*
X001433Y000536D01*
X001387Y000524D01*
X001339Y000515D01*
X001291Y000510D01*
X001243Y000509D01*
X001195Y000512D01*
X001147Y000519D01*
X001100Y000530D01*
X001054Y000544D01*
X001009Y000562D01*
X000966Y000584D01*
X000925Y000609D01*
X000887Y000638D01*
X000850Y000670D01*
X000816Y000704D01*
X000786Y000741D01*
X000758Y000780D01*
X000733Y000822D01*
X000713Y000866D01*
X000695Y000911D01*
X000682Y000957D01*
X000672Y001004D01*
X000666Y001052D01*
X000664Y001100D01*
X000664Y018850D02*
X000666Y018898D01*
X000672Y018946D01*
X000682Y018993D01*
X000695Y019039D01*
X000713Y019084D01*
X000733Y019128D01*
X000758Y019170D01*
X000786Y019209D01*
X000816Y019246D01*
X000850Y019280D01*
X000887Y019312D01*
X000925Y019341D01*
X000966Y019366D01*
X001009Y019388D01*
X001054Y019406D01*
X001100Y019420D01*
X001147Y019431D01*
X001195Y019438D01*
X001243Y019441D01*
X001291Y019440D01*
X001339Y019435D01*
X001387Y019426D01*
X001433Y019414D01*
X001478Y019397D01*
X001522Y019377D01*
X001564Y019354D01*
X001604Y019327D01*
X001642Y019297D01*
X001677Y019264D01*
X001709Y019228D01*
X001739Y019190D01*
X001765Y019149D01*
X001787Y019106D01*
X001807Y019062D01*
X001822Y019017D01*
X001834Y018970D01*
X001842Y018922D01*
X001846Y018874D01*
X001846Y018826D01*
X001842Y018778D01*
X001834Y018730D01*
X001822Y018683D01*
X001807Y018638D01*
X001787Y018594D01*
X001765Y018551D01*
X001739Y018510D01*
X001709Y018472D01*
X001677Y018436D01*
X001642Y018403D01*
X001604Y018373D01*
X001564Y018346D01*
X001522Y018323D01*
X001478Y018303D01*
X001433Y018286D01*
X001387Y018274D01*
X001339Y018265D01*
X001291Y018260D01*
X001243Y018259D01*
X001195Y018262D01*
X001147Y018269D01*
X001100Y018280D01*
X001054Y018294D01*
X001009Y018312D01*
X000966Y018334D01*
X000925Y018359D01*
X000887Y018388D01*
X000850Y018420D01*
X000816Y018454D01*
X000786Y018491D01*
X000758Y018530D01*
X000733Y018572D01*
X000713Y018616D01*
X000695Y018661D01*
X000682Y018707D01*
X000672Y018754D01*
X000666Y018802D01*
X000664Y018850D01*
X018414Y018850D02*
X018416Y018898D01*
X018422Y018946D01*
X018432Y018993D01*
X018445Y019039D01*
X018463Y019084D01*
X018483Y019128D01*
X018508Y019170D01*
X018536Y019209D01*
X018566Y019246D01*
X018600Y019280D01*
X018637Y019312D01*
X018675Y019341D01*
X018716Y019366D01*
X018759Y019388D01*
X018804Y019406D01*
X018850Y019420D01*
X018897Y019431D01*
X018945Y019438D01*
X018993Y019441D01*
X019041Y019440D01*
X019089Y019435D01*
X019137Y019426D01*
X019183Y019414D01*
X019228Y019397D01*
X019272Y019377D01*
X019314Y019354D01*
X019354Y019327D01*
X019392Y019297D01*
X019427Y019264D01*
X019459Y019228D01*
X019489Y019190D01*
X019515Y019149D01*
X019537Y019106D01*
X019557Y019062D01*
X019572Y019017D01*
X019584Y018970D01*
X019592Y018922D01*
X019596Y018874D01*
X019596Y018826D01*
X019592Y018778D01*
X019584Y018730D01*
X019572Y018683D01*
X019557Y018638D01*
X019537Y018594D01*
X019515Y018551D01*
X019489Y018510D01*
X019459Y018472D01*
X019427Y018436D01*
X019392Y018403D01*
X019354Y018373D01*
X019314Y018346D01*
X019272Y018323D01*
X019228Y018303D01*
X019183Y018286D01*
X019137Y018274D01*
X019089Y018265D01*
X019041Y018260D01*
X018993Y018259D01*
X018945Y018262D01*
X018897Y018269D01*
X018850Y018280D01*
X018804Y018294D01*
X018759Y018312D01*
X018716Y018334D01*
X018675Y018359D01*
X018637Y018388D01*
X018600Y018420D01*
X018566Y018454D01*
X018536Y018491D01*
X018508Y018530D01*
X018483Y018572D01*
X018463Y018616D01*
X018445Y018661D01*
X018432Y018707D01*
X018422Y018754D01*
X018416Y018802D01*
X018414Y018850D01*
X018414Y001100D02*
X018416Y001148D01*
X018422Y001196D01*
X018432Y001243D01*
X018445Y001289D01*
X018463Y001334D01*
X018483Y001378D01*
X018508Y001420D01*
X018536Y001459D01*
X018566Y001496D01*
X018600Y001530D01*
X018637Y001562D01*
X018675Y001591D01*
X018716Y001616D01*
X018759Y001638D01*
X018804Y001656D01*
X018850Y001670D01*
X018897Y001681D01*
X018945Y001688D01*
X018993Y001691D01*
X019041Y001690D01*
X019089Y001685D01*
X019137Y001676D01*
X019183Y001664D01*
X019228Y001647D01*
X019272Y001627D01*
X019314Y001604D01*
X019354Y001577D01*
X019392Y001547D01*
X019427Y001514D01*
X019459Y001478D01*
X019489Y001440D01*
X019515Y001399D01*
X019537Y001356D01*
X019557Y001312D01*
X019572Y001267D01*
X019584Y001220D01*
X019592Y001172D01*
X019596Y001124D01*
X019596Y001076D01*
X019592Y001028D01*
X019584Y000980D01*
X019572Y000933D01*
X019557Y000888D01*
X019537Y000844D01*
X019515Y000801D01*
X019489Y000760D01*
X019459Y000722D01*
X019427Y000686D01*
X019392Y000653D01*
X019354Y000623D01*
X019314Y000596D01*
X019272Y000573D01*
X019228Y000553D01*
X019183Y000536D01*
X019137Y000524D01*
X019089Y000515D01*
X019041Y000510D01*
X018993Y000509D01*
X018945Y000512D01*
X018897Y000519D01*
X018850Y000530D01*
X018804Y000544D01*
X018759Y000562D01*
X018716Y000584D01*
X018675Y000609D01*
X018637Y000638D01*
X018600Y000670D01*
X018566Y000704D01*
X018536Y000741D01*
X018508Y000780D01*
X018483Y000822D01*
X018463Y000866D01*
X018445Y000911D01*
X018432Y000957D01*
X018422Y001004D01*
X018416Y001052D01*
X018414Y001100D01*
D11*
X001740Y007865D02*
X001370Y007865D01*
X001370Y008050D01*
X001431Y008112D01*
X001555Y008112D01*
X001617Y008050D01*
X001617Y007865D01*
X001617Y007988D02*
X001740Y008112D01*
X001678Y008233D02*
X001617Y008295D01*
X001617Y008480D01*
X001555Y008480D02*
X001740Y008480D01*
X001740Y008295D01*
X001678Y008233D01*
X001493Y008295D02*
X001493Y008418D01*
X001555Y008480D01*
X001740Y008602D02*
X001740Y008725D01*
X001740Y008663D02*
X001370Y008663D01*
X001370Y008602D01*
X001493Y008847D02*
X001493Y008909D01*
X001740Y008909D01*
X001740Y008847D02*
X001740Y008971D01*
X001740Y009093D02*
X001493Y009093D01*
X001493Y009154D01*
X001555Y009216D01*
X001493Y009278D01*
X001555Y009340D01*
X001740Y009340D01*
X001740Y009216D02*
X001555Y009216D01*
X001370Y009461D02*
X001370Y009708D01*
X001370Y009584D02*
X001740Y009584D01*
X001678Y009829D02*
X001555Y009829D01*
X001493Y009891D01*
X001493Y010015D01*
X001555Y010076D01*
X001617Y010076D01*
X001617Y009829D01*
X001678Y009829D02*
X001740Y009891D01*
X001740Y010015D01*
X001740Y010198D02*
X001370Y010198D01*
X001493Y010383D02*
X001617Y010198D01*
X001740Y010383D01*
X001740Y010505D02*
X001740Y010566D01*
X001678Y010566D01*
X001678Y010505D01*
X001740Y010505D01*
X001678Y010689D02*
X001555Y010689D01*
X001493Y010750D01*
X001493Y010936D01*
X001555Y011057D02*
X001678Y011057D01*
X001740Y011119D01*
X001740Y011242D01*
X001678Y011304D01*
X001555Y011304D01*
X001493Y011242D01*
X001493Y011119D01*
X001555Y011057D01*
X001740Y010936D02*
X001740Y010750D01*
X001678Y010689D01*
X000990Y010627D02*
X000743Y010627D01*
X000743Y010506D02*
X000805Y010444D01*
X000805Y010259D01*
X000990Y010259D02*
X000620Y010259D01*
X000620Y010444D01*
X000681Y010506D01*
X000743Y010506D01*
X000805Y010444D02*
X000867Y010506D01*
X000928Y010506D01*
X000990Y010444D01*
X000990Y010259D01*
X000867Y010627D02*
X000743Y010751D01*
X000743Y010813D01*
X000805Y010934D02*
X000928Y010934D01*
X000990Y010996D01*
X000990Y011119D01*
X000928Y011181D01*
X000805Y011181D01*
X000743Y011119D01*
X000743Y010996D01*
X000805Y010934D01*
X000743Y011303D02*
X000928Y011303D01*
X000990Y011364D01*
X000928Y011426D01*
X000990Y011488D01*
X000928Y011549D01*
X000743Y011549D01*
X000743Y011671D02*
X000743Y011856D01*
X000805Y011918D01*
X000990Y011918D01*
X000990Y011671D02*
X000743Y011671D01*
X001493Y011611D02*
X001555Y011672D01*
X001740Y011672D01*
X001740Y011549D02*
X001555Y011549D01*
X001493Y011611D01*
X001555Y011549D02*
X001493Y011487D01*
X001493Y011425D01*
X001740Y011425D01*
X000990Y009768D02*
X000990Y009707D01*
X000928Y009707D01*
X000928Y009768D01*
X000990Y009768D01*
X000867Y009585D02*
X000620Y009585D01*
X000867Y009585D02*
X000990Y009462D01*
X000867Y009338D01*
X000620Y009338D01*
X000805Y008849D02*
X000990Y008849D01*
X000805Y008849D02*
X000743Y008787D01*
X000743Y008602D01*
X000990Y008602D01*
X000867Y008480D02*
X000805Y008480D01*
X000743Y008418D01*
X000743Y008295D01*
X000805Y008233D01*
X000928Y008233D01*
X000990Y008295D01*
X000990Y008418D01*
X000867Y008480D02*
X000867Y008233D01*
X000867Y008112D02*
X000805Y008050D01*
X000805Y007865D01*
X000990Y007865D02*
X000620Y007865D01*
X000620Y008050D01*
X000681Y008112D01*
X000743Y008112D01*
X000805Y008050D01*
X000867Y008112D02*
X000928Y008112D01*
X000990Y008050D01*
X000990Y007865D01*
X001308Y008909D02*
X001370Y008909D01*
D12*
X001194Y003204D03*
X001901Y002496D03*
X002755Y001100D03*
X003755Y001100D03*
X004755Y001100D03*
X005755Y001100D03*
X006755Y001100D03*
X007755Y001100D03*
X008755Y001100D03*
X009755Y001100D03*
X010755Y001100D03*
X011755Y001100D03*
X012755Y001100D03*
X013755Y001100D03*
X014755Y001100D03*
X015755Y001100D03*
X016755Y001100D03*
X017755Y001100D03*
X018432Y002527D03*
X019139Y003234D03*
X019285Y016320D03*
X019285Y017320D03*
X017755Y018850D03*
X016755Y018850D03*
X015755Y018850D03*
X014755Y018850D03*
X013755Y018850D03*
X012755Y018850D03*
X011755Y018850D03*
X010755Y018850D03*
X009755Y018850D03*
X008755Y018850D03*
X007755Y018850D03*
X006755Y018850D03*
X005755Y018850D03*
X004755Y018850D03*
X003755Y018850D03*
X002755Y018850D03*
X000901Y017350D03*
X000901Y016350D03*
D13*
X000630Y013360D02*
X000630Y012840D01*
X001630Y012840D02*
X001630Y013360D01*
X002630Y013360D02*
X002630Y012840D01*
X003630Y012840D02*
X003630Y013360D01*
X004630Y013360D02*
X004630Y012840D01*
X005630Y012840D02*
X005630Y013360D01*
X006630Y013360D02*
X006630Y012840D01*
X007630Y012840D02*
X007630Y013360D01*
X008630Y013360D02*
X008630Y012840D01*
X009630Y012840D02*
X009630Y013360D01*
X010630Y013360D02*
X010630Y012840D01*
X011630Y012840D02*
X011630Y013360D01*
X012630Y013360D02*
X012630Y012840D01*
X013630Y012840D02*
X013630Y013360D01*
X014630Y013360D02*
X014630Y012840D01*
X015630Y012840D02*
X015630Y013360D01*
X016630Y013360D02*
X016630Y012840D01*
X017630Y012840D02*
X017630Y013360D01*
X018630Y013360D02*
X018630Y012840D01*
X019630Y012840D02*
X019630Y013360D01*
X019630Y007360D02*
X019630Y006840D01*
X018630Y006840D02*
X018630Y007360D01*
X017630Y007360D02*
X017630Y006840D01*
X016630Y006840D02*
X016630Y007360D01*
X015630Y007360D02*
X015630Y006840D01*
X014630Y006840D02*
X014630Y007360D01*
X013630Y007360D02*
X013630Y006840D01*
X012630Y006840D02*
X012630Y007360D01*
X011630Y007360D02*
X011630Y006840D01*
X010630Y006840D02*
X010630Y007360D01*
X009630Y007360D02*
X009630Y006840D01*
X008630Y006840D02*
X008630Y007360D01*
X007630Y007360D02*
X007630Y006840D01*
X006630Y006840D02*
X006630Y007360D01*
X005630Y007360D02*
X005630Y006840D01*
X004630Y006840D02*
X004630Y007360D01*
X003630Y007360D02*
X003630Y006840D01*
X002630Y006840D02*
X002630Y007360D01*
X001630Y007360D02*
X001630Y006840D01*
X000630Y006840D02*
X000630Y007360D01*
D14*
X016631Y005100D03*
X017379Y005100D03*
X017379Y004350D03*
X017379Y003600D03*
X016631Y003600D03*
X016631Y004350D03*
X016631Y002850D03*
X017379Y002850D03*
D15*
X017379Y005850D03*
X016631Y005850D03*
D16*
X019505Y005763D03*
X019505Y004937D03*
D17*
X019630Y007100D02*
X019630Y007975D01*
X015130Y012475D01*
X015130Y013725D01*
X012755Y016100D01*
X012755Y018850D01*
X011755Y018850D02*
X011755Y016100D01*
X014130Y013725D01*
X014130Y012475D01*
X018630Y007975D01*
X018630Y007100D01*
X017630Y007100D02*
X017630Y008100D01*
X013130Y012600D01*
X013130Y013725D01*
X010755Y016100D01*
X010755Y018850D01*
X009755Y018850D02*
X009755Y016100D01*
X012130Y013725D01*
X012130Y012600D01*
X016630Y008100D01*
X016630Y007100D01*
X015630Y007100D02*
X015630Y008100D01*
X011130Y012600D01*
X011130Y013725D01*
X008755Y016100D01*
X008755Y018850D01*
X007755Y018850D02*
X007755Y016100D01*
X010130Y013725D01*
X010130Y012600D01*
X014630Y008100D01*
X014630Y007100D01*
X013630Y007100D02*
X013630Y008100D01*
X009130Y012600D01*
X009130Y013725D01*
X006755Y016100D01*
X006755Y018850D01*
X005755Y018850D02*
X005755Y016100D01*
X008130Y013725D01*
X008130Y012600D01*
X012630Y008100D01*
X012630Y007100D01*
X011630Y007100D02*
X011630Y008100D01*
X007130Y012600D01*
X007130Y013725D01*
X004755Y016100D01*
X004755Y018850D01*
X003755Y018850D02*
X003755Y016100D01*
X006130Y013725D01*
X006130Y012600D01*
X010630Y008100D01*
X010630Y007100D01*
X009630Y007100D02*
X009630Y008100D01*
X005130Y012600D01*
X005130Y013725D01*
X002755Y016100D01*
X002755Y018850D01*
X002005Y017350D02*
X000901Y017350D01*
X000901Y016350D02*
X001505Y016350D01*
X001755Y016100D01*
X001755Y013975D01*
X002630Y013100D01*
X001630Y013100D02*
X007130Y007600D01*
X007130Y005975D01*
X006630Y005475D01*
X006630Y004975D01*
X004505Y002850D01*
X004755Y002600D02*
X007130Y004975D01*
X007130Y005225D01*
X006130Y005225D02*
X006130Y004975D01*
X003755Y002600D01*
X003755Y001100D01*
X002755Y001100D02*
X002755Y002600D01*
X005130Y004975D01*
X005130Y005225D01*
X005630Y004975D02*
X005630Y005475D01*
X006130Y005975D01*
X006130Y007600D01*
X000630Y013100D01*
X002255Y015475D02*
X002255Y017100D01*
X002005Y017350D01*
X002255Y015475D02*
X004630Y013100D01*
X003630Y013100D02*
X009130Y007600D01*
X009130Y005975D01*
X009255Y005850D01*
X013255Y005850D01*
X014130Y005850D02*
X014130Y005100D01*
X014130Y004350D01*
X014193Y004288D01*
X014943Y003538D01*
X015568Y002913D01*
X016755Y001725D01*
X016755Y001100D01*
X015755Y001100D02*
X012505Y004350D01*
X012005Y003850D02*
X014755Y001100D01*
X013755Y001100D02*
X011505Y003350D01*
X011005Y003350D01*
X011005Y002850D02*
X012755Y001100D01*
X011755Y001100D02*
X011755Y001600D01*
X011005Y002350D01*
X009755Y002600D02*
X009755Y001100D01*
X008755Y001100D02*
X008755Y002600D01*
X011130Y004975D01*
X011130Y005225D01*
X010130Y005225D02*
X010130Y004975D01*
X007755Y002600D01*
X007755Y001100D01*
X006755Y001100D02*
X006755Y002600D01*
X009130Y004975D01*
X009130Y005225D01*
X008130Y005225D02*
X008130Y004975D01*
X005755Y002600D01*
X005755Y001100D01*
X004755Y001100D02*
X004755Y002600D01*
X004005Y003350D02*
X005630Y004975D01*
X004630Y004975D02*
X004630Y005600D01*
X005630Y006600D01*
X005630Y007100D01*
X006630Y007100D02*
X006630Y007600D01*
X004630Y009600D01*
X004630Y008350D02*
X004130Y007850D01*
X004130Y005100D01*
X003880Y004850D01*
X003005Y004850D01*
X003005Y004350D02*
X002005Y004350D01*
X001630Y004725D01*
X001630Y007100D01*
X000630Y007100D02*
X000630Y004350D01*
X001130Y003850D01*
X003005Y003850D01*
X002630Y002975D02*
X004630Y004975D01*
X003630Y006475D02*
X003005Y005850D01*
X003630Y006475D02*
X003630Y007100D01*
X009630Y012600D02*
X009630Y013100D01*
X009630Y012600D02*
X014130Y008100D01*
X014130Y005850D01*
X012130Y005225D02*
X012130Y004975D01*
X009755Y002600D01*
X015630Y013100D02*
X015630Y014225D01*
X013755Y016100D01*
X013755Y018850D01*
X014755Y018850D02*
X014755Y016100D01*
X016630Y014225D01*
X016630Y013100D01*
X017630Y013100D02*
X017630Y014225D01*
X015755Y016100D01*
X015755Y018850D01*
X016755Y018850D02*
X016755Y016100D01*
X018630Y014225D01*
X018630Y013100D01*
X019630Y013100D02*
X019630Y014225D01*
X017755Y016100D01*
X017755Y018850D01*
X018255Y017350D02*
X019255Y017350D01*
X019285Y017320D01*
X019255Y016350D02*
X018255Y016350D01*
X019255Y016350D02*
X019285Y016320D01*
D18*
X018255Y016350D03*
X018255Y017350D03*
X013255Y005850D03*
X012130Y005225D03*
X012505Y004350D03*
X012005Y003850D03*
X011005Y003350D03*
X011005Y002850D03*
X011005Y002350D03*
X011130Y005225D03*
X010130Y005225D03*
X009130Y005225D03*
X008130Y005225D03*
X007130Y005225D03*
X006130Y005225D03*
X005130Y005225D03*
X004005Y003350D03*
X004505Y002850D03*
X003005Y003850D03*
X003005Y004350D03*
X003005Y004850D03*
X003005Y005850D03*
X004630Y008350D03*
X004630Y009600D03*
X002630Y002975D03*
X017380Y002850D03*
X017380Y005100D03*
X019505Y004975D03*
D19*
X019505Y004937D01*
X019505Y005763D02*
X019418Y005850D01*
X017379Y005850D01*
X016681Y005900D02*
X016581Y005900D01*
X016581Y006315D01*
X016355Y006315D01*
X016317Y006305D01*
X016283Y006285D01*
X016255Y006257D01*
X016235Y006223D01*
X016225Y006185D01*
X016225Y005900D01*
X016581Y005900D01*
X016581Y005800D01*
X016681Y005800D01*
X016681Y005150D01*
X016581Y005150D01*
X016581Y005545D01*
X016581Y005800D01*
X016225Y005800D01*
X016225Y005515D01*
X016235Y005477D01*
X016242Y005465D01*
X016235Y005453D01*
X016225Y005415D01*
X016225Y005150D01*
X016581Y005150D01*
X016581Y005050D01*
X016681Y005050D01*
X016681Y004655D01*
X016681Y004400D01*
X016581Y004400D01*
X016581Y005050D01*
X016225Y005050D01*
X016225Y004785D01*
X016235Y004747D01*
X016248Y004725D01*
X016235Y004703D01*
X016225Y004665D01*
X016225Y004400D01*
X016581Y004400D01*
X016581Y004300D01*
X016681Y004300D01*
X016681Y003650D01*
X016581Y003650D01*
X016581Y004045D01*
X016581Y004300D01*
X016225Y004300D01*
X016225Y004035D01*
X016235Y003997D01*
X016248Y003975D01*
X016235Y003953D01*
X016225Y003915D01*
X016225Y003650D01*
X016581Y003650D01*
X016581Y003550D01*
X016681Y003550D01*
X016681Y003155D01*
X016681Y002900D01*
X016581Y002900D01*
X016581Y003550D01*
X016225Y003550D01*
X016225Y003285D01*
X016235Y003247D01*
X016248Y003225D01*
X016235Y003203D01*
X016225Y003165D01*
X016225Y002900D01*
X016581Y002900D01*
X016581Y002800D01*
X016681Y002800D01*
X016681Y002405D01*
X016907Y002405D01*
X016945Y002415D01*
X016979Y002435D01*
X017005Y002461D01*
X017005Y001556D01*
X016955Y001582D01*
X016877Y001607D01*
X016805Y001619D01*
X016805Y001150D01*
X016705Y001150D01*
X016705Y001619D01*
X016633Y001607D01*
X016555Y001582D01*
X016482Y001545D01*
X016416Y001497D01*
X016387Y001468D01*
X013755Y004100D01*
X013755Y006502D01*
X013834Y006535D01*
X013935Y006636D01*
X013990Y006768D01*
X013990Y007432D01*
X013935Y007564D01*
X013834Y007665D01*
X013790Y007683D01*
X013790Y008166D01*
X013696Y008260D01*
X009508Y012449D01*
X009534Y012440D01*
X009598Y012430D01*
X009600Y012430D01*
X009600Y013070D01*
X009660Y013070D01*
X009660Y012430D01*
X009662Y012430D01*
X009726Y012440D01*
X009787Y012460D01*
X009845Y012489D01*
X009897Y012527D01*
X009943Y012573D01*
X009970Y012610D01*
X009970Y012534D01*
X014255Y008249D01*
X014255Y006850D01*
X014270Y006835D01*
X014270Y006768D01*
X014325Y006636D01*
X014426Y006535D01*
X014558Y006480D01*
X014625Y006480D01*
X014755Y006350D01*
X016755Y006350D01*
X016790Y006315D01*
X016681Y006315D01*
X016681Y005900D01*
X016681Y005912D02*
X016581Y005912D01*
X016631Y005850D02*
X014130Y005850D01*
X013755Y005813D02*
X016581Y005813D01*
X016581Y005715D02*
X016681Y005715D01*
X016681Y005616D02*
X016581Y005616D01*
X016581Y005518D02*
X016681Y005518D01*
X016681Y005419D02*
X016581Y005419D01*
X016581Y005321D02*
X016681Y005321D01*
X016681Y005222D02*
X016581Y005222D01*
X016581Y005124D02*
X013755Y005124D01*
X013755Y005222D02*
X016225Y005222D01*
X016225Y005321D02*
X013755Y005321D01*
X013755Y005419D02*
X016226Y005419D01*
X016225Y005518D02*
X013755Y005518D01*
X013755Y005616D02*
X016225Y005616D01*
X016225Y005715D02*
X013755Y005715D01*
X013755Y005912D02*
X016225Y005912D01*
X016225Y006010D02*
X013755Y006010D01*
X013755Y006109D02*
X016225Y006109D01*
X016231Y006207D02*
X013755Y006207D01*
X013755Y006306D02*
X016320Y006306D01*
X016581Y006306D02*
X016681Y006306D01*
X016681Y006207D02*
X016581Y006207D01*
X016581Y006109D02*
X016681Y006109D01*
X016681Y006010D02*
X016581Y006010D01*
X016631Y005100D02*
X014130Y005100D01*
X013755Y005025D02*
X016225Y005025D01*
X016225Y004927D02*
X013755Y004927D01*
X013755Y004828D02*
X016225Y004828D01*
X016245Y004730D02*
X013755Y004730D01*
X013755Y004631D02*
X016225Y004631D01*
X016225Y004533D02*
X013755Y004533D01*
X013755Y004434D02*
X016225Y004434D01*
X016225Y004237D02*
X013755Y004237D01*
X013755Y004139D02*
X016225Y004139D01*
X016225Y004040D02*
X013815Y004040D01*
X013913Y003942D02*
X016232Y003942D01*
X016225Y003843D02*
X014012Y003843D01*
X014110Y003745D02*
X016225Y003745D01*
X016225Y003548D02*
X014307Y003548D01*
X014209Y003646D02*
X016581Y003646D01*
X016631Y003600D02*
X014943Y003600D01*
X014943Y003538D01*
X014603Y003252D02*
X016234Y003252D01*
X016225Y003154D02*
X014701Y003154D01*
X014800Y003055D02*
X016225Y003055D01*
X016225Y002957D02*
X014898Y002957D01*
X014997Y002858D02*
X016581Y002858D01*
X016631Y002850D02*
X015630Y002850D01*
X015568Y002913D01*
X015292Y002563D02*
X016225Y002563D01*
X016225Y002535D02*
X016235Y002497D01*
X016255Y002463D01*
X016283Y002435D01*
X016317Y002415D01*
X016355Y002405D01*
X016581Y002405D01*
X016581Y002800D01*
X016225Y002800D01*
X016225Y002535D01*
X016254Y002464D02*
X015391Y002464D01*
X015489Y002366D02*
X017005Y002366D01*
X017005Y002267D02*
X015588Y002267D01*
X015686Y002169D02*
X017005Y002169D01*
X017005Y002070D02*
X015785Y002070D01*
X015883Y001972D02*
X017005Y001972D01*
X017005Y001873D02*
X015982Y001873D01*
X016080Y001775D02*
X017005Y001775D01*
X017005Y001676D02*
X016179Y001676D01*
X016277Y001578D02*
X016547Y001578D01*
X016705Y001578D02*
X016805Y001578D01*
X016805Y001479D02*
X016705Y001479D01*
X016705Y001381D02*
X016805Y001381D01*
X016805Y001282D02*
X016705Y001282D01*
X016705Y001184D02*
X016805Y001184D01*
X016963Y001578D02*
X017005Y001578D01*
X016399Y001479D02*
X016376Y001479D01*
X016581Y002464D02*
X016681Y002464D01*
X016681Y002563D02*
X016581Y002563D01*
X016581Y002661D02*
X016681Y002661D01*
X016681Y002760D02*
X016581Y002760D01*
X016581Y002957D02*
X016681Y002957D01*
X016681Y003055D02*
X016581Y003055D01*
X016581Y003154D02*
X016681Y003154D01*
X016681Y003252D02*
X016581Y003252D01*
X016581Y003351D02*
X016681Y003351D01*
X016681Y003449D02*
X016581Y003449D01*
X016581Y003548D02*
X016681Y003548D01*
X016681Y003745D02*
X016581Y003745D01*
X016581Y003843D02*
X016681Y003843D01*
X016681Y003942D02*
X016581Y003942D01*
X016581Y004040D02*
X016681Y004040D01*
X016681Y004139D02*
X016581Y004139D01*
X016581Y004237D02*
X016681Y004237D01*
X016631Y004350D02*
X014193Y004350D01*
X014193Y004288D01*
X013755Y004336D02*
X016581Y004336D01*
X016581Y004434D02*
X016681Y004434D01*
X016681Y004533D02*
X016581Y004533D01*
X016581Y004631D02*
X016681Y004631D01*
X016681Y004730D02*
X016581Y004730D01*
X016581Y004828D02*
X016681Y004828D01*
X016681Y004927D02*
X016581Y004927D01*
X016581Y005025D02*
X016681Y005025D01*
X017379Y005100D02*
X017379Y004350D01*
X017380Y004100D02*
X017379Y004099D01*
X017379Y003600D01*
X017379Y002850D02*
X017380Y002850D01*
X016225Y002760D02*
X015095Y002760D01*
X015194Y002661D02*
X016225Y002661D01*
X016225Y003351D02*
X014504Y003351D01*
X014406Y003449D02*
X016225Y003449D01*
X017379Y005100D02*
X017380Y005100D01*
X014701Y006404D02*
X013755Y006404D01*
X013756Y006503D02*
X014504Y006503D01*
X014360Y006601D02*
X013900Y006601D01*
X013961Y006700D02*
X014299Y006700D01*
X014270Y006798D02*
X013990Y006798D01*
X013990Y006897D02*
X014255Y006897D01*
X014255Y006995D02*
X013990Y006995D01*
X013990Y007094D02*
X014255Y007094D01*
X014255Y007192D02*
X013990Y007192D01*
X013990Y007291D02*
X014255Y007291D01*
X014255Y007389D02*
X013990Y007389D01*
X013967Y007488D02*
X014255Y007488D01*
X014255Y007586D02*
X013913Y007586D01*
X013790Y007685D02*
X014255Y007685D01*
X014255Y007783D02*
X013790Y007783D01*
X013790Y007882D02*
X014255Y007882D01*
X014255Y007980D02*
X013790Y007980D01*
X013790Y008079D02*
X014255Y008079D01*
X014255Y008177D02*
X013779Y008177D01*
X013681Y008276D02*
X014228Y008276D01*
X014130Y008374D02*
X013582Y008374D01*
X013484Y008473D02*
X014031Y008473D01*
X013933Y008571D02*
X013385Y008571D01*
X013287Y008670D02*
X013834Y008670D01*
X013736Y008768D02*
X013188Y008768D01*
X013090Y008867D02*
X013637Y008867D01*
X013539Y008965D02*
X012991Y008965D01*
X012893Y009064D02*
X013440Y009064D01*
X013342Y009162D02*
X012794Y009162D01*
X012696Y009261D02*
X013243Y009261D01*
X013145Y009359D02*
X012597Y009359D01*
X012499Y009458D02*
X013046Y009458D01*
X012948Y009556D02*
X012400Y009556D01*
X012302Y009655D02*
X012849Y009655D01*
X012751Y009753D02*
X012203Y009753D01*
X012105Y009852D02*
X012652Y009852D01*
X012554Y009950D02*
X012006Y009950D01*
X011908Y010049D02*
X012455Y010049D01*
X012357Y010147D02*
X011809Y010147D01*
X011711Y010246D02*
X012258Y010246D01*
X012160Y010344D02*
X011612Y010344D01*
X011514Y010443D02*
X012061Y010443D01*
X011963Y010541D02*
X011415Y010541D01*
X011317Y010640D02*
X011864Y010640D01*
X011766Y010738D02*
X011218Y010738D01*
X011120Y010837D02*
X011667Y010837D01*
X011569Y010935D02*
X011021Y010935D01*
X010923Y011034D02*
X011470Y011034D01*
X011372Y011132D02*
X010824Y011132D01*
X010726Y011231D02*
X011273Y011231D01*
X011175Y011329D02*
X010627Y011329D01*
X010529Y011428D02*
X011076Y011428D01*
X010978Y011526D02*
X010430Y011526D01*
X010332Y011625D02*
X010879Y011625D01*
X010781Y011723D02*
X010233Y011723D01*
X010135Y011822D02*
X010682Y011822D01*
X010584Y011920D02*
X010036Y011920D01*
X009938Y012019D02*
X010485Y012019D01*
X010387Y012117D02*
X009839Y012117D01*
X009741Y012216D02*
X010288Y012216D01*
X010190Y012314D02*
X009642Y012314D01*
X009544Y012413D02*
X010091Y012413D01*
X009993Y012511D02*
X009875Y012511D01*
X009969Y012610D02*
X009970Y012610D01*
X009660Y012610D02*
X009600Y012610D01*
X009600Y012708D02*
X009660Y012708D01*
X009660Y012807D02*
X009600Y012807D01*
X009600Y012905D02*
X009660Y012905D01*
X009660Y013004D02*
X009600Y013004D01*
X009600Y012511D02*
X009660Y012511D01*
M02*
