%
M48
M72
T01C0.0236
T02C0.0320
T03C0.0400
T04C0.1181
%
T01
X2630Y2975
X3005Y3850
X3005Y4350
X3005Y4850
X3005Y5850
X5130Y5225
X6130Y5225
X7130Y5225
X8130Y5225
X9130Y5225
X10130Y5225
X11130Y5225
X12130Y5225
X12505Y4350
X12005Y3850
X11005Y3350
X11005Y2850
X11005Y2350
X13255Y5850
X17380Y5100
X19505Y4975
X17380Y2850
X4505Y2850
X4005Y3350
X4630Y8350
X4630Y9600
X18255Y17350
X18255Y16350
T02
X630Y13100
X1630Y13100
X2630Y13100
X3630Y13100
X4630Y13100
X5630Y13100
X6630Y13100
X7630Y13100
X8630Y13100
X9630Y13100
X10630Y13100
X11630Y13100
X12630Y13100
X13630Y13100
X14630Y13100
X15630Y13100
X16630Y13100
X17630Y13100
X18630Y13100
X19630Y13100
X18630Y7100
X17630Y7100
X16630Y7100
X15630Y7100
X14630Y7100
X13630Y7100
X12630Y7100
X11630Y7100
X10630Y7100
X9630Y7100
X8630Y7100
X7630Y7100
X6630Y7100
X5630Y7100
X4630Y7100
X3630Y7100
X2630Y7100
X1630Y7100
X630Y7100
X19630Y7100
T03
X1901Y2496
X1194Y3204
X2755Y1100
X3755Y1100
X4755Y1100
X5755Y1100
X6755Y1100
X7755Y1100
X8755Y1100
X9755Y1100
X10755Y1100
X11755Y1100
X12755Y1100
X13755Y1100
X14755Y1100
X15755Y1100
X16755Y1100
X17755Y1100
X18432Y2527
X19139Y3234
X19285Y16320
X19285Y17320
X17755Y18850
X16755Y18850
X15755Y18850
X14755Y18850
X13755Y18850
X12755Y18850
X11755Y18850
X10755Y18850
X9755Y18850
X8755Y18850
X7755Y18850
X6755Y18850
X5755Y18850
X4755Y18850
X3755Y18850
X2755Y18850
X901Y17350
X901Y16350
T04
X1255Y18850
X19005Y18850
X19005Y1100
X1255Y1100
M30
