G75*
%MOIN*%
%OFA0B0*%
%FSLAX24Y24*%
%IPPOS*%
%LPD*%
%AMOC8*
5,1,8,0,0,1.08239X$1,22.5*
%
%ADD10C,0.0000*%
%ADD11C,0.1221*%
%ADD12C,0.0780*%
%ADD13C,0.0560*%
%ADD14R,0.0552X0.0631*%
%ADD15R,0.0552X0.0670*%
%ADD16R,0.0512X0.0512*%
D10*
X000255Y000100D02*
X000255Y019785D01*
X019940Y019785D01*
X019940Y000100D01*
X000255Y000100D01*
X000664Y001100D02*
X000666Y001148D01*
X000672Y001196D01*
X000682Y001243D01*
X000695Y001289D01*
X000713Y001334D01*
X000733Y001378D01*
X000758Y001420D01*
X000786Y001459D01*
X000816Y001496D01*
X000850Y001530D01*
X000887Y001562D01*
X000925Y001591D01*
X000966Y001616D01*
X001009Y001638D01*
X001054Y001656D01*
X001100Y001670D01*
X001147Y001681D01*
X001195Y001688D01*
X001243Y001691D01*
X001291Y001690D01*
X001339Y001685D01*
X001387Y001676D01*
X001433Y001664D01*
X001478Y001647D01*
X001522Y001627D01*
X001564Y001604D01*
X001604Y001577D01*
X001642Y001547D01*
X001677Y001514D01*
X001709Y001478D01*
X001739Y001440D01*
X001765Y001399D01*
X001787Y001356D01*
X001807Y001312D01*
X001822Y001267D01*
X001834Y001220D01*
X001842Y001172D01*
X001846Y001124D01*
X001846Y001076D01*
X001842Y001028D01*
X001834Y000980D01*
X001822Y000933D01*
X001807Y000888D01*
X001787Y000844D01*
X001765Y000801D01*
X001739Y000760D01*
X001709Y000722D01*
X001677Y000686D01*
X001642Y000653D01*
X001604Y000623D01*
X001564Y000596D01*
X001522Y000573D01*
X001478Y000553D01*
X001433Y000536D01*
X001387Y000524D01*
X001339Y000515D01*
X001291Y000510D01*
X001243Y000509D01*
X001195Y000512D01*
X001147Y000519D01*
X001100Y000530D01*
X001054Y000544D01*
X001009Y000562D01*
X000966Y000584D01*
X000925Y000609D01*
X000887Y000638D01*
X000850Y000670D01*
X000816Y000704D01*
X000786Y000741D01*
X000758Y000780D01*
X000733Y000822D01*
X000713Y000866D01*
X000695Y000911D01*
X000682Y000957D01*
X000672Y001004D01*
X000666Y001052D01*
X000664Y001100D01*
X000664Y018850D02*
X000666Y018898D01*
X000672Y018946D01*
X000682Y018993D01*
X000695Y019039D01*
X000713Y019084D01*
X000733Y019128D01*
X000758Y019170D01*
X000786Y019209D01*
X000816Y019246D01*
X000850Y019280D01*
X000887Y019312D01*
X000925Y019341D01*
X000966Y019366D01*
X001009Y019388D01*
X001054Y019406D01*
X001100Y019420D01*
X001147Y019431D01*
X001195Y019438D01*
X001243Y019441D01*
X001291Y019440D01*
X001339Y019435D01*
X001387Y019426D01*
X001433Y019414D01*
X001478Y019397D01*
X001522Y019377D01*
X001564Y019354D01*
X001604Y019327D01*
X001642Y019297D01*
X001677Y019264D01*
X001709Y019228D01*
X001739Y019190D01*
X001765Y019149D01*
X001787Y019106D01*
X001807Y019062D01*
X001822Y019017D01*
X001834Y018970D01*
X001842Y018922D01*
X001846Y018874D01*
X001846Y018826D01*
X001842Y018778D01*
X001834Y018730D01*
X001822Y018683D01*
X001807Y018638D01*
X001787Y018594D01*
X001765Y018551D01*
X001739Y018510D01*
X001709Y018472D01*
X001677Y018436D01*
X001642Y018403D01*
X001604Y018373D01*
X001564Y018346D01*
X001522Y018323D01*
X001478Y018303D01*
X001433Y018286D01*
X001387Y018274D01*
X001339Y018265D01*
X001291Y018260D01*
X001243Y018259D01*
X001195Y018262D01*
X001147Y018269D01*
X001100Y018280D01*
X001054Y018294D01*
X001009Y018312D01*
X000966Y018334D01*
X000925Y018359D01*
X000887Y018388D01*
X000850Y018420D01*
X000816Y018454D01*
X000786Y018491D01*
X000758Y018530D01*
X000733Y018572D01*
X000713Y018616D01*
X000695Y018661D01*
X000682Y018707D01*
X000672Y018754D01*
X000666Y018802D01*
X000664Y018850D01*
X018414Y018850D02*
X018416Y018898D01*
X018422Y018946D01*
X018432Y018993D01*
X018445Y019039D01*
X018463Y019084D01*
X018483Y019128D01*
X018508Y019170D01*
X018536Y019209D01*
X018566Y019246D01*
X018600Y019280D01*
X018637Y019312D01*
X018675Y019341D01*
X018716Y019366D01*
X018759Y019388D01*
X018804Y019406D01*
X018850Y019420D01*
X018897Y019431D01*
X018945Y019438D01*
X018993Y019441D01*
X019041Y019440D01*
X019089Y019435D01*
X019137Y019426D01*
X019183Y019414D01*
X019228Y019397D01*
X019272Y019377D01*
X019314Y019354D01*
X019354Y019327D01*
X019392Y019297D01*
X019427Y019264D01*
X019459Y019228D01*
X019489Y019190D01*
X019515Y019149D01*
X019537Y019106D01*
X019557Y019062D01*
X019572Y019017D01*
X019584Y018970D01*
X019592Y018922D01*
X019596Y018874D01*
X019596Y018826D01*
X019592Y018778D01*
X019584Y018730D01*
X019572Y018683D01*
X019557Y018638D01*
X019537Y018594D01*
X019515Y018551D01*
X019489Y018510D01*
X019459Y018472D01*
X019427Y018436D01*
X019392Y018403D01*
X019354Y018373D01*
X019314Y018346D01*
X019272Y018323D01*
X019228Y018303D01*
X019183Y018286D01*
X019137Y018274D01*
X019089Y018265D01*
X019041Y018260D01*
X018993Y018259D01*
X018945Y018262D01*
X018897Y018269D01*
X018850Y018280D01*
X018804Y018294D01*
X018759Y018312D01*
X018716Y018334D01*
X018675Y018359D01*
X018637Y018388D01*
X018600Y018420D01*
X018566Y018454D01*
X018536Y018491D01*
X018508Y018530D01*
X018483Y018572D01*
X018463Y018616D01*
X018445Y018661D01*
X018432Y018707D01*
X018422Y018754D01*
X018416Y018802D01*
X018414Y018850D01*
X018414Y001100D02*
X018416Y001148D01*
X018422Y001196D01*
X018432Y001243D01*
X018445Y001289D01*
X018463Y001334D01*
X018483Y001378D01*
X018508Y001420D01*
X018536Y001459D01*
X018566Y001496D01*
X018600Y001530D01*
X018637Y001562D01*
X018675Y001591D01*
X018716Y001616D01*
X018759Y001638D01*
X018804Y001656D01*
X018850Y001670D01*
X018897Y001681D01*
X018945Y001688D01*
X018993Y001691D01*
X019041Y001690D01*
X019089Y001685D01*
X019137Y001676D01*
X019183Y001664D01*
X019228Y001647D01*
X019272Y001627D01*
X019314Y001604D01*
X019354Y001577D01*
X019392Y001547D01*
X019427Y001514D01*
X019459Y001478D01*
X019489Y001440D01*
X019515Y001399D01*
X019537Y001356D01*
X019557Y001312D01*
X019572Y001267D01*
X019584Y001220D01*
X019592Y001172D01*
X019596Y001124D01*
X019596Y001076D01*
X019592Y001028D01*
X019584Y000980D01*
X019572Y000933D01*
X019557Y000888D01*
X019537Y000844D01*
X019515Y000801D01*
X019489Y000760D01*
X019459Y000722D01*
X019427Y000686D01*
X019392Y000653D01*
X019354Y000623D01*
X019314Y000596D01*
X019272Y000573D01*
X019228Y000553D01*
X019183Y000536D01*
X019137Y000524D01*
X019089Y000515D01*
X019041Y000510D01*
X018993Y000509D01*
X018945Y000512D01*
X018897Y000519D01*
X018850Y000530D01*
X018804Y000544D01*
X018759Y000562D01*
X018716Y000584D01*
X018675Y000609D01*
X018637Y000638D01*
X018600Y000670D01*
X018566Y000704D01*
X018536Y000741D01*
X018508Y000780D01*
X018483Y000822D01*
X018463Y000866D01*
X018445Y000911D01*
X018432Y000957D01*
X018422Y001004D01*
X018416Y001052D01*
X018414Y001100D01*
D11*
X019005Y001100D03*
X001255Y001100D03*
X001255Y018850D03*
X019005Y018850D03*
D12*
X017755Y018850D03*
X016755Y018850D03*
X015755Y018850D03*
X014755Y018850D03*
X013755Y018850D03*
X012755Y018850D03*
X011755Y018850D03*
X010755Y018850D03*
X009755Y018850D03*
X008755Y018850D03*
X007755Y018850D03*
X006755Y018850D03*
X005755Y018850D03*
X004755Y018850D03*
X003755Y018850D03*
X002755Y018850D03*
X000901Y017350D03*
X000901Y016350D03*
X001194Y003204D03*
X001901Y002496D03*
X002755Y001100D03*
X003755Y001100D03*
X004755Y001100D03*
X005755Y001100D03*
X006755Y001100D03*
X007755Y001100D03*
X008755Y001100D03*
X009755Y001100D03*
X010755Y001100D03*
X011755Y001100D03*
X012755Y001100D03*
X013755Y001100D03*
X014755Y001100D03*
X015755Y001100D03*
X016755Y001100D03*
X017755Y001100D03*
X018432Y002527D03*
X019139Y003234D03*
X019285Y016320D03*
X019285Y017320D03*
D13*
X019630Y013360D02*
X019630Y012840D01*
X018630Y012840D02*
X018630Y013360D01*
X017630Y013360D02*
X017630Y012840D01*
X016630Y012840D02*
X016630Y013360D01*
X015630Y013360D02*
X015630Y012840D01*
X014630Y012840D02*
X014630Y013360D01*
X013630Y013360D02*
X013630Y012840D01*
X012630Y012840D02*
X012630Y013360D01*
X011630Y013360D02*
X011630Y012840D01*
X010630Y012840D02*
X010630Y013360D01*
X009630Y013360D02*
X009630Y012840D01*
X008630Y012840D02*
X008630Y013360D01*
X007630Y013360D02*
X007630Y012840D01*
X006630Y012840D02*
X006630Y013360D01*
X005630Y013360D02*
X005630Y012840D01*
X004630Y012840D02*
X004630Y013360D01*
X003630Y013360D02*
X003630Y012840D01*
X002630Y012840D02*
X002630Y013360D01*
X001630Y013360D02*
X001630Y012840D01*
X000630Y012840D02*
X000630Y013360D01*
X000630Y007360D02*
X000630Y006840D01*
X001630Y006840D02*
X001630Y007360D01*
X002630Y007360D02*
X002630Y006840D01*
X003630Y006840D02*
X003630Y007360D01*
X004630Y007360D02*
X004630Y006840D01*
X005630Y006840D02*
X005630Y007360D01*
X006630Y007360D02*
X006630Y006840D01*
X007630Y006840D02*
X007630Y007360D01*
X008630Y007360D02*
X008630Y006840D01*
X009630Y006840D02*
X009630Y007360D01*
X010630Y007360D02*
X010630Y006840D01*
X011630Y006840D02*
X011630Y007360D01*
X012630Y007360D02*
X012630Y006840D01*
X013630Y006840D02*
X013630Y007360D01*
X014630Y007360D02*
X014630Y006840D01*
X015630Y006840D02*
X015630Y007360D01*
X016630Y007360D02*
X016630Y006840D01*
X017630Y006840D02*
X017630Y007360D01*
X018630Y007360D02*
X018630Y006840D01*
X019630Y006840D02*
X019630Y007360D01*
D14*
X017379Y005100D03*
X016631Y005100D03*
X016631Y004350D03*
X016631Y003600D03*
X017379Y003600D03*
X017379Y004350D03*
X017379Y002850D03*
X016631Y002850D03*
D15*
X016631Y005850D03*
X017379Y005850D03*
D16*
X019505Y005763D03*
X019505Y004937D03*
M02*
