G75*
%MOIN*%
%OFA0B0*%
%FSLAX24Y24*%
%IPPOS*%
%LPD*%
%AMOC8*
5,1,8,0,0,1.08239X$1,22.5*
%
%ADD10C,0.0000*%
%ADD11C,0.0100*%
%ADD12C,0.0030*%
%ADD13C,0.0080*%
%ADD14C,0.0060*%
%ADD15R,0.0059X0.0118*%
%ADD16R,0.0118X0.0118*%
D10*
X000255Y000100D02*
X000255Y019785D01*
X019940Y019785D01*
X019940Y000100D01*
X000255Y000100D01*
X000664Y001100D02*
X000666Y001148D01*
X000672Y001196D01*
X000682Y001243D01*
X000695Y001289D01*
X000713Y001334D01*
X000733Y001378D01*
X000758Y001420D01*
X000786Y001459D01*
X000816Y001496D01*
X000850Y001530D01*
X000887Y001562D01*
X000925Y001591D01*
X000966Y001616D01*
X001009Y001638D01*
X001054Y001656D01*
X001100Y001670D01*
X001147Y001681D01*
X001195Y001688D01*
X001243Y001691D01*
X001291Y001690D01*
X001339Y001685D01*
X001387Y001676D01*
X001433Y001664D01*
X001478Y001647D01*
X001522Y001627D01*
X001564Y001604D01*
X001604Y001577D01*
X001642Y001547D01*
X001677Y001514D01*
X001709Y001478D01*
X001739Y001440D01*
X001765Y001399D01*
X001787Y001356D01*
X001807Y001312D01*
X001822Y001267D01*
X001834Y001220D01*
X001842Y001172D01*
X001846Y001124D01*
X001846Y001076D01*
X001842Y001028D01*
X001834Y000980D01*
X001822Y000933D01*
X001807Y000888D01*
X001787Y000844D01*
X001765Y000801D01*
X001739Y000760D01*
X001709Y000722D01*
X001677Y000686D01*
X001642Y000653D01*
X001604Y000623D01*
X001564Y000596D01*
X001522Y000573D01*
X001478Y000553D01*
X001433Y000536D01*
X001387Y000524D01*
X001339Y000515D01*
X001291Y000510D01*
X001243Y000509D01*
X001195Y000512D01*
X001147Y000519D01*
X001100Y000530D01*
X001054Y000544D01*
X001009Y000562D01*
X000966Y000584D01*
X000925Y000609D01*
X000887Y000638D01*
X000850Y000670D01*
X000816Y000704D01*
X000786Y000741D01*
X000758Y000780D01*
X000733Y000822D01*
X000713Y000866D01*
X000695Y000911D01*
X000682Y000957D01*
X000672Y001004D01*
X000666Y001052D01*
X000664Y001100D01*
X000664Y018850D02*
X000666Y018898D01*
X000672Y018946D01*
X000682Y018993D01*
X000695Y019039D01*
X000713Y019084D01*
X000733Y019128D01*
X000758Y019170D01*
X000786Y019209D01*
X000816Y019246D01*
X000850Y019280D01*
X000887Y019312D01*
X000925Y019341D01*
X000966Y019366D01*
X001009Y019388D01*
X001054Y019406D01*
X001100Y019420D01*
X001147Y019431D01*
X001195Y019438D01*
X001243Y019441D01*
X001291Y019440D01*
X001339Y019435D01*
X001387Y019426D01*
X001433Y019414D01*
X001478Y019397D01*
X001522Y019377D01*
X001564Y019354D01*
X001604Y019327D01*
X001642Y019297D01*
X001677Y019264D01*
X001709Y019228D01*
X001739Y019190D01*
X001765Y019149D01*
X001787Y019106D01*
X001807Y019062D01*
X001822Y019017D01*
X001834Y018970D01*
X001842Y018922D01*
X001846Y018874D01*
X001846Y018826D01*
X001842Y018778D01*
X001834Y018730D01*
X001822Y018683D01*
X001807Y018638D01*
X001787Y018594D01*
X001765Y018551D01*
X001739Y018510D01*
X001709Y018472D01*
X001677Y018436D01*
X001642Y018403D01*
X001604Y018373D01*
X001564Y018346D01*
X001522Y018323D01*
X001478Y018303D01*
X001433Y018286D01*
X001387Y018274D01*
X001339Y018265D01*
X001291Y018260D01*
X001243Y018259D01*
X001195Y018262D01*
X001147Y018269D01*
X001100Y018280D01*
X001054Y018294D01*
X001009Y018312D01*
X000966Y018334D01*
X000925Y018359D01*
X000887Y018388D01*
X000850Y018420D01*
X000816Y018454D01*
X000786Y018491D01*
X000758Y018530D01*
X000733Y018572D01*
X000713Y018616D01*
X000695Y018661D01*
X000682Y018707D01*
X000672Y018754D01*
X000666Y018802D01*
X000664Y018850D01*
X018414Y018850D02*
X018416Y018898D01*
X018422Y018946D01*
X018432Y018993D01*
X018445Y019039D01*
X018463Y019084D01*
X018483Y019128D01*
X018508Y019170D01*
X018536Y019209D01*
X018566Y019246D01*
X018600Y019280D01*
X018637Y019312D01*
X018675Y019341D01*
X018716Y019366D01*
X018759Y019388D01*
X018804Y019406D01*
X018850Y019420D01*
X018897Y019431D01*
X018945Y019438D01*
X018993Y019441D01*
X019041Y019440D01*
X019089Y019435D01*
X019137Y019426D01*
X019183Y019414D01*
X019228Y019397D01*
X019272Y019377D01*
X019314Y019354D01*
X019354Y019327D01*
X019392Y019297D01*
X019427Y019264D01*
X019459Y019228D01*
X019489Y019190D01*
X019515Y019149D01*
X019537Y019106D01*
X019557Y019062D01*
X019572Y019017D01*
X019584Y018970D01*
X019592Y018922D01*
X019596Y018874D01*
X019596Y018826D01*
X019592Y018778D01*
X019584Y018730D01*
X019572Y018683D01*
X019557Y018638D01*
X019537Y018594D01*
X019515Y018551D01*
X019489Y018510D01*
X019459Y018472D01*
X019427Y018436D01*
X019392Y018403D01*
X019354Y018373D01*
X019314Y018346D01*
X019272Y018323D01*
X019228Y018303D01*
X019183Y018286D01*
X019137Y018274D01*
X019089Y018265D01*
X019041Y018260D01*
X018993Y018259D01*
X018945Y018262D01*
X018897Y018269D01*
X018850Y018280D01*
X018804Y018294D01*
X018759Y018312D01*
X018716Y018334D01*
X018675Y018359D01*
X018637Y018388D01*
X018600Y018420D01*
X018566Y018454D01*
X018536Y018491D01*
X018508Y018530D01*
X018483Y018572D01*
X018463Y018616D01*
X018445Y018661D01*
X018432Y018707D01*
X018422Y018754D01*
X018416Y018802D01*
X018414Y018850D01*
X018414Y001100D02*
X018416Y001148D01*
X018422Y001196D01*
X018432Y001243D01*
X018445Y001289D01*
X018463Y001334D01*
X018483Y001378D01*
X018508Y001420D01*
X018536Y001459D01*
X018566Y001496D01*
X018600Y001530D01*
X018637Y001562D01*
X018675Y001591D01*
X018716Y001616D01*
X018759Y001638D01*
X018804Y001656D01*
X018850Y001670D01*
X018897Y001681D01*
X018945Y001688D01*
X018993Y001691D01*
X019041Y001690D01*
X019089Y001685D01*
X019137Y001676D01*
X019183Y001664D01*
X019228Y001647D01*
X019272Y001627D01*
X019314Y001604D01*
X019354Y001577D01*
X019392Y001547D01*
X019427Y001514D01*
X019459Y001478D01*
X019489Y001440D01*
X019515Y001399D01*
X019537Y001356D01*
X019557Y001312D01*
X019572Y001267D01*
X019584Y001220D01*
X019592Y001172D01*
X019596Y001124D01*
X019596Y001076D01*
X019592Y001028D01*
X019584Y000980D01*
X019572Y000933D01*
X019557Y000888D01*
X019537Y000844D01*
X019515Y000801D01*
X019489Y000760D01*
X019459Y000722D01*
X019427Y000686D01*
X019392Y000653D01*
X019354Y000623D01*
X019314Y000596D01*
X019272Y000573D01*
X019228Y000553D01*
X019183Y000536D01*
X019137Y000524D01*
X019089Y000515D01*
X019041Y000510D01*
X018993Y000509D01*
X018945Y000512D01*
X018897Y000519D01*
X018850Y000530D01*
X018804Y000544D01*
X018759Y000562D01*
X018716Y000584D01*
X018675Y000609D01*
X018637Y000638D01*
X018600Y000670D01*
X018566Y000704D01*
X018536Y000741D01*
X018508Y000780D01*
X018483Y000822D01*
X018463Y000866D01*
X018445Y000911D01*
X018432Y000957D01*
X018422Y001004D01*
X018416Y001052D01*
X018414Y001100D01*
D11*
X019880Y000225D02*
X019880Y019725D01*
X000380Y019725D01*
X000380Y000225D01*
X019880Y000225D01*
D12*
X019775Y006027D02*
X019775Y006274D01*
X019652Y006150D02*
X019899Y006150D01*
X019758Y011865D02*
X019613Y011865D01*
X019565Y011913D01*
X019613Y011962D01*
X019758Y011962D01*
X019758Y012010D02*
X019758Y011865D01*
X019758Y012010D02*
X019710Y012058D01*
X019613Y012058D01*
X019465Y012058D02*
X019368Y012058D01*
X019417Y012107D02*
X019417Y011913D01*
X019465Y011865D01*
X019267Y011962D02*
X019074Y011962D01*
X019074Y012010D02*
X019122Y012058D01*
X019219Y012058D01*
X019267Y012010D01*
X019267Y011962D01*
X019219Y011865D02*
X019122Y011865D01*
X019074Y011913D01*
X019074Y012010D01*
X018972Y012107D02*
X018779Y011913D01*
X018779Y011865D01*
X018972Y011865D01*
X018972Y012107D02*
X018972Y012155D01*
X018779Y012155D01*
X018385Y012058D02*
X018385Y012010D01*
X018337Y012010D01*
X018337Y012058D01*
X018385Y012058D01*
X018385Y011913D02*
X018385Y011865D01*
X018337Y011865D01*
X018337Y011913D01*
X018385Y011913D01*
X018237Y011865D02*
X018189Y011913D01*
X018189Y012107D01*
X018141Y012058D02*
X018237Y012058D01*
X018039Y012058D02*
X017894Y012058D01*
X017846Y012010D01*
X017846Y011913D01*
X017894Y011865D01*
X018039Y011865D01*
X017745Y011962D02*
X017551Y011962D01*
X017551Y012010D02*
X017600Y012058D01*
X017696Y012058D01*
X017745Y012010D01*
X017745Y011962D01*
X017696Y011865D02*
X017600Y011865D01*
X017551Y011913D01*
X017551Y012010D01*
X017452Y012058D02*
X017452Y011817D01*
X017403Y011768D01*
X017355Y011768D01*
X017254Y011913D02*
X017254Y012010D01*
X017205Y012058D01*
X017109Y012058D01*
X017060Y012010D01*
X017060Y011913D01*
X017109Y011865D01*
X017205Y011865D01*
X017254Y011913D01*
X016960Y012058D02*
X016911Y012058D01*
X016815Y011962D01*
X016815Y012058D02*
X016815Y011865D01*
X016713Y012010D02*
X016665Y011962D01*
X016520Y011962D01*
X016520Y011865D02*
X016520Y012155D01*
X016665Y012155D01*
X016713Y012107D01*
X016713Y012010D01*
X017452Y012155D02*
X017452Y012204D01*
D13*
X019035Y015820D02*
X018785Y016070D01*
X018785Y016570D01*
X019035Y016820D01*
X018785Y017070D01*
X018785Y017570D01*
X019035Y017820D01*
X019535Y017820D01*
X019785Y017570D01*
X019785Y017070D01*
X019535Y016820D01*
X019785Y016570D01*
X019785Y016070D01*
X019535Y015820D01*
X019035Y015820D01*
X018005Y018350D02*
X017505Y018350D01*
X017255Y018600D01*
X017005Y018350D01*
X016505Y018350D01*
X016255Y018600D01*
X016005Y018350D01*
X015505Y018350D01*
X015255Y018600D01*
X015005Y018350D01*
X014505Y018350D01*
X014255Y018600D01*
X014005Y018350D01*
X013505Y018350D01*
X013255Y018600D01*
X013005Y018350D01*
X012505Y018350D01*
X012255Y018600D01*
X012005Y018350D01*
X011505Y018350D01*
X011255Y018600D01*
X011005Y018350D01*
X010505Y018350D01*
X010255Y018600D01*
X010005Y018350D01*
X009505Y018350D01*
X009255Y018600D01*
X009005Y018350D01*
X008505Y018350D01*
X008255Y018600D01*
X008005Y018350D01*
X007505Y018350D01*
X007255Y018600D01*
X007005Y018350D01*
X006505Y018350D01*
X006255Y018600D01*
X006005Y018350D01*
X005505Y018350D01*
X005255Y018600D01*
X005005Y018350D01*
X004505Y018350D01*
X004255Y018600D01*
X004005Y018350D01*
X003505Y018350D01*
X003255Y018600D01*
X003005Y018350D01*
X002505Y018350D01*
X002255Y018600D01*
X002255Y019100D01*
X002505Y019350D01*
X003005Y019350D01*
X003255Y019100D01*
X003505Y019350D01*
X004005Y019350D01*
X004255Y019100D01*
X004505Y019350D01*
X005005Y019350D01*
X005255Y019100D01*
X005505Y019350D01*
X006005Y019350D01*
X006255Y019100D01*
X006505Y019350D01*
X007005Y019350D01*
X007255Y019100D01*
X007505Y019350D01*
X008005Y019350D01*
X008255Y019100D01*
X008505Y019350D01*
X009005Y019350D01*
X009255Y019100D01*
X009505Y019350D01*
X010005Y019350D01*
X010255Y019100D01*
X010505Y019350D01*
X011005Y019350D01*
X011255Y019100D01*
X011505Y019350D01*
X012005Y019350D01*
X012255Y019100D01*
X012505Y019350D01*
X013005Y019350D01*
X013255Y019100D01*
X013505Y019350D01*
X014005Y019350D01*
X014255Y019100D01*
X014505Y019350D01*
X015005Y019350D01*
X015255Y019100D01*
X015505Y019350D01*
X016005Y019350D01*
X016255Y019100D01*
X016505Y019350D01*
X017005Y019350D01*
X017255Y019100D01*
X017505Y019350D01*
X018005Y019350D01*
X018255Y019100D01*
X018255Y018600D01*
X018005Y018350D01*
X018255Y018600D02*
X018255Y019100D01*
X018962Y003764D02*
X019316Y003764D01*
X019669Y003411D01*
X019669Y003057D01*
X019316Y002704D01*
X018962Y002704D01*
X018962Y002350D01*
X018609Y001996D01*
X018255Y001996D01*
X017901Y002350D01*
X017901Y002704D01*
X018255Y003057D01*
X018609Y003057D01*
X018609Y003411D01*
X018962Y003764D01*
X018005Y001600D02*
X017505Y001600D01*
X017255Y001350D01*
X017005Y001600D01*
X016505Y001600D01*
X016255Y001350D01*
X016005Y001600D01*
X015505Y001600D01*
X015255Y001350D01*
X015005Y001600D01*
X014505Y001600D01*
X014255Y001350D01*
X014005Y001600D01*
X013505Y001600D01*
X013255Y001350D01*
X013005Y001600D01*
X012505Y001600D01*
X012255Y001350D01*
X012005Y001600D01*
X011505Y001600D01*
X011255Y001350D01*
X011005Y001600D01*
X010505Y001600D01*
X010255Y001350D01*
X010005Y001600D01*
X009505Y001600D01*
X009255Y001350D01*
X009005Y001600D01*
X008505Y001600D01*
X008255Y001350D01*
X008005Y001600D01*
X007505Y001600D01*
X007255Y001350D01*
X007005Y001600D01*
X006505Y001600D01*
X006255Y001350D01*
X006005Y001600D01*
X005505Y001600D01*
X005255Y001350D01*
X005005Y001600D01*
X004505Y001600D01*
X004255Y001350D01*
X004005Y001600D01*
X003505Y001600D01*
X003255Y001350D01*
X003005Y001600D01*
X002505Y001600D01*
X002255Y001350D01*
X002255Y000850D01*
X002505Y000600D01*
X003005Y000600D01*
X003255Y000850D01*
X003505Y000600D01*
X004005Y000600D01*
X004255Y000850D01*
X004505Y000600D01*
X005005Y000600D01*
X005255Y000850D01*
X005505Y000600D01*
X006005Y000600D01*
X006255Y000850D01*
X006505Y000600D01*
X007005Y000600D01*
X007255Y000850D01*
X007505Y000600D01*
X008005Y000600D01*
X008255Y000850D01*
X008505Y000600D01*
X009005Y000600D01*
X009255Y000850D01*
X009505Y000600D01*
X010005Y000600D01*
X010255Y000850D01*
X010505Y000600D01*
X011005Y000600D01*
X011255Y000850D01*
X011505Y000600D01*
X012005Y000600D01*
X012255Y000850D01*
X012505Y000600D01*
X013005Y000600D01*
X013255Y000850D01*
X013505Y000600D01*
X014005Y000600D01*
X014255Y000850D01*
X014505Y000600D01*
X015005Y000600D01*
X015255Y000850D01*
X015505Y000600D01*
X016005Y000600D01*
X016255Y000850D01*
X016505Y000600D01*
X017005Y000600D01*
X017255Y000850D01*
X017505Y000600D01*
X018005Y000600D01*
X018255Y000850D01*
X018255Y001350D01*
X018005Y001600D01*
X018255Y001350D02*
X018255Y000850D01*
X002432Y002320D02*
X002432Y002673D01*
X002078Y003027D01*
X001725Y003027D01*
X001725Y003380D01*
X001371Y003734D01*
X001018Y003734D01*
X000664Y003380D01*
X000664Y003027D01*
X001018Y002673D01*
X001371Y002673D01*
X001371Y002320D01*
X001725Y001966D01*
X002078Y001966D01*
X002432Y002320D01*
X002255Y001350D02*
X002255Y000850D01*
X001151Y015850D02*
X000651Y015850D01*
X000401Y016100D01*
X000401Y016600D01*
X000651Y016850D01*
X000401Y017100D01*
X000401Y017600D01*
X000651Y017850D01*
X001151Y017850D01*
X001401Y017600D01*
X001401Y017100D01*
X001151Y016850D01*
X001401Y016600D01*
X001401Y016100D01*
X001151Y015850D01*
X002255Y018600D02*
X002255Y019100D01*
D14*
X000130Y012750D02*
X000130Y007450D01*
X020130Y007450D01*
X020130Y009750D01*
X020091Y009752D01*
X020052Y009758D01*
X020014Y009767D01*
X019977Y009780D01*
X019941Y009797D01*
X019908Y009817D01*
X019876Y009841D01*
X019847Y009867D01*
X019821Y009896D01*
X019797Y009928D01*
X019777Y009961D01*
X019760Y009997D01*
X019747Y010034D01*
X019738Y010072D01*
X019732Y010111D01*
X019730Y010150D01*
X019732Y010189D01*
X019738Y010228D01*
X019747Y010266D01*
X019760Y010303D01*
X019777Y010339D01*
X019797Y010372D01*
X019821Y010404D01*
X019847Y010433D01*
X019876Y010459D01*
X019908Y010483D01*
X019941Y010503D01*
X019977Y010520D01*
X020014Y010533D01*
X020052Y010542D01*
X020091Y010548D01*
X020130Y010550D01*
X020130Y012750D01*
X000130Y012750D01*
D15*
X019269Y005291D03*
X019741Y005291D03*
D16*
X019505Y005291D03*
M02*
