G75*
%MOIN*%
%OFA0B0*%
%FSLAX24Y24*%
%IPPOS*%
%LPD*%
%AMOC8*
5,1,8,0,0,1.08239X$1,22.5*
%
%ADD10C,0.0000*%
%ADD11C,0.0740*%
%ADD12C,0.0520*%
%ADD13R,0.0512X0.0591*%
%ADD14R,0.0512X0.0630*%
%ADD15C,0.0120*%
%ADD16OC8,0.0356*%
%ADD17C,0.0100*%
%ADD18C,0.0160*%
D10*
X000255Y000100D02*
X000255Y019785D01*
X019940Y019785D01*
X019940Y000100D01*
X000255Y000100D01*
X000664Y001100D02*
X000666Y001148D01*
X000672Y001196D01*
X000682Y001243D01*
X000695Y001289D01*
X000713Y001334D01*
X000733Y001378D01*
X000758Y001420D01*
X000786Y001459D01*
X000816Y001496D01*
X000850Y001530D01*
X000887Y001562D01*
X000925Y001591D01*
X000966Y001616D01*
X001009Y001638D01*
X001054Y001656D01*
X001100Y001670D01*
X001147Y001681D01*
X001195Y001688D01*
X001243Y001691D01*
X001291Y001690D01*
X001339Y001685D01*
X001387Y001676D01*
X001433Y001664D01*
X001478Y001647D01*
X001522Y001627D01*
X001564Y001604D01*
X001604Y001577D01*
X001642Y001547D01*
X001677Y001514D01*
X001709Y001478D01*
X001739Y001440D01*
X001765Y001399D01*
X001787Y001356D01*
X001807Y001312D01*
X001822Y001267D01*
X001834Y001220D01*
X001842Y001172D01*
X001846Y001124D01*
X001846Y001076D01*
X001842Y001028D01*
X001834Y000980D01*
X001822Y000933D01*
X001807Y000888D01*
X001787Y000844D01*
X001765Y000801D01*
X001739Y000760D01*
X001709Y000722D01*
X001677Y000686D01*
X001642Y000653D01*
X001604Y000623D01*
X001564Y000596D01*
X001522Y000573D01*
X001478Y000553D01*
X001433Y000536D01*
X001387Y000524D01*
X001339Y000515D01*
X001291Y000510D01*
X001243Y000509D01*
X001195Y000512D01*
X001147Y000519D01*
X001100Y000530D01*
X001054Y000544D01*
X001009Y000562D01*
X000966Y000584D01*
X000925Y000609D01*
X000887Y000638D01*
X000850Y000670D01*
X000816Y000704D01*
X000786Y000741D01*
X000758Y000780D01*
X000733Y000822D01*
X000713Y000866D01*
X000695Y000911D01*
X000682Y000957D01*
X000672Y001004D01*
X000666Y001052D01*
X000664Y001100D01*
X000664Y018850D02*
X000666Y018898D01*
X000672Y018946D01*
X000682Y018993D01*
X000695Y019039D01*
X000713Y019084D01*
X000733Y019128D01*
X000758Y019170D01*
X000786Y019209D01*
X000816Y019246D01*
X000850Y019280D01*
X000887Y019312D01*
X000925Y019341D01*
X000966Y019366D01*
X001009Y019388D01*
X001054Y019406D01*
X001100Y019420D01*
X001147Y019431D01*
X001195Y019438D01*
X001243Y019441D01*
X001291Y019440D01*
X001339Y019435D01*
X001387Y019426D01*
X001433Y019414D01*
X001478Y019397D01*
X001522Y019377D01*
X001564Y019354D01*
X001604Y019327D01*
X001642Y019297D01*
X001677Y019264D01*
X001709Y019228D01*
X001739Y019190D01*
X001765Y019149D01*
X001787Y019106D01*
X001807Y019062D01*
X001822Y019017D01*
X001834Y018970D01*
X001842Y018922D01*
X001846Y018874D01*
X001846Y018826D01*
X001842Y018778D01*
X001834Y018730D01*
X001822Y018683D01*
X001807Y018638D01*
X001787Y018594D01*
X001765Y018551D01*
X001739Y018510D01*
X001709Y018472D01*
X001677Y018436D01*
X001642Y018403D01*
X001604Y018373D01*
X001564Y018346D01*
X001522Y018323D01*
X001478Y018303D01*
X001433Y018286D01*
X001387Y018274D01*
X001339Y018265D01*
X001291Y018260D01*
X001243Y018259D01*
X001195Y018262D01*
X001147Y018269D01*
X001100Y018280D01*
X001054Y018294D01*
X001009Y018312D01*
X000966Y018334D01*
X000925Y018359D01*
X000887Y018388D01*
X000850Y018420D01*
X000816Y018454D01*
X000786Y018491D01*
X000758Y018530D01*
X000733Y018572D01*
X000713Y018616D01*
X000695Y018661D01*
X000682Y018707D01*
X000672Y018754D01*
X000666Y018802D01*
X000664Y018850D01*
X018414Y018850D02*
X018416Y018898D01*
X018422Y018946D01*
X018432Y018993D01*
X018445Y019039D01*
X018463Y019084D01*
X018483Y019128D01*
X018508Y019170D01*
X018536Y019209D01*
X018566Y019246D01*
X018600Y019280D01*
X018637Y019312D01*
X018675Y019341D01*
X018716Y019366D01*
X018759Y019388D01*
X018804Y019406D01*
X018850Y019420D01*
X018897Y019431D01*
X018945Y019438D01*
X018993Y019441D01*
X019041Y019440D01*
X019089Y019435D01*
X019137Y019426D01*
X019183Y019414D01*
X019228Y019397D01*
X019272Y019377D01*
X019314Y019354D01*
X019354Y019327D01*
X019392Y019297D01*
X019427Y019264D01*
X019459Y019228D01*
X019489Y019190D01*
X019515Y019149D01*
X019537Y019106D01*
X019557Y019062D01*
X019572Y019017D01*
X019584Y018970D01*
X019592Y018922D01*
X019596Y018874D01*
X019596Y018826D01*
X019592Y018778D01*
X019584Y018730D01*
X019572Y018683D01*
X019557Y018638D01*
X019537Y018594D01*
X019515Y018551D01*
X019489Y018510D01*
X019459Y018472D01*
X019427Y018436D01*
X019392Y018403D01*
X019354Y018373D01*
X019314Y018346D01*
X019272Y018323D01*
X019228Y018303D01*
X019183Y018286D01*
X019137Y018274D01*
X019089Y018265D01*
X019041Y018260D01*
X018993Y018259D01*
X018945Y018262D01*
X018897Y018269D01*
X018850Y018280D01*
X018804Y018294D01*
X018759Y018312D01*
X018716Y018334D01*
X018675Y018359D01*
X018637Y018388D01*
X018600Y018420D01*
X018566Y018454D01*
X018536Y018491D01*
X018508Y018530D01*
X018483Y018572D01*
X018463Y018616D01*
X018445Y018661D01*
X018432Y018707D01*
X018422Y018754D01*
X018416Y018802D01*
X018414Y018850D01*
X018414Y001100D02*
X018416Y001148D01*
X018422Y001196D01*
X018432Y001243D01*
X018445Y001289D01*
X018463Y001334D01*
X018483Y001378D01*
X018508Y001420D01*
X018536Y001459D01*
X018566Y001496D01*
X018600Y001530D01*
X018637Y001562D01*
X018675Y001591D01*
X018716Y001616D01*
X018759Y001638D01*
X018804Y001656D01*
X018850Y001670D01*
X018897Y001681D01*
X018945Y001688D01*
X018993Y001691D01*
X019041Y001690D01*
X019089Y001685D01*
X019137Y001676D01*
X019183Y001664D01*
X019228Y001647D01*
X019272Y001627D01*
X019314Y001604D01*
X019354Y001577D01*
X019392Y001547D01*
X019427Y001514D01*
X019459Y001478D01*
X019489Y001440D01*
X019515Y001399D01*
X019537Y001356D01*
X019557Y001312D01*
X019572Y001267D01*
X019584Y001220D01*
X019592Y001172D01*
X019596Y001124D01*
X019596Y001076D01*
X019592Y001028D01*
X019584Y000980D01*
X019572Y000933D01*
X019557Y000888D01*
X019537Y000844D01*
X019515Y000801D01*
X019489Y000760D01*
X019459Y000722D01*
X019427Y000686D01*
X019392Y000653D01*
X019354Y000623D01*
X019314Y000596D01*
X019272Y000573D01*
X019228Y000553D01*
X019183Y000536D01*
X019137Y000524D01*
X019089Y000515D01*
X019041Y000510D01*
X018993Y000509D01*
X018945Y000512D01*
X018897Y000519D01*
X018850Y000530D01*
X018804Y000544D01*
X018759Y000562D01*
X018716Y000584D01*
X018675Y000609D01*
X018637Y000638D01*
X018600Y000670D01*
X018566Y000704D01*
X018536Y000741D01*
X018508Y000780D01*
X018483Y000822D01*
X018463Y000866D01*
X018445Y000911D01*
X018432Y000957D01*
X018422Y001004D01*
X018416Y001052D01*
X018414Y001100D01*
D11*
X017755Y001100D03*
X016755Y001100D03*
X015755Y001100D03*
X014755Y001100D03*
X013755Y001100D03*
X012755Y001100D03*
X011755Y001100D03*
X010755Y001100D03*
X009755Y001100D03*
X008755Y001100D03*
X007755Y001100D03*
X006755Y001100D03*
X005755Y001100D03*
X004755Y001100D03*
X003755Y001100D03*
X002755Y001100D03*
X001901Y002496D03*
X001194Y003204D03*
X000901Y016350D03*
X000901Y017350D03*
X002755Y018850D03*
X003755Y018850D03*
X004755Y018850D03*
X005755Y018850D03*
X006755Y018850D03*
X007755Y018850D03*
X008755Y018850D03*
X009755Y018850D03*
X010755Y018850D03*
X011755Y018850D03*
X012755Y018850D03*
X013755Y018850D03*
X014755Y018850D03*
X015755Y018850D03*
X016755Y018850D03*
X017755Y018850D03*
X019285Y017320D03*
X019285Y016320D03*
X019139Y003234D03*
X018432Y002527D03*
D12*
X018630Y006840D02*
X018630Y007360D01*
X017630Y007360D02*
X017630Y006840D01*
X016630Y006840D02*
X016630Y007360D01*
X015630Y007360D02*
X015630Y006840D01*
X014630Y006840D02*
X014630Y007360D01*
X013630Y007360D02*
X013630Y006840D01*
X012630Y006840D02*
X012630Y007360D01*
X011630Y007360D02*
X011630Y006840D01*
X010630Y006840D02*
X010630Y007360D01*
X009630Y007360D02*
X009630Y006840D01*
X008630Y006840D02*
X008630Y007360D01*
X007630Y007360D02*
X007630Y006840D01*
X006630Y006840D02*
X006630Y007360D01*
X005630Y007360D02*
X005630Y006840D01*
X004630Y006840D02*
X004630Y007360D01*
X003630Y007360D02*
X003630Y006840D01*
X002630Y006840D02*
X002630Y007360D01*
X001630Y007360D02*
X001630Y006840D01*
X000630Y006840D02*
X000630Y007360D01*
X000630Y012840D02*
X000630Y013360D01*
X001630Y013360D02*
X001630Y012840D01*
X002630Y012840D02*
X002630Y013360D01*
X003630Y013360D02*
X003630Y012840D01*
X004630Y012840D02*
X004630Y013360D01*
X005630Y013360D02*
X005630Y012840D01*
X006630Y012840D02*
X006630Y013360D01*
X007630Y013360D02*
X007630Y012840D01*
X008630Y012840D02*
X008630Y013360D01*
X009630Y013360D02*
X009630Y012840D01*
X010630Y012840D02*
X010630Y013360D01*
X011630Y013360D02*
X011630Y012840D01*
X012630Y012840D02*
X012630Y013360D01*
X013630Y013360D02*
X013630Y012840D01*
X014630Y012840D02*
X014630Y013360D01*
X015630Y013360D02*
X015630Y012840D01*
X016630Y012840D02*
X016630Y013360D01*
X017630Y013360D02*
X017630Y012840D01*
X018630Y012840D02*
X018630Y013360D01*
X019630Y013360D02*
X019630Y012840D01*
X019630Y007360D02*
X019630Y006840D01*
D13*
X009129Y014350D03*
X008381Y014350D03*
D14*
X013381Y002100D03*
X014129Y002100D03*
D15*
X015755Y002100D01*
X016755Y001100D01*
X016312Y001285D02*
X016198Y001285D01*
X016162Y001372D02*
X016027Y001507D01*
X015850Y001580D01*
X015660Y001580D01*
X015483Y001507D01*
X015348Y001372D01*
X015275Y001195D01*
X015275Y001005D01*
X015348Y000828D01*
X015483Y000693D01*
X015660Y000620D01*
X015850Y000620D01*
X016027Y000693D01*
X016162Y000828D01*
X016235Y001005D01*
X016235Y001195D01*
X016162Y001372D01*
X016130Y001404D02*
X016211Y001404D01*
X016317Y001297D02*
X016275Y001195D01*
X016275Y001005D01*
X016348Y000828D01*
X016483Y000693D01*
X016660Y000620D01*
X016850Y000620D01*
X017027Y000693D01*
X017162Y000828D01*
X017234Y001002D01*
X017238Y000976D01*
X017264Y000897D01*
X017302Y000822D01*
X017351Y000755D01*
X017410Y000696D01*
X017477Y000647D01*
X017552Y000609D01*
X017579Y000600D01*
X010931Y000600D01*
X010958Y000609D01*
X011033Y000647D01*
X011100Y000696D01*
X011159Y000755D01*
X011208Y000822D01*
X011246Y000897D01*
X011272Y000976D01*
X011276Y001002D01*
X011348Y000828D01*
X011483Y000693D01*
X011660Y000620D01*
X011850Y000620D01*
X012027Y000693D01*
X012162Y000828D01*
X012235Y001005D01*
X012235Y001195D01*
X012162Y001372D01*
X012027Y001507D01*
X011939Y001543D01*
X012325Y001930D01*
X013015Y001930D01*
X013015Y001739D01*
X013080Y001675D01*
X013682Y001675D01*
X013747Y001739D01*
X013747Y002461D01*
X013682Y002525D01*
X013080Y002525D01*
X013015Y002461D01*
X013015Y002270D01*
X012185Y002270D01*
X011685Y001770D01*
X011585Y001670D01*
X011585Y001549D01*
X011483Y001507D01*
X011348Y001372D01*
X011276Y001198D01*
X011272Y001224D01*
X011246Y001303D01*
X011208Y001378D01*
X011159Y001445D01*
X011100Y001504D01*
X011033Y001553D01*
X010958Y001591D01*
X010879Y001617D01*
X010797Y001630D01*
X010795Y001630D01*
X010795Y001140D01*
X010715Y001140D01*
X010715Y001630D01*
X010713Y001630D01*
X010631Y001617D01*
X010552Y001591D01*
X010477Y001553D01*
X010410Y001504D01*
X010351Y001445D01*
X010302Y001378D01*
X010264Y001303D01*
X010238Y001224D01*
X010234Y001198D01*
X010162Y001372D01*
X010027Y001507D01*
X009850Y001580D01*
X009660Y001580D01*
X009483Y001507D01*
X009348Y001372D01*
X009275Y001195D01*
X009275Y001005D01*
X009348Y000828D01*
X009483Y000693D01*
X009660Y000620D01*
X009850Y000620D01*
X010027Y000693D01*
X010162Y000828D01*
X010234Y001002D01*
X010238Y000976D01*
X010264Y000897D01*
X010302Y000822D01*
X010351Y000755D01*
X010410Y000696D01*
X010477Y000647D01*
X010552Y000609D01*
X010579Y000600D01*
X002505Y000600D01*
X002255Y000850D01*
X002255Y001350D01*
X000755Y002850D01*
X000755Y003010D01*
X000787Y002932D01*
X000922Y002797D01*
X001099Y002724D01*
X001290Y002724D01*
X001466Y002797D01*
X001601Y002932D01*
X001674Y003108D01*
X001674Y003299D01*
X001632Y003401D01*
X002175Y003944D01*
X002175Y004780D01*
X002957Y005562D01*
X003124Y005562D01*
X003293Y005731D01*
X003293Y005969D01*
X003124Y006138D01*
X002886Y006138D01*
X002717Y005969D01*
X002717Y005802D01*
X001835Y004920D01*
X001835Y004780D01*
X001835Y004085D01*
X001392Y003641D01*
X001290Y003684D01*
X001099Y003684D01*
X000922Y003610D01*
X000787Y003475D01*
X000755Y003397D01*
X000755Y006491D01*
X000840Y006526D01*
X000944Y006630D01*
X001000Y006766D01*
X001000Y007434D01*
X000944Y007570D01*
X000840Y007674D01*
X000755Y007709D01*
X000755Y012491D01*
X000840Y012526D01*
X000944Y012630D01*
X001000Y012766D01*
X001000Y013434D01*
X000944Y013570D01*
X000840Y013674D01*
X000755Y013709D01*
X000755Y015891D01*
X000806Y015870D01*
X000997Y015870D01*
X001173Y015943D01*
X001308Y016078D01*
X001381Y016255D01*
X001381Y016445D01*
X001308Y016622D01*
X001173Y016757D01*
X000997Y016830D01*
X000806Y016830D01*
X000755Y016809D01*
X000755Y016891D01*
X000806Y016870D01*
X000997Y016870D01*
X001173Y016943D01*
X001308Y017078D01*
X001381Y017255D01*
X001381Y017445D01*
X001308Y017622D01*
X001293Y017638D01*
X018136Y017638D01*
X018018Y017520D01*
X006685Y017520D01*
X006555Y017390D01*
X006210Y017045D01*
X002960Y013795D01*
X002960Y013530D01*
X002944Y013570D01*
X002840Y013674D01*
X002704Y013730D01*
X002556Y013730D01*
X002420Y013674D01*
X002316Y013570D01*
X002260Y013434D01*
X002260Y012766D01*
X002316Y012630D01*
X002420Y012526D01*
X002556Y012470D01*
X002704Y012470D01*
X002840Y012526D01*
X002944Y012630D01*
X002960Y012670D01*
X002960Y007670D01*
X002901Y007612D01*
X002840Y007674D01*
X002704Y007730D01*
X002556Y007730D01*
X002420Y007674D01*
X002316Y007570D01*
X002260Y007434D01*
X002260Y006766D01*
X002316Y006630D01*
X002420Y006526D01*
X002556Y006470D01*
X002704Y006470D01*
X002840Y006526D01*
X002944Y006630D01*
X003000Y006766D01*
X003000Y007230D01*
X003200Y007430D01*
X003300Y007529D01*
X003260Y007434D01*
X003260Y006766D01*
X003316Y006630D01*
X003420Y006526D01*
X003556Y006470D01*
X003704Y006470D01*
X003840Y006526D01*
X003944Y006630D01*
X004000Y006766D01*
X004000Y007434D01*
X003960Y007529D01*
X004060Y007430D01*
X004260Y007230D01*
X004260Y006766D01*
X004316Y006630D01*
X004420Y006526D01*
X004556Y006470D01*
X004704Y006470D01*
X004840Y006526D01*
X004944Y006630D01*
X004960Y006670D01*
X004960Y005462D01*
X004842Y005344D01*
X004842Y005106D01*
X005011Y004937D01*
X005249Y004937D01*
X005418Y005106D01*
X005418Y005344D01*
X005300Y005462D01*
X005300Y006670D01*
X005316Y006630D01*
X005420Y006526D01*
X005556Y006470D01*
X005704Y006470D01*
X005840Y006526D01*
X005944Y006630D01*
X005960Y006670D01*
X005960Y005462D01*
X005842Y005344D01*
X005842Y005106D01*
X006011Y004937D01*
X006249Y004937D01*
X006418Y005106D01*
X006418Y005344D01*
X006300Y005462D01*
X006300Y006670D01*
X006316Y006630D01*
X006420Y006526D01*
X006556Y006470D01*
X006704Y006470D01*
X006840Y006526D01*
X006944Y006630D01*
X006960Y006670D01*
X006960Y005462D01*
X006842Y005344D01*
X006842Y005106D01*
X007011Y004937D01*
X007249Y004937D01*
X007418Y005106D01*
X007418Y005344D01*
X007300Y005462D01*
X007300Y006670D01*
X007316Y006630D01*
X007420Y006526D01*
X007556Y006470D01*
X007704Y006470D01*
X007840Y006526D01*
X007944Y006630D01*
X007960Y006670D01*
X007960Y005462D01*
X007842Y005344D01*
X007842Y005106D01*
X008011Y004937D01*
X008249Y004937D01*
X008418Y005106D01*
X008418Y005344D01*
X008300Y005462D01*
X008300Y006580D01*
X008310Y006566D01*
X008356Y006520D01*
X008410Y006481D01*
X008469Y006451D01*
X008532Y006430D01*
X008597Y006420D01*
X008610Y006420D01*
X008610Y007080D01*
X008650Y007080D01*
X008650Y006420D01*
X008663Y006420D01*
X008728Y006430D01*
X008791Y006451D01*
X008850Y006481D01*
X008904Y006520D01*
X008950Y006566D01*
X008960Y006580D01*
X008960Y005462D01*
X008842Y005344D01*
X008842Y005106D01*
X009011Y004937D01*
X009249Y004937D01*
X009418Y005106D01*
X009418Y005344D01*
X009300Y005462D01*
X009300Y006670D01*
X009316Y006630D01*
X009420Y006526D01*
X009556Y006470D01*
X009704Y006470D01*
X009840Y006526D01*
X009944Y006630D01*
X009960Y006670D01*
X009960Y005462D01*
X009842Y005344D01*
X009842Y005106D01*
X010011Y004937D01*
X010249Y004937D01*
X010418Y005106D01*
X010418Y005344D01*
X010300Y005462D01*
X010300Y006670D01*
X010316Y006630D01*
X010420Y006526D01*
X010556Y006470D01*
X010704Y006470D01*
X010840Y006526D01*
X010944Y006630D01*
X010960Y006670D01*
X010960Y005462D01*
X010842Y005344D01*
X010842Y005106D01*
X011011Y004937D01*
X011249Y004937D01*
X011418Y005106D01*
X011418Y005344D01*
X011300Y005462D01*
X011300Y006670D01*
X011316Y006630D01*
X011420Y006526D01*
X011556Y006470D01*
X011704Y006470D01*
X011840Y006526D01*
X011944Y006630D01*
X011960Y006670D01*
X011960Y005462D01*
X011842Y005344D01*
X011842Y005106D01*
X012011Y004937D01*
X012249Y004937D01*
X012418Y005106D01*
X012418Y005344D01*
X012300Y005462D01*
X012300Y006670D01*
X012316Y006630D01*
X012420Y006526D01*
X012556Y006470D01*
X012704Y006470D01*
X012840Y006526D01*
X012944Y006630D01*
X013000Y006766D01*
X013000Y007434D01*
X012944Y007570D01*
X012840Y007674D01*
X012704Y007730D01*
X012556Y007730D01*
X012420Y007674D01*
X012316Y007570D01*
X012300Y007530D01*
X012300Y011530D01*
X013359Y012588D01*
X013420Y012526D01*
X013556Y012470D01*
X013704Y012470D01*
X013840Y012526D01*
X013944Y012630D01*
X014000Y012766D01*
X014000Y013434D01*
X013944Y013570D01*
X013840Y013674D01*
X013704Y013730D01*
X013556Y013730D01*
X013420Y013674D01*
X013316Y013570D01*
X013260Y013434D01*
X013260Y012970D01*
X012960Y012671D01*
X013000Y012766D01*
X013000Y013434D01*
X012944Y013570D01*
X012840Y013674D01*
X012704Y013730D01*
X012556Y013730D01*
X012420Y013674D01*
X012316Y013570D01*
X012260Y013434D01*
X012260Y012970D01*
X011960Y012671D01*
X012000Y012766D01*
X012000Y013434D01*
X011944Y013570D01*
X011840Y013674D01*
X011704Y013730D01*
X011556Y013730D01*
X011420Y013674D01*
X011316Y013570D01*
X011260Y013434D01*
X011260Y012970D01*
X010960Y012671D01*
X011000Y012766D01*
X011000Y013434D01*
X010944Y013570D01*
X010840Y013674D01*
X010704Y013730D01*
X010556Y013730D01*
X010420Y013674D01*
X010316Y013570D01*
X010260Y013434D01*
X010260Y012970D01*
X009960Y012671D01*
X010000Y012766D01*
X010000Y013434D01*
X009944Y013570D01*
X009840Y013674D01*
X009800Y013690D01*
X009800Y013919D01*
X009700Y014019D01*
X009495Y014225D01*
X009495Y014691D01*
X009430Y014755D01*
X008828Y014755D01*
X008784Y014711D01*
X008765Y014744D01*
X008735Y014773D01*
X008699Y014794D01*
X019505Y014794D01*
X019505Y014676D02*
X009495Y014676D01*
X009495Y014557D02*
X019505Y014557D01*
X019505Y014439D02*
X009495Y014439D01*
X009495Y014320D02*
X019505Y014320D01*
X019505Y014202D02*
X009518Y014202D01*
X009636Y014083D02*
X019505Y014083D01*
X019505Y013965D02*
X009755Y013965D01*
X009800Y013846D02*
X019505Y013846D01*
X019505Y013728D02*
X018710Y013728D01*
X018704Y013730D02*
X018556Y013730D01*
X018420Y013674D01*
X018316Y013570D01*
X018260Y013434D01*
X018260Y012766D01*
X018316Y012630D01*
X018420Y012526D01*
X018556Y012470D01*
X018704Y012470D01*
X018840Y012526D01*
X018944Y012630D01*
X019000Y012766D01*
X019000Y013434D01*
X018944Y013570D01*
X018840Y013674D01*
X018704Y013730D01*
X018550Y013728D02*
X017710Y013728D01*
X017704Y013730D02*
X017556Y013730D01*
X017420Y013674D01*
X017316Y013570D01*
X017260Y013434D01*
X017260Y012766D01*
X017316Y012630D01*
X017420Y012526D01*
X017556Y012470D01*
X017704Y012470D01*
X017840Y012526D01*
X017944Y012630D01*
X018000Y012766D01*
X018000Y013434D01*
X017944Y013570D01*
X017840Y013674D01*
X017704Y013730D01*
X017550Y013728D02*
X016710Y013728D01*
X016704Y013730D02*
X016556Y013730D01*
X016420Y013674D01*
X016316Y013570D01*
X016260Y013434D01*
X016260Y012766D01*
X016316Y012630D01*
X016420Y012526D01*
X016556Y012470D01*
X016704Y012470D01*
X016840Y012526D01*
X016944Y012630D01*
X017000Y012766D01*
X017000Y013434D01*
X016944Y013570D01*
X016840Y013674D01*
X016704Y013730D01*
X016550Y013728D02*
X015710Y013728D01*
X015704Y013730D02*
X015556Y013730D01*
X015420Y013674D01*
X015316Y013570D01*
X015260Y013434D01*
X015260Y012766D01*
X015280Y012719D01*
X015209Y012790D01*
X015000Y012999D01*
X015000Y013434D01*
X014944Y013570D01*
X014840Y013674D01*
X014704Y013730D01*
X014556Y013730D01*
X014420Y013674D01*
X014316Y013570D01*
X014260Y013434D01*
X014260Y012766D01*
X014316Y012630D01*
X014420Y012526D01*
X014556Y012470D01*
X014704Y012470D01*
X014840Y012526D01*
X014887Y012574D01*
X014940Y012521D01*
X014940Y007573D01*
X014840Y007674D01*
X014704Y007730D01*
X014556Y007730D01*
X014420Y007674D01*
X014316Y007570D01*
X014260Y007434D01*
X014260Y006766D01*
X014316Y006630D01*
X014420Y006526D01*
X014556Y006470D01*
X014704Y006470D01*
X014840Y006526D01*
X014940Y006627D01*
X014940Y006396D01*
X018181Y003155D01*
X018292Y003044D01*
X018698Y003044D01*
X018732Y002962D01*
X018867Y002827D01*
X019043Y002754D01*
X019234Y002754D01*
X019411Y002827D01*
X019505Y002921D01*
X019505Y002600D01*
X018685Y001780D01*
X018580Y001736D01*
X018369Y001525D01*
X018325Y001420D01*
X018255Y001350D01*
X018255Y001276D01*
X018246Y001303D01*
X018208Y001378D01*
X018159Y001445D01*
X018100Y001504D01*
X018033Y001553D01*
X017958Y001591D01*
X017879Y001617D01*
X017797Y001630D01*
X017795Y001630D01*
X017795Y001140D01*
X017715Y001140D01*
X017715Y001630D01*
X017713Y001630D01*
X017631Y001617D01*
X017552Y001591D01*
X017477Y001553D01*
X017410Y001504D01*
X017351Y001445D01*
X017302Y001378D01*
X017264Y001303D01*
X017238Y001224D01*
X017234Y001198D01*
X017162Y001372D01*
X017027Y001507D01*
X016850Y001580D01*
X016660Y001580D01*
X016558Y001538D01*
X015825Y002270D01*
X014495Y002270D01*
X014495Y002461D01*
X014430Y002525D01*
X013828Y002525D01*
X013763Y002461D01*
X013763Y001739D01*
X013828Y001675D01*
X014430Y001675D01*
X014495Y001739D01*
X014495Y001930D01*
X015685Y001930D01*
X016317Y001297D01*
X016275Y001167D02*
X016235Y001167D01*
X016235Y001048D02*
X016275Y001048D01*
X016306Y000930D02*
X016204Y000930D01*
X016145Y000811D02*
X016365Y000811D01*
X016484Y000693D02*
X016026Y000693D01*
X015484Y000693D02*
X015026Y000693D01*
X015027Y000693D02*
X015162Y000828D01*
X015235Y001005D01*
X015235Y001195D01*
X015162Y001372D01*
X015027Y001507D01*
X014850Y001580D01*
X014660Y001580D01*
X014483Y001507D01*
X014348Y001372D01*
X014275Y001195D01*
X014275Y001005D01*
X014348Y000828D01*
X014483Y000693D01*
X014660Y000620D01*
X014850Y000620D01*
X015027Y000693D01*
X015145Y000811D02*
X015365Y000811D01*
X015306Y000930D02*
X015204Y000930D01*
X015235Y001048D02*
X015275Y001048D01*
X015275Y001167D02*
X015235Y001167D01*
X015198Y001285D02*
X015312Y001285D01*
X015380Y001404D02*
X015130Y001404D01*
X014990Y001522D02*
X015520Y001522D01*
X015856Y001759D02*
X014495Y001759D01*
X014495Y001878D02*
X015737Y001878D01*
X015974Y001641D02*
X012036Y001641D01*
X011990Y001522D02*
X012520Y001522D01*
X012483Y001507D02*
X012348Y001372D01*
X012275Y001195D01*
X012275Y001005D01*
X012348Y000828D01*
X012483Y000693D01*
X012660Y000620D01*
X012850Y000620D01*
X013027Y000693D01*
X013162Y000828D01*
X013235Y001005D01*
X013235Y001195D01*
X013162Y001372D01*
X013027Y001507D01*
X012850Y001580D01*
X012660Y001580D01*
X012483Y001507D01*
X012380Y001404D02*
X012130Y001404D01*
X012198Y001285D02*
X012312Y001285D01*
X012275Y001167D02*
X012235Y001167D01*
X012235Y001048D02*
X012275Y001048D01*
X012306Y000930D02*
X012204Y000930D01*
X012145Y000811D02*
X012365Y000811D01*
X012484Y000693D02*
X012026Y000693D01*
X011755Y001100D02*
X011755Y001600D01*
X012255Y002100D01*
X013381Y002100D01*
X013015Y001878D02*
X012273Y001878D01*
X012154Y001759D02*
X013015Y001759D01*
X012990Y001522D02*
X013520Y001522D01*
X013483Y001507D02*
X013348Y001372D01*
X013275Y001195D01*
X013275Y001005D01*
X013348Y000828D01*
X013483Y000693D01*
X013660Y000620D01*
X013850Y000620D01*
X014027Y000693D01*
X014162Y000828D01*
X014235Y001005D01*
X014235Y001195D01*
X014162Y001372D01*
X014027Y001507D01*
X013850Y001580D01*
X013660Y001580D01*
X013483Y001507D01*
X013380Y001404D02*
X013130Y001404D01*
X013198Y001285D02*
X013312Y001285D01*
X013275Y001167D02*
X013235Y001167D01*
X013235Y001048D02*
X013275Y001048D01*
X013306Y000930D02*
X013204Y000930D01*
X013145Y000811D02*
X013365Y000811D01*
X013484Y000693D02*
X013026Y000693D01*
X013990Y001522D02*
X014520Y001522D01*
X014380Y001404D02*
X014130Y001404D01*
X014198Y001285D02*
X014312Y001285D01*
X014275Y001167D02*
X014235Y001167D01*
X014235Y001048D02*
X014275Y001048D01*
X014306Y000930D02*
X014204Y000930D01*
X014145Y000811D02*
X014365Y000811D01*
X014484Y000693D02*
X014026Y000693D01*
X013763Y001759D02*
X013747Y001759D01*
X013747Y001878D02*
X013763Y001878D01*
X013763Y001996D02*
X013747Y001996D01*
X013747Y002115D02*
X013763Y002115D01*
X013763Y002233D02*
X013747Y002233D01*
X013747Y002352D02*
X013763Y002352D01*
X013773Y002470D02*
X013737Y002470D01*
X013025Y002470D02*
X011292Y002470D01*
X011293Y002469D02*
X011162Y002600D01*
X011293Y002731D01*
X011293Y002969D01*
X011162Y003100D01*
X011293Y003231D01*
X011293Y003469D01*
X011124Y003638D01*
X010886Y003638D01*
X010768Y003520D01*
X004242Y003520D01*
X004124Y003638D01*
X003886Y003638D01*
X003717Y003469D01*
X003717Y003231D01*
X003886Y003062D01*
X004124Y003062D01*
X004242Y003180D01*
X010768Y003180D01*
X010848Y003100D01*
X010768Y003020D01*
X004742Y003020D01*
X004624Y003138D01*
X004386Y003138D01*
X004217Y002969D01*
X004217Y002731D01*
X004386Y002562D01*
X004624Y002562D01*
X004742Y002680D01*
X010768Y002680D01*
X010848Y002600D01*
X010768Y002520D01*
X003325Y002520D01*
X002918Y002927D01*
X002918Y003094D01*
X002749Y003263D01*
X002511Y003263D01*
X002342Y003094D01*
X002342Y002856D01*
X002511Y002687D01*
X002678Y002687D01*
X003185Y002180D01*
X010768Y002180D01*
X010886Y002062D01*
X011124Y002062D01*
X011293Y002231D01*
X011293Y002469D01*
X011293Y002352D02*
X013015Y002352D01*
X012148Y002233D02*
X011293Y002233D01*
X011177Y002115D02*
X012029Y002115D01*
X011911Y001996D02*
X001609Y001996D01*
X001630Y002090D02*
X001495Y002225D01*
X001421Y002401D01*
X001421Y002592D01*
X001495Y002768D01*
X001630Y002903D01*
X001731Y002946D01*
X001731Y003317D01*
X001831Y003416D01*
X002210Y003795D01*
X002210Y004795D01*
X002310Y004895D01*
X002435Y005020D01*
X002768Y005020D01*
X002886Y005138D01*
X003124Y005138D01*
X003293Y004969D01*
X003293Y004731D01*
X003162Y004600D01*
X003242Y004520D01*
X012268Y004520D01*
X012386Y004638D01*
X012624Y004638D01*
X012793Y004469D01*
X012793Y004231D01*
X012624Y004062D01*
X012386Y004062D01*
X012268Y004180D01*
X003242Y004180D01*
X003162Y004100D01*
X003242Y004020D01*
X011768Y004020D01*
X011886Y004138D01*
X012124Y004138D01*
X012293Y003969D01*
X012293Y003731D01*
X012124Y003562D01*
X011886Y003562D01*
X011768Y003680D01*
X003242Y003680D01*
X003124Y003562D01*
X002886Y003562D01*
X002717Y003731D01*
X002717Y003969D01*
X002848Y004100D01*
X002717Y004231D01*
X002717Y004469D01*
X002848Y004600D01*
X002768Y004680D01*
X002575Y004680D01*
X002550Y004655D01*
X002550Y003655D01*
X002793Y003655D01*
X002717Y003774D02*
X002550Y003774D01*
X002550Y003892D02*
X002717Y003892D01*
X002758Y004011D02*
X002550Y004011D01*
X002550Y004129D02*
X002819Y004129D01*
X002717Y004248D02*
X002550Y004248D01*
X002550Y004366D02*
X002717Y004366D01*
X002732Y004485D02*
X002550Y004485D01*
X002550Y004603D02*
X002845Y004603D01*
X003005Y004850D02*
X002505Y004850D01*
X002380Y004725D01*
X002380Y003725D01*
X001901Y003246D01*
X001901Y002496D01*
X001552Y002826D02*
X001495Y002826D01*
X001469Y002707D02*
X000898Y002707D01*
X000894Y002826D02*
X000779Y002826D01*
X000782Y002944D02*
X000755Y002944D01*
X001016Y002589D02*
X001421Y002589D01*
X001421Y002470D02*
X001135Y002470D01*
X001253Y002352D02*
X001442Y002352D01*
X001491Y002233D02*
X001372Y002233D01*
X001490Y002115D02*
X001605Y002115D01*
X001630Y002090D02*
X001806Y002016D01*
X001997Y002016D01*
X002173Y002090D01*
X002308Y002225D01*
X002381Y002401D01*
X002381Y002592D01*
X002308Y002768D01*
X002173Y002903D01*
X002071Y002946D01*
X002071Y003176D01*
X002550Y003655D01*
X002432Y003537D02*
X003784Y003537D01*
X003717Y003418D02*
X002313Y003418D01*
X002195Y003300D02*
X003717Y003300D01*
X003767Y003181D02*
X002831Y003181D01*
X002918Y003063D02*
X003885Y003063D01*
X004125Y003063D02*
X004310Y003063D01*
X004217Y002944D02*
X002918Y002944D01*
X003020Y002826D02*
X004217Y002826D01*
X004241Y002707D02*
X003138Y002707D01*
X003257Y002589D02*
X004359Y002589D01*
X004651Y002589D02*
X010836Y002589D01*
X011005Y002850D02*
X004505Y002850D01*
X004700Y003063D02*
X010810Y003063D01*
X011005Y003350D02*
X004005Y003350D01*
X004226Y003537D02*
X010784Y003537D01*
X011226Y003537D02*
X017182Y003537D01*
X017063Y003655D02*
X012217Y003655D01*
X012293Y003774D02*
X016945Y003774D01*
X016826Y003892D02*
X012293Y003892D01*
X012252Y004011D02*
X016708Y004011D01*
X016589Y004129D02*
X012691Y004129D01*
X012793Y004248D02*
X016471Y004248D01*
X016352Y004366D02*
X012793Y004366D01*
X012778Y004485D02*
X016234Y004485D01*
X016115Y004603D02*
X012659Y004603D01*
X012505Y004350D02*
X011505Y004350D01*
X003005Y004350D01*
X003191Y004129D02*
X011877Y004129D01*
X012133Y004129D02*
X012319Y004129D01*
X012005Y003850D02*
X011505Y003850D01*
X003005Y003850D01*
X003217Y003655D02*
X011793Y003655D01*
X011293Y003418D02*
X017300Y003418D01*
X017419Y003300D02*
X011293Y003300D01*
X011243Y003181D02*
X017537Y003181D01*
X017656Y003063D02*
X011200Y003063D01*
X011293Y002944D02*
X017774Y002944D01*
X017893Y002826D02*
X011293Y002826D01*
X011269Y002707D02*
X017987Y002707D01*
X017994Y002724D02*
X017952Y002622D01*
X017952Y002431D01*
X018025Y002255D01*
X018160Y002120D01*
X018336Y002047D01*
X018527Y002047D01*
X018704Y002120D01*
X018839Y002255D01*
X018912Y002431D01*
X018912Y002622D01*
X018839Y002799D01*
X018704Y002934D01*
X018527Y003007D01*
X018336Y003007D01*
X018234Y002965D01*
X015279Y005920D01*
X015179Y006020D01*
X013492Y006020D01*
X013374Y006138D01*
X013136Y006138D01*
X012967Y005969D01*
X012967Y005731D01*
X013136Y005562D01*
X013374Y005562D01*
X013492Y005680D01*
X015038Y005680D01*
X017994Y002724D01*
X017952Y002589D02*
X011174Y002589D01*
X011005Y002350D02*
X003255Y002350D01*
X002630Y002975D01*
X002429Y003181D02*
X002076Y003181D01*
X002071Y003063D02*
X002342Y003063D01*
X002342Y002944D02*
X002075Y002944D01*
X002251Y002826D02*
X002372Y002826D01*
X002334Y002707D02*
X002491Y002707D01*
X002381Y002589D02*
X002776Y002589D01*
X002895Y002470D02*
X002381Y002470D01*
X002361Y002352D02*
X003013Y002352D01*
X003132Y002233D02*
X002312Y002233D01*
X002198Y002115D02*
X010833Y002115D01*
X010795Y001522D02*
X010715Y001522D01*
X010715Y001404D02*
X010795Y001404D01*
X010795Y001285D02*
X010715Y001285D01*
X010715Y001167D02*
X010795Y001167D01*
X011076Y001522D02*
X011520Y001522D01*
X011585Y001641D02*
X001964Y001641D01*
X001846Y001759D02*
X011674Y001759D01*
X011792Y001878D02*
X001727Y001878D01*
X002083Y001522D02*
X002520Y001522D01*
X002483Y001507D02*
X002348Y001372D01*
X002275Y001195D01*
X002275Y001005D01*
X002348Y000828D01*
X002483Y000693D01*
X002660Y000620D01*
X002850Y000620D01*
X003027Y000693D01*
X003162Y000828D01*
X003235Y001005D01*
X003235Y001195D01*
X003162Y001372D01*
X003027Y001507D01*
X002850Y001580D01*
X002660Y001580D01*
X002483Y001507D01*
X002380Y001404D02*
X002201Y001404D01*
X002255Y001285D02*
X002312Y001285D01*
X002275Y001167D02*
X002255Y001167D01*
X002255Y001048D02*
X002275Y001048D01*
X002255Y000930D02*
X002306Y000930D01*
X002294Y000811D02*
X002365Y000811D01*
X002412Y000693D02*
X002484Y000693D01*
X003026Y000693D02*
X003484Y000693D01*
X003483Y000693D02*
X003660Y000620D01*
X003850Y000620D01*
X004027Y000693D01*
X004162Y000828D01*
X004235Y001005D01*
X004235Y001195D01*
X004162Y001372D01*
X004027Y001507D01*
X003850Y001580D01*
X003660Y001580D01*
X003483Y001507D01*
X003348Y001372D01*
X003275Y001195D01*
X003275Y001005D01*
X003348Y000828D01*
X003483Y000693D01*
X003365Y000811D02*
X003145Y000811D01*
X003204Y000930D02*
X003306Y000930D01*
X003275Y001048D02*
X003235Y001048D01*
X003235Y001167D02*
X003275Y001167D01*
X003312Y001285D02*
X003198Y001285D01*
X003130Y001404D02*
X003380Y001404D01*
X003520Y001522D02*
X002990Y001522D01*
X003990Y001522D02*
X004520Y001522D01*
X004483Y001507D02*
X004348Y001372D01*
X004275Y001195D01*
X004275Y001005D01*
X004348Y000828D01*
X004483Y000693D01*
X004660Y000620D01*
X004850Y000620D01*
X005027Y000693D01*
X005162Y000828D01*
X005235Y001005D01*
X005235Y001195D01*
X005162Y001372D01*
X005027Y001507D01*
X004850Y001580D01*
X004660Y001580D01*
X004483Y001507D01*
X004380Y001404D02*
X004130Y001404D01*
X004198Y001285D02*
X004312Y001285D01*
X004275Y001167D02*
X004235Y001167D01*
X004235Y001048D02*
X004275Y001048D01*
X004306Y000930D02*
X004204Y000930D01*
X004145Y000811D02*
X004365Y000811D01*
X004484Y000693D02*
X004026Y000693D01*
X005026Y000693D02*
X005484Y000693D01*
X005483Y000693D02*
X005660Y000620D01*
X005850Y000620D01*
X006027Y000693D01*
X006162Y000828D01*
X006235Y001005D01*
X006235Y001195D01*
X006162Y001372D01*
X006027Y001507D01*
X005850Y001580D01*
X005660Y001580D01*
X005483Y001507D01*
X005348Y001372D01*
X005275Y001195D01*
X005275Y001005D01*
X005348Y000828D01*
X005483Y000693D01*
X005365Y000811D02*
X005145Y000811D01*
X005204Y000930D02*
X005306Y000930D01*
X005275Y001048D02*
X005235Y001048D01*
X005235Y001167D02*
X005275Y001167D01*
X005312Y001285D02*
X005198Y001285D01*
X005130Y001404D02*
X005380Y001404D01*
X005520Y001522D02*
X004990Y001522D01*
X005990Y001522D02*
X006520Y001522D01*
X006483Y001507D02*
X006660Y001580D01*
X006850Y001580D01*
X007027Y001507D01*
X007162Y001372D01*
X007235Y001195D01*
X007235Y001005D01*
X007162Y000828D01*
X007027Y000693D01*
X006850Y000620D01*
X006660Y000620D01*
X006483Y000693D01*
X006348Y000828D01*
X006275Y001005D01*
X006275Y001195D01*
X006348Y001372D01*
X006483Y001507D01*
X006380Y001404D02*
X006130Y001404D01*
X006198Y001285D02*
X006312Y001285D01*
X006275Y001167D02*
X006235Y001167D01*
X006235Y001048D02*
X006275Y001048D01*
X006306Y000930D02*
X006204Y000930D01*
X006145Y000811D02*
X006365Y000811D01*
X006484Y000693D02*
X006026Y000693D01*
X007026Y000693D02*
X007484Y000693D01*
X007483Y000693D02*
X007660Y000620D01*
X007850Y000620D01*
X008027Y000693D01*
X008162Y000828D01*
X008235Y001005D01*
X008235Y001195D01*
X008162Y001372D01*
X008027Y001507D01*
X007850Y001580D01*
X007660Y001580D01*
X007483Y001507D01*
X007348Y001372D01*
X007275Y001195D01*
X007275Y001005D01*
X007348Y000828D01*
X007483Y000693D01*
X007365Y000811D02*
X007145Y000811D01*
X007204Y000930D02*
X007306Y000930D01*
X007275Y001048D02*
X007235Y001048D01*
X007235Y001167D02*
X007275Y001167D01*
X007312Y001285D02*
X007198Y001285D01*
X007130Y001404D02*
X007380Y001404D01*
X007520Y001522D02*
X006990Y001522D01*
X007990Y001522D02*
X008520Y001522D01*
X008483Y001507D02*
X008348Y001372D01*
X008275Y001195D01*
X008275Y001005D01*
X008348Y000828D01*
X008483Y000693D01*
X008660Y000620D01*
X008850Y000620D01*
X009027Y000693D01*
X009162Y000828D01*
X009235Y001005D01*
X009235Y001195D01*
X009162Y001372D01*
X009027Y001507D01*
X008850Y001580D01*
X008660Y001580D01*
X008483Y001507D01*
X008380Y001404D02*
X008130Y001404D01*
X008198Y001285D02*
X008312Y001285D01*
X008275Y001167D02*
X008235Y001167D01*
X008235Y001048D02*
X008275Y001048D01*
X008306Y000930D02*
X008204Y000930D01*
X008145Y000811D02*
X008365Y000811D01*
X008484Y000693D02*
X008026Y000693D01*
X009026Y000693D02*
X009484Y000693D01*
X009365Y000811D02*
X009145Y000811D01*
X009204Y000930D02*
X009306Y000930D01*
X009275Y001048D02*
X009235Y001048D01*
X009235Y001167D02*
X009275Y001167D01*
X009312Y001285D02*
X009198Y001285D01*
X009130Y001404D02*
X009380Y001404D01*
X009520Y001522D02*
X008990Y001522D01*
X009990Y001522D02*
X010434Y001522D01*
X010320Y001404D02*
X010130Y001404D01*
X010198Y001285D02*
X010258Y001285D01*
X010253Y000930D02*
X010204Y000930D01*
X010145Y000811D02*
X010310Y000811D01*
X010414Y000693D02*
X010026Y000693D01*
X011096Y000693D02*
X011484Y000693D01*
X011365Y000811D02*
X011200Y000811D01*
X011257Y000930D02*
X011306Y000930D01*
X011312Y001285D02*
X011252Y001285D01*
X011190Y001404D02*
X011380Y001404D01*
X014495Y002352D02*
X017985Y002352D01*
X017952Y002470D02*
X014485Y002470D01*
X015862Y002233D02*
X018047Y002233D01*
X018173Y002115D02*
X015981Y002115D01*
X016099Y001996D02*
X018901Y001996D01*
X018783Y001878D02*
X016218Y001878D01*
X016336Y001759D02*
X018635Y001759D01*
X018484Y001641D02*
X016455Y001641D01*
X016093Y001522D02*
X015990Y001522D01*
X016990Y001522D02*
X017434Y001522D01*
X017320Y001404D02*
X017130Y001404D01*
X017198Y001285D02*
X017258Y001285D01*
X017253Y000930D02*
X017204Y000930D01*
X017145Y000811D02*
X017310Y000811D01*
X017414Y000693D02*
X017026Y000693D01*
X017715Y001167D02*
X017795Y001167D01*
X017795Y001285D02*
X017715Y001285D01*
X017715Y001404D02*
X017795Y001404D01*
X017795Y001522D02*
X017715Y001522D01*
X018076Y001522D02*
X018367Y001522D01*
X018309Y001404D02*
X018190Y001404D01*
X018252Y001285D02*
X018255Y001285D01*
X018691Y002115D02*
X019020Y002115D01*
X019138Y002233D02*
X018817Y002233D01*
X018879Y002352D02*
X019257Y002352D01*
X019375Y002470D02*
X018912Y002470D01*
X018912Y002589D02*
X019494Y002589D01*
X019505Y002707D02*
X018877Y002707D01*
X018870Y002826D02*
X018812Y002826D01*
X018750Y002944D02*
X018679Y002944D01*
X018274Y003063D02*
X018136Y003063D01*
X018155Y003181D02*
X018018Y003181D01*
X018037Y003300D02*
X017899Y003300D01*
X017918Y003418D02*
X017781Y003418D01*
X017800Y003537D02*
X017662Y003537D01*
X017681Y003655D02*
X017544Y003655D01*
X017563Y003774D02*
X017425Y003774D01*
X017444Y003892D02*
X017307Y003892D01*
X017326Y004011D02*
X017188Y004011D01*
X017207Y004129D02*
X017070Y004129D01*
X017089Y004248D02*
X016951Y004248D01*
X016970Y004366D02*
X016833Y004366D01*
X016852Y004485D02*
X016714Y004485D01*
X016733Y004603D02*
X016596Y004603D01*
X016615Y004722D02*
X016477Y004722D01*
X016496Y004840D02*
X016359Y004840D01*
X016378Y004959D02*
X016240Y004959D01*
X016259Y005077D02*
X016122Y005077D01*
X016141Y005196D02*
X016003Y005196D01*
X016022Y005314D02*
X015885Y005314D01*
X015904Y005433D02*
X015766Y005433D01*
X015785Y005551D02*
X015648Y005551D01*
X015667Y005670D02*
X015529Y005670D01*
X015548Y005788D02*
X015411Y005788D01*
X015430Y005907D02*
X015292Y005907D01*
X015311Y006025D02*
X013487Y006025D01*
X013255Y005850D02*
X015109Y005850D01*
X018432Y002527D01*
X018450Y003424D02*
X015320Y006554D01*
X015320Y006627D01*
X015420Y006526D01*
X015556Y006470D01*
X015704Y006470D01*
X015840Y006526D01*
X015944Y006630D01*
X016000Y006766D01*
X016000Y007434D01*
X015944Y007570D01*
X015840Y007674D01*
X015704Y007730D01*
X015556Y007730D01*
X015420Y007674D01*
X015320Y007573D01*
X015320Y012627D01*
X015420Y012526D01*
X015556Y012470D01*
X015704Y012470D01*
X015840Y012526D01*
X015944Y012630D01*
X016000Y012766D01*
X016000Y013434D01*
X015944Y013570D01*
X015840Y013674D01*
X015704Y013730D01*
X015550Y013728D02*
X014710Y013728D01*
X014550Y013728D02*
X013710Y013728D01*
X013550Y013728D02*
X012710Y013728D01*
X012550Y013728D02*
X011710Y013728D01*
X011550Y013728D02*
X010710Y013728D01*
X010550Y013728D02*
X009800Y013728D01*
X009904Y013609D02*
X010356Y013609D01*
X010284Y013491D02*
X009976Y013491D01*
X010000Y013372D02*
X010260Y013372D01*
X010260Y013254D02*
X010000Y013254D01*
X010000Y013135D02*
X010260Y013135D01*
X010260Y013017D02*
X010000Y013017D01*
X010000Y012898D02*
X010188Y012898D01*
X010069Y012780D02*
X010000Y012780D01*
X009799Y012510D02*
X009704Y012470D01*
X009556Y012470D01*
X009420Y012526D01*
X009316Y012630D01*
X009260Y012766D01*
X009260Y013434D01*
X009316Y013570D01*
X009420Y013674D01*
X009460Y013690D01*
X009460Y013779D01*
X009294Y013945D01*
X008828Y013945D01*
X008784Y013989D01*
X008765Y013956D01*
X008735Y013927D01*
X008699Y013906D01*
X008658Y013895D01*
X008441Y013895D01*
X008441Y014290D01*
X008321Y014290D01*
X008321Y013895D01*
X008104Y013895D01*
X008063Y013906D01*
X008027Y013927D01*
X007997Y013956D01*
X007976Y013993D01*
X007965Y014034D01*
X007965Y014290D01*
X008321Y014290D01*
X008321Y014410D01*
X008321Y014805D01*
X008104Y014805D01*
X008063Y014794D01*
X005439Y014794D01*
X005321Y014676D02*
X007968Y014676D01*
X007965Y014666D02*
X007965Y014410D01*
X008321Y014410D01*
X008441Y014410D01*
X008441Y014805D01*
X008658Y014805D01*
X008699Y014794D01*
X008441Y014794D02*
X008321Y014794D01*
X008321Y014676D02*
X008441Y014676D01*
X008441Y014557D02*
X008321Y014557D01*
X008321Y014439D02*
X008441Y014439D01*
X008321Y014320D02*
X004965Y014320D01*
X004847Y014202D02*
X007965Y014202D01*
X007965Y014083D02*
X004728Y014083D01*
X004610Y013965D02*
X007992Y013965D01*
X008321Y013965D02*
X008441Y013965D01*
X008441Y014083D02*
X008321Y014083D01*
X008321Y014202D02*
X008441Y014202D01*
X008770Y013965D02*
X008808Y013965D01*
X008710Y013728D02*
X009460Y013728D01*
X009393Y013846D02*
X004491Y013846D01*
X004550Y013728D02*
X004373Y013728D01*
X004420Y013674D02*
X004316Y013570D01*
X004300Y013530D01*
X004300Y013655D01*
X006825Y016180D01*
X018018Y016180D01*
X018136Y016062D01*
X018374Y016062D01*
X018543Y016231D01*
X018543Y016469D01*
X018374Y016638D01*
X018136Y016638D01*
X018018Y016520D01*
X006685Y016520D01*
X006585Y016420D01*
X004060Y013895D01*
X004060Y013895D01*
X003960Y013795D01*
X003960Y013530D01*
X003944Y013570D01*
X003840Y013674D01*
X003704Y013730D01*
X003556Y013730D01*
X003420Y013674D01*
X003316Y013570D01*
X003300Y013530D01*
X003300Y013655D01*
X006450Y016805D01*
X006795Y017150D01*
X006825Y017180D01*
X018018Y017180D01*
X018136Y017062D01*
X018374Y017062D01*
X018543Y017231D01*
X018543Y017469D01*
X018374Y017638D01*
X018136Y017638D01*
X018374Y017638D02*
X018925Y017638D01*
X018878Y017592D02*
X018805Y017415D01*
X018805Y017224D01*
X018878Y017048D01*
X019013Y016913D01*
X019190Y016840D01*
X019381Y016840D01*
X019505Y016891D01*
X019505Y016748D01*
X019381Y016800D01*
X019190Y016800D01*
X019013Y016727D01*
X018878Y016592D01*
X018805Y016415D01*
X018805Y016224D01*
X018878Y016048D01*
X019013Y015913D01*
X019190Y015840D01*
X019381Y015840D01*
X019505Y015891D01*
X019505Y013709D01*
X019420Y013674D01*
X019316Y013570D01*
X019260Y013434D01*
X019260Y012766D01*
X019316Y012630D01*
X019420Y012526D01*
X019505Y012491D01*
X019505Y007709D01*
X019420Y007674D01*
X019316Y007570D01*
X019260Y007434D01*
X019260Y006766D01*
X019316Y006630D01*
X019420Y006526D01*
X019505Y006491D01*
X019505Y003547D01*
X019411Y003641D01*
X019234Y003714D01*
X019043Y003714D01*
X018867Y003641D01*
X018732Y003506D01*
X018698Y003424D01*
X018450Y003424D01*
X018337Y003537D02*
X018763Y003537D01*
X018901Y003655D02*
X018219Y003655D01*
X018100Y003774D02*
X019505Y003774D01*
X019505Y003892D02*
X017982Y003892D01*
X017863Y004011D02*
X019505Y004011D01*
X019505Y004129D02*
X017745Y004129D01*
X017626Y004248D02*
X019505Y004248D01*
X019505Y004366D02*
X017508Y004366D01*
X017389Y004485D02*
X019505Y004485D01*
X019505Y004603D02*
X017271Y004603D01*
X017152Y004722D02*
X019505Y004722D01*
X019505Y004840D02*
X017034Y004840D01*
X016915Y004959D02*
X019505Y004959D01*
X019505Y005077D02*
X016797Y005077D01*
X016678Y005196D02*
X019505Y005196D01*
X019505Y005314D02*
X016560Y005314D01*
X016441Y005433D02*
X019505Y005433D01*
X019505Y005551D02*
X016323Y005551D01*
X016204Y005670D02*
X019505Y005670D01*
X019505Y005788D02*
X016086Y005788D01*
X015967Y005907D02*
X019505Y005907D01*
X019505Y006025D02*
X015849Y006025D01*
X015730Y006144D02*
X019505Y006144D01*
X019505Y006262D02*
X015612Y006262D01*
X015493Y006381D02*
X019505Y006381D01*
X019486Y006499D02*
X018774Y006499D01*
X018840Y006526D02*
X018944Y006630D01*
X019000Y006766D01*
X019000Y007434D01*
X018944Y007570D01*
X018840Y007674D01*
X018704Y007730D01*
X018556Y007730D01*
X018420Y007674D01*
X018316Y007570D01*
X018260Y007434D01*
X018260Y006766D01*
X018316Y006630D01*
X018420Y006526D01*
X018556Y006470D01*
X018704Y006470D01*
X018840Y006526D01*
X018931Y006618D02*
X019329Y006618D01*
X019273Y006736D02*
X018987Y006736D01*
X019000Y006855D02*
X019260Y006855D01*
X019260Y006973D02*
X019000Y006973D01*
X019000Y007092D02*
X019260Y007092D01*
X019260Y007210D02*
X019000Y007210D01*
X019000Y007329D02*
X019260Y007329D01*
X019266Y007447D02*
X018994Y007447D01*
X018945Y007566D02*
X019315Y007566D01*
X019445Y007684D02*
X018815Y007684D01*
X018445Y007684D02*
X017815Y007684D01*
X017840Y007674D02*
X017704Y007730D01*
X017556Y007730D01*
X017420Y007674D01*
X017316Y007570D01*
X017260Y007434D01*
X017260Y006766D01*
X017316Y006630D01*
X017420Y006526D01*
X017556Y006470D01*
X017704Y006470D01*
X017840Y006526D01*
X017944Y006630D01*
X018000Y006766D01*
X018000Y007434D01*
X017944Y007570D01*
X017840Y007674D01*
X017945Y007566D02*
X018315Y007566D01*
X018266Y007447D02*
X017994Y007447D01*
X018000Y007329D02*
X018260Y007329D01*
X018260Y007210D02*
X018000Y007210D01*
X018000Y007092D02*
X018260Y007092D01*
X018260Y006973D02*
X018000Y006973D01*
X018000Y006855D02*
X018260Y006855D01*
X018273Y006736D02*
X017987Y006736D01*
X017931Y006618D02*
X018329Y006618D01*
X018486Y006499D02*
X017774Y006499D01*
X017486Y006499D02*
X016774Y006499D01*
X016840Y006526D02*
X016944Y006630D01*
X017000Y006766D01*
X017000Y007434D01*
X016944Y007570D01*
X016840Y007674D01*
X016704Y007730D01*
X016556Y007730D01*
X016420Y007674D01*
X016316Y007570D01*
X016260Y007434D01*
X016260Y006766D01*
X016316Y006630D01*
X016420Y006526D01*
X016556Y006470D01*
X016704Y006470D01*
X016840Y006526D01*
X016931Y006618D02*
X017329Y006618D01*
X017273Y006736D02*
X016987Y006736D01*
X017000Y006855D02*
X017260Y006855D01*
X017260Y006973D02*
X017000Y006973D01*
X017000Y007092D02*
X017260Y007092D01*
X017260Y007210D02*
X017000Y007210D01*
X017000Y007329D02*
X017260Y007329D01*
X017266Y007447D02*
X016994Y007447D01*
X016945Y007566D02*
X017315Y007566D01*
X017445Y007684D02*
X016815Y007684D01*
X016445Y007684D02*
X015815Y007684D01*
X015945Y007566D02*
X016315Y007566D01*
X016266Y007447D02*
X015994Y007447D01*
X016000Y007329D02*
X016260Y007329D01*
X016260Y007210D02*
X016000Y007210D01*
X016000Y007092D02*
X016260Y007092D01*
X016260Y006973D02*
X016000Y006973D01*
X016000Y006855D02*
X016260Y006855D01*
X016273Y006736D02*
X015987Y006736D01*
X015931Y006618D02*
X016329Y006618D01*
X016486Y006499D02*
X015774Y006499D01*
X015486Y006499D02*
X015375Y006499D01*
X015329Y006618D02*
X015320Y006618D01*
X014940Y006618D02*
X014931Y006618D01*
X014940Y006499D02*
X014774Y006499D01*
X014956Y006381D02*
X012300Y006381D01*
X012300Y006499D02*
X012486Y006499D01*
X012329Y006618D02*
X012300Y006618D01*
X011960Y006618D02*
X011931Y006618D01*
X011960Y006499D02*
X011774Y006499D01*
X011960Y006381D02*
X011300Y006381D01*
X011300Y006499D02*
X011486Y006499D01*
X011329Y006618D02*
X011300Y006618D01*
X010960Y006618D02*
X010931Y006618D01*
X010960Y006499D02*
X010774Y006499D01*
X010960Y006381D02*
X010300Y006381D01*
X010300Y006499D02*
X010486Y006499D01*
X010329Y006618D02*
X010300Y006618D01*
X009960Y006618D02*
X009931Y006618D01*
X009960Y006499D02*
X009774Y006499D01*
X009960Y006381D02*
X009300Y006381D01*
X009300Y006499D02*
X009486Y006499D01*
X009329Y006618D02*
X009300Y006618D01*
X008960Y006499D02*
X008875Y006499D01*
X008960Y006381D02*
X008300Y006381D01*
X008300Y006499D02*
X008385Y006499D01*
X008610Y006499D02*
X008650Y006499D01*
X008650Y006618D02*
X008610Y006618D01*
X008610Y006736D02*
X008650Y006736D01*
X008650Y006855D02*
X008610Y006855D01*
X008610Y006973D02*
X008650Y006973D01*
X008650Y007120D02*
X008610Y007120D01*
X008610Y007780D01*
X008597Y007780D01*
X008532Y007770D01*
X008469Y007749D01*
X008410Y007719D01*
X008356Y007680D01*
X008310Y007634D01*
X008300Y007620D01*
X008300Y012530D01*
X008359Y012588D01*
X008420Y012526D01*
X008556Y012470D01*
X008704Y012470D01*
X008840Y012526D01*
X008944Y012630D01*
X009000Y012766D01*
X009000Y013434D01*
X008944Y013570D01*
X008840Y013674D01*
X008704Y013730D01*
X008556Y013730D01*
X008420Y013674D01*
X008316Y013570D01*
X008260Y013434D01*
X008260Y012970D01*
X008060Y012770D01*
X007960Y012671D01*
X008000Y012766D01*
X008000Y013434D01*
X007944Y013570D01*
X007840Y013674D01*
X007704Y013730D01*
X007556Y013730D01*
X007420Y013674D01*
X007316Y013570D01*
X007260Y013434D01*
X007260Y012970D01*
X006960Y012671D01*
X007000Y012766D01*
X007000Y013434D01*
X006944Y013570D01*
X006840Y013674D01*
X006704Y013730D01*
X006556Y013730D01*
X006420Y013674D01*
X006316Y013570D01*
X006260Y013434D01*
X006260Y012970D01*
X006060Y012770D01*
X005960Y012671D01*
X006000Y012766D01*
X006000Y013434D01*
X005944Y013570D01*
X005840Y013674D01*
X005704Y013730D01*
X005556Y013730D01*
X005420Y013674D01*
X005316Y013570D01*
X005260Y013434D01*
X005260Y012970D01*
X005060Y012770D01*
X004960Y012671D01*
X005000Y012766D01*
X005000Y013434D01*
X004944Y013570D01*
X004840Y013674D01*
X004704Y013730D01*
X004556Y013730D01*
X004420Y013674D01*
X004356Y013609D02*
X004300Y013609D01*
X004130Y013725D02*
X006755Y016350D01*
X018255Y016350D01*
X018069Y016572D02*
X006217Y016572D01*
X006335Y016690D02*
X018977Y016690D01*
X018870Y016572D02*
X018441Y016572D01*
X018543Y016453D02*
X018821Y016453D01*
X018805Y016335D02*
X018543Y016335D01*
X018528Y016216D02*
X018809Y016216D01*
X018858Y016098D02*
X018410Y016098D01*
X018100Y016098D02*
X006743Y016098D01*
X006624Y015979D02*
X018947Y015979D01*
X019139Y015861D02*
X006506Y015861D01*
X006387Y015742D02*
X019505Y015742D01*
X019505Y015624D02*
X006269Y015624D01*
X006150Y015505D02*
X019505Y015505D01*
X019505Y015387D02*
X006032Y015387D01*
X005913Y015268D02*
X019505Y015268D01*
X019505Y015150D02*
X005795Y015150D01*
X005676Y015031D02*
X019505Y015031D01*
X019505Y014913D02*
X005558Y014913D01*
X005314Y015150D02*
X004795Y015150D01*
X004913Y015268D02*
X005433Y015268D01*
X005551Y015387D02*
X005032Y015387D01*
X005150Y015505D02*
X005670Y015505D01*
X005788Y015624D02*
X005269Y015624D01*
X005387Y015742D02*
X005907Y015742D01*
X006025Y015861D02*
X005506Y015861D01*
X005624Y015979D02*
X006144Y015979D01*
X006262Y016098D02*
X005743Y016098D01*
X005861Y016216D02*
X006381Y016216D01*
X006499Y016335D02*
X005980Y016335D01*
X006098Y016453D02*
X006618Y016453D01*
X006585Y016420D02*
X006585Y016420D01*
X006454Y016809D02*
X019505Y016809D01*
X018999Y016927D02*
X006572Y016927D01*
X006691Y017046D02*
X018881Y017046D01*
X018830Y017164D02*
X018476Y017164D01*
X018543Y017283D02*
X018805Y017283D01*
X018805Y017401D02*
X018543Y017401D01*
X018493Y017520D02*
X018849Y017520D01*
X018878Y017592D02*
X019013Y017727D01*
X019095Y017760D01*
X018685Y018170D01*
X018580Y018214D01*
X018369Y018425D01*
X018325Y018530D01*
X018255Y018600D01*
X018255Y018699D01*
X018254Y018701D01*
X018254Y018999D01*
X018255Y019001D01*
X018255Y019100D01*
X018005Y019350D01*
X002505Y019350D01*
X002255Y019100D01*
X002255Y018600D01*
X001293Y017638D01*
X001351Y017520D02*
X006684Y017520D01*
X006566Y017401D02*
X001381Y017401D01*
X001381Y017283D02*
X006447Y017283D01*
X006555Y017390D02*
X006555Y017390D01*
X006725Y017320D02*
X006755Y017350D01*
X018255Y017350D01*
X018034Y017164D02*
X006809Y017164D01*
X006795Y017150D02*
X006795Y017150D01*
X006725Y017320D02*
X006380Y016975D01*
X003130Y013725D01*
X003130Y007600D01*
X002630Y007100D01*
X002260Y007092D02*
X002000Y007092D01*
X002000Y007210D02*
X002260Y007210D01*
X002260Y007329D02*
X002000Y007329D01*
X002000Y007434D02*
X001944Y007570D01*
X001840Y007674D01*
X001704Y007730D01*
X001556Y007730D01*
X001420Y007674D01*
X001316Y007570D01*
X001260Y007434D01*
X001260Y006766D01*
X001316Y006630D01*
X001420Y006526D01*
X001556Y006470D01*
X001704Y006470D01*
X001840Y006526D01*
X001944Y006630D01*
X002000Y006766D01*
X002000Y007434D01*
X001994Y007447D02*
X002266Y007447D01*
X002315Y007566D02*
X001945Y007566D01*
X001815Y007684D02*
X002445Y007684D01*
X002815Y007684D02*
X002960Y007684D01*
X002960Y007803D02*
X000755Y007803D01*
X000755Y007921D02*
X002960Y007921D01*
X002960Y008040D02*
X000755Y008040D01*
X000755Y008158D02*
X002960Y008158D01*
X002960Y008277D02*
X000755Y008277D01*
X000755Y008395D02*
X002960Y008395D01*
X002960Y008514D02*
X000755Y008514D01*
X000755Y008632D02*
X002960Y008632D01*
X002960Y008751D02*
X000755Y008751D01*
X000755Y008869D02*
X002960Y008869D01*
X002960Y008988D02*
X000755Y008988D01*
X000755Y009106D02*
X002960Y009106D01*
X002960Y009225D02*
X000755Y009225D01*
X000755Y009343D02*
X002960Y009343D01*
X002960Y009462D02*
X000755Y009462D01*
X000755Y009580D02*
X002960Y009580D01*
X002960Y009699D02*
X000755Y009699D01*
X000755Y009817D02*
X002960Y009817D01*
X002960Y009936D02*
X000755Y009936D01*
X000755Y010054D02*
X002960Y010054D01*
X002960Y010173D02*
X000755Y010173D01*
X000755Y010291D02*
X002960Y010291D01*
X002960Y010410D02*
X000755Y010410D01*
X000755Y010528D02*
X002960Y010528D01*
X002960Y010647D02*
X000755Y010647D01*
X000755Y010765D02*
X002960Y010765D01*
X002960Y010884D02*
X000755Y010884D01*
X000755Y011002D02*
X002960Y011002D01*
X002960Y011121D02*
X000755Y011121D01*
X000755Y011239D02*
X002960Y011239D01*
X002960Y011358D02*
X000755Y011358D01*
X000755Y011476D02*
X002960Y011476D01*
X002960Y011595D02*
X000755Y011595D01*
X000755Y011713D02*
X002960Y011713D01*
X002960Y011832D02*
X000755Y011832D01*
X000755Y011950D02*
X002960Y011950D01*
X002960Y012069D02*
X000755Y012069D01*
X000755Y012187D02*
X002960Y012187D01*
X002960Y012306D02*
X000755Y012306D01*
X000755Y012424D02*
X002960Y012424D01*
X002960Y012543D02*
X002856Y012543D01*
X002956Y012661D02*
X002960Y012661D01*
X002404Y012543D02*
X001856Y012543D01*
X001840Y012526D02*
X001944Y012630D01*
X002000Y012766D01*
X002000Y013434D01*
X001944Y013570D01*
X001840Y013674D01*
X001704Y013730D01*
X001556Y013730D01*
X001420Y013674D01*
X001316Y013570D01*
X001260Y013434D01*
X001260Y012766D01*
X001316Y012630D01*
X001420Y012526D01*
X001556Y012470D01*
X001704Y012470D01*
X001840Y012526D01*
X001956Y012661D02*
X002304Y012661D01*
X002260Y012780D02*
X002000Y012780D01*
X002000Y012898D02*
X002260Y012898D01*
X002260Y013017D02*
X002000Y013017D01*
X002000Y013135D02*
X002260Y013135D01*
X002260Y013254D02*
X002000Y013254D01*
X002000Y013372D02*
X002260Y013372D01*
X002284Y013491D02*
X001976Y013491D01*
X001904Y013609D02*
X002356Y013609D01*
X002550Y013728D02*
X001710Y013728D01*
X001550Y013728D02*
X000755Y013728D01*
X000755Y013846D02*
X003011Y013846D01*
X002960Y013728D02*
X002710Y013728D01*
X002904Y013609D02*
X002960Y013609D01*
X003300Y013609D02*
X003356Y013609D01*
X003373Y013728D02*
X003550Y013728D01*
X003491Y013846D02*
X004011Y013846D01*
X003960Y013728D02*
X003710Y013728D01*
X003904Y013609D02*
X003960Y013609D01*
X004130Y013725D02*
X004130Y007600D01*
X004630Y007100D01*
X004260Y007092D02*
X004000Y007092D01*
X004000Y007210D02*
X004260Y007210D01*
X004161Y007329D02*
X004000Y007329D01*
X003994Y007447D02*
X004043Y007447D01*
X004000Y006973D02*
X004260Y006973D01*
X004260Y006855D02*
X004000Y006855D01*
X003987Y006736D02*
X004273Y006736D01*
X004329Y006618D02*
X003931Y006618D01*
X003774Y006499D02*
X004486Y006499D01*
X004774Y006499D02*
X004960Y006499D01*
X004960Y006381D02*
X000755Y006381D01*
X000755Y006262D02*
X004960Y006262D01*
X004960Y006144D02*
X000755Y006144D01*
X000755Y006025D02*
X002773Y006025D01*
X002717Y005907D02*
X000755Y005907D01*
X000755Y005788D02*
X002703Y005788D01*
X002584Y005670D02*
X000755Y005670D01*
X000755Y005551D02*
X002466Y005551D01*
X002347Y005433D02*
X000755Y005433D01*
X000755Y005314D02*
X002229Y005314D01*
X002110Y005196D02*
X000755Y005196D01*
X000755Y005077D02*
X001992Y005077D01*
X001873Y004959D02*
X000755Y004959D01*
X000755Y004840D02*
X001835Y004840D01*
X001835Y004722D02*
X000755Y004722D01*
X000755Y004603D02*
X001835Y004603D01*
X001835Y004485D02*
X000755Y004485D01*
X000755Y004366D02*
X001835Y004366D01*
X001835Y004248D02*
X000755Y004248D01*
X000755Y004129D02*
X001835Y004129D01*
X001761Y004011D02*
X000755Y004011D01*
X000755Y003892D02*
X001642Y003892D01*
X001524Y003774D02*
X000755Y003774D01*
X000755Y003655D02*
X001030Y003655D01*
X000848Y003537D02*
X000755Y003537D01*
X000755Y003418D02*
X000764Y003418D01*
X001194Y003204D02*
X002005Y004014D01*
X002005Y004850D01*
X003005Y005850D01*
X003232Y005670D02*
X004960Y005670D01*
X004960Y005788D02*
X003293Y005788D01*
X003293Y005907D02*
X004960Y005907D01*
X004960Y006025D02*
X003237Y006025D01*
X003486Y006499D02*
X002774Y006499D01*
X002931Y006618D02*
X003329Y006618D01*
X003273Y006736D02*
X002987Y006736D01*
X003000Y006855D02*
X003260Y006855D01*
X003260Y006973D02*
X003000Y006973D01*
X003000Y007092D02*
X003260Y007092D01*
X003260Y007210D02*
X003000Y007210D01*
X003099Y007329D02*
X003260Y007329D01*
X003266Y007447D02*
X003217Y007447D01*
X002260Y006973D02*
X002000Y006973D01*
X002000Y006855D02*
X002260Y006855D01*
X002273Y006736D02*
X001987Y006736D01*
X001931Y006618D02*
X002329Y006618D01*
X002486Y006499D02*
X001774Y006499D01*
X001486Y006499D02*
X000774Y006499D01*
X000931Y006618D02*
X001329Y006618D01*
X001273Y006736D02*
X000987Y006736D01*
X001000Y006855D02*
X001260Y006855D01*
X001260Y006973D02*
X001000Y006973D01*
X001000Y007092D02*
X001260Y007092D01*
X001260Y007210D02*
X001000Y007210D01*
X001000Y007329D02*
X001260Y007329D01*
X001266Y007447D02*
X000994Y007447D01*
X000945Y007566D02*
X001315Y007566D01*
X001445Y007684D02*
X000815Y007684D01*
X002946Y005551D02*
X004960Y005551D01*
X004930Y005433D02*
X002828Y005433D01*
X002709Y005314D02*
X004842Y005314D01*
X004842Y005196D02*
X002591Y005196D01*
X002472Y005077D02*
X002825Y005077D01*
X003185Y005077D02*
X004871Y005077D01*
X004989Y004959D02*
X003293Y004959D01*
X003293Y004840D02*
X015878Y004840D01*
X015760Y004959D02*
X012271Y004959D01*
X012389Y005077D02*
X015641Y005077D01*
X015523Y005196D02*
X012418Y005196D01*
X012418Y005314D02*
X015404Y005314D01*
X015286Y005433D02*
X012330Y005433D01*
X012300Y005551D02*
X015167Y005551D01*
X015049Y005670D02*
X013482Y005670D01*
X013028Y005670D02*
X012300Y005670D01*
X012300Y005788D02*
X012967Y005788D01*
X012967Y005907D02*
X012300Y005907D01*
X012300Y006025D02*
X013023Y006025D01*
X012774Y006499D02*
X013486Y006499D01*
X013420Y006526D02*
X013556Y006470D01*
X013704Y006470D01*
X013840Y006526D01*
X013944Y006630D01*
X014000Y006766D01*
X014000Y007434D01*
X013944Y007570D01*
X013840Y007674D01*
X013704Y007730D01*
X013556Y007730D01*
X013420Y007674D01*
X013316Y007570D01*
X013260Y007434D01*
X013260Y006766D01*
X013316Y006630D01*
X013420Y006526D01*
X013329Y006618D02*
X012931Y006618D01*
X012987Y006736D02*
X013273Y006736D01*
X013260Y006855D02*
X013000Y006855D01*
X013000Y006973D02*
X013260Y006973D01*
X013260Y007092D02*
X013000Y007092D01*
X013000Y007210D02*
X013260Y007210D01*
X013260Y007329D02*
X013000Y007329D01*
X012994Y007447D02*
X013266Y007447D01*
X013315Y007566D02*
X012945Y007566D01*
X012815Y007684D02*
X013445Y007684D01*
X013815Y007684D02*
X014445Y007684D01*
X014315Y007566D02*
X013945Y007566D01*
X013994Y007447D02*
X014266Y007447D01*
X014260Y007329D02*
X014000Y007329D01*
X014000Y007210D02*
X014260Y007210D01*
X014260Y007092D02*
X014000Y007092D01*
X014000Y006973D02*
X014260Y006973D01*
X014260Y006855D02*
X014000Y006855D01*
X013987Y006736D02*
X014273Y006736D01*
X014329Y006618D02*
X013931Y006618D01*
X013774Y006499D02*
X014486Y006499D01*
X015074Y006262D02*
X012300Y006262D01*
X012300Y006144D02*
X015193Y006144D01*
X015997Y004722D02*
X003284Y004722D01*
X003165Y004603D02*
X012351Y004603D01*
X011989Y004959D02*
X011271Y004959D01*
X011389Y005077D02*
X011871Y005077D01*
X011842Y005196D02*
X011418Y005196D01*
X011418Y005314D02*
X011842Y005314D01*
X011930Y005433D02*
X011330Y005433D01*
X011300Y005551D02*
X011960Y005551D01*
X011960Y005670D02*
X011300Y005670D01*
X011300Y005788D02*
X011960Y005788D01*
X011960Y005907D02*
X011300Y005907D01*
X011300Y006025D02*
X011960Y006025D01*
X011960Y006144D02*
X011300Y006144D01*
X011300Y006262D02*
X011960Y006262D01*
X010960Y006262D02*
X010300Y006262D01*
X010300Y006144D02*
X010960Y006144D01*
X010960Y006025D02*
X010300Y006025D01*
X010300Y005907D02*
X010960Y005907D01*
X010960Y005788D02*
X010300Y005788D01*
X010300Y005670D02*
X010960Y005670D01*
X010960Y005551D02*
X010300Y005551D01*
X010330Y005433D02*
X010930Y005433D01*
X010842Y005314D02*
X010418Y005314D01*
X010418Y005196D02*
X010842Y005196D01*
X010871Y005077D02*
X010389Y005077D01*
X010271Y004959D02*
X010989Y004959D01*
X011130Y005225D02*
X011130Y011600D01*
X012630Y013100D01*
X013000Y013135D02*
X013260Y013135D01*
X013260Y013017D02*
X013000Y013017D01*
X013000Y012898D02*
X013188Y012898D01*
X013069Y012780D02*
X013000Y012780D01*
X013313Y012543D02*
X013404Y012543D01*
X013194Y012424D02*
X014940Y012424D01*
X014940Y012306D02*
X013076Y012306D01*
X012957Y012187D02*
X014940Y012187D01*
X014940Y012069D02*
X012839Y012069D01*
X012720Y011950D02*
X014940Y011950D01*
X014940Y011832D02*
X012602Y011832D01*
X012483Y011713D02*
X014940Y011713D01*
X014940Y011595D02*
X012365Y011595D01*
X012300Y011476D02*
X014940Y011476D01*
X014940Y011358D02*
X012300Y011358D01*
X012300Y011239D02*
X014940Y011239D01*
X014940Y011121D02*
X012300Y011121D01*
X012300Y011002D02*
X014940Y011002D01*
X014940Y010884D02*
X012300Y010884D01*
X012300Y010765D02*
X014940Y010765D01*
X014940Y010647D02*
X012300Y010647D01*
X012300Y010528D02*
X014940Y010528D01*
X014940Y010410D02*
X012300Y010410D01*
X012300Y010291D02*
X014940Y010291D01*
X014940Y010173D02*
X012300Y010173D01*
X012300Y010054D02*
X014940Y010054D01*
X014940Y009936D02*
X012300Y009936D01*
X012300Y009817D02*
X014940Y009817D01*
X014940Y009699D02*
X012300Y009699D01*
X012300Y009580D02*
X014940Y009580D01*
X014940Y009462D02*
X012300Y009462D01*
X012300Y009343D02*
X014940Y009343D01*
X014940Y009225D02*
X012300Y009225D01*
X012300Y009106D02*
X014940Y009106D01*
X014940Y008988D02*
X012300Y008988D01*
X012300Y008869D02*
X014940Y008869D01*
X014940Y008751D02*
X012300Y008751D01*
X012300Y008632D02*
X014940Y008632D01*
X014940Y008514D02*
X012300Y008514D01*
X012300Y008395D02*
X014940Y008395D01*
X014940Y008277D02*
X012300Y008277D01*
X012300Y008158D02*
X014940Y008158D01*
X014940Y008040D02*
X012300Y008040D01*
X012300Y007921D02*
X014940Y007921D01*
X014940Y007803D02*
X012300Y007803D01*
X012300Y007684D02*
X012445Y007684D01*
X012315Y007566D02*
X012300Y007566D01*
X009960Y006262D02*
X009300Y006262D01*
X009300Y006144D02*
X009960Y006144D01*
X009960Y006025D02*
X009300Y006025D01*
X009300Y005907D02*
X009960Y005907D01*
X009960Y005788D02*
X009300Y005788D01*
X009300Y005670D02*
X009960Y005670D01*
X009960Y005551D02*
X009300Y005551D01*
X009330Y005433D02*
X009930Y005433D01*
X009842Y005314D02*
X009418Y005314D01*
X009418Y005196D02*
X009842Y005196D01*
X009871Y005077D02*
X009389Y005077D01*
X009271Y004959D02*
X009989Y004959D01*
X010130Y005225D02*
X010130Y011600D01*
X011630Y013100D01*
X012000Y013135D02*
X012260Y013135D01*
X012260Y013017D02*
X012000Y013017D01*
X012000Y012898D02*
X012188Y012898D01*
X012069Y012780D02*
X012000Y012780D01*
X012000Y013254D02*
X012260Y013254D01*
X012260Y013372D02*
X012000Y013372D01*
X011976Y013491D02*
X012284Y013491D01*
X012356Y013609D02*
X011904Y013609D01*
X011356Y013609D02*
X010904Y013609D01*
X010976Y013491D02*
X011284Y013491D01*
X011260Y013372D02*
X011000Y013372D01*
X011000Y013254D02*
X011260Y013254D01*
X011260Y013135D02*
X011000Y013135D01*
X011000Y013017D02*
X011260Y013017D01*
X011188Y012898D02*
X011000Y012898D01*
X011000Y012780D02*
X011069Y012780D01*
X010630Y013100D02*
X009130Y011600D01*
X009130Y007600D01*
X009130Y007350D01*
X009130Y005225D01*
X008930Y005433D02*
X008330Y005433D01*
X008300Y005551D02*
X008960Y005551D01*
X008960Y005670D02*
X008300Y005670D01*
X008300Y005788D02*
X008960Y005788D01*
X008960Y005907D02*
X008300Y005907D01*
X008300Y006025D02*
X008960Y006025D01*
X008960Y006144D02*
X008300Y006144D01*
X008300Y006262D02*
X008960Y006262D01*
X008650Y007120D02*
X008650Y007780D01*
X008663Y007780D01*
X008728Y007770D01*
X008791Y007749D01*
X008850Y007719D01*
X008904Y007680D01*
X008950Y007634D01*
X008960Y007620D01*
X008960Y011670D01*
X009060Y011770D01*
X009799Y012510D01*
X009714Y012424D02*
X008300Y012424D01*
X008300Y012306D02*
X009595Y012306D01*
X009477Y012187D02*
X008300Y012187D01*
X008300Y012069D02*
X009358Y012069D01*
X009240Y011950D02*
X008300Y011950D01*
X008300Y011832D02*
X009121Y011832D01*
X009003Y011713D02*
X008300Y011713D01*
X008300Y011595D02*
X008960Y011595D01*
X008960Y011476D02*
X008300Y011476D01*
X008300Y011358D02*
X008960Y011358D01*
X008960Y011239D02*
X008300Y011239D01*
X008300Y011121D02*
X008960Y011121D01*
X008960Y011002D02*
X008300Y011002D01*
X008300Y010884D02*
X008960Y010884D01*
X008960Y010765D02*
X008300Y010765D01*
X008300Y010647D02*
X008960Y010647D01*
X008960Y010528D02*
X008300Y010528D01*
X008300Y010410D02*
X008960Y010410D01*
X008960Y010291D02*
X008300Y010291D01*
X008300Y010173D02*
X008960Y010173D01*
X008960Y010054D02*
X008300Y010054D01*
X008300Y009936D02*
X008960Y009936D01*
X008960Y009817D02*
X008300Y009817D01*
X008300Y009699D02*
X008960Y009699D01*
X008960Y009580D02*
X008300Y009580D01*
X008300Y009462D02*
X008960Y009462D01*
X008960Y009343D02*
X008300Y009343D01*
X008300Y009225D02*
X008960Y009225D01*
X008960Y009106D02*
X008300Y009106D01*
X008300Y008988D02*
X008960Y008988D01*
X008960Y008869D02*
X008300Y008869D01*
X008300Y008751D02*
X008960Y008751D01*
X008960Y008632D02*
X008300Y008632D01*
X008300Y008514D02*
X008960Y008514D01*
X008960Y008395D02*
X008300Y008395D01*
X008300Y008277D02*
X008960Y008277D01*
X008960Y008158D02*
X008300Y008158D01*
X008300Y008040D02*
X008960Y008040D01*
X008960Y007921D02*
X008300Y007921D01*
X008300Y007803D02*
X008960Y007803D01*
X008960Y007684D02*
X008899Y007684D01*
X008650Y007684D02*
X008610Y007684D01*
X008610Y007566D02*
X008650Y007566D01*
X008650Y007447D02*
X008610Y007447D01*
X008610Y007329D02*
X008650Y007329D01*
X008650Y007210D02*
X008610Y007210D01*
X008361Y007684D02*
X008300Y007684D01*
X007960Y006618D02*
X007931Y006618D01*
X007960Y006499D02*
X007774Y006499D01*
X007960Y006381D02*
X007300Y006381D01*
X007300Y006499D02*
X007486Y006499D01*
X007329Y006618D02*
X007300Y006618D01*
X006960Y006618D02*
X006931Y006618D01*
X006960Y006499D02*
X006774Y006499D01*
X006960Y006381D02*
X006300Y006381D01*
X006300Y006499D02*
X006486Y006499D01*
X006329Y006618D02*
X006300Y006618D01*
X005960Y006618D02*
X005931Y006618D01*
X005960Y006499D02*
X005774Y006499D01*
X005960Y006381D02*
X005300Y006381D01*
X005300Y006499D02*
X005486Y006499D01*
X005329Y006618D02*
X005300Y006618D01*
X004960Y006618D02*
X004931Y006618D01*
X005300Y006262D02*
X005960Y006262D01*
X005960Y006144D02*
X005300Y006144D01*
X005300Y006025D02*
X005960Y006025D01*
X005960Y005907D02*
X005300Y005907D01*
X005300Y005788D02*
X005960Y005788D01*
X005960Y005670D02*
X005300Y005670D01*
X005300Y005551D02*
X005960Y005551D01*
X005930Y005433D02*
X005330Y005433D01*
X005418Y005314D02*
X005842Y005314D01*
X005842Y005196D02*
X005418Y005196D01*
X005389Y005077D02*
X005871Y005077D01*
X005989Y004959D02*
X005271Y004959D01*
X005130Y005225D02*
X005130Y012600D01*
X005630Y013100D01*
X006000Y013135D02*
X006260Y013135D01*
X006260Y013017D02*
X006000Y013017D01*
X006000Y012898D02*
X006188Y012898D01*
X006069Y012780D02*
X006000Y012780D01*
X006130Y012600D02*
X006130Y005225D01*
X006330Y005433D02*
X006930Y005433D01*
X006960Y005551D02*
X006300Y005551D01*
X006300Y005670D02*
X006960Y005670D01*
X006960Y005788D02*
X006300Y005788D01*
X006300Y005907D02*
X006960Y005907D01*
X006960Y006025D02*
X006300Y006025D01*
X006300Y006144D02*
X006960Y006144D01*
X006960Y006262D02*
X006300Y006262D01*
X007300Y006262D02*
X007960Y006262D01*
X007960Y006144D02*
X007300Y006144D01*
X007300Y006025D02*
X007960Y006025D01*
X007960Y005907D02*
X007300Y005907D01*
X007300Y005788D02*
X007960Y005788D01*
X007960Y005670D02*
X007300Y005670D01*
X007300Y005551D02*
X007960Y005551D01*
X007930Y005433D02*
X007330Y005433D01*
X007418Y005314D02*
X007842Y005314D01*
X007842Y005196D02*
X007418Y005196D01*
X007389Y005077D02*
X007871Y005077D01*
X007989Y004959D02*
X007271Y004959D01*
X006989Y004959D02*
X006271Y004959D01*
X006389Y005077D02*
X006871Y005077D01*
X006842Y005196D02*
X006418Y005196D01*
X006418Y005314D02*
X006842Y005314D01*
X007130Y005225D02*
X007130Y012600D01*
X007630Y013100D01*
X008000Y013135D02*
X008260Y013135D01*
X008260Y013017D02*
X008000Y013017D01*
X008000Y012898D02*
X008188Y012898D01*
X008069Y012780D02*
X008000Y012780D01*
X008130Y012600D02*
X008130Y005225D01*
X008418Y005196D02*
X008842Y005196D01*
X008842Y005314D02*
X008418Y005314D01*
X008389Y005077D02*
X008871Y005077D01*
X008989Y004959D02*
X008271Y004959D01*
X004630Y008350D02*
X004630Y009600D01*
X006130Y012600D02*
X006630Y013100D01*
X007000Y013135D02*
X007260Y013135D01*
X007260Y013017D02*
X007000Y013017D01*
X007000Y012898D02*
X007188Y012898D01*
X007069Y012780D02*
X007000Y012780D01*
X007000Y013254D02*
X007260Y013254D01*
X007260Y013372D02*
X007000Y013372D01*
X006976Y013491D02*
X007284Y013491D01*
X007356Y013609D02*
X006904Y013609D01*
X006710Y013728D02*
X007550Y013728D01*
X007710Y013728D02*
X008550Y013728D01*
X008356Y013609D02*
X007904Y013609D01*
X007976Y013491D02*
X008284Y013491D01*
X008260Y013372D02*
X008000Y013372D01*
X008000Y013254D02*
X008260Y013254D01*
X008630Y013100D02*
X008130Y012600D01*
X008313Y012543D02*
X008404Y012543D01*
X008856Y012543D02*
X009404Y012543D01*
X009304Y012661D02*
X008956Y012661D01*
X009000Y012780D02*
X009260Y012780D01*
X009260Y012898D02*
X009000Y012898D01*
X009000Y013017D02*
X009260Y013017D01*
X009260Y013135D02*
X009000Y013135D01*
X009000Y013254D02*
X009260Y013254D01*
X009260Y013372D02*
X009000Y013372D01*
X008976Y013491D02*
X009284Y013491D01*
X009356Y013609D02*
X008904Y013609D01*
X009630Y013849D02*
X009129Y014350D01*
X009630Y013849D02*
X009630Y013100D01*
X007965Y014439D02*
X005084Y014439D01*
X005202Y014557D02*
X007965Y014557D01*
X007965Y014666D02*
X007976Y014707D01*
X007997Y014744D01*
X008027Y014773D01*
X008063Y014794D01*
X006550Y013728D02*
X005710Y013728D01*
X005550Y013728D02*
X004710Y013728D01*
X004904Y013609D02*
X005356Y013609D01*
X005284Y013491D02*
X004976Y013491D01*
X005000Y013372D02*
X005260Y013372D01*
X005260Y013254D02*
X005000Y013254D01*
X005000Y013135D02*
X005260Y013135D01*
X005260Y013017D02*
X005000Y013017D01*
X005000Y012898D02*
X005188Y012898D01*
X005069Y012780D02*
X005000Y012780D01*
X006000Y013254D02*
X006260Y013254D01*
X006260Y013372D02*
X006000Y013372D01*
X005976Y013491D02*
X006284Y013491D01*
X006356Y013609D02*
X005904Y013609D01*
X004840Y014676D02*
X004321Y014676D01*
X004439Y014794D02*
X004959Y014794D01*
X005077Y014913D02*
X004558Y014913D01*
X004676Y015031D02*
X005196Y015031D01*
X004722Y014557D02*
X004202Y014557D01*
X004084Y014439D02*
X004603Y014439D01*
X004485Y014320D02*
X003965Y014320D01*
X003847Y014202D02*
X004366Y014202D01*
X004248Y014083D02*
X003728Y014083D01*
X003610Y013965D02*
X004129Y013965D01*
X003603Y014439D02*
X000755Y014439D01*
X000755Y014557D02*
X003722Y014557D01*
X003840Y014676D02*
X000755Y014676D01*
X000755Y014794D02*
X003959Y014794D01*
X004077Y014913D02*
X000755Y014913D01*
X000755Y015031D02*
X004196Y015031D01*
X004314Y015150D02*
X000755Y015150D01*
X000755Y015268D02*
X004433Y015268D01*
X004551Y015387D02*
X000755Y015387D01*
X000755Y015505D02*
X004670Y015505D01*
X004788Y015624D02*
X000755Y015624D01*
X000755Y015742D02*
X004907Y015742D01*
X005025Y015861D02*
X000755Y015861D01*
X001209Y015979D02*
X005144Y015979D01*
X005262Y016098D02*
X001316Y016098D01*
X001366Y016216D02*
X005381Y016216D01*
X005499Y016335D02*
X001381Y016335D01*
X001378Y016453D02*
X005618Y016453D01*
X005736Y016572D02*
X001329Y016572D01*
X001240Y016690D02*
X005855Y016690D01*
X005973Y016809D02*
X001049Y016809D01*
X001135Y016927D02*
X006092Y016927D01*
X006210Y017046D02*
X001276Y017046D01*
X001344Y017164D02*
X006329Y017164D01*
X006660Y018370D02*
X006483Y018443D01*
X006348Y018578D01*
X006275Y018755D01*
X006275Y018945D01*
X006348Y019122D01*
X006483Y019257D01*
X006660Y019330D01*
X006850Y019330D01*
X007027Y019257D01*
X007162Y019122D01*
X007235Y018945D01*
X007235Y018755D01*
X007162Y018578D01*
X007027Y018443D01*
X006850Y018370D01*
X006660Y018370D01*
X006459Y018468D02*
X006051Y018468D01*
X006027Y018443D02*
X006162Y018578D01*
X006235Y018755D01*
X006235Y018945D01*
X006162Y019122D01*
X006027Y019257D01*
X005850Y019330D01*
X005660Y019330D01*
X005483Y019257D01*
X005348Y019122D01*
X005275Y018945D01*
X005275Y018755D01*
X005348Y018578D01*
X005483Y018443D01*
X005660Y018370D01*
X005850Y018370D01*
X006027Y018443D01*
X006165Y018586D02*
X006345Y018586D01*
X006296Y018705D02*
X006214Y018705D01*
X006235Y018823D02*
X006275Y018823D01*
X006275Y018942D02*
X006235Y018942D01*
X006188Y019060D02*
X006322Y019060D01*
X006405Y019179D02*
X006105Y019179D01*
X005930Y019297D02*
X006580Y019297D01*
X006930Y019297D02*
X007580Y019297D01*
X007660Y019330D02*
X007483Y019257D01*
X007348Y019122D01*
X007275Y018945D01*
X007275Y018755D01*
X007348Y018578D01*
X007483Y018443D01*
X007660Y018370D01*
X007850Y018370D01*
X008027Y018443D01*
X008162Y018578D01*
X008235Y018755D01*
X008235Y018945D01*
X008162Y019122D01*
X008027Y019257D01*
X007850Y019330D01*
X007660Y019330D01*
X007405Y019179D02*
X007105Y019179D01*
X007188Y019060D02*
X007322Y019060D01*
X007275Y018942D02*
X007235Y018942D01*
X007235Y018823D02*
X007275Y018823D01*
X007296Y018705D02*
X007214Y018705D01*
X007165Y018586D02*
X007345Y018586D01*
X007459Y018468D02*
X007051Y018468D01*
X008051Y018468D02*
X008459Y018468D01*
X008483Y018443D02*
X008660Y018370D01*
X008850Y018370D01*
X009027Y018443D01*
X009162Y018578D01*
X009235Y018755D01*
X009235Y018945D01*
X009162Y019122D01*
X009027Y019257D01*
X008850Y019330D01*
X008660Y019330D01*
X008483Y019257D01*
X008348Y019122D01*
X008275Y018945D01*
X008275Y018755D01*
X008348Y018578D01*
X008483Y018443D01*
X008345Y018586D02*
X008165Y018586D01*
X008214Y018705D02*
X008296Y018705D01*
X008275Y018823D02*
X008235Y018823D01*
X008235Y018942D02*
X008275Y018942D01*
X008322Y019060D02*
X008188Y019060D01*
X008105Y019179D02*
X008405Y019179D01*
X008580Y019297D02*
X007930Y019297D01*
X008930Y019297D02*
X009580Y019297D01*
X009660Y019330D02*
X009483Y019257D01*
X009348Y019122D01*
X009275Y018945D01*
X009275Y018755D01*
X009348Y018578D01*
X009483Y018443D01*
X009660Y018370D01*
X009850Y018370D01*
X010027Y018443D01*
X010162Y018578D01*
X010235Y018755D01*
X010235Y018945D01*
X010162Y019122D01*
X010027Y019257D01*
X009850Y019330D01*
X009660Y019330D01*
X009930Y019297D02*
X010580Y019297D01*
X010660Y019330D02*
X010483Y019257D01*
X010348Y019122D01*
X010275Y018945D01*
X010275Y018755D01*
X010348Y018578D01*
X010483Y018443D01*
X010660Y018370D01*
X010850Y018370D01*
X011027Y018443D01*
X011162Y018578D01*
X011235Y018755D01*
X011235Y018945D01*
X011162Y019122D01*
X011027Y019257D01*
X010850Y019330D01*
X010660Y019330D01*
X010930Y019297D02*
X011580Y019297D01*
X011660Y019330D02*
X011483Y019257D01*
X011348Y019122D01*
X011275Y018945D01*
X011275Y018755D01*
X011348Y018578D01*
X011483Y018443D01*
X011660Y018370D01*
X011850Y018370D01*
X012027Y018443D01*
X012162Y018578D01*
X012235Y018755D01*
X012235Y018945D01*
X012162Y019122D01*
X012027Y019257D01*
X011850Y019330D01*
X011660Y019330D01*
X011930Y019297D02*
X012580Y019297D01*
X012660Y019330D02*
X012483Y019257D01*
X012348Y019122D01*
X012275Y018945D01*
X012275Y018755D01*
X012348Y018578D01*
X012483Y018443D01*
X012660Y018370D01*
X012850Y018370D01*
X013027Y018443D01*
X013162Y018578D01*
X013235Y018755D01*
X013235Y018945D01*
X013162Y019122D01*
X013027Y019257D01*
X012850Y019330D01*
X012660Y019330D01*
X012930Y019297D02*
X013580Y019297D01*
X013660Y019330D02*
X013483Y019257D01*
X013348Y019122D01*
X013275Y018945D01*
X013275Y018755D01*
X013348Y018578D01*
X013483Y018443D01*
X013660Y018370D01*
X013850Y018370D01*
X014027Y018443D01*
X014162Y018578D01*
X014235Y018755D01*
X014235Y018945D01*
X014162Y019122D01*
X014027Y019257D01*
X013850Y019330D01*
X013660Y019330D01*
X013930Y019297D02*
X014580Y019297D01*
X014660Y019330D02*
X014483Y019257D01*
X014348Y019122D01*
X014275Y018945D01*
X014275Y018755D01*
X014348Y018578D01*
X014483Y018443D01*
X014660Y018370D01*
X014850Y018370D01*
X015027Y018443D01*
X015162Y018578D01*
X015235Y018755D01*
X015235Y018945D01*
X015162Y019122D01*
X015027Y019257D01*
X014850Y019330D01*
X014660Y019330D01*
X014930Y019297D02*
X015580Y019297D01*
X015660Y019330D02*
X015483Y019257D01*
X015348Y019122D01*
X015275Y018945D01*
X015275Y018755D01*
X015348Y018578D01*
X015483Y018443D01*
X015660Y018370D01*
X015850Y018370D01*
X016027Y018443D01*
X016162Y018578D01*
X016235Y018755D01*
X016235Y018945D01*
X016162Y019122D01*
X016027Y019257D01*
X015850Y019330D01*
X015660Y019330D01*
X015930Y019297D02*
X016580Y019297D01*
X016660Y019330D02*
X016483Y019257D01*
X016348Y019122D01*
X016275Y018945D01*
X016275Y018755D01*
X016348Y018578D01*
X016483Y018443D01*
X016660Y018370D01*
X016850Y018370D01*
X017027Y018443D01*
X017162Y018578D01*
X017235Y018755D01*
X017235Y018945D01*
X017162Y019122D01*
X017027Y019257D01*
X016850Y019330D01*
X016660Y019330D01*
X016930Y019297D02*
X017580Y019297D01*
X017660Y019330D02*
X017483Y019257D01*
X017348Y019122D01*
X017275Y018945D01*
X017275Y018755D01*
X017348Y018578D01*
X017483Y018443D01*
X017660Y018370D01*
X017850Y018370D01*
X018027Y018443D01*
X018162Y018578D01*
X018235Y018755D01*
X018235Y018945D01*
X018162Y019122D01*
X018027Y019257D01*
X017850Y019330D01*
X017660Y019330D01*
X017405Y019179D02*
X017105Y019179D01*
X017188Y019060D02*
X017322Y019060D01*
X017275Y018942D02*
X017235Y018942D01*
X017235Y018823D02*
X017275Y018823D01*
X017296Y018705D02*
X017214Y018705D01*
X017165Y018586D02*
X017345Y018586D01*
X017459Y018468D02*
X017051Y018468D01*
X016459Y018468D02*
X016051Y018468D01*
X016165Y018586D02*
X016345Y018586D01*
X016296Y018705D02*
X016214Y018705D01*
X016235Y018823D02*
X016275Y018823D01*
X016275Y018942D02*
X016235Y018942D01*
X016188Y019060D02*
X016322Y019060D01*
X016405Y019179D02*
X016105Y019179D01*
X015405Y019179D02*
X015105Y019179D01*
X015188Y019060D02*
X015322Y019060D01*
X015275Y018942D02*
X015235Y018942D01*
X015235Y018823D02*
X015275Y018823D01*
X015296Y018705D02*
X015214Y018705D01*
X015165Y018586D02*
X015345Y018586D01*
X015459Y018468D02*
X015051Y018468D01*
X014459Y018468D02*
X014051Y018468D01*
X014165Y018586D02*
X014345Y018586D01*
X014296Y018705D02*
X014214Y018705D01*
X014235Y018823D02*
X014275Y018823D01*
X014275Y018942D02*
X014235Y018942D01*
X014188Y019060D02*
X014322Y019060D01*
X014405Y019179D02*
X014105Y019179D01*
X013405Y019179D02*
X013105Y019179D01*
X013188Y019060D02*
X013322Y019060D01*
X013275Y018942D02*
X013235Y018942D01*
X013235Y018823D02*
X013275Y018823D01*
X013296Y018705D02*
X013214Y018705D01*
X013165Y018586D02*
X013345Y018586D01*
X013459Y018468D02*
X013051Y018468D01*
X012459Y018468D02*
X012051Y018468D01*
X012165Y018586D02*
X012345Y018586D01*
X012296Y018705D02*
X012214Y018705D01*
X012235Y018823D02*
X012275Y018823D01*
X012275Y018942D02*
X012235Y018942D01*
X012188Y019060D02*
X012322Y019060D01*
X012405Y019179D02*
X012105Y019179D01*
X011405Y019179D02*
X011105Y019179D01*
X011188Y019060D02*
X011322Y019060D01*
X011275Y018942D02*
X011235Y018942D01*
X011235Y018823D02*
X011275Y018823D01*
X011296Y018705D02*
X011214Y018705D01*
X011165Y018586D02*
X011345Y018586D01*
X011459Y018468D02*
X011051Y018468D01*
X010459Y018468D02*
X010051Y018468D01*
X010165Y018586D02*
X010345Y018586D01*
X010296Y018705D02*
X010214Y018705D01*
X010235Y018823D02*
X010275Y018823D01*
X010275Y018942D02*
X010235Y018942D01*
X010188Y019060D02*
X010322Y019060D01*
X010405Y019179D02*
X010105Y019179D01*
X009405Y019179D02*
X009105Y019179D01*
X009188Y019060D02*
X009322Y019060D01*
X009275Y018942D02*
X009235Y018942D01*
X009235Y018823D02*
X009275Y018823D01*
X009296Y018705D02*
X009214Y018705D01*
X009165Y018586D02*
X009345Y018586D01*
X009459Y018468D02*
X009051Y018468D01*
X005580Y019297D02*
X004930Y019297D01*
X004850Y019330D02*
X005027Y019257D01*
X005162Y019122D01*
X005235Y018945D01*
X005235Y018755D01*
X005162Y018578D01*
X005027Y018443D01*
X004850Y018370D01*
X004660Y018370D01*
X004483Y018443D01*
X004348Y018578D01*
X004275Y018755D01*
X004275Y018945D01*
X004348Y019122D01*
X004483Y019257D01*
X004660Y019330D01*
X004850Y019330D01*
X004580Y019297D02*
X003930Y019297D01*
X003850Y019330D02*
X004027Y019257D01*
X004162Y019122D01*
X004235Y018945D01*
X004235Y018755D01*
X004162Y018578D01*
X004027Y018443D01*
X003850Y018370D01*
X003660Y018370D01*
X003483Y018443D01*
X003348Y018578D01*
X003275Y018755D01*
X003275Y018945D01*
X003348Y019122D01*
X003483Y019257D01*
X003660Y019330D01*
X003850Y019330D01*
X003580Y019297D02*
X002930Y019297D01*
X002850Y019330D02*
X002660Y019330D01*
X002483Y019257D01*
X002348Y019122D01*
X002275Y018945D01*
X002275Y018755D01*
X002348Y018578D01*
X002483Y018443D01*
X002660Y018370D01*
X002850Y018370D01*
X003027Y018443D01*
X003162Y018578D01*
X003235Y018755D01*
X003235Y018945D01*
X003162Y019122D01*
X003027Y019257D01*
X002850Y019330D01*
X003105Y019179D02*
X003405Y019179D01*
X003322Y019060D02*
X003188Y019060D01*
X003235Y018942D02*
X003275Y018942D01*
X003275Y018823D02*
X003235Y018823D01*
X003214Y018705D02*
X003296Y018705D01*
X003345Y018586D02*
X003165Y018586D01*
X003051Y018468D02*
X003459Y018468D01*
X004051Y018468D02*
X004459Y018468D01*
X004345Y018586D02*
X004165Y018586D01*
X004214Y018705D02*
X004296Y018705D01*
X004275Y018823D02*
X004235Y018823D01*
X004235Y018942D02*
X004275Y018942D01*
X004322Y019060D02*
X004188Y019060D01*
X004105Y019179D02*
X004405Y019179D01*
X005105Y019179D02*
X005405Y019179D01*
X005322Y019060D02*
X005188Y019060D01*
X005235Y018942D02*
X005275Y018942D01*
X005275Y018823D02*
X005235Y018823D01*
X005214Y018705D02*
X005296Y018705D01*
X005345Y018586D02*
X005165Y018586D01*
X005051Y018468D02*
X005459Y018468D01*
X002580Y019297D02*
X002452Y019297D01*
X002405Y019179D02*
X002334Y019179D01*
X002322Y019060D02*
X002255Y019060D01*
X002255Y018942D02*
X002275Y018942D01*
X002275Y018823D02*
X002255Y018823D01*
X002255Y018705D02*
X002296Y018705D01*
X002345Y018586D02*
X002241Y018586D01*
X002123Y018468D02*
X002459Y018468D01*
X002004Y018349D02*
X018445Y018349D01*
X018351Y018468D02*
X018051Y018468D01*
X018165Y018586D02*
X018269Y018586D01*
X018254Y018705D02*
X018214Y018705D01*
X018235Y018823D02*
X018254Y018823D01*
X018254Y018942D02*
X018235Y018942D01*
X018255Y019060D02*
X018188Y019060D01*
X018176Y019179D02*
X018105Y019179D01*
X018058Y019297D02*
X017930Y019297D01*
X018563Y018231D02*
X001886Y018231D01*
X001767Y018112D02*
X018743Y018112D01*
X018861Y017994D02*
X001649Y017994D01*
X001530Y017875D02*
X018980Y017875D01*
X019086Y017757D02*
X001412Y017757D01*
X000755Y014320D02*
X003485Y014320D01*
X003366Y014202D02*
X000755Y014202D01*
X000755Y014083D02*
X003248Y014083D01*
X003129Y013965D02*
X000755Y013965D01*
X000904Y013609D02*
X001356Y013609D01*
X001284Y013491D02*
X000976Y013491D01*
X001000Y013372D02*
X001260Y013372D01*
X001260Y013254D02*
X001000Y013254D01*
X001000Y013135D02*
X001260Y013135D01*
X001260Y013017D02*
X001000Y013017D01*
X001000Y012898D02*
X001260Y012898D01*
X001260Y012780D02*
X001000Y012780D01*
X000956Y012661D02*
X001304Y012661D01*
X001404Y012543D02*
X000856Y012543D01*
X002354Y004959D02*
X002373Y004959D01*
X002255Y004840D02*
X002235Y004840D01*
X002210Y004722D02*
X002175Y004722D01*
X002175Y004603D02*
X002210Y004603D01*
X002210Y004485D02*
X002175Y004485D01*
X002175Y004366D02*
X002210Y004366D01*
X002210Y004248D02*
X002175Y004248D01*
X002175Y004129D02*
X002210Y004129D01*
X002210Y004011D02*
X002175Y004011D01*
X002210Y003892D02*
X002123Y003892D01*
X002188Y003774D02*
X002005Y003774D01*
X002070Y003655D02*
X001886Y003655D01*
X001951Y003537D02*
X001768Y003537D01*
X001833Y003418D02*
X001649Y003418D01*
X001674Y003300D02*
X001731Y003300D01*
X001731Y003181D02*
X001674Y003181D01*
X001655Y003063D02*
X001731Y003063D01*
X001728Y002944D02*
X001606Y002944D01*
X001405Y003655D02*
X001359Y003655D01*
X012130Y005225D02*
X012130Y011600D01*
X013630Y013100D01*
X014000Y013135D02*
X014260Y013135D01*
X014260Y013017D02*
X014000Y013017D01*
X014000Y012898D02*
X014260Y012898D01*
X014260Y012780D02*
X014000Y012780D01*
X013956Y012661D02*
X014304Y012661D01*
X014404Y012543D02*
X013856Y012543D01*
X014000Y013254D02*
X014260Y013254D01*
X014260Y013372D02*
X014000Y013372D01*
X013976Y013491D02*
X014284Y013491D01*
X014356Y013609D02*
X013904Y013609D01*
X013356Y013609D02*
X012904Y013609D01*
X012976Y013491D02*
X013284Y013491D01*
X013260Y013372D02*
X013000Y013372D01*
X013000Y013254D02*
X013260Y013254D01*
X014904Y013609D02*
X015356Y013609D01*
X015284Y013491D02*
X014976Y013491D01*
X015000Y013372D02*
X015260Y013372D01*
X015260Y013254D02*
X015000Y013254D01*
X015000Y013135D02*
X015260Y013135D01*
X015260Y013017D02*
X015000Y013017D01*
X015101Y012898D02*
X015260Y012898D01*
X015260Y012780D02*
X015219Y012780D01*
X015320Y012543D02*
X015404Y012543D01*
X015320Y012424D02*
X019505Y012424D01*
X019505Y012306D02*
X015320Y012306D01*
X015320Y012187D02*
X019505Y012187D01*
X019505Y012069D02*
X015320Y012069D01*
X015320Y011950D02*
X019505Y011950D01*
X019505Y011832D02*
X015320Y011832D01*
X015320Y011713D02*
X019505Y011713D01*
X019505Y011595D02*
X015320Y011595D01*
X015320Y011476D02*
X019505Y011476D01*
X019505Y011358D02*
X015320Y011358D01*
X015320Y011239D02*
X019505Y011239D01*
X019505Y011121D02*
X015320Y011121D01*
X015320Y011002D02*
X019505Y011002D01*
X019505Y010884D02*
X015320Y010884D01*
X015320Y010765D02*
X019505Y010765D01*
X019505Y010647D02*
X015320Y010647D01*
X015320Y010528D02*
X019505Y010528D01*
X019505Y010410D02*
X015320Y010410D01*
X015320Y010291D02*
X019505Y010291D01*
X019505Y010173D02*
X015320Y010173D01*
X015320Y010054D02*
X019505Y010054D01*
X019505Y009936D02*
X015320Y009936D01*
X015320Y009817D02*
X019505Y009817D01*
X019505Y009699D02*
X015320Y009699D01*
X015320Y009580D02*
X019505Y009580D01*
X019505Y009462D02*
X015320Y009462D01*
X015320Y009343D02*
X019505Y009343D01*
X019505Y009225D02*
X015320Y009225D01*
X015320Y009106D02*
X019505Y009106D01*
X019505Y008988D02*
X015320Y008988D01*
X015320Y008869D02*
X019505Y008869D01*
X019505Y008751D02*
X015320Y008751D01*
X015320Y008632D02*
X019505Y008632D01*
X019505Y008514D02*
X015320Y008514D01*
X015320Y008395D02*
X019505Y008395D01*
X019505Y008277D02*
X015320Y008277D01*
X015320Y008158D02*
X019505Y008158D01*
X019505Y008040D02*
X015320Y008040D01*
X015320Y007921D02*
X019505Y007921D01*
X019505Y007803D02*
X015320Y007803D01*
X015320Y007684D02*
X015445Y007684D01*
X014940Y007684D02*
X014815Y007684D01*
X019376Y003655D02*
X019505Y003655D01*
X019505Y002826D02*
X019407Y002826D01*
X019404Y012543D02*
X018856Y012543D01*
X018956Y012661D02*
X019304Y012661D01*
X019260Y012780D02*
X019000Y012780D01*
X019000Y012898D02*
X019260Y012898D01*
X019260Y013017D02*
X019000Y013017D01*
X019000Y013135D02*
X019260Y013135D01*
X019260Y013254D02*
X019000Y013254D01*
X019000Y013372D02*
X019260Y013372D01*
X019284Y013491D02*
X018976Y013491D01*
X018904Y013609D02*
X019356Y013609D01*
X018356Y013609D02*
X017904Y013609D01*
X017976Y013491D02*
X018284Y013491D01*
X018260Y013372D02*
X018000Y013372D01*
X018000Y013254D02*
X018260Y013254D01*
X018260Y013135D02*
X018000Y013135D01*
X018000Y013017D02*
X018260Y013017D01*
X018260Y012898D02*
X018000Y012898D01*
X018000Y012780D02*
X018260Y012780D01*
X018304Y012661D02*
X017956Y012661D01*
X017856Y012543D02*
X018404Y012543D01*
X017404Y012543D02*
X016856Y012543D01*
X016956Y012661D02*
X017304Y012661D01*
X017260Y012780D02*
X017000Y012780D01*
X017000Y012898D02*
X017260Y012898D01*
X017260Y013017D02*
X017000Y013017D01*
X017000Y013135D02*
X017260Y013135D01*
X017260Y013254D02*
X017000Y013254D01*
X017000Y013372D02*
X017260Y013372D01*
X017284Y013491D02*
X016976Y013491D01*
X016904Y013609D02*
X017356Y013609D01*
X016356Y013609D02*
X015904Y013609D01*
X015976Y013491D02*
X016284Y013491D01*
X016260Y013372D02*
X016000Y013372D01*
X016000Y013254D02*
X016260Y013254D01*
X016260Y013135D02*
X016000Y013135D01*
X016000Y013017D02*
X016260Y013017D01*
X016260Y012898D02*
X016000Y012898D01*
X016000Y012780D02*
X016260Y012780D01*
X016304Y012661D02*
X015956Y012661D01*
X015856Y012543D02*
X016404Y012543D01*
X014919Y012543D02*
X014856Y012543D01*
X019431Y015861D02*
X019505Y015861D01*
D16*
X018255Y016350D03*
X018255Y017350D03*
X013255Y005850D03*
X012130Y005225D03*
X012505Y004350D03*
X012005Y003850D03*
X011005Y003350D03*
X011005Y002850D03*
X011005Y002350D03*
X011130Y005225D03*
X010130Y005225D03*
X009130Y005225D03*
X008130Y005225D03*
X007130Y005225D03*
X006130Y005225D03*
X005130Y005225D03*
X004005Y003350D03*
X004505Y002850D03*
X003005Y003850D03*
X003005Y004350D03*
X003005Y004850D03*
X003005Y005850D03*
X004630Y008350D03*
X004630Y009600D03*
X002630Y002975D03*
X017380Y002850D03*
X017380Y005100D03*
X019505Y004975D03*
D17*
X019505Y004850D01*
X017380Y002850D02*
X017255Y002600D01*
X017255Y002725D01*
D18*
X018371Y003234D02*
X019139Y003234D01*
X018371Y003234D02*
X015130Y006475D01*
X015130Y012600D01*
X014630Y013100D01*
M02*
