G75*
%MOIN*%
%OFA0B0*%
%FSLAX24Y24*%
%IPPOS*%
%LPD*%
%AMOC8*
5,1,8,0,0,1.08239X$1,22.5*
%
%ADD10C,0.0000*%
%ADD11C,0.0100*%
%ADD12C,0.0040*%
%ADD13C,0.0030*%
%ADD14C,0.0120*%
%ADD15C,0.0080*%
%ADD16C,0.0060*%
%ADD17R,0.0059X0.0118*%
%ADD18R,0.0118X0.0118*%
D10*
X000728Y000100D02*
X000728Y019785D01*
X020413Y019785D01*
X020413Y000100D01*
X000728Y000100D01*
X001137Y001100D02*
X001139Y001148D01*
X001145Y001196D01*
X001155Y001243D01*
X001168Y001289D01*
X001186Y001334D01*
X001206Y001378D01*
X001231Y001420D01*
X001259Y001459D01*
X001289Y001496D01*
X001323Y001530D01*
X001360Y001562D01*
X001398Y001591D01*
X001439Y001616D01*
X001482Y001638D01*
X001527Y001656D01*
X001573Y001670D01*
X001620Y001681D01*
X001668Y001688D01*
X001716Y001691D01*
X001764Y001690D01*
X001812Y001685D01*
X001860Y001676D01*
X001906Y001664D01*
X001951Y001647D01*
X001995Y001627D01*
X002037Y001604D01*
X002077Y001577D01*
X002115Y001547D01*
X002150Y001514D01*
X002182Y001478D01*
X002212Y001440D01*
X002238Y001399D01*
X002260Y001356D01*
X002280Y001312D01*
X002295Y001267D01*
X002307Y001220D01*
X002315Y001172D01*
X002319Y001124D01*
X002319Y001076D01*
X002315Y001028D01*
X002307Y000980D01*
X002295Y000933D01*
X002280Y000888D01*
X002260Y000844D01*
X002238Y000801D01*
X002212Y000760D01*
X002182Y000722D01*
X002150Y000686D01*
X002115Y000653D01*
X002077Y000623D01*
X002037Y000596D01*
X001995Y000573D01*
X001951Y000553D01*
X001906Y000536D01*
X001860Y000524D01*
X001812Y000515D01*
X001764Y000510D01*
X001716Y000509D01*
X001668Y000512D01*
X001620Y000519D01*
X001573Y000530D01*
X001527Y000544D01*
X001482Y000562D01*
X001439Y000584D01*
X001398Y000609D01*
X001360Y000638D01*
X001323Y000670D01*
X001289Y000704D01*
X001259Y000741D01*
X001231Y000780D01*
X001206Y000822D01*
X001186Y000866D01*
X001168Y000911D01*
X001155Y000957D01*
X001145Y001004D01*
X001139Y001052D01*
X001137Y001100D01*
X001137Y018850D02*
X001139Y018898D01*
X001145Y018946D01*
X001155Y018993D01*
X001168Y019039D01*
X001186Y019084D01*
X001206Y019128D01*
X001231Y019170D01*
X001259Y019209D01*
X001289Y019246D01*
X001323Y019280D01*
X001360Y019312D01*
X001398Y019341D01*
X001439Y019366D01*
X001482Y019388D01*
X001527Y019406D01*
X001573Y019420D01*
X001620Y019431D01*
X001668Y019438D01*
X001716Y019441D01*
X001764Y019440D01*
X001812Y019435D01*
X001860Y019426D01*
X001906Y019414D01*
X001951Y019397D01*
X001995Y019377D01*
X002037Y019354D01*
X002077Y019327D01*
X002115Y019297D01*
X002150Y019264D01*
X002182Y019228D01*
X002212Y019190D01*
X002238Y019149D01*
X002260Y019106D01*
X002280Y019062D01*
X002295Y019017D01*
X002307Y018970D01*
X002315Y018922D01*
X002319Y018874D01*
X002319Y018826D01*
X002315Y018778D01*
X002307Y018730D01*
X002295Y018683D01*
X002280Y018638D01*
X002260Y018594D01*
X002238Y018551D01*
X002212Y018510D01*
X002182Y018472D01*
X002150Y018436D01*
X002115Y018403D01*
X002077Y018373D01*
X002037Y018346D01*
X001995Y018323D01*
X001951Y018303D01*
X001906Y018286D01*
X001860Y018274D01*
X001812Y018265D01*
X001764Y018260D01*
X001716Y018259D01*
X001668Y018262D01*
X001620Y018269D01*
X001573Y018280D01*
X001527Y018294D01*
X001482Y018312D01*
X001439Y018334D01*
X001398Y018359D01*
X001360Y018388D01*
X001323Y018420D01*
X001289Y018454D01*
X001259Y018491D01*
X001231Y018530D01*
X001206Y018572D01*
X001186Y018616D01*
X001168Y018661D01*
X001155Y018707D01*
X001145Y018754D01*
X001139Y018802D01*
X001137Y018850D01*
X018887Y018850D02*
X018889Y018898D01*
X018895Y018946D01*
X018905Y018993D01*
X018918Y019039D01*
X018936Y019084D01*
X018956Y019128D01*
X018981Y019170D01*
X019009Y019209D01*
X019039Y019246D01*
X019073Y019280D01*
X019110Y019312D01*
X019148Y019341D01*
X019189Y019366D01*
X019232Y019388D01*
X019277Y019406D01*
X019323Y019420D01*
X019370Y019431D01*
X019418Y019438D01*
X019466Y019441D01*
X019514Y019440D01*
X019562Y019435D01*
X019610Y019426D01*
X019656Y019414D01*
X019701Y019397D01*
X019745Y019377D01*
X019787Y019354D01*
X019827Y019327D01*
X019865Y019297D01*
X019900Y019264D01*
X019932Y019228D01*
X019962Y019190D01*
X019988Y019149D01*
X020010Y019106D01*
X020030Y019062D01*
X020045Y019017D01*
X020057Y018970D01*
X020065Y018922D01*
X020069Y018874D01*
X020069Y018826D01*
X020065Y018778D01*
X020057Y018730D01*
X020045Y018683D01*
X020030Y018638D01*
X020010Y018594D01*
X019988Y018551D01*
X019962Y018510D01*
X019932Y018472D01*
X019900Y018436D01*
X019865Y018403D01*
X019827Y018373D01*
X019787Y018346D01*
X019745Y018323D01*
X019701Y018303D01*
X019656Y018286D01*
X019610Y018274D01*
X019562Y018265D01*
X019514Y018260D01*
X019466Y018259D01*
X019418Y018262D01*
X019370Y018269D01*
X019323Y018280D01*
X019277Y018294D01*
X019232Y018312D01*
X019189Y018334D01*
X019148Y018359D01*
X019110Y018388D01*
X019073Y018420D01*
X019039Y018454D01*
X019009Y018491D01*
X018981Y018530D01*
X018956Y018572D01*
X018936Y018616D01*
X018918Y018661D01*
X018905Y018707D01*
X018895Y018754D01*
X018889Y018802D01*
X018887Y018850D01*
X018887Y001100D02*
X018889Y001148D01*
X018895Y001196D01*
X018905Y001243D01*
X018918Y001289D01*
X018936Y001334D01*
X018956Y001378D01*
X018981Y001420D01*
X019009Y001459D01*
X019039Y001496D01*
X019073Y001530D01*
X019110Y001562D01*
X019148Y001591D01*
X019189Y001616D01*
X019232Y001638D01*
X019277Y001656D01*
X019323Y001670D01*
X019370Y001681D01*
X019418Y001688D01*
X019466Y001691D01*
X019514Y001690D01*
X019562Y001685D01*
X019610Y001676D01*
X019656Y001664D01*
X019701Y001647D01*
X019745Y001627D01*
X019787Y001604D01*
X019827Y001577D01*
X019865Y001547D01*
X019900Y001514D01*
X019932Y001478D01*
X019962Y001440D01*
X019988Y001399D01*
X020010Y001356D01*
X020030Y001312D01*
X020045Y001267D01*
X020057Y001220D01*
X020065Y001172D01*
X020069Y001124D01*
X020069Y001076D01*
X020065Y001028D01*
X020057Y000980D01*
X020045Y000933D01*
X020030Y000888D01*
X020010Y000844D01*
X019988Y000801D01*
X019962Y000760D01*
X019932Y000722D01*
X019900Y000686D01*
X019865Y000653D01*
X019827Y000623D01*
X019787Y000596D01*
X019745Y000573D01*
X019701Y000553D01*
X019656Y000536D01*
X019610Y000524D01*
X019562Y000515D01*
X019514Y000510D01*
X019466Y000509D01*
X019418Y000512D01*
X019370Y000519D01*
X019323Y000530D01*
X019277Y000544D01*
X019232Y000562D01*
X019189Y000584D01*
X019148Y000609D01*
X019110Y000638D01*
X019073Y000670D01*
X019039Y000704D01*
X019009Y000741D01*
X018981Y000780D01*
X018956Y000822D01*
X018936Y000866D01*
X018918Y000911D01*
X018905Y000957D01*
X018895Y001004D01*
X018889Y001052D01*
X018887Y001100D01*
D11*
X020353Y000225D02*
X020353Y019725D01*
X000853Y019725D01*
X000853Y000225D01*
X020353Y000225D01*
X010478Y007350D02*
X009728Y007350D01*
X009728Y006850D01*
X009478Y006600D01*
X003228Y006600D01*
X002978Y006850D01*
X002978Y007850D01*
X003228Y008100D01*
X009478Y008100D01*
X009728Y007850D01*
X009728Y007350D01*
X004228Y006100D02*
X004228Y005600D01*
X003478Y004850D01*
X002728Y004850D01*
X002478Y005100D01*
X002228Y004850D01*
X002478Y004850D01*
X002478Y005100D02*
X002478Y006100D01*
X002728Y006350D01*
X003978Y006350D01*
X004228Y006100D01*
X002228Y005100D02*
X002228Y004850D01*
D12*
X002948Y006745D02*
X002871Y006822D01*
X003178Y007129D01*
X003178Y006822D01*
X003102Y006745D01*
X002948Y006745D01*
X002871Y006822D02*
X002871Y007129D01*
X002948Y007205D01*
X003102Y007205D01*
X003178Y007129D01*
X003102Y007495D02*
X002795Y007495D01*
X002948Y007495D02*
X002948Y007955D01*
X002795Y007802D01*
X003574Y008699D02*
X003651Y008699D01*
X003727Y008776D01*
X003727Y008929D01*
X003804Y009006D01*
X003881Y009006D01*
X003958Y008929D01*
X003958Y008776D01*
X003881Y008699D01*
X003574Y008699D02*
X003497Y008776D01*
X003497Y008929D01*
X003574Y009006D01*
X003727Y009160D02*
X003727Y009467D01*
X003497Y009390D02*
X003727Y009160D01*
X003958Y009390D02*
X003497Y009390D01*
X002958Y009363D02*
X002651Y009363D01*
X002651Y009516D02*
X002651Y009593D01*
X002651Y009516D02*
X002804Y009363D01*
X002727Y009209D02*
X002574Y009209D01*
X002497Y009132D01*
X002497Y008902D01*
X002958Y008902D01*
X002804Y008902D02*
X002804Y009132D01*
X002727Y009209D01*
X002208Y009132D02*
X002208Y008902D01*
X001747Y008902D01*
X001747Y009132D01*
X001824Y009209D01*
X001901Y009209D01*
X001977Y009132D01*
X001977Y008902D01*
X001977Y009132D02*
X002054Y009209D01*
X002131Y009209D01*
X002208Y009132D01*
X002131Y009363D02*
X001977Y009363D01*
X001901Y009439D01*
X001901Y009593D01*
X001977Y009670D01*
X002054Y009670D01*
X002054Y009363D01*
X002131Y009363D02*
X002208Y009439D01*
X002208Y009593D01*
X002208Y009823D02*
X001901Y009823D01*
X001901Y010053D01*
X001977Y010130D01*
X002208Y010130D01*
X002420Y010360D02*
X002497Y010360D01*
X002651Y010360D02*
X003034Y010360D01*
X003111Y010283D01*
X003111Y010207D01*
X002881Y010053D02*
X002727Y010053D01*
X002651Y009976D01*
X002651Y009823D01*
X002727Y009746D01*
X002881Y009746D01*
X002958Y009823D01*
X002958Y009976D01*
X002881Y010053D01*
X002881Y010514D02*
X002727Y010514D01*
X002651Y010590D01*
X002651Y010744D01*
X002727Y010821D01*
X002804Y010821D01*
X002804Y010514D01*
X002881Y010514D02*
X002958Y010590D01*
X002958Y010744D01*
X002881Y010974D02*
X002727Y010974D01*
X002651Y011051D01*
X002651Y011281D01*
X002651Y011434D02*
X002651Y011588D01*
X002574Y011511D02*
X002881Y011511D01*
X002958Y011588D01*
X002958Y011741D02*
X002881Y011741D01*
X002881Y011818D01*
X002958Y011818D01*
X002958Y011741D01*
X002727Y011741D02*
X002651Y011741D01*
X002651Y011818D01*
X002727Y011818D01*
X002727Y011741D01*
X002958Y011281D02*
X002958Y011051D01*
X002881Y010974D01*
X002208Y010897D02*
X002054Y011051D01*
X001747Y011051D01*
X001747Y010744D02*
X002054Y010744D01*
X002208Y010897D01*
X002208Y011204D02*
X002208Y011281D01*
X002131Y011281D01*
X002131Y011204D01*
X002208Y011204D01*
X002208Y011895D02*
X001747Y011895D01*
X001747Y012125D01*
X001824Y012202D01*
X001901Y012202D01*
X001977Y012125D01*
X001977Y011895D01*
X001977Y012125D02*
X002054Y012202D01*
X002131Y012202D01*
X002208Y012125D01*
X002208Y011895D01*
X002208Y012355D02*
X001901Y012355D01*
X002054Y012355D02*
X001901Y012509D01*
X001901Y012585D01*
X001977Y012739D02*
X002131Y012739D01*
X002208Y012816D01*
X002208Y012969D01*
X002131Y013046D01*
X001977Y013046D01*
X001901Y012969D01*
X001901Y012816D01*
X001977Y012739D01*
X001901Y013199D02*
X002131Y013199D01*
X002208Y013276D01*
X002131Y013353D01*
X002208Y013429D01*
X002131Y013506D01*
X001901Y013506D01*
X001901Y013660D02*
X001901Y013890D01*
X001977Y013967D01*
X002208Y013967D01*
X002208Y013660D02*
X001901Y013660D01*
X002574Y013429D02*
X002881Y013429D01*
X002958Y013506D01*
X002881Y013660D02*
X002804Y013736D01*
X002804Y013967D01*
X002727Y013967D02*
X002958Y013967D01*
X002958Y013736D01*
X002881Y013660D01*
X002651Y013736D02*
X002651Y013890D01*
X002727Y013967D01*
X002651Y013506D02*
X002651Y013353D01*
X002727Y013199D02*
X002804Y013199D01*
X002804Y012892D01*
X002727Y012892D02*
X002651Y012969D01*
X002651Y013122D01*
X002727Y013199D01*
X002958Y013122D02*
X002958Y012969D01*
X002881Y012892D01*
X002727Y012892D01*
X002574Y012739D02*
X002881Y012432D01*
X002958Y012432D01*
X002958Y012739D01*
X002574Y012739D02*
X002497Y012739D01*
X002497Y012432D01*
X004497Y009467D02*
X004497Y009160D01*
X004727Y009160D01*
X004651Y009313D01*
X004651Y009390D01*
X004727Y009467D01*
X004881Y009467D01*
X004958Y009390D01*
X004958Y009236D01*
X004881Y009160D01*
X004881Y009006D02*
X004958Y008929D01*
X004958Y008776D01*
X004881Y008699D01*
X004727Y008776D02*
X004727Y008929D01*
X004804Y009006D01*
X004881Y009006D01*
X004727Y008776D02*
X004651Y008699D01*
X004574Y008699D01*
X004497Y008776D01*
X004497Y008929D01*
X004574Y009006D01*
X005497Y008929D02*
X005497Y008776D01*
X005574Y008699D01*
X005651Y008699D01*
X005727Y008776D01*
X005727Y008929D01*
X005804Y009006D01*
X005881Y009006D01*
X005958Y008929D01*
X005958Y008776D01*
X005881Y008699D01*
X005574Y009006D02*
X005497Y008929D01*
X005727Y009160D02*
X005727Y009390D01*
X005804Y009467D01*
X005881Y009467D01*
X005958Y009390D01*
X005958Y009236D01*
X005881Y009160D01*
X005727Y009160D01*
X005574Y009313D01*
X005497Y009467D01*
X006497Y009467D02*
X006497Y009160D01*
X006574Y009006D02*
X006497Y008929D01*
X006497Y008776D01*
X006574Y008699D01*
X006651Y008699D01*
X006727Y008776D01*
X006727Y008929D01*
X006804Y009006D01*
X006881Y009006D01*
X006958Y008929D01*
X006958Y008776D01*
X006881Y008699D01*
X006881Y009160D02*
X006958Y009160D01*
X006881Y009160D02*
X006574Y009467D01*
X006497Y009467D01*
X006554Y007955D02*
X006478Y007879D01*
X006478Y007802D01*
X006554Y007725D01*
X006708Y007725D01*
X006785Y007648D01*
X006785Y007572D01*
X006708Y007495D01*
X006554Y007495D01*
X006478Y007572D01*
X006554Y007205D02*
X006708Y007205D01*
X006631Y007205D02*
X006631Y006745D01*
X006554Y006745D02*
X006708Y006745D01*
X007322Y006822D02*
X007399Y006745D01*
X007552Y006745D01*
X007629Y006822D01*
X007629Y006975D01*
X007475Y006975D01*
X007322Y006822D02*
X007322Y007129D01*
X007399Y007205D01*
X007552Y007205D01*
X007629Y007129D01*
X007705Y007495D02*
X007552Y007648D01*
X007629Y007648D02*
X007399Y007648D01*
X007399Y007495D02*
X007399Y007955D01*
X007629Y007955D01*
X007705Y007879D01*
X007705Y007725D01*
X007629Y007648D01*
X008319Y007495D02*
X008473Y007648D01*
X008626Y007495D01*
X008626Y007955D01*
X008319Y007955D02*
X008319Y007495D01*
X008319Y007205D02*
X008243Y007129D01*
X008243Y006822D01*
X008319Y006745D01*
X008473Y006745D01*
X008550Y006822D01*
X008550Y006975D01*
X008396Y006975D01*
X008550Y007129D02*
X008473Y007205D01*
X008319Y007205D01*
X009163Y007205D02*
X009163Y006898D01*
X009317Y006745D01*
X009470Y006898D01*
X009470Y007205D01*
X009394Y007495D02*
X009547Y007648D01*
X009547Y007955D01*
X009240Y007955D02*
X009240Y007648D01*
X009394Y007495D01*
X006785Y007879D02*
X006708Y007955D01*
X006554Y007955D01*
X005864Y007955D02*
X005864Y007879D01*
X005557Y007572D01*
X005557Y007495D01*
X005787Y007129D02*
X005941Y007205D01*
X005787Y007129D02*
X005634Y006975D01*
X005864Y006975D01*
X005941Y006898D01*
X005941Y006822D01*
X005864Y006745D01*
X005710Y006745D01*
X005634Y006822D01*
X005634Y006975D01*
X005020Y006975D02*
X004713Y006975D01*
X004943Y007205D01*
X004943Y006745D01*
X004866Y007495D02*
X004713Y007495D01*
X004636Y007572D01*
X004636Y007725D02*
X004790Y007802D01*
X004866Y007802D01*
X004943Y007725D01*
X004943Y007572D01*
X004866Y007495D01*
X004636Y007725D02*
X004636Y007955D01*
X004943Y007955D01*
X005557Y007955D02*
X005864Y007955D01*
X004022Y007879D02*
X004022Y007802D01*
X003946Y007725D01*
X004022Y007648D01*
X004022Y007572D01*
X003946Y007495D01*
X003792Y007495D01*
X003715Y007572D01*
X003869Y007725D02*
X003946Y007725D01*
X004022Y007879D02*
X003946Y007955D01*
X003792Y007955D01*
X003715Y007879D01*
X003869Y007205D02*
X003792Y007129D01*
X003869Y007205D02*
X004022Y007205D01*
X004099Y007129D01*
X004099Y007052D01*
X003792Y006745D01*
X004099Y006745D01*
X007747Y017324D02*
X007747Y017554D01*
X007824Y017631D01*
X008131Y017631D01*
X008208Y017554D01*
X008208Y017324D01*
X007747Y017324D01*
X007824Y017785D02*
X007747Y017861D01*
X007747Y018015D01*
X007824Y018092D01*
X008131Y017785D01*
X008208Y017861D01*
X008208Y018015D01*
X008131Y018092D01*
X007824Y018092D01*
X007824Y017785D02*
X008131Y017785D01*
X008747Y017938D02*
X009208Y017938D01*
X009208Y017785D02*
X009208Y018092D01*
X008901Y017785D02*
X008747Y017938D01*
X008824Y017631D02*
X008747Y017554D01*
X008747Y017324D01*
X009208Y017324D01*
X009208Y017554D01*
X009131Y017631D01*
X008824Y017631D01*
X009747Y017554D02*
X009747Y017324D01*
X010208Y017324D01*
X010208Y017554D01*
X010131Y017631D01*
X009824Y017631D01*
X009747Y017554D01*
X009824Y017785D02*
X009747Y017861D01*
X009747Y018015D01*
X009824Y018092D01*
X009901Y018092D01*
X010208Y017785D01*
X010208Y018092D01*
X010747Y018015D02*
X010747Y017861D01*
X010824Y017785D01*
X010824Y017631D02*
X010747Y017554D01*
X010747Y017324D01*
X011208Y017324D01*
X011208Y017554D01*
X011131Y017631D01*
X010824Y017631D01*
X011131Y017785D02*
X011208Y017861D01*
X011208Y018015D01*
X011131Y018092D01*
X011054Y018092D01*
X010977Y018015D01*
X010977Y017938D01*
X010977Y018015D02*
X010901Y018092D01*
X010824Y018092D01*
X010747Y018015D01*
X011747Y018015D02*
X011977Y017785D01*
X011977Y018092D01*
X011747Y018015D02*
X012208Y018015D01*
X012131Y017631D02*
X011824Y017631D01*
X011747Y017554D01*
X011747Y017324D01*
X012208Y017324D01*
X012208Y017554D01*
X012131Y017631D01*
X012747Y017554D02*
X012747Y017324D01*
X013208Y017324D01*
X013208Y017554D01*
X013131Y017631D01*
X012824Y017631D01*
X012747Y017554D01*
X012747Y017785D02*
X012977Y017785D01*
X012901Y017938D01*
X012901Y018015D01*
X012977Y018092D01*
X013131Y018092D01*
X013208Y018015D01*
X013208Y017861D01*
X013131Y017785D01*
X012747Y017785D02*
X012747Y018092D01*
X013747Y018092D02*
X013824Y017938D01*
X013977Y017785D01*
X013977Y018015D01*
X014054Y018092D01*
X014131Y018092D01*
X014208Y018015D01*
X014208Y017861D01*
X014131Y017785D01*
X013977Y017785D01*
X013824Y017631D02*
X013747Y017554D01*
X013747Y017324D01*
X014208Y017324D01*
X014208Y017554D01*
X014131Y017631D01*
X013824Y017631D01*
X014747Y017554D02*
X014747Y017324D01*
X015208Y017324D01*
X015208Y017554D01*
X015131Y017631D01*
X014824Y017631D01*
X014747Y017554D01*
X014747Y017785D02*
X014747Y018092D01*
X014824Y018092D01*
X015131Y017785D01*
X015208Y017785D01*
X015747Y017785D02*
X015747Y018015D01*
X015824Y018092D01*
X015977Y018092D01*
X016054Y018015D01*
X016054Y017785D01*
X016054Y017938D02*
X016208Y018092D01*
X016208Y017785D02*
X015747Y017785D01*
X015747Y017631D02*
X016208Y017631D01*
X016054Y017478D01*
X016208Y017324D01*
X015747Y017324D01*
X016747Y017324D02*
X016747Y017554D01*
X016824Y017631D01*
X016977Y017631D01*
X017054Y017554D01*
X017054Y017324D01*
X017208Y017324D02*
X016747Y017324D01*
X017054Y017478D02*
X017208Y017631D01*
X017208Y017785D02*
X017208Y018015D01*
X017131Y018092D01*
X016824Y018092D01*
X016747Y018015D01*
X016747Y017785D01*
X017208Y017785D01*
D13*
X018866Y013424D02*
X018866Y013177D01*
X018743Y013300D02*
X018989Y013300D01*
X018866Y010424D02*
X018866Y010177D01*
X018743Y010300D02*
X018989Y010300D01*
X018866Y007424D02*
X018866Y007177D01*
X018743Y007300D02*
X018989Y007300D01*
X018866Y004424D02*
X018866Y004177D01*
X018743Y004300D02*
X018989Y004300D01*
X006489Y009550D02*
X006243Y009550D01*
X006366Y009427D02*
X006366Y009674D01*
X005489Y009550D02*
X005243Y009550D01*
X005366Y009427D02*
X005366Y009674D01*
X004489Y009550D02*
X004243Y009550D01*
X004366Y009427D02*
X004366Y009674D01*
X003489Y009550D02*
X003243Y009550D01*
X003366Y009427D02*
X003366Y009674D01*
X003479Y006239D02*
X003603Y006239D01*
X003541Y006239D02*
X003541Y005869D01*
X003479Y005869D02*
X003603Y005869D01*
X003848Y005869D02*
X003848Y006239D01*
X003725Y006239D02*
X003972Y006239D01*
X003358Y006116D02*
X003358Y005869D01*
X003358Y006054D02*
X003111Y006054D01*
X003111Y006116D02*
X003234Y006239D01*
X003358Y006116D01*
X003111Y006116D02*
X003111Y005869D01*
X002989Y005869D02*
X002989Y006239D01*
X002743Y006239D02*
X002743Y005869D01*
X002866Y005992D01*
X002989Y005869D01*
X002989Y005331D02*
X002866Y005208D01*
X002743Y005331D01*
X002743Y004961D01*
X002989Y004961D02*
X002989Y005331D01*
X003111Y005208D02*
X003234Y005331D01*
X003234Y004961D01*
X003111Y004961D02*
X003358Y004961D01*
X003123Y014461D02*
X003123Y014831D01*
X003246Y014831D02*
X002999Y014831D01*
X002631Y014831D02*
X002631Y014461D01*
X002878Y014461D01*
X002509Y014461D02*
X002509Y014708D01*
X002386Y014831D01*
X002263Y014708D01*
X002263Y014461D01*
X002141Y014461D02*
X002141Y014831D01*
X002141Y014646D02*
X001894Y014646D01*
X001894Y014461D02*
X001894Y014831D01*
X002263Y014646D02*
X002509Y014646D01*
X002509Y015369D02*
X002385Y015369D01*
X002447Y015369D02*
X002447Y015739D01*
X002385Y015739D02*
X002509Y015739D01*
X002631Y015739D02*
X002878Y015369D01*
X002878Y015739D01*
X002999Y015739D02*
X003246Y015739D01*
X003123Y015739D02*
X003123Y015369D01*
X002631Y015369D02*
X002631Y015739D01*
D14*
X002228Y015850D02*
X001978Y016100D01*
X001978Y017600D01*
X002228Y017850D01*
X003228Y017850D01*
X003478Y017600D01*
X003478Y015850D01*
X002228Y015850D01*
X001728Y015350D01*
X001728Y014350D01*
X003478Y014350D01*
X003478Y015850D01*
D15*
X004711Y016520D02*
X004711Y012641D01*
X004711Y012640D02*
X004716Y012620D01*
X004724Y012601D01*
X004735Y012583D01*
X004748Y012567D01*
X004764Y012554D01*
X004781Y012543D01*
X004800Y012535D01*
X004820Y012530D01*
X004841Y012528D01*
X004862Y012529D01*
X004861Y012530D02*
X006094Y012530D01*
X006117Y012532D01*
X006140Y012537D01*
X006162Y012546D01*
X006182Y012559D01*
X006200Y012574D01*
X006215Y012592D01*
X006228Y012612D01*
X006237Y012634D01*
X006242Y012657D01*
X006244Y012680D01*
X006244Y016520D01*
X006239Y016544D01*
X006231Y016567D01*
X006220Y016588D01*
X006206Y016608D01*
X006189Y016626D01*
X006170Y016641D01*
X006149Y016654D01*
X006127Y016663D01*
X006103Y016669D01*
X006079Y016671D01*
X006054Y016670D01*
X006049Y016670D02*
X005718Y016670D01*
X005718Y016650D02*
X005716Y016620D01*
X005711Y016590D01*
X005702Y016561D01*
X005689Y016534D01*
X005674Y016508D01*
X005655Y016484D01*
X005634Y016463D01*
X005610Y016444D01*
X005584Y016429D01*
X005557Y016416D01*
X005528Y016407D01*
X005498Y016402D01*
X005468Y016400D01*
X005438Y016402D01*
X005408Y016407D01*
X005379Y016416D01*
X005352Y016429D01*
X005326Y016444D01*
X005302Y016463D01*
X005281Y016484D01*
X005262Y016508D01*
X005247Y016534D01*
X005234Y016561D01*
X005225Y016590D01*
X005220Y016620D01*
X005218Y016650D01*
X005218Y016670D02*
X004822Y016670D01*
X004822Y016671D02*
X004802Y016666D01*
X004783Y016658D01*
X004765Y016647D01*
X004749Y016634D01*
X004736Y016618D01*
X004725Y016601D01*
X004717Y016582D01*
X004712Y016562D01*
X004710Y016541D01*
X004711Y016520D01*
X004478Y018350D02*
X003978Y018350D01*
X003728Y018600D01*
X003478Y018350D01*
X002978Y018350D01*
X002728Y018600D01*
X002728Y019100D01*
X002978Y019350D01*
X003478Y019350D01*
X003728Y019100D01*
X003978Y019350D01*
X004478Y019350D01*
X004728Y019100D01*
X004978Y019350D01*
X005478Y019350D01*
X005728Y019100D01*
X005978Y019350D01*
X006478Y019350D01*
X006728Y019100D01*
X006978Y019350D01*
X007478Y019350D01*
X007728Y019100D01*
X007978Y019350D01*
X008478Y019350D01*
X008728Y019100D01*
X008978Y019350D01*
X009478Y019350D01*
X009728Y019100D01*
X009978Y019350D01*
X010478Y019350D01*
X010728Y019100D01*
X010978Y019350D01*
X011478Y019350D01*
X011728Y019100D01*
X011978Y019350D01*
X012478Y019350D01*
X012728Y019100D01*
X012978Y019350D01*
X013478Y019350D01*
X013728Y019100D01*
X013978Y019350D01*
X014478Y019350D01*
X014728Y019100D01*
X014978Y019350D01*
X015478Y019350D01*
X015728Y019100D01*
X015978Y019350D01*
X016478Y019350D01*
X016728Y019100D01*
X016978Y019350D01*
X017478Y019350D01*
X017728Y019100D01*
X017978Y019350D01*
X018478Y019350D01*
X018728Y019100D01*
X018728Y018600D01*
X018478Y018350D01*
X017978Y018350D01*
X017728Y018600D01*
X017478Y018350D01*
X016978Y018350D01*
X016728Y018600D01*
X016478Y018350D01*
X015978Y018350D01*
X015728Y018600D01*
X015478Y018350D01*
X014978Y018350D01*
X014728Y018600D01*
X014478Y018350D01*
X013978Y018350D01*
X013728Y018600D01*
X013478Y018350D01*
X012978Y018350D01*
X012728Y018600D01*
X012478Y018350D01*
X011978Y018350D01*
X011728Y018600D01*
X011478Y018350D01*
X010978Y018350D01*
X010728Y018600D01*
X010478Y018350D01*
X009978Y018350D01*
X009728Y018600D01*
X009478Y018350D01*
X008978Y018350D01*
X008728Y018600D01*
X008478Y018350D01*
X007978Y018350D01*
X007728Y018600D01*
X007478Y018350D01*
X006978Y018350D01*
X006728Y018600D01*
X006478Y018350D01*
X005978Y018350D01*
X005728Y018600D01*
X005478Y018350D01*
X004978Y018350D01*
X004728Y018600D01*
X004478Y018350D01*
X002728Y018600D02*
X002728Y019100D01*
X001624Y017850D02*
X001124Y017850D01*
X000874Y017600D01*
X000874Y017100D01*
X001124Y016850D01*
X000874Y016600D01*
X000874Y016100D01*
X001124Y015850D01*
X001624Y015850D01*
X001874Y016100D01*
X001874Y016600D01*
X001624Y016850D01*
X001874Y017100D01*
X001874Y017600D01*
X001624Y017850D01*
X007478Y016850D02*
X007478Y016350D01*
X007728Y016100D01*
X008228Y016100D01*
X008478Y016350D01*
X008728Y016100D01*
X009228Y016100D01*
X009478Y016350D01*
X009728Y016100D01*
X010228Y016100D01*
X010478Y016350D01*
X010728Y016100D01*
X011228Y016100D01*
X011478Y016350D01*
X011728Y016100D01*
X012228Y016100D01*
X012478Y016350D01*
X012728Y016100D01*
X013228Y016100D01*
X013478Y016350D01*
X013728Y016100D01*
X014228Y016100D01*
X014478Y016350D01*
X014728Y016100D01*
X015228Y016100D01*
X015478Y016350D01*
X015728Y016100D01*
X016228Y016100D01*
X016478Y016350D01*
X016728Y016100D01*
X017228Y016100D01*
X017478Y016350D01*
X017478Y016850D01*
X017228Y017100D01*
X016728Y017100D01*
X016478Y016850D01*
X016228Y017100D01*
X015728Y017100D01*
X015478Y016850D01*
X015228Y017100D01*
X014728Y017100D01*
X014478Y016850D01*
X014228Y017100D01*
X013728Y017100D01*
X013478Y016850D01*
X013228Y017100D01*
X012728Y017100D01*
X012478Y016850D01*
X012228Y017100D01*
X011728Y017100D01*
X011478Y016850D01*
X011228Y017100D01*
X010728Y017100D01*
X010478Y016850D01*
X010228Y017100D01*
X009728Y017100D01*
X009478Y016850D01*
X009228Y017100D01*
X008728Y017100D01*
X008478Y016850D01*
X008228Y017100D01*
X007728Y017100D01*
X007478Y016850D01*
X006978Y012100D02*
X006478Y012100D01*
X006228Y011850D01*
X005978Y012100D01*
X005478Y012100D01*
X005228Y011850D01*
X004978Y012100D01*
X004478Y012100D01*
X004228Y011850D01*
X003978Y012100D01*
X003478Y012100D01*
X003228Y011850D01*
X003228Y011350D01*
X003478Y011100D01*
X003978Y011100D01*
X004228Y011350D01*
X004478Y011100D01*
X004978Y011100D01*
X005228Y011350D01*
X005478Y011100D01*
X005978Y011100D01*
X006228Y011350D01*
X006478Y011100D01*
X006978Y011100D01*
X007228Y011350D01*
X007228Y011850D01*
X006978Y012100D01*
X002350Y008439D02*
X002350Y007966D01*
X001798Y007966D01*
X001798Y006234D01*
X002350Y006234D01*
X002350Y005761D01*
X001720Y005761D01*
X000657Y005761D02*
X000657Y008439D01*
X001720Y008439D02*
X002350Y008439D01*
X001844Y003734D02*
X001490Y003734D01*
X001137Y003380D01*
X001137Y003027D01*
X001490Y002673D01*
X001844Y002673D01*
X001844Y002320D01*
X002197Y001966D01*
X002551Y001966D01*
X002904Y002320D01*
X002904Y002673D01*
X002551Y003027D01*
X002197Y003027D01*
X002197Y003380D01*
X001844Y003734D01*
X002978Y001600D02*
X002728Y001350D01*
X002728Y000850D01*
X002978Y000600D01*
X003478Y000600D01*
X003728Y000850D01*
X003978Y000600D01*
X004478Y000600D01*
X004728Y000850D01*
X004978Y000600D01*
X005478Y000600D01*
X005728Y000850D01*
X005978Y000600D01*
X006478Y000600D01*
X006728Y000850D01*
X006978Y000600D01*
X007478Y000600D01*
X007728Y000850D01*
X007978Y000600D01*
X008478Y000600D01*
X008728Y000850D01*
X008978Y000600D01*
X009478Y000600D01*
X009728Y000850D01*
X009978Y000600D01*
X010478Y000600D01*
X010728Y000850D01*
X010978Y000600D01*
X011478Y000600D01*
X011728Y000850D01*
X011978Y000600D01*
X012478Y000600D01*
X012728Y000850D01*
X012978Y000600D01*
X013478Y000600D01*
X013728Y000850D01*
X013978Y000600D01*
X014478Y000600D01*
X014728Y000850D01*
X014978Y000600D01*
X015478Y000600D01*
X015728Y000850D01*
X015978Y000600D01*
X016478Y000600D01*
X016728Y000850D01*
X016978Y000600D01*
X017478Y000600D01*
X017728Y000850D01*
X017978Y000600D01*
X018478Y000600D01*
X018728Y000850D01*
X018728Y001350D01*
X018478Y001600D01*
X017978Y001600D01*
X017728Y001350D01*
X017478Y001600D01*
X016978Y001600D01*
X016728Y001350D01*
X016478Y001600D01*
X015978Y001600D01*
X015728Y001350D01*
X015478Y001600D01*
X014978Y001600D01*
X014728Y001350D01*
X014478Y001600D01*
X013978Y001600D01*
X013728Y001350D01*
X013478Y001600D01*
X012978Y001600D01*
X012728Y001350D01*
X012478Y001600D01*
X011978Y001600D01*
X011728Y001350D01*
X011478Y001600D01*
X010978Y001600D01*
X010728Y001350D01*
X010478Y001600D01*
X009978Y001600D01*
X009728Y001350D01*
X009478Y001600D01*
X008978Y001600D01*
X008728Y001350D01*
X008478Y001600D01*
X007978Y001600D01*
X007728Y001350D01*
X007478Y001600D01*
X006978Y001600D01*
X006728Y001350D01*
X006478Y001600D01*
X005978Y001600D01*
X005728Y001350D01*
X005478Y001600D01*
X004978Y001600D01*
X004728Y001350D01*
X004478Y001600D01*
X003978Y001600D01*
X003728Y001350D01*
X003478Y001600D01*
X002978Y001600D01*
X002728Y001350D02*
X002728Y000850D01*
X018374Y002350D02*
X018374Y002704D01*
X018728Y003057D01*
X019081Y003057D01*
X019081Y003411D01*
X019435Y003764D01*
X019788Y003764D01*
X020142Y003411D01*
X020142Y003057D01*
X019788Y002704D01*
X019435Y002704D01*
X019435Y002350D01*
X019081Y001996D01*
X018728Y001996D01*
X018374Y002350D01*
X018728Y001350D02*
X018728Y000850D01*
X019508Y015820D02*
X019258Y016070D01*
X019258Y016570D01*
X019508Y016820D01*
X019258Y017070D01*
X019258Y017570D01*
X019508Y017820D01*
X020008Y017820D01*
X020258Y017570D01*
X020258Y017070D01*
X020008Y016820D01*
X020258Y016570D01*
X020258Y016070D01*
X020008Y015820D01*
X019508Y015820D01*
X018728Y018600D02*
X018728Y019100D01*
D16*
X018228Y015100D02*
X017728Y015100D01*
X017478Y014850D01*
X017478Y013350D01*
X017228Y013100D01*
X016728Y013100D01*
X016478Y013350D01*
X016478Y014850D01*
X016728Y015100D01*
X017228Y015100D01*
X017478Y014850D01*
X018228Y015100D02*
X018478Y014850D01*
X018478Y013350D01*
X018228Y013100D01*
X017728Y013100D01*
X017478Y013350D01*
X016478Y013350D02*
X016228Y013100D01*
X015728Y013100D01*
X015478Y013350D01*
X015478Y014850D01*
X015728Y015100D01*
X016228Y015100D01*
X016478Y014850D01*
X015478Y014850D02*
X015228Y015100D01*
X014728Y015100D01*
X014478Y014850D01*
X014478Y013350D01*
X014728Y013100D01*
X015228Y013100D01*
X015478Y013350D01*
X014478Y013350D02*
X014228Y013100D01*
X013728Y013100D01*
X013478Y013350D01*
X013478Y014850D01*
X013728Y015100D01*
X014228Y015100D01*
X014478Y014850D01*
X013478Y014850D02*
X013228Y015100D01*
X012728Y015100D01*
X012478Y014850D01*
X012478Y013350D01*
X012728Y013100D01*
X013228Y013100D01*
X013478Y013350D01*
X012478Y013350D02*
X012228Y013100D01*
X011728Y013100D01*
X011478Y013350D01*
X011478Y014850D01*
X011728Y015100D01*
X012228Y015100D01*
X012478Y014850D01*
X011478Y014850D02*
X011228Y015100D01*
X010728Y015100D01*
X010478Y014850D01*
X010478Y013350D01*
X010728Y013100D01*
X011228Y013100D01*
X011478Y013350D01*
X011728Y012100D02*
X012228Y012100D01*
X012478Y011850D01*
X012478Y010350D01*
X012728Y010100D01*
X013228Y010100D01*
X013478Y010350D01*
X013478Y011850D01*
X013728Y012100D01*
X014228Y012100D01*
X014478Y011850D01*
X014478Y010350D01*
X014728Y010100D01*
X015228Y010100D01*
X015478Y010350D01*
X015478Y011850D01*
X015728Y012100D01*
X016228Y012100D01*
X016478Y011850D01*
X016478Y010350D01*
X016728Y010100D01*
X017228Y010100D01*
X017478Y010350D01*
X017478Y011850D01*
X017728Y012100D01*
X018228Y012100D01*
X018478Y011850D01*
X018478Y010350D01*
X018228Y010100D01*
X017728Y010100D01*
X017478Y010350D01*
X016478Y010350D02*
X016228Y010100D01*
X015728Y010100D01*
X015478Y010350D01*
X014478Y010350D02*
X014228Y010100D01*
X013728Y010100D01*
X013478Y010350D01*
X012478Y010350D02*
X012228Y010100D01*
X011728Y010100D01*
X011478Y010350D01*
X011478Y011850D01*
X011728Y012100D01*
X011478Y011850D02*
X011228Y012100D01*
X010728Y012100D01*
X010478Y011850D01*
X010478Y010350D01*
X010728Y010100D01*
X011228Y010100D01*
X011478Y010350D01*
X011728Y009100D02*
X012228Y009100D01*
X012478Y008850D01*
X012478Y007350D01*
X012728Y007100D01*
X013228Y007100D01*
X013478Y007350D01*
X013478Y008850D01*
X013728Y009100D01*
X014228Y009100D01*
X014478Y008850D01*
X014478Y007350D01*
X014728Y007100D01*
X015228Y007100D01*
X015478Y007350D01*
X015478Y008850D01*
X015728Y009100D01*
X016228Y009100D01*
X016478Y008850D01*
X016478Y007350D01*
X016728Y007100D01*
X017228Y007100D01*
X017478Y007350D01*
X017478Y008850D01*
X017728Y009100D01*
X018228Y009100D01*
X018478Y008850D01*
X018478Y007350D01*
X018228Y007100D01*
X017728Y007100D01*
X017478Y007350D01*
X016478Y007350D02*
X016228Y007100D01*
X015728Y007100D01*
X015478Y007350D01*
X014478Y007350D02*
X014228Y007100D01*
X013728Y007100D01*
X013478Y007350D01*
X012478Y007350D02*
X012228Y007100D01*
X011728Y007100D01*
X011478Y007350D01*
X011478Y008850D01*
X011728Y009100D01*
X011478Y008850D02*
X011228Y009100D01*
X010728Y009100D01*
X010478Y008850D01*
X010478Y007350D01*
X010728Y007100D01*
X011228Y007100D01*
X011478Y007350D01*
X011728Y006100D02*
X012228Y006100D01*
X012478Y005850D01*
X012478Y004350D01*
X012728Y004100D01*
X013228Y004100D01*
X013478Y004350D01*
X013478Y005850D01*
X013728Y006100D01*
X014228Y006100D01*
X014478Y005850D01*
X014478Y004350D01*
X014728Y004100D01*
X015228Y004100D01*
X015478Y004350D01*
X015478Y005850D01*
X015728Y006100D01*
X016228Y006100D01*
X016478Y005850D01*
X016478Y004350D01*
X016728Y004100D01*
X017228Y004100D01*
X017478Y004350D01*
X017478Y005850D01*
X017728Y006100D01*
X018228Y006100D01*
X018478Y005850D01*
X018478Y004350D01*
X018228Y004100D01*
X017728Y004100D01*
X017478Y004350D01*
X016478Y004350D02*
X016228Y004100D01*
X015728Y004100D01*
X015478Y004350D01*
X014478Y004350D02*
X014228Y004100D01*
X013728Y004100D01*
X013478Y004350D01*
X012478Y004350D02*
X012228Y004100D01*
X011728Y004100D01*
X011478Y004350D01*
X011478Y005850D01*
X011728Y006100D01*
X011478Y005850D02*
X011228Y006100D01*
X010728Y006100D01*
X010478Y005850D01*
X010478Y004350D01*
X010728Y004100D01*
X011228Y004100D01*
X011478Y004350D01*
X012478Y005850D02*
X012728Y006100D01*
X013228Y006100D01*
X013478Y005850D01*
X014478Y005850D02*
X014728Y006100D01*
X015228Y006100D01*
X015478Y005850D01*
X016478Y005850D02*
X016728Y006100D01*
X017228Y006100D01*
X017478Y005850D01*
X017478Y008850D02*
X017228Y009100D01*
X016728Y009100D01*
X016478Y008850D01*
X015478Y008850D02*
X015228Y009100D01*
X014728Y009100D01*
X014478Y008850D01*
X013478Y008850D02*
X013228Y009100D01*
X012728Y009100D01*
X012478Y008850D01*
X012478Y011850D02*
X012728Y012100D01*
X013228Y012100D01*
X013478Y011850D01*
X014478Y011850D02*
X014728Y012100D01*
X015228Y012100D01*
X015478Y011850D01*
X016478Y011850D02*
X016728Y012100D01*
X017228Y012100D01*
X017478Y011850D01*
D17*
X018991Y011159D03*
X019464Y011159D03*
X019464Y008159D03*
X018991Y008159D03*
X018991Y005159D03*
X019464Y005159D03*
X019464Y014159D03*
X018991Y014159D03*
X006964Y010409D03*
X006491Y010409D03*
X005964Y010409D03*
X005491Y010409D03*
X004964Y010409D03*
X004491Y010409D03*
X003964Y010409D03*
X003491Y010409D03*
D18*
X003728Y010409D03*
X004728Y010409D03*
X005728Y010409D03*
X006728Y010409D03*
X019228Y011159D03*
X019228Y008159D03*
X019228Y005159D03*
X019228Y014159D03*
M02*
