G75*
%MOIN*%
%OFA0B0*%
%FSLAX24Y24*%
%IPPOS*%
%LPD*%
%AMOC8*
5,1,8,0,0,1.08239X$1,22.5*
%
%ADD10C,0.0000*%
%ADD11C,0.0740*%
%ADD12R,0.0472X0.0236*%
%ADD13OC8,0.0740*%
%ADD14R,0.0740X0.0740*%
%ADD15R,0.0472X0.0472*%
%ADD16R,0.0512X0.0630*%
%ADD17R,0.0630X0.0512*%
%ADD18R,0.0500X0.1000*%
%ADD19R,0.1000X0.0500*%
%ADD20R,0.0551X0.0138*%
%ADD21R,0.0748X0.0709*%
%ADD22R,0.0748X0.0748*%
%ADD23R,0.0512X0.0591*%
%ADD24R,0.0591X0.0512*%
%ADD25C,0.0100*%
%ADD26OC8,0.0356*%
%ADD27C,0.0120*%
D10*
X000728Y000100D02*
X000728Y019785D01*
X020413Y019785D01*
X020413Y000100D01*
X000728Y000100D01*
X001137Y001100D02*
X001139Y001148D01*
X001145Y001196D01*
X001155Y001243D01*
X001168Y001289D01*
X001186Y001334D01*
X001206Y001378D01*
X001231Y001420D01*
X001259Y001459D01*
X001289Y001496D01*
X001323Y001530D01*
X001360Y001562D01*
X001398Y001591D01*
X001439Y001616D01*
X001482Y001638D01*
X001527Y001656D01*
X001573Y001670D01*
X001620Y001681D01*
X001668Y001688D01*
X001716Y001691D01*
X001764Y001690D01*
X001812Y001685D01*
X001860Y001676D01*
X001906Y001664D01*
X001951Y001647D01*
X001995Y001627D01*
X002037Y001604D01*
X002077Y001577D01*
X002115Y001547D01*
X002150Y001514D01*
X002182Y001478D01*
X002212Y001440D01*
X002238Y001399D01*
X002260Y001356D01*
X002280Y001312D01*
X002295Y001267D01*
X002307Y001220D01*
X002315Y001172D01*
X002319Y001124D01*
X002319Y001076D01*
X002315Y001028D01*
X002307Y000980D01*
X002295Y000933D01*
X002280Y000888D01*
X002260Y000844D01*
X002238Y000801D01*
X002212Y000760D01*
X002182Y000722D01*
X002150Y000686D01*
X002115Y000653D01*
X002077Y000623D01*
X002037Y000596D01*
X001995Y000573D01*
X001951Y000553D01*
X001906Y000536D01*
X001860Y000524D01*
X001812Y000515D01*
X001764Y000510D01*
X001716Y000509D01*
X001668Y000512D01*
X001620Y000519D01*
X001573Y000530D01*
X001527Y000544D01*
X001482Y000562D01*
X001439Y000584D01*
X001398Y000609D01*
X001360Y000638D01*
X001323Y000670D01*
X001289Y000704D01*
X001259Y000741D01*
X001231Y000780D01*
X001206Y000822D01*
X001186Y000866D01*
X001168Y000911D01*
X001155Y000957D01*
X001145Y001004D01*
X001139Y001052D01*
X001137Y001100D01*
X001137Y018850D02*
X001139Y018898D01*
X001145Y018946D01*
X001155Y018993D01*
X001168Y019039D01*
X001186Y019084D01*
X001206Y019128D01*
X001231Y019170D01*
X001259Y019209D01*
X001289Y019246D01*
X001323Y019280D01*
X001360Y019312D01*
X001398Y019341D01*
X001439Y019366D01*
X001482Y019388D01*
X001527Y019406D01*
X001573Y019420D01*
X001620Y019431D01*
X001668Y019438D01*
X001716Y019441D01*
X001764Y019440D01*
X001812Y019435D01*
X001860Y019426D01*
X001906Y019414D01*
X001951Y019397D01*
X001995Y019377D01*
X002037Y019354D01*
X002077Y019327D01*
X002115Y019297D01*
X002150Y019264D01*
X002182Y019228D01*
X002212Y019190D01*
X002238Y019149D01*
X002260Y019106D01*
X002280Y019062D01*
X002295Y019017D01*
X002307Y018970D01*
X002315Y018922D01*
X002319Y018874D01*
X002319Y018826D01*
X002315Y018778D01*
X002307Y018730D01*
X002295Y018683D01*
X002280Y018638D01*
X002260Y018594D01*
X002238Y018551D01*
X002212Y018510D01*
X002182Y018472D01*
X002150Y018436D01*
X002115Y018403D01*
X002077Y018373D01*
X002037Y018346D01*
X001995Y018323D01*
X001951Y018303D01*
X001906Y018286D01*
X001860Y018274D01*
X001812Y018265D01*
X001764Y018260D01*
X001716Y018259D01*
X001668Y018262D01*
X001620Y018269D01*
X001573Y018280D01*
X001527Y018294D01*
X001482Y018312D01*
X001439Y018334D01*
X001398Y018359D01*
X001360Y018388D01*
X001323Y018420D01*
X001289Y018454D01*
X001259Y018491D01*
X001231Y018530D01*
X001206Y018572D01*
X001186Y018616D01*
X001168Y018661D01*
X001155Y018707D01*
X001145Y018754D01*
X001139Y018802D01*
X001137Y018850D01*
X018887Y018850D02*
X018889Y018898D01*
X018895Y018946D01*
X018905Y018993D01*
X018918Y019039D01*
X018936Y019084D01*
X018956Y019128D01*
X018981Y019170D01*
X019009Y019209D01*
X019039Y019246D01*
X019073Y019280D01*
X019110Y019312D01*
X019148Y019341D01*
X019189Y019366D01*
X019232Y019388D01*
X019277Y019406D01*
X019323Y019420D01*
X019370Y019431D01*
X019418Y019438D01*
X019466Y019441D01*
X019514Y019440D01*
X019562Y019435D01*
X019610Y019426D01*
X019656Y019414D01*
X019701Y019397D01*
X019745Y019377D01*
X019787Y019354D01*
X019827Y019327D01*
X019865Y019297D01*
X019900Y019264D01*
X019932Y019228D01*
X019962Y019190D01*
X019988Y019149D01*
X020010Y019106D01*
X020030Y019062D01*
X020045Y019017D01*
X020057Y018970D01*
X020065Y018922D01*
X020069Y018874D01*
X020069Y018826D01*
X020065Y018778D01*
X020057Y018730D01*
X020045Y018683D01*
X020030Y018638D01*
X020010Y018594D01*
X019988Y018551D01*
X019962Y018510D01*
X019932Y018472D01*
X019900Y018436D01*
X019865Y018403D01*
X019827Y018373D01*
X019787Y018346D01*
X019745Y018323D01*
X019701Y018303D01*
X019656Y018286D01*
X019610Y018274D01*
X019562Y018265D01*
X019514Y018260D01*
X019466Y018259D01*
X019418Y018262D01*
X019370Y018269D01*
X019323Y018280D01*
X019277Y018294D01*
X019232Y018312D01*
X019189Y018334D01*
X019148Y018359D01*
X019110Y018388D01*
X019073Y018420D01*
X019039Y018454D01*
X019009Y018491D01*
X018981Y018530D01*
X018956Y018572D01*
X018936Y018616D01*
X018918Y018661D01*
X018905Y018707D01*
X018895Y018754D01*
X018889Y018802D01*
X018887Y018850D01*
X018887Y001100D02*
X018889Y001148D01*
X018895Y001196D01*
X018905Y001243D01*
X018918Y001289D01*
X018936Y001334D01*
X018956Y001378D01*
X018981Y001420D01*
X019009Y001459D01*
X019039Y001496D01*
X019073Y001530D01*
X019110Y001562D01*
X019148Y001591D01*
X019189Y001616D01*
X019232Y001638D01*
X019277Y001656D01*
X019323Y001670D01*
X019370Y001681D01*
X019418Y001688D01*
X019466Y001691D01*
X019514Y001690D01*
X019562Y001685D01*
X019610Y001676D01*
X019656Y001664D01*
X019701Y001647D01*
X019745Y001627D01*
X019787Y001604D01*
X019827Y001577D01*
X019865Y001547D01*
X019900Y001514D01*
X019932Y001478D01*
X019962Y001440D01*
X019988Y001399D01*
X020010Y001356D01*
X020030Y001312D01*
X020045Y001267D01*
X020057Y001220D01*
X020065Y001172D01*
X020069Y001124D01*
X020069Y001076D01*
X020065Y001028D01*
X020057Y000980D01*
X020045Y000933D01*
X020030Y000888D01*
X020010Y000844D01*
X019988Y000801D01*
X019962Y000760D01*
X019932Y000722D01*
X019900Y000686D01*
X019865Y000653D01*
X019827Y000623D01*
X019787Y000596D01*
X019745Y000573D01*
X019701Y000553D01*
X019656Y000536D01*
X019610Y000524D01*
X019562Y000515D01*
X019514Y000510D01*
X019466Y000509D01*
X019418Y000512D01*
X019370Y000519D01*
X019323Y000530D01*
X019277Y000544D01*
X019232Y000562D01*
X019189Y000584D01*
X019148Y000609D01*
X019110Y000638D01*
X019073Y000670D01*
X019039Y000704D01*
X019009Y000741D01*
X018981Y000780D01*
X018956Y000822D01*
X018936Y000866D01*
X018918Y000911D01*
X018905Y000957D01*
X018895Y001004D01*
X018889Y001052D01*
X018887Y001100D01*
D11*
X018228Y001100D03*
X017228Y001100D03*
X016228Y001100D03*
X015228Y001100D03*
X014228Y001100D03*
X013228Y001100D03*
X012228Y001100D03*
X011228Y001100D03*
X010228Y001100D03*
X009228Y001100D03*
X008228Y001100D03*
X007228Y001100D03*
X006228Y001100D03*
X005228Y001100D03*
X004228Y001100D03*
X003228Y001100D03*
X002374Y002496D03*
X001667Y003204D03*
X004728Y011600D03*
X005728Y011600D03*
X006728Y011600D03*
X007978Y016600D03*
X008978Y016600D03*
X009978Y016600D03*
X010978Y016600D03*
X011978Y016600D03*
X012978Y016600D03*
X013978Y016600D03*
X014978Y016600D03*
X015978Y016600D03*
X016978Y016600D03*
X017228Y018850D03*
X016228Y018850D03*
X015228Y018850D03*
X014228Y018850D03*
X013228Y018850D03*
X012228Y018850D03*
X011228Y018850D03*
X010228Y018850D03*
X009228Y018850D03*
X008228Y018850D03*
X007228Y018850D03*
X006228Y018850D03*
X005228Y018850D03*
X004228Y018850D03*
X003228Y018850D03*
X001374Y017350D03*
X001374Y016350D03*
X018228Y018850D03*
X019758Y017320D03*
X019758Y016320D03*
X019611Y003234D03*
X018904Y002527D03*
D12*
X006580Y012850D03*
X006580Y013350D03*
X006580Y013850D03*
X006580Y014350D03*
X006580Y014850D03*
X006580Y015350D03*
X006580Y015850D03*
X006580Y016350D03*
X004375Y016350D03*
X004375Y015850D03*
X004375Y015350D03*
X004375Y014850D03*
X004375Y014350D03*
X004375Y013850D03*
X004375Y013350D03*
X004375Y012850D03*
D13*
X010978Y013600D03*
X011978Y013600D03*
X012978Y013600D03*
X013978Y013600D03*
X014978Y013600D03*
X015978Y013600D03*
X016978Y013600D03*
X017978Y013600D03*
X017978Y014600D03*
X016978Y014600D03*
X015978Y014600D03*
X014978Y014600D03*
X013978Y014600D03*
X012978Y014600D03*
X011978Y014600D03*
X010978Y014600D03*
X010978Y011600D03*
X011978Y011600D03*
X012978Y011600D03*
X013978Y011600D03*
X014978Y011600D03*
X015978Y011600D03*
X016978Y011600D03*
X017978Y011600D03*
X017978Y010600D03*
X016978Y010600D03*
X015978Y010600D03*
X014978Y010600D03*
X013978Y010600D03*
X012978Y010600D03*
X011978Y010600D03*
X010978Y010600D03*
X010978Y008600D03*
X011978Y008600D03*
X012978Y008600D03*
X013978Y008600D03*
X014978Y008600D03*
X015978Y008600D03*
X016978Y008600D03*
X017978Y008600D03*
X017978Y007600D03*
X016978Y007600D03*
X015978Y007600D03*
X014978Y007600D03*
X013978Y007600D03*
X012978Y007600D03*
X011978Y007600D03*
X010978Y007600D03*
X010978Y005600D03*
X011978Y005600D03*
X012978Y005600D03*
X013978Y005600D03*
X014978Y005600D03*
X015978Y005600D03*
X016978Y005600D03*
X017978Y005600D03*
X017978Y004600D03*
X016978Y004600D03*
X015978Y004600D03*
X014978Y004600D03*
X013978Y004600D03*
X012978Y004600D03*
X011978Y004600D03*
X010978Y004600D03*
D14*
X003728Y011600D03*
D15*
X003728Y010763D03*
X003728Y009937D03*
X004728Y009937D03*
X005728Y009937D03*
X005728Y010763D03*
X004728Y010763D03*
X006728Y010763D03*
X006728Y009937D03*
X019228Y010687D03*
X019228Y011513D03*
X019228Y013687D03*
X019228Y014513D03*
X019228Y008513D03*
X019228Y007687D03*
X019228Y005513D03*
X019228Y004687D03*
D16*
X019030Y006777D03*
X019778Y006777D03*
D17*
X007728Y008976D03*
X007728Y009724D03*
D18*
X002728Y004100D03*
X001728Y004100D03*
D19*
X002728Y016350D03*
X002728Y017350D03*
X017728Y003350D03*
X017728Y002600D03*
X018228Y016350D03*
X018228Y017350D03*
D20*
X002271Y007612D03*
X002271Y006588D03*
D21*
X001228Y005525D03*
X001228Y008675D03*
D22*
X001228Y007600D03*
X001228Y006600D03*
D23*
X011354Y002100D03*
X012102Y002100D03*
D24*
X006978Y016976D03*
X006978Y017724D03*
D25*
X007373Y017732D02*
X019524Y017732D01*
X019492Y017718D02*
X019359Y017586D01*
X019324Y017500D01*
X018828Y017500D01*
X018828Y017641D01*
X018769Y017700D01*
X017686Y017700D01*
X017628Y017641D01*
X017628Y017059D01*
X017686Y017000D01*
X018769Y017000D01*
X018828Y017059D01*
X018828Y017200D01*
X019299Y017200D01*
X019359Y017053D01*
X019492Y016921D01*
X019664Y016850D01*
X019851Y016850D01*
X019978Y016902D01*
X019978Y016737D01*
X019851Y016790D01*
X019664Y016790D01*
X019492Y016718D01*
X019359Y016586D01*
X019324Y016500D01*
X018828Y016500D01*
X018828Y016641D01*
X018769Y016700D01*
X017686Y016700D01*
X017628Y016641D01*
X017628Y016059D01*
X017686Y016000D01*
X018769Y016000D01*
X018828Y016059D01*
X018828Y016200D01*
X019299Y016200D01*
X019359Y016053D01*
X019492Y015921D01*
X019664Y015850D01*
X019851Y015850D01*
X019978Y015902D01*
X019978Y007192D01*
X019878Y007192D01*
X019878Y012912D01*
X019790Y013000D01*
X019439Y013350D01*
X019505Y013350D01*
X019564Y013409D01*
X019564Y013964D01*
X019505Y014023D01*
X018950Y014023D01*
X018891Y013964D01*
X018891Y013409D01*
X018950Y013350D01*
X019078Y013350D01*
X019078Y013288D01*
X019578Y012788D01*
X019578Y010212D01*
X019439Y010350D01*
X019505Y010350D01*
X019564Y010409D01*
X019564Y010964D01*
X019505Y011023D01*
X018950Y011023D01*
X018891Y010964D01*
X018891Y010409D01*
X018950Y010350D01*
X019078Y010350D01*
X019078Y010288D01*
X019578Y009788D01*
X019578Y007500D01*
X019564Y007500D01*
X019564Y007964D01*
X019505Y008023D01*
X018950Y008023D01*
X018891Y007964D01*
X018891Y007409D01*
X018950Y007350D01*
X019078Y007350D01*
X019078Y007288D01*
X019165Y007200D01*
X019578Y007200D01*
X019578Y007192D01*
X017628Y007192D01*
X017628Y007094D02*
X019422Y007094D01*
X019422Y007133D02*
X019422Y006420D01*
X019481Y006362D01*
X019578Y006362D01*
X019578Y005059D01*
X019523Y005005D01*
X019505Y005023D01*
X018950Y005023D01*
X018891Y004964D01*
X018891Y004409D01*
X018950Y004350D01*
X019161Y004350D01*
X019165Y004346D01*
X019290Y004346D01*
X019294Y004350D01*
X019505Y004350D01*
X019564Y004409D01*
X019564Y004621D01*
X019878Y004934D01*
X019878Y006362D01*
X019978Y006362D01*
X019978Y003532D01*
X019878Y003632D01*
X019705Y003704D01*
X019518Y003704D01*
X019345Y003632D01*
X019213Y003500D01*
X018328Y003500D01*
X018328Y003641D01*
X018269Y003700D01*
X017186Y003700D01*
X017128Y003641D01*
X017128Y003059D01*
X017186Y003000D01*
X018269Y003000D01*
X018328Y003059D01*
X018328Y003200D01*
X019141Y003200D01*
X019141Y003140D01*
X019213Y002968D01*
X019345Y002835D01*
X019518Y002764D01*
X019705Y002764D01*
X019878Y002835D01*
X019978Y002935D01*
X019978Y002600D01*
X019139Y001761D01*
X019058Y001728D01*
X018850Y001519D01*
X018816Y001439D01*
X018728Y001350D01*
X018728Y000850D01*
X018478Y000600D01*
X002978Y000600D01*
X002728Y000850D01*
X002728Y001350D01*
X001228Y002850D01*
X001228Y003036D01*
X001268Y002937D01*
X001401Y002805D01*
X001573Y002734D01*
X001760Y002734D01*
X001933Y002805D01*
X002065Y002937D01*
X002137Y003110D01*
X002137Y003297D01*
X002065Y003470D01*
X002027Y003508D01*
X002078Y003559D01*
X002078Y004641D01*
X002019Y004700D01*
X001436Y004700D01*
X001378Y004641D01*
X001378Y003579D01*
X001268Y003470D01*
X001228Y003371D01*
X001228Y005071D01*
X001643Y005071D01*
X001702Y005129D01*
X001702Y005921D01*
X001643Y005980D01*
X001228Y005980D01*
X001228Y006126D01*
X001643Y006126D01*
X001702Y006185D01*
X001702Y007015D01*
X001643Y007074D01*
X001228Y007074D01*
X001228Y007126D01*
X001643Y007126D01*
X001702Y007185D01*
X001702Y008015D01*
X001643Y008074D01*
X001228Y008074D01*
X001228Y008220D01*
X001643Y008220D01*
X001702Y008279D01*
X001702Y009071D01*
X001643Y009129D01*
X001228Y009129D01*
X001228Y015902D01*
X001281Y015880D01*
X001467Y015880D01*
X001640Y015952D01*
X001772Y016084D01*
X001816Y016190D01*
X002128Y016190D01*
X002128Y016059D01*
X002186Y016000D01*
X003269Y016000D01*
X003328Y016059D01*
X003328Y016641D01*
X003269Y016700D01*
X002186Y016700D01*
X002128Y016641D01*
X002128Y016510D01*
X001816Y016510D01*
X001772Y016616D01*
X001640Y016748D01*
X001467Y016820D01*
X001281Y016820D01*
X001228Y016798D01*
X001228Y016902D01*
X001281Y016880D01*
X001467Y016880D01*
X001640Y016952D01*
X001772Y017084D01*
X001816Y017190D01*
X002128Y017190D01*
X002128Y017059D01*
X002186Y017000D01*
X003269Y017000D01*
X003328Y017059D01*
X003328Y017641D01*
X003269Y017700D01*
X002186Y017700D01*
X002128Y017641D01*
X002128Y017510D01*
X001816Y017510D01*
X001772Y017616D01*
X001758Y017631D01*
X002728Y018600D01*
X002728Y019100D01*
X002978Y019350D01*
X018478Y019350D01*
X018728Y019100D01*
X018728Y018600D01*
X018816Y018511D01*
X018850Y018431D01*
X019058Y018222D01*
X019139Y018189D01*
X019575Y017753D01*
X019492Y017718D01*
X019498Y017830D02*
X007373Y017830D01*
X007373Y017929D02*
X019399Y017929D01*
X019301Y018027D02*
X007367Y018027D01*
X007373Y018021D02*
X007314Y018080D01*
X006641Y018080D01*
X006582Y018021D01*
X006582Y017427D01*
X006641Y017368D01*
X007314Y017368D01*
X007373Y017427D01*
X007373Y018021D01*
X007321Y018380D02*
X007134Y018380D01*
X006961Y018452D01*
X006829Y018584D01*
X006758Y018757D01*
X006758Y018943D01*
X006829Y019116D01*
X006961Y019248D01*
X007134Y019320D01*
X007321Y019320D01*
X007494Y019248D01*
X007626Y019116D01*
X007698Y018943D01*
X007698Y018757D01*
X007626Y018584D01*
X007494Y018452D01*
X007321Y018380D01*
X007420Y018421D02*
X008035Y018421D01*
X007961Y018452D02*
X008134Y018380D01*
X008321Y018380D01*
X008494Y018452D01*
X008626Y018584D01*
X008698Y018757D01*
X008698Y018943D01*
X008626Y019116D01*
X008494Y019248D01*
X008321Y019320D01*
X008134Y019320D01*
X007961Y019248D01*
X007829Y019116D01*
X007758Y018943D01*
X007758Y018757D01*
X007829Y018584D01*
X007961Y018452D01*
X007893Y018520D02*
X007562Y018520D01*
X007640Y018618D02*
X007815Y018618D01*
X007774Y018717D02*
X007681Y018717D01*
X007698Y018815D02*
X007758Y018815D01*
X007758Y018914D02*
X007698Y018914D01*
X007669Y019012D02*
X007786Y019012D01*
X007827Y019111D02*
X007628Y019111D01*
X007533Y019209D02*
X007922Y019209D01*
X008104Y019308D02*
X007351Y019308D01*
X007104Y019308D02*
X006351Y019308D01*
X006321Y019320D02*
X006134Y019320D01*
X005961Y019248D01*
X005829Y019116D01*
X005758Y018943D01*
X005758Y018757D01*
X005829Y018584D01*
X005961Y018452D01*
X006078Y018403D01*
X006078Y017162D01*
X005665Y016750D01*
X005578Y016662D01*
X005578Y014912D01*
X005165Y014500D01*
X004711Y014500D01*
X004711Y014510D01*
X004653Y014568D01*
X004098Y014568D01*
X004039Y014510D01*
X004039Y014190D01*
X004098Y014132D01*
X004653Y014132D01*
X004711Y014190D01*
X004711Y014200D01*
X005290Y014200D01*
X005878Y014788D01*
X005878Y016538D01*
X006378Y017038D01*
X006378Y018403D01*
X006494Y018452D01*
X006626Y018584D01*
X006698Y018757D01*
X006698Y018943D01*
X006626Y019116D01*
X006494Y019248D01*
X006321Y019320D01*
X006104Y019308D02*
X005351Y019308D01*
X005321Y019320D02*
X005494Y019248D01*
X005626Y019116D01*
X005698Y018943D01*
X005698Y018757D01*
X005626Y018584D01*
X005494Y018452D01*
X005378Y018403D01*
X005378Y015538D01*
X005128Y015288D01*
X005040Y015200D01*
X004711Y015200D01*
X004711Y015190D01*
X004653Y015132D01*
X004098Y015132D01*
X004039Y015190D01*
X004039Y015510D01*
X004098Y015568D01*
X004653Y015568D01*
X004711Y015510D01*
X004711Y015500D01*
X004915Y015500D01*
X005078Y015662D01*
X005078Y015988D01*
X004878Y015788D01*
X004790Y015700D01*
X004711Y015700D01*
X004711Y015690D01*
X004653Y015632D01*
X004098Y015632D01*
X004039Y015690D01*
X004039Y016010D01*
X004098Y016068D01*
X004653Y016068D01*
X004693Y016028D01*
X004828Y016162D01*
X004828Y016788D01*
X004628Y016988D01*
X004628Y016568D01*
X004653Y016568D01*
X004711Y016510D01*
X004711Y016190D01*
X004653Y016132D01*
X004098Y016132D01*
X004039Y016190D01*
X004039Y016510D01*
X004098Y016568D01*
X004328Y016568D01*
X004328Y017038D01*
X003078Y018288D01*
X003078Y018403D01*
X002961Y018452D01*
X002829Y018584D01*
X002758Y018757D01*
X002758Y018943D01*
X002829Y019116D01*
X002961Y019248D01*
X003134Y019320D01*
X003321Y019320D01*
X003494Y019248D01*
X003626Y019116D01*
X003698Y018943D01*
X003698Y018757D01*
X003626Y018584D01*
X003494Y018452D01*
X003384Y018406D01*
X004078Y017712D01*
X004078Y018403D01*
X003961Y018452D01*
X003829Y018584D01*
X003758Y018757D01*
X003758Y018943D01*
X003829Y019116D01*
X003961Y019248D01*
X004134Y019320D01*
X004321Y019320D01*
X004494Y019248D01*
X004626Y019116D01*
X004698Y018943D01*
X004698Y018757D01*
X004626Y018584D01*
X004494Y018452D01*
X004378Y018403D01*
X004378Y017662D01*
X005040Y017000D01*
X005078Y016962D01*
X005078Y018403D01*
X004961Y018452D01*
X004829Y018584D01*
X004758Y018757D01*
X004758Y018943D01*
X004829Y019116D01*
X004961Y019248D01*
X005134Y019320D01*
X005321Y019320D01*
X005104Y019308D02*
X004351Y019308D01*
X004533Y019209D02*
X004922Y019209D01*
X004827Y019111D02*
X004628Y019111D01*
X004669Y019012D02*
X004786Y019012D01*
X004758Y018914D02*
X004698Y018914D01*
X004698Y018815D02*
X004758Y018815D01*
X004774Y018717D02*
X004681Y018717D01*
X004640Y018618D02*
X004815Y018618D01*
X004893Y018520D02*
X004562Y018520D01*
X004420Y018421D02*
X005035Y018421D01*
X005078Y018323D02*
X004378Y018323D01*
X004378Y018224D02*
X005078Y018224D01*
X005078Y018126D02*
X004378Y018126D01*
X004378Y018027D02*
X005078Y018027D01*
X005078Y017929D02*
X004378Y017929D01*
X004378Y017830D02*
X005078Y017830D01*
X005078Y017732D02*
X004378Y017732D01*
X004407Y017633D02*
X005078Y017633D01*
X005078Y017535D02*
X004505Y017535D01*
X004604Y017436D02*
X005078Y017436D01*
X005078Y017338D02*
X004702Y017338D01*
X004801Y017239D02*
X005078Y017239D01*
X005078Y017141D02*
X004899Y017141D01*
X004998Y017042D02*
X005078Y017042D01*
X004978Y016850D02*
X004978Y016100D01*
X004728Y015850D01*
X004375Y015850D01*
X004664Y016057D02*
X004722Y016057D01*
X004676Y016156D02*
X004821Y016156D01*
X004828Y016254D02*
X004711Y016254D01*
X004711Y016353D02*
X004828Y016353D01*
X004828Y016451D02*
X004711Y016451D01*
X004671Y016550D02*
X004828Y016550D01*
X004828Y016648D02*
X004628Y016648D01*
X004628Y016747D02*
X004828Y016747D01*
X004770Y016845D02*
X004628Y016845D01*
X004628Y016944D02*
X004672Y016944D01*
X004478Y017100D02*
X004478Y016452D01*
X004375Y016350D01*
X004328Y016648D02*
X003321Y016648D01*
X003328Y016550D02*
X004079Y016550D01*
X004039Y016451D02*
X003328Y016451D01*
X003328Y016353D02*
X004039Y016353D01*
X004039Y016254D02*
X003328Y016254D01*
X003328Y016156D02*
X004074Y016156D01*
X004086Y016057D02*
X003326Y016057D01*
X004039Y015959D02*
X001647Y015959D01*
X001746Y016057D02*
X002129Y016057D01*
X002128Y016156D02*
X001802Y016156D01*
X001800Y016550D02*
X002128Y016550D01*
X002134Y016648D02*
X001741Y016648D01*
X001642Y016747D02*
X004328Y016747D01*
X004328Y016845D02*
X001228Y016845D01*
X001621Y016944D02*
X004328Y016944D01*
X004323Y017042D02*
X003311Y017042D01*
X003328Y017141D02*
X004225Y017141D01*
X004126Y017239D02*
X003328Y017239D01*
X003328Y017338D02*
X004028Y017338D01*
X003929Y017436D02*
X003328Y017436D01*
X003328Y017535D02*
X003831Y017535D01*
X003732Y017633D02*
X003328Y017633D01*
X003535Y017830D02*
X001958Y017830D01*
X002056Y017929D02*
X003437Y017929D01*
X003338Y018027D02*
X002155Y018027D01*
X002253Y018126D02*
X003240Y018126D01*
X003141Y018224D02*
X002352Y018224D01*
X002450Y018323D02*
X003078Y018323D01*
X003035Y018421D02*
X002549Y018421D01*
X002647Y018520D02*
X002893Y018520D01*
X002815Y018618D02*
X002728Y018618D01*
X002728Y018717D02*
X002774Y018717D01*
X002758Y018815D02*
X002728Y018815D01*
X002728Y018914D02*
X002758Y018914D01*
X002786Y019012D02*
X002728Y019012D01*
X002738Y019111D02*
X002827Y019111D01*
X002837Y019209D02*
X002922Y019209D01*
X002935Y019308D02*
X003104Y019308D01*
X003351Y019308D02*
X004104Y019308D01*
X003922Y019209D02*
X003533Y019209D01*
X003628Y019111D02*
X003827Y019111D01*
X003786Y019012D02*
X003669Y019012D01*
X003698Y018914D02*
X003758Y018914D01*
X003758Y018815D02*
X003698Y018815D01*
X003681Y018717D02*
X003774Y018717D01*
X003815Y018618D02*
X003640Y018618D01*
X003562Y018520D02*
X003893Y018520D01*
X004035Y018421D02*
X003420Y018421D01*
X003467Y018323D02*
X004078Y018323D01*
X004078Y018224D02*
X003566Y018224D01*
X003664Y018126D02*
X004078Y018126D01*
X004078Y018027D02*
X003763Y018027D01*
X003861Y017929D02*
X004078Y017929D01*
X004078Y017830D02*
X003960Y017830D01*
X004058Y017732D02*
X004078Y017732D01*
X004228Y017600D02*
X004978Y016850D01*
X005378Y016845D02*
X005760Y016845D01*
X005662Y016747D02*
X005378Y016747D01*
X005378Y016648D02*
X005578Y016648D01*
X005578Y016550D02*
X005378Y016550D01*
X005378Y016451D02*
X005578Y016451D01*
X005578Y016353D02*
X005378Y016353D01*
X005378Y016254D02*
X005578Y016254D01*
X005578Y016156D02*
X005378Y016156D01*
X005378Y016057D02*
X005578Y016057D01*
X005578Y015959D02*
X005378Y015959D01*
X005378Y015860D02*
X005578Y015860D01*
X005578Y015762D02*
X005378Y015762D01*
X005378Y015663D02*
X005578Y015663D01*
X005578Y015565D02*
X005378Y015565D01*
X005306Y015466D02*
X005578Y015466D01*
X005578Y015368D02*
X005207Y015368D01*
X005109Y015269D02*
X005578Y015269D01*
X005578Y015171D02*
X004691Y015171D01*
X004653Y015068D02*
X004098Y015068D01*
X004039Y015010D01*
X004039Y014690D01*
X004098Y014632D01*
X004653Y014632D01*
X004711Y014690D01*
X004711Y014700D01*
X004734Y014700D01*
X004862Y014572D01*
X005093Y014572D01*
X005256Y014735D01*
X005256Y014965D01*
X005093Y015128D01*
X004862Y015128D01*
X004734Y015000D01*
X004711Y015000D01*
X004711Y015010D01*
X004653Y015068D01*
X004806Y015072D02*
X001228Y015072D01*
X001228Y014974D02*
X004039Y014974D01*
X004039Y014875D02*
X001228Y014875D01*
X001228Y014777D02*
X004039Y014777D01*
X004051Y014678D02*
X001228Y014678D01*
X001228Y014580D02*
X004855Y014580D01*
X004756Y014678D02*
X004699Y014678D01*
X004978Y014850D02*
X004375Y014850D01*
X004059Y015171D02*
X001228Y015171D01*
X001228Y015269D02*
X004039Y015269D01*
X004039Y015368D02*
X001228Y015368D01*
X001228Y015466D02*
X004039Y015466D01*
X004094Y015565D02*
X001228Y015565D01*
X001228Y015663D02*
X004066Y015663D01*
X004039Y015762D02*
X001228Y015762D01*
X001228Y015860D02*
X004039Y015860D01*
X004375Y015350D02*
X004978Y015350D01*
X005228Y015600D01*
X005228Y018850D01*
X005562Y018520D02*
X005893Y018520D01*
X005815Y018618D02*
X005640Y018618D01*
X005681Y018717D02*
X005774Y018717D01*
X005758Y018815D02*
X005698Y018815D01*
X005698Y018914D02*
X005758Y018914D01*
X005786Y019012D02*
X005669Y019012D01*
X005628Y019111D02*
X005827Y019111D01*
X005922Y019209D02*
X005533Y019209D01*
X006228Y018850D02*
X006228Y017100D01*
X005728Y016600D01*
X005728Y014850D01*
X005228Y014350D01*
X004375Y014350D01*
X004706Y014186D02*
X006249Y014186D01*
X006244Y014190D02*
X006302Y014132D01*
X006858Y014132D01*
X006916Y014190D01*
X006916Y014199D01*
X007578Y013538D01*
X007578Y010788D01*
X007665Y010700D01*
X010415Y007950D01*
X010663Y007950D01*
X010508Y007795D01*
X010508Y007405D01*
X010783Y007130D01*
X011172Y007130D01*
X011448Y007405D01*
X011448Y007795D01*
X011292Y007950D01*
X011663Y007950D01*
X011508Y007795D01*
X011508Y007405D01*
X011783Y007130D01*
X011795Y007130D01*
X011415Y006750D01*
X010665Y006750D01*
X010165Y006250D01*
X006721Y006250D01*
X006593Y006378D01*
X006362Y006378D01*
X006199Y006215D01*
X006199Y005985D01*
X006362Y005822D01*
X006593Y005822D01*
X006721Y005950D01*
X010290Y005950D01*
X010378Y006038D01*
X010790Y006450D01*
X011540Y006450D01*
X012040Y006950D01*
X012128Y007038D01*
X012128Y007130D01*
X012172Y007130D01*
X012448Y007405D01*
X012448Y007795D01*
X012292Y007950D01*
X012663Y007950D01*
X012508Y007795D01*
X012508Y007405D01*
X012783Y007130D01*
X013172Y007130D01*
X013448Y007405D01*
X013448Y007795D01*
X013292Y007950D01*
X013663Y007950D01*
X013508Y007795D01*
X013508Y007405D01*
X013783Y007130D01*
X014172Y007130D01*
X014328Y007285D01*
X014328Y006038D01*
X014415Y005950D01*
X014539Y005826D01*
X014508Y005795D01*
X014508Y005405D01*
X014783Y005130D01*
X015172Y005130D01*
X015328Y005285D01*
X015328Y005162D01*
X015204Y005038D01*
X015172Y005070D01*
X014783Y005070D01*
X014508Y004795D01*
X014508Y004405D01*
X014783Y004130D01*
X014828Y004130D01*
X014828Y003662D01*
X014078Y002912D01*
X014078Y001547D01*
X013961Y001498D01*
X013829Y001366D01*
X013758Y001193D01*
X013758Y001007D01*
X013829Y000834D01*
X013961Y000702D01*
X014134Y000630D01*
X014321Y000630D01*
X014494Y000702D01*
X014626Y000834D01*
X014698Y001007D01*
X014698Y001193D01*
X014626Y001366D01*
X014494Y001498D01*
X014378Y001547D01*
X014378Y002788D01*
X015040Y003450D01*
X015128Y003538D01*
X015128Y004130D01*
X015172Y004130D01*
X015448Y004405D01*
X015448Y004795D01*
X015416Y004826D01*
X015540Y004950D01*
X015628Y005038D01*
X015628Y005285D01*
X015783Y005130D01*
X016172Y005130D01*
X016204Y005162D01*
X016328Y005038D01*
X016328Y004915D01*
X016172Y005070D01*
X015783Y005070D01*
X015508Y004795D01*
X015508Y004405D01*
X015783Y004130D01*
X016045Y004130D01*
X015078Y003162D01*
X015078Y001547D01*
X014961Y001498D01*
X014829Y001366D01*
X014758Y001193D01*
X014758Y001007D01*
X014829Y000834D01*
X014961Y000702D01*
X015134Y000630D01*
X015321Y000630D01*
X015494Y000702D01*
X015626Y000834D01*
X015698Y001007D01*
X015698Y001193D01*
X015626Y001366D01*
X015494Y001498D01*
X015378Y001547D01*
X015378Y003038D01*
X016540Y004200D01*
X016626Y004287D01*
X016783Y004130D01*
X017045Y004130D01*
X016078Y003162D01*
X016078Y001547D01*
X015961Y001498D01*
X015829Y001366D01*
X015758Y001193D01*
X015758Y001007D01*
X015829Y000834D01*
X015961Y000702D01*
X016134Y000630D01*
X016321Y000630D01*
X016494Y000702D01*
X016626Y000834D01*
X016698Y001007D01*
X016698Y001193D01*
X016626Y001366D01*
X016494Y001498D01*
X016378Y001547D01*
X016378Y003038D01*
X017540Y004200D01*
X017628Y004288D01*
X017628Y005162D01*
X017416Y005374D01*
X017448Y005405D01*
X017448Y005795D01*
X017416Y005826D01*
X017540Y005950D01*
X017628Y006038D01*
X017628Y008162D01*
X017416Y008374D01*
X018891Y008374D01*
X018891Y008276D02*
X017514Y008276D01*
X017416Y008374D02*
X017448Y008405D01*
X017448Y008795D01*
X017416Y008826D01*
X017540Y008950D01*
X017628Y009038D01*
X017628Y011162D01*
X017416Y011374D01*
X017448Y011405D01*
X017448Y011795D01*
X017416Y011826D01*
X017540Y011950D01*
X017628Y012038D01*
X017628Y014162D01*
X017416Y014374D01*
X017448Y014405D01*
X017448Y014795D01*
X017172Y015070D01*
X017128Y015070D01*
X017128Y016153D01*
X017244Y016202D01*
X017376Y016334D01*
X017448Y016507D01*
X017448Y016693D01*
X017376Y016866D01*
X017244Y016998D01*
X017071Y017070D01*
X016884Y017070D01*
X016711Y016998D01*
X016579Y016866D01*
X016508Y016693D01*
X016508Y016507D01*
X016579Y016334D01*
X016711Y016202D01*
X016828Y016153D01*
X016828Y015070D01*
X016783Y015070D01*
X016508Y014795D01*
X016508Y014405D01*
X016783Y014130D01*
X017172Y014130D01*
X017204Y014162D01*
X017328Y014038D01*
X017328Y013915D01*
X017172Y014070D01*
X016783Y014070D01*
X016628Y013915D01*
X016628Y014162D01*
X016540Y014250D01*
X016540Y014250D01*
X016416Y014374D01*
X016448Y014405D01*
X016448Y014795D01*
X016172Y015070D01*
X016128Y015070D01*
X016128Y016153D01*
X016244Y016202D01*
X016376Y016334D01*
X016448Y016507D01*
X016448Y016693D01*
X016376Y016866D01*
X016244Y016998D01*
X016071Y017070D01*
X015884Y017070D01*
X015711Y016998D01*
X015579Y016866D01*
X015508Y016693D01*
X015508Y016507D01*
X015579Y016334D01*
X015711Y016202D01*
X015828Y016153D01*
X015828Y015070D01*
X015783Y015070D01*
X015508Y014795D01*
X015508Y014405D01*
X015783Y014130D01*
X016172Y014130D01*
X016204Y014162D01*
X016328Y014038D01*
X016328Y013915D01*
X016172Y014070D01*
X015783Y014070D01*
X015508Y013795D01*
X015508Y013405D01*
X015783Y013130D01*
X016172Y013130D01*
X016328Y013285D01*
X016328Y012162D01*
X016204Y012038D01*
X016172Y012070D01*
X015783Y012070D01*
X015508Y011795D01*
X015508Y011405D01*
X015783Y011130D01*
X016172Y011130D01*
X016204Y011162D01*
X016328Y011038D01*
X016328Y010915D01*
X016172Y011070D01*
X015783Y011070D01*
X015508Y010795D01*
X015508Y010405D01*
X015783Y010130D01*
X016172Y010130D01*
X016328Y010285D01*
X016328Y009162D01*
X016204Y009038D01*
X016172Y009070D01*
X015783Y009070D01*
X015628Y008915D01*
X015628Y010162D01*
X015416Y010374D01*
X015448Y010405D01*
X015448Y010795D01*
X015172Y011070D01*
X014783Y011070D01*
X014508Y010795D01*
X014508Y010405D01*
X014783Y010130D01*
X015172Y010130D01*
X015204Y010162D01*
X015328Y010038D01*
X015328Y008915D01*
X015172Y009070D01*
X014970Y009070D01*
X014628Y009412D01*
X014540Y009500D01*
X009790Y009500D01*
X008378Y010912D01*
X008378Y013662D01*
X007128Y014912D01*
X007040Y015000D01*
X006916Y015000D01*
X006916Y015010D01*
X006858Y015068D01*
X006302Y015068D01*
X006244Y015010D01*
X006244Y014690D01*
X006302Y014632D01*
X006858Y014632D01*
X006916Y014690D01*
X006916Y014699D01*
X008078Y013538D01*
X008078Y010788D01*
X008165Y010700D01*
X009665Y009200D01*
X014415Y009200D01*
X014664Y008951D01*
X014508Y008795D01*
X014508Y008405D01*
X014783Y008130D01*
X015045Y008130D01*
X014985Y008070D01*
X014783Y008070D01*
X014626Y007913D01*
X014378Y008162D01*
X014291Y008249D01*
X014448Y008405D01*
X014448Y008795D01*
X014172Y009070D01*
X013783Y009070D01*
X013508Y008795D01*
X013508Y008405D01*
X013663Y008250D01*
X013292Y008250D01*
X013448Y008405D01*
X013448Y008795D01*
X013172Y009070D01*
X012783Y009070D01*
X012508Y008795D01*
X012508Y008405D01*
X012663Y008250D01*
X012292Y008250D01*
X012448Y008405D01*
X012448Y008795D01*
X012172Y009070D01*
X011783Y009070D01*
X011508Y008795D01*
X011508Y008405D01*
X011663Y008250D01*
X011292Y008250D01*
X011448Y008405D01*
X011448Y008795D01*
X011172Y009070D01*
X010783Y009070D01*
X010508Y008795D01*
X010508Y008405D01*
X010663Y008250D01*
X010540Y008250D01*
X007878Y010912D01*
X007878Y013662D01*
X007128Y014412D01*
X007040Y014500D01*
X006916Y014500D01*
X006916Y014510D01*
X006858Y014568D01*
X006302Y014568D01*
X006244Y014510D01*
X006244Y014190D01*
X006244Y014284D02*
X005374Y014284D01*
X005472Y014383D02*
X006244Y014383D01*
X006244Y014481D02*
X005571Y014481D01*
X005669Y014580D02*
X007036Y014580D01*
X007059Y014481D02*
X007134Y014481D01*
X007157Y014383D02*
X007233Y014383D01*
X007256Y014284D02*
X007331Y014284D01*
X007354Y014186D02*
X007430Y014186D01*
X007453Y014087D02*
X007528Y014087D01*
X007551Y013989D02*
X007627Y013989D01*
X007650Y013890D02*
X007725Y013890D01*
X007748Y013792D02*
X007824Y013792D01*
X007847Y013693D02*
X007922Y013693D01*
X007878Y013595D02*
X008021Y013595D01*
X008078Y013496D02*
X007878Y013496D01*
X007878Y013398D02*
X008078Y013398D01*
X008078Y013299D02*
X007878Y013299D01*
X007878Y013201D02*
X008078Y013201D01*
X008078Y013102D02*
X007878Y013102D01*
X007878Y013004D02*
X008078Y013004D01*
X008078Y012905D02*
X007878Y012905D01*
X007878Y012807D02*
X008078Y012807D01*
X008078Y012708D02*
X007878Y012708D01*
X007878Y012610D02*
X008078Y012610D01*
X008078Y012511D02*
X007878Y012511D01*
X007878Y012413D02*
X008078Y012413D01*
X008078Y012314D02*
X007878Y012314D01*
X007878Y012216D02*
X008078Y012216D01*
X008078Y012117D02*
X007878Y012117D01*
X007878Y012019D02*
X008078Y012019D01*
X008078Y011920D02*
X007878Y011920D01*
X007878Y011822D02*
X008078Y011822D01*
X008078Y011723D02*
X007878Y011723D01*
X007878Y011625D02*
X008078Y011625D01*
X008078Y011526D02*
X007878Y011526D01*
X007878Y011428D02*
X008078Y011428D01*
X008078Y011329D02*
X007878Y011329D01*
X007878Y011231D02*
X008078Y011231D01*
X008078Y011132D02*
X007878Y011132D01*
X007878Y011034D02*
X008078Y011034D01*
X008078Y010935D02*
X007878Y010935D01*
X007953Y010837D02*
X008078Y010837D01*
X008052Y010738D02*
X008127Y010738D01*
X008150Y010640D02*
X008226Y010640D01*
X008249Y010541D02*
X008324Y010541D01*
X008347Y010443D02*
X008423Y010443D01*
X008446Y010344D02*
X008521Y010344D01*
X008544Y010246D02*
X008620Y010246D01*
X008643Y010147D02*
X008718Y010147D01*
X008741Y010049D02*
X008817Y010049D01*
X008840Y009950D02*
X008915Y009950D01*
X008938Y009852D02*
X009014Y009852D01*
X009037Y009753D02*
X009112Y009753D01*
X009135Y009655D02*
X009211Y009655D01*
X009234Y009556D02*
X009309Y009556D01*
X009332Y009458D02*
X009408Y009458D01*
X009431Y009359D02*
X009506Y009359D01*
X009529Y009261D02*
X009605Y009261D01*
X009628Y009162D02*
X014453Y009162D01*
X014552Y009064D02*
X014179Y009064D01*
X014277Y008965D02*
X014650Y008965D01*
X014579Y008867D02*
X014376Y008867D01*
X014448Y008768D02*
X014508Y008768D01*
X014508Y008670D02*
X014448Y008670D01*
X014448Y008571D02*
X014508Y008571D01*
X014508Y008473D02*
X014448Y008473D01*
X014416Y008374D02*
X014539Y008374D01*
X014637Y008276D02*
X014318Y008276D01*
X014363Y008177D02*
X014736Y008177D01*
X014693Y007980D02*
X014560Y007980D01*
X014461Y008079D02*
X014994Y008079D01*
X014978Y007850D02*
X015478Y008350D01*
X015478Y010100D01*
X014978Y010600D01*
X015307Y010935D02*
X015648Y010935D01*
X015746Y011034D02*
X015209Y011034D01*
X015172Y011130D02*
X015448Y011405D01*
X015448Y011795D01*
X015172Y012070D01*
X015128Y012070D01*
X015128Y012162D01*
X014628Y012662D01*
X014565Y012725D01*
X014790Y012950D01*
X014878Y013038D01*
X014878Y013130D01*
X015172Y013130D01*
X015448Y013405D01*
X015448Y013795D01*
X015172Y014070D01*
X014783Y014070D01*
X014508Y013795D01*
X014508Y013405D01*
X014578Y013335D01*
X014578Y013162D01*
X014415Y013000D01*
X010040Y013000D01*
X010006Y013034D01*
X010006Y013215D01*
X009843Y013378D01*
X009612Y013378D01*
X009449Y013215D01*
X009449Y013090D01*
X007128Y015412D01*
X007040Y015500D01*
X006916Y015500D01*
X006916Y015510D01*
X006858Y015568D01*
X006302Y015568D01*
X006244Y015510D01*
X006244Y015190D01*
X006302Y015132D01*
X006858Y015132D01*
X006916Y015190D01*
X006916Y015199D01*
X009665Y012450D01*
X014415Y012450D01*
X014795Y012070D01*
X014783Y012070D01*
X014508Y011795D01*
X014508Y011405D01*
X014783Y011130D01*
X015172Y011130D01*
X015174Y011132D02*
X015781Y011132D01*
X015682Y011231D02*
X015273Y011231D01*
X015371Y011329D02*
X015584Y011329D01*
X015508Y011428D02*
X015448Y011428D01*
X015448Y011526D02*
X015508Y011526D01*
X015508Y011625D02*
X015448Y011625D01*
X015448Y011723D02*
X015508Y011723D01*
X015534Y011822D02*
X015421Y011822D01*
X015322Y011920D02*
X015633Y011920D01*
X015731Y012019D02*
X015224Y012019D01*
X015128Y012117D02*
X016282Y012117D01*
X016328Y012216D02*
X015074Y012216D01*
X014976Y012314D02*
X016328Y012314D01*
X016328Y012413D02*
X014877Y012413D01*
X014779Y012511D02*
X016328Y012511D01*
X016328Y012610D02*
X014680Y012610D01*
X014582Y012708D02*
X016328Y012708D01*
X016328Y012807D02*
X014646Y012807D01*
X014745Y012905D02*
X016328Y012905D01*
X016328Y013004D02*
X014843Y013004D01*
X014878Y013102D02*
X016328Y013102D01*
X016328Y013201D02*
X016243Y013201D01*
X015712Y013201D02*
X015243Y013201D01*
X015341Y013299D02*
X015614Y013299D01*
X015515Y013398D02*
X015440Y013398D01*
X015448Y013496D02*
X015508Y013496D01*
X015508Y013595D02*
X015448Y013595D01*
X015448Y013693D02*
X015508Y013693D01*
X015508Y013792D02*
X015448Y013792D01*
X015352Y013890D02*
X015603Y013890D01*
X015701Y013989D02*
X015254Y013989D01*
X015172Y014130D02*
X015448Y014405D01*
X015448Y014795D01*
X015172Y015070D01*
X014783Y015070D01*
X014508Y014795D01*
X014508Y014405D01*
X014783Y014130D01*
X015172Y014130D01*
X015228Y014186D02*
X015727Y014186D01*
X015629Y014284D02*
X015326Y014284D01*
X015425Y014383D02*
X015530Y014383D01*
X015508Y014481D02*
X015448Y014481D01*
X015448Y014580D02*
X015508Y014580D01*
X015508Y014678D02*
X015448Y014678D01*
X015448Y014777D02*
X015508Y014777D01*
X015588Y014875D02*
X015367Y014875D01*
X015269Y014974D02*
X015686Y014974D01*
X015828Y015072D02*
X014662Y015072D01*
X014686Y014974D02*
X014563Y014974D01*
X014588Y014875D02*
X014465Y014875D01*
X014416Y014826D02*
X015128Y015538D01*
X015128Y016153D01*
X015244Y016202D01*
X015376Y016334D01*
X015448Y016507D01*
X015448Y016693D01*
X015376Y016866D01*
X015244Y016998D01*
X015071Y017070D01*
X014884Y017070D01*
X014711Y016998D01*
X014579Y016866D01*
X014508Y016693D01*
X014508Y016507D01*
X014579Y016334D01*
X014711Y016202D01*
X014828Y016153D01*
X014828Y015662D01*
X014204Y015038D01*
X014172Y015070D01*
X013783Y015070D01*
X013628Y014915D01*
X013628Y015038D01*
X014040Y015450D01*
X014128Y015538D01*
X014128Y016153D01*
X014244Y016202D01*
X014376Y016334D01*
X014448Y016507D01*
X014448Y016693D01*
X014376Y016866D01*
X014244Y016998D01*
X014071Y017070D01*
X013884Y017070D01*
X013711Y016998D01*
X013579Y016866D01*
X013508Y016693D01*
X013508Y016507D01*
X013579Y016334D01*
X013711Y016202D01*
X013828Y016153D01*
X013828Y015662D01*
X013328Y015162D01*
X013328Y014915D01*
X013172Y015070D01*
X013128Y015070D01*
X013128Y016153D01*
X013244Y016202D01*
X013376Y016334D01*
X013448Y016507D01*
X013448Y016693D01*
X013376Y016866D01*
X013244Y016998D01*
X013071Y017070D01*
X012884Y017070D01*
X012711Y016998D01*
X012579Y016866D01*
X012508Y016693D01*
X012508Y016507D01*
X012579Y016334D01*
X012711Y016202D01*
X012828Y016153D01*
X012828Y015070D01*
X012783Y015070D01*
X012628Y014915D01*
X012628Y016162D01*
X012399Y016390D01*
X012448Y016507D01*
X012448Y016693D01*
X012376Y016866D01*
X012244Y016998D01*
X012071Y017070D01*
X011884Y017070D01*
X011711Y016998D01*
X011579Y016866D01*
X011508Y016693D01*
X011508Y016507D01*
X011579Y016334D01*
X011711Y016202D01*
X011884Y016130D01*
X012071Y016130D01*
X012187Y016178D01*
X012328Y016038D01*
X012328Y014915D01*
X012172Y015070D01*
X012128Y015070D01*
X012128Y015662D01*
X012040Y015750D01*
X011399Y016390D01*
X011448Y016507D01*
X011448Y016693D01*
X011376Y016866D01*
X011244Y016998D01*
X011071Y017070D01*
X010884Y017070D01*
X010711Y016998D01*
X010579Y016866D01*
X010508Y016693D01*
X010508Y016507D01*
X010579Y016334D01*
X010711Y016202D01*
X010884Y016130D01*
X011071Y016130D01*
X011187Y016178D01*
X011828Y015538D01*
X011828Y015070D01*
X011783Y015070D01*
X011628Y014915D01*
X011628Y015412D01*
X011540Y015500D01*
X010790Y015500D01*
X010134Y016156D01*
X010244Y016202D01*
X010376Y016334D01*
X010448Y016507D01*
X010448Y016693D01*
X010376Y016866D01*
X010244Y016998D01*
X010071Y017070D01*
X009884Y017070D01*
X009711Y016998D01*
X009579Y016866D01*
X009508Y016693D01*
X009508Y016507D01*
X009579Y016334D01*
X009711Y016202D01*
X009828Y016153D01*
X009828Y016038D01*
X010665Y015200D01*
X011328Y015200D01*
X011328Y014915D01*
X011172Y015070D01*
X010783Y015070D01*
X010508Y014795D01*
X010508Y014750D01*
X010040Y014750D01*
X009128Y015662D01*
X009128Y016153D01*
X009244Y016202D01*
X009376Y016334D01*
X009448Y016507D01*
X009448Y016693D01*
X009376Y016866D01*
X009244Y016998D01*
X009071Y017070D01*
X008884Y017070D01*
X008711Y016998D01*
X008579Y016866D01*
X008508Y016693D01*
X008508Y016507D01*
X008579Y016334D01*
X008711Y016202D01*
X008828Y016153D01*
X008828Y015538D01*
X008915Y015450D01*
X009915Y014450D01*
X010508Y014450D01*
X010508Y014405D01*
X010783Y014130D01*
X011172Y014130D01*
X011328Y014285D01*
X011328Y014038D01*
X011415Y013950D01*
X011539Y013826D01*
X011508Y013795D01*
X011508Y013405D01*
X011783Y013130D01*
X012172Y013130D01*
X012448Y013405D01*
X012448Y013795D01*
X012172Y014070D01*
X011783Y014070D01*
X011751Y014038D01*
X011628Y014162D01*
X011628Y014285D01*
X011783Y014130D01*
X012172Y014130D01*
X012328Y014285D01*
X012328Y014038D01*
X012415Y013950D01*
X012539Y013826D01*
X012508Y013795D01*
X012508Y013405D01*
X012783Y013130D01*
X013172Y013130D01*
X013448Y013405D01*
X013448Y013795D01*
X013172Y014070D01*
X012783Y014070D01*
X012751Y014038D01*
X012628Y014162D01*
X012628Y014285D01*
X012783Y014130D01*
X013172Y014130D01*
X013328Y014285D01*
X013328Y014038D01*
X013415Y013950D01*
X013539Y013826D01*
X013508Y013795D01*
X013508Y013405D01*
X013783Y013130D01*
X014172Y013130D01*
X014448Y013405D01*
X014448Y013795D01*
X014172Y014070D01*
X013783Y014070D01*
X013751Y014038D01*
X013628Y014162D01*
X013628Y014285D01*
X013783Y014130D01*
X014172Y014130D01*
X014448Y014405D01*
X014448Y014795D01*
X014416Y014826D01*
X014448Y014777D02*
X014508Y014777D01*
X014508Y014678D02*
X014448Y014678D01*
X014448Y014580D02*
X014508Y014580D01*
X014508Y014481D02*
X014448Y014481D01*
X014425Y014383D02*
X014530Y014383D01*
X014629Y014284D02*
X014326Y014284D01*
X014228Y014186D02*
X014727Y014186D01*
X014701Y013989D02*
X014254Y013989D01*
X014352Y013890D02*
X014603Y013890D01*
X014508Y013792D02*
X014448Y013792D01*
X014448Y013693D02*
X014508Y013693D01*
X014508Y013595D02*
X014448Y013595D01*
X014448Y013496D02*
X014508Y013496D01*
X014515Y013398D02*
X014440Y013398D01*
X014341Y013299D02*
X014578Y013299D01*
X014578Y013201D02*
X014243Y013201D01*
X014419Y013004D02*
X010036Y013004D01*
X010006Y013102D02*
X014517Y013102D01*
X014728Y013100D02*
X014478Y012850D01*
X009978Y012850D01*
X009728Y013100D01*
X009922Y013299D02*
X010614Y013299D01*
X010712Y013201D02*
X010006Y013201D01*
X010369Y013496D02*
X009044Y013496D01*
X009142Y013398D02*
X010515Y013398D01*
X010508Y013405D02*
X010783Y013130D01*
X011172Y013130D01*
X011448Y013405D01*
X011448Y013795D01*
X011172Y014070D01*
X010783Y014070D01*
X010508Y013795D01*
X010508Y013782D01*
X008134Y016156D01*
X008244Y016202D01*
X008376Y016334D01*
X008448Y016507D01*
X008448Y016693D01*
X008376Y016866D01*
X008244Y016998D01*
X008071Y017070D01*
X007884Y017070D01*
X007711Y016998D01*
X007579Y016866D01*
X007508Y016693D01*
X007508Y016507D01*
X007579Y016334D01*
X007711Y016202D01*
X007828Y016153D01*
X007828Y016038D01*
X007915Y015950D01*
X010415Y013450D01*
X010508Y013450D01*
X010508Y013405D01*
X010478Y013600D02*
X007978Y016100D01*
X007978Y016600D01*
X008299Y016944D02*
X008656Y016944D01*
X008570Y016845D02*
X008385Y016845D01*
X008426Y016747D02*
X008530Y016747D01*
X008508Y016648D02*
X008448Y016648D01*
X008448Y016550D02*
X008508Y016550D01*
X008531Y016451D02*
X008425Y016451D01*
X008384Y016353D02*
X008571Y016353D01*
X008659Y016254D02*
X008296Y016254D01*
X008134Y016156D02*
X008822Y016156D01*
X008828Y016057D02*
X008233Y016057D01*
X008331Y015959D02*
X008828Y015959D01*
X008828Y015860D02*
X008430Y015860D01*
X008528Y015762D02*
X008828Y015762D01*
X008828Y015663D02*
X008627Y015663D01*
X008725Y015565D02*
X008828Y015565D01*
X008824Y015466D02*
X008899Y015466D01*
X008922Y015368D02*
X008998Y015368D01*
X009021Y015269D02*
X009096Y015269D01*
X009119Y015171D02*
X009195Y015171D01*
X009218Y015072D02*
X009293Y015072D01*
X009316Y014974D02*
X009392Y014974D01*
X009415Y014875D02*
X009490Y014875D01*
X009513Y014777D02*
X009589Y014777D01*
X009612Y014678D02*
X009687Y014678D01*
X009710Y014580D02*
X009786Y014580D01*
X009809Y014481D02*
X009884Y014481D01*
X009907Y014383D02*
X010530Y014383D01*
X010629Y014284D02*
X010006Y014284D01*
X010104Y014186D02*
X010727Y014186D01*
X010701Y013989D02*
X010301Y013989D01*
X010203Y014087D02*
X011328Y014087D01*
X011328Y014186D02*
X011228Y014186D01*
X011326Y014284D02*
X011328Y014284D01*
X011478Y014100D02*
X011478Y015350D01*
X010728Y015350D01*
X009978Y016100D01*
X009978Y016600D01*
X010299Y016944D02*
X010656Y016944D01*
X010570Y016845D02*
X010385Y016845D01*
X010426Y016747D02*
X010530Y016747D01*
X010508Y016648D02*
X010448Y016648D01*
X010448Y016550D02*
X010508Y016550D01*
X010531Y016451D02*
X010425Y016451D01*
X010384Y016353D02*
X010571Y016353D01*
X010659Y016254D02*
X010296Y016254D01*
X010134Y016156D02*
X010822Y016156D01*
X011133Y016156D02*
X011210Y016156D01*
X011308Y016057D02*
X010233Y016057D01*
X010331Y015959D02*
X011407Y015959D01*
X011505Y015860D02*
X010430Y015860D01*
X010528Y015762D02*
X011604Y015762D01*
X011702Y015663D02*
X010627Y015663D01*
X010725Y015565D02*
X011801Y015565D01*
X011828Y015466D02*
X011574Y015466D01*
X011628Y015368D02*
X011828Y015368D01*
X011828Y015269D02*
X011628Y015269D01*
X011628Y015171D02*
X011828Y015171D01*
X011828Y015072D02*
X011628Y015072D01*
X011628Y014974D02*
X011686Y014974D01*
X011328Y014974D02*
X011269Y014974D01*
X011328Y015072D02*
X009718Y015072D01*
X009816Y014974D02*
X010686Y014974D01*
X010588Y014875D02*
X009915Y014875D01*
X010013Y014777D02*
X010508Y014777D01*
X010596Y015269D02*
X009521Y015269D01*
X009619Y015171D02*
X011328Y015171D01*
X010978Y014600D02*
X009978Y014600D01*
X008978Y015600D01*
X008978Y016600D01*
X009299Y016944D02*
X009656Y016944D01*
X009570Y016845D02*
X009385Y016845D01*
X009426Y016747D02*
X009530Y016747D01*
X009508Y016648D02*
X009448Y016648D01*
X009448Y016550D02*
X009508Y016550D01*
X009531Y016451D02*
X009425Y016451D01*
X009384Y016353D02*
X009571Y016353D01*
X009659Y016254D02*
X009296Y016254D01*
X009133Y016156D02*
X009822Y016156D01*
X009828Y016057D02*
X009128Y016057D01*
X009128Y015959D02*
X009907Y015959D01*
X010005Y015860D02*
X009128Y015860D01*
X009128Y015762D02*
X010104Y015762D01*
X010202Y015663D02*
X009128Y015663D01*
X009225Y015565D02*
X010301Y015565D01*
X010399Y015466D02*
X009324Y015466D01*
X009422Y015368D02*
X010498Y015368D01*
X011437Y016353D02*
X011571Y016353D01*
X011536Y016254D02*
X011659Y016254D01*
X011634Y016156D02*
X011822Y016156D01*
X011733Y016057D02*
X012308Y016057D01*
X012328Y015959D02*
X011831Y015959D01*
X011930Y015860D02*
X012328Y015860D01*
X012328Y015762D02*
X012028Y015762D01*
X012127Y015663D02*
X012328Y015663D01*
X012328Y015565D02*
X012128Y015565D01*
X012128Y015466D02*
X012328Y015466D01*
X012328Y015368D02*
X012128Y015368D01*
X012128Y015269D02*
X012328Y015269D01*
X012328Y015171D02*
X012128Y015171D01*
X012128Y015072D02*
X012328Y015072D01*
X012328Y014974D02*
X012269Y014974D01*
X012628Y014974D02*
X012686Y014974D01*
X012628Y015072D02*
X012828Y015072D01*
X012828Y015171D02*
X012628Y015171D01*
X012628Y015269D02*
X012828Y015269D01*
X012828Y015368D02*
X012628Y015368D01*
X012628Y015466D02*
X012828Y015466D01*
X012828Y015565D02*
X012628Y015565D01*
X012628Y015663D02*
X012828Y015663D01*
X012828Y015762D02*
X012628Y015762D01*
X012628Y015860D02*
X012828Y015860D01*
X012828Y015959D02*
X012628Y015959D01*
X012628Y016057D02*
X012828Y016057D01*
X012822Y016156D02*
X012628Y016156D01*
X012659Y016254D02*
X012536Y016254D01*
X012571Y016353D02*
X012437Y016353D01*
X012425Y016451D02*
X012531Y016451D01*
X012508Y016550D02*
X012448Y016550D01*
X012448Y016648D02*
X012508Y016648D01*
X012530Y016747D02*
X012426Y016747D01*
X012385Y016845D02*
X012570Y016845D01*
X012656Y016944D02*
X012299Y016944D01*
X012139Y017042D02*
X012817Y017042D01*
X013139Y017042D02*
X013817Y017042D01*
X013656Y016944D02*
X013299Y016944D01*
X013385Y016845D02*
X013570Y016845D01*
X013530Y016747D02*
X013426Y016747D01*
X013448Y016648D02*
X013508Y016648D01*
X013508Y016550D02*
X013448Y016550D01*
X013425Y016451D02*
X013531Y016451D01*
X013571Y016353D02*
X013384Y016353D01*
X013296Y016254D02*
X013659Y016254D01*
X013822Y016156D02*
X013133Y016156D01*
X013128Y016057D02*
X013828Y016057D01*
X013828Y015959D02*
X013128Y015959D01*
X013128Y015860D02*
X013828Y015860D01*
X013828Y015762D02*
X013128Y015762D01*
X013128Y015663D02*
X013828Y015663D01*
X013730Y015565D02*
X013128Y015565D01*
X013128Y015466D02*
X013631Y015466D01*
X013533Y015368D02*
X013128Y015368D01*
X013128Y015269D02*
X013434Y015269D01*
X013336Y015171D02*
X013128Y015171D01*
X013128Y015072D02*
X013328Y015072D01*
X013328Y014974D02*
X013269Y014974D01*
X013478Y015100D02*
X013978Y015600D01*
X013978Y016600D01*
X014299Y016944D02*
X014656Y016944D01*
X014570Y016845D02*
X014385Y016845D01*
X014426Y016747D02*
X014530Y016747D01*
X014508Y016648D02*
X014448Y016648D01*
X014448Y016550D02*
X014508Y016550D01*
X014531Y016451D02*
X014425Y016451D01*
X014384Y016353D02*
X014571Y016353D01*
X014659Y016254D02*
X014296Y016254D01*
X014133Y016156D02*
X014822Y016156D01*
X014828Y016057D02*
X014128Y016057D01*
X014128Y015959D02*
X014828Y015959D01*
X014828Y015860D02*
X014128Y015860D01*
X014128Y015762D02*
X014828Y015762D01*
X014828Y015663D02*
X014128Y015663D01*
X014128Y015565D02*
X014730Y015565D01*
X014631Y015466D02*
X014056Y015466D01*
X013957Y015368D02*
X014533Y015368D01*
X014434Y015269D02*
X013859Y015269D01*
X013760Y015171D02*
X014336Y015171D01*
X014237Y015072D02*
X013662Y015072D01*
X013686Y014974D02*
X013628Y014974D01*
X013478Y015100D02*
X013478Y014100D01*
X013978Y013600D01*
X013614Y013299D02*
X013341Y013299D01*
X013243Y013201D02*
X013712Y013201D01*
X013515Y013398D02*
X013440Y013398D01*
X013448Y013496D02*
X013508Y013496D01*
X013508Y013595D02*
X013448Y013595D01*
X013448Y013693D02*
X013508Y013693D01*
X013508Y013792D02*
X013448Y013792D01*
X013475Y013890D02*
X013352Y013890D01*
X013377Y013989D02*
X013254Y013989D01*
X013328Y014087D02*
X012703Y014087D01*
X012727Y014186D02*
X012628Y014186D01*
X012628Y014284D02*
X012629Y014284D01*
X012478Y014100D02*
X012478Y016100D01*
X011978Y016600D01*
X011656Y016944D02*
X011299Y016944D01*
X011385Y016845D02*
X011570Y016845D01*
X011530Y016747D02*
X011426Y016747D01*
X011448Y016648D02*
X011508Y016648D01*
X011508Y016550D02*
X011448Y016550D01*
X011425Y016451D02*
X011531Y016451D01*
X010978Y016600D02*
X011978Y015600D01*
X011978Y014600D01*
X012326Y014284D02*
X012328Y014284D01*
X012328Y014186D02*
X012228Y014186D01*
X012328Y014087D02*
X011703Y014087D01*
X011727Y014186D02*
X011628Y014186D01*
X011628Y014284D02*
X011629Y014284D01*
X011478Y014100D02*
X011978Y013600D01*
X012448Y013595D02*
X012508Y013595D01*
X012508Y013693D02*
X012448Y013693D01*
X012448Y013792D02*
X012508Y013792D01*
X012475Y013890D02*
X012352Y013890D01*
X012377Y013989D02*
X012254Y013989D01*
X012478Y014100D02*
X012978Y013600D01*
X012614Y013299D02*
X012341Y013299D01*
X012243Y013201D02*
X012712Y013201D01*
X012515Y013398D02*
X012440Y013398D01*
X012448Y013496D02*
X012508Y013496D01*
X011712Y013201D02*
X011243Y013201D01*
X011341Y013299D02*
X011614Y013299D01*
X011515Y013398D02*
X011440Y013398D01*
X011448Y013496D02*
X011508Y013496D01*
X011508Y013595D02*
X011448Y013595D01*
X011448Y013693D02*
X011508Y013693D01*
X011508Y013792D02*
X011448Y013792D01*
X011475Y013890D02*
X011352Y013890D01*
X011377Y013989D02*
X011254Y013989D01*
X010978Y013600D02*
X010478Y013600D01*
X010498Y013792D02*
X010508Y013792D01*
X010603Y013890D02*
X010400Y013890D01*
X010172Y013693D02*
X008847Y013693D01*
X008945Y013595D02*
X010271Y013595D01*
X010074Y013792D02*
X008748Y013792D01*
X008650Y013890D02*
X009975Y013890D01*
X009877Y013989D02*
X008551Y013989D01*
X008453Y014087D02*
X009778Y014087D01*
X009680Y014186D02*
X008354Y014186D01*
X008256Y014284D02*
X009581Y014284D01*
X009483Y014383D02*
X008157Y014383D01*
X008059Y014481D02*
X009384Y014481D01*
X009286Y014580D02*
X007960Y014580D01*
X007862Y014678D02*
X009187Y014678D01*
X009089Y014777D02*
X007763Y014777D01*
X007665Y014875D02*
X008990Y014875D01*
X008892Y014974D02*
X007566Y014974D01*
X007468Y015072D02*
X008793Y015072D01*
X008695Y015171D02*
X007369Y015171D01*
X007271Y015269D02*
X008596Y015269D01*
X008498Y015368D02*
X007172Y015368D01*
X007074Y015466D02*
X008399Y015466D01*
X008301Y015565D02*
X006861Y015565D01*
X006858Y015632D02*
X006916Y015690D01*
X006916Y015700D01*
X007234Y015700D01*
X007362Y015572D01*
X007593Y015572D01*
X007756Y015735D01*
X007756Y015965D01*
X007593Y016128D01*
X007362Y016128D01*
X007234Y016000D01*
X006916Y016000D01*
X006916Y016010D01*
X006858Y016068D01*
X006302Y016068D01*
X006244Y016010D01*
X006244Y015690D01*
X006302Y015632D01*
X006858Y015632D01*
X006889Y015663D02*
X007271Y015663D01*
X007478Y015850D02*
X006580Y015850D01*
X006869Y016057D02*
X007291Y016057D01*
X007664Y016057D02*
X007828Y016057D01*
X007822Y016156D02*
X005878Y016156D01*
X005878Y016254D02*
X007659Y016254D01*
X007571Y016353D02*
X005878Y016353D01*
X005878Y016451D02*
X007531Y016451D01*
X007508Y016550D02*
X005889Y016550D01*
X005988Y016648D02*
X007508Y016648D01*
X007530Y016747D02*
X006086Y016747D01*
X006185Y016845D02*
X007570Y016845D01*
X007656Y016944D02*
X006283Y016944D01*
X006378Y017042D02*
X007817Y017042D01*
X008139Y017042D02*
X008817Y017042D01*
X009139Y017042D02*
X009817Y017042D01*
X010139Y017042D02*
X010817Y017042D01*
X011139Y017042D02*
X011817Y017042D01*
X012133Y016156D02*
X012210Y016156D01*
X012978Y016600D02*
X012978Y014600D01*
X013326Y014284D02*
X013328Y014284D01*
X013328Y014186D02*
X013228Y014186D01*
X013628Y014186D02*
X013727Y014186D01*
X013703Y014087D02*
X016278Y014087D01*
X016254Y013989D02*
X016328Y013989D01*
X016478Y014100D02*
X015978Y014600D01*
X015978Y016600D01*
X016299Y016944D02*
X016656Y016944D01*
X016570Y016845D02*
X016385Y016845D01*
X016426Y016747D02*
X016530Y016747D01*
X016508Y016648D02*
X016448Y016648D01*
X016448Y016550D02*
X016508Y016550D01*
X016531Y016451D02*
X016425Y016451D01*
X016384Y016353D02*
X016571Y016353D01*
X016659Y016254D02*
X016296Y016254D01*
X016133Y016156D02*
X016822Y016156D01*
X016828Y016057D02*
X016128Y016057D01*
X016128Y015959D02*
X016828Y015959D01*
X016828Y015860D02*
X016128Y015860D01*
X016128Y015762D02*
X016828Y015762D01*
X016828Y015663D02*
X016128Y015663D01*
X016128Y015565D02*
X016828Y015565D01*
X016828Y015466D02*
X016128Y015466D01*
X016128Y015368D02*
X016828Y015368D01*
X016828Y015269D02*
X016128Y015269D01*
X016128Y015171D02*
X016828Y015171D01*
X016828Y015072D02*
X016128Y015072D01*
X016269Y014974D02*
X016686Y014974D01*
X016588Y014875D02*
X016367Y014875D01*
X016448Y014777D02*
X016508Y014777D01*
X016508Y014678D02*
X016448Y014678D01*
X016448Y014580D02*
X016508Y014580D01*
X016508Y014481D02*
X016448Y014481D01*
X016425Y014383D02*
X016530Y014383D01*
X016506Y014284D02*
X016629Y014284D01*
X016604Y014186D02*
X016727Y014186D01*
X016628Y014087D02*
X017278Y014087D01*
X017254Y013989D02*
X017328Y013989D01*
X017478Y014100D02*
X016978Y014600D01*
X016978Y016600D01*
X017299Y016944D02*
X019469Y016944D01*
X019371Y017042D02*
X018811Y017042D01*
X018828Y017141D02*
X019323Y017141D01*
X019338Y017535D02*
X018828Y017535D01*
X018828Y017633D02*
X019407Y017633D01*
X019728Y017350D02*
X019758Y017320D01*
X019728Y017350D02*
X018228Y017350D01*
X017644Y017042D02*
X017139Y017042D01*
X017385Y016845D02*
X019978Y016845D01*
X019978Y016747D02*
X019955Y016747D01*
X019560Y016747D02*
X017426Y016747D01*
X017448Y016648D02*
X017634Y016648D01*
X017628Y016550D02*
X017448Y016550D01*
X017425Y016451D02*
X017628Y016451D01*
X017628Y016353D02*
X017384Y016353D01*
X017296Y016254D02*
X017628Y016254D01*
X017628Y016156D02*
X017133Y016156D01*
X017128Y016057D02*
X017629Y016057D01*
X017128Y015959D02*
X019454Y015959D01*
X019358Y016057D02*
X018826Y016057D01*
X018828Y016156D02*
X019317Y016156D01*
X019344Y016550D02*
X018828Y016550D01*
X018821Y016648D02*
X019422Y016648D01*
X019728Y016350D02*
X019758Y016320D01*
X019728Y016350D02*
X018228Y016350D01*
X017628Y017141D02*
X006378Y017141D01*
X006378Y017239D02*
X017628Y017239D01*
X017628Y017338D02*
X006378Y017338D01*
X006378Y017436D02*
X006582Y017436D01*
X006582Y017535D02*
X006378Y017535D01*
X006378Y017633D02*
X006582Y017633D01*
X006582Y017732D02*
X006378Y017732D01*
X006378Y017830D02*
X006582Y017830D01*
X006582Y017929D02*
X006378Y017929D01*
X006378Y018027D02*
X006588Y018027D01*
X006378Y018126D02*
X019202Y018126D01*
X019056Y018224D02*
X006378Y018224D01*
X006378Y018323D02*
X018958Y018323D01*
X018859Y018421D02*
X018420Y018421D01*
X018494Y018452D02*
X018321Y018380D01*
X018134Y018380D01*
X017961Y018452D01*
X017829Y018584D01*
X017758Y018757D01*
X017758Y018943D01*
X017829Y019116D01*
X017961Y019248D01*
X018134Y019320D01*
X018321Y019320D01*
X018494Y019248D01*
X018626Y019116D01*
X018698Y018943D01*
X018698Y018757D01*
X018626Y018584D01*
X018494Y018452D01*
X018562Y018520D02*
X018808Y018520D01*
X018728Y018618D02*
X018640Y018618D01*
X018681Y018717D02*
X018728Y018717D01*
X018728Y018815D02*
X018698Y018815D01*
X018698Y018914D02*
X018728Y018914D01*
X018728Y019012D02*
X018669Y019012D01*
X018628Y019111D02*
X018717Y019111D01*
X018619Y019209D02*
X018533Y019209D01*
X018520Y019308D02*
X018351Y019308D01*
X018104Y019308D02*
X017351Y019308D01*
X017321Y019320D02*
X017134Y019320D01*
X016961Y019248D01*
X016829Y019116D01*
X016758Y018943D01*
X016758Y018757D01*
X016829Y018584D01*
X016961Y018452D01*
X017134Y018380D01*
X017321Y018380D01*
X017494Y018452D01*
X017626Y018584D01*
X017698Y018757D01*
X017698Y018943D01*
X017626Y019116D01*
X017494Y019248D01*
X017321Y019320D01*
X017104Y019308D02*
X016351Y019308D01*
X016321Y019320D02*
X016134Y019320D01*
X015961Y019248D01*
X015829Y019116D01*
X015758Y018943D01*
X015758Y018757D01*
X015829Y018584D01*
X015961Y018452D01*
X016134Y018380D01*
X016321Y018380D01*
X016494Y018452D01*
X016626Y018584D01*
X016698Y018757D01*
X016698Y018943D01*
X016626Y019116D01*
X016494Y019248D01*
X016321Y019320D01*
X016104Y019308D02*
X015351Y019308D01*
X015321Y019320D02*
X015134Y019320D01*
X014961Y019248D01*
X014829Y019116D01*
X014758Y018943D01*
X014758Y018757D01*
X014829Y018584D01*
X014961Y018452D01*
X015134Y018380D01*
X015321Y018380D01*
X015494Y018452D01*
X015626Y018584D01*
X015698Y018757D01*
X015698Y018943D01*
X015626Y019116D01*
X015494Y019248D01*
X015321Y019320D01*
X015104Y019308D02*
X014351Y019308D01*
X014321Y019320D02*
X014134Y019320D01*
X013961Y019248D01*
X013829Y019116D01*
X013758Y018943D01*
X013758Y018757D01*
X013829Y018584D01*
X013961Y018452D01*
X014134Y018380D01*
X014321Y018380D01*
X014494Y018452D01*
X014626Y018584D01*
X014698Y018757D01*
X014698Y018943D01*
X014626Y019116D01*
X014494Y019248D01*
X014321Y019320D01*
X014104Y019308D02*
X013351Y019308D01*
X013321Y019320D02*
X013494Y019248D01*
X013626Y019116D01*
X013698Y018943D01*
X013698Y018757D01*
X013626Y018584D01*
X013494Y018452D01*
X013321Y018380D01*
X013134Y018380D01*
X012961Y018452D01*
X012829Y018584D01*
X012758Y018757D01*
X012758Y018943D01*
X012829Y019116D01*
X012961Y019248D01*
X013134Y019320D01*
X013321Y019320D01*
X013104Y019308D02*
X012351Y019308D01*
X012321Y019320D02*
X012134Y019320D01*
X011961Y019248D01*
X011829Y019116D01*
X011758Y018943D01*
X011758Y018757D01*
X011829Y018584D01*
X011961Y018452D01*
X012134Y018380D01*
X012321Y018380D01*
X012494Y018452D01*
X012626Y018584D01*
X012698Y018757D01*
X012698Y018943D01*
X012626Y019116D01*
X012494Y019248D01*
X012321Y019320D01*
X012104Y019308D02*
X011351Y019308D01*
X011321Y019320D02*
X011134Y019320D01*
X010961Y019248D01*
X010829Y019116D01*
X010758Y018943D01*
X010758Y018757D01*
X010829Y018584D01*
X010961Y018452D01*
X011134Y018380D01*
X011321Y018380D01*
X011494Y018452D01*
X011626Y018584D01*
X011698Y018757D01*
X011698Y018943D01*
X011626Y019116D01*
X011494Y019248D01*
X011321Y019320D01*
X011104Y019308D02*
X010351Y019308D01*
X010321Y019320D02*
X010134Y019320D01*
X009961Y019248D01*
X009829Y019116D01*
X009758Y018943D01*
X009758Y018757D01*
X009829Y018584D01*
X009961Y018452D01*
X010134Y018380D01*
X010321Y018380D01*
X010494Y018452D01*
X010626Y018584D01*
X010698Y018757D01*
X010698Y018943D01*
X010626Y019116D01*
X010494Y019248D01*
X010321Y019320D01*
X010104Y019308D02*
X009351Y019308D01*
X009321Y019320D02*
X009134Y019320D01*
X008961Y019248D01*
X008829Y019116D01*
X008758Y018943D01*
X008758Y018757D01*
X008829Y018584D01*
X008961Y018452D01*
X009134Y018380D01*
X009321Y018380D01*
X009494Y018452D01*
X009626Y018584D01*
X009698Y018757D01*
X009698Y018943D01*
X009626Y019116D01*
X009494Y019248D01*
X009321Y019320D01*
X009104Y019308D02*
X008351Y019308D01*
X008533Y019209D02*
X008922Y019209D01*
X008827Y019111D02*
X008628Y019111D01*
X008669Y019012D02*
X008786Y019012D01*
X008758Y018914D02*
X008698Y018914D01*
X008698Y018815D02*
X008758Y018815D01*
X008774Y018717D02*
X008681Y018717D01*
X008640Y018618D02*
X008815Y018618D01*
X008893Y018520D02*
X008562Y018520D01*
X008420Y018421D02*
X009035Y018421D01*
X009420Y018421D02*
X010035Y018421D01*
X009893Y018520D02*
X009562Y018520D01*
X009640Y018618D02*
X009815Y018618D01*
X009774Y018717D02*
X009681Y018717D01*
X009698Y018815D02*
X009758Y018815D01*
X009758Y018914D02*
X009698Y018914D01*
X009669Y019012D02*
X009786Y019012D01*
X009827Y019111D02*
X009628Y019111D01*
X009533Y019209D02*
X009922Y019209D01*
X010533Y019209D02*
X010922Y019209D01*
X010827Y019111D02*
X010628Y019111D01*
X010669Y019012D02*
X010786Y019012D01*
X010758Y018914D02*
X010698Y018914D01*
X010698Y018815D02*
X010758Y018815D01*
X010774Y018717D02*
X010681Y018717D01*
X010640Y018618D02*
X010815Y018618D01*
X010893Y018520D02*
X010562Y018520D01*
X010420Y018421D02*
X011035Y018421D01*
X011420Y018421D02*
X012035Y018421D01*
X011893Y018520D02*
X011562Y018520D01*
X011640Y018618D02*
X011815Y018618D01*
X011774Y018717D02*
X011681Y018717D01*
X011698Y018815D02*
X011758Y018815D01*
X011758Y018914D02*
X011698Y018914D01*
X011669Y019012D02*
X011786Y019012D01*
X011827Y019111D02*
X011628Y019111D01*
X011533Y019209D02*
X011922Y019209D01*
X012533Y019209D02*
X012922Y019209D01*
X012827Y019111D02*
X012628Y019111D01*
X012669Y019012D02*
X012786Y019012D01*
X012758Y018914D02*
X012698Y018914D01*
X012698Y018815D02*
X012758Y018815D01*
X012774Y018717D02*
X012681Y018717D01*
X012640Y018618D02*
X012815Y018618D01*
X012893Y018520D02*
X012562Y018520D01*
X012420Y018421D02*
X013035Y018421D01*
X013420Y018421D02*
X014035Y018421D01*
X013893Y018520D02*
X013562Y018520D01*
X013640Y018618D02*
X013815Y018618D01*
X013774Y018717D02*
X013681Y018717D01*
X013698Y018815D02*
X013758Y018815D01*
X013758Y018914D02*
X013698Y018914D01*
X013669Y019012D02*
X013786Y019012D01*
X013827Y019111D02*
X013628Y019111D01*
X013533Y019209D02*
X013922Y019209D01*
X014533Y019209D02*
X014922Y019209D01*
X014827Y019111D02*
X014628Y019111D01*
X014669Y019012D02*
X014786Y019012D01*
X014758Y018914D02*
X014698Y018914D01*
X014698Y018815D02*
X014758Y018815D01*
X014774Y018717D02*
X014681Y018717D01*
X014640Y018618D02*
X014815Y018618D01*
X014893Y018520D02*
X014562Y018520D01*
X014420Y018421D02*
X015035Y018421D01*
X015420Y018421D02*
X016035Y018421D01*
X015893Y018520D02*
X015562Y018520D01*
X015640Y018618D02*
X015815Y018618D01*
X015774Y018717D02*
X015681Y018717D01*
X015698Y018815D02*
X015758Y018815D01*
X015758Y018914D02*
X015698Y018914D01*
X015669Y019012D02*
X015786Y019012D01*
X015827Y019111D02*
X015628Y019111D01*
X015533Y019209D02*
X015922Y019209D01*
X016533Y019209D02*
X016922Y019209D01*
X016827Y019111D02*
X016628Y019111D01*
X016669Y019012D02*
X016786Y019012D01*
X016758Y018914D02*
X016698Y018914D01*
X016698Y018815D02*
X016758Y018815D01*
X016774Y018717D02*
X016681Y018717D01*
X016640Y018618D02*
X016815Y018618D01*
X016893Y018520D02*
X016562Y018520D01*
X016420Y018421D02*
X017035Y018421D01*
X017420Y018421D02*
X018035Y018421D01*
X017893Y018520D02*
X017562Y018520D01*
X017640Y018618D02*
X017815Y018618D01*
X017774Y018717D02*
X017681Y018717D01*
X017698Y018815D02*
X017758Y018815D01*
X017758Y018914D02*
X017698Y018914D01*
X017669Y019012D02*
X017786Y019012D01*
X017827Y019111D02*
X017628Y019111D01*
X017533Y019209D02*
X017922Y019209D01*
X017628Y017633D02*
X007373Y017633D01*
X007373Y017535D02*
X017628Y017535D01*
X017628Y017436D02*
X007373Y017436D01*
X007035Y018421D02*
X006420Y018421D01*
X006562Y018520D02*
X006893Y018520D01*
X006815Y018618D02*
X006640Y018618D01*
X006681Y018717D02*
X006774Y018717D01*
X006758Y018815D02*
X006698Y018815D01*
X006698Y018914D02*
X006758Y018914D01*
X006786Y019012D02*
X006669Y019012D01*
X006628Y019111D02*
X006827Y019111D01*
X006922Y019209D02*
X006533Y019209D01*
X006035Y018421D02*
X005420Y018421D01*
X005378Y018323D02*
X006078Y018323D01*
X006078Y018224D02*
X005378Y018224D01*
X005378Y018126D02*
X006078Y018126D01*
X006078Y018027D02*
X005378Y018027D01*
X005378Y017929D02*
X006078Y017929D01*
X006078Y017830D02*
X005378Y017830D01*
X005378Y017732D02*
X006078Y017732D01*
X006078Y017633D02*
X005378Y017633D01*
X005378Y017535D02*
X006078Y017535D01*
X006078Y017436D02*
X005378Y017436D01*
X005378Y017338D02*
X006078Y017338D01*
X006078Y017239D02*
X005378Y017239D01*
X005378Y017141D02*
X006056Y017141D01*
X005957Y017042D02*
X005378Y017042D01*
X005378Y016944D02*
X005859Y016944D01*
X005878Y016057D02*
X006291Y016057D01*
X006244Y015959D02*
X005878Y015959D01*
X005878Y015860D02*
X006244Y015860D01*
X006244Y015762D02*
X005878Y015762D01*
X005878Y015663D02*
X006271Y015663D01*
X006299Y015565D02*
X005878Y015565D01*
X005878Y015466D02*
X006244Y015466D01*
X006244Y015368D02*
X005878Y015368D01*
X005878Y015269D02*
X006244Y015269D01*
X006264Y015171D02*
X005878Y015171D01*
X005878Y015072D02*
X007043Y015072D01*
X007066Y014974D02*
X007142Y014974D01*
X007165Y014875D02*
X007240Y014875D01*
X007263Y014777D02*
X007339Y014777D01*
X007362Y014678D02*
X007437Y014678D01*
X007460Y014580D02*
X007536Y014580D01*
X007559Y014481D02*
X007634Y014481D01*
X007657Y014383D02*
X007733Y014383D01*
X007756Y014284D02*
X007831Y014284D01*
X007854Y014186D02*
X007930Y014186D01*
X007953Y014087D02*
X008028Y014087D01*
X008051Y013989D02*
X008127Y013989D01*
X008150Y013890D02*
X008225Y013890D01*
X008248Y013792D02*
X008324Y013792D01*
X008347Y013693D02*
X008422Y013693D01*
X008378Y013595D02*
X008521Y013595D01*
X008619Y013496D02*
X008378Y013496D01*
X008378Y013398D02*
X008718Y013398D01*
X008816Y013299D02*
X008378Y013299D01*
X008378Y013201D02*
X008915Y013201D01*
X009013Y013102D02*
X008378Y013102D01*
X008378Y013004D02*
X009112Y013004D01*
X009210Y012905D02*
X008378Y012905D01*
X008378Y012807D02*
X009309Y012807D01*
X009407Y012708D02*
X008378Y012708D01*
X008378Y012610D02*
X009506Y012610D01*
X009604Y012511D02*
X008378Y012511D01*
X008378Y012413D02*
X014453Y012413D01*
X014551Y012314D02*
X008378Y012314D01*
X008378Y012216D02*
X014650Y012216D01*
X014748Y012117D02*
X008378Y012117D01*
X008378Y012019D02*
X010731Y012019D01*
X010783Y012070D02*
X010508Y011795D01*
X010508Y011405D01*
X010783Y011130D01*
X011172Y011130D01*
X011448Y011405D01*
X011448Y011795D01*
X011172Y012070D01*
X010783Y012070D01*
X010633Y011920D02*
X008378Y011920D01*
X008378Y011822D02*
X010534Y011822D01*
X010508Y011723D02*
X008378Y011723D01*
X008378Y011625D02*
X010508Y011625D01*
X010508Y011526D02*
X008378Y011526D01*
X008378Y011428D02*
X010508Y011428D01*
X010584Y011329D02*
X008378Y011329D01*
X008378Y011231D02*
X010682Y011231D01*
X010781Y011132D02*
X008378Y011132D01*
X008378Y011034D02*
X010746Y011034D01*
X010783Y011070D02*
X010508Y010795D01*
X010508Y010405D01*
X010783Y010130D01*
X011172Y010130D01*
X011448Y010405D01*
X011448Y010795D01*
X011172Y011070D01*
X010783Y011070D01*
X010648Y010935D02*
X008378Y010935D01*
X008453Y010837D02*
X010549Y010837D01*
X010508Y010738D02*
X008552Y010738D01*
X008650Y010640D02*
X010508Y010640D01*
X010508Y010541D02*
X008749Y010541D01*
X008847Y010443D02*
X010508Y010443D01*
X010569Y010344D02*
X008946Y010344D01*
X009044Y010246D02*
X010667Y010246D01*
X010766Y010147D02*
X009143Y010147D01*
X009241Y010049D02*
X015317Y010049D01*
X015328Y009950D02*
X009340Y009950D01*
X009438Y009852D02*
X015328Y009852D01*
X015328Y009753D02*
X009537Y009753D01*
X009635Y009655D02*
X015328Y009655D01*
X015328Y009556D02*
X009734Y009556D01*
X009728Y009350D02*
X008228Y010850D01*
X008228Y013600D01*
X006978Y014850D01*
X006580Y014850D01*
X006904Y014678D02*
X006937Y014678D01*
X006978Y014350D02*
X006580Y014350D01*
X006911Y014186D02*
X006930Y014186D01*
X006858Y014068D02*
X006302Y014068D01*
X006244Y014010D01*
X006244Y014000D01*
X005415Y014000D01*
X005165Y013750D01*
X005078Y013662D01*
X005078Y013162D01*
X004711Y012796D01*
X004711Y013010D01*
X004653Y013068D01*
X004153Y013068D01*
X004121Y013100D01*
X004153Y013132D01*
X004653Y013132D01*
X004711Y013190D01*
X004711Y013510D01*
X004653Y013568D01*
X004153Y013568D01*
X004093Y013628D01*
X003862Y013628D01*
X003699Y013465D01*
X003699Y013235D01*
X003834Y013100D01*
X003699Y012965D01*
X003699Y012735D01*
X003862Y012572D01*
X004093Y012572D01*
X004153Y012632D01*
X004547Y012632D01*
X004415Y012500D01*
X003915Y012500D01*
X003578Y012162D01*
X003578Y012070D01*
X003316Y012070D01*
X003258Y012011D01*
X003258Y011189D01*
X003316Y011130D01*
X003568Y011130D01*
X003568Y011100D01*
X003450Y011100D01*
X003391Y011041D01*
X003391Y010486D01*
X003450Y010427D01*
X004005Y010427D01*
X004064Y010486D01*
X004064Y011041D01*
X004005Y011100D01*
X003888Y011100D01*
X003888Y011130D01*
X004139Y011130D01*
X004198Y011189D01*
X004198Y012011D01*
X004139Y012070D01*
X003910Y012070D01*
X004040Y012200D01*
X004540Y012200D01*
X004578Y012238D01*
X004578Y012047D01*
X004461Y011998D01*
X004329Y011866D01*
X004258Y011693D01*
X004258Y011507D01*
X004329Y011334D01*
X004461Y011202D01*
X004568Y011158D01*
X004568Y011100D01*
X004450Y011100D01*
X004391Y011041D01*
X004391Y010486D01*
X004450Y010427D01*
X005005Y010427D01*
X005064Y010486D01*
X005064Y011041D01*
X005005Y011100D01*
X004888Y011100D01*
X004888Y011158D01*
X004994Y011202D01*
X005126Y011334D01*
X005198Y011507D01*
X005198Y011693D01*
X005126Y011866D01*
X004994Y011998D01*
X004878Y012047D01*
X004878Y012288D01*
X005790Y013200D01*
X006244Y013200D01*
X006244Y013190D01*
X006302Y013132D01*
X006858Y013132D01*
X006916Y013190D01*
X006916Y013510D01*
X006858Y013568D01*
X006302Y013568D01*
X006244Y013510D01*
X006244Y013500D01*
X005665Y013500D01*
X005378Y013212D01*
X005378Y013538D01*
X005540Y013700D01*
X006244Y013700D01*
X006244Y013690D01*
X006302Y013632D01*
X006858Y013632D01*
X006916Y013690D01*
X006916Y014010D01*
X006858Y014068D01*
X006916Y013989D02*
X007127Y013989D01*
X007028Y014087D02*
X001228Y014087D01*
X001228Y013989D02*
X004039Y013989D01*
X004039Y014010D02*
X004039Y013690D01*
X004098Y013632D01*
X004653Y013632D01*
X004711Y013690D01*
X004711Y014010D01*
X004653Y014068D01*
X004098Y014068D01*
X004039Y014010D01*
X004039Y013890D02*
X001228Y013890D01*
X001228Y013792D02*
X004039Y013792D01*
X004039Y013693D02*
X001228Y013693D01*
X001228Y013595D02*
X003829Y013595D01*
X003730Y013496D02*
X001228Y013496D01*
X001228Y013398D02*
X003699Y013398D01*
X003699Y013299D02*
X001228Y013299D01*
X001228Y013201D02*
X003734Y013201D01*
X003832Y013102D02*
X001228Y013102D01*
X001228Y013004D02*
X003738Y013004D01*
X003699Y012905D02*
X001228Y012905D01*
X001228Y012807D02*
X003699Y012807D01*
X003726Y012708D02*
X001228Y012708D01*
X001228Y012610D02*
X003825Y012610D01*
X003828Y012413D02*
X001228Y012413D01*
X001228Y012511D02*
X004426Y012511D01*
X004525Y012610D02*
X004130Y012610D01*
X003978Y012850D02*
X004375Y012850D01*
X004711Y012807D02*
X004722Y012807D01*
X004711Y012905D02*
X004820Y012905D01*
X004919Y013004D02*
X004711Y013004D01*
X004711Y013201D02*
X005078Y013201D01*
X005078Y013299D02*
X004711Y013299D01*
X004711Y013398D02*
X005078Y013398D01*
X005078Y013496D02*
X004711Y013496D01*
X004711Y013693D02*
X005108Y013693D01*
X005078Y013595D02*
X004126Y013595D01*
X003978Y013350D02*
X004375Y013350D01*
X004123Y013102D02*
X005017Y013102D01*
X005228Y013100D02*
X004478Y012350D01*
X003978Y012350D01*
X003728Y012100D01*
X003728Y011600D01*
X004198Y011625D02*
X004258Y011625D01*
X004270Y011723D02*
X004198Y011723D01*
X004198Y011822D02*
X004311Y011822D01*
X004383Y011920D02*
X004198Y011920D01*
X004190Y012019D02*
X004510Y012019D01*
X004578Y012117D02*
X003957Y012117D01*
X003729Y012314D02*
X001228Y012314D01*
X001228Y012216D02*
X003631Y012216D01*
X003578Y012117D02*
X001228Y012117D01*
X001228Y012019D02*
X003265Y012019D01*
X003258Y011920D02*
X001228Y011920D01*
X001228Y011822D02*
X003258Y011822D01*
X003258Y011723D02*
X001228Y011723D01*
X001228Y011625D02*
X003258Y011625D01*
X003258Y011526D02*
X001228Y011526D01*
X001228Y011428D02*
X003258Y011428D01*
X003258Y011329D02*
X001228Y011329D01*
X001228Y011231D02*
X003258Y011231D01*
X003314Y011132D02*
X001228Y011132D01*
X001228Y011034D02*
X003391Y011034D01*
X003391Y010935D02*
X001228Y010935D01*
X001228Y010837D02*
X003391Y010837D01*
X003391Y010738D02*
X001228Y010738D01*
X001228Y010640D02*
X003391Y010640D01*
X003391Y010541D02*
X001228Y010541D01*
X001228Y010443D02*
X003435Y010443D01*
X003450Y010273D02*
X003391Y010214D01*
X003391Y009659D01*
X003450Y009600D01*
X004005Y009600D01*
X004064Y009659D01*
X004064Y009787D01*
X004391Y009787D01*
X004391Y009659D01*
X004450Y009600D01*
X005005Y009600D01*
X005064Y009659D01*
X005064Y009787D01*
X005391Y009787D01*
X005391Y009659D01*
X005450Y009600D01*
X006005Y009600D01*
X006064Y009659D01*
X006064Y009787D01*
X006391Y009787D01*
X006391Y009659D01*
X006450Y009600D01*
X007005Y009600D01*
X007064Y009659D01*
X007064Y009777D01*
X007313Y009777D01*
X007313Y009427D01*
X007371Y009368D01*
X008084Y009368D01*
X008143Y009427D01*
X008143Y010021D01*
X008084Y010080D01*
X007598Y010080D01*
X007581Y010097D01*
X007064Y010097D01*
X007064Y010214D01*
X007005Y010273D01*
X006450Y010273D01*
X006391Y010214D01*
X006391Y010087D01*
X006064Y010087D01*
X006064Y010214D01*
X006005Y010273D01*
X005450Y010273D01*
X005391Y010214D01*
X005391Y010087D01*
X005064Y010087D01*
X005064Y010214D01*
X005005Y010273D01*
X004450Y010273D01*
X004391Y010214D01*
X004391Y010087D01*
X004064Y010087D01*
X004064Y010214D01*
X004005Y010273D01*
X003450Y010273D01*
X003423Y010246D02*
X001228Y010246D01*
X001228Y010344D02*
X008021Y010344D01*
X007923Y010443D02*
X007021Y010443D01*
X007005Y010427D02*
X007064Y010486D01*
X007064Y011041D01*
X007005Y011100D01*
X006888Y011100D01*
X006888Y011158D01*
X006994Y011202D01*
X007126Y011334D01*
X007198Y011507D01*
X007198Y011693D01*
X007126Y011866D01*
X006994Y011998D01*
X006821Y012070D01*
X006634Y012070D01*
X006461Y011998D01*
X006329Y011866D01*
X006258Y011693D01*
X006258Y011507D01*
X006329Y011334D01*
X006461Y011202D01*
X006568Y011158D01*
X006568Y011100D01*
X006450Y011100D01*
X006391Y011041D01*
X006391Y010486D01*
X006450Y010427D01*
X007005Y010427D01*
X007064Y010541D02*
X007824Y010541D01*
X007726Y010640D02*
X007064Y010640D01*
X007064Y010738D02*
X007627Y010738D01*
X007578Y010837D02*
X007064Y010837D01*
X007064Y010935D02*
X007578Y010935D01*
X007578Y011034D02*
X007064Y011034D01*
X007023Y011231D02*
X007578Y011231D01*
X007578Y011329D02*
X007121Y011329D01*
X007165Y011428D02*
X007578Y011428D01*
X007578Y011526D02*
X007198Y011526D01*
X007198Y011625D02*
X007578Y011625D01*
X007578Y011723D02*
X007185Y011723D01*
X007145Y011822D02*
X007578Y011822D01*
X007578Y011920D02*
X007072Y011920D01*
X006945Y012019D02*
X007578Y012019D01*
X007578Y012117D02*
X005878Y012117D01*
X005878Y012047D02*
X005878Y012538D01*
X006040Y012700D01*
X006244Y012700D01*
X006244Y012690D01*
X006302Y012632D01*
X006858Y012632D01*
X006916Y012690D01*
X006916Y013010D01*
X006858Y013068D01*
X006302Y013068D01*
X006244Y013010D01*
X006244Y013000D01*
X005915Y013000D01*
X005665Y012750D01*
X005578Y012662D01*
X005578Y012047D01*
X005461Y011998D01*
X005329Y011866D01*
X005258Y011693D01*
X005258Y011507D01*
X005329Y011334D01*
X005461Y011202D01*
X005568Y011158D01*
X005568Y011100D01*
X005450Y011100D01*
X005391Y011041D01*
X005391Y010486D01*
X005450Y010427D01*
X006005Y010427D01*
X006064Y010486D01*
X006064Y011041D01*
X006005Y011100D01*
X005888Y011100D01*
X005888Y011158D01*
X005994Y011202D01*
X006126Y011334D01*
X006198Y011507D01*
X006198Y011693D01*
X006126Y011866D01*
X005994Y011998D01*
X005878Y012047D01*
X005945Y012019D02*
X006510Y012019D01*
X006383Y011920D02*
X006072Y011920D01*
X006145Y011822D02*
X006311Y011822D01*
X006270Y011723D02*
X006185Y011723D01*
X006198Y011625D02*
X006258Y011625D01*
X006258Y011526D02*
X006198Y011526D01*
X006165Y011428D02*
X006290Y011428D01*
X006334Y011329D02*
X006121Y011329D01*
X006023Y011231D02*
X006432Y011231D01*
X006568Y011132D02*
X005888Y011132D01*
X006064Y011034D02*
X006391Y011034D01*
X006391Y010935D02*
X006064Y010935D01*
X006064Y010837D02*
X006391Y010837D01*
X006391Y010738D02*
X006064Y010738D01*
X006064Y010640D02*
X006391Y010640D01*
X006391Y010541D02*
X006064Y010541D01*
X006021Y010443D02*
X006435Y010443D01*
X006423Y010246D02*
X006032Y010246D01*
X006064Y010147D02*
X006391Y010147D01*
X006391Y009753D02*
X006064Y009753D01*
X006059Y009655D02*
X006396Y009655D01*
X006728Y009937D02*
X005728Y009937D01*
X004728Y009937D01*
X003728Y009937D01*
X004064Y009753D02*
X004391Y009753D01*
X004396Y009655D02*
X004059Y009655D01*
X004064Y010147D02*
X004391Y010147D01*
X004423Y010246D02*
X004032Y010246D01*
X004021Y010443D02*
X004435Y010443D01*
X004391Y010541D02*
X004064Y010541D01*
X004064Y010640D02*
X004391Y010640D01*
X004391Y010738D02*
X004064Y010738D01*
X004064Y010837D02*
X004391Y010837D01*
X004391Y010935D02*
X004064Y010935D01*
X004064Y011034D02*
X004391Y011034D01*
X004432Y011231D02*
X004198Y011231D01*
X004198Y011329D02*
X004334Y011329D01*
X004290Y011428D02*
X004198Y011428D01*
X004198Y011526D02*
X004258Y011526D01*
X004141Y011132D02*
X004568Y011132D01*
X004888Y011132D02*
X005568Y011132D01*
X005432Y011231D02*
X005023Y011231D01*
X005121Y011329D02*
X005334Y011329D01*
X005290Y011428D02*
X005165Y011428D01*
X005198Y011526D02*
X005258Y011526D01*
X005258Y011625D02*
X005198Y011625D01*
X005185Y011723D02*
X005270Y011723D01*
X005311Y011822D02*
X005145Y011822D01*
X005072Y011920D02*
X005383Y011920D01*
X005510Y012019D02*
X004945Y012019D01*
X004878Y012117D02*
X005578Y012117D01*
X005578Y012216D02*
X004878Y012216D01*
X004904Y012314D02*
X005578Y012314D01*
X005578Y012413D02*
X005002Y012413D01*
X005101Y012511D02*
X005578Y012511D01*
X005578Y012610D02*
X005199Y012610D01*
X005298Y012708D02*
X005623Y012708D01*
X005722Y012807D02*
X005396Y012807D01*
X005495Y012905D02*
X005820Y012905D01*
X005978Y012850D02*
X005728Y012600D01*
X005728Y011600D01*
X005878Y012216D02*
X007578Y012216D01*
X007578Y012314D02*
X005878Y012314D01*
X005878Y012413D02*
X007578Y012413D01*
X007578Y012511D02*
X005878Y012511D01*
X005949Y012610D02*
X007578Y012610D01*
X007578Y012708D02*
X006916Y012708D01*
X006916Y012807D02*
X007578Y012807D01*
X007578Y012905D02*
X006916Y012905D01*
X006916Y013004D02*
X007578Y013004D01*
X007578Y013102D02*
X005692Y013102D01*
X005593Y013004D02*
X006244Y013004D01*
X005978Y012850D02*
X006580Y012850D01*
X006916Y013201D02*
X007578Y013201D01*
X007578Y013299D02*
X006916Y013299D01*
X006916Y013398D02*
X007578Y013398D01*
X007578Y013496D02*
X006916Y013496D01*
X006916Y013693D02*
X007422Y013693D01*
X007324Y013792D02*
X006916Y013792D01*
X006916Y013890D02*
X007225Y013890D01*
X007521Y013595D02*
X005434Y013595D01*
X005378Y013496D02*
X005661Y013496D01*
X005563Y013398D02*
X005378Y013398D01*
X005378Y013299D02*
X005464Y013299D01*
X005728Y013350D02*
X004728Y012350D01*
X004728Y011600D01*
X004578Y012216D02*
X004555Y012216D01*
X005228Y013100D02*
X005228Y013600D01*
X005478Y013850D01*
X006580Y013850D01*
X006244Y013693D02*
X005533Y013693D01*
X005305Y013890D02*
X004711Y013890D01*
X004711Y013792D02*
X005207Y013792D01*
X005404Y013989D02*
X004711Y013989D01*
X004044Y014186D02*
X001228Y014186D01*
X001228Y014284D02*
X004039Y014284D01*
X004039Y014383D02*
X001228Y014383D01*
X001228Y014481D02*
X004039Y014481D01*
X005100Y014580D02*
X005245Y014580D01*
X005199Y014678D02*
X005343Y014678D01*
X005256Y014777D02*
X005442Y014777D01*
X005540Y014875D02*
X005256Y014875D01*
X005247Y014974D02*
X005578Y014974D01*
X005578Y015072D02*
X005149Y015072D01*
X004980Y015565D02*
X004656Y015565D01*
X004684Y015663D02*
X005078Y015663D01*
X005078Y015762D02*
X004851Y015762D01*
X004950Y015860D02*
X005078Y015860D01*
X005078Y015959D02*
X005048Y015959D01*
X004478Y017100D02*
X003228Y018350D01*
X003228Y018850D01*
X004228Y018850D02*
X004228Y017600D01*
X003634Y017732D02*
X001859Y017732D01*
X001761Y017633D02*
X002128Y017633D01*
X002128Y017535D02*
X001806Y017535D01*
X001796Y017141D02*
X002128Y017141D01*
X002144Y017042D02*
X001731Y017042D01*
X005728Y013350D02*
X006580Y013350D01*
X006978Y014350D02*
X007728Y013600D01*
X007728Y010850D01*
X010478Y008100D01*
X014228Y008100D01*
X014478Y007850D01*
X014478Y006100D01*
X014978Y005600D01*
X015264Y005222D02*
X015328Y005222D01*
X015289Y005124D02*
X013416Y005124D01*
X013318Y005222D02*
X013691Y005222D01*
X013783Y005130D02*
X013508Y005405D01*
X013508Y005795D01*
X013539Y005826D01*
X013415Y005950D01*
X013292Y005950D01*
X013448Y005795D01*
X013448Y005405D01*
X013291Y005249D01*
X013626Y004913D01*
X013783Y005070D01*
X014172Y005070D01*
X014448Y004795D01*
X014448Y004405D01*
X014172Y004130D01*
X013783Y004130D01*
X013508Y004405D01*
X013508Y004608D01*
X013448Y004668D01*
X013448Y004405D01*
X013172Y004130D01*
X013128Y004130D01*
X013128Y004038D01*
X013040Y003950D01*
X011790Y002700D01*
X010790Y002700D01*
X010378Y002288D01*
X010378Y001547D01*
X010494Y001498D01*
X010626Y001366D01*
X010698Y001193D01*
X010698Y001007D01*
X010626Y000834D01*
X010494Y000702D01*
X010321Y000630D01*
X010134Y000630D01*
X009961Y000702D01*
X009829Y000834D01*
X009758Y001007D01*
X009758Y001193D01*
X009829Y001366D01*
X009961Y001498D01*
X010078Y001547D01*
X010078Y002412D01*
X010578Y002912D01*
X010665Y003000D01*
X011665Y003000D01*
X012795Y004130D01*
X012783Y004130D01*
X012628Y004285D01*
X012628Y004038D01*
X012540Y003950D01*
X012290Y003700D01*
X007540Y003700D01*
X007378Y003538D01*
X007378Y001547D01*
X007494Y001498D01*
X007626Y001366D01*
X007698Y001193D01*
X007698Y001007D01*
X007626Y000834D01*
X007494Y000702D01*
X007321Y000630D01*
X007134Y000630D01*
X006961Y000702D01*
X006829Y000834D01*
X006758Y001007D01*
X006758Y001193D01*
X006829Y001366D01*
X006961Y001498D01*
X007078Y001547D01*
X007078Y003662D01*
X007328Y003912D01*
X007365Y003950D01*
X006540Y003950D01*
X006506Y003916D01*
X006506Y003735D01*
X006378Y003607D01*
X006378Y001547D01*
X006494Y001498D01*
X006626Y001366D01*
X006698Y001193D01*
X006698Y001007D01*
X006626Y000834D01*
X006494Y000702D01*
X006321Y000630D01*
X006134Y000630D01*
X005961Y000702D01*
X005829Y000834D01*
X005758Y001007D01*
X005758Y001193D01*
X005829Y001366D01*
X005961Y001498D01*
X006078Y001547D01*
X006078Y003607D01*
X005949Y003735D01*
X005949Y003965D01*
X006112Y004128D01*
X006294Y004128D01*
X006328Y004162D01*
X006365Y004200D01*
X004540Y004200D01*
X004378Y004038D01*
X004378Y001547D01*
X004494Y001498D01*
X004626Y001366D01*
X004698Y001193D01*
X004698Y001007D01*
X004626Y000834D01*
X004494Y000702D01*
X004321Y000630D01*
X004134Y000630D01*
X003961Y000702D01*
X003829Y000834D01*
X003758Y001007D01*
X003758Y001193D01*
X003829Y001366D01*
X003961Y001498D01*
X004078Y001547D01*
X004078Y004162D01*
X004328Y004412D01*
X004415Y004500D01*
X010508Y004500D01*
X010508Y004795D01*
X010783Y005070D01*
X011172Y005070D01*
X011448Y004795D01*
X011448Y004405D01*
X011292Y004250D01*
X011415Y004250D01*
X011539Y004374D01*
X011508Y004405D01*
X011508Y004795D01*
X011783Y005070D01*
X012172Y005070D01*
X012329Y004913D01*
X012578Y005162D01*
X012664Y005249D01*
X012508Y005405D01*
X012508Y005795D01*
X012663Y005950D01*
X012292Y005950D01*
X012448Y005795D01*
X012448Y005405D01*
X012172Y005130D01*
X011783Y005130D01*
X011508Y005405D01*
X011508Y005795D01*
X011663Y005950D01*
X011292Y005950D01*
X011448Y005795D01*
X011448Y005405D01*
X011172Y005130D01*
X010783Y005130D01*
X010751Y005162D01*
X010540Y004950D01*
X003790Y004950D01*
X003378Y004538D01*
X003378Y001547D01*
X003494Y001498D01*
X003626Y001366D01*
X003698Y001193D01*
X003698Y001007D01*
X003626Y000834D01*
X003494Y000702D01*
X003321Y000630D01*
X003134Y000630D01*
X002961Y000702D01*
X002829Y000834D01*
X002758Y001007D01*
X002758Y001193D01*
X002829Y001366D01*
X002961Y001498D01*
X003078Y001547D01*
X003078Y004662D01*
X003578Y005162D01*
X003665Y005250D01*
X010415Y005250D01*
X010539Y005374D01*
X010508Y005405D01*
X010508Y005668D01*
X010290Y005450D01*
X005721Y005450D01*
X005593Y005322D01*
X005362Y005322D01*
X005199Y005485D01*
X005199Y005715D01*
X005362Y005878D01*
X005593Y005878D01*
X005721Y005750D01*
X010165Y005750D01*
X010578Y006162D01*
X010665Y006250D01*
X013540Y006250D01*
X013751Y006038D01*
X013783Y006070D01*
X014172Y006070D01*
X014448Y005795D01*
X014448Y005405D01*
X014172Y005130D01*
X013783Y005130D01*
X013738Y005025D02*
X013515Y005025D01*
X013613Y004927D02*
X013639Y004927D01*
X013484Y004631D02*
X013448Y004631D01*
X013448Y004533D02*
X013508Y004533D01*
X013508Y004434D02*
X013448Y004434D01*
X013378Y004336D02*
X013577Y004336D01*
X013676Y004237D02*
X013279Y004237D01*
X013181Y004139D02*
X013774Y004139D01*
X014181Y004139D02*
X014774Y004139D01*
X014828Y004040D02*
X013128Y004040D01*
X013031Y003942D02*
X014828Y003942D01*
X014828Y003843D02*
X012933Y003843D01*
X012834Y003745D02*
X014828Y003745D01*
X014811Y003646D02*
X012736Y003646D01*
X012637Y003548D02*
X014713Y003548D01*
X014614Y003449D02*
X012539Y003449D01*
X012440Y003351D02*
X014516Y003351D01*
X014417Y003252D02*
X012342Y003252D01*
X012243Y003154D02*
X014319Y003154D01*
X014220Y003055D02*
X012145Y003055D01*
X012046Y002957D02*
X014122Y002957D01*
X014078Y002858D02*
X011948Y002858D01*
X011849Y002760D02*
X014078Y002760D01*
X014078Y002661D02*
X010751Y002661D01*
X010652Y002563D02*
X014078Y002563D01*
X014078Y002464D02*
X011682Y002464D01*
X011709Y002437D02*
X011651Y002495D01*
X011056Y002495D01*
X010998Y002437D01*
X010998Y001763D01*
X011056Y001705D01*
X011068Y001705D01*
X011068Y001542D01*
X010961Y001498D01*
X010829Y001366D01*
X010758Y001193D01*
X010758Y001007D01*
X010829Y000834D01*
X010961Y000702D01*
X011134Y000630D01*
X011321Y000630D01*
X011494Y000702D01*
X011626Y000834D01*
X011698Y001007D01*
X011698Y001193D01*
X011626Y001366D01*
X011494Y001498D01*
X011388Y001542D01*
X011388Y001705D01*
X011651Y001705D01*
X011709Y001763D01*
X011709Y002437D01*
X011709Y002366D02*
X014078Y002366D01*
X014078Y002267D02*
X011709Y002267D01*
X011709Y002169D02*
X014078Y002169D01*
X014078Y002070D02*
X011709Y002070D01*
X011709Y001972D02*
X014078Y001972D01*
X014078Y001873D02*
X011709Y001873D01*
X011709Y001775D02*
X014078Y001775D01*
X014078Y001676D02*
X011388Y001676D01*
X011388Y001578D02*
X014078Y001578D01*
X013942Y001479D02*
X013513Y001479D01*
X013494Y001498D02*
X013321Y001570D01*
X013134Y001570D01*
X012961Y001498D01*
X012829Y001366D01*
X012758Y001193D01*
X012758Y001007D01*
X012829Y000834D01*
X012961Y000702D01*
X013134Y000630D01*
X013321Y000630D01*
X013494Y000702D01*
X013626Y000834D01*
X013698Y001007D01*
X013698Y001193D01*
X013626Y001366D01*
X013494Y001498D01*
X013612Y001381D02*
X013843Y001381D01*
X013794Y001282D02*
X013661Y001282D01*
X013698Y001184D02*
X013758Y001184D01*
X013758Y001085D02*
X013698Y001085D01*
X013689Y000987D02*
X013766Y000987D01*
X013807Y000888D02*
X013648Y000888D01*
X013582Y000790D02*
X013873Y000790D01*
X013987Y000691D02*
X013468Y000691D01*
X012987Y000691D02*
X012468Y000691D01*
X012494Y000702D02*
X012626Y000834D01*
X012698Y001007D01*
X012698Y001193D01*
X012626Y001366D01*
X012494Y001498D01*
X012321Y001570D01*
X012134Y001570D01*
X011961Y001498D01*
X011829Y001366D01*
X011758Y001193D01*
X011758Y001007D01*
X011829Y000834D01*
X011961Y000702D01*
X012134Y000630D01*
X012321Y000630D01*
X012494Y000702D01*
X012582Y000790D02*
X012873Y000790D01*
X012807Y000888D02*
X012648Y000888D01*
X012689Y000987D02*
X012766Y000987D01*
X012758Y001085D02*
X012698Y001085D01*
X012698Y001184D02*
X012758Y001184D01*
X012794Y001282D02*
X012661Y001282D01*
X012612Y001381D02*
X012843Y001381D01*
X012942Y001479D02*
X012513Y001479D01*
X011942Y001479D02*
X011513Y001479D01*
X011612Y001381D02*
X011843Y001381D01*
X011794Y001282D02*
X011661Y001282D01*
X011698Y001184D02*
X011758Y001184D01*
X011758Y001085D02*
X011698Y001085D01*
X011689Y000987D02*
X011766Y000987D01*
X011807Y000888D02*
X011648Y000888D01*
X011582Y000790D02*
X011873Y000790D01*
X011987Y000691D02*
X011468Y000691D01*
X010987Y000691D02*
X010468Y000691D01*
X010582Y000790D02*
X010873Y000790D01*
X010807Y000888D02*
X010648Y000888D01*
X010689Y000987D02*
X010766Y000987D01*
X010758Y001085D02*
X010698Y001085D01*
X010698Y001184D02*
X010758Y001184D01*
X010794Y001282D02*
X010661Y001282D01*
X010612Y001381D02*
X010843Y001381D01*
X010942Y001479D02*
X010513Y001479D01*
X010378Y001578D02*
X011068Y001578D01*
X011068Y001676D02*
X010378Y001676D01*
X010378Y001775D02*
X010998Y001775D01*
X010998Y001873D02*
X010378Y001873D01*
X010378Y001972D02*
X010998Y001972D01*
X010998Y002070D02*
X010378Y002070D01*
X010378Y002169D02*
X010998Y002169D01*
X010998Y002267D02*
X010378Y002267D01*
X010455Y002366D02*
X010998Y002366D01*
X011025Y002464D02*
X010554Y002464D01*
X010326Y002661D02*
X010001Y002661D01*
X010099Y002760D02*
X010425Y002760D01*
X010523Y002858D02*
X010198Y002858D01*
X010296Y002957D02*
X010622Y002957D01*
X010728Y002850D02*
X011728Y002850D01*
X012978Y004100D01*
X012978Y004600D01*
X012676Y004237D02*
X012628Y004237D01*
X012628Y004139D02*
X012774Y004139D01*
X012705Y004040D02*
X012628Y004040D01*
X012607Y003942D02*
X012531Y003942D01*
X012508Y003843D02*
X012433Y003843D01*
X012410Y003745D02*
X012334Y003745D01*
X012311Y003646D02*
X007486Y003646D01*
X007387Y003548D02*
X011282Y003548D01*
X011234Y003500D02*
X011362Y003628D01*
X011593Y003628D01*
X011756Y003465D01*
X011756Y003235D01*
X011593Y003072D01*
X011362Y003072D01*
X011234Y003200D01*
X010540Y003200D01*
X009378Y002038D01*
X009378Y001547D01*
X009494Y001498D01*
X009626Y001366D01*
X009698Y001193D01*
X009698Y001007D01*
X009626Y000834D01*
X009494Y000702D01*
X009321Y000630D01*
X009134Y000630D01*
X008961Y000702D01*
X008829Y000834D01*
X008758Y001007D01*
X008758Y001193D01*
X008829Y001366D01*
X008961Y001498D01*
X009078Y001547D01*
X009078Y002162D01*
X009165Y002250D01*
X009165Y002250D01*
X010328Y003412D01*
X010328Y003412D01*
X010415Y003500D01*
X011234Y003500D01*
X011478Y003350D02*
X010478Y003350D01*
X009228Y002100D01*
X009228Y001100D01*
X008843Y001381D02*
X008612Y001381D01*
X008626Y001366D02*
X008494Y001498D01*
X008378Y001547D01*
X008378Y002357D01*
X008506Y002485D01*
X008506Y002715D01*
X008343Y002878D01*
X008112Y002878D01*
X007949Y002715D01*
X007949Y002485D01*
X008078Y002357D01*
X008078Y001547D01*
X007961Y001498D01*
X007829Y001366D01*
X007758Y001193D01*
X007758Y001007D01*
X007829Y000834D01*
X007961Y000702D01*
X008134Y000630D01*
X008321Y000630D01*
X008494Y000702D01*
X008626Y000834D01*
X008698Y001007D01*
X008698Y001193D01*
X008626Y001366D01*
X008661Y001282D02*
X008794Y001282D01*
X008758Y001184D02*
X008698Y001184D01*
X008698Y001085D02*
X008758Y001085D01*
X008766Y000987D02*
X008689Y000987D01*
X008648Y000888D02*
X008807Y000888D01*
X008873Y000790D02*
X008582Y000790D01*
X008468Y000691D02*
X008987Y000691D01*
X009468Y000691D02*
X009987Y000691D01*
X009873Y000790D02*
X009582Y000790D01*
X009648Y000888D02*
X009807Y000888D01*
X009766Y000987D02*
X009689Y000987D01*
X009698Y001085D02*
X009758Y001085D01*
X009758Y001184D02*
X009698Y001184D01*
X009661Y001282D02*
X009794Y001282D01*
X009843Y001381D02*
X009612Y001381D01*
X009513Y001479D02*
X009942Y001479D01*
X010078Y001578D02*
X009378Y001578D01*
X009378Y001676D02*
X010078Y001676D01*
X010078Y001775D02*
X009378Y001775D01*
X009378Y001873D02*
X010078Y001873D01*
X010078Y001972D02*
X009378Y001972D01*
X009410Y002070D02*
X010078Y002070D01*
X010078Y002169D02*
X009508Y002169D01*
X009607Y002267D02*
X010078Y002267D01*
X010078Y002366D02*
X009705Y002366D01*
X009804Y002464D02*
X010129Y002464D01*
X010228Y002563D02*
X009902Y002563D01*
X009675Y002760D02*
X008461Y002760D01*
X008506Y002661D02*
X009576Y002661D01*
X009478Y002563D02*
X008506Y002563D01*
X008485Y002464D02*
X009379Y002464D01*
X009281Y002366D02*
X008386Y002366D01*
X008378Y002267D02*
X009182Y002267D01*
X009084Y002169D02*
X008378Y002169D01*
X008378Y002070D02*
X009078Y002070D01*
X009078Y001972D02*
X008378Y001972D01*
X008378Y001873D02*
X009078Y001873D01*
X009078Y001775D02*
X008378Y001775D01*
X008378Y001676D02*
X009078Y001676D01*
X009078Y001578D02*
X008378Y001578D01*
X008513Y001479D02*
X008942Y001479D01*
X008228Y001100D02*
X008228Y002100D01*
X008228Y002600D01*
X008363Y002858D02*
X009773Y002858D01*
X009872Y002957D02*
X007378Y002957D01*
X007378Y003055D02*
X009970Y003055D01*
X010069Y003154D02*
X007378Y003154D01*
X007378Y003252D02*
X010167Y003252D01*
X010266Y003351D02*
X007378Y003351D01*
X007378Y003449D02*
X010364Y003449D01*
X010493Y003154D02*
X011281Y003154D01*
X011674Y003154D02*
X011819Y003154D01*
X011756Y003252D02*
X011917Y003252D01*
X012016Y003351D02*
X011756Y003351D01*
X011756Y003449D02*
X012114Y003449D01*
X012213Y003548D02*
X011673Y003548D01*
X011720Y003055D02*
X010395Y003055D01*
X010728Y002850D02*
X010228Y002350D01*
X010228Y001100D01*
X008078Y001578D02*
X007378Y001578D01*
X007378Y001676D02*
X008078Y001676D01*
X008078Y001775D02*
X007378Y001775D01*
X007378Y001873D02*
X008078Y001873D01*
X008078Y001972D02*
X007378Y001972D01*
X007378Y002070D02*
X008078Y002070D01*
X008078Y002169D02*
X007378Y002169D01*
X007378Y002267D02*
X008078Y002267D01*
X008069Y002366D02*
X007378Y002366D01*
X007378Y002464D02*
X007970Y002464D01*
X007949Y002563D02*
X007378Y002563D01*
X007378Y002661D02*
X007949Y002661D01*
X007994Y002760D02*
X007378Y002760D01*
X007378Y002858D02*
X008092Y002858D01*
X007228Y003600D02*
X007478Y003850D01*
X012228Y003850D01*
X012478Y004100D01*
X012478Y004850D01*
X012728Y005100D01*
X013228Y005100D01*
X013728Y004600D01*
X013978Y004600D01*
X014316Y004927D02*
X014639Y004927D01*
X014738Y005025D02*
X014217Y005025D01*
X014264Y005222D02*
X014691Y005222D01*
X014592Y005321D02*
X014363Y005321D01*
X014448Y005419D02*
X014508Y005419D01*
X014508Y005518D02*
X014448Y005518D01*
X014448Y005616D02*
X014508Y005616D01*
X014508Y005715D02*
X014448Y005715D01*
X014429Y005813D02*
X014526Y005813D01*
X014454Y005912D02*
X014331Y005912D01*
X014355Y006010D02*
X014232Y006010D01*
X014328Y006109D02*
X013681Y006109D01*
X013583Y006207D02*
X014328Y006207D01*
X014328Y006306D02*
X010645Y006306D01*
X010622Y006207D02*
X010547Y006207D01*
X010524Y006109D02*
X010448Y006109D01*
X010425Y006010D02*
X010350Y006010D01*
X010327Y005912D02*
X006682Y005912D01*
X006478Y006100D02*
X010228Y006100D01*
X010728Y006600D01*
X011478Y006600D01*
X011978Y007100D01*
X011978Y007600D01*
X012448Y007586D02*
X012508Y007586D01*
X012508Y007488D02*
X012448Y007488D01*
X012431Y007389D02*
X012524Y007389D01*
X012622Y007291D02*
X012333Y007291D01*
X012234Y007192D02*
X012721Y007192D01*
X013234Y007192D02*
X013721Y007192D01*
X013622Y007291D02*
X013333Y007291D01*
X013431Y007389D02*
X013524Y007389D01*
X013508Y007488D02*
X013448Y007488D01*
X013448Y007586D02*
X013508Y007586D01*
X013508Y007685D02*
X013448Y007685D01*
X013448Y007783D02*
X013508Y007783D01*
X013594Y007882D02*
X013361Y007882D01*
X013318Y008276D02*
X013637Y008276D01*
X013539Y008374D02*
X013416Y008374D01*
X013448Y008473D02*
X013508Y008473D01*
X013508Y008571D02*
X013448Y008571D01*
X013448Y008670D02*
X013508Y008670D01*
X013508Y008768D02*
X013448Y008768D01*
X013376Y008867D02*
X013579Y008867D01*
X013678Y008965D02*
X013277Y008965D01*
X013179Y009064D02*
X013776Y009064D01*
X014478Y009350D02*
X009728Y009350D01*
X009726Y009064D02*
X010776Y009064D01*
X010678Y008965D02*
X009825Y008965D01*
X009923Y008867D02*
X010579Y008867D01*
X010508Y008768D02*
X010022Y008768D01*
X010120Y008670D02*
X010508Y008670D01*
X010508Y008571D02*
X010219Y008571D01*
X010317Y008473D02*
X010508Y008473D01*
X010539Y008374D02*
X010416Y008374D01*
X010514Y008276D02*
X010637Y008276D01*
X010385Y007980D02*
X001702Y007980D01*
X001702Y007882D02*
X010594Y007882D01*
X010508Y007783D02*
X001702Y007783D01*
X001702Y007685D02*
X010508Y007685D01*
X010508Y007586D02*
X001702Y007586D01*
X001702Y007488D02*
X010508Y007488D01*
X010524Y007389D02*
X001702Y007389D01*
X001702Y007291D02*
X010622Y007291D01*
X010721Y007192D02*
X001702Y007192D01*
X001702Y006995D02*
X011660Y006995D01*
X011562Y006897D02*
X001702Y006897D01*
X001702Y006798D02*
X002657Y006798D01*
X002602Y006743D02*
X002588Y006757D01*
X001954Y006757D01*
X001895Y006699D01*
X001895Y006478D01*
X001954Y006419D01*
X002588Y006419D01*
X002607Y006438D01*
X002621Y006438D01*
X002737Y006322D01*
X002968Y006322D01*
X003131Y006485D01*
X003131Y006715D01*
X002968Y006878D01*
X002737Y006878D01*
X002602Y006743D01*
X002853Y006600D02*
X002853Y006588D01*
X002271Y006588D01*
X002655Y006404D02*
X001702Y006404D01*
X001702Y006306D02*
X006290Y006306D01*
X006199Y006207D02*
X001702Y006207D01*
X001702Y006503D02*
X001895Y006503D01*
X001895Y006601D02*
X001702Y006601D01*
X001702Y006700D02*
X001896Y006700D01*
X001228Y007094D02*
X011759Y007094D01*
X011721Y007192D02*
X011234Y007192D01*
X011333Y007291D02*
X011622Y007291D01*
X011524Y007389D02*
X011431Y007389D01*
X011448Y007488D02*
X011508Y007488D01*
X011508Y007586D02*
X011448Y007586D01*
X011448Y007685D02*
X011508Y007685D01*
X011508Y007783D02*
X011448Y007783D01*
X011361Y007882D02*
X011594Y007882D01*
X011637Y008276D02*
X011318Y008276D01*
X011416Y008374D02*
X011539Y008374D01*
X011508Y008473D02*
X011448Y008473D01*
X011448Y008571D02*
X011508Y008571D01*
X011508Y008670D02*
X011448Y008670D01*
X011448Y008768D02*
X011508Y008768D01*
X011579Y008867D02*
X011376Y008867D01*
X011277Y008965D02*
X011678Y008965D01*
X011776Y009064D02*
X011179Y009064D01*
X012179Y009064D02*
X012776Y009064D01*
X012678Y008965D02*
X012277Y008965D01*
X012376Y008867D02*
X012579Y008867D01*
X012508Y008768D02*
X012448Y008768D01*
X012448Y008670D02*
X012508Y008670D01*
X012508Y008571D02*
X012448Y008571D01*
X012448Y008473D02*
X012508Y008473D01*
X012539Y008374D02*
X012416Y008374D01*
X012318Y008276D02*
X012637Y008276D01*
X012594Y007882D02*
X012361Y007882D01*
X012448Y007783D02*
X012508Y007783D01*
X012508Y007685D02*
X012448Y007685D01*
X012128Y007094D02*
X014328Y007094D01*
X014328Y007192D02*
X014234Y007192D01*
X014328Y006995D02*
X012085Y006995D01*
X011986Y006897D02*
X014328Y006897D01*
X014328Y006798D02*
X011888Y006798D01*
X011789Y006700D02*
X014328Y006700D01*
X014328Y006601D02*
X011691Y006601D01*
X011592Y006503D02*
X014328Y006503D01*
X014328Y006404D02*
X010744Y006404D01*
X010516Y006601D02*
X003131Y006601D01*
X003131Y006503D02*
X010418Y006503D01*
X010319Y006404D02*
X003050Y006404D01*
X003131Y006700D02*
X010615Y006700D01*
X010221Y006306D02*
X006665Y006306D01*
X006199Y006109D02*
X001228Y006109D01*
X001228Y006010D02*
X006199Y006010D01*
X006273Y005912D02*
X001702Y005912D01*
X001702Y005813D02*
X005297Y005813D01*
X005199Y005715D02*
X001702Y005715D01*
X001702Y005616D02*
X005199Y005616D01*
X005199Y005518D02*
X001702Y005518D01*
X001702Y005419D02*
X005265Y005419D01*
X005478Y005600D02*
X010228Y005600D01*
X010728Y006100D01*
X013478Y006100D01*
X013978Y005600D01*
X013592Y005321D02*
X013363Y005321D01*
X013448Y005419D02*
X013508Y005419D01*
X013508Y005518D02*
X013448Y005518D01*
X013448Y005616D02*
X013508Y005616D01*
X013508Y005715D02*
X013448Y005715D01*
X013429Y005813D02*
X013526Y005813D01*
X013454Y005912D02*
X013331Y005912D01*
X012624Y005912D02*
X012331Y005912D01*
X012429Y005813D02*
X012526Y005813D01*
X012508Y005715D02*
X012448Y005715D01*
X012448Y005616D02*
X012508Y005616D01*
X012508Y005518D02*
X012448Y005518D01*
X012448Y005419D02*
X012508Y005419D01*
X012592Y005321D02*
X012363Y005321D01*
X012264Y005222D02*
X012637Y005222D01*
X012539Y005124D02*
X010713Y005124D01*
X010738Y005025D02*
X010615Y005025D01*
X010639Y004927D02*
X003766Y004927D01*
X003668Y004828D02*
X010541Y004828D01*
X010508Y004730D02*
X003569Y004730D01*
X003471Y004631D02*
X010508Y004631D01*
X010508Y004533D02*
X003378Y004533D01*
X003378Y004434D02*
X004349Y004434D01*
X004251Y004336D02*
X003378Y004336D01*
X003378Y004237D02*
X004152Y004237D01*
X004078Y004139D02*
X003378Y004139D01*
X003378Y004040D02*
X004078Y004040D01*
X004078Y003942D02*
X003378Y003942D01*
X003378Y003843D02*
X004078Y003843D01*
X004078Y003745D02*
X003378Y003745D01*
X003378Y003646D02*
X004078Y003646D01*
X004078Y003548D02*
X003378Y003548D01*
X003378Y003449D02*
X004078Y003449D01*
X004078Y003351D02*
X003378Y003351D01*
X003378Y003252D02*
X004078Y003252D01*
X004078Y003154D02*
X003378Y003154D01*
X003378Y003055D02*
X004078Y003055D01*
X004078Y002957D02*
X003378Y002957D01*
X003378Y002858D02*
X004078Y002858D01*
X004078Y002760D02*
X003378Y002760D01*
X003378Y002661D02*
X004078Y002661D01*
X004078Y002563D02*
X003378Y002563D01*
X003378Y002464D02*
X004078Y002464D01*
X004078Y002366D02*
X003378Y002366D01*
X003378Y002267D02*
X004078Y002267D01*
X004078Y002169D02*
X003378Y002169D01*
X003378Y002070D02*
X004078Y002070D01*
X004078Y001972D02*
X003378Y001972D01*
X003378Y001873D02*
X004078Y001873D01*
X004078Y001775D02*
X003378Y001775D01*
X003378Y001676D02*
X004078Y001676D01*
X004078Y001578D02*
X003378Y001578D01*
X003513Y001479D02*
X003942Y001479D01*
X003843Y001381D02*
X003612Y001381D01*
X003661Y001282D02*
X003794Y001282D01*
X003758Y001184D02*
X003698Y001184D01*
X003698Y001085D02*
X003758Y001085D01*
X003766Y000987D02*
X003689Y000987D01*
X003648Y000888D02*
X003807Y000888D01*
X003873Y000790D02*
X003582Y000790D01*
X003468Y000691D02*
X003987Y000691D01*
X004228Y001100D02*
X004228Y004100D01*
X004478Y004350D01*
X010728Y004350D01*
X010978Y004600D01*
X011316Y004927D02*
X011639Y004927D01*
X011738Y005025D02*
X011217Y005025D01*
X011264Y005222D02*
X011691Y005222D01*
X011592Y005321D02*
X011363Y005321D01*
X011448Y005419D02*
X011508Y005419D01*
X011508Y005518D02*
X011448Y005518D01*
X011448Y005616D02*
X011508Y005616D01*
X011508Y005715D02*
X011448Y005715D01*
X011429Y005813D02*
X011526Y005813D01*
X011624Y005912D02*
X011331Y005912D01*
X010978Y005600D02*
X010478Y005100D01*
X003728Y005100D01*
X003228Y004600D01*
X003228Y001100D01*
X002794Y001282D02*
X002728Y001282D01*
X002728Y001184D02*
X002758Y001184D01*
X002758Y001085D02*
X002728Y001085D01*
X002728Y000987D02*
X002766Y000987D01*
X002728Y000888D02*
X002807Y000888D01*
X002788Y000790D02*
X002873Y000790D01*
X002887Y000691D02*
X002987Y000691D01*
X002843Y001381D02*
X002697Y001381D01*
X002599Y001479D02*
X002942Y001479D01*
X003078Y001578D02*
X002500Y001578D01*
X002402Y001676D02*
X003078Y001676D01*
X003078Y001775D02*
X002303Y001775D01*
X002205Y001873D02*
X003078Y001873D01*
X003078Y001972D02*
X002106Y001972D01*
X002175Y002070D02*
X002008Y002070D01*
X002037Y002169D02*
X001909Y002169D01*
X001976Y002230D02*
X002108Y002098D01*
X002281Y002026D01*
X002467Y002026D01*
X002640Y002098D01*
X002772Y002230D01*
X002844Y002403D01*
X002844Y002590D01*
X002796Y002706D01*
X002878Y002788D01*
X002878Y003500D01*
X003019Y003500D01*
X003078Y003559D01*
X003078Y004641D01*
X003019Y004700D01*
X002436Y004700D01*
X002378Y004641D01*
X002378Y003559D01*
X002436Y003500D01*
X002578Y003500D01*
X002578Y002921D01*
X002467Y002966D01*
X002281Y002966D01*
X002108Y002895D01*
X001976Y002763D01*
X001904Y002590D01*
X001904Y002403D01*
X001976Y002230D01*
X001960Y002267D02*
X001811Y002267D01*
X001712Y002366D02*
X001920Y002366D01*
X001904Y002464D02*
X001614Y002464D01*
X001515Y002563D02*
X001904Y002563D01*
X001933Y002661D02*
X001417Y002661D01*
X001511Y002760D02*
X001318Y002760D01*
X001348Y002858D02*
X001228Y002858D01*
X001228Y002957D02*
X001260Y002957D01*
X001667Y003204D02*
X001728Y003264D01*
X001728Y004100D01*
X002078Y004139D02*
X002378Y004139D01*
X002378Y004237D02*
X002078Y004237D01*
X002078Y004336D02*
X002378Y004336D01*
X002378Y004434D02*
X002078Y004434D01*
X002078Y004533D02*
X002378Y004533D01*
X002378Y004631D02*
X002078Y004631D01*
X001696Y005124D02*
X003539Y005124D01*
X003637Y005222D02*
X001702Y005222D01*
X001702Y005321D02*
X010486Y005321D01*
X010508Y005419D02*
X005690Y005419D01*
X005658Y005813D02*
X010228Y005813D01*
X010456Y005616D02*
X010508Y005616D01*
X010508Y005518D02*
X010357Y005518D01*
X011414Y004828D02*
X011541Y004828D01*
X011508Y004730D02*
X011448Y004730D01*
X011448Y004631D02*
X011508Y004631D01*
X011508Y004533D02*
X011448Y004533D01*
X011448Y004434D02*
X011508Y004434D01*
X011501Y004336D02*
X011378Y004336D01*
X011478Y004100D02*
X011978Y004600D01*
X012316Y004927D02*
X012342Y004927D01*
X012440Y005025D02*
X012217Y005025D01*
X011478Y004100D02*
X006478Y004100D01*
X006228Y003850D01*
X006228Y001100D01*
X006661Y001282D02*
X006794Y001282D01*
X006758Y001184D02*
X006698Y001184D01*
X006698Y001085D02*
X006758Y001085D01*
X006766Y000987D02*
X006689Y000987D01*
X006648Y000888D02*
X006807Y000888D01*
X006873Y000790D02*
X006582Y000790D01*
X006468Y000691D02*
X006987Y000691D01*
X007228Y001100D02*
X007228Y003600D01*
X007078Y003646D02*
X006417Y003646D01*
X006378Y003548D02*
X007078Y003548D01*
X007078Y003449D02*
X006378Y003449D01*
X006378Y003351D02*
X007078Y003351D01*
X007078Y003252D02*
X006378Y003252D01*
X006378Y003154D02*
X007078Y003154D01*
X007078Y003055D02*
X006378Y003055D01*
X006378Y002957D02*
X007078Y002957D01*
X007078Y002858D02*
X006378Y002858D01*
X006378Y002760D02*
X007078Y002760D01*
X007078Y002661D02*
X006378Y002661D01*
X006378Y002563D02*
X007078Y002563D01*
X007078Y002464D02*
X006378Y002464D01*
X006378Y002366D02*
X007078Y002366D01*
X007078Y002267D02*
X006378Y002267D01*
X006378Y002169D02*
X007078Y002169D01*
X007078Y002070D02*
X006378Y002070D01*
X006378Y001972D02*
X007078Y001972D01*
X007078Y001873D02*
X006378Y001873D01*
X006378Y001775D02*
X007078Y001775D01*
X007078Y001676D02*
X006378Y001676D01*
X006378Y001578D02*
X007078Y001578D01*
X006942Y001479D02*
X006513Y001479D01*
X006612Y001381D02*
X006843Y001381D01*
X007513Y001479D02*
X007942Y001479D01*
X007843Y001381D02*
X007612Y001381D01*
X007661Y001282D02*
X007794Y001282D01*
X007758Y001184D02*
X007698Y001184D01*
X007698Y001085D02*
X007758Y001085D01*
X007766Y000987D02*
X007689Y000987D01*
X007648Y000888D02*
X007807Y000888D01*
X007873Y000790D02*
X007582Y000790D01*
X007468Y000691D02*
X007987Y000691D01*
X005987Y000691D02*
X005468Y000691D01*
X005494Y000702D02*
X005626Y000834D01*
X005698Y001007D01*
X005698Y001193D01*
X005626Y001366D01*
X005494Y001498D01*
X005378Y001547D01*
X005378Y003607D01*
X005506Y003735D01*
X005506Y003965D01*
X005343Y004128D01*
X005112Y004128D01*
X004949Y003965D01*
X004949Y003735D01*
X005078Y003607D01*
X005078Y001547D01*
X004961Y001498D01*
X004829Y001366D01*
X004758Y001193D01*
X004758Y001007D01*
X004829Y000834D01*
X004961Y000702D01*
X005134Y000630D01*
X005321Y000630D01*
X005494Y000702D01*
X005582Y000790D02*
X005873Y000790D01*
X005807Y000888D02*
X005648Y000888D01*
X005689Y000987D02*
X005766Y000987D01*
X005758Y001085D02*
X005698Y001085D01*
X005698Y001184D02*
X005758Y001184D01*
X005794Y001282D02*
X005661Y001282D01*
X005612Y001381D02*
X005843Y001381D01*
X005942Y001479D02*
X005513Y001479D01*
X005378Y001578D02*
X006078Y001578D01*
X006078Y001676D02*
X005378Y001676D01*
X005378Y001775D02*
X006078Y001775D01*
X006078Y001873D02*
X005378Y001873D01*
X005378Y001972D02*
X006078Y001972D01*
X006078Y002070D02*
X005378Y002070D01*
X005378Y002169D02*
X006078Y002169D01*
X006078Y002267D02*
X005378Y002267D01*
X005378Y002366D02*
X006078Y002366D01*
X006078Y002464D02*
X005378Y002464D01*
X005378Y002563D02*
X006078Y002563D01*
X006078Y002661D02*
X005378Y002661D01*
X005378Y002760D02*
X006078Y002760D01*
X006078Y002858D02*
X005378Y002858D01*
X005378Y002957D02*
X006078Y002957D01*
X006078Y003055D02*
X005378Y003055D01*
X005378Y003154D02*
X006078Y003154D01*
X006078Y003252D02*
X005378Y003252D01*
X005378Y003351D02*
X006078Y003351D01*
X006078Y003449D02*
X005378Y003449D01*
X005378Y003548D02*
X006078Y003548D01*
X006038Y003646D02*
X005417Y003646D01*
X005506Y003745D02*
X005949Y003745D01*
X005949Y003843D02*
X005506Y003843D01*
X005506Y003942D02*
X005949Y003942D01*
X006024Y004040D02*
X005431Y004040D01*
X005228Y003850D02*
X005228Y001100D01*
X004794Y001282D02*
X004661Y001282D01*
X004698Y001184D02*
X004758Y001184D01*
X004758Y001085D02*
X004698Y001085D01*
X004689Y000987D02*
X004766Y000987D01*
X004807Y000888D02*
X004648Y000888D01*
X004582Y000790D02*
X004873Y000790D01*
X004987Y000691D02*
X004468Y000691D01*
X004612Y001381D02*
X004843Y001381D01*
X004942Y001479D02*
X004513Y001479D01*
X004378Y001578D02*
X005078Y001578D01*
X005078Y001676D02*
X004378Y001676D01*
X004378Y001775D02*
X005078Y001775D01*
X005078Y001873D02*
X004378Y001873D01*
X004378Y001972D02*
X005078Y001972D01*
X005078Y002070D02*
X004378Y002070D01*
X004378Y002169D02*
X005078Y002169D01*
X005078Y002267D02*
X004378Y002267D01*
X004378Y002366D02*
X005078Y002366D01*
X005078Y002464D02*
X004378Y002464D01*
X004378Y002563D02*
X005078Y002563D01*
X005078Y002661D02*
X004378Y002661D01*
X004378Y002760D02*
X005078Y002760D01*
X005078Y002858D02*
X004378Y002858D01*
X004378Y002957D02*
X005078Y002957D01*
X005078Y003055D02*
X004378Y003055D01*
X004378Y003154D02*
X005078Y003154D01*
X005078Y003252D02*
X004378Y003252D01*
X004378Y003351D02*
X005078Y003351D01*
X005078Y003449D02*
X004378Y003449D01*
X004378Y003548D02*
X005078Y003548D01*
X005038Y003646D02*
X004378Y003646D01*
X004378Y003745D02*
X004949Y003745D01*
X004949Y003843D02*
X004378Y003843D01*
X004378Y003942D02*
X004949Y003942D01*
X005024Y004040D02*
X004380Y004040D01*
X004478Y004139D02*
X006304Y004139D01*
X006531Y003942D02*
X007357Y003942D01*
X007258Y003843D02*
X006506Y003843D01*
X006506Y003745D02*
X007160Y003745D01*
X003440Y005025D02*
X001228Y005025D01*
X001228Y004927D02*
X003342Y004927D01*
X003243Y004828D02*
X001228Y004828D01*
X001228Y004730D02*
X003145Y004730D01*
X003078Y004631D02*
X003078Y004631D01*
X003078Y004533D02*
X003078Y004533D01*
X003078Y004434D02*
X003078Y004434D01*
X003078Y004336D02*
X003078Y004336D01*
X003078Y004237D02*
X003078Y004237D01*
X003078Y004139D02*
X003078Y004139D01*
X003078Y004040D02*
X003078Y004040D01*
X003078Y003942D02*
X003078Y003942D01*
X003078Y003843D02*
X003078Y003843D01*
X003078Y003745D02*
X003078Y003745D01*
X003078Y003646D02*
X003078Y003646D01*
X003066Y003548D02*
X003078Y003548D01*
X003078Y003449D02*
X002878Y003449D01*
X002878Y003351D02*
X003078Y003351D01*
X003078Y003252D02*
X002878Y003252D01*
X002878Y003154D02*
X003078Y003154D01*
X003078Y003055D02*
X002878Y003055D01*
X002878Y002957D02*
X003078Y002957D01*
X003078Y002858D02*
X002878Y002858D01*
X002849Y002760D02*
X003078Y002760D01*
X003078Y002661D02*
X002815Y002661D01*
X002844Y002563D02*
X003078Y002563D01*
X003078Y002464D02*
X002844Y002464D01*
X002828Y002366D02*
X003078Y002366D01*
X003078Y002267D02*
X002788Y002267D01*
X002711Y002169D02*
X003078Y002169D01*
X003078Y002070D02*
X002573Y002070D01*
X002374Y002496D02*
X002728Y002850D01*
X002728Y004100D01*
X002378Y004040D02*
X002078Y004040D01*
X002078Y003942D02*
X002378Y003942D01*
X002378Y003843D02*
X002078Y003843D01*
X002078Y003745D02*
X002378Y003745D01*
X002378Y003646D02*
X002078Y003646D01*
X002066Y003548D02*
X002389Y003548D01*
X002578Y003449D02*
X002074Y003449D01*
X002115Y003351D02*
X002578Y003351D01*
X002578Y003252D02*
X002137Y003252D01*
X002137Y003154D02*
X002578Y003154D01*
X002578Y003055D02*
X002114Y003055D01*
X002073Y002957D02*
X002257Y002957D01*
X002071Y002858D02*
X001986Y002858D01*
X001974Y002760D02*
X001823Y002760D01*
X002491Y002957D02*
X002578Y002957D01*
X001346Y003548D02*
X001228Y003548D01*
X001228Y003646D02*
X001378Y003646D01*
X001378Y003745D02*
X001228Y003745D01*
X001228Y003843D02*
X001378Y003843D01*
X001378Y003942D02*
X001228Y003942D01*
X001228Y004040D02*
X001378Y004040D01*
X001378Y004139D02*
X001228Y004139D01*
X001228Y004237D02*
X001378Y004237D01*
X001378Y004336D02*
X001228Y004336D01*
X001228Y004434D02*
X001378Y004434D01*
X001378Y004533D02*
X001228Y004533D01*
X001228Y004631D02*
X001378Y004631D01*
X001260Y003449D02*
X001228Y003449D01*
X003048Y006798D02*
X011463Y006798D01*
X010287Y008079D02*
X001228Y008079D01*
X001228Y008177D02*
X010188Y008177D01*
X010090Y008276D02*
X001698Y008276D01*
X001702Y008374D02*
X009991Y008374D01*
X009893Y008473D02*
X001702Y008473D01*
X001702Y008571D02*
X009794Y008571D01*
X009696Y008670D02*
X001702Y008670D01*
X001702Y008768D02*
X009597Y008768D01*
X009499Y008867D02*
X001702Y008867D01*
X001702Y008965D02*
X009400Y008965D01*
X009302Y009064D02*
X001702Y009064D01*
X001228Y009162D02*
X009203Y009162D01*
X009105Y009261D02*
X001228Y009261D01*
X001228Y009359D02*
X009006Y009359D01*
X008908Y009458D02*
X008143Y009458D01*
X008143Y009556D02*
X008809Y009556D01*
X008711Y009655D02*
X008143Y009655D01*
X008143Y009753D02*
X008612Y009753D01*
X008514Y009852D02*
X008143Y009852D01*
X008143Y009950D02*
X008415Y009950D01*
X008317Y010049D02*
X008115Y010049D01*
X008218Y010147D02*
X007064Y010147D01*
X007032Y010246D02*
X008120Y010246D01*
X007313Y009753D02*
X007064Y009753D01*
X007059Y009655D02*
X007313Y009655D01*
X007313Y009556D02*
X001228Y009556D01*
X001228Y009458D02*
X007313Y009458D01*
X007578Y011132D02*
X006888Y011132D01*
X005391Y011034D02*
X005064Y011034D01*
X005064Y010935D02*
X005391Y010935D01*
X005391Y010837D02*
X005064Y010837D01*
X005064Y010738D02*
X005391Y010738D01*
X005391Y010640D02*
X005064Y010640D01*
X005064Y010541D02*
X005391Y010541D01*
X005435Y010443D02*
X005021Y010443D01*
X005032Y010246D02*
X005423Y010246D01*
X005391Y010147D02*
X005064Y010147D01*
X005064Y009753D02*
X005391Y009753D01*
X005396Y009655D02*
X005059Y009655D01*
X003396Y009655D02*
X001228Y009655D01*
X001228Y009753D02*
X003391Y009753D01*
X003391Y009852D02*
X001228Y009852D01*
X001228Y009950D02*
X003391Y009950D01*
X003391Y010049D02*
X001228Y010049D01*
X001228Y010147D02*
X003391Y010147D01*
X005768Y014678D02*
X006256Y014678D01*
X006244Y014777D02*
X005866Y014777D01*
X005878Y014875D02*
X006244Y014875D01*
X006244Y014974D02*
X005878Y014974D01*
X006580Y015350D02*
X006978Y015350D01*
X009728Y012600D01*
X014478Y012600D01*
X014978Y012100D01*
X014978Y011600D01*
X014633Y011920D02*
X014322Y011920D01*
X014224Y012019D02*
X014731Y012019D01*
X014534Y011822D02*
X014421Y011822D01*
X014448Y011795D02*
X014172Y012070D01*
X013783Y012070D01*
X013508Y011795D01*
X013508Y011405D01*
X013783Y011130D01*
X014172Y011130D01*
X014448Y011405D01*
X014448Y011795D01*
X014448Y011723D02*
X014508Y011723D01*
X014508Y011625D02*
X014448Y011625D01*
X014448Y011526D02*
X014508Y011526D01*
X014508Y011428D02*
X014448Y011428D01*
X014371Y011329D02*
X014584Y011329D01*
X014682Y011231D02*
X014273Y011231D01*
X014174Y011132D02*
X014781Y011132D01*
X014746Y011034D02*
X014209Y011034D01*
X014172Y011070D02*
X013783Y011070D01*
X013508Y010795D01*
X013508Y010405D01*
X013783Y010130D01*
X014172Y010130D01*
X014448Y010405D01*
X014448Y010795D01*
X014172Y011070D01*
X014307Y010935D02*
X014648Y010935D01*
X014549Y010837D02*
X014406Y010837D01*
X014448Y010738D02*
X014508Y010738D01*
X014508Y010640D02*
X014448Y010640D01*
X014448Y010541D02*
X014508Y010541D01*
X014508Y010443D02*
X014448Y010443D01*
X014386Y010344D02*
X014569Y010344D01*
X014667Y010246D02*
X014288Y010246D01*
X014189Y010147D02*
X014766Y010147D01*
X015189Y010147D02*
X015218Y010147D01*
X015446Y010344D02*
X015569Y010344D01*
X015544Y010246D02*
X015667Y010246D01*
X015628Y010147D02*
X015766Y010147D01*
X015628Y010049D02*
X016328Y010049D01*
X016328Y010147D02*
X016189Y010147D01*
X016288Y010246D02*
X016328Y010246D01*
X016328Y009950D02*
X015628Y009950D01*
X015628Y009852D02*
X016328Y009852D01*
X016328Y009753D02*
X015628Y009753D01*
X015628Y009655D02*
X016328Y009655D01*
X016328Y009556D02*
X015628Y009556D01*
X015628Y009458D02*
X016328Y009458D01*
X016328Y009359D02*
X015628Y009359D01*
X015628Y009261D02*
X016328Y009261D01*
X016327Y009162D02*
X015628Y009162D01*
X015628Y009064D02*
X015776Y009064D01*
X015678Y008965D02*
X015628Y008965D01*
X015328Y008965D02*
X015277Y008965D01*
X015328Y009064D02*
X015179Y009064D01*
X015328Y009162D02*
X014878Y009162D01*
X014779Y009261D02*
X015328Y009261D01*
X015328Y009359D02*
X014681Y009359D01*
X014582Y009458D02*
X015328Y009458D01*
X014978Y008850D02*
X014978Y008600D01*
X014978Y008850D02*
X014478Y009350D01*
X013766Y010147D02*
X013189Y010147D01*
X013172Y010130D02*
X013448Y010405D01*
X013448Y010795D01*
X013172Y011070D01*
X012783Y011070D01*
X012508Y010795D01*
X012508Y010405D01*
X012783Y010130D01*
X013172Y010130D01*
X013288Y010246D02*
X013667Y010246D01*
X013569Y010344D02*
X013386Y010344D01*
X013448Y010443D02*
X013508Y010443D01*
X013508Y010541D02*
X013448Y010541D01*
X013448Y010640D02*
X013508Y010640D01*
X013508Y010738D02*
X013448Y010738D01*
X013406Y010837D02*
X013549Y010837D01*
X013648Y010935D02*
X013307Y010935D01*
X013209Y011034D02*
X013746Y011034D01*
X013781Y011132D02*
X013174Y011132D01*
X013172Y011130D02*
X013448Y011405D01*
X013448Y011795D01*
X013172Y012070D01*
X012783Y012070D01*
X012508Y011795D01*
X012508Y011405D01*
X012783Y011130D01*
X013172Y011130D01*
X013273Y011231D02*
X013682Y011231D01*
X013584Y011329D02*
X013371Y011329D01*
X013448Y011428D02*
X013508Y011428D01*
X013508Y011526D02*
X013448Y011526D01*
X013448Y011625D02*
X013508Y011625D01*
X013508Y011723D02*
X013448Y011723D01*
X013421Y011822D02*
X013534Y011822D01*
X013633Y011920D02*
X013322Y011920D01*
X013224Y012019D02*
X013731Y012019D01*
X012731Y012019D02*
X012224Y012019D01*
X012172Y012070D02*
X011783Y012070D01*
X011508Y011795D01*
X011508Y011405D01*
X011783Y011130D01*
X012172Y011130D01*
X012448Y011405D01*
X012448Y011795D01*
X012172Y012070D01*
X012322Y011920D02*
X012633Y011920D01*
X012534Y011822D02*
X012421Y011822D01*
X012448Y011723D02*
X012508Y011723D01*
X012508Y011625D02*
X012448Y011625D01*
X012448Y011526D02*
X012508Y011526D01*
X012508Y011428D02*
X012448Y011428D01*
X012371Y011329D02*
X012584Y011329D01*
X012682Y011231D02*
X012273Y011231D01*
X012174Y011132D02*
X012781Y011132D01*
X012746Y011034D02*
X012209Y011034D01*
X012172Y011070D02*
X011783Y011070D01*
X011508Y010795D01*
X011508Y010405D01*
X011783Y010130D01*
X012172Y010130D01*
X012448Y010405D01*
X012448Y010795D01*
X012172Y011070D01*
X012307Y010935D02*
X012648Y010935D01*
X012549Y010837D02*
X012406Y010837D01*
X012448Y010738D02*
X012508Y010738D01*
X012508Y010640D02*
X012448Y010640D01*
X012448Y010541D02*
X012508Y010541D01*
X012508Y010443D02*
X012448Y010443D01*
X012386Y010344D02*
X012569Y010344D01*
X012667Y010246D02*
X012288Y010246D01*
X012189Y010147D02*
X012766Y010147D01*
X011766Y010147D02*
X011189Y010147D01*
X011288Y010246D02*
X011667Y010246D01*
X011569Y010344D02*
X011386Y010344D01*
X011448Y010443D02*
X011508Y010443D01*
X011508Y010541D02*
X011448Y010541D01*
X011448Y010640D02*
X011508Y010640D01*
X011508Y010738D02*
X011448Y010738D01*
X011406Y010837D02*
X011549Y010837D01*
X011648Y010935D02*
X011307Y010935D01*
X011209Y011034D02*
X011746Y011034D01*
X011781Y011132D02*
X011174Y011132D01*
X011273Y011231D02*
X011682Y011231D01*
X011584Y011329D02*
X011371Y011329D01*
X011448Y011428D02*
X011508Y011428D01*
X011508Y011526D02*
X011448Y011526D01*
X011448Y011625D02*
X011508Y011625D01*
X011508Y011723D02*
X011448Y011723D01*
X011421Y011822D02*
X011534Y011822D01*
X011633Y011920D02*
X011322Y011920D01*
X011224Y012019D02*
X011731Y012019D01*
X009449Y013102D02*
X009438Y013102D01*
X009449Y013201D02*
X009339Y013201D01*
X009241Y013299D02*
X009533Y013299D01*
X008202Y015663D02*
X007684Y015663D01*
X007756Y015762D02*
X008104Y015762D01*
X008005Y015860D02*
X007756Y015860D01*
X007756Y015959D02*
X007907Y015959D01*
X006945Y015171D02*
X006896Y015171D01*
X013628Y014284D02*
X013629Y014284D01*
X013978Y014600D02*
X014978Y015600D01*
X014978Y016600D01*
X015384Y016353D02*
X015571Y016353D01*
X015531Y016451D02*
X015425Y016451D01*
X015448Y016550D02*
X015508Y016550D01*
X015508Y016648D02*
X015448Y016648D01*
X015426Y016747D02*
X015530Y016747D01*
X015570Y016845D02*
X015385Y016845D01*
X015299Y016944D02*
X015656Y016944D01*
X015817Y017042D02*
X015139Y017042D01*
X014817Y017042D02*
X014139Y017042D01*
X015133Y016156D02*
X015822Y016156D01*
X015828Y016057D02*
X015128Y016057D01*
X015128Y015959D02*
X015828Y015959D01*
X015828Y015860D02*
X015128Y015860D01*
X015128Y015762D02*
X015828Y015762D01*
X015828Y015663D02*
X015128Y015663D01*
X015128Y015565D02*
X015828Y015565D01*
X015828Y015466D02*
X015056Y015466D01*
X014957Y015368D02*
X015828Y015368D01*
X015828Y015269D02*
X014859Y015269D01*
X014760Y015171D02*
X015828Y015171D01*
X015659Y016254D02*
X015296Y016254D01*
X016139Y017042D02*
X016817Y017042D01*
X017128Y015860D02*
X019639Y015860D01*
X019876Y015860D02*
X019978Y015860D01*
X019978Y015762D02*
X017128Y015762D01*
X017128Y015663D02*
X019978Y015663D01*
X019978Y015565D02*
X017128Y015565D01*
X017128Y015466D02*
X019978Y015466D01*
X019978Y015368D02*
X017128Y015368D01*
X017128Y015269D02*
X019978Y015269D01*
X019978Y015171D02*
X017128Y015171D01*
X017128Y015072D02*
X019056Y015072D01*
X019112Y015128D02*
X018949Y014965D01*
X018949Y014849D01*
X018891Y014791D01*
X018891Y014236D01*
X018950Y014177D01*
X019505Y014177D01*
X019564Y014236D01*
X019564Y014791D01*
X019506Y014849D01*
X019506Y014965D01*
X019343Y015128D01*
X019112Y015128D01*
X018958Y014974D02*
X017269Y014974D01*
X017367Y014875D02*
X018949Y014875D01*
X018891Y014777D02*
X017448Y014777D01*
X017448Y014678D02*
X018891Y014678D01*
X018891Y014580D02*
X017448Y014580D01*
X017448Y014481D02*
X018891Y014481D01*
X018891Y014383D02*
X017425Y014383D01*
X017506Y014284D02*
X018891Y014284D01*
X018942Y014186D02*
X017604Y014186D01*
X017628Y014087D02*
X019978Y014087D01*
X019978Y013989D02*
X019539Y013989D01*
X019564Y013890D02*
X019978Y013890D01*
X019978Y013792D02*
X019564Y013792D01*
X019564Y013693D02*
X019978Y013693D01*
X019978Y013595D02*
X019564Y013595D01*
X019564Y013496D02*
X019978Y013496D01*
X019978Y013398D02*
X019552Y013398D01*
X019491Y013299D02*
X019978Y013299D01*
X019978Y013201D02*
X019589Y013201D01*
X019688Y013102D02*
X019978Y013102D01*
X019978Y013004D02*
X019786Y013004D01*
X019878Y012905D02*
X019978Y012905D01*
X019978Y012807D02*
X019878Y012807D01*
X019878Y012708D02*
X019978Y012708D01*
X019978Y012610D02*
X019878Y012610D01*
X019878Y012511D02*
X019978Y012511D01*
X019978Y012413D02*
X019878Y012413D01*
X019878Y012314D02*
X019978Y012314D01*
X019978Y012216D02*
X019878Y012216D01*
X019878Y012117D02*
X019978Y012117D01*
X019978Y012019D02*
X019878Y012019D01*
X019878Y011920D02*
X019978Y011920D01*
X019978Y011822D02*
X019878Y011822D01*
X019878Y011723D02*
X019978Y011723D01*
X019978Y011625D02*
X019878Y011625D01*
X019878Y011526D02*
X019978Y011526D01*
X019978Y011428D02*
X019878Y011428D01*
X019878Y011329D02*
X019978Y011329D01*
X019978Y011231D02*
X019878Y011231D01*
X019878Y011132D02*
X019978Y011132D01*
X019978Y011034D02*
X019878Y011034D01*
X019878Y010935D02*
X019978Y010935D01*
X019978Y010837D02*
X019878Y010837D01*
X019878Y010738D02*
X019978Y010738D01*
X019978Y010640D02*
X019878Y010640D01*
X019878Y010541D02*
X019978Y010541D01*
X019978Y010443D02*
X019878Y010443D01*
X019878Y010344D02*
X019978Y010344D01*
X019978Y010246D02*
X019878Y010246D01*
X019878Y010147D02*
X019978Y010147D01*
X019978Y010049D02*
X019878Y010049D01*
X019878Y009950D02*
X019978Y009950D01*
X019978Y009852D02*
X019878Y009852D01*
X019878Y009753D02*
X019978Y009753D01*
X019978Y009655D02*
X019878Y009655D01*
X019878Y009556D02*
X019978Y009556D01*
X019978Y009458D02*
X019878Y009458D01*
X019878Y009359D02*
X019978Y009359D01*
X019978Y009261D02*
X019878Y009261D01*
X019878Y009162D02*
X019978Y009162D01*
X019978Y009064D02*
X019878Y009064D01*
X019878Y008965D02*
X019978Y008965D01*
X019978Y008867D02*
X019878Y008867D01*
X019878Y008768D02*
X019978Y008768D01*
X019978Y008670D02*
X019878Y008670D01*
X019878Y008571D02*
X019978Y008571D01*
X019978Y008473D02*
X019878Y008473D01*
X019878Y008374D02*
X019978Y008374D01*
X019978Y008276D02*
X019878Y008276D01*
X019878Y008177D02*
X019978Y008177D01*
X019978Y008079D02*
X019878Y008079D01*
X019878Y007980D02*
X019978Y007980D01*
X019978Y007882D02*
X019878Y007882D01*
X019878Y007783D02*
X019978Y007783D01*
X019978Y007685D02*
X019878Y007685D01*
X019878Y007586D02*
X019978Y007586D01*
X019978Y007488D02*
X019878Y007488D01*
X019878Y007389D02*
X019978Y007389D01*
X019978Y007291D02*
X019878Y007291D01*
X019878Y007192D02*
X019978Y007192D01*
X019778Y007049D02*
X019728Y007100D01*
X019728Y004996D01*
X019418Y004687D01*
X019228Y004687D01*
X019228Y004496D01*
X018891Y004533D02*
X017628Y004533D01*
X017628Y004631D02*
X018891Y004631D01*
X018891Y004730D02*
X017628Y004730D01*
X017628Y004828D02*
X018891Y004828D01*
X018891Y004927D02*
X017628Y004927D01*
X017628Y005025D02*
X019544Y005025D01*
X019578Y005124D02*
X017628Y005124D01*
X017568Y005222D02*
X018905Y005222D01*
X018891Y005236D02*
X018950Y005177D01*
X019505Y005177D01*
X019564Y005236D01*
X019564Y005791D01*
X019506Y005849D01*
X019506Y005965D01*
X019343Y006128D01*
X019112Y006128D01*
X018949Y005965D01*
X018949Y005849D01*
X018891Y005791D01*
X018891Y005236D01*
X018891Y005321D02*
X017469Y005321D01*
X017448Y005419D02*
X018891Y005419D01*
X018891Y005518D02*
X017448Y005518D01*
X017448Y005616D02*
X018891Y005616D01*
X018891Y005715D02*
X017448Y005715D01*
X017429Y005813D02*
X018913Y005813D01*
X018949Y005912D02*
X017501Y005912D01*
X017600Y006010D02*
X018994Y006010D01*
X019093Y006109D02*
X017628Y006109D01*
X017628Y006207D02*
X019578Y006207D01*
X019578Y006109D02*
X019362Y006109D01*
X019461Y006010D02*
X019578Y006010D01*
X019578Y005912D02*
X019506Y005912D01*
X019542Y005813D02*
X019578Y005813D01*
X019564Y005715D02*
X019578Y005715D01*
X019564Y005616D02*
X019578Y005616D01*
X019564Y005518D02*
X019578Y005518D01*
X019564Y005419D02*
X019578Y005419D01*
X019564Y005321D02*
X019578Y005321D01*
X019578Y005222D02*
X019550Y005222D01*
X019878Y005222D02*
X019978Y005222D01*
X019978Y005124D02*
X019878Y005124D01*
X019878Y005025D02*
X019978Y005025D01*
X019978Y004927D02*
X019870Y004927D01*
X019771Y004828D02*
X019978Y004828D01*
X019978Y004730D02*
X019673Y004730D01*
X019574Y004631D02*
X019978Y004631D01*
X019978Y004533D02*
X019564Y004533D01*
X019564Y004434D02*
X019978Y004434D01*
X019978Y004336D02*
X017628Y004336D01*
X017628Y004434D02*
X018891Y004434D01*
X019378Y003646D02*
X018323Y003646D01*
X018328Y003548D02*
X019260Y003548D01*
X019213Y003500D02*
X019213Y003500D01*
X019495Y003350D02*
X019611Y003234D01*
X019495Y003350D02*
X017728Y003350D01*
X017128Y003351D02*
X016690Y003351D01*
X016789Y003449D02*
X017128Y003449D01*
X017128Y003548D02*
X016887Y003548D01*
X016986Y003646D02*
X017132Y003646D01*
X017084Y003745D02*
X019978Y003745D01*
X019978Y003843D02*
X017183Y003843D01*
X017281Y003942D02*
X019978Y003942D01*
X019978Y004040D02*
X017380Y004040D01*
X017478Y004139D02*
X019978Y004139D01*
X019978Y004237D02*
X017577Y004237D01*
X017478Y004350D02*
X017478Y005100D01*
X016978Y005600D01*
X017478Y006100D01*
X017478Y008100D01*
X016978Y008600D01*
X017478Y009100D01*
X017478Y011100D01*
X016978Y011600D01*
X017478Y012100D01*
X017478Y014100D01*
X017628Y013989D02*
X018916Y013989D01*
X018891Y013890D02*
X017628Y013890D01*
X017628Y013792D02*
X018891Y013792D01*
X018891Y013693D02*
X017628Y013693D01*
X017628Y013595D02*
X018891Y013595D01*
X018891Y013496D02*
X017628Y013496D01*
X017628Y013398D02*
X018903Y013398D01*
X019078Y013299D02*
X017628Y013299D01*
X017628Y013201D02*
X019165Y013201D01*
X019263Y013102D02*
X017628Y013102D01*
X017628Y013004D02*
X019362Y013004D01*
X019460Y012905D02*
X017628Y012905D01*
X017628Y012807D02*
X019559Y012807D01*
X019578Y012708D02*
X017628Y012708D01*
X017628Y012610D02*
X019578Y012610D01*
X019578Y012511D02*
X017628Y012511D01*
X017628Y012413D02*
X019578Y012413D01*
X019578Y012314D02*
X017628Y012314D01*
X017628Y012216D02*
X019578Y012216D01*
X019578Y012117D02*
X019354Y012117D01*
X019343Y012128D02*
X019112Y012128D01*
X018949Y011965D01*
X018949Y011849D01*
X018891Y011791D01*
X018891Y011236D01*
X018950Y011177D01*
X019505Y011177D01*
X019564Y011236D01*
X019564Y011791D01*
X019506Y011849D01*
X019506Y011965D01*
X019343Y012128D01*
X019452Y012019D02*
X019578Y012019D01*
X019578Y011920D02*
X019506Y011920D01*
X019533Y011822D02*
X019578Y011822D01*
X019564Y011723D02*
X019578Y011723D01*
X019564Y011625D02*
X019578Y011625D01*
X019564Y011526D02*
X019578Y011526D01*
X019564Y011428D02*
X019578Y011428D01*
X019564Y011329D02*
X019578Y011329D01*
X019578Y011231D02*
X019559Y011231D01*
X019578Y011132D02*
X017628Y011132D01*
X017628Y011034D02*
X019578Y011034D01*
X019564Y010935D02*
X019578Y010935D01*
X019564Y010837D02*
X019578Y010837D01*
X019564Y010738D02*
X019578Y010738D01*
X019564Y010640D02*
X019578Y010640D01*
X019564Y010541D02*
X019578Y010541D01*
X019564Y010443D02*
X019578Y010443D01*
X019578Y010344D02*
X019446Y010344D01*
X019544Y010246D02*
X019578Y010246D01*
X019317Y010049D02*
X017628Y010049D01*
X017628Y010147D02*
X019218Y010147D01*
X019120Y010246D02*
X017628Y010246D01*
X017628Y010344D02*
X019078Y010344D01*
X019228Y010350D02*
X019728Y009850D01*
X019728Y007350D01*
X019228Y007350D01*
X019228Y007687D01*
X018891Y007685D02*
X017628Y007685D01*
X017628Y007783D02*
X018891Y007783D01*
X018891Y007882D02*
X017628Y007882D01*
X017628Y007980D02*
X018907Y007980D01*
X018950Y008177D02*
X019505Y008177D01*
X019564Y008236D01*
X019564Y008791D01*
X019506Y008849D01*
X019506Y008965D01*
X019578Y008965D01*
X019506Y008965D02*
X019343Y009128D01*
X019112Y009128D01*
X018949Y008965D01*
X017555Y008965D01*
X017628Y009064D02*
X019048Y009064D01*
X018949Y008965D02*
X018949Y008849D01*
X018891Y008791D01*
X018891Y008236D01*
X018950Y008177D01*
X018891Y008473D02*
X017448Y008473D01*
X017448Y008571D02*
X018891Y008571D01*
X018891Y008670D02*
X017448Y008670D01*
X017448Y008768D02*
X018891Y008768D01*
X018949Y008867D02*
X017456Y008867D01*
X017628Y009162D02*
X019578Y009162D01*
X019578Y009064D02*
X019407Y009064D01*
X019506Y008867D02*
X019578Y008867D01*
X019564Y008768D02*
X019578Y008768D01*
X019564Y008670D02*
X019578Y008670D01*
X019564Y008571D02*
X019578Y008571D01*
X019564Y008473D02*
X019578Y008473D01*
X019564Y008374D02*
X019578Y008374D01*
X019564Y008276D02*
X019578Y008276D01*
X019578Y008177D02*
X017613Y008177D01*
X017628Y008079D02*
X019578Y008079D01*
X019578Y007980D02*
X019548Y007980D01*
X019564Y007882D02*
X019578Y007882D01*
X019564Y007783D02*
X019578Y007783D01*
X019564Y007685D02*
X019578Y007685D01*
X019564Y007586D02*
X019578Y007586D01*
X019728Y007350D02*
X019728Y007100D01*
X019778Y007049D02*
X019778Y006777D01*
X019422Y006798D02*
X017628Y006798D01*
X017628Y006700D02*
X019422Y006700D01*
X019422Y006601D02*
X017628Y006601D01*
X017628Y006503D02*
X019422Y006503D01*
X019439Y006404D02*
X017628Y006404D01*
X017628Y006306D02*
X019578Y006306D01*
X019878Y006306D02*
X019978Y006306D01*
X019978Y006207D02*
X019878Y006207D01*
X019878Y006109D02*
X019978Y006109D01*
X019978Y006010D02*
X019878Y006010D01*
X019878Y005912D02*
X019978Y005912D01*
X019978Y005813D02*
X019878Y005813D01*
X019878Y005715D02*
X019978Y005715D01*
X019978Y005616D02*
X019878Y005616D01*
X019878Y005518D02*
X019978Y005518D01*
X019978Y005419D02*
X019878Y005419D01*
X019878Y005321D02*
X019978Y005321D01*
X019228Y005513D02*
X019228Y005850D01*
X019422Y006897D02*
X017628Y006897D01*
X017628Y006995D02*
X019422Y006995D01*
X019422Y007133D02*
X019481Y007192D01*
X019578Y007192D01*
X019078Y007291D02*
X017628Y007291D01*
X017628Y007389D02*
X018911Y007389D01*
X018891Y007488D02*
X017628Y007488D01*
X017628Y007586D02*
X018891Y007586D01*
X019228Y008513D02*
X019228Y008850D01*
X019578Y009261D02*
X017628Y009261D01*
X017628Y009359D02*
X019578Y009359D01*
X019578Y009458D02*
X017628Y009458D01*
X017628Y009556D02*
X019578Y009556D01*
X019578Y009655D02*
X017628Y009655D01*
X017628Y009753D02*
X019578Y009753D01*
X019514Y009852D02*
X017628Y009852D01*
X017628Y009950D02*
X019415Y009950D01*
X019728Y009850D02*
X019728Y012850D01*
X019228Y013350D01*
X019228Y013687D01*
X019514Y014186D02*
X019978Y014186D01*
X019978Y014284D02*
X019564Y014284D01*
X019564Y014383D02*
X019978Y014383D01*
X019978Y014481D02*
X019564Y014481D01*
X019564Y014580D02*
X019978Y014580D01*
X019978Y014678D02*
X019564Y014678D01*
X019564Y014777D02*
X019978Y014777D01*
X019978Y014875D02*
X019506Y014875D01*
X019497Y014974D02*
X019978Y014974D01*
X019978Y015072D02*
X019399Y015072D01*
X019228Y014850D02*
X019228Y014513D01*
X019101Y012117D02*
X017628Y012117D01*
X017608Y012019D02*
X019003Y012019D01*
X018949Y011920D02*
X017510Y011920D01*
X017421Y011822D02*
X018922Y011822D01*
X018891Y011723D02*
X017448Y011723D01*
X017448Y011625D02*
X018891Y011625D01*
X018891Y011526D02*
X017448Y011526D01*
X017448Y011428D02*
X018891Y011428D01*
X018891Y011329D02*
X017461Y011329D01*
X017559Y011231D02*
X018897Y011231D01*
X019228Y011513D02*
X019228Y011850D01*
X018891Y010935D02*
X017628Y010935D01*
X017628Y010837D02*
X018891Y010837D01*
X018891Y010738D02*
X017628Y010738D01*
X017628Y010640D02*
X018891Y010640D01*
X018891Y010541D02*
X017628Y010541D01*
X017628Y010443D02*
X018891Y010443D01*
X019228Y010350D02*
X019228Y010687D01*
X016478Y011100D02*
X016478Y009100D01*
X015978Y008600D01*
X016478Y008100D01*
X016478Y006100D01*
X015978Y005600D01*
X016478Y005100D01*
X016478Y004350D01*
X015228Y003100D01*
X015228Y001100D01*
X015661Y001282D02*
X015794Y001282D01*
X015758Y001184D02*
X015698Y001184D01*
X015698Y001085D02*
X015758Y001085D01*
X015766Y000987D02*
X015689Y000987D01*
X015648Y000888D02*
X015807Y000888D01*
X015873Y000790D02*
X015582Y000790D01*
X015468Y000691D02*
X015987Y000691D01*
X016228Y001100D02*
X016228Y003100D01*
X017478Y004350D01*
X016955Y004040D02*
X016380Y004040D01*
X016478Y004139D02*
X016774Y004139D01*
X016676Y004237D02*
X016577Y004237D01*
X016857Y003942D02*
X016281Y003942D01*
X016183Y003843D02*
X016758Y003843D01*
X016660Y003745D02*
X016084Y003745D01*
X015986Y003646D02*
X016561Y003646D01*
X016463Y003548D02*
X015887Y003548D01*
X015789Y003449D02*
X016364Y003449D01*
X016266Y003351D02*
X015690Y003351D01*
X015592Y003252D02*
X016167Y003252D01*
X016078Y003154D02*
X015493Y003154D01*
X015395Y003055D02*
X016078Y003055D01*
X016078Y002957D02*
X015378Y002957D01*
X015378Y002858D02*
X016078Y002858D01*
X016078Y002760D02*
X015378Y002760D01*
X015378Y002661D02*
X016078Y002661D01*
X016078Y002563D02*
X015378Y002563D01*
X015378Y002464D02*
X016078Y002464D01*
X016078Y002366D02*
X015378Y002366D01*
X015378Y002267D02*
X016078Y002267D01*
X016078Y002169D02*
X015378Y002169D01*
X015378Y002070D02*
X016078Y002070D01*
X016078Y001972D02*
X015378Y001972D01*
X015378Y001873D02*
X016078Y001873D01*
X016078Y001775D02*
X015378Y001775D01*
X015378Y001676D02*
X016078Y001676D01*
X016078Y001578D02*
X015378Y001578D01*
X015513Y001479D02*
X015942Y001479D01*
X015843Y001381D02*
X015612Y001381D01*
X015078Y001578D02*
X014378Y001578D01*
X014378Y001676D02*
X015078Y001676D01*
X015078Y001775D02*
X014378Y001775D01*
X014378Y001873D02*
X015078Y001873D01*
X015078Y001972D02*
X014378Y001972D01*
X014378Y002070D02*
X015078Y002070D01*
X015078Y002169D02*
X014378Y002169D01*
X014378Y002267D02*
X015078Y002267D01*
X015078Y002366D02*
X014378Y002366D01*
X014378Y002464D02*
X015078Y002464D01*
X015078Y002563D02*
X014378Y002563D01*
X014378Y002661D02*
X015078Y002661D01*
X015078Y002760D02*
X014378Y002760D01*
X014448Y002858D02*
X015078Y002858D01*
X015078Y002957D02*
X014546Y002957D01*
X014645Y003055D02*
X015078Y003055D01*
X015078Y003154D02*
X014743Y003154D01*
X014842Y003252D02*
X015167Y003252D01*
X015266Y003351D02*
X014940Y003351D01*
X015039Y003449D02*
X015364Y003449D01*
X015463Y003548D02*
X015128Y003548D01*
X015128Y003646D02*
X015561Y003646D01*
X015660Y003745D02*
X015128Y003745D01*
X015128Y003843D02*
X015758Y003843D01*
X015857Y003942D02*
X015128Y003942D01*
X015128Y004040D02*
X015955Y004040D01*
X015774Y004139D02*
X015181Y004139D01*
X015279Y004237D02*
X015676Y004237D01*
X015577Y004336D02*
X015378Y004336D01*
X015448Y004434D02*
X015508Y004434D01*
X015508Y004533D02*
X015448Y004533D01*
X015448Y004631D02*
X015508Y004631D01*
X015508Y004730D02*
X015448Y004730D01*
X015418Y004828D02*
X015541Y004828D01*
X015516Y004927D02*
X015639Y004927D01*
X015615Y005025D02*
X015738Y005025D01*
X015628Y005124D02*
X016242Y005124D01*
X016217Y005025D02*
X016328Y005025D01*
X016316Y004927D02*
X016328Y004927D01*
X015691Y005222D02*
X015628Y005222D01*
X015478Y005100D02*
X015478Y007100D01*
X014978Y007600D01*
X014978Y007850D01*
X016179Y009064D02*
X016229Y009064D01*
X015508Y010443D02*
X015448Y010443D01*
X015448Y010541D02*
X015508Y010541D01*
X015508Y010640D02*
X015448Y010640D01*
X015448Y010738D02*
X015508Y010738D01*
X015549Y010837D02*
X015406Y010837D01*
X016174Y011132D02*
X016233Y011132D01*
X016209Y011034D02*
X016328Y011034D01*
X016328Y010935D02*
X016307Y010935D01*
X016478Y011100D02*
X015978Y011600D01*
X016478Y012100D01*
X016478Y014100D01*
X016628Y013989D02*
X016701Y013989D01*
X014978Y013600D02*
X014728Y013350D01*
X014728Y013100D01*
X015478Y005100D02*
X014978Y004600D01*
X014978Y003600D01*
X014228Y002850D01*
X014228Y001100D01*
X014661Y001282D02*
X014794Y001282D01*
X014758Y001184D02*
X014698Y001184D01*
X014698Y001085D02*
X014758Y001085D01*
X014766Y000987D02*
X014689Y000987D01*
X014648Y000888D02*
X014807Y000888D01*
X014873Y000790D02*
X014582Y000790D01*
X014468Y000691D02*
X014987Y000691D01*
X014843Y001381D02*
X014612Y001381D01*
X014513Y001479D02*
X014942Y001479D01*
X016378Y001578D02*
X018908Y001578D01*
X018833Y001479D02*
X018513Y001479D01*
X018494Y001498D02*
X018321Y001570D01*
X018134Y001570D01*
X017961Y001498D01*
X017829Y001366D01*
X017758Y001193D01*
X017758Y001007D01*
X017829Y000834D01*
X017961Y000702D01*
X018134Y000630D01*
X018321Y000630D01*
X018494Y000702D01*
X018626Y000834D01*
X018698Y001007D01*
X018698Y001193D01*
X018626Y001366D01*
X018494Y001498D01*
X018612Y001381D02*
X018758Y001381D01*
X018728Y001282D02*
X018661Y001282D01*
X018698Y001184D02*
X018728Y001184D01*
X018728Y001085D02*
X018698Y001085D01*
X018689Y000987D02*
X018728Y000987D01*
X018728Y000888D02*
X018648Y000888D01*
X018667Y000790D02*
X018582Y000790D01*
X018569Y000691D02*
X018468Y000691D01*
X017987Y000691D02*
X016468Y000691D01*
X016582Y000790D02*
X017873Y000790D01*
X017807Y000888D02*
X016648Y000888D01*
X016689Y000987D02*
X017766Y000987D01*
X017758Y001085D02*
X016698Y001085D01*
X016698Y001184D02*
X017758Y001184D01*
X017794Y001282D02*
X016661Y001282D01*
X016612Y001381D02*
X017843Y001381D01*
X017942Y001479D02*
X016513Y001479D01*
X016378Y001676D02*
X019006Y001676D01*
X019152Y001775D02*
X016378Y001775D01*
X016378Y001873D02*
X019251Y001873D01*
X019349Y001972D02*
X016378Y001972D01*
X016378Y002070D02*
X018779Y002070D01*
X018811Y002057D02*
X018998Y002057D01*
X019171Y002128D01*
X019303Y002261D01*
X019374Y002433D01*
X019374Y002620D01*
X019303Y002793D01*
X019171Y002925D01*
X018998Y002997D01*
X018811Y002997D01*
X018638Y002925D01*
X018506Y002793D01*
X018488Y002750D01*
X018328Y002750D01*
X018328Y002891D01*
X018269Y002950D01*
X017186Y002950D01*
X017128Y002891D01*
X017128Y002309D01*
X017186Y002250D01*
X018269Y002250D01*
X018328Y002309D01*
X018328Y002450D01*
X018434Y002450D01*
X018434Y002433D01*
X018506Y002261D01*
X018638Y002128D01*
X018811Y002057D01*
X019030Y002070D02*
X019448Y002070D01*
X019546Y002169D02*
X019211Y002169D01*
X019305Y002267D02*
X019645Y002267D01*
X019743Y002366D02*
X019346Y002366D01*
X019374Y002464D02*
X019842Y002464D01*
X019940Y002563D02*
X019374Y002563D01*
X019357Y002661D02*
X019978Y002661D01*
X019978Y002760D02*
X019317Y002760D01*
X019323Y002858D02*
X019238Y002858D01*
X019224Y002957D02*
X019095Y002957D01*
X019177Y003055D02*
X018324Y003055D01*
X018328Y003154D02*
X019141Y003154D01*
X018714Y002957D02*
X016378Y002957D01*
X016378Y002858D02*
X017128Y002858D01*
X017128Y002760D02*
X016378Y002760D01*
X016378Y002661D02*
X017128Y002661D01*
X017128Y002563D02*
X016378Y002563D01*
X016378Y002464D02*
X017128Y002464D01*
X017128Y002366D02*
X016378Y002366D01*
X016378Y002267D02*
X017169Y002267D01*
X017728Y002600D02*
X018831Y002600D01*
X018904Y002527D01*
X018571Y002858D02*
X018328Y002858D01*
X018328Y002760D02*
X018492Y002760D01*
X018462Y002366D02*
X018328Y002366D01*
X018286Y002267D02*
X018503Y002267D01*
X018598Y002169D02*
X016378Y002169D01*
X016395Y003055D02*
X017131Y003055D01*
X017128Y003154D02*
X016493Y003154D01*
X016592Y003252D02*
X017128Y003252D01*
X014676Y004237D02*
X014279Y004237D01*
X014378Y004336D02*
X014577Y004336D01*
X014508Y004434D02*
X014448Y004434D01*
X014448Y004533D02*
X014508Y004533D01*
X014508Y004631D02*
X014448Y004631D01*
X014448Y004730D02*
X014508Y004730D01*
X014541Y004828D02*
X014414Y004828D01*
X019845Y003646D02*
X019978Y003646D01*
X019978Y003548D02*
X019962Y003548D01*
X019978Y002858D02*
X019900Y002858D01*
D26*
X019228Y005850D03*
X019228Y008850D03*
X019228Y011850D03*
X019228Y014850D03*
X009728Y013100D03*
X007478Y015850D03*
X006978Y017725D03*
X004978Y014850D03*
X003978Y013350D03*
X003978Y012850D03*
X002853Y006600D03*
X005478Y005600D03*
X006478Y006100D03*
X006228Y003850D03*
X005228Y003850D03*
X008228Y002600D03*
X011478Y003350D03*
D27*
X011354Y002100D02*
X011228Y001974D01*
X011228Y001100D01*
X002853Y006600D02*
X002716Y006588D01*
X006728Y009937D02*
X007515Y009937D01*
X007728Y009724D01*
X006728Y010763D02*
X006728Y011600D01*
X005728Y011600D02*
X005728Y010763D01*
X004728Y010763D02*
X004728Y011600D01*
X003728Y011600D02*
X003728Y010763D01*
X002728Y016350D02*
X001374Y016350D01*
X001374Y017350D02*
X002728Y017350D01*
X002728Y017350D01*
X002728Y016350D02*
X002728Y016350D01*
X006978Y017724D02*
X006979Y017725D01*
X006978Y017725D01*
M02*
