G75*
%MOIN*%
%OFA0B0*%
%FSLAX24Y24*%
%IPPOS*%
%LPD*%
%AMOC8*
5,1,8,0,0,1.08239X$1,22.5*
%
%ADD10C,0.0000*%
%ADD11C,0.1221*%
%ADD12C,0.0780*%
%ADD13R,0.0512X0.0276*%
%ADD14OC8,0.0780*%
%ADD15R,0.0780X0.0780*%
%ADD16R,0.0512X0.0512*%
%ADD17R,0.0552X0.0670*%
%ADD18R,0.0670X0.0552*%
%ADD19R,0.0540X0.1040*%
%ADD20R,0.1040X0.0540*%
%ADD21R,0.0591X0.0178*%
%ADD22R,0.0788X0.0749*%
%ADD23R,0.0788X0.0788*%
%ADD24R,0.0552X0.0631*%
%ADD25R,0.0631X0.0552*%
D10*
X000728Y000100D02*
X000728Y019785D01*
X020413Y019785D01*
X020413Y000100D01*
X000728Y000100D01*
X001137Y001100D02*
X001139Y001148D01*
X001145Y001196D01*
X001155Y001243D01*
X001168Y001289D01*
X001186Y001334D01*
X001206Y001378D01*
X001231Y001420D01*
X001259Y001459D01*
X001289Y001496D01*
X001323Y001530D01*
X001360Y001562D01*
X001398Y001591D01*
X001439Y001616D01*
X001482Y001638D01*
X001527Y001656D01*
X001573Y001670D01*
X001620Y001681D01*
X001668Y001688D01*
X001716Y001691D01*
X001764Y001690D01*
X001812Y001685D01*
X001860Y001676D01*
X001906Y001664D01*
X001951Y001647D01*
X001995Y001627D01*
X002037Y001604D01*
X002077Y001577D01*
X002115Y001547D01*
X002150Y001514D01*
X002182Y001478D01*
X002212Y001440D01*
X002238Y001399D01*
X002260Y001356D01*
X002280Y001312D01*
X002295Y001267D01*
X002307Y001220D01*
X002315Y001172D01*
X002319Y001124D01*
X002319Y001076D01*
X002315Y001028D01*
X002307Y000980D01*
X002295Y000933D01*
X002280Y000888D01*
X002260Y000844D01*
X002238Y000801D01*
X002212Y000760D01*
X002182Y000722D01*
X002150Y000686D01*
X002115Y000653D01*
X002077Y000623D01*
X002037Y000596D01*
X001995Y000573D01*
X001951Y000553D01*
X001906Y000536D01*
X001860Y000524D01*
X001812Y000515D01*
X001764Y000510D01*
X001716Y000509D01*
X001668Y000512D01*
X001620Y000519D01*
X001573Y000530D01*
X001527Y000544D01*
X001482Y000562D01*
X001439Y000584D01*
X001398Y000609D01*
X001360Y000638D01*
X001323Y000670D01*
X001289Y000704D01*
X001259Y000741D01*
X001231Y000780D01*
X001206Y000822D01*
X001186Y000866D01*
X001168Y000911D01*
X001155Y000957D01*
X001145Y001004D01*
X001139Y001052D01*
X001137Y001100D01*
X001137Y018850D02*
X001139Y018898D01*
X001145Y018946D01*
X001155Y018993D01*
X001168Y019039D01*
X001186Y019084D01*
X001206Y019128D01*
X001231Y019170D01*
X001259Y019209D01*
X001289Y019246D01*
X001323Y019280D01*
X001360Y019312D01*
X001398Y019341D01*
X001439Y019366D01*
X001482Y019388D01*
X001527Y019406D01*
X001573Y019420D01*
X001620Y019431D01*
X001668Y019438D01*
X001716Y019441D01*
X001764Y019440D01*
X001812Y019435D01*
X001860Y019426D01*
X001906Y019414D01*
X001951Y019397D01*
X001995Y019377D01*
X002037Y019354D01*
X002077Y019327D01*
X002115Y019297D01*
X002150Y019264D01*
X002182Y019228D01*
X002212Y019190D01*
X002238Y019149D01*
X002260Y019106D01*
X002280Y019062D01*
X002295Y019017D01*
X002307Y018970D01*
X002315Y018922D01*
X002319Y018874D01*
X002319Y018826D01*
X002315Y018778D01*
X002307Y018730D01*
X002295Y018683D01*
X002280Y018638D01*
X002260Y018594D01*
X002238Y018551D01*
X002212Y018510D01*
X002182Y018472D01*
X002150Y018436D01*
X002115Y018403D01*
X002077Y018373D01*
X002037Y018346D01*
X001995Y018323D01*
X001951Y018303D01*
X001906Y018286D01*
X001860Y018274D01*
X001812Y018265D01*
X001764Y018260D01*
X001716Y018259D01*
X001668Y018262D01*
X001620Y018269D01*
X001573Y018280D01*
X001527Y018294D01*
X001482Y018312D01*
X001439Y018334D01*
X001398Y018359D01*
X001360Y018388D01*
X001323Y018420D01*
X001289Y018454D01*
X001259Y018491D01*
X001231Y018530D01*
X001206Y018572D01*
X001186Y018616D01*
X001168Y018661D01*
X001155Y018707D01*
X001145Y018754D01*
X001139Y018802D01*
X001137Y018850D01*
X018887Y018850D02*
X018889Y018898D01*
X018895Y018946D01*
X018905Y018993D01*
X018918Y019039D01*
X018936Y019084D01*
X018956Y019128D01*
X018981Y019170D01*
X019009Y019209D01*
X019039Y019246D01*
X019073Y019280D01*
X019110Y019312D01*
X019148Y019341D01*
X019189Y019366D01*
X019232Y019388D01*
X019277Y019406D01*
X019323Y019420D01*
X019370Y019431D01*
X019418Y019438D01*
X019466Y019441D01*
X019514Y019440D01*
X019562Y019435D01*
X019610Y019426D01*
X019656Y019414D01*
X019701Y019397D01*
X019745Y019377D01*
X019787Y019354D01*
X019827Y019327D01*
X019865Y019297D01*
X019900Y019264D01*
X019932Y019228D01*
X019962Y019190D01*
X019988Y019149D01*
X020010Y019106D01*
X020030Y019062D01*
X020045Y019017D01*
X020057Y018970D01*
X020065Y018922D01*
X020069Y018874D01*
X020069Y018826D01*
X020065Y018778D01*
X020057Y018730D01*
X020045Y018683D01*
X020030Y018638D01*
X020010Y018594D01*
X019988Y018551D01*
X019962Y018510D01*
X019932Y018472D01*
X019900Y018436D01*
X019865Y018403D01*
X019827Y018373D01*
X019787Y018346D01*
X019745Y018323D01*
X019701Y018303D01*
X019656Y018286D01*
X019610Y018274D01*
X019562Y018265D01*
X019514Y018260D01*
X019466Y018259D01*
X019418Y018262D01*
X019370Y018269D01*
X019323Y018280D01*
X019277Y018294D01*
X019232Y018312D01*
X019189Y018334D01*
X019148Y018359D01*
X019110Y018388D01*
X019073Y018420D01*
X019039Y018454D01*
X019009Y018491D01*
X018981Y018530D01*
X018956Y018572D01*
X018936Y018616D01*
X018918Y018661D01*
X018905Y018707D01*
X018895Y018754D01*
X018889Y018802D01*
X018887Y018850D01*
X018887Y001100D02*
X018889Y001148D01*
X018895Y001196D01*
X018905Y001243D01*
X018918Y001289D01*
X018936Y001334D01*
X018956Y001378D01*
X018981Y001420D01*
X019009Y001459D01*
X019039Y001496D01*
X019073Y001530D01*
X019110Y001562D01*
X019148Y001591D01*
X019189Y001616D01*
X019232Y001638D01*
X019277Y001656D01*
X019323Y001670D01*
X019370Y001681D01*
X019418Y001688D01*
X019466Y001691D01*
X019514Y001690D01*
X019562Y001685D01*
X019610Y001676D01*
X019656Y001664D01*
X019701Y001647D01*
X019745Y001627D01*
X019787Y001604D01*
X019827Y001577D01*
X019865Y001547D01*
X019900Y001514D01*
X019932Y001478D01*
X019962Y001440D01*
X019988Y001399D01*
X020010Y001356D01*
X020030Y001312D01*
X020045Y001267D01*
X020057Y001220D01*
X020065Y001172D01*
X020069Y001124D01*
X020069Y001076D01*
X020065Y001028D01*
X020057Y000980D01*
X020045Y000933D01*
X020030Y000888D01*
X020010Y000844D01*
X019988Y000801D01*
X019962Y000760D01*
X019932Y000722D01*
X019900Y000686D01*
X019865Y000653D01*
X019827Y000623D01*
X019787Y000596D01*
X019745Y000573D01*
X019701Y000553D01*
X019656Y000536D01*
X019610Y000524D01*
X019562Y000515D01*
X019514Y000510D01*
X019466Y000509D01*
X019418Y000512D01*
X019370Y000519D01*
X019323Y000530D01*
X019277Y000544D01*
X019232Y000562D01*
X019189Y000584D01*
X019148Y000609D01*
X019110Y000638D01*
X019073Y000670D01*
X019039Y000704D01*
X019009Y000741D01*
X018981Y000780D01*
X018956Y000822D01*
X018936Y000866D01*
X018918Y000911D01*
X018905Y000957D01*
X018895Y001004D01*
X018889Y001052D01*
X018887Y001100D01*
D11*
X019478Y001100D03*
X001728Y001100D03*
X001728Y018850D03*
X019478Y018850D03*
D12*
X018228Y018850D03*
X017228Y018850D03*
X016228Y018850D03*
X015228Y018850D03*
X014228Y018850D03*
X013228Y018850D03*
X012228Y018850D03*
X011228Y018850D03*
X010228Y018850D03*
X009228Y018850D03*
X008228Y018850D03*
X007228Y018850D03*
X006228Y018850D03*
X005228Y018850D03*
X004228Y018850D03*
X003228Y018850D03*
X001374Y017350D03*
X001374Y016350D03*
X004728Y011600D03*
X005728Y011600D03*
X006728Y011600D03*
X007978Y016600D03*
X008978Y016600D03*
X009978Y016600D03*
X010978Y016600D03*
X011978Y016600D03*
X012978Y016600D03*
X013978Y016600D03*
X014978Y016600D03*
X015978Y016600D03*
X016978Y016600D03*
X019758Y016320D03*
X019758Y017320D03*
X019611Y003234D03*
X018904Y002527D03*
X018228Y001100D03*
X017228Y001100D03*
X016228Y001100D03*
X015228Y001100D03*
X014228Y001100D03*
X013228Y001100D03*
X012228Y001100D03*
X011228Y001100D03*
X010228Y001100D03*
X009228Y001100D03*
X008228Y001100D03*
X007228Y001100D03*
X006228Y001100D03*
X005228Y001100D03*
X004228Y001100D03*
X003228Y001100D03*
X002374Y002496D03*
X001667Y003204D03*
D13*
X004375Y012850D03*
X004375Y013350D03*
X004375Y013850D03*
X004375Y014350D03*
X004375Y014850D03*
X004375Y015350D03*
X004375Y015850D03*
X004375Y016350D03*
X006580Y016350D03*
X006580Y015850D03*
X006580Y015350D03*
X006580Y014850D03*
X006580Y014350D03*
X006580Y013850D03*
X006580Y013350D03*
X006580Y012850D03*
D14*
X010978Y013600D03*
X011978Y013600D03*
X012978Y013600D03*
X013978Y013600D03*
X014978Y013600D03*
X015978Y013600D03*
X016978Y013600D03*
X017978Y013600D03*
X017978Y014600D03*
X016978Y014600D03*
X015978Y014600D03*
X014978Y014600D03*
X013978Y014600D03*
X012978Y014600D03*
X011978Y014600D03*
X010978Y014600D03*
X010978Y011600D03*
X011978Y011600D03*
X012978Y011600D03*
X013978Y011600D03*
X014978Y011600D03*
X015978Y011600D03*
X016978Y011600D03*
X017978Y011600D03*
X017978Y010600D03*
X016978Y010600D03*
X015978Y010600D03*
X014978Y010600D03*
X013978Y010600D03*
X012978Y010600D03*
X011978Y010600D03*
X010978Y010600D03*
X010978Y008600D03*
X011978Y008600D03*
X012978Y008600D03*
X013978Y008600D03*
X014978Y008600D03*
X015978Y008600D03*
X016978Y008600D03*
X017978Y008600D03*
X017978Y007600D03*
X016978Y007600D03*
X015978Y007600D03*
X014978Y007600D03*
X013978Y007600D03*
X012978Y007600D03*
X011978Y007600D03*
X010978Y007600D03*
X010978Y005600D03*
X011978Y005600D03*
X012978Y005600D03*
X013978Y005600D03*
X014978Y005600D03*
X015978Y005600D03*
X016978Y005600D03*
X017978Y005600D03*
X017978Y004600D03*
X016978Y004600D03*
X015978Y004600D03*
X014978Y004600D03*
X013978Y004600D03*
X012978Y004600D03*
X011978Y004600D03*
X010978Y004600D03*
D15*
X003728Y011600D03*
D16*
X003728Y010763D03*
X003728Y009937D03*
X004728Y009937D03*
X005728Y009937D03*
X005728Y010763D03*
X004728Y010763D03*
X006728Y010763D03*
X006728Y009937D03*
X019228Y010687D03*
X019228Y011513D03*
X019228Y013687D03*
X019228Y014513D03*
X019228Y008513D03*
X019228Y007687D03*
X019228Y005513D03*
X019228Y004687D03*
D17*
X019030Y006777D03*
X019778Y006777D03*
D18*
X007728Y008976D03*
X007728Y009724D03*
D19*
X002728Y004100D03*
X001728Y004100D03*
D20*
X002728Y016350D03*
X002728Y017350D03*
X017728Y003350D03*
X017728Y002600D03*
X018228Y016350D03*
X018228Y017350D03*
D21*
X002271Y007612D03*
X002271Y006588D03*
D22*
X001228Y005525D03*
X001228Y008675D03*
D23*
X001228Y007600D03*
X001228Y006600D03*
D24*
X011354Y002100D03*
X012102Y002100D03*
D25*
X006978Y016976D03*
X006978Y017724D03*
M02*
