%
M48
M72
T01C0.0236
T02C0.0400
T03C0.1181
%
T01
X5228Y3850
X6228Y3850
X5478Y5600
X6478Y6100
X8228Y2600
X11478Y3350
X19228Y5850
X19228Y8850
X19228Y11850
X19228Y14850
X9728Y13100
X7478Y15850
X6978Y17725
X4978Y14850
X3978Y13350
X3978Y12850
X2853Y6600
T02
X2374Y2496
X1667Y3204
X3228Y1100
X4228Y1100
X5228Y1100
X6228Y1100
X7228Y1100
X8228Y1100
X9228Y1100
X10228Y1100
X11228Y1100
X12228Y1100
X13228Y1100
X14228Y1100
X15228Y1100
X16228Y1100
X17228Y1100
X18228Y1100
X18904Y2527
X19611Y3234
X17978Y4600
X17978Y5600
X16978Y5600
X16978Y4600
X15978Y4600
X14978Y4600
X14978Y5600
X15978Y5600
X13978Y5600
X13978Y4600
X12978Y4600
X12978Y5600
X11978Y5600
X11978Y4600
X10978Y4600
X10978Y5600
X10978Y7600
X11978Y7600
X12978Y7600
X13978Y7600
X14978Y7600
X15978Y7600
X16978Y7600
X17978Y7600
X17978Y8600
X16978Y8600
X15978Y8600
X14978Y8600
X13978Y8600
X12978Y8600
X11978Y8600
X10978Y8600
X10978Y10600
X11978Y10600
X12978Y10600
X13978Y10600
X14978Y10600
X15978Y10600
X16978Y10600
X17978Y10600
X17978Y11600
X16978Y11600
X15978Y11600
X14978Y11600
X13978Y11600
X12978Y11600
X11978Y11600
X10978Y11600
X10978Y13600
X11978Y13600
X12978Y13600
X13978Y13600
X14978Y13600
X15978Y13600
X16978Y13600
X17978Y13600
X17978Y14600
X16978Y14600
X15978Y14600
X14978Y14600
X13978Y14600
X12978Y14600
X11978Y14600
X10978Y14600
X10978Y16600
X11978Y16600
X12978Y16600
X13978Y16600
X14978Y16600
X15978Y16600
X16978Y16600
X17228Y18850
X16228Y18850
X15228Y18850
X14228Y18850
X13228Y18850
X12228Y18850
X11228Y18850
X10228Y18850
X9228Y18850
X8228Y18850
X7228Y18850
X6228Y18850
X5228Y18850
X4228Y18850
X3228Y18850
X1374Y17350
X1374Y16350
X3728Y11600
X4728Y11600
X5728Y11600
X6728Y11600
X7978Y16600
X8978Y16600
X9978Y16600
X18228Y18850
X19758Y17320
X19758Y16320
T03
X1728Y18850
X19478Y18850
X19478Y1100
X1728Y1100
M30
