G75*
%MOIN*%
%OFA0B0*%
%FSLAX24Y24*%
%IPPOS*%
%LPD*%
%AMOC8*
5,1,8,0,0,1.08239X$1,22.5*
%
%ADD10C,0.0000*%
%ADD11C,0.1261*%
%ADD12C,0.0820*%
%ADD13R,0.0690X0.0290*%
%ADD14R,0.0671X0.0218*%
%ADD15R,0.0218X0.0671*%
%ADD16OC8,0.0820*%
%ADD17R,0.0674X0.0674*%
%ADD18C,0.0780*%
%ADD19R,0.0631X0.0218*%
%ADD20R,0.0828X0.0789*%
%ADD21R,0.0828X0.0828*%
%ADD22R,0.0340X0.0880*%
%ADD23R,0.0671X0.0592*%
%ADD24C,0.0580*%
%ADD25R,0.0280X0.0280*%
%ADD26R,0.0592X0.0671*%
%ADD27OC8,0.0480*%
%ADD28OC8,0.0476*%
D10*
X000603Y000100D02*
X000603Y019785D01*
X020288Y019785D01*
X020288Y000100D01*
X000603Y000100D01*
X001012Y001100D02*
X001014Y001148D01*
X001020Y001196D01*
X001030Y001243D01*
X001043Y001289D01*
X001061Y001334D01*
X001081Y001378D01*
X001106Y001420D01*
X001134Y001459D01*
X001164Y001496D01*
X001198Y001530D01*
X001235Y001562D01*
X001273Y001591D01*
X001314Y001616D01*
X001357Y001638D01*
X001402Y001656D01*
X001448Y001670D01*
X001495Y001681D01*
X001543Y001688D01*
X001591Y001691D01*
X001639Y001690D01*
X001687Y001685D01*
X001735Y001676D01*
X001781Y001664D01*
X001826Y001647D01*
X001870Y001627D01*
X001912Y001604D01*
X001952Y001577D01*
X001990Y001547D01*
X002025Y001514D01*
X002057Y001478D01*
X002087Y001440D01*
X002113Y001399D01*
X002135Y001356D01*
X002155Y001312D01*
X002170Y001267D01*
X002182Y001220D01*
X002190Y001172D01*
X002194Y001124D01*
X002194Y001076D01*
X002190Y001028D01*
X002182Y000980D01*
X002170Y000933D01*
X002155Y000888D01*
X002135Y000844D01*
X002113Y000801D01*
X002087Y000760D01*
X002057Y000722D01*
X002025Y000686D01*
X001990Y000653D01*
X001952Y000623D01*
X001912Y000596D01*
X001870Y000573D01*
X001826Y000553D01*
X001781Y000536D01*
X001735Y000524D01*
X001687Y000515D01*
X001639Y000510D01*
X001591Y000509D01*
X001543Y000512D01*
X001495Y000519D01*
X001448Y000530D01*
X001402Y000544D01*
X001357Y000562D01*
X001314Y000584D01*
X001273Y000609D01*
X001235Y000638D01*
X001198Y000670D01*
X001164Y000704D01*
X001134Y000741D01*
X001106Y000780D01*
X001081Y000822D01*
X001061Y000866D01*
X001043Y000911D01*
X001030Y000957D01*
X001020Y001004D01*
X001014Y001052D01*
X001012Y001100D01*
X001012Y018850D02*
X001014Y018898D01*
X001020Y018946D01*
X001030Y018993D01*
X001043Y019039D01*
X001061Y019084D01*
X001081Y019128D01*
X001106Y019170D01*
X001134Y019209D01*
X001164Y019246D01*
X001198Y019280D01*
X001235Y019312D01*
X001273Y019341D01*
X001314Y019366D01*
X001357Y019388D01*
X001402Y019406D01*
X001448Y019420D01*
X001495Y019431D01*
X001543Y019438D01*
X001591Y019441D01*
X001639Y019440D01*
X001687Y019435D01*
X001735Y019426D01*
X001781Y019414D01*
X001826Y019397D01*
X001870Y019377D01*
X001912Y019354D01*
X001952Y019327D01*
X001990Y019297D01*
X002025Y019264D01*
X002057Y019228D01*
X002087Y019190D01*
X002113Y019149D01*
X002135Y019106D01*
X002155Y019062D01*
X002170Y019017D01*
X002182Y018970D01*
X002190Y018922D01*
X002194Y018874D01*
X002194Y018826D01*
X002190Y018778D01*
X002182Y018730D01*
X002170Y018683D01*
X002155Y018638D01*
X002135Y018594D01*
X002113Y018551D01*
X002087Y018510D01*
X002057Y018472D01*
X002025Y018436D01*
X001990Y018403D01*
X001952Y018373D01*
X001912Y018346D01*
X001870Y018323D01*
X001826Y018303D01*
X001781Y018286D01*
X001735Y018274D01*
X001687Y018265D01*
X001639Y018260D01*
X001591Y018259D01*
X001543Y018262D01*
X001495Y018269D01*
X001448Y018280D01*
X001402Y018294D01*
X001357Y018312D01*
X001314Y018334D01*
X001273Y018359D01*
X001235Y018388D01*
X001198Y018420D01*
X001164Y018454D01*
X001134Y018491D01*
X001106Y018530D01*
X001081Y018572D01*
X001061Y018616D01*
X001043Y018661D01*
X001030Y018707D01*
X001020Y018754D01*
X001014Y018802D01*
X001012Y018850D01*
X018762Y018850D02*
X018764Y018898D01*
X018770Y018946D01*
X018780Y018993D01*
X018793Y019039D01*
X018811Y019084D01*
X018831Y019128D01*
X018856Y019170D01*
X018884Y019209D01*
X018914Y019246D01*
X018948Y019280D01*
X018985Y019312D01*
X019023Y019341D01*
X019064Y019366D01*
X019107Y019388D01*
X019152Y019406D01*
X019198Y019420D01*
X019245Y019431D01*
X019293Y019438D01*
X019341Y019441D01*
X019389Y019440D01*
X019437Y019435D01*
X019485Y019426D01*
X019531Y019414D01*
X019576Y019397D01*
X019620Y019377D01*
X019662Y019354D01*
X019702Y019327D01*
X019740Y019297D01*
X019775Y019264D01*
X019807Y019228D01*
X019837Y019190D01*
X019863Y019149D01*
X019885Y019106D01*
X019905Y019062D01*
X019920Y019017D01*
X019932Y018970D01*
X019940Y018922D01*
X019944Y018874D01*
X019944Y018826D01*
X019940Y018778D01*
X019932Y018730D01*
X019920Y018683D01*
X019905Y018638D01*
X019885Y018594D01*
X019863Y018551D01*
X019837Y018510D01*
X019807Y018472D01*
X019775Y018436D01*
X019740Y018403D01*
X019702Y018373D01*
X019662Y018346D01*
X019620Y018323D01*
X019576Y018303D01*
X019531Y018286D01*
X019485Y018274D01*
X019437Y018265D01*
X019389Y018260D01*
X019341Y018259D01*
X019293Y018262D01*
X019245Y018269D01*
X019198Y018280D01*
X019152Y018294D01*
X019107Y018312D01*
X019064Y018334D01*
X019023Y018359D01*
X018985Y018388D01*
X018948Y018420D01*
X018914Y018454D01*
X018884Y018491D01*
X018856Y018530D01*
X018831Y018572D01*
X018811Y018616D01*
X018793Y018661D01*
X018780Y018707D01*
X018770Y018754D01*
X018764Y018802D01*
X018762Y018850D01*
X018762Y001100D02*
X018764Y001148D01*
X018770Y001196D01*
X018780Y001243D01*
X018793Y001289D01*
X018811Y001334D01*
X018831Y001378D01*
X018856Y001420D01*
X018884Y001459D01*
X018914Y001496D01*
X018948Y001530D01*
X018985Y001562D01*
X019023Y001591D01*
X019064Y001616D01*
X019107Y001638D01*
X019152Y001656D01*
X019198Y001670D01*
X019245Y001681D01*
X019293Y001688D01*
X019341Y001691D01*
X019389Y001690D01*
X019437Y001685D01*
X019485Y001676D01*
X019531Y001664D01*
X019576Y001647D01*
X019620Y001627D01*
X019662Y001604D01*
X019702Y001577D01*
X019740Y001547D01*
X019775Y001514D01*
X019807Y001478D01*
X019837Y001440D01*
X019863Y001399D01*
X019885Y001356D01*
X019905Y001312D01*
X019920Y001267D01*
X019932Y001220D01*
X019940Y001172D01*
X019944Y001124D01*
X019944Y001076D01*
X019940Y001028D01*
X019932Y000980D01*
X019920Y000933D01*
X019905Y000888D01*
X019885Y000844D01*
X019863Y000801D01*
X019837Y000760D01*
X019807Y000722D01*
X019775Y000686D01*
X019740Y000653D01*
X019702Y000623D01*
X019662Y000596D01*
X019620Y000573D01*
X019576Y000553D01*
X019531Y000536D01*
X019485Y000524D01*
X019437Y000515D01*
X019389Y000510D01*
X019341Y000509D01*
X019293Y000512D01*
X019245Y000519D01*
X019198Y000530D01*
X019152Y000544D01*
X019107Y000562D01*
X019064Y000584D01*
X019023Y000609D01*
X018985Y000638D01*
X018948Y000670D01*
X018914Y000704D01*
X018884Y000741D01*
X018856Y000780D01*
X018831Y000822D01*
X018811Y000866D01*
X018793Y000911D01*
X018780Y000957D01*
X018770Y001004D01*
X018764Y001052D01*
X018762Y001100D01*
D11*
X019353Y001100D03*
X001603Y001100D03*
X001603Y018850D03*
X019353Y018850D03*
D12*
X018103Y018850D03*
X017103Y018850D03*
X016103Y018850D03*
X015103Y018850D03*
X014103Y018850D03*
X013103Y018850D03*
X012103Y018850D03*
X011103Y018850D03*
X010103Y018850D03*
X009103Y018850D03*
X008103Y018850D03*
X007103Y018850D03*
X006103Y018850D03*
X005103Y018850D03*
X004103Y018850D03*
X003103Y018850D03*
X001249Y017350D03*
X001249Y016350D03*
X003353Y010600D03*
X003353Y009600D03*
X008853Y006350D03*
X009853Y006350D03*
X010103Y001100D03*
X011103Y001100D03*
X012103Y001100D03*
X013103Y001100D03*
X014103Y001100D03*
X015103Y001100D03*
X016103Y001100D03*
X017103Y001100D03*
X018103Y001100D03*
X018779Y002527D03*
X019486Y003234D03*
X009103Y001100D03*
X008103Y001100D03*
X007103Y001100D03*
X006103Y001100D03*
X005103Y001100D03*
X004103Y001100D03*
X003103Y001100D03*
X002249Y002496D03*
X001542Y003204D03*
X019633Y016320D03*
X019633Y017320D03*
D13*
X004563Y005850D03*
X004563Y005350D03*
X004563Y004850D03*
X004563Y004350D03*
X001643Y004350D03*
X001643Y004850D03*
X001643Y005350D03*
X001643Y005850D03*
D14*
X006453Y008238D03*
X006453Y008435D03*
X006453Y008631D03*
X006453Y008828D03*
X006453Y009025D03*
X006453Y009222D03*
X006453Y009419D03*
X006453Y009616D03*
X006453Y009813D03*
X006453Y010009D03*
X006453Y010206D03*
X006453Y010403D03*
X006453Y010600D03*
X006453Y010797D03*
X006453Y010994D03*
X006453Y011191D03*
X006453Y011387D03*
X006453Y011584D03*
X006453Y011781D03*
X006453Y011978D03*
X006453Y012175D03*
X006453Y012372D03*
X006453Y012569D03*
X006453Y012765D03*
X006453Y012962D03*
X012752Y012962D03*
X012752Y012765D03*
X012752Y012569D03*
X012752Y012372D03*
X012752Y012175D03*
X012752Y011978D03*
X012752Y011781D03*
X012752Y011584D03*
X012752Y011387D03*
X012752Y011191D03*
X012752Y010994D03*
X012752Y010797D03*
X012752Y010600D03*
X012752Y010403D03*
X012752Y010206D03*
X012752Y010009D03*
X012752Y009813D03*
X012752Y009616D03*
X012752Y009419D03*
X012752Y009222D03*
X012752Y009025D03*
X012752Y008828D03*
X012752Y008631D03*
X012752Y008435D03*
X012752Y008238D03*
D15*
X011965Y007450D03*
X011768Y007450D03*
X011571Y007450D03*
X011374Y007450D03*
X011177Y007450D03*
X010981Y007450D03*
X010784Y007450D03*
X010587Y007450D03*
X010390Y007450D03*
X010193Y007450D03*
X009996Y007450D03*
X009799Y007450D03*
X009603Y007450D03*
X009406Y007450D03*
X009209Y007450D03*
X009012Y007450D03*
X008815Y007450D03*
X008618Y007450D03*
X008421Y007450D03*
X008225Y007450D03*
X008028Y007450D03*
X007831Y007450D03*
X007634Y007450D03*
X007437Y007450D03*
X007240Y007450D03*
X007240Y013750D03*
X007437Y013750D03*
X007634Y013750D03*
X007831Y013750D03*
X008028Y013750D03*
X008225Y013750D03*
X008421Y013750D03*
X008618Y013750D03*
X008815Y013750D03*
X009012Y013750D03*
X009209Y013750D03*
X009406Y013750D03*
X009603Y013750D03*
X009799Y013750D03*
X009996Y013750D03*
X010193Y013750D03*
X010390Y013750D03*
X010587Y013750D03*
X010784Y013750D03*
X010981Y013750D03*
X011177Y013750D03*
X011374Y013750D03*
X011571Y013750D03*
X011768Y013750D03*
X011965Y013750D03*
D16*
X006603Y015850D03*
X006603Y016850D03*
X005603Y016850D03*
X005603Y015850D03*
X004603Y015850D03*
X004603Y016850D03*
X003603Y016850D03*
X003603Y015850D03*
X002603Y015850D03*
X002603Y016850D03*
D17*
X001353Y010350D03*
X019603Y009850D03*
D18*
X019603Y010850D03*
X019603Y011850D03*
X019603Y012850D03*
X019603Y013850D03*
X019603Y014850D03*
X001353Y014350D03*
X001353Y013350D03*
X001353Y012350D03*
X001353Y011350D03*
X001353Y015350D03*
D19*
X002271Y008487D03*
X002271Y007463D03*
D20*
X001228Y006400D03*
X001228Y009550D03*
D21*
X001228Y008475D03*
X001228Y007475D03*
D22*
X016103Y007560D03*
X016603Y007560D03*
X017103Y007560D03*
X017603Y007560D03*
X018103Y007560D03*
X018603Y007560D03*
X019103Y007560D03*
X019603Y007560D03*
X019603Y005140D03*
X019103Y005140D03*
X018603Y005140D03*
X018103Y005140D03*
X017603Y005140D03*
X017103Y005140D03*
X016603Y005140D03*
X016103Y005140D03*
D23*
X018103Y013476D03*
X018103Y014224D03*
X003103Y008849D03*
X003103Y008101D03*
D24*
X015478Y011225D03*
D25*
X007853Y006600D03*
X007603Y006600D03*
X007353Y006600D03*
X005978Y009600D03*
X005603Y009725D03*
X005728Y010100D03*
X005978Y010350D03*
X005603Y011225D03*
X005603Y011600D03*
X005353Y011850D03*
X005103Y012100D03*
X004853Y012350D03*
D26*
X004729Y013350D03*
X005477Y013350D03*
X016979Y009350D03*
X017727Y009350D03*
D27*
X017728Y010975D03*
X016103Y011350D03*
X016103Y010100D03*
X013353Y006725D03*
X013728Y006350D03*
X013603Y005850D03*
X013103Y005850D03*
X012603Y005850D03*
X012103Y005850D03*
X010103Y003600D03*
X009103Y004100D03*
X008103Y003100D03*
X007103Y002600D03*
X005103Y002100D03*
X004103Y003350D03*
X003353Y003600D03*
X003603Y004350D03*
X003603Y005350D03*
X003728Y005850D03*
X004103Y006350D03*
X004353Y006850D03*
X004853Y007850D03*
X004103Y008850D03*
X005103Y009850D03*
X005103Y010600D03*
X007103Y010850D03*
X007603Y012850D03*
X010853Y013100D03*
X012103Y010600D03*
X008603Y008100D03*
X006103Y004600D03*
X002603Y005350D03*
X002353Y006350D03*
X001853Y004225D03*
X013603Y015850D03*
X014103Y016600D03*
X014603Y017100D03*
X015603Y017600D03*
X016228Y005850D03*
X017103Y004100D03*
X017353Y003100D03*
X018353Y004100D03*
X019603Y004725D03*
D28*
X016603Y008100D03*
X017728Y009350D03*
X011603Y008100D03*
X008853Y009850D03*
X007603Y009600D03*
X007353Y011600D03*
X008853Y012600D03*
X006603Y013475D03*
X003103Y013850D03*
X002353Y012850D03*
X003103Y008100D03*
X006478Y007100D03*
X006853Y005600D03*
X007103Y004100D03*
M02*
