G75*
%MOIN*%
%OFA0B0*%
%FSLAX24Y24*%
%IPPOS*%
%LPD*%
%AMOC8*
5,1,8,0,0,1.08239X$1,22.5*
%
%ADD10C,0.0000*%
%ADD11C,0.0740*%
%ADD12R,0.0610X0.0210*%
%ADD13R,0.0591X0.0138*%
%ADD14R,0.0138X0.0591*%
%ADD15OC8,0.0740*%
%ADD16R,0.0594X0.0594*%
%ADD17C,0.0700*%
%ADD18R,0.0551X0.0138*%
%ADD19R,0.0748X0.0709*%
%ADD20R,0.0748X0.0748*%
%ADD21R,0.0260X0.0800*%
%ADD22R,0.0591X0.0512*%
%ADD23C,0.0500*%
%ADD24R,0.0200X0.0200*%
%ADD25R,0.0512X0.0591*%
%ADD26C,0.0100*%
%ADD27OC8,0.0400*%
%ADD28C,0.0240*%
%ADD29C,0.0120*%
%ADD30OC8,0.0396*%
%ADD31C,0.0160*%
D10*
X000603Y000100D02*
X000603Y019785D01*
X020288Y019785D01*
X020288Y000100D01*
X000603Y000100D01*
X001012Y001100D02*
X001014Y001148D01*
X001020Y001196D01*
X001030Y001243D01*
X001043Y001289D01*
X001061Y001334D01*
X001081Y001378D01*
X001106Y001420D01*
X001134Y001459D01*
X001164Y001496D01*
X001198Y001530D01*
X001235Y001562D01*
X001273Y001591D01*
X001314Y001616D01*
X001357Y001638D01*
X001402Y001656D01*
X001448Y001670D01*
X001495Y001681D01*
X001543Y001688D01*
X001591Y001691D01*
X001639Y001690D01*
X001687Y001685D01*
X001735Y001676D01*
X001781Y001664D01*
X001826Y001647D01*
X001870Y001627D01*
X001912Y001604D01*
X001952Y001577D01*
X001990Y001547D01*
X002025Y001514D01*
X002057Y001478D01*
X002087Y001440D01*
X002113Y001399D01*
X002135Y001356D01*
X002155Y001312D01*
X002170Y001267D01*
X002182Y001220D01*
X002190Y001172D01*
X002194Y001124D01*
X002194Y001076D01*
X002190Y001028D01*
X002182Y000980D01*
X002170Y000933D01*
X002155Y000888D01*
X002135Y000844D01*
X002113Y000801D01*
X002087Y000760D01*
X002057Y000722D01*
X002025Y000686D01*
X001990Y000653D01*
X001952Y000623D01*
X001912Y000596D01*
X001870Y000573D01*
X001826Y000553D01*
X001781Y000536D01*
X001735Y000524D01*
X001687Y000515D01*
X001639Y000510D01*
X001591Y000509D01*
X001543Y000512D01*
X001495Y000519D01*
X001448Y000530D01*
X001402Y000544D01*
X001357Y000562D01*
X001314Y000584D01*
X001273Y000609D01*
X001235Y000638D01*
X001198Y000670D01*
X001164Y000704D01*
X001134Y000741D01*
X001106Y000780D01*
X001081Y000822D01*
X001061Y000866D01*
X001043Y000911D01*
X001030Y000957D01*
X001020Y001004D01*
X001014Y001052D01*
X001012Y001100D01*
X001012Y018850D02*
X001014Y018898D01*
X001020Y018946D01*
X001030Y018993D01*
X001043Y019039D01*
X001061Y019084D01*
X001081Y019128D01*
X001106Y019170D01*
X001134Y019209D01*
X001164Y019246D01*
X001198Y019280D01*
X001235Y019312D01*
X001273Y019341D01*
X001314Y019366D01*
X001357Y019388D01*
X001402Y019406D01*
X001448Y019420D01*
X001495Y019431D01*
X001543Y019438D01*
X001591Y019441D01*
X001639Y019440D01*
X001687Y019435D01*
X001735Y019426D01*
X001781Y019414D01*
X001826Y019397D01*
X001870Y019377D01*
X001912Y019354D01*
X001952Y019327D01*
X001990Y019297D01*
X002025Y019264D01*
X002057Y019228D01*
X002087Y019190D01*
X002113Y019149D01*
X002135Y019106D01*
X002155Y019062D01*
X002170Y019017D01*
X002182Y018970D01*
X002190Y018922D01*
X002194Y018874D01*
X002194Y018826D01*
X002190Y018778D01*
X002182Y018730D01*
X002170Y018683D01*
X002155Y018638D01*
X002135Y018594D01*
X002113Y018551D01*
X002087Y018510D01*
X002057Y018472D01*
X002025Y018436D01*
X001990Y018403D01*
X001952Y018373D01*
X001912Y018346D01*
X001870Y018323D01*
X001826Y018303D01*
X001781Y018286D01*
X001735Y018274D01*
X001687Y018265D01*
X001639Y018260D01*
X001591Y018259D01*
X001543Y018262D01*
X001495Y018269D01*
X001448Y018280D01*
X001402Y018294D01*
X001357Y018312D01*
X001314Y018334D01*
X001273Y018359D01*
X001235Y018388D01*
X001198Y018420D01*
X001164Y018454D01*
X001134Y018491D01*
X001106Y018530D01*
X001081Y018572D01*
X001061Y018616D01*
X001043Y018661D01*
X001030Y018707D01*
X001020Y018754D01*
X001014Y018802D01*
X001012Y018850D01*
X018762Y018850D02*
X018764Y018898D01*
X018770Y018946D01*
X018780Y018993D01*
X018793Y019039D01*
X018811Y019084D01*
X018831Y019128D01*
X018856Y019170D01*
X018884Y019209D01*
X018914Y019246D01*
X018948Y019280D01*
X018985Y019312D01*
X019023Y019341D01*
X019064Y019366D01*
X019107Y019388D01*
X019152Y019406D01*
X019198Y019420D01*
X019245Y019431D01*
X019293Y019438D01*
X019341Y019441D01*
X019389Y019440D01*
X019437Y019435D01*
X019485Y019426D01*
X019531Y019414D01*
X019576Y019397D01*
X019620Y019377D01*
X019662Y019354D01*
X019702Y019327D01*
X019740Y019297D01*
X019775Y019264D01*
X019807Y019228D01*
X019837Y019190D01*
X019863Y019149D01*
X019885Y019106D01*
X019905Y019062D01*
X019920Y019017D01*
X019932Y018970D01*
X019940Y018922D01*
X019944Y018874D01*
X019944Y018826D01*
X019940Y018778D01*
X019932Y018730D01*
X019920Y018683D01*
X019905Y018638D01*
X019885Y018594D01*
X019863Y018551D01*
X019837Y018510D01*
X019807Y018472D01*
X019775Y018436D01*
X019740Y018403D01*
X019702Y018373D01*
X019662Y018346D01*
X019620Y018323D01*
X019576Y018303D01*
X019531Y018286D01*
X019485Y018274D01*
X019437Y018265D01*
X019389Y018260D01*
X019341Y018259D01*
X019293Y018262D01*
X019245Y018269D01*
X019198Y018280D01*
X019152Y018294D01*
X019107Y018312D01*
X019064Y018334D01*
X019023Y018359D01*
X018985Y018388D01*
X018948Y018420D01*
X018914Y018454D01*
X018884Y018491D01*
X018856Y018530D01*
X018831Y018572D01*
X018811Y018616D01*
X018793Y018661D01*
X018780Y018707D01*
X018770Y018754D01*
X018764Y018802D01*
X018762Y018850D01*
X018762Y001100D02*
X018764Y001148D01*
X018770Y001196D01*
X018780Y001243D01*
X018793Y001289D01*
X018811Y001334D01*
X018831Y001378D01*
X018856Y001420D01*
X018884Y001459D01*
X018914Y001496D01*
X018948Y001530D01*
X018985Y001562D01*
X019023Y001591D01*
X019064Y001616D01*
X019107Y001638D01*
X019152Y001656D01*
X019198Y001670D01*
X019245Y001681D01*
X019293Y001688D01*
X019341Y001691D01*
X019389Y001690D01*
X019437Y001685D01*
X019485Y001676D01*
X019531Y001664D01*
X019576Y001647D01*
X019620Y001627D01*
X019662Y001604D01*
X019702Y001577D01*
X019740Y001547D01*
X019775Y001514D01*
X019807Y001478D01*
X019837Y001440D01*
X019863Y001399D01*
X019885Y001356D01*
X019905Y001312D01*
X019920Y001267D01*
X019932Y001220D01*
X019940Y001172D01*
X019944Y001124D01*
X019944Y001076D01*
X019940Y001028D01*
X019932Y000980D01*
X019920Y000933D01*
X019905Y000888D01*
X019885Y000844D01*
X019863Y000801D01*
X019837Y000760D01*
X019807Y000722D01*
X019775Y000686D01*
X019740Y000653D01*
X019702Y000623D01*
X019662Y000596D01*
X019620Y000573D01*
X019576Y000553D01*
X019531Y000536D01*
X019485Y000524D01*
X019437Y000515D01*
X019389Y000510D01*
X019341Y000509D01*
X019293Y000512D01*
X019245Y000519D01*
X019198Y000530D01*
X019152Y000544D01*
X019107Y000562D01*
X019064Y000584D01*
X019023Y000609D01*
X018985Y000638D01*
X018948Y000670D01*
X018914Y000704D01*
X018884Y000741D01*
X018856Y000780D01*
X018831Y000822D01*
X018811Y000866D01*
X018793Y000911D01*
X018780Y000957D01*
X018770Y001004D01*
X018764Y001052D01*
X018762Y001100D01*
D11*
X018103Y001100D03*
X017103Y001100D03*
X016103Y001100D03*
X015103Y001100D03*
X014103Y001100D03*
X013103Y001100D03*
X012103Y001100D03*
X011103Y001100D03*
X010103Y001100D03*
X009103Y001100D03*
X008103Y001100D03*
X007103Y001100D03*
X006103Y001100D03*
X005103Y001100D03*
X004103Y001100D03*
X003103Y001100D03*
X002249Y002496D03*
X001542Y003204D03*
X003353Y009600D03*
X003353Y010600D03*
X008853Y006350D03*
X009853Y006350D03*
X018779Y002527D03*
X019486Y003234D03*
X019633Y016320D03*
X019633Y017320D03*
X018103Y018850D03*
X017103Y018850D03*
X016103Y018850D03*
X015103Y018850D03*
X014103Y018850D03*
X013103Y018850D03*
X012103Y018850D03*
X011103Y018850D03*
X010103Y018850D03*
X009103Y018850D03*
X008103Y018850D03*
X007103Y018850D03*
X006103Y018850D03*
X005103Y018850D03*
X004103Y018850D03*
X003103Y018850D03*
X001249Y017350D03*
X001249Y016350D03*
D12*
X001643Y005850D03*
X001643Y005350D03*
X001643Y004850D03*
X001643Y004350D03*
X004563Y004350D03*
X004563Y004850D03*
X004563Y005350D03*
X004563Y005850D03*
D13*
X006453Y008238D03*
X006453Y008435D03*
X006453Y008631D03*
X006453Y008828D03*
X006453Y009025D03*
X006453Y009222D03*
X006453Y009419D03*
X006453Y009616D03*
X006453Y009813D03*
X006453Y010009D03*
X006453Y010206D03*
X006453Y010403D03*
X006453Y010600D03*
X006453Y010797D03*
X006453Y010994D03*
X006453Y011191D03*
X006453Y011387D03*
X006453Y011584D03*
X006453Y011781D03*
X006453Y011978D03*
X006453Y012175D03*
X006453Y012372D03*
X006453Y012569D03*
X006453Y012765D03*
X006453Y012962D03*
X012752Y012962D03*
X012752Y012765D03*
X012752Y012569D03*
X012752Y012372D03*
X012752Y012175D03*
X012752Y011978D03*
X012752Y011781D03*
X012752Y011584D03*
X012752Y011387D03*
X012752Y011191D03*
X012752Y010994D03*
X012752Y010797D03*
X012752Y010600D03*
X012752Y010403D03*
X012752Y010206D03*
X012752Y010009D03*
X012752Y009813D03*
X012752Y009616D03*
X012752Y009419D03*
X012752Y009222D03*
X012752Y009025D03*
X012752Y008828D03*
X012752Y008631D03*
X012752Y008435D03*
X012752Y008238D03*
D14*
X011965Y007450D03*
X011768Y007450D03*
X011571Y007450D03*
X011374Y007450D03*
X011177Y007450D03*
X010981Y007450D03*
X010784Y007450D03*
X010587Y007450D03*
X010390Y007450D03*
X010193Y007450D03*
X009996Y007450D03*
X009799Y007450D03*
X009603Y007450D03*
X009406Y007450D03*
X009209Y007450D03*
X009012Y007450D03*
X008815Y007450D03*
X008618Y007450D03*
X008421Y007450D03*
X008225Y007450D03*
X008028Y007450D03*
X007831Y007450D03*
X007634Y007450D03*
X007437Y007450D03*
X007240Y007450D03*
X007240Y013750D03*
X007437Y013750D03*
X007634Y013750D03*
X007831Y013750D03*
X008028Y013750D03*
X008225Y013750D03*
X008421Y013750D03*
X008618Y013750D03*
X008815Y013750D03*
X009012Y013750D03*
X009209Y013750D03*
X009406Y013750D03*
X009603Y013750D03*
X009799Y013750D03*
X009996Y013750D03*
X010193Y013750D03*
X010390Y013750D03*
X010587Y013750D03*
X010784Y013750D03*
X010981Y013750D03*
X011177Y013750D03*
X011374Y013750D03*
X011571Y013750D03*
X011768Y013750D03*
X011965Y013750D03*
D15*
X006603Y015850D03*
X006603Y016850D03*
X005603Y016850D03*
X005603Y015850D03*
X004603Y015850D03*
X004603Y016850D03*
X003603Y016850D03*
X003603Y015850D03*
X002603Y015850D03*
X002603Y016850D03*
D16*
X001353Y010350D03*
X019603Y009850D03*
D17*
X019603Y010850D03*
X019603Y011850D03*
X019603Y012850D03*
X019603Y013850D03*
X019603Y014850D03*
X001353Y014350D03*
X001353Y013350D03*
X001353Y012350D03*
X001353Y011350D03*
X001353Y015350D03*
D18*
X002271Y008487D03*
X002271Y007463D03*
D19*
X001228Y006400D03*
X001228Y009550D03*
D20*
X001228Y008475D03*
X001228Y007475D03*
D21*
X016103Y007560D03*
X016603Y007560D03*
X017103Y007560D03*
X017603Y007560D03*
X018103Y007560D03*
X018603Y007560D03*
X019103Y007560D03*
X019603Y007560D03*
X019603Y005140D03*
X019103Y005140D03*
X018603Y005140D03*
X018103Y005140D03*
X017603Y005140D03*
X017103Y005140D03*
X016603Y005140D03*
X016103Y005140D03*
D22*
X018103Y013476D03*
X018103Y014224D03*
X003103Y008849D03*
X003103Y008101D03*
D23*
X015478Y011225D03*
D24*
X007853Y006600D03*
X007603Y006600D03*
X007353Y006600D03*
X005978Y009600D03*
X005603Y009725D03*
X005728Y010100D03*
X005978Y010350D03*
X005603Y011225D03*
X005603Y011600D03*
X005353Y011850D03*
X005103Y012100D03*
X004853Y012350D03*
D25*
X004729Y013350D03*
X005477Y013350D03*
X016979Y009350D03*
X017727Y009350D03*
D26*
X017341Y009359D02*
X014848Y009359D01*
X014750Y009458D02*
X017341Y009458D01*
X017341Y009556D02*
X014651Y009556D01*
X014553Y009655D02*
X017341Y009655D01*
X017341Y009699D02*
X017341Y009001D01*
X017417Y008925D01*
X018036Y008925D01*
X018112Y009001D01*
X018112Y009699D01*
X018036Y009775D01*
X017417Y009775D01*
X017341Y009699D01*
X017395Y009753D02*
X014454Y009753D01*
X014356Y009852D02*
X019176Y009852D01*
X019176Y009950D02*
X014257Y009950D01*
X014159Y010049D02*
X019176Y010049D01*
X019176Y010147D02*
X014060Y010147D01*
X014018Y010189D02*
X013120Y010189D01*
X013103Y010206D01*
X013177Y010280D01*
X013177Y010420D01*
X018427Y010420D01*
X019415Y011408D01*
X019507Y011370D01*
X019698Y011370D01*
X019838Y011428D01*
X019838Y011272D01*
X019698Y011330D01*
X019507Y011330D01*
X019331Y011257D01*
X019196Y011122D01*
X019123Y010945D01*
X019123Y010755D01*
X019196Y010578D01*
X019331Y010443D01*
X019507Y010370D01*
X019698Y010370D01*
X019838Y010428D01*
X019838Y010277D01*
X019252Y010277D01*
X019176Y010201D01*
X019176Y009499D01*
X019252Y009423D01*
X019838Y009423D01*
X019838Y008039D01*
X019786Y008090D01*
X019419Y008090D01*
X019343Y008014D01*
X019343Y007106D01*
X019419Y007030D01*
X019786Y007030D01*
X019838Y007081D01*
X019838Y005619D01*
X019786Y005670D01*
X019419Y005670D01*
X019353Y005604D01*
X019286Y005670D01*
X018919Y005670D01*
X018843Y005594D01*
X018843Y004686D01*
X018919Y004610D01*
X019273Y004610D01*
X019273Y004588D01*
X019466Y004395D01*
X019739Y004395D01*
X019838Y004493D01*
X019838Y003590D01*
X019770Y003658D01*
X019586Y003734D01*
X019387Y003734D01*
X019203Y003658D01*
X019063Y003517D01*
X019020Y003414D01*
X018293Y003414D01*
X017783Y003925D01*
X017783Y004610D01*
X017786Y004610D01*
X017863Y004686D01*
X017863Y005594D01*
X017786Y005670D01*
X017419Y005670D01*
X017353Y005604D01*
X017286Y005670D01*
X016919Y005670D01*
X016853Y005604D01*
X016786Y005670D01*
X016514Y005670D01*
X016558Y005713D01*
X016558Y005987D01*
X016364Y006180D01*
X016091Y006180D01*
X016033Y006122D01*
X016033Y008175D01*
X015927Y008280D01*
X014018Y010189D01*
X013943Y010009D02*
X015853Y008100D01*
X015853Y004100D01*
X013853Y002100D01*
X005103Y002100D01*
X005603Y001850D02*
X005353Y001600D01*
X004853Y001600D01*
X004603Y001850D01*
X004603Y002350D01*
X004853Y002600D01*
X005603Y002600D01*
X007103Y004100D01*
X006353Y004850D02*
X006103Y005100D01*
X005853Y005100D01*
X005603Y004850D01*
X005603Y003350D01*
X005103Y002850D01*
X003603Y002850D01*
X003103Y002350D01*
X003103Y001100D01*
X003568Y001282D02*
X003637Y001282D01*
X003603Y001199D02*
X003603Y001001D01*
X003679Y000817D01*
X003819Y000676D01*
X004003Y000600D01*
X004202Y000600D01*
X004386Y000676D01*
X004526Y000817D01*
X004603Y001001D01*
X004679Y000817D01*
X004819Y000676D01*
X005003Y000600D01*
X005202Y000600D01*
X005386Y000676D01*
X005526Y000817D01*
X005603Y001001D01*
X005679Y000817D01*
X005819Y000676D01*
X006003Y000600D01*
X006202Y000600D01*
X006386Y000676D01*
X006526Y000817D01*
X006603Y001001D01*
X006679Y000817D01*
X006819Y000676D01*
X007003Y000600D01*
X007202Y000600D01*
X007386Y000676D01*
X007526Y000817D01*
X007603Y001001D01*
X007679Y000817D01*
X007819Y000676D01*
X008003Y000600D01*
X008202Y000600D01*
X008386Y000676D01*
X008526Y000817D01*
X008603Y001001D01*
X008679Y000817D01*
X008819Y000676D01*
X009003Y000600D01*
X009202Y000600D01*
X009386Y000676D01*
X009526Y000817D01*
X009603Y001001D01*
X009679Y000817D01*
X009819Y000676D01*
X010003Y000600D01*
X010202Y000600D01*
X010386Y000676D01*
X010526Y000817D01*
X010603Y001001D01*
X010679Y000817D01*
X010819Y000676D01*
X011003Y000600D01*
X011202Y000600D01*
X011386Y000676D01*
X011526Y000817D01*
X011603Y001001D01*
X011679Y000817D01*
X011819Y000676D01*
X012003Y000600D01*
X012202Y000600D01*
X012386Y000676D01*
X012526Y000817D01*
X012603Y001001D01*
X012679Y000817D01*
X012819Y000676D01*
X013003Y000600D01*
X013202Y000600D01*
X013386Y000676D01*
X013526Y000817D01*
X013603Y001001D01*
X013679Y000817D01*
X013819Y000676D01*
X014003Y000600D01*
X014202Y000600D01*
X014386Y000676D01*
X014526Y000817D01*
X014603Y001001D01*
X014679Y000817D01*
X014819Y000676D01*
X015003Y000600D01*
X015202Y000600D01*
X015386Y000676D01*
X015526Y000817D01*
X015603Y001001D01*
X015679Y000817D01*
X015819Y000676D01*
X016003Y000600D01*
X016202Y000600D01*
X016386Y000676D01*
X016526Y000817D01*
X016603Y001001D01*
X016603Y001199D01*
X016526Y001383D01*
X016386Y001524D01*
X016202Y001600D01*
X016003Y001600D01*
X015819Y001524D01*
X015679Y001383D01*
X015603Y001199D01*
X015603Y001001D01*
X015603Y001199D01*
X015526Y001383D01*
X015386Y001524D01*
X015202Y001600D01*
X015003Y001600D01*
X014819Y001524D01*
X014679Y001383D01*
X014603Y001199D01*
X014603Y001001D01*
X014603Y001199D01*
X014526Y001383D01*
X014386Y001524D01*
X014202Y001600D01*
X014003Y001600D01*
X013819Y001524D01*
X013679Y001383D01*
X013603Y001199D01*
X013603Y001001D01*
X013603Y001199D01*
X013526Y001383D01*
X013386Y001524D01*
X013202Y001600D01*
X013003Y001600D01*
X012819Y001524D01*
X012679Y001383D01*
X012603Y001199D01*
X012603Y001001D01*
X012603Y001199D01*
X012526Y001383D01*
X012386Y001524D01*
X012202Y001600D01*
X012003Y001600D01*
X011819Y001524D01*
X011679Y001383D01*
X011603Y001199D01*
X011603Y001001D01*
X011603Y001199D01*
X011526Y001383D01*
X011386Y001524D01*
X011202Y001600D01*
X011003Y001600D01*
X010819Y001524D01*
X010679Y001383D01*
X010603Y001199D01*
X010603Y001001D01*
X010603Y001199D01*
X010526Y001383D01*
X010386Y001524D01*
X010202Y001600D01*
X010003Y001600D01*
X009819Y001524D01*
X009679Y001383D01*
X009603Y001199D01*
X009603Y001001D01*
X009603Y001199D01*
X009526Y001383D01*
X009386Y001524D01*
X009202Y001600D01*
X009003Y001600D01*
X008819Y001524D01*
X008679Y001383D01*
X008603Y001199D01*
X008603Y001001D01*
X008603Y001199D01*
X008526Y001383D01*
X008386Y001524D01*
X008202Y001600D01*
X008003Y001600D01*
X007819Y001524D01*
X007679Y001383D01*
X007603Y001199D01*
X007603Y001001D01*
X007603Y001199D01*
X007526Y001383D01*
X007386Y001524D01*
X007202Y001600D01*
X007003Y001600D01*
X006819Y001524D01*
X006679Y001383D01*
X006603Y001199D01*
X006603Y001001D01*
X006603Y001199D01*
X006526Y001383D01*
X006386Y001524D01*
X006202Y001600D01*
X006003Y001600D01*
X005819Y001524D01*
X005679Y001383D01*
X005603Y001199D01*
X005603Y001001D01*
X005603Y001199D01*
X005526Y001383D01*
X005458Y001451D01*
X005533Y001525D01*
X005677Y001670D01*
X014177Y001670D01*
X014283Y001775D01*
X016783Y004275D01*
X016783Y004610D01*
X016786Y004610D01*
X016853Y004676D01*
X016919Y004610D01*
X016923Y004610D01*
X016923Y004387D01*
X016773Y004237D01*
X016744Y004237D01*
X016773Y004237D02*
X016773Y003963D01*
X016966Y003770D01*
X017239Y003770D01*
X017423Y003953D01*
X017423Y003775D01*
X017528Y003670D01*
X018144Y003054D01*
X019020Y003054D01*
X019063Y002951D01*
X018879Y003027D01*
X018680Y003027D01*
X018496Y002951D01*
X018355Y002810D01*
X018279Y002626D01*
X018279Y002427D01*
X018355Y002244D01*
X018496Y002103D01*
X018680Y002027D01*
X018877Y002027D01*
X018714Y001933D01*
X018520Y001739D01*
X018392Y001518D01*
X018386Y001524D01*
X018202Y001600D01*
X018003Y001600D01*
X017819Y001524D01*
X017679Y001383D01*
X017603Y001199D01*
X017603Y001001D01*
X017679Y000817D01*
X017819Y000676D01*
X018003Y000600D01*
X018202Y000600D01*
X018386Y000676D01*
X018392Y000682D01*
X018408Y000655D01*
X018353Y000600D01*
X002853Y000600D01*
X002611Y000842D01*
X002633Y000926D01*
X002679Y000817D01*
X002819Y000676D01*
X003003Y000600D01*
X003202Y000600D01*
X003386Y000676D01*
X003526Y000817D01*
X003603Y001001D01*
X003603Y001199D01*
X003679Y001383D01*
X003819Y001524D01*
X004003Y001600D01*
X004202Y001600D01*
X004386Y001524D01*
X004526Y001383D01*
X004603Y001199D01*
X004603Y001001D01*
X004603Y001199D01*
X004679Y001383D01*
X004747Y001451D01*
X004528Y001670D01*
X004423Y001775D01*
X004423Y002425D01*
X004668Y002670D01*
X003677Y002670D01*
X003283Y002275D01*
X003283Y001567D01*
X003386Y001524D01*
X003526Y001383D01*
X003603Y001199D01*
X003603Y001184D02*
X003603Y001184D01*
X003603Y001085D02*
X003603Y001085D01*
X003597Y000987D02*
X003608Y000987D01*
X003649Y000888D02*
X003556Y000888D01*
X003499Y000790D02*
X003706Y000790D01*
X003804Y000691D02*
X003401Y000691D01*
X002804Y000691D02*
X002762Y000691D01*
X002706Y000790D02*
X002663Y000790D01*
X002649Y000888D02*
X002623Y000888D01*
X002633Y001274D02*
X002572Y001502D01*
X002435Y001739D01*
X002241Y001933D01*
X002084Y002024D01*
X002150Y001996D01*
X002348Y001996D01*
X002532Y002073D01*
X002673Y002213D01*
X002749Y002397D01*
X002749Y002596D01*
X002706Y002699D01*
X003277Y003270D01*
X003489Y003270D01*
X003683Y003463D01*
X003683Y003737D01*
X003489Y003930D01*
X003216Y003930D01*
X003023Y003737D01*
X003023Y003525D01*
X002452Y002954D01*
X002348Y002996D01*
X002150Y002996D01*
X001966Y002920D01*
X001825Y002780D01*
X001966Y002920D01*
X002042Y003104D01*
X002042Y003303D01*
X001966Y003487D01*
X001825Y003627D01*
X001641Y003704D01*
X001442Y003704D01*
X001259Y003627D01*
X001118Y003487D01*
X001103Y003449D01*
X001103Y005916D01*
X001208Y005916D01*
X001208Y005691D01*
X001284Y005615D01*
X002001Y005615D01*
X002056Y005670D01*
X002456Y005670D01*
X002316Y005530D01*
X002056Y005530D01*
X002001Y005585D01*
X001284Y005585D01*
X001208Y005509D01*
X001208Y005191D01*
X001284Y005115D01*
X002001Y005115D01*
X002056Y005170D01*
X002316Y005170D01*
X002466Y005020D01*
X002739Y005020D01*
X002923Y005203D01*
X002923Y005025D01*
X002744Y005025D01*
X002843Y005124D02*
X002923Y005124D01*
X002923Y005025D02*
X003278Y004670D01*
X003456Y004670D01*
X003273Y004487D01*
X003273Y004213D01*
X003466Y004020D01*
X003739Y004020D01*
X003889Y004170D01*
X004149Y004170D01*
X004204Y004115D01*
X004921Y004115D01*
X004998Y004191D01*
X004998Y004509D01*
X004921Y004585D01*
X004204Y004585D01*
X004149Y004530D01*
X003889Y004530D01*
X003749Y004670D01*
X004149Y004670D01*
X004204Y004615D01*
X004921Y004615D01*
X004998Y004691D01*
X004998Y005009D01*
X004921Y005085D01*
X004204Y005085D01*
X004149Y005030D01*
X003749Y005030D01*
X003933Y005213D01*
X003933Y005487D01*
X003882Y005537D01*
X004058Y005713D01*
X004058Y005987D01*
X003864Y006180D01*
X003783Y006180D01*
X003783Y007025D01*
X004523Y007765D01*
X004523Y007713D01*
X004716Y007520D01*
X004989Y007520D01*
X005183Y007713D01*
X005183Y007987D01*
X005088Y008081D01*
X005459Y008451D01*
X006028Y008451D01*
X006028Y008115D01*
X006104Y008039D01*
X006802Y008039D01*
X006878Y008115D01*
X006878Y010608D01*
X006966Y010520D01*
X007239Y010520D01*
X007433Y010713D01*
X007433Y010987D01*
X007239Y011180D01*
X006966Y011180D01*
X006960Y011174D01*
X006821Y011174D01*
X006804Y011191D01*
X006878Y011265D01*
X006878Y011820D01*
X006903Y011795D01*
X007024Y011674D01*
X007024Y011464D01*
X007217Y011272D01*
X007488Y011272D01*
X007681Y011464D01*
X007681Y011736D01*
X007488Y011928D01*
X007279Y011928D01*
X007158Y012050D01*
X007158Y013175D01*
X006931Y013401D01*
X006931Y013611D01*
X006738Y013803D01*
X006467Y013803D01*
X006274Y013611D01*
X006274Y013540D01*
X005862Y013540D01*
X005862Y013699D01*
X005786Y013775D01*
X005167Y013775D01*
X005103Y013711D01*
X005038Y013775D01*
X004419Y013775D01*
X004343Y013699D01*
X004343Y013540D01*
X004274Y013540D01*
X004163Y013429D01*
X003774Y013040D01*
X002627Y013040D01*
X002488Y013178D01*
X002217Y013178D01*
X002024Y012986D01*
X002024Y012714D01*
X002199Y012540D01*
X001793Y012540D01*
X001759Y012622D01*
X001624Y012757D01*
X001448Y012830D01*
X001257Y012830D01*
X001103Y012766D01*
X001103Y013934D01*
X001257Y013870D01*
X001448Y013870D01*
X001624Y013943D01*
X001759Y014078D01*
X001833Y014255D01*
X001833Y014445D01*
X001759Y014622D01*
X001624Y014757D01*
X001448Y014830D01*
X001257Y014830D01*
X001103Y014766D01*
X001103Y014934D01*
X001257Y014870D01*
X001448Y014870D01*
X001624Y014943D01*
X001759Y015078D01*
X001788Y015146D01*
X002774Y014160D01*
X007300Y014160D01*
X007238Y014099D01*
X007238Y013400D01*
X007257Y013382D01*
X007257Y012941D01*
X007273Y012925D01*
X007273Y012713D01*
X007466Y012520D01*
X007739Y012520D01*
X007933Y012713D01*
X007933Y012987D01*
X007739Y013180D01*
X007617Y013180D01*
X007617Y013382D01*
X007634Y013398D01*
X007708Y013324D01*
X010610Y013324D01*
X010523Y013237D01*
X010523Y012963D01*
X010716Y012770D01*
X010989Y012770D01*
X011183Y012963D01*
X011183Y013237D01*
X011161Y013258D01*
X011162Y013292D01*
X011160Y013294D01*
X011160Y013382D01*
X011177Y013398D01*
X011251Y013324D01*
X012087Y013324D01*
X012164Y013400D01*
X012164Y014099D01*
X012145Y014118D01*
X012145Y014888D01*
X013052Y015795D01*
X013283Y016025D01*
X013283Y018383D01*
X013386Y018426D01*
X013526Y018567D01*
X013603Y018751D01*
X013679Y018567D01*
X013819Y018426D01*
X014003Y018350D01*
X014202Y018350D01*
X014386Y018426D01*
X014526Y018567D01*
X014603Y018751D01*
X014679Y018567D01*
X014819Y018426D01*
X014923Y018383D01*
X014923Y017247D01*
X014739Y017430D01*
X014466Y017430D01*
X014273Y017237D01*
X014273Y016963D01*
X014423Y016813D01*
X014423Y016747D01*
X014239Y016930D01*
X013966Y016930D01*
X013773Y016737D01*
X013773Y016463D01*
X013923Y016313D01*
X013923Y015997D01*
X013739Y016180D01*
X013466Y016180D01*
X013273Y015987D01*
X013273Y015713D01*
X013423Y015563D01*
X013423Y013675D01*
X012909Y013161D01*
X012403Y013161D01*
X012327Y013085D01*
X012327Y011462D01*
X012403Y011385D01*
X013101Y011385D01*
X013120Y011404D01*
X014661Y011404D01*
X016677Y013420D01*
X016783Y013525D01*
X016783Y016025D01*
X016927Y016170D01*
X019154Y016170D01*
X019209Y016036D01*
X019350Y015896D01*
X019533Y015820D01*
X019732Y015820D01*
X019838Y015863D01*
X019838Y015272D01*
X019698Y015330D01*
X019507Y015330D01*
X019331Y015257D01*
X019196Y015122D01*
X019170Y015060D01*
X018016Y015060D01*
X017893Y014937D01*
X017893Y014610D01*
X017753Y014610D01*
X017677Y014534D01*
X017677Y013914D01*
X017753Y013838D01*
X018452Y013838D01*
X018528Y013914D01*
X018528Y014534D01*
X018452Y014610D01*
X018313Y014610D01*
X018313Y014640D01*
X019170Y014640D01*
X019196Y014578D01*
X019331Y014443D01*
X019507Y014370D01*
X019698Y014370D01*
X019838Y014428D01*
X019838Y014272D01*
X019698Y014330D01*
X019507Y014330D01*
X019331Y014257D01*
X019196Y014122D01*
X019123Y013945D01*
X019123Y013755D01*
X019196Y013578D01*
X019331Y013443D01*
X019507Y013370D01*
X019698Y013370D01*
X019838Y013428D01*
X019838Y012272D01*
X019698Y012330D01*
X019507Y012330D01*
X019331Y012257D01*
X019196Y012122D01*
X019123Y011945D01*
X019123Y011755D01*
X019161Y011663D01*
X018278Y010780D01*
X017999Y010780D01*
X018058Y010838D01*
X018058Y011112D01*
X017864Y011305D01*
X017591Y011305D01*
X017398Y011112D01*
X017398Y010977D01*
X015767Y010977D01*
X015800Y011010D01*
X015858Y011149D01*
X015858Y011301D01*
X015800Y011440D01*
X015693Y011547D01*
X015553Y011605D01*
X015402Y011605D01*
X015262Y011547D01*
X015155Y011440D01*
X015098Y011301D01*
X015098Y011184D01*
X013110Y011184D01*
X013101Y011193D01*
X012403Y011193D01*
X012327Y011116D01*
X012327Y010842D01*
X012239Y010930D01*
X011966Y010930D01*
X011773Y010737D01*
X011773Y010463D01*
X011966Y010270D01*
X012178Y010270D01*
X012225Y010223D01*
X012384Y010223D01*
X012401Y010206D01*
X012327Y010132D01*
X012327Y008115D01*
X012403Y008039D01*
X013101Y008039D01*
X013120Y008058D01*
X013140Y008058D01*
X013173Y008025D01*
X013173Y007012D01*
X013023Y006862D01*
X013023Y006685D01*
X012677Y007030D01*
X012177Y007030D01*
X012145Y007062D01*
X012145Y007082D01*
X012164Y007101D01*
X012164Y007800D01*
X012087Y007876D01*
X011842Y007876D01*
X011931Y007964D01*
X011931Y008236D01*
X011738Y008428D01*
X011467Y008428D01*
X011274Y008236D01*
X011274Y007964D01*
X011363Y007876D01*
X008845Y007876D01*
X008933Y007963D01*
X008933Y008237D01*
X008739Y008430D01*
X008466Y008430D01*
X008273Y008237D01*
X008273Y008025D01*
X008241Y007993D01*
X008241Y007818D01*
X008225Y007802D01*
X008208Y007818D01*
X008208Y009249D01*
X007931Y009526D01*
X007931Y009736D01*
X007738Y009928D01*
X007467Y009928D01*
X007274Y009736D01*
X007274Y009464D01*
X007467Y009272D01*
X007676Y009272D01*
X007848Y009100D01*
X007848Y007876D01*
X007118Y007876D01*
X007041Y007800D01*
X007041Y007101D01*
X007118Y007025D01*
X007247Y007025D01*
X007247Y007013D01*
X007163Y006929D01*
X007163Y006794D01*
X007123Y006754D01*
X007123Y006446D01*
X007199Y006370D01*
X008006Y006370D01*
X008083Y006446D01*
X008083Y006754D01*
X008021Y006816D01*
X008021Y007025D01*
X008150Y007025D01*
X008225Y007099D01*
X008299Y007025D01*
X009273Y007025D01*
X009055Y006807D01*
X008952Y006850D01*
X008753Y006850D01*
X008569Y006774D01*
X008429Y006633D01*
X008353Y006449D01*
X008353Y006251D01*
X008429Y006067D01*
X008569Y005926D01*
X008753Y005850D01*
X008952Y005850D01*
X009136Y005926D01*
X009276Y006067D01*
X009353Y006251D01*
X009429Y006067D01*
X009569Y005926D01*
X009753Y005850D01*
X009952Y005850D01*
X010136Y005926D01*
X010276Y006067D01*
X010319Y006170D01*
X010427Y006170D01*
X010533Y006275D01*
X010964Y006707D01*
X010964Y006734D01*
X011773Y005925D01*
X011773Y005713D01*
X011966Y005520D01*
X012239Y005520D01*
X012353Y005633D01*
X012466Y005520D01*
X012739Y005520D01*
X012853Y005633D01*
X012966Y005520D01*
X013239Y005520D01*
X013353Y005633D01*
X013466Y005520D01*
X013518Y005520D01*
X013278Y005280D01*
X006997Y005280D01*
X007181Y005464D01*
X007181Y005736D01*
X006988Y005928D01*
X006717Y005928D01*
X006569Y005780D01*
X006177Y005780D01*
X004927Y007030D01*
X004639Y007030D01*
X004489Y007180D01*
X004216Y007180D01*
X004023Y006987D01*
X004023Y006713D01*
X004216Y006520D01*
X004489Y006520D01*
X004639Y006670D01*
X004778Y006670D01*
X005918Y005530D01*
X005528Y005530D01*
X005278Y005280D01*
X005173Y005175D01*
X005173Y003925D01*
X004778Y003530D01*
X004389Y003530D01*
X004239Y003680D01*
X003966Y003680D01*
X003773Y003487D01*
X003773Y003213D01*
X003956Y003030D01*
X003528Y003030D01*
X003028Y002530D01*
X002923Y002425D01*
X002923Y001567D01*
X002819Y001524D01*
X002679Y001383D01*
X002633Y001274D01*
X002631Y001282D02*
X002637Y001282D01*
X002605Y001381D02*
X002678Y001381D01*
X002774Y001479D02*
X002578Y001479D01*
X002528Y001578D02*
X002923Y001578D01*
X002923Y001676D02*
X002472Y001676D01*
X002400Y001775D02*
X002923Y001775D01*
X002923Y001873D02*
X002301Y001873D01*
X002174Y001972D02*
X002923Y001972D01*
X002923Y002070D02*
X002526Y002070D01*
X002628Y002169D02*
X002923Y002169D01*
X002923Y002267D02*
X002695Y002267D01*
X002736Y002366D02*
X002923Y002366D01*
X002962Y002464D02*
X002749Y002464D01*
X002749Y002563D02*
X003060Y002563D01*
X003159Y002661D02*
X002722Y002661D01*
X002767Y002760D02*
X003257Y002760D01*
X003356Y002858D02*
X002865Y002858D01*
X002964Y002957D02*
X003454Y002957D01*
X003161Y003154D02*
X003832Y003154D01*
X003773Y003252D02*
X003259Y003252D01*
X003062Y003055D02*
X003931Y003055D01*
X003773Y003351D02*
X003570Y003351D01*
X003668Y003449D02*
X003773Y003449D01*
X003833Y003548D02*
X003683Y003548D01*
X003683Y003646D02*
X003932Y003646D01*
X003675Y003745D02*
X004992Y003745D01*
X004894Y003646D02*
X004273Y003646D01*
X004372Y003548D02*
X004795Y003548D01*
X004853Y003350D02*
X004103Y003350D01*
X003576Y003843D02*
X005091Y003843D01*
X005173Y003942D02*
X002036Y003942D01*
X001989Y003895D02*
X002183Y004088D01*
X002183Y004362D01*
X002078Y004467D01*
X002078Y004509D01*
X002001Y004585D01*
X001284Y004585D01*
X001208Y004509D01*
X001208Y004191D01*
X001284Y004115D01*
X001523Y004115D01*
X001523Y004088D01*
X001716Y003895D01*
X001989Y003895D01*
X002134Y004040D02*
X003446Y004040D01*
X003347Y004139D02*
X002183Y004139D01*
X002183Y004237D02*
X003273Y004237D01*
X003273Y004336D02*
X002183Y004336D01*
X002110Y004434D02*
X003273Y004434D01*
X003318Y004533D02*
X002054Y004533D01*
X001853Y004350D02*
X001853Y004225D01*
X001853Y004350D02*
X001643Y004350D01*
X001571Y004040D02*
X001103Y004040D01*
X001103Y003942D02*
X001669Y003942D01*
X001780Y003646D02*
X003023Y003646D01*
X003023Y003548D02*
X001905Y003548D01*
X001981Y003449D02*
X002947Y003449D01*
X002848Y003351D02*
X002022Y003351D01*
X002042Y003252D02*
X002750Y003252D01*
X002651Y003154D02*
X002042Y003154D01*
X002022Y003055D02*
X002553Y003055D01*
X002454Y002957D02*
X002445Y002957D01*
X002053Y002957D02*
X001981Y002957D01*
X001903Y002858D02*
X001903Y002858D01*
X001825Y002780D02*
X001641Y002704D01*
X001442Y002704D01*
X001259Y002780D01*
X001118Y002920D01*
X001103Y002958D01*
X001103Y002850D01*
X001839Y002114D01*
X001956Y002083D01*
X001825Y002213D01*
X001749Y002397D01*
X001749Y002596D01*
X001825Y002780D01*
X001817Y002760D02*
X001776Y002760D01*
X001776Y002661D02*
X001292Y002661D01*
X001307Y002760D02*
X001193Y002760D01*
X001180Y002858D02*
X001103Y002858D01*
X001103Y002957D02*
X001103Y002957D01*
X001390Y002563D02*
X001749Y002563D01*
X001749Y002464D02*
X001489Y002464D01*
X001587Y002366D02*
X001762Y002366D01*
X001803Y002267D02*
X001686Y002267D01*
X001784Y002169D02*
X001870Y002169D01*
X002249Y002496D02*
X003353Y003600D01*
X003353Y003600D01*
X003129Y003843D02*
X001103Y003843D01*
X001103Y003745D02*
X003030Y003745D01*
X003603Y004350D02*
X004563Y004350D01*
X004998Y004336D02*
X005173Y004336D01*
X005173Y004434D02*
X004998Y004434D01*
X004974Y004533D02*
X005173Y004533D01*
X005173Y004631D02*
X004937Y004631D01*
X004998Y004730D02*
X005173Y004730D01*
X005173Y004828D02*
X004998Y004828D01*
X004998Y004927D02*
X005173Y004927D01*
X005173Y005025D02*
X004981Y005025D01*
X005173Y005124D02*
X003843Y005124D01*
X003933Y005222D02*
X005220Y005222D01*
X005319Y005321D02*
X003933Y005321D01*
X003933Y005419D02*
X005417Y005419D01*
X005516Y005518D02*
X003902Y005518D01*
X003960Y005616D02*
X005832Y005616D01*
X005733Y005715D02*
X004058Y005715D01*
X004058Y005813D02*
X005635Y005813D01*
X005536Y005912D02*
X004058Y005912D01*
X004034Y006010D02*
X005438Y006010D01*
X005339Y006109D02*
X003936Y006109D01*
X003783Y006207D02*
X005241Y006207D01*
X005142Y006306D02*
X003783Y006306D01*
X003783Y006404D02*
X005044Y006404D01*
X004945Y006503D02*
X003783Y006503D01*
X003783Y006601D02*
X004135Y006601D01*
X004036Y006700D02*
X003783Y006700D01*
X003783Y006798D02*
X004023Y006798D01*
X004023Y006897D02*
X003783Y006897D01*
X003783Y006995D02*
X004031Y006995D01*
X004129Y007094D02*
X003851Y007094D01*
X003949Y007192D02*
X007041Y007192D01*
X007041Y007291D02*
X004048Y007291D01*
X004146Y007389D02*
X007041Y007389D01*
X007041Y007488D02*
X004245Y007488D01*
X004343Y007586D02*
X004650Y007586D01*
X004551Y007685D02*
X004442Y007685D01*
X004853Y007850D02*
X004853Y008100D01*
X005384Y008631D01*
X006453Y008631D01*
X006453Y008828D02*
X005331Y008828D01*
X003603Y007100D01*
X003603Y006100D01*
X003728Y005850D01*
X003353Y005600D02*
X003353Y007100D01*
X005278Y009025D01*
X006453Y009025D01*
X006453Y009222D02*
X005225Y009222D01*
X003103Y007100D01*
X003103Y005100D01*
X003353Y004850D01*
X004563Y004850D01*
X004188Y004631D02*
X003788Y004631D01*
X003887Y004533D02*
X004151Y004533D01*
X004180Y004139D02*
X003858Y004139D01*
X003759Y004040D02*
X005173Y004040D01*
X005173Y004139D02*
X004945Y004139D01*
X004998Y004237D02*
X005173Y004237D01*
X005353Y003850D02*
X004853Y003350D01*
X005353Y003850D02*
X005353Y005100D01*
X005603Y005350D01*
X006103Y005350D01*
X006353Y005100D01*
X013353Y005100D01*
X014103Y005850D01*
X014103Y008100D01*
X013571Y008631D01*
X012752Y008631D01*
X012752Y008435D02*
X013518Y008435D01*
X013728Y008225D01*
X013728Y006350D01*
X013603Y005850D02*
X012603Y006850D01*
X012103Y006850D01*
X011965Y006988D01*
X011965Y007450D01*
X011768Y007450D02*
X011768Y006935D01*
X012103Y006600D01*
X012353Y006600D01*
X013103Y005850D01*
X013335Y005616D02*
X013370Y005616D01*
X013516Y005518D02*
X007181Y005518D01*
X007181Y005616D02*
X011870Y005616D01*
X011773Y005715D02*
X007181Y005715D01*
X007104Y005813D02*
X011773Y005813D01*
X011773Y005912D02*
X010101Y005912D01*
X010220Y006010D02*
X011688Y006010D01*
X011589Y006109D02*
X010294Y006109D01*
X010464Y006207D02*
X011491Y006207D01*
X011392Y006306D02*
X010563Y006306D01*
X010661Y006404D02*
X011294Y006404D01*
X011195Y006503D02*
X010760Y006503D01*
X010858Y006601D02*
X011097Y006601D01*
X010998Y006700D02*
X010957Y006700D01*
X010784Y006781D02*
X010353Y006350D01*
X009853Y006350D01*
X009485Y006010D02*
X009220Y006010D01*
X009294Y006109D02*
X009411Y006109D01*
X009371Y006207D02*
X009335Y006207D01*
X009353Y006251D02*
X009353Y006449D01*
X009429Y006633D01*
X009465Y006670D01*
X009427Y006670D01*
X009310Y006553D01*
X009353Y006449D01*
X009353Y006251D01*
X009353Y006306D02*
X009353Y006306D01*
X009353Y006404D02*
X009353Y006404D01*
X009331Y006503D02*
X009375Y006503D01*
X009358Y006601D02*
X009415Y006601D01*
X009353Y006850D02*
X008853Y006350D01*
X008495Y006700D02*
X008083Y006700D01*
X008083Y006601D02*
X008415Y006601D01*
X008375Y006503D02*
X008083Y006503D01*
X008040Y006404D02*
X008353Y006404D01*
X008353Y006306D02*
X005652Y006306D01*
X005553Y006404D02*
X007165Y006404D01*
X007123Y006503D02*
X005455Y006503D01*
X005356Y006601D02*
X007123Y006601D01*
X007123Y006700D02*
X005258Y006700D01*
X005159Y006798D02*
X007163Y006798D01*
X007163Y006897D02*
X005061Y006897D01*
X004962Y006995D02*
X007229Y006995D01*
X007049Y007094D02*
X004576Y007094D01*
X004353Y006850D02*
X004853Y006850D01*
X006103Y005600D01*
X006853Y005600D01*
X006602Y005813D02*
X006144Y005813D01*
X006046Y005912D02*
X006700Y005912D01*
X007005Y005912D02*
X008605Y005912D01*
X008485Y006010D02*
X005947Y006010D01*
X005849Y006109D02*
X008411Y006109D01*
X008371Y006207D02*
X005750Y006207D01*
X004847Y006601D02*
X004570Y006601D01*
X005055Y007586D02*
X007041Y007586D01*
X007041Y007685D02*
X005154Y007685D01*
X005183Y007783D02*
X007041Y007783D01*
X006842Y008079D02*
X007848Y008079D01*
X007848Y008177D02*
X006878Y008177D01*
X006878Y008276D02*
X007848Y008276D01*
X007848Y008374D02*
X006878Y008374D01*
X006878Y008473D02*
X007848Y008473D01*
X007848Y008571D02*
X006878Y008571D01*
X006878Y008670D02*
X007848Y008670D01*
X007848Y008768D02*
X006878Y008768D01*
X006878Y008867D02*
X007848Y008867D01*
X007848Y008965D02*
X006878Y008965D01*
X006878Y009064D02*
X007848Y009064D01*
X007786Y009162D02*
X006878Y009162D01*
X006878Y009261D02*
X007687Y009261D01*
X007380Y009359D02*
X006878Y009359D01*
X006878Y009458D02*
X007281Y009458D01*
X007274Y009556D02*
X006878Y009556D01*
X006878Y009655D02*
X007274Y009655D01*
X007292Y009753D02*
X006878Y009753D01*
X006878Y009852D02*
X007390Y009852D01*
X007603Y009600D02*
X008028Y009175D01*
X008028Y007450D01*
X008225Y007450D02*
X008225Y008097D01*
X008228Y008100D01*
X008228Y006975D01*
X008219Y007094D02*
X008230Y007094D01*
X008021Y006995D02*
X009243Y006995D01*
X009145Y006897D02*
X008021Y006897D01*
X008038Y006798D02*
X008628Y006798D01*
X008421Y007450D02*
X008421Y007919D01*
X008603Y008100D01*
X008933Y008079D02*
X011274Y008079D01*
X011274Y008177D02*
X008933Y008177D01*
X008894Y008276D02*
X011314Y008276D01*
X011413Y008374D02*
X008795Y008374D01*
X008410Y008374D02*
X008208Y008374D01*
X008208Y008276D02*
X008311Y008276D01*
X008273Y008177D02*
X008208Y008177D01*
X008208Y008079D02*
X008273Y008079D01*
X008241Y007980D02*
X008208Y007980D01*
X008208Y007882D02*
X008241Y007882D01*
X007848Y007882D02*
X005183Y007882D01*
X005183Y007980D02*
X007848Y007980D01*
X008208Y008473D02*
X012327Y008473D01*
X012327Y008571D02*
X008208Y008571D01*
X008208Y008670D02*
X012327Y008670D01*
X012327Y008768D02*
X008208Y008768D01*
X008208Y008867D02*
X012327Y008867D01*
X012327Y008965D02*
X008208Y008965D01*
X008208Y009064D02*
X012327Y009064D01*
X012327Y009162D02*
X008208Y009162D01*
X008197Y009261D02*
X012327Y009261D01*
X012327Y009359D02*
X008098Y009359D01*
X008000Y009458D02*
X012327Y009458D01*
X012327Y009556D02*
X007931Y009556D01*
X007931Y009655D02*
X012327Y009655D01*
X012327Y009753D02*
X007914Y009753D01*
X007815Y009852D02*
X012327Y009852D01*
X012327Y009950D02*
X006878Y009950D01*
X006878Y010049D02*
X012327Y010049D01*
X012342Y010147D02*
X006878Y010147D01*
X006878Y010246D02*
X012202Y010246D01*
X012121Y010206D02*
X012103Y010225D01*
X012121Y010206D02*
X012752Y010206D01*
X013584Y010206D01*
X013603Y010225D01*
X013943Y010009D02*
X012752Y010009D01*
X012752Y009813D02*
X013890Y009813D01*
X015603Y008100D01*
X015603Y004350D01*
X013853Y002600D01*
X007103Y002600D01*
X008103Y003100D02*
X013853Y003100D01*
X015353Y004600D01*
X015353Y008100D01*
X013837Y009616D01*
X012752Y009616D01*
X012752Y009419D02*
X013784Y009419D01*
X015103Y008100D01*
X015103Y004850D01*
X013853Y003600D01*
X010103Y003600D01*
X009103Y004100D02*
X013853Y004100D01*
X014853Y005100D01*
X014853Y008100D01*
X013731Y009222D01*
X012752Y009222D01*
X012752Y009025D02*
X013677Y009025D01*
X014603Y008100D01*
X014603Y005350D01*
X013853Y004600D01*
X006103Y004600D01*
X006353Y004850D02*
X013603Y004850D01*
X014353Y005600D01*
X014353Y008100D01*
X013624Y008828D01*
X012752Y008828D01*
X012327Y008374D02*
X011793Y008374D01*
X011891Y008276D02*
X012327Y008276D01*
X012327Y008177D02*
X011931Y008177D01*
X011931Y008079D02*
X012363Y008079D01*
X012164Y007783D02*
X013173Y007783D01*
X013173Y007685D02*
X012164Y007685D01*
X012164Y007586D02*
X013173Y007586D01*
X013173Y007488D02*
X012164Y007488D01*
X012164Y007389D02*
X013173Y007389D01*
X013173Y007291D02*
X012164Y007291D01*
X012164Y007192D02*
X013173Y007192D01*
X013173Y007094D02*
X012156Y007094D01*
X012712Y006995D02*
X013156Y006995D01*
X013057Y006897D02*
X012811Y006897D01*
X012909Y006798D02*
X013023Y006798D01*
X013023Y006700D02*
X013008Y006700D01*
X013353Y006725D02*
X013353Y008100D01*
X013215Y008238D01*
X012752Y008238D01*
X013173Y007980D02*
X011931Y007980D01*
X011848Y007882D02*
X013173Y007882D01*
X011603Y008100D02*
X011603Y007482D01*
X011571Y007450D01*
X011177Y007450D02*
X011177Y007025D01*
X011853Y006350D01*
X012103Y006350D01*
X012603Y005850D01*
X012835Y005616D02*
X012870Y005616D01*
X013319Y005321D02*
X007037Y005321D01*
X007136Y005419D02*
X013417Y005419D01*
X012370Y005616D02*
X012335Y005616D01*
X012103Y005850D02*
X010981Y006972D01*
X010981Y007450D01*
X010784Y007450D02*
X010784Y006781D01*
X010603Y006850D02*
X009353Y006850D01*
X009101Y005912D02*
X009605Y005912D01*
X010603Y006850D02*
X010603Y007435D01*
X010587Y007450D01*
X011274Y007980D02*
X008933Y007980D01*
X008851Y007882D02*
X011357Y007882D01*
X013143Y010246D02*
X019221Y010246D01*
X019332Y010443D02*
X018450Y010443D01*
X018548Y010541D02*
X019233Y010541D01*
X019170Y010640D02*
X018647Y010640D01*
X018745Y010738D02*
X019129Y010738D01*
X019123Y010837D02*
X018844Y010837D01*
X018942Y010935D02*
X019123Y010935D01*
X019159Y011034D02*
X019041Y011034D01*
X019139Y011132D02*
X019206Y011132D01*
X019238Y011231D02*
X019304Y011231D01*
X019336Y011329D02*
X019505Y011329D01*
X019700Y011329D02*
X019838Y011329D01*
X019837Y011428D02*
X019838Y011428D01*
X019603Y011850D02*
X018353Y010600D01*
X012752Y010600D01*
X012752Y010403D02*
X012299Y010403D01*
X012103Y010600D01*
X011872Y010837D02*
X007433Y010837D01*
X007433Y010935D02*
X012327Y010935D01*
X012327Y011034D02*
X007386Y011034D01*
X007287Y011132D02*
X012342Y011132D01*
X012361Y011428D02*
X007644Y011428D01*
X007681Y011526D02*
X012327Y011526D01*
X012327Y011625D02*
X007681Y011625D01*
X007681Y011723D02*
X012327Y011723D01*
X012327Y011822D02*
X007595Y011822D01*
X007497Y011920D02*
X012327Y011920D01*
X012327Y012019D02*
X007189Y012019D01*
X007158Y012117D02*
X012327Y012117D01*
X012327Y012216D02*
X007158Y012216D01*
X007158Y012314D02*
X012327Y012314D01*
X012327Y012413D02*
X007158Y012413D01*
X007158Y012511D02*
X012327Y012511D01*
X012327Y012610D02*
X007829Y012610D01*
X007927Y012708D02*
X012327Y012708D01*
X012327Y012807D02*
X011026Y012807D01*
X011124Y012905D02*
X012327Y012905D01*
X012327Y013004D02*
X011183Y013004D01*
X011183Y013102D02*
X012344Y013102D01*
X012161Y013398D02*
X013146Y013398D01*
X013244Y013496D02*
X012164Y013496D01*
X012164Y013595D02*
X013343Y013595D01*
X013423Y013693D02*
X012164Y013693D01*
X012164Y013792D02*
X013423Y013792D01*
X013423Y013890D02*
X012164Y013890D01*
X012164Y013989D02*
X013423Y013989D01*
X013423Y014087D02*
X012164Y014087D01*
X012145Y014186D02*
X013423Y014186D01*
X013423Y014284D02*
X012145Y014284D01*
X012145Y014383D02*
X013423Y014383D01*
X013423Y014481D02*
X012145Y014481D01*
X012145Y014580D02*
X013423Y014580D01*
X013423Y014678D02*
X012145Y014678D01*
X012145Y014777D02*
X013423Y014777D01*
X013423Y014875D02*
X012145Y014875D01*
X012231Y014974D02*
X013423Y014974D01*
X013423Y015072D02*
X012329Y015072D01*
X012428Y015171D02*
X013423Y015171D01*
X013423Y015269D02*
X012526Y015269D01*
X012625Y015368D02*
X013423Y015368D01*
X013423Y015466D02*
X012723Y015466D01*
X012822Y015565D02*
X013421Y015565D01*
X013323Y015663D02*
X012920Y015663D01*
X013019Y015762D02*
X013273Y015762D01*
X013273Y015860D02*
X013117Y015860D01*
X013216Y015959D02*
X013273Y015959D01*
X013283Y016057D02*
X013343Y016057D01*
X013283Y016156D02*
X013441Y016156D01*
X013283Y016254D02*
X013923Y016254D01*
X013923Y016156D02*
X013764Y016156D01*
X013862Y016057D02*
X013923Y016057D01*
X013883Y016353D02*
X013283Y016353D01*
X013283Y016451D02*
X013785Y016451D01*
X013773Y016550D02*
X013283Y016550D01*
X013283Y016648D02*
X013773Y016648D01*
X013782Y016747D02*
X013283Y016747D01*
X013283Y016845D02*
X013881Y016845D01*
X014103Y016600D02*
X014103Y013600D01*
X013268Y012765D01*
X012752Y012765D01*
X012752Y012569D02*
X013571Y012569D01*
X014603Y013600D01*
X014603Y017100D01*
X014391Y016845D02*
X014324Y016845D01*
X014292Y016944D02*
X013283Y016944D01*
X013283Y017042D02*
X014273Y017042D01*
X014273Y017141D02*
X013283Y017141D01*
X013283Y017239D02*
X014275Y017239D01*
X014373Y017338D02*
X013283Y017338D01*
X013283Y017436D02*
X014923Y017436D01*
X014923Y017338D02*
X014832Y017338D01*
X014923Y017535D02*
X013283Y017535D01*
X013283Y017633D02*
X014923Y017633D01*
X014923Y017732D02*
X013283Y017732D01*
X013283Y017830D02*
X014923Y017830D01*
X014923Y017929D02*
X013283Y017929D01*
X013283Y018027D02*
X014923Y018027D01*
X014923Y018126D02*
X013283Y018126D01*
X013283Y018224D02*
X014923Y018224D01*
X014923Y018323D02*
X013283Y018323D01*
X013374Y018421D02*
X013832Y018421D01*
X013726Y018520D02*
X013479Y018520D01*
X013548Y018618D02*
X013657Y018618D01*
X013617Y018717D02*
X013588Y018717D01*
X013603Y018751D02*
X013603Y018949D01*
X013603Y018751D01*
X013603Y018815D02*
X013603Y018815D01*
X013603Y018914D02*
X013603Y018914D01*
X013603Y018949D02*
X013679Y019133D01*
X013819Y019274D01*
X013967Y019335D01*
X013238Y019335D01*
X013386Y019274D01*
X013526Y019133D01*
X013603Y018949D01*
X013628Y019012D02*
X013577Y019012D01*
X013536Y019111D02*
X013669Y019111D01*
X013754Y019209D02*
X013451Y019209D01*
X013304Y019308D02*
X013901Y019308D01*
X014238Y019335D02*
X014967Y019335D01*
X014819Y019274D01*
X014679Y019133D01*
X014603Y018949D01*
X014603Y018751D01*
X014603Y018949D01*
X014526Y019133D01*
X014386Y019274D01*
X014238Y019335D01*
X014304Y019308D02*
X014901Y019308D01*
X014754Y019209D02*
X014451Y019209D01*
X014536Y019111D02*
X014669Y019111D01*
X014628Y019012D02*
X014577Y019012D01*
X014603Y018914D02*
X014603Y018914D01*
X014603Y018815D02*
X014603Y018815D01*
X014617Y018717D02*
X014588Y018717D01*
X014548Y018618D02*
X014657Y018618D01*
X014726Y018520D02*
X014479Y018520D01*
X014374Y018421D02*
X014832Y018421D01*
X015103Y018850D02*
X015103Y013600D01*
X013874Y012372D01*
X012752Y012372D01*
X012752Y012175D02*
X014177Y012175D01*
X015603Y013600D01*
X015603Y017600D01*
X016103Y016850D02*
X016353Y017100D01*
X019413Y017100D01*
X019633Y017320D01*
X019603Y016350D02*
X019633Y016320D01*
X019603Y016350D02*
X016853Y016350D01*
X016603Y016100D01*
X016603Y013600D01*
X014587Y011584D01*
X012752Y011584D01*
X012752Y011781D02*
X014284Y011781D01*
X016103Y013600D01*
X016103Y016850D01*
X016814Y016057D02*
X019200Y016057D01*
X019160Y016156D02*
X016913Y016156D01*
X016783Y015959D02*
X019287Y015959D01*
X019436Y015860D02*
X016783Y015860D01*
X016783Y015762D02*
X019838Y015762D01*
X019830Y015860D02*
X019838Y015860D01*
X019838Y015663D02*
X016783Y015663D01*
X016783Y015565D02*
X019838Y015565D01*
X019838Y015466D02*
X016783Y015466D01*
X016783Y015368D02*
X019838Y015368D01*
X019360Y015269D02*
X016783Y015269D01*
X016783Y015171D02*
X019244Y015171D01*
X019175Y015072D02*
X016783Y015072D01*
X016783Y014974D02*
X017929Y014974D01*
X017893Y014875D02*
X016783Y014875D01*
X016783Y014777D02*
X017893Y014777D01*
X017893Y014678D02*
X016783Y014678D01*
X016783Y014580D02*
X017723Y014580D01*
X017677Y014481D02*
X016783Y014481D01*
X016783Y014383D02*
X017677Y014383D01*
X017677Y014284D02*
X016783Y014284D01*
X016783Y014186D02*
X017677Y014186D01*
X017677Y014087D02*
X016783Y014087D01*
X016783Y013989D02*
X017677Y013989D01*
X017701Y013890D02*
X016783Y013890D01*
X016783Y013792D02*
X019123Y013792D01*
X019123Y013890D02*
X018504Y013890D01*
X018528Y013989D02*
X019140Y013989D01*
X019181Y014087D02*
X018528Y014087D01*
X018528Y014186D02*
X019259Y014186D01*
X019396Y014284D02*
X018528Y014284D01*
X018528Y014383D02*
X019477Y014383D01*
X019293Y014481D02*
X018528Y014481D01*
X018482Y014580D02*
X019195Y014580D01*
X019728Y014383D02*
X019838Y014383D01*
X019838Y014284D02*
X019809Y014284D01*
X019189Y013595D02*
X016783Y013595D01*
X016783Y013693D02*
X019148Y013693D01*
X019278Y013496D02*
X016753Y013496D01*
X016655Y013398D02*
X019441Y013398D01*
X019764Y013398D02*
X019838Y013398D01*
X019838Y013299D02*
X016556Y013299D01*
X016458Y013201D02*
X019838Y013201D01*
X019838Y013102D02*
X016359Y013102D01*
X016261Y013004D02*
X019838Y013004D01*
X019838Y012905D02*
X016162Y012905D01*
X016064Y012807D02*
X019838Y012807D01*
X019838Y012708D02*
X015965Y012708D01*
X015867Y012610D02*
X019838Y012610D01*
X019838Y012511D02*
X015768Y012511D01*
X015670Y012413D02*
X019838Y012413D01*
X019838Y012314D02*
X019737Y012314D01*
X019469Y012314D02*
X015571Y012314D01*
X015473Y012216D02*
X019289Y012216D01*
X019194Y012117D02*
X015374Y012117D01*
X015276Y012019D02*
X019153Y012019D01*
X019123Y011920D02*
X015177Y011920D01*
X015079Y011822D02*
X019123Y011822D01*
X019136Y011723D02*
X014980Y011723D01*
X014882Y011625D02*
X019123Y011625D01*
X019024Y011526D02*
X015714Y011526D01*
X015805Y011428D02*
X018926Y011428D01*
X018827Y011329D02*
X015846Y011329D01*
X015858Y011231D02*
X017516Y011231D01*
X017418Y011132D02*
X015850Y011132D01*
X015810Y011034D02*
X017398Y011034D01*
X017549Y010797D02*
X017728Y010975D01*
X017549Y010797D02*
X012752Y010797D01*
X013177Y010344D02*
X019838Y010344D01*
X019176Y009753D02*
X018059Y009753D01*
X018112Y009655D02*
X019176Y009655D01*
X019176Y009556D02*
X018112Y009556D01*
X018112Y009458D02*
X019217Y009458D01*
X019838Y009359D02*
X018112Y009359D01*
X018112Y009261D02*
X019838Y009261D01*
X019838Y009162D02*
X018112Y009162D01*
X018112Y009064D02*
X019838Y009064D01*
X019838Y008965D02*
X018077Y008965D01*
X017377Y008965D02*
X015242Y008965D01*
X015144Y009064D02*
X017341Y009064D01*
X017341Y009162D02*
X015045Y009162D01*
X014947Y009261D02*
X017341Y009261D01*
X016738Y008428D02*
X016467Y008428D01*
X016274Y008236D01*
X016274Y007964D01*
X016343Y007896D01*
X016343Y007106D01*
X016419Y007030D01*
X016786Y007030D01*
X016863Y007106D01*
X016863Y007896D01*
X016931Y007964D01*
X016931Y008236D01*
X016738Y008428D01*
X016793Y008374D02*
X019838Y008374D01*
X019838Y008276D02*
X016891Y008276D01*
X016931Y008177D02*
X019838Y008177D01*
X019838Y008079D02*
X019798Y008079D01*
X019407Y008079D02*
X018298Y008079D01*
X018286Y008090D02*
X017919Y008090D01*
X017843Y008014D01*
X017843Y007106D01*
X017919Y007030D01*
X018286Y007030D01*
X018363Y007106D01*
X018363Y008014D01*
X018286Y008090D01*
X018363Y007980D02*
X019343Y007980D01*
X019343Y007882D02*
X018363Y007882D01*
X018363Y007783D02*
X019343Y007783D01*
X019343Y007685D02*
X018363Y007685D01*
X018363Y007586D02*
X019343Y007586D01*
X019343Y007488D02*
X018363Y007488D01*
X018363Y007389D02*
X019343Y007389D01*
X019343Y007291D02*
X018363Y007291D01*
X018363Y007192D02*
X019343Y007192D01*
X019355Y007094D02*
X018350Y007094D01*
X017855Y007094D02*
X016850Y007094D01*
X016863Y007192D02*
X017843Y007192D01*
X017843Y007291D02*
X016863Y007291D01*
X016863Y007389D02*
X017843Y007389D01*
X017843Y007488D02*
X016863Y007488D01*
X016863Y007586D02*
X017843Y007586D01*
X017843Y007685D02*
X016863Y007685D01*
X016863Y007783D02*
X017843Y007783D01*
X017843Y007882D02*
X016863Y007882D01*
X016931Y007980D02*
X017843Y007980D01*
X017907Y008079D02*
X016931Y008079D01*
X016413Y008374D02*
X015833Y008374D01*
X015735Y008473D02*
X019838Y008473D01*
X019838Y008571D02*
X015636Y008571D01*
X015538Y008670D02*
X019838Y008670D01*
X019838Y008768D02*
X015439Y008768D01*
X015341Y008867D02*
X019838Y008867D01*
X019838Y006995D02*
X016033Y006995D01*
X016033Y006897D02*
X019838Y006897D01*
X019838Y006798D02*
X016033Y006798D01*
X016033Y006700D02*
X019838Y006700D01*
X019838Y006601D02*
X016033Y006601D01*
X016033Y006503D02*
X019838Y006503D01*
X019838Y006404D02*
X016033Y006404D01*
X016033Y006306D02*
X019838Y006306D01*
X019838Y006207D02*
X016033Y006207D01*
X016228Y005850D02*
X016228Y005725D01*
X016103Y005600D01*
X016103Y005140D01*
X016603Y005140D02*
X016603Y004350D01*
X014103Y001850D01*
X005603Y001850D01*
X005585Y001578D02*
X005949Y001578D01*
X005774Y001479D02*
X005486Y001479D01*
X005528Y001381D02*
X005678Y001381D01*
X005637Y001282D02*
X005568Y001282D01*
X005603Y001184D02*
X005603Y001184D01*
X005603Y001085D02*
X005603Y001085D01*
X005597Y000987D02*
X005608Y000987D01*
X005649Y000888D02*
X005556Y000888D01*
X005499Y000790D02*
X005706Y000790D01*
X005804Y000691D02*
X005401Y000691D01*
X004804Y000691D02*
X004401Y000691D01*
X004499Y000790D02*
X004706Y000790D01*
X004649Y000888D02*
X004556Y000888D01*
X004597Y000987D02*
X004608Y000987D01*
X004603Y001085D02*
X004603Y001085D01*
X004603Y001184D02*
X004603Y001184D01*
X004637Y001282D02*
X004568Y001282D01*
X004528Y001381D02*
X004678Y001381D01*
X004719Y001479D02*
X004431Y001479D01*
X004256Y001578D02*
X004620Y001578D01*
X004522Y001676D02*
X003283Y001676D01*
X003283Y001578D02*
X003949Y001578D01*
X003774Y001479D02*
X003431Y001479D01*
X003528Y001381D02*
X003678Y001381D01*
X003283Y001775D02*
X004423Y001775D01*
X004423Y001873D02*
X003283Y001873D01*
X003283Y001972D02*
X004423Y001972D01*
X004423Y002070D02*
X003283Y002070D01*
X003283Y002169D02*
X004423Y002169D01*
X004423Y002267D02*
X003283Y002267D01*
X003373Y002366D02*
X004423Y002366D01*
X004462Y002464D02*
X003471Y002464D01*
X003570Y002563D02*
X004560Y002563D01*
X004659Y002661D02*
X003668Y002661D01*
X003417Y004631D02*
X001103Y004631D01*
X001103Y004533D02*
X001231Y004533D01*
X001208Y004434D02*
X001103Y004434D01*
X001103Y004336D02*
X001208Y004336D01*
X001208Y004237D02*
X001103Y004237D01*
X001103Y004139D02*
X001260Y004139D01*
X001304Y003646D02*
X001103Y003646D01*
X001103Y003548D02*
X001179Y003548D01*
X001103Y004730D02*
X003218Y004730D01*
X003120Y004828D02*
X001103Y004828D01*
X001103Y004927D02*
X003021Y004927D01*
X002461Y005025D02*
X001103Y005025D01*
X001103Y005124D02*
X001275Y005124D01*
X001208Y005222D02*
X001103Y005222D01*
X001103Y005321D02*
X001208Y005321D01*
X001208Y005419D02*
X001103Y005419D01*
X001103Y005518D02*
X001216Y005518D01*
X001283Y005616D02*
X001103Y005616D01*
X001103Y005715D02*
X001208Y005715D01*
X001208Y005813D02*
X001103Y005813D01*
X001103Y005912D02*
X001208Y005912D01*
X001643Y005850D02*
X002603Y005850D01*
X002853Y006100D01*
X002853Y007100D01*
X005171Y009419D01*
X006453Y009419D01*
X006878Y010344D02*
X011892Y010344D01*
X011793Y010443D02*
X006878Y010443D01*
X006878Y010541D02*
X006945Y010541D01*
X007260Y010541D02*
X011773Y010541D01*
X011773Y010640D02*
X007359Y010640D01*
X007433Y010738D02*
X011774Y010738D01*
X010679Y012807D02*
X007933Y012807D01*
X007933Y012905D02*
X010581Y012905D01*
X010523Y013004D02*
X007916Y013004D01*
X007817Y013102D02*
X010523Y013102D01*
X010523Y013201D02*
X007617Y013201D01*
X007617Y013299D02*
X010585Y013299D01*
X010853Y013100D02*
X010981Y013222D01*
X010981Y013750D01*
X011177Y013750D02*
X011177Y013275D01*
X011353Y013100D01*
X011183Y013201D02*
X012949Y013201D01*
X013047Y013299D02*
X011160Y013299D01*
X011176Y013398D02*
X011178Y013398D01*
X011571Y013750D02*
X011571Y014881D01*
X011353Y015100D01*
X011103Y015350D01*
X011103Y018850D01*
X012103Y018850D02*
X012103Y015350D01*
X011768Y015015D01*
X011768Y013750D01*
X011965Y013750D02*
X011965Y014962D01*
X012978Y015975D01*
X013103Y016100D01*
X013103Y018850D01*
X010103Y018850D02*
X010103Y015850D01*
X010784Y015169D01*
X010784Y013750D01*
X010587Y013750D02*
X010587Y015116D01*
X009103Y016600D01*
X009103Y018850D01*
X008103Y018850D02*
X008103Y017350D01*
X010390Y015063D01*
X010390Y013750D01*
X010193Y013750D02*
X010193Y015009D01*
X007103Y018100D01*
X007103Y018850D01*
X006853Y018100D02*
X006353Y018100D01*
X006103Y018350D01*
X006103Y018850D01*
X005103Y018850D02*
X005103Y018100D01*
X005353Y017850D01*
X006853Y017850D01*
X009799Y014903D01*
X009799Y013750D01*
X009603Y013750D02*
X009603Y014850D01*
X006853Y017600D01*
X004353Y017600D01*
X004103Y017850D01*
X004103Y018850D01*
X003103Y018850D02*
X003103Y017600D01*
X003353Y017350D01*
X006853Y017350D01*
X009406Y014797D01*
X009406Y013750D01*
X009996Y013750D02*
X009996Y014956D01*
X006853Y018100D01*
X006215Y017170D02*
X005990Y017170D01*
X006103Y017057D01*
X006103Y016643D01*
X006395Y016350D01*
X006103Y016057D01*
X006103Y016057D01*
X006103Y015643D01*
X006205Y015540D01*
X006000Y015540D01*
X006103Y015643D01*
X006103Y016057D01*
X005810Y016350D01*
X005395Y016350D01*
X005103Y016057D01*
X005103Y016057D01*
X005103Y015643D01*
X005205Y015540D01*
X005000Y015540D01*
X005103Y015643D01*
X005103Y016057D01*
X004810Y016350D01*
X005103Y016643D01*
X005395Y016350D01*
X005810Y016350D01*
X006103Y016643D01*
X006103Y017057D01*
X006215Y017170D01*
X006186Y017141D02*
X006019Y017141D01*
X006103Y017042D02*
X006103Y017042D01*
X006103Y016944D02*
X006103Y016944D01*
X006103Y016845D02*
X006103Y016845D01*
X006103Y016747D02*
X006103Y016747D01*
X006103Y016648D02*
X006103Y016648D01*
X006009Y016550D02*
X006196Y016550D01*
X006294Y016451D02*
X005911Y016451D01*
X005812Y016353D02*
X006393Y016353D01*
X006395Y016350D02*
X006810Y016350D01*
X006395Y016350D01*
X006299Y016254D02*
X005906Y016254D01*
X006004Y016156D02*
X006201Y016156D01*
X006103Y015959D02*
X006103Y015959D01*
X006103Y015860D02*
X006103Y015860D01*
X006103Y015762D02*
X006103Y015762D01*
X006103Y015663D02*
X006103Y015663D01*
X006024Y015565D02*
X006181Y015565D01*
X006906Y016254D02*
X007694Y016254D01*
X007792Y016156D02*
X007004Y016156D01*
X007103Y016057D02*
X006810Y016350D01*
X007103Y016643D01*
X007103Y016845D01*
X007103Y016845D01*
X007908Y016040D01*
X007103Y016040D01*
X007103Y016057D01*
X007891Y016057D01*
X007595Y016353D02*
X006812Y016353D01*
X006911Y016451D02*
X007497Y016451D01*
X007398Y016550D02*
X007009Y016550D01*
X007103Y016648D02*
X007300Y016648D01*
X007201Y016747D02*
X007103Y016747D01*
X005393Y016353D02*
X004812Y016353D01*
X004810Y016350D02*
X004395Y016350D01*
X004103Y016643D01*
X004103Y017057D01*
X004215Y017170D01*
X003278Y017170D01*
X003028Y017420D01*
X002923Y017525D01*
X002923Y018383D01*
X002819Y018426D01*
X002679Y018567D01*
X002633Y018676D01*
X002572Y018448D01*
X002435Y018211D01*
X002241Y018017D01*
X002004Y017880D01*
X001839Y017836D01*
X001654Y017652D01*
X001673Y017633D01*
X002923Y017633D01*
X002923Y017535D02*
X001714Y017535D01*
X001733Y017488D02*
X001673Y017633D01*
X001734Y017732D02*
X002923Y017732D01*
X002923Y017830D02*
X001833Y017830D01*
X002088Y017929D02*
X002923Y017929D01*
X002923Y018027D02*
X002251Y018027D01*
X002350Y018126D02*
X002923Y018126D01*
X002923Y018224D02*
X002443Y018224D01*
X002500Y018323D02*
X002923Y018323D01*
X002832Y018421D02*
X002556Y018421D01*
X002591Y018520D02*
X002726Y018520D01*
X002657Y018618D02*
X002618Y018618D01*
X003012Y017436D02*
X001785Y017436D01*
X001793Y017429D02*
X001733Y017488D01*
X001793Y017429D02*
X001793Y017429D01*
X002133Y017088D01*
X002395Y017350D01*
X002810Y017350D01*
X003103Y017057D01*
X003103Y016643D01*
X002810Y016350D01*
X002395Y016350D01*
X002293Y016453D01*
X002293Y016247D01*
X002395Y016350D01*
X002810Y016350D01*
X002947Y016213D01*
X003163Y016429D01*
X003274Y016540D01*
X004181Y016540D01*
X004383Y016338D01*
X004395Y016350D01*
X004810Y016350D01*
X004906Y016254D02*
X005299Y016254D01*
X005201Y016156D02*
X005004Y016156D01*
X005103Y015959D02*
X005103Y015959D01*
X005103Y015860D02*
X005103Y015860D01*
X005103Y015762D02*
X005103Y015762D01*
X005103Y015663D02*
X005103Y015663D01*
X005024Y015565D02*
X005181Y015565D01*
X005294Y016451D02*
X004911Y016451D01*
X005009Y016550D02*
X005196Y016550D01*
X005103Y016643D02*
X005103Y017057D01*
X005215Y017170D01*
X004990Y017170D01*
X005103Y017057D01*
X005103Y016643D01*
X005103Y016648D02*
X005103Y016648D01*
X005103Y016747D02*
X005103Y016747D01*
X005103Y016845D02*
X005103Y016845D01*
X005103Y016944D02*
X005103Y016944D01*
X005103Y017042D02*
X005103Y017042D01*
X005019Y017141D02*
X005186Y017141D01*
X004393Y016353D02*
X004369Y016353D01*
X004294Y016451D02*
X004270Y016451D01*
X004196Y016550D02*
X003009Y016550D01*
X003103Y016648D02*
X004103Y016648D01*
X004103Y016747D02*
X003103Y016747D01*
X003103Y016845D02*
X004103Y016845D01*
X004103Y016944D02*
X003103Y016944D01*
X003103Y017042D02*
X004103Y017042D01*
X004186Y017141D02*
X003019Y017141D01*
X002921Y017239D02*
X003209Y017239D01*
X003110Y017338D02*
X002822Y017338D01*
X002383Y017338D02*
X001884Y017338D01*
X001982Y017239D02*
X002284Y017239D01*
X002186Y017141D02*
X002081Y017141D01*
X002293Y016451D02*
X002294Y016451D01*
X002293Y016353D02*
X002393Y016353D01*
X002299Y016254D02*
X002293Y016254D01*
X002812Y016353D02*
X003086Y016353D01*
X003185Y016451D02*
X002911Y016451D01*
X002906Y016254D02*
X002988Y016254D01*
X001862Y015072D02*
X001753Y015072D01*
X001655Y014974D02*
X001960Y014974D01*
X002059Y014875D02*
X001460Y014875D01*
X001577Y014777D02*
X002157Y014777D01*
X002256Y014678D02*
X001703Y014678D01*
X001777Y014580D02*
X002354Y014580D01*
X002453Y014481D02*
X001818Y014481D01*
X001833Y014383D02*
X002551Y014383D01*
X002650Y014284D02*
X001833Y014284D01*
X001804Y014186D02*
X002748Y014186D01*
X001763Y014087D02*
X007238Y014087D01*
X007238Y013989D02*
X001670Y013989D01*
X001496Y013890D02*
X007238Y013890D01*
X007238Y013792D02*
X006750Y013792D01*
X006849Y013693D02*
X007238Y013693D01*
X007238Y013595D02*
X006931Y013595D01*
X006931Y013496D02*
X007238Y013496D01*
X007241Y013398D02*
X006935Y013398D01*
X007033Y013299D02*
X007257Y013299D01*
X007257Y013201D02*
X007132Y013201D01*
X007158Y013102D02*
X007257Y013102D01*
X007257Y013004D02*
X007158Y013004D01*
X007158Y012905D02*
X007273Y012905D01*
X007273Y012807D02*
X007158Y012807D01*
X007158Y012708D02*
X007278Y012708D01*
X007376Y012610D02*
X007158Y012610D01*
X007437Y013015D02*
X007603Y012850D01*
X007437Y013015D02*
X007437Y013750D01*
X007633Y013398D02*
X007635Y013398D01*
X006978Y013100D02*
X006603Y013475D01*
X006357Y013693D02*
X005862Y013693D01*
X005862Y013595D02*
X006274Y013595D01*
X006455Y013792D02*
X001103Y013792D01*
X001103Y013890D02*
X001209Y013890D01*
X001103Y013693D02*
X004343Y013693D01*
X004343Y013595D02*
X001103Y013595D01*
X001103Y013496D02*
X004230Y013496D01*
X004131Y013398D02*
X001103Y013398D01*
X001103Y013299D02*
X004033Y013299D01*
X003934Y013201D02*
X001103Y013201D01*
X001103Y013102D02*
X002141Y013102D01*
X002042Y013004D02*
X001103Y013004D01*
X001103Y012905D02*
X002024Y012905D01*
X002024Y012807D02*
X001505Y012807D01*
X001673Y012708D02*
X002030Y012708D01*
X002129Y012610D02*
X001765Y012610D01*
X001200Y012807D02*
X001103Y012807D01*
X002565Y013102D02*
X003836Y013102D01*
X004400Y012379D02*
X003293Y011271D01*
X003293Y011271D01*
X003181Y011160D01*
X001793Y011160D01*
X001759Y011078D01*
X001624Y010943D01*
X001448Y010870D01*
X001257Y010870D01*
X001103Y010934D01*
X001103Y010777D01*
X001703Y010777D01*
X001779Y010701D01*
X001779Y009999D01*
X001732Y009951D01*
X001732Y009142D01*
X001655Y009065D01*
X001103Y009065D01*
X001103Y008979D01*
X001655Y008979D01*
X001732Y008903D01*
X001732Y008047D01*
X001659Y007975D01*
X001732Y007903D01*
X001732Y007047D01*
X001655Y006971D01*
X001103Y006971D01*
X001103Y006885D01*
X001655Y006885D01*
X001732Y006808D01*
X001732Y006085D01*
X002001Y006085D01*
X002056Y006030D01*
X002528Y006030D01*
X002673Y006175D01*
X002673Y007175D01*
X002778Y007280D01*
X003213Y007715D01*
X003063Y007715D01*
X003063Y007638D01*
X002940Y007515D01*
X002678Y007253D01*
X002184Y007253D01*
X002173Y007264D01*
X001941Y007264D01*
X001865Y007340D01*
X001865Y007586D01*
X001941Y007662D01*
X002173Y007662D01*
X002184Y007673D01*
X002504Y007673D01*
X002643Y007812D01*
X002643Y007938D01*
X002677Y007973D01*
X002677Y008411D01*
X002753Y008487D01*
X003452Y008487D01*
X003528Y008411D01*
X003528Y008030D01*
X004018Y008520D01*
X003966Y008520D01*
X003773Y008713D01*
X003773Y008987D01*
X003923Y009137D01*
X003923Y010175D01*
X004028Y010280D01*
X005315Y011567D01*
X005373Y011567D01*
X005373Y011620D01*
X005199Y011620D01*
X005123Y011696D01*
X005123Y011870D01*
X004949Y011870D01*
X004873Y011946D01*
X004873Y012120D01*
X004699Y012120D01*
X004623Y012196D01*
X004623Y012379D01*
X004400Y012379D01*
X004335Y012314D02*
X004623Y012314D01*
X004623Y012216D02*
X004237Y012216D01*
X004138Y012117D02*
X004873Y012117D01*
X004873Y012019D02*
X004040Y012019D01*
X003941Y011920D02*
X004899Y011920D01*
X005123Y011822D02*
X003843Y011822D01*
X003744Y011723D02*
X005123Y011723D01*
X005194Y011625D02*
X003646Y011625D01*
X003547Y011526D02*
X005274Y011526D01*
X005176Y011428D02*
X003449Y011428D01*
X003350Y011329D02*
X005077Y011329D01*
X004979Y011231D02*
X003252Y011231D01*
X003253Y011100D02*
X003069Y011024D01*
X002929Y010883D01*
X002853Y010699D01*
X002853Y010501D01*
X002929Y010317D01*
X003069Y010176D01*
X003253Y010100D01*
X003069Y010024D01*
X002929Y009883D01*
X002853Y009699D01*
X002853Y009501D01*
X002929Y009317D01*
X003069Y009176D01*
X003253Y009100D01*
X003452Y009100D01*
X003636Y009176D01*
X003776Y009317D01*
X003853Y009501D01*
X003853Y009699D01*
X003776Y009883D01*
X003636Y010024D01*
X003452Y010100D01*
X003253Y010100D01*
X003452Y010100D01*
X003636Y010176D01*
X003776Y010317D01*
X003853Y010501D01*
X003853Y010699D01*
X003776Y010883D01*
X003636Y011024D01*
X003452Y011100D01*
X003253Y011100D01*
X003093Y011034D02*
X001715Y011034D01*
X001782Y011132D02*
X004880Y011132D01*
X004782Y011034D02*
X003612Y011034D01*
X003725Y010935D02*
X004683Y010935D01*
X004585Y010837D02*
X003796Y010837D01*
X003837Y010738D02*
X004486Y010738D01*
X004388Y010640D02*
X003853Y010640D01*
X003853Y010541D02*
X004289Y010541D01*
X004191Y010443D02*
X003829Y010443D01*
X003788Y010344D02*
X004092Y010344D01*
X003994Y010246D02*
X003705Y010246D01*
X003566Y010147D02*
X003923Y010147D01*
X003923Y010049D02*
X003576Y010049D01*
X003710Y009950D02*
X003923Y009950D01*
X003923Y009852D02*
X003790Y009852D01*
X003830Y009753D02*
X003923Y009753D01*
X003923Y009655D02*
X003853Y009655D01*
X003853Y009556D02*
X003923Y009556D01*
X003923Y009458D02*
X003835Y009458D01*
X003794Y009359D02*
X003923Y009359D01*
X003923Y009261D02*
X003720Y009261D01*
X003602Y009162D02*
X003923Y009162D01*
X003849Y009064D02*
X001103Y009064D01*
X001669Y008965D02*
X003773Y008965D01*
X003773Y008867D02*
X001732Y008867D01*
X001732Y008768D02*
X003773Y008768D01*
X003816Y008670D02*
X001732Y008670D01*
X001732Y008571D02*
X003915Y008571D01*
X003971Y008473D02*
X003466Y008473D01*
X003528Y008374D02*
X003872Y008374D01*
X003774Y008276D02*
X003528Y008276D01*
X003528Y008177D02*
X003675Y008177D01*
X003577Y008079D02*
X003528Y008079D01*
X003183Y007685D02*
X003063Y007685D01*
X003084Y007586D02*
X003011Y007586D01*
X002986Y007488D02*
X002912Y007488D01*
X002887Y007389D02*
X002814Y007389D01*
X002789Y007291D02*
X002715Y007291D01*
X002690Y007192D02*
X001732Y007192D01*
X001732Y007094D02*
X002673Y007094D01*
X002673Y006995D02*
X001679Y006995D01*
X001732Y006798D02*
X002673Y006798D01*
X002673Y006700D02*
X001732Y006700D01*
X001732Y006601D02*
X002673Y006601D01*
X002673Y006503D02*
X001732Y006503D01*
X001732Y006404D02*
X002673Y006404D01*
X002673Y006306D02*
X001732Y006306D01*
X001732Y006207D02*
X002673Y006207D01*
X002607Y006109D02*
X001732Y006109D01*
X002002Y005616D02*
X002402Y005616D01*
X002603Y005350D02*
X001643Y005350D01*
X002010Y005124D02*
X002362Y005124D01*
X003353Y005600D02*
X003603Y005350D01*
X002673Y006897D02*
X001103Y006897D01*
X001732Y007291D02*
X001915Y007291D01*
X001865Y007389D02*
X001732Y007389D01*
X001732Y007488D02*
X001865Y007488D01*
X001865Y007586D02*
X001732Y007586D01*
X001732Y007685D02*
X002515Y007685D01*
X002614Y007783D02*
X001732Y007783D01*
X001732Y007882D02*
X002643Y007882D01*
X002677Y007980D02*
X001664Y007980D01*
X001732Y008079D02*
X002677Y008079D01*
X002677Y008177D02*
X001732Y008177D01*
X001732Y008276D02*
X002677Y008276D01*
X002677Y008374D02*
X001732Y008374D01*
X001732Y008473D02*
X002739Y008473D01*
X003103Y009162D02*
X001732Y009162D01*
X001732Y009261D02*
X002985Y009261D01*
X002911Y009359D02*
X001732Y009359D01*
X001732Y009458D02*
X002870Y009458D01*
X002853Y009556D02*
X001732Y009556D01*
X001732Y009655D02*
X002853Y009655D01*
X002875Y009753D02*
X001732Y009753D01*
X001732Y009852D02*
X002916Y009852D01*
X002995Y009950D02*
X001732Y009950D01*
X001779Y010049D02*
X003129Y010049D01*
X003140Y010147D02*
X001779Y010147D01*
X001779Y010246D02*
X003000Y010246D01*
X002917Y010344D02*
X001779Y010344D01*
X001779Y010443D02*
X002877Y010443D01*
X002853Y010541D02*
X001779Y010541D01*
X001779Y010640D02*
X002853Y010640D01*
X002869Y010738D02*
X001742Y010738D01*
X001605Y010935D02*
X002980Y010935D01*
X002909Y010837D02*
X001103Y010837D01*
X004103Y010100D02*
X004103Y008850D01*
X005091Y008079D02*
X006064Y008079D01*
X006028Y008177D02*
X005184Y008177D01*
X005283Y008276D02*
X006028Y008276D01*
X006028Y008374D02*
X005381Y008374D01*
X005103Y009850D02*
X005853Y010600D01*
X006453Y010600D01*
X006453Y010797D02*
X005299Y010797D01*
X005103Y010600D01*
X005603Y011225D02*
X005603Y011387D01*
X005390Y011387D01*
X004103Y010100D01*
X005603Y011387D02*
X006453Y011387D01*
X006453Y011191D02*
X006943Y011191D01*
X007103Y011350D01*
X007160Y011329D02*
X006878Y011329D01*
X006878Y011428D02*
X007061Y011428D01*
X007024Y011526D02*
X006878Y011526D01*
X006878Y011625D02*
X007024Y011625D01*
X006975Y011723D02*
X006878Y011723D01*
X006978Y011975D02*
X006978Y013100D01*
X006978Y011975D02*
X007353Y011600D01*
X007546Y011329D02*
X015109Y011329D01*
X015098Y011231D02*
X006844Y011231D01*
X006959Y010994D02*
X007103Y010850D01*
X006959Y010994D02*
X006453Y010994D01*
X001245Y014875D02*
X001103Y014875D01*
X001103Y014777D02*
X001128Y014777D01*
X012752Y012962D02*
X012965Y012962D01*
X013603Y013600D01*
X013603Y015850D01*
X017603Y012850D02*
X016353Y011600D01*
X015241Y011526D02*
X014783Y011526D01*
X014685Y011428D02*
X015150Y011428D01*
X017603Y012850D02*
X019603Y012850D01*
X018729Y011231D02*
X017939Y011231D01*
X018037Y011132D02*
X018630Y011132D01*
X018532Y011034D02*
X018058Y011034D01*
X018058Y010935D02*
X018433Y010935D01*
X018335Y010837D02*
X018056Y010837D01*
X016314Y008276D02*
X015932Y008276D01*
X016030Y008177D02*
X016274Y008177D01*
X016274Y008079D02*
X016033Y008079D01*
X016033Y007980D02*
X016274Y007980D01*
X016343Y007882D02*
X016033Y007882D01*
X016033Y007783D02*
X016343Y007783D01*
X016343Y007685D02*
X016033Y007685D01*
X016033Y007586D02*
X016343Y007586D01*
X016343Y007488D02*
X016033Y007488D01*
X016033Y007389D02*
X016343Y007389D01*
X016343Y007291D02*
X016033Y007291D01*
X016033Y007192D02*
X016343Y007192D01*
X016355Y007094D02*
X016033Y007094D01*
X016436Y006109D02*
X019838Y006109D01*
X019838Y006010D02*
X016534Y006010D01*
X016558Y005912D02*
X019838Y005912D01*
X019838Y005813D02*
X016558Y005813D01*
X016558Y005715D02*
X019838Y005715D01*
X019365Y005616D02*
X019340Y005616D01*
X018865Y005616D02*
X017840Y005616D01*
X017863Y005518D02*
X018843Y005518D01*
X018843Y005419D02*
X017863Y005419D01*
X017863Y005321D02*
X018843Y005321D01*
X018843Y005222D02*
X017863Y005222D01*
X017863Y005124D02*
X018843Y005124D01*
X018843Y005025D02*
X017863Y005025D01*
X017863Y004927D02*
X018843Y004927D01*
X018843Y004828D02*
X017863Y004828D01*
X017863Y004730D02*
X018843Y004730D01*
X018898Y004631D02*
X017807Y004631D01*
X017783Y004533D02*
X019328Y004533D01*
X019427Y004434D02*
X017783Y004434D01*
X017783Y004336D02*
X019838Y004336D01*
X019838Y004434D02*
X019778Y004434D01*
X019838Y004237D02*
X017783Y004237D01*
X017783Y004139D02*
X019838Y004139D01*
X019838Y004040D02*
X017783Y004040D01*
X017783Y003942D02*
X019838Y003942D01*
X019838Y003843D02*
X017864Y003843D01*
X017963Y003745D02*
X019838Y003745D01*
X019838Y003646D02*
X019781Y003646D01*
X019486Y003234D02*
X018219Y003234D01*
X017603Y003850D01*
X017603Y005140D01*
X018103Y005140D02*
X018103Y004350D01*
X018353Y004100D01*
X018061Y003646D02*
X019191Y003646D01*
X019093Y003548D02*
X018160Y003548D01*
X018258Y003449D02*
X019034Y003449D01*
X019048Y002957D02*
X019060Y002957D01*
X019063Y002951D02*
X019203Y002810D01*
X019279Y002626D01*
X019279Y002427D01*
X019203Y002244D01*
X019063Y002103D01*
X019040Y002093D01*
X019216Y002141D01*
X019393Y002141D01*
X019838Y002585D01*
X019838Y002878D01*
X019770Y002810D01*
X019586Y002734D01*
X019387Y002734D01*
X019203Y002810D01*
X019063Y002951D01*
X019224Y002760D02*
X019325Y002760D01*
X019265Y002661D02*
X019838Y002661D01*
X019838Y002760D02*
X019648Y002760D01*
X019818Y002858D02*
X019838Y002858D01*
X019815Y002563D02*
X019279Y002563D01*
X019279Y002464D02*
X019717Y002464D01*
X019618Y002366D02*
X019254Y002366D01*
X019213Y002267D02*
X019520Y002267D01*
X019421Y002169D02*
X019128Y002169D01*
X018781Y001972D02*
X014479Y001972D01*
X014577Y002070D02*
X018576Y002070D01*
X018430Y002169D02*
X014676Y002169D01*
X014774Y002267D02*
X018346Y002267D01*
X018305Y002366D02*
X014873Y002366D01*
X014971Y002464D02*
X018279Y002464D01*
X018279Y002563D02*
X015070Y002563D01*
X015168Y002661D02*
X018294Y002661D01*
X018335Y002760D02*
X015267Y002760D01*
X015365Y002858D02*
X018403Y002858D01*
X018510Y002957D02*
X015464Y002957D01*
X015562Y003055D02*
X018143Y003055D01*
X018044Y003154D02*
X015661Y003154D01*
X015759Y003252D02*
X017946Y003252D01*
X017847Y003351D02*
X015858Y003351D01*
X015956Y003449D02*
X017749Y003449D01*
X017650Y003548D02*
X016055Y003548D01*
X016153Y003646D02*
X017552Y003646D01*
X017453Y003745D02*
X016252Y003745D01*
X016350Y003843D02*
X016893Y003843D01*
X016794Y003942D02*
X016449Y003942D01*
X016547Y004040D02*
X016773Y004040D01*
X016773Y004139D02*
X016646Y004139D01*
X016783Y004336D02*
X016871Y004336D01*
X016923Y004434D02*
X016783Y004434D01*
X016783Y004533D02*
X016923Y004533D01*
X016898Y004631D02*
X016807Y004631D01*
X017103Y005140D02*
X017103Y004100D01*
X017312Y003843D02*
X017423Y003843D01*
X017411Y003942D02*
X017423Y003942D01*
X017365Y005616D02*
X017340Y005616D01*
X016865Y005616D02*
X016840Y005616D01*
X019603Y005140D02*
X019603Y004725D01*
X018654Y001873D02*
X014380Y001873D01*
X014282Y001775D02*
X018555Y001775D01*
X018484Y001676D02*
X014183Y001676D01*
X014256Y001578D02*
X014949Y001578D01*
X014774Y001479D02*
X014431Y001479D01*
X014528Y001381D02*
X014678Y001381D01*
X014637Y001282D02*
X014568Y001282D01*
X014603Y001184D02*
X014603Y001184D01*
X014603Y001085D02*
X014603Y001085D01*
X014597Y000987D02*
X014608Y000987D01*
X014649Y000888D02*
X014556Y000888D01*
X014499Y000790D02*
X014706Y000790D01*
X014804Y000691D02*
X014401Y000691D01*
X013804Y000691D02*
X013401Y000691D01*
X013499Y000790D02*
X013706Y000790D01*
X013649Y000888D02*
X013556Y000888D01*
X013597Y000987D02*
X013608Y000987D01*
X013603Y001085D02*
X013603Y001085D01*
X013603Y001184D02*
X013603Y001184D01*
X013637Y001282D02*
X013568Y001282D01*
X013528Y001381D02*
X013678Y001381D01*
X013774Y001479D02*
X013431Y001479D01*
X013256Y001578D02*
X013949Y001578D01*
X012949Y001578D02*
X012256Y001578D01*
X012431Y001479D02*
X012774Y001479D01*
X012678Y001381D02*
X012528Y001381D01*
X012568Y001282D02*
X012637Y001282D01*
X012603Y001184D02*
X012603Y001184D01*
X012603Y001085D02*
X012603Y001085D01*
X012597Y000987D02*
X012608Y000987D01*
X012649Y000888D02*
X012556Y000888D01*
X012499Y000790D02*
X012706Y000790D01*
X012804Y000691D02*
X012401Y000691D01*
X011804Y000691D02*
X011401Y000691D01*
X011499Y000790D02*
X011706Y000790D01*
X011649Y000888D02*
X011556Y000888D01*
X011597Y000987D02*
X011608Y000987D01*
X011603Y001085D02*
X011603Y001085D01*
X011603Y001184D02*
X011603Y001184D01*
X011637Y001282D02*
X011568Y001282D01*
X011528Y001381D02*
X011678Y001381D01*
X011774Y001479D02*
X011431Y001479D01*
X011256Y001578D02*
X011949Y001578D01*
X010949Y001578D02*
X010256Y001578D01*
X010431Y001479D02*
X010774Y001479D01*
X010678Y001381D02*
X010528Y001381D01*
X010568Y001282D02*
X010637Y001282D01*
X010603Y001184D02*
X010603Y001184D01*
X010603Y001085D02*
X010603Y001085D01*
X010597Y000987D02*
X010608Y000987D01*
X010649Y000888D02*
X010556Y000888D01*
X010499Y000790D02*
X010706Y000790D01*
X010804Y000691D02*
X010401Y000691D01*
X009804Y000691D02*
X009401Y000691D01*
X009499Y000790D02*
X009706Y000790D01*
X009649Y000888D02*
X009556Y000888D01*
X009597Y000987D02*
X009608Y000987D01*
X009603Y001085D02*
X009603Y001085D01*
X009603Y001184D02*
X009603Y001184D01*
X009637Y001282D02*
X009568Y001282D01*
X009528Y001381D02*
X009678Y001381D01*
X009774Y001479D02*
X009431Y001479D01*
X009256Y001578D02*
X009949Y001578D01*
X008949Y001578D02*
X008256Y001578D01*
X008431Y001479D02*
X008774Y001479D01*
X008678Y001381D02*
X008528Y001381D01*
X008568Y001282D02*
X008637Y001282D01*
X008603Y001184D02*
X008603Y001184D01*
X008603Y001085D02*
X008603Y001085D01*
X008597Y000987D02*
X008608Y000987D01*
X008649Y000888D02*
X008556Y000888D01*
X008499Y000790D02*
X008706Y000790D01*
X008804Y000691D02*
X008401Y000691D01*
X007804Y000691D02*
X007401Y000691D01*
X007499Y000790D02*
X007706Y000790D01*
X007649Y000888D02*
X007556Y000888D01*
X007597Y000987D02*
X007608Y000987D01*
X007603Y001085D02*
X007603Y001085D01*
X007603Y001184D02*
X007603Y001184D01*
X007637Y001282D02*
X007568Y001282D01*
X007528Y001381D02*
X007678Y001381D01*
X007774Y001479D02*
X007431Y001479D01*
X007256Y001578D02*
X007949Y001578D01*
X006949Y001578D02*
X006256Y001578D01*
X006431Y001479D02*
X006774Y001479D01*
X006678Y001381D02*
X006528Y001381D01*
X006568Y001282D02*
X006637Y001282D01*
X006603Y001184D02*
X006603Y001184D01*
X006603Y001085D02*
X006603Y001085D01*
X006597Y000987D02*
X006608Y000987D01*
X006649Y000888D02*
X006556Y000888D01*
X006499Y000790D02*
X006706Y000790D01*
X006804Y000691D02*
X006401Y000691D01*
X015256Y001578D02*
X015949Y001578D01*
X015774Y001479D02*
X015431Y001479D01*
X015528Y001381D02*
X015678Y001381D01*
X015637Y001282D02*
X015568Y001282D01*
X015603Y001184D02*
X015603Y001184D01*
X015603Y001085D02*
X015603Y001085D01*
X015597Y000987D02*
X015608Y000987D01*
X015649Y000888D02*
X015556Y000888D01*
X015499Y000790D02*
X015706Y000790D01*
X015804Y000691D02*
X015401Y000691D01*
X016256Y001578D02*
X017949Y001578D01*
X017774Y001479D02*
X016431Y001479D01*
X016528Y001381D02*
X017678Y001381D01*
X017637Y001282D02*
X016568Y001282D01*
X016603Y001184D02*
X017603Y001184D01*
X017603Y001085D02*
X016603Y001085D01*
X016597Y000987D02*
X017608Y000987D01*
X017649Y000888D02*
X016556Y000888D01*
X016499Y000790D02*
X017706Y000790D01*
X017804Y000691D02*
X016401Y000691D01*
X018256Y001578D02*
X018427Y001578D01*
D27*
X017353Y003100D03*
X017103Y004100D03*
X018353Y004100D03*
X019603Y004725D03*
X016228Y005850D03*
X013728Y006350D03*
X013603Y005850D03*
X013103Y005850D03*
X012603Y005850D03*
X012103Y005850D03*
X013353Y006725D03*
X010103Y003600D03*
X009103Y004100D03*
X008103Y003100D03*
X007103Y002600D03*
X005103Y002100D03*
X004103Y003350D03*
X003353Y003600D03*
X003603Y004350D03*
X003603Y005350D03*
X003728Y005850D03*
X004103Y006350D03*
X004353Y006850D03*
X004853Y007850D03*
X004103Y008850D03*
X005103Y009850D03*
X005103Y010600D03*
X007103Y010850D03*
X007603Y012850D03*
X010853Y013100D03*
X012103Y010600D03*
X008603Y008100D03*
X006103Y004600D03*
X002603Y005350D03*
X002353Y006350D03*
X001853Y004225D03*
X013603Y015850D03*
X014103Y016600D03*
X014603Y017100D03*
X015603Y017600D03*
X016103Y011350D03*
X016103Y010100D03*
X017728Y010975D03*
D28*
X016353Y011600D02*
X016103Y011350D01*
X016103Y010100D02*
X016353Y009850D01*
D29*
X015478Y010994D02*
X015478Y011225D01*
X015478Y010994D02*
X012752Y010994D01*
X009209Y013750D02*
X009209Y014744D01*
X008103Y015850D01*
X006603Y015850D01*
X007853Y014600D02*
X003103Y014600D01*
X002103Y015600D01*
X002103Y016850D01*
X001603Y017350D01*
X001249Y017350D01*
X001249Y016350D02*
X001603Y016350D01*
X001853Y016100D01*
X001853Y015350D01*
X002853Y014350D01*
X007603Y014350D01*
X007831Y014122D01*
X007831Y013750D01*
X008028Y013750D02*
X008028Y014425D01*
X007853Y014600D01*
X008353Y014850D02*
X003353Y014850D01*
X002603Y015600D01*
X002603Y015850D01*
X003103Y015600D02*
X003103Y016100D01*
X003353Y016350D01*
X004103Y016350D01*
X004603Y015850D01*
X004103Y015350D02*
X003603Y015850D01*
X003103Y015600D02*
X003603Y015100D01*
X008353Y015100D01*
X008815Y014637D01*
X008815Y013750D01*
X008618Y013750D02*
X008618Y014584D01*
X008353Y014850D01*
X008353Y015350D02*
X004103Y015350D01*
X003353Y013850D02*
X003103Y013850D01*
X002353Y012850D02*
X003853Y012850D01*
X004353Y013350D01*
X004729Y013350D01*
X004268Y012765D02*
X003853Y012350D01*
X001353Y012350D01*
X001353Y011350D02*
X003103Y011350D01*
X004321Y012569D01*
X006453Y012569D01*
X006453Y012765D02*
X004268Y012765D01*
X004853Y012350D02*
X004874Y012372D01*
X006453Y012372D01*
X006453Y012175D02*
X005177Y012175D01*
X005103Y012100D01*
X005353Y011850D02*
X005481Y011978D01*
X006453Y011978D01*
X006453Y011781D02*
X005784Y011781D01*
X005603Y011600D01*
X006031Y010403D02*
X005978Y010350D01*
X006031Y010403D02*
X006453Y010403D01*
X006453Y010009D02*
X005818Y010009D01*
X005728Y010100D01*
X005690Y009813D02*
X005603Y009725D01*
X005690Y009813D02*
X006453Y009813D01*
X006453Y009616D02*
X005993Y009616D01*
X005978Y009600D01*
X007437Y007450D02*
X007437Y006935D01*
X007353Y006850D01*
X007353Y006600D01*
X007603Y006600D02*
X007634Y006631D01*
X007634Y007450D01*
X007831Y007450D02*
X007831Y006622D01*
X007853Y006600D01*
X004563Y006140D02*
X004563Y005350D01*
X004563Y006140D02*
X004353Y006350D01*
X004103Y006350D01*
X003853Y006350D01*
X002353Y006350D02*
X001853Y006350D01*
X007853Y013100D02*
X007634Y013319D01*
X007634Y013750D01*
X007240Y013750D02*
X007203Y013750D01*
X007103Y013850D01*
X006603Y013475D02*
X006478Y013350D01*
X005477Y013350D01*
X008353Y015350D02*
X009012Y014691D01*
X009012Y013750D01*
X016603Y008100D02*
X016603Y007560D01*
X017727Y009350D02*
X017728Y009350D01*
D30*
X017728Y009350D03*
X016603Y008100D03*
X011603Y008100D03*
X008853Y009850D03*
X007603Y009600D03*
X007353Y011600D03*
X008853Y012600D03*
X006603Y013475D03*
X003103Y013850D03*
X002353Y012850D03*
X003103Y008100D03*
X006478Y007100D03*
X006853Y005600D03*
X007103Y004100D03*
D31*
X003103Y008100D02*
X002979Y007976D01*
X003103Y008101D01*
X002853Y007851D01*
X002853Y007725D01*
X002591Y007463D01*
X002271Y007463D01*
X008853Y009850D02*
X009103Y009850D01*
X009103Y010100D01*
X009353Y012474D02*
X008853Y012474D01*
X008853Y012600D01*
X009353Y012600D01*
X009353Y012474D01*
X018103Y014224D02*
X018103Y014850D01*
X019603Y014850D01*
M02*
