%
M48
M72
T01C0.0236
T02C0.0240
T03C0.0394
T04C0.0400
T05C0.1181
%
T01
X6853Y5600
X6478Y7100
X7603Y9600
X8853Y9850
X7353Y11600
X8853Y12600
X6603Y13475
X3103Y13850
X2353Y12850
X3103Y8100
X7103Y4100
X11603Y8100
X16603Y8100
X17728Y9350
T02
X7603Y12850
X7103Y10850
X5103Y10600
X5103Y9850
X4103Y8850
X4853Y7850
X4353Y6850
X4103Y6350
X3728Y5850
X3603Y5350
X3603Y4350
X3353Y3600
X4103Y3350
X5103Y2100
X7103Y2600
X8103Y3100
X9103Y4100
X10103Y3600
X12103Y5850
X12603Y5850
X13103Y5850
X13603Y5850
X13728Y6350
X13353Y6725
X16228Y5850
X17103Y4100
X17353Y3100
X18353Y4100
X19603Y4725
X16103Y10100
X16103Y11350
X17728Y10975
X13603Y15850
X14103Y16600
X14603Y17100
X15603Y17600
X10853Y13100
X12103Y10600
X8603Y8100
X6103Y4600
X2603Y5350
X2353Y6350
X1853Y4225
T03
X1353Y10350
X19603Y9850
T04
X2249Y2496
X1542Y3204
X3103Y1100
X4103Y1100
X5103Y1100
X6103Y1100
X7103Y1100
X8103Y1100
X9103Y1100
X10103Y1100
X11103Y1100
X12103Y1100
X13103Y1100
X14103Y1100
X15103Y1100
X16103Y1100
X17103Y1100
X18103Y1100
X18779Y2527
X19486Y3234
X19603Y10850
X19603Y11850
X19603Y12850
X19603Y13850
X19603Y14850
X19633Y16320
X19633Y17320
X18103Y18850
X17103Y18850
X16103Y18850
X15103Y18850
X14103Y18850
X13103Y18850
X12103Y18850
X11103Y18850
X10103Y18850
X9103Y18850
X8103Y18850
X7103Y18850
X6103Y18850
X5103Y18850
X4103Y18850
X3103Y18850
X1249Y17350
X1249Y16350
X1353Y15350
X1353Y14350
X1353Y13350
X1353Y12350
X1353Y11350
X3353Y10600
X3353Y9600
X8853Y6350
X9853Y6350
X6603Y15850
X6603Y16850
X5603Y16850
X5603Y15850
X4603Y15850
X4603Y16850
X3603Y16850
X3603Y15850
X2603Y15850
X2603Y16850
T05
X1603Y18850
X19353Y18850
X19353Y1100
X1603Y1100
M30
