G75*
%MOIN*%
%OFA0B0*%
%FSLAX24Y24*%
%IPPOS*%
%LPD*%
%AMOC8*
5,1,8,0,0,1.08239X$1,22.5*
%
%ADD10C,0.0000*%
%ADD11C,0.0030*%
%ADD12C,0.0200*%
%ADD13C,0.0100*%
%ADD14C,0.0080*%
%ADD15C,0.0060*%
%ADD16C,0.0300*%
%ADD17C,0.0010*%
%ADD18R,0.0200X0.0200*%
%ADD19C,0.0050*%
%ADD20C,0.0020*%
D10*
X000603Y000100D02*
X000603Y019785D01*
X020288Y019785D01*
X020288Y000100D01*
X000603Y000100D01*
X001012Y001100D02*
X001014Y001148D01*
X001020Y001196D01*
X001030Y001243D01*
X001043Y001289D01*
X001061Y001334D01*
X001081Y001378D01*
X001106Y001420D01*
X001134Y001459D01*
X001164Y001496D01*
X001198Y001530D01*
X001235Y001562D01*
X001273Y001591D01*
X001314Y001616D01*
X001357Y001638D01*
X001402Y001656D01*
X001448Y001670D01*
X001495Y001681D01*
X001543Y001688D01*
X001591Y001691D01*
X001639Y001690D01*
X001687Y001685D01*
X001735Y001676D01*
X001781Y001664D01*
X001826Y001647D01*
X001870Y001627D01*
X001912Y001604D01*
X001952Y001577D01*
X001990Y001547D01*
X002025Y001514D01*
X002057Y001478D01*
X002087Y001440D01*
X002113Y001399D01*
X002135Y001356D01*
X002155Y001312D01*
X002170Y001267D01*
X002182Y001220D01*
X002190Y001172D01*
X002194Y001124D01*
X002194Y001076D01*
X002190Y001028D01*
X002182Y000980D01*
X002170Y000933D01*
X002155Y000888D01*
X002135Y000844D01*
X002113Y000801D01*
X002087Y000760D01*
X002057Y000722D01*
X002025Y000686D01*
X001990Y000653D01*
X001952Y000623D01*
X001912Y000596D01*
X001870Y000573D01*
X001826Y000553D01*
X001781Y000536D01*
X001735Y000524D01*
X001687Y000515D01*
X001639Y000510D01*
X001591Y000509D01*
X001543Y000512D01*
X001495Y000519D01*
X001448Y000530D01*
X001402Y000544D01*
X001357Y000562D01*
X001314Y000584D01*
X001273Y000609D01*
X001235Y000638D01*
X001198Y000670D01*
X001164Y000704D01*
X001134Y000741D01*
X001106Y000780D01*
X001081Y000822D01*
X001061Y000866D01*
X001043Y000911D01*
X001030Y000957D01*
X001020Y001004D01*
X001014Y001052D01*
X001012Y001100D01*
X001012Y018850D02*
X001014Y018898D01*
X001020Y018946D01*
X001030Y018993D01*
X001043Y019039D01*
X001061Y019084D01*
X001081Y019128D01*
X001106Y019170D01*
X001134Y019209D01*
X001164Y019246D01*
X001198Y019280D01*
X001235Y019312D01*
X001273Y019341D01*
X001314Y019366D01*
X001357Y019388D01*
X001402Y019406D01*
X001448Y019420D01*
X001495Y019431D01*
X001543Y019438D01*
X001591Y019441D01*
X001639Y019440D01*
X001687Y019435D01*
X001735Y019426D01*
X001781Y019414D01*
X001826Y019397D01*
X001870Y019377D01*
X001912Y019354D01*
X001952Y019327D01*
X001990Y019297D01*
X002025Y019264D01*
X002057Y019228D01*
X002087Y019190D01*
X002113Y019149D01*
X002135Y019106D01*
X002155Y019062D01*
X002170Y019017D01*
X002182Y018970D01*
X002190Y018922D01*
X002194Y018874D01*
X002194Y018826D01*
X002190Y018778D01*
X002182Y018730D01*
X002170Y018683D01*
X002155Y018638D01*
X002135Y018594D01*
X002113Y018551D01*
X002087Y018510D01*
X002057Y018472D01*
X002025Y018436D01*
X001990Y018403D01*
X001952Y018373D01*
X001912Y018346D01*
X001870Y018323D01*
X001826Y018303D01*
X001781Y018286D01*
X001735Y018274D01*
X001687Y018265D01*
X001639Y018260D01*
X001591Y018259D01*
X001543Y018262D01*
X001495Y018269D01*
X001448Y018280D01*
X001402Y018294D01*
X001357Y018312D01*
X001314Y018334D01*
X001273Y018359D01*
X001235Y018388D01*
X001198Y018420D01*
X001164Y018454D01*
X001134Y018491D01*
X001106Y018530D01*
X001081Y018572D01*
X001061Y018616D01*
X001043Y018661D01*
X001030Y018707D01*
X001020Y018754D01*
X001014Y018802D01*
X001012Y018850D01*
X018762Y018850D02*
X018764Y018898D01*
X018770Y018946D01*
X018780Y018993D01*
X018793Y019039D01*
X018811Y019084D01*
X018831Y019128D01*
X018856Y019170D01*
X018884Y019209D01*
X018914Y019246D01*
X018948Y019280D01*
X018985Y019312D01*
X019023Y019341D01*
X019064Y019366D01*
X019107Y019388D01*
X019152Y019406D01*
X019198Y019420D01*
X019245Y019431D01*
X019293Y019438D01*
X019341Y019441D01*
X019389Y019440D01*
X019437Y019435D01*
X019485Y019426D01*
X019531Y019414D01*
X019576Y019397D01*
X019620Y019377D01*
X019662Y019354D01*
X019702Y019327D01*
X019740Y019297D01*
X019775Y019264D01*
X019807Y019228D01*
X019837Y019190D01*
X019863Y019149D01*
X019885Y019106D01*
X019905Y019062D01*
X019920Y019017D01*
X019932Y018970D01*
X019940Y018922D01*
X019944Y018874D01*
X019944Y018826D01*
X019940Y018778D01*
X019932Y018730D01*
X019920Y018683D01*
X019905Y018638D01*
X019885Y018594D01*
X019863Y018551D01*
X019837Y018510D01*
X019807Y018472D01*
X019775Y018436D01*
X019740Y018403D01*
X019702Y018373D01*
X019662Y018346D01*
X019620Y018323D01*
X019576Y018303D01*
X019531Y018286D01*
X019485Y018274D01*
X019437Y018265D01*
X019389Y018260D01*
X019341Y018259D01*
X019293Y018262D01*
X019245Y018269D01*
X019198Y018280D01*
X019152Y018294D01*
X019107Y018312D01*
X019064Y018334D01*
X019023Y018359D01*
X018985Y018388D01*
X018948Y018420D01*
X018914Y018454D01*
X018884Y018491D01*
X018856Y018530D01*
X018831Y018572D01*
X018811Y018616D01*
X018793Y018661D01*
X018780Y018707D01*
X018770Y018754D01*
X018764Y018802D01*
X018762Y018850D01*
X018762Y001100D02*
X018764Y001148D01*
X018770Y001196D01*
X018780Y001243D01*
X018793Y001289D01*
X018811Y001334D01*
X018831Y001378D01*
X018856Y001420D01*
X018884Y001459D01*
X018914Y001496D01*
X018948Y001530D01*
X018985Y001562D01*
X019023Y001591D01*
X019064Y001616D01*
X019107Y001638D01*
X019152Y001656D01*
X019198Y001670D01*
X019245Y001681D01*
X019293Y001688D01*
X019341Y001691D01*
X019389Y001690D01*
X019437Y001685D01*
X019485Y001676D01*
X019531Y001664D01*
X019576Y001647D01*
X019620Y001627D01*
X019662Y001604D01*
X019702Y001577D01*
X019740Y001547D01*
X019775Y001514D01*
X019807Y001478D01*
X019837Y001440D01*
X019863Y001399D01*
X019885Y001356D01*
X019905Y001312D01*
X019920Y001267D01*
X019932Y001220D01*
X019940Y001172D01*
X019944Y001124D01*
X019944Y001076D01*
X019940Y001028D01*
X019932Y000980D01*
X019920Y000933D01*
X019905Y000888D01*
X019885Y000844D01*
X019863Y000801D01*
X019837Y000760D01*
X019807Y000722D01*
X019775Y000686D01*
X019740Y000653D01*
X019702Y000623D01*
X019662Y000596D01*
X019620Y000573D01*
X019576Y000553D01*
X019531Y000536D01*
X019485Y000524D01*
X019437Y000515D01*
X019389Y000510D01*
X019341Y000509D01*
X019293Y000512D01*
X019245Y000519D01*
X019198Y000530D01*
X019152Y000544D01*
X019107Y000562D01*
X019064Y000584D01*
X019023Y000609D01*
X018985Y000638D01*
X018948Y000670D01*
X018914Y000704D01*
X018884Y000741D01*
X018856Y000780D01*
X018831Y000822D01*
X018811Y000866D01*
X018793Y000911D01*
X018780Y000957D01*
X018770Y001004D01*
X018764Y001052D01*
X018762Y001100D01*
D11*
X017088Y012615D02*
X016797Y012615D01*
X016797Y012760D01*
X016846Y012808D01*
X016894Y012808D01*
X016942Y012760D01*
X016942Y012615D01*
X016942Y012760D02*
X016991Y012808D01*
X017039Y012808D01*
X017088Y012760D01*
X017088Y012615D01*
X017039Y012910D02*
X016942Y012910D01*
X016894Y012958D01*
X016894Y013055D01*
X016942Y013103D01*
X016991Y013103D01*
X016991Y012910D01*
X017039Y012910D02*
X017088Y012958D01*
X017088Y013055D01*
X017088Y013204D02*
X016894Y013204D01*
X016894Y013349D01*
X016942Y013398D01*
X017088Y013398D01*
X016991Y013794D02*
X016797Y013794D01*
X016797Y013987D02*
X016991Y013987D01*
X017088Y013890D01*
X016991Y013794D01*
X017039Y014088D02*
X017039Y014137D01*
X017088Y014137D01*
X017088Y014088D01*
X017039Y014088D01*
X017088Y014530D02*
X016797Y014530D01*
X016797Y014675D01*
X016846Y014724D01*
X016894Y014724D01*
X016942Y014675D01*
X016942Y014530D01*
X016942Y014675D02*
X016991Y014724D01*
X017039Y014724D01*
X017088Y014675D01*
X017088Y014530D01*
X017088Y014825D02*
X016894Y014825D01*
X016894Y014922D02*
X016894Y014970D01*
X016894Y014922D02*
X016991Y014825D01*
X017039Y015070D02*
X017088Y015119D01*
X017088Y015216D01*
X017039Y015264D01*
X016942Y015264D01*
X016894Y015216D01*
X016894Y015119D01*
X016942Y015070D01*
X017039Y015070D01*
X017039Y015365D02*
X016894Y015365D01*
X017039Y015365D02*
X017088Y015413D01*
X017039Y015462D01*
X017088Y015510D01*
X017039Y015559D01*
X016894Y015559D01*
X016894Y015660D02*
X016894Y015805D01*
X016942Y015853D01*
X017088Y015853D01*
X017088Y015660D02*
X016894Y015660D01*
X008266Y016093D02*
X008266Y016190D01*
X008170Y016190D01*
X008266Y016093D02*
X008218Y016045D01*
X008121Y016045D01*
X008073Y016093D01*
X008073Y016287D01*
X008121Y016335D01*
X008218Y016335D01*
X008266Y016287D01*
X007972Y016238D02*
X007972Y016045D01*
X007972Y016190D02*
X007778Y016190D01*
X007778Y016238D02*
X007875Y016335D01*
X007972Y016238D01*
X007778Y016238D02*
X007778Y016045D01*
X007580Y016045D02*
X007580Y016335D01*
X007484Y016335D02*
X007677Y016335D01*
X007382Y016335D02*
X007286Y016335D01*
X007334Y016335D02*
X007334Y016093D01*
X007286Y016045D01*
X007237Y016045D01*
X007189Y016093D01*
X001641Y006417D02*
X001328Y006103D01*
X001641Y006417D01*
X001484Y006417D02*
X001484Y006103D01*
X001484Y006417D01*
X001328Y006417D02*
X001641Y006103D01*
X001328Y006417D01*
X001328Y006260D02*
X001641Y006260D01*
X001328Y006260D01*
D12*
X002328Y014700D02*
X002718Y014700D01*
X002718Y015090D01*
X002328Y015090D01*
X002328Y014700D01*
D13*
X006847Y013061D02*
X006847Y007943D01*
X006945Y007844D01*
X012260Y007844D01*
X012358Y007943D01*
X012358Y013257D01*
X012260Y013356D01*
X007142Y013356D01*
X006847Y013061D01*
X000728Y019725D02*
X000728Y000225D01*
X020228Y000225D01*
X020228Y019725D01*
X000728Y019725D01*
D14*
X002603Y019100D02*
X002603Y018600D01*
X002853Y018350D01*
X003353Y018350D01*
X003603Y018600D01*
X003853Y018350D01*
X004353Y018350D01*
X004603Y018600D01*
X004853Y018350D01*
X005353Y018350D01*
X005603Y018600D01*
X005853Y018350D01*
X006353Y018350D01*
X006603Y018600D01*
X006853Y018350D01*
X007353Y018350D01*
X007603Y018600D01*
X007853Y018350D01*
X008353Y018350D01*
X008603Y018600D01*
X008853Y018350D01*
X009353Y018350D01*
X009603Y018600D01*
X009853Y018350D01*
X010353Y018350D01*
X010603Y018600D01*
X010853Y018350D01*
X011353Y018350D01*
X011603Y018600D01*
X011853Y018350D01*
X012353Y018350D01*
X012603Y018600D01*
X012853Y018350D01*
X013353Y018350D01*
X013603Y018600D01*
X013853Y018350D01*
X014353Y018350D01*
X014603Y018600D01*
X014853Y018350D01*
X015353Y018350D01*
X015603Y018600D01*
X015853Y018350D01*
X016353Y018350D01*
X016603Y018600D01*
X016853Y018350D01*
X017353Y018350D01*
X017603Y018600D01*
X017853Y018350D01*
X018353Y018350D01*
X018603Y018600D01*
X018603Y019100D01*
X018353Y019350D01*
X017853Y019350D01*
X017603Y019100D01*
X017353Y019350D01*
X016853Y019350D01*
X016603Y019100D01*
X016353Y019350D01*
X015853Y019350D01*
X015603Y019100D01*
X015353Y019350D01*
X014853Y019350D01*
X014603Y019100D01*
X014353Y019350D01*
X013853Y019350D01*
X013603Y019100D01*
X013353Y019350D01*
X012853Y019350D01*
X012603Y019100D01*
X012353Y019350D01*
X011853Y019350D01*
X011603Y019100D01*
X011353Y019350D01*
X010853Y019350D01*
X010603Y019100D01*
X010353Y019350D01*
X009853Y019350D01*
X009603Y019100D01*
X009353Y019350D01*
X008853Y019350D01*
X008603Y019100D01*
X008353Y019350D01*
X007853Y019350D01*
X007603Y019100D01*
X007353Y019350D01*
X006853Y019350D01*
X006603Y019100D01*
X006353Y019350D01*
X005853Y019350D01*
X005603Y019100D01*
X005353Y019350D01*
X004853Y019350D01*
X004603Y019100D01*
X004353Y019350D01*
X003853Y019350D01*
X003603Y019100D01*
X003353Y019350D01*
X002853Y019350D01*
X002603Y019100D01*
X002603Y018600D01*
X001749Y017600D02*
X001749Y017100D01*
X001499Y016850D01*
X001749Y016600D01*
X001749Y016100D01*
X001499Y015850D01*
X000999Y015850D01*
X000749Y016100D01*
X000749Y016600D01*
X000999Y016850D01*
X000749Y017100D01*
X000749Y017600D01*
X000999Y017850D01*
X001499Y017850D01*
X001749Y017600D01*
X001562Y016410D02*
X001282Y016130D01*
X001352Y016200D02*
X001562Y015990D01*
X001282Y015990D02*
X001282Y016410D01*
X001102Y015990D02*
X000822Y015990D01*
X000822Y016410D01*
X000642Y016340D02*
X000642Y016270D01*
X000572Y016200D01*
X000361Y016200D01*
X000361Y015990D02*
X000572Y015990D01*
X000642Y016060D01*
X000642Y016130D01*
X000572Y016200D01*
X000642Y016340D02*
X000572Y016410D01*
X000361Y016410D01*
X000361Y015990D01*
X002353Y015100D02*
X002853Y015100D01*
X003103Y011100D02*
X002853Y010850D01*
X002853Y010350D01*
X003103Y010100D01*
X002853Y009850D01*
X002853Y009350D01*
X003103Y009100D01*
X003603Y009100D01*
X003853Y009350D01*
X003853Y009850D01*
X003603Y010100D01*
X003853Y010350D01*
X003853Y010850D01*
X003603Y011100D01*
X003103Y011100D01*
X001562Y009710D02*
X001562Y009290D01*
X001282Y009710D01*
X001282Y009290D01*
X001102Y009290D02*
X000962Y009430D01*
X001032Y009430D02*
X000822Y009430D01*
X000822Y009290D02*
X000822Y009710D01*
X001032Y009710D01*
X001102Y009640D01*
X001102Y009500D01*
X001032Y009430D01*
X000657Y009314D02*
X000657Y006636D01*
X001720Y006636D02*
X002350Y006636D01*
X002350Y007109D01*
X001798Y007109D01*
X001798Y008841D01*
X002350Y008841D01*
X002350Y009314D01*
X001720Y009314D01*
X000642Y009360D02*
X000642Y009500D01*
X000501Y009500D01*
X000361Y009640D02*
X000361Y009360D01*
X000431Y009290D01*
X000572Y009290D01*
X000642Y009360D01*
X000642Y009640D02*
X000572Y009710D01*
X000431Y009710D01*
X000361Y009640D01*
X001365Y003734D02*
X001012Y003380D01*
X001012Y003027D01*
X001365Y002673D01*
X001719Y002673D01*
X001719Y002320D01*
X002072Y001966D01*
X002426Y001966D01*
X002779Y002320D01*
X002779Y002673D01*
X002426Y003027D01*
X002072Y003027D01*
X002072Y003380D01*
X001719Y003734D01*
X001365Y003734D01*
X002853Y001600D02*
X002603Y001350D01*
X002603Y000850D01*
X002853Y000600D01*
X003353Y000600D01*
X003603Y000850D01*
X003853Y000600D01*
X004353Y000600D01*
X004603Y000850D01*
X004853Y000600D01*
X005353Y000600D01*
X005603Y000850D01*
X005853Y000600D01*
X006353Y000600D01*
X006603Y000850D01*
X006853Y000600D01*
X007353Y000600D01*
X007603Y000850D01*
X007853Y000600D01*
X008353Y000600D01*
X008603Y000850D01*
X008853Y000600D01*
X009353Y000600D01*
X009603Y000850D01*
X009853Y000600D01*
X010353Y000600D01*
X010603Y000850D01*
X010853Y000600D01*
X011353Y000600D01*
X011603Y000850D01*
X011853Y000600D01*
X012353Y000600D01*
X012603Y000850D01*
X012853Y000600D01*
X013353Y000600D01*
X013603Y000850D01*
X013853Y000600D01*
X014353Y000600D01*
X014603Y000850D01*
X014853Y000600D01*
X015353Y000600D01*
X015603Y000850D01*
X015853Y000600D01*
X016353Y000600D01*
X016603Y000850D01*
X016853Y000600D01*
X017353Y000600D01*
X017603Y000850D01*
X017853Y000600D01*
X018353Y000600D01*
X018603Y000850D01*
X018603Y001350D01*
X018353Y001600D01*
X017853Y001600D01*
X017603Y001350D01*
X017353Y001600D01*
X016853Y001600D01*
X016603Y001350D01*
X016353Y001600D01*
X015853Y001600D01*
X015603Y001350D01*
X015353Y001600D01*
X014853Y001600D01*
X014603Y001350D01*
X014353Y001600D01*
X013853Y001600D01*
X013603Y001350D01*
X013353Y001600D01*
X012853Y001600D01*
X012603Y001350D01*
X012353Y001600D01*
X011853Y001600D01*
X011603Y001350D01*
X011353Y001600D01*
X010853Y001600D01*
X010603Y001350D01*
X010353Y001600D01*
X009853Y001600D01*
X009603Y001350D01*
X009353Y001600D01*
X008853Y001600D01*
X008603Y001350D01*
X008353Y001600D01*
X007853Y001600D01*
X007603Y001350D01*
X007353Y001600D01*
X006853Y001600D01*
X006603Y001350D01*
X006353Y001600D01*
X005853Y001600D01*
X005603Y001350D01*
X005353Y001600D01*
X004853Y001600D01*
X004603Y001350D01*
X004353Y001600D01*
X003853Y001600D01*
X003603Y001350D01*
X003353Y001600D01*
X002853Y001600D01*
X002603Y001350D02*
X002603Y000850D01*
X008353Y006100D02*
X008353Y006600D01*
X008603Y006850D01*
X009103Y006850D01*
X009353Y006600D01*
X009603Y006850D01*
X010103Y006850D01*
X010353Y006600D01*
X010353Y006100D01*
X010103Y005850D01*
X009603Y005850D01*
X009353Y006100D01*
X009103Y005850D01*
X008603Y005850D01*
X008353Y006100D01*
X018249Y002704D02*
X018249Y002350D01*
X018603Y001996D01*
X018956Y001996D01*
X019310Y002350D01*
X019310Y002704D01*
X019663Y002704D01*
X020017Y003057D01*
X020017Y003411D01*
X019663Y003764D01*
X019310Y003764D01*
X018956Y003411D01*
X018956Y003057D01*
X018603Y003057D01*
X018249Y002704D01*
X018603Y001350D02*
X018603Y000850D01*
X018681Y008790D02*
X018822Y008790D01*
X018892Y008860D01*
X018892Y009000D01*
X018751Y009000D01*
X018611Y009140D02*
X018611Y008860D01*
X018681Y008790D01*
X018611Y009140D02*
X018681Y009210D01*
X018822Y009210D01*
X018892Y009140D01*
X019072Y009210D02*
X019072Y008790D01*
X019072Y008930D02*
X019282Y008930D01*
X019352Y009000D01*
X019352Y009140D01*
X019282Y009210D01*
X019072Y009210D01*
X019212Y008930D02*
X019352Y008790D01*
X019532Y008790D02*
X019532Y009210D01*
X019812Y008790D01*
X019812Y009210D01*
X019812Y015490D02*
X019602Y015700D01*
X019532Y015630D02*
X019812Y015910D01*
X019883Y015820D02*
X020133Y016070D01*
X020133Y016570D01*
X019883Y016820D01*
X020133Y017070D01*
X020133Y017570D01*
X019883Y017820D01*
X019383Y017820D01*
X019133Y017570D01*
X019133Y017070D01*
X019383Y016820D01*
X019133Y016570D01*
X019133Y016070D01*
X019383Y015820D01*
X019883Y015820D01*
X019532Y015910D02*
X019532Y015490D01*
X019352Y015490D02*
X019072Y015490D01*
X019072Y015910D01*
X018892Y015840D02*
X018892Y015770D01*
X018822Y015700D01*
X018611Y015700D01*
X018611Y015490D02*
X018822Y015490D01*
X018892Y015560D01*
X018892Y015630D01*
X018822Y015700D01*
X018892Y015840D02*
X018822Y015910D01*
X018611Y015910D01*
X018611Y015490D01*
X018603Y018600D02*
X018603Y019100D01*
D15*
X007103Y017100D02*
X007103Y015600D01*
X006853Y015350D01*
X006353Y015350D01*
X006103Y015600D01*
X006103Y017100D01*
X006353Y017350D01*
X006853Y017350D01*
X007103Y017100D01*
X006103Y017100D02*
X005853Y017350D01*
X005353Y017350D01*
X005103Y017100D01*
X005103Y015600D01*
X005353Y015350D01*
X005853Y015350D01*
X006103Y015600D01*
X005103Y015600D02*
X004853Y015350D01*
X004353Y015350D01*
X004103Y015600D01*
X004103Y017100D01*
X004353Y017350D01*
X004853Y017350D01*
X005103Y017100D01*
X004103Y017100D02*
X003853Y017350D01*
X003353Y017350D01*
X003103Y017100D01*
X003103Y015600D01*
X003353Y015350D01*
X003853Y015350D01*
X004103Y015600D01*
X003103Y015600D02*
X002853Y015350D01*
X002353Y015350D01*
X002103Y015600D01*
X002103Y017100D01*
X002353Y017350D01*
X002853Y017350D01*
X003103Y017100D01*
X002983Y006150D02*
X002985Y006129D01*
X002990Y006109D01*
X002999Y006090D01*
X003011Y006073D01*
X003026Y006058D01*
X003043Y006046D01*
X003062Y006037D01*
X003082Y006032D01*
X003103Y006030D01*
X003124Y006032D01*
X003144Y006037D01*
X003163Y006046D01*
X003180Y006058D01*
X003195Y006073D01*
X003207Y006090D01*
X003216Y006109D01*
X003221Y006129D01*
X003223Y006150D01*
X002983Y006150D01*
X002043Y006150D01*
X002043Y006050D01*
X002043Y005650D02*
X002043Y005550D01*
X002043Y005150D02*
X002043Y005050D01*
X002043Y004650D02*
X002043Y004550D01*
X002043Y004150D02*
X002043Y004050D01*
X004163Y004050D01*
X004163Y004150D01*
X004163Y004550D02*
X004163Y004650D01*
X004163Y005050D02*
X004163Y005150D01*
X004163Y005550D02*
X004163Y005650D01*
X004163Y006050D02*
X004163Y006150D01*
X003223Y006150D01*
X003221Y006129D01*
X003216Y006109D01*
X003207Y006090D01*
X003195Y006073D01*
X003180Y006058D01*
X003163Y006046D01*
X003144Y006037D01*
X003124Y006032D01*
X003103Y006030D01*
X003082Y006032D01*
X003062Y006037D01*
X003043Y006046D01*
X003026Y006058D01*
X003011Y006073D01*
X002999Y006090D01*
X002990Y006109D01*
X002985Y006129D01*
X002983Y006150D01*
X015853Y006150D02*
X015853Y005730D01*
X015855Y005707D01*
X015860Y005684D01*
X015869Y005662D01*
X015882Y005642D01*
X015897Y005624D01*
X015915Y005609D01*
X015935Y005596D01*
X015957Y005587D01*
X015980Y005582D01*
X016003Y005580D01*
X015853Y006150D02*
X015853Y006550D01*
X015853Y006970D01*
X015855Y006993D01*
X015860Y007016D01*
X015869Y007038D01*
X015882Y007058D01*
X015897Y007076D01*
X015915Y007091D01*
X015935Y007104D01*
X015957Y007113D01*
X015980Y007118D01*
X016003Y007120D01*
X015853Y006550D02*
X015880Y006548D01*
X015907Y006543D01*
X015933Y006533D01*
X015957Y006521D01*
X015979Y006505D01*
X015999Y006487D01*
X016016Y006465D01*
X016031Y006442D01*
X016041Y006417D01*
X016049Y006391D01*
X016053Y006364D01*
X016053Y006336D01*
X016049Y006309D01*
X016041Y006283D01*
X016031Y006258D01*
X016016Y006235D01*
X015999Y006213D01*
X015979Y006195D01*
X015957Y006179D01*
X015933Y006167D01*
X015907Y006157D01*
X015880Y006152D01*
X015853Y006150D01*
X019703Y005580D02*
X019726Y005582D01*
X019749Y005587D01*
X019771Y005596D01*
X019791Y005609D01*
X019809Y005624D01*
X019824Y005642D01*
X019837Y005662D01*
X019846Y005684D01*
X019851Y005707D01*
X019853Y005730D01*
X019853Y006970D01*
X019851Y006993D01*
X019846Y007016D01*
X019837Y007038D01*
X019824Y007058D01*
X019809Y007076D01*
X019791Y007091D01*
X019771Y007104D01*
X019749Y007113D01*
X019726Y007118D01*
X019703Y007120D01*
D16*
X006524Y013232D03*
D17*
X006928Y013568D02*
X007078Y013568D01*
X007078Y013518D02*
X007078Y013618D01*
X007053Y013666D02*
X006953Y013766D01*
X007053Y013766D01*
X007078Y013741D01*
X007078Y013691D01*
X007053Y013666D01*
X006953Y013666D01*
X006928Y013691D01*
X006928Y013741D01*
X006953Y013766D01*
X006953Y013813D02*
X006928Y013838D01*
X006928Y013888D01*
X006953Y013913D01*
X007053Y013813D01*
X007078Y013838D01*
X007078Y013888D01*
X007053Y013913D01*
X006953Y013913D01*
X006953Y013813D02*
X007053Y013813D01*
X006928Y013568D02*
X006978Y013518D01*
X012125Y013558D02*
X012125Y013658D01*
X012150Y013658D01*
X012250Y013558D01*
X012275Y013558D01*
X012250Y013705D02*
X012275Y013730D01*
X012275Y013780D01*
X012250Y013805D01*
X012225Y013805D01*
X012200Y013780D01*
X012200Y013705D01*
X012250Y013705D01*
X012200Y013705D02*
X012150Y013755D01*
X012125Y013805D01*
X012560Y013275D02*
X012660Y013275D01*
X012660Y013250D01*
X012560Y013150D01*
X012560Y013125D01*
X012708Y013150D02*
X012733Y013125D01*
X012783Y013125D01*
X012808Y013150D01*
X012808Y013200D01*
X012783Y013225D01*
X012758Y013225D01*
X012708Y013200D01*
X012708Y013275D01*
X012808Y013275D01*
X012718Y008039D02*
X012718Y007888D01*
X012668Y007888D02*
X012768Y007888D01*
X012668Y007989D02*
X012718Y008039D01*
X012621Y008039D02*
X012521Y008039D01*
X012521Y007964D01*
X012571Y007989D01*
X012596Y007989D01*
X012621Y007964D01*
X012621Y007913D01*
X012596Y007888D01*
X012546Y007888D01*
X012521Y007913D01*
X012275Y007717D02*
X012275Y007667D01*
X012250Y007642D01*
X012150Y007742D01*
X012250Y007742D01*
X012275Y007717D01*
X012250Y007642D02*
X012150Y007642D01*
X012125Y007667D01*
X012125Y007717D01*
X012150Y007742D01*
X012125Y007595D02*
X012125Y007495D01*
X012200Y007495D01*
X012175Y007545D01*
X012175Y007570D01*
X012200Y007595D01*
X012250Y007595D01*
X012275Y007570D01*
X012275Y007520D01*
X012250Y007495D01*
X007117Y007455D02*
X007017Y007555D01*
X006992Y007555D01*
X006967Y007530D01*
X006967Y007480D01*
X006992Y007455D01*
X007117Y007455D02*
X007117Y007555D01*
X007092Y007603D02*
X007117Y007628D01*
X007117Y007678D01*
X007092Y007703D01*
X007067Y007703D01*
X007042Y007678D01*
X007042Y007603D01*
X007092Y007603D01*
X007042Y007603D02*
X006992Y007653D01*
X006967Y007703D01*
X006587Y007992D02*
X006562Y007967D01*
X006512Y007967D01*
X006487Y007992D01*
X006487Y008042D02*
X006537Y008067D01*
X006562Y008067D01*
X006587Y008042D01*
X006587Y007992D01*
X006487Y008042D02*
X006487Y008117D01*
X006587Y008117D01*
X006440Y008092D02*
X006415Y008117D01*
X006365Y008117D01*
X006340Y008092D01*
X006440Y008092D02*
X006440Y008067D01*
X006340Y007967D01*
X006440Y007967D01*
D18*
X004603Y015850D03*
D19*
X001853Y015850D02*
X001853Y009850D01*
X000853Y009850D01*
X000853Y015850D01*
X001853Y015850D01*
X000728Y015699D02*
X000683Y015744D01*
X000502Y015744D01*
X000457Y015699D01*
X000457Y015564D01*
X000728Y015564D01*
X000728Y015699D01*
X000728Y015450D02*
X000457Y015450D01*
X000457Y015270D02*
X000728Y015450D01*
X000728Y015270D02*
X000457Y015270D01*
X000502Y015155D02*
X000457Y015110D01*
X000457Y015020D01*
X000502Y014975D01*
X000683Y014975D01*
X000728Y015020D01*
X000728Y015110D01*
X000683Y015155D01*
X000592Y015155D01*
X000592Y015065D01*
X000637Y014744D02*
X000683Y014744D01*
X000728Y014699D01*
X000728Y014609D01*
X000683Y014564D01*
X000592Y014609D02*
X000592Y014699D01*
X000637Y014744D01*
X000502Y014744D02*
X000457Y014699D01*
X000457Y014609D01*
X000502Y014564D01*
X000547Y014564D01*
X000592Y014609D01*
X000457Y014450D02*
X000457Y014270D01*
X000457Y014360D02*
X000728Y014360D01*
X000683Y014155D02*
X000728Y014110D01*
X000728Y014020D01*
X000683Y013975D01*
X000502Y013975D01*
X000457Y014020D01*
X000457Y014110D01*
X000502Y014155D01*
X000502Y013744D02*
X000457Y013699D01*
X000457Y013609D01*
X000502Y013564D01*
X000683Y013564D01*
X000728Y013609D01*
X000728Y013699D01*
X000683Y013744D01*
X000683Y013450D02*
X000728Y013405D01*
X000728Y013315D01*
X000683Y013270D01*
X000502Y013270D01*
X000457Y013315D01*
X000457Y013405D01*
X000502Y013450D01*
X000457Y013155D02*
X000637Y013155D01*
X000728Y013065D01*
X000637Y012975D01*
X000457Y012975D01*
X000457Y012654D02*
X000457Y012564D01*
X000457Y012609D02*
X000728Y012609D01*
X000728Y012564D02*
X000728Y012654D01*
X000728Y012450D02*
X000457Y012270D01*
X000502Y012155D02*
X000592Y012155D01*
X000637Y012110D01*
X000637Y011975D01*
X000637Y012065D02*
X000728Y012155D01*
X000728Y012270D02*
X000457Y012450D01*
X000502Y012155D02*
X000457Y012110D01*
X000457Y011975D01*
X000728Y011975D01*
X000683Y011744D02*
X000502Y011744D01*
X000457Y011699D01*
X000457Y011609D01*
X000502Y011564D01*
X000683Y011564D01*
X000728Y011609D01*
X000728Y011699D01*
X000683Y011744D01*
X000728Y011450D02*
X000457Y011270D01*
X000457Y011155D02*
X000457Y010975D01*
X000457Y011065D02*
X000728Y011065D01*
X000728Y011270D02*
X000457Y011450D01*
X000502Y010744D02*
X000592Y010744D01*
X000637Y010699D01*
X000637Y010564D01*
X000637Y010654D02*
X000728Y010744D01*
X000728Y010564D02*
X000457Y010564D01*
X000457Y010699D01*
X000502Y010744D01*
X000457Y010450D02*
X000457Y010270D01*
X000457Y010360D02*
X000728Y010360D01*
X000683Y010155D02*
X000502Y010155D01*
X000457Y010110D01*
X000457Y009975D01*
X000728Y009975D01*
X000728Y010110D01*
X000683Y010155D01*
X018707Y010064D02*
X018707Y010199D01*
X018752Y010244D01*
X018842Y010244D01*
X018887Y010199D01*
X018887Y010064D01*
X018887Y010154D02*
X018978Y010244D01*
X018978Y010064D02*
X018707Y010064D01*
X018707Y009950D02*
X018707Y009770D01*
X018707Y009860D02*
X018978Y009860D01*
X018933Y009655D02*
X018752Y009655D01*
X018707Y009610D01*
X018707Y009475D01*
X018978Y009475D01*
X018978Y009610D01*
X018933Y009655D01*
X019103Y009350D02*
X020103Y009350D01*
X020103Y015350D01*
X019103Y015350D01*
X019103Y009350D01*
X018707Y010475D02*
X018707Y010655D01*
X018707Y010565D02*
X018978Y010565D01*
X018978Y010770D02*
X018707Y010950D01*
X018752Y011064D02*
X018933Y011064D01*
X018978Y011109D01*
X018978Y011199D01*
X018933Y011244D01*
X018752Y011244D01*
X018707Y011199D01*
X018707Y011109D01*
X018752Y011064D01*
X018978Y010950D02*
X018707Y010770D01*
X018707Y011475D02*
X018707Y011610D01*
X018752Y011655D01*
X018842Y011655D01*
X018887Y011610D01*
X018887Y011475D01*
X018887Y011565D02*
X018978Y011655D01*
X018978Y011770D02*
X018707Y011950D01*
X018707Y012064D02*
X018707Y012154D01*
X018707Y012109D02*
X018978Y012109D01*
X018978Y012064D02*
X018978Y012154D01*
X018978Y011950D02*
X018707Y011770D01*
X018707Y011475D02*
X018978Y011475D01*
X018887Y012475D02*
X018707Y012475D01*
X018707Y012655D02*
X018887Y012655D01*
X018978Y012565D01*
X018887Y012475D01*
X018933Y012770D02*
X018752Y012770D01*
X018707Y012815D01*
X018707Y012905D01*
X018752Y012950D01*
X018752Y013064D02*
X018933Y013064D01*
X018978Y013109D01*
X018978Y013199D01*
X018933Y013244D01*
X018752Y013244D02*
X018707Y013199D01*
X018707Y013109D01*
X018752Y013064D01*
X018933Y012950D02*
X018978Y012905D01*
X018978Y012815D01*
X018933Y012770D01*
X018933Y013475D02*
X018752Y013475D01*
X018707Y013520D01*
X018707Y013610D01*
X018752Y013655D01*
X018707Y013770D02*
X018707Y013950D01*
X018707Y013860D02*
X018978Y013860D01*
X018933Y014064D02*
X018978Y014109D01*
X018978Y014199D01*
X018933Y014244D01*
X018887Y014244D01*
X018842Y014199D01*
X018842Y014109D01*
X018797Y014064D01*
X018752Y014064D01*
X018707Y014109D01*
X018707Y014199D01*
X018752Y014244D01*
X018752Y014475D02*
X018933Y014475D01*
X018978Y014520D01*
X018978Y014610D01*
X018933Y014655D01*
X018842Y014655D01*
X018842Y014565D01*
X018752Y014475D02*
X018707Y014520D01*
X018707Y014610D01*
X018752Y014655D01*
X018707Y014770D02*
X018978Y014950D01*
X018707Y014950D01*
X018707Y015064D02*
X018707Y015199D01*
X018752Y015244D01*
X018933Y015244D01*
X018978Y015199D01*
X018978Y015064D01*
X018707Y015064D01*
X018707Y014770D02*
X018978Y014770D01*
X018933Y013655D02*
X018978Y013610D01*
X018978Y013520D01*
X018933Y013475D01*
D20*
X019853Y005720D02*
X015853Y005720D01*
M02*
