G75*
G70*
%OFA0B0*%
%FSLAX25Y25*%
%IPPOS*%
%LPD*%
%AMOC8*
5,1,8,0,0,1.08239X$1,22.5*
%
%ADD33C,0.01000*%
%ADD34R,0.01180X0.01180*%
%ADD44C,0.01200*%
%ADD51R,0.02000X0.02000*%
%ADD53C,0.02000*%
%ADD75C,0.03000*%
%ADD79C,0.00800*%
%ADD91R,0.00800X0.00800*%
X0000000Y0000000D02*
G75*
%LPD*%
D79*
X0000000Y0000000D02*
X0000000Y0196850D01*
X0196850Y0196850D01*
X0196850Y0000000D01*
X0000000Y0000000D01*
X0004090Y0010000D02*
X0004110Y0010480D01*
X0004170Y0010960D01*
X0004270Y0011430D01*
X0004400Y0011890D01*
X0004580Y0012340D01*
X0004780Y0012780D01*
X0005030Y0013200D01*
X0005310Y0013590D01*
X0005610Y0013960D01*
X0005950Y0014300D01*
X0006320Y0014620D01*
X0006700Y0014910D01*
X0007110Y0015160D01*
X0007540Y0015380D01*
X0007990Y0015560D01*
X0008450Y0015700D01*
X0008920Y0015810D01*
X0009400Y0015880D01*
X0009880Y0015910D01*
X0010360Y0015900D01*
X0010840Y0015850D01*
X0011320Y0015760D01*
X0011780Y0015640D01*
X0012230Y0015470D01*
X0012670Y0015270D01*
X0013090Y0015040D01*
X0013490Y0014770D01*
X0013870Y0014470D01*
X0014220Y0014140D01*
X0014540Y0013780D01*
X0014840Y0013400D01*
X0015100Y0012990D01*
X0015320Y0012560D01*
X0015520Y0012120D01*
X0015670Y0011670D01*
X0015790Y0011200D01*
X0015870Y0010720D01*
X0015910Y0010240D01*
X0015910Y0009760D01*
X0015870Y0009280D01*
X0015790Y0008800D01*
X0015670Y0008330D01*
X0015520Y0007880D01*
X0015320Y0007440D01*
X0015100Y0007010D01*
X0014840Y0006600D01*
X0014540Y0006220D01*
X0014220Y0005860D01*
X0013870Y0005530D01*
X0013490Y0005230D01*
X0013090Y0004960D01*
X0012670Y0004730D01*
X0012230Y0004530D01*
X0011780Y0004360D01*
X0011320Y0004240D01*
X0010840Y0004150D01*
X0010360Y0004100D01*
X0009880Y0004090D01*
X0009400Y0004120D01*
X0008920Y0004190D01*
X0008450Y0004300D01*
X0007990Y0004440D01*
X0007540Y0004620D01*
X0007110Y0004840D01*
X0006700Y0005090D01*
X0006320Y0005380D01*
X0005950Y0005700D01*
X0005610Y0006040D01*
X0005310Y0006410D01*
X0005030Y0006800D01*
X0004780Y0007220D01*
X0004580Y0007660D01*
X0004400Y0008110D01*
X0004270Y0008570D01*
X0004170Y0009040D01*
X0004110Y0009520D01*
X0004090Y0010000D01*
X0004090Y0187500D02*
X0004110Y0187980D01*
X0004170Y0188460D01*
X0004270Y0188930D01*
X0004400Y0189390D01*
X0004580Y0189840D01*
X0004780Y0190280D01*
X0005030Y0190700D01*
X0005310Y0191090D01*
X0005610Y0191460D01*
X0005950Y0191800D01*
X0006320Y0192120D01*
X0006700Y0192410D01*
X0007110Y0192660D01*
X0007540Y0192880D01*
X0007990Y0193060D01*
X0008450Y0193200D01*
X0008920Y0193310D01*
X0009400Y0193380D01*
X0009880Y0193410D01*
X0010360Y0193400D01*
X0010840Y0193350D01*
X0011320Y0193260D01*
X0011780Y0193140D01*
X0012230Y0192970D01*
X0012670Y0192770D01*
X0013090Y0192540D01*
X0013490Y0192270D01*
X0013870Y0191970D01*
X0014220Y0191640D01*
X0014540Y0191280D01*
X0014840Y0190900D01*
X0015100Y0190490D01*
X0015320Y0190060D01*
X0015520Y0189620D01*
X0015670Y0189170D01*
X0015790Y0188700D01*
X0015870Y0188220D01*
X0015910Y0187740D01*
X0015910Y0187260D01*
X0015870Y0186780D01*
X0015790Y0186300D01*
X0015670Y0185830D01*
X0015520Y0185380D01*
X0015320Y0184940D01*
X0015100Y0184510D01*
X0014840Y0184100D01*
X0014540Y0183720D01*
X0014220Y0183360D01*
X0013870Y0183030D01*
X0013490Y0182730D01*
X0013090Y0182460D01*
X0012670Y0182230D01*
X0012230Y0182030D01*
X0011780Y0181860D01*
X0011320Y0181740D01*
X0010840Y0181650D01*
X0010360Y0181600D01*
X0009880Y0181590D01*
X0009400Y0181620D01*
X0008920Y0181690D01*
X0008450Y0181800D01*
X0007990Y0181940D01*
X0007540Y0182120D01*
X0007110Y0182340D01*
X0006700Y0182590D01*
X0006320Y0182880D01*
X0005950Y0183200D01*
X0005610Y0183540D01*
X0005310Y0183910D01*
X0005030Y0184300D01*
X0004780Y0184720D01*
X0004580Y0185160D01*
X0004400Y0185610D01*
X0004270Y0186070D01*
X0004170Y0186540D01*
X0004110Y0187020D01*
X0004090Y0187500D01*
X0181590Y0187500D02*
X0181610Y0187980D01*
X0181670Y0188460D01*
X0181770Y0188930D01*
X0181900Y0189390D01*
X0182080Y0189840D01*
X0182280Y0190280D01*
X0182530Y0190700D01*
X0182810Y0191090D01*
X0183110Y0191460D01*
X0183450Y0191800D01*
X0183820Y0192120D01*
X0184200Y0192410D01*
X0184610Y0192660D01*
X0185040Y0192880D01*
X0185490Y0193060D01*
X0185950Y0193200D01*
X0186420Y0193310D01*
X0186900Y0193380D01*
X0187380Y0193410D01*
X0187860Y0193400D01*
X0188340Y0193350D01*
X0188820Y0193260D01*
X0189280Y0193140D01*
X0189730Y0192970D01*
X0190170Y0192770D01*
X0190590Y0192540D01*
X0190990Y0192270D01*
X0191370Y0191970D01*
X0191720Y0191640D01*
X0192040Y0191280D01*
X0192340Y0190900D01*
X0192600Y0190490D01*
X0192820Y0190060D01*
X0193020Y0189620D01*
X0193170Y0189170D01*
X0193290Y0188700D01*
X0193370Y0188220D01*
X0193410Y0187740D01*
X0193410Y0187260D01*
X0193370Y0186780D01*
X0193290Y0186300D01*
X0193170Y0185830D01*
X0193020Y0185380D01*
X0192820Y0184940D01*
X0192600Y0184510D01*
X0192340Y0184100D01*
X0192040Y0183720D01*
X0191720Y0183360D01*
X0191370Y0183030D01*
X0190990Y0182730D01*
X0190590Y0182460D01*
X0190170Y0182230D01*
X0189730Y0182030D01*
X0189280Y0181860D01*
X0188820Y0181740D01*
X0188340Y0181650D01*
X0187860Y0181600D01*
X0187380Y0181590D01*
X0186900Y0181620D01*
X0186420Y0181690D01*
X0185950Y0181800D01*
X0185490Y0181940D01*
X0185040Y0182120D01*
X0184610Y0182340D01*
X0184200Y0182590D01*
X0183820Y0182880D01*
X0183450Y0183200D01*
X0183110Y0183540D01*
X0182810Y0183910D01*
X0182530Y0184300D01*
X0182280Y0184720D01*
X0182080Y0185160D01*
X0181900Y0185610D01*
X0181770Y0186070D01*
X0181670Y0186540D01*
X0181610Y0187020D01*
X0181590Y0187500D01*
X0181590Y0010000D02*
X0181610Y0010480D01*
X0181670Y0010960D01*
X0181770Y0011430D01*
X0181900Y0011890D01*
X0182080Y0012340D01*
X0182280Y0012780D01*
X0182530Y0013200D01*
X0182810Y0013590D01*
X0183110Y0013960D01*
X0183450Y0014300D01*
X0183820Y0014620D01*
X0184200Y0014910D01*
X0184610Y0015160D01*
X0185040Y0015380D01*
X0185490Y0015560D01*
X0185950Y0015700D01*
X0186420Y0015810D01*
X0186900Y0015880D01*
X0187380Y0015910D01*
X0187860Y0015900D01*
X0188340Y0015850D01*
X0188820Y0015760D01*
X0189280Y0015640D01*
X0189730Y0015470D01*
X0190170Y0015270D01*
X0190590Y0015040D01*
X0190990Y0014770D01*
X0191370Y0014470D01*
X0191720Y0014140D01*
X0192040Y0013780D01*
X0192340Y0013400D01*
X0192600Y0012990D01*
X0192820Y0012560D01*
X0193020Y0012120D01*
X0193170Y0011670D01*
X0193290Y0011200D01*
X0193370Y0010720D01*
X0193410Y0010240D01*
X0193410Y0009760D01*
X0193370Y0009280D01*
X0193290Y0008800D01*
X0193170Y0008330D01*
X0193020Y0007880D01*
X0192820Y0007440D01*
X0192600Y0007010D01*
X0192340Y0006600D01*
X0192040Y0006220D01*
X0191720Y0005860D01*
X0191370Y0005530D01*
X0190990Y0005230D01*
X0190590Y0004960D01*
X0190170Y0004730D01*
X0189730Y0004530D01*
X0189280Y0004360D01*
X0188820Y0004240D01*
X0188340Y0004150D01*
X0187860Y0004100D01*
X0187380Y0004090D01*
X0186900Y0004120D01*
X0186420Y0004190D01*
X0185950Y0004300D01*
X0185490Y0004440D01*
X0185040Y0004620D01*
X0184610Y0004840D01*
X0184200Y0005090D01*
X0183820Y0005380D01*
X0183450Y0005700D01*
X0183110Y0006040D01*
X0182810Y0006410D01*
X0182530Y0006800D01*
X0182280Y0007220D01*
X0182080Y0007660D01*
X0181900Y0008110D01*
X0181770Y0008570D01*
X0181670Y0009040D01*
X0181610Y0009520D01*
X0181590Y0010000D01*
D33*
X0196250Y0001250D02*
X0196250Y0196250D01*
X0001250Y0196250D01*
X0001250Y0001250D01*
X0196250Y0001250D01*
D79*
X0195200Y0059270D02*
X0195200Y0061740D01*
X0193970Y0060500D02*
X0196440Y0060500D01*
X0195030Y0117650D02*
X0193580Y0117650D01*
X0193100Y0118130D01*
X0193580Y0118620D01*
X0195030Y0118620D01*
X0195030Y0119100D02*
X0195030Y0117650D01*
X0195030Y0119100D02*
X0194550Y0119580D01*
X0193580Y0119580D01*
X0192100Y0119580D02*
X0191130Y0119580D01*
X0191620Y0120070D02*
X0191620Y0118130D01*
X0192100Y0117650D01*
X0190120Y0118620D02*
X0188190Y0118620D01*
X0188190Y0119100D02*
X0188670Y0119580D01*
X0189640Y0119580D01*
X0190120Y0119100D01*
X0190120Y0118620D01*
X0189640Y0117650D02*
X0188670Y0117650D01*
X0188190Y0118130D01*
X0188190Y0119100D01*
X0187170Y0120070D02*
X0185240Y0118130D01*
X0185240Y0117650D01*
X0187170Y0117650D01*
X0187170Y0120070D02*
X0187170Y0120550D01*
X0185240Y0120550D01*
X0181300Y0119580D02*
X0181300Y0119100D01*
X0180820Y0119100D01*
X0180820Y0119580D01*
X0181300Y0119580D01*
X0181300Y0118130D02*
X0181300Y0117650D01*
X0180820Y0117650D01*
X0180820Y0118130D01*
X0181300Y0118130D01*
X0179820Y0117650D02*
X0179340Y0118130D01*
X0179340Y0120070D01*
X0178860Y0119580D02*
X0179820Y0119580D01*
X0177840Y0119580D02*
X0176390Y0119580D01*
X0175910Y0119100D01*
X0175910Y0118130D01*
X0176390Y0117650D01*
X0177840Y0117650D01*
X0174900Y0118620D02*
X0172960Y0118620D01*
X0172960Y0119100D02*
X0173450Y0119580D01*
X0174410Y0119580D01*
X0174900Y0119100D01*
X0174900Y0118620D01*
X0174410Y0117650D02*
X0173450Y0117650D01*
X0172960Y0118130D01*
X0172960Y0119100D01*
X0171970Y0119580D02*
X0171970Y0117170D01*
X0171480Y0116680D01*
X0171000Y0116680D01*
X0169990Y0118130D02*
X0169990Y0119100D01*
X0169500Y0119580D01*
X0168540Y0119580D01*
X0168050Y0119100D01*
X0168050Y0118130D01*
X0168540Y0117650D01*
X0169500Y0117650D01*
X0169990Y0118130D01*
X0167050Y0119580D02*
X0166560Y0119580D01*
X0165600Y0118620D01*
X0165600Y0119580D02*
X0165600Y0117650D01*
X0164580Y0119100D02*
X0164100Y0118620D01*
X0162650Y0118620D01*
X0162650Y0117650D02*
X0162650Y0120550D01*
X0164100Y0120550D01*
X0164580Y0120070D01*
X0164580Y0119100D01*
X0171970Y0120550D02*
X0171970Y0121040D01*
D79*
X0187800Y0157200D02*
X0185300Y0159700D01*
X0185300Y0164700D01*
X0187800Y0167200D01*
X0185300Y0169700D01*
X0185300Y0174700D01*
X0187800Y0177200D01*
X0192800Y0177200D01*
X0195300Y0174700D01*
X0195300Y0169700D01*
X0192800Y0167200D01*
X0195300Y0164700D01*
X0195300Y0159700D01*
X0192800Y0157200D01*
X0187800Y0157200D01*
X0177500Y0182500D02*
X0172500Y0182500D01*
X0170000Y0185000D01*
X0167500Y0182500D01*
X0162500Y0182500D01*
X0160000Y0185000D01*
X0157500Y0182500D01*
X0152500Y0182500D01*
X0150000Y0185000D01*
X0147500Y0182500D01*
X0142500Y0182500D01*
X0140000Y0185000D01*
X0137500Y0182500D01*
X0132500Y0182500D01*
X0130000Y0185000D01*
X0127500Y0182500D01*
X0122500Y0182500D01*
X0120000Y0185000D01*
X0117500Y0182500D01*
X0112500Y0182500D01*
X0110000Y0185000D01*
X0107500Y0182500D01*
X0102500Y0182500D01*
X0100000Y0185000D01*
X0097500Y0182500D01*
X0092500Y0182500D01*
X0090000Y0185000D01*
X0087500Y0182500D01*
X0082500Y0182500D01*
X0080000Y0185000D01*
X0077500Y0182500D01*
X0072500Y0182500D01*
X0070000Y0185000D01*
X0067500Y0182500D01*
X0062500Y0182500D01*
X0060000Y0185000D01*
X0057500Y0182500D01*
X0052500Y0182500D01*
X0050000Y0185000D01*
X0047500Y0182500D01*
X0042500Y0182500D01*
X0040000Y0185000D01*
X0037500Y0182500D01*
X0032500Y0182500D01*
X0030000Y0185000D01*
X0027500Y0182500D01*
X0022500Y0182500D01*
X0020000Y0185000D01*
X0020000Y0190000D01*
X0022500Y0192500D01*
X0027500Y0192500D01*
X0030000Y0190000D01*
X0032500Y0192500D01*
X0037500Y0192500D01*
X0040000Y0190000D01*
X0042500Y0192500D01*
X0047500Y0192500D01*
X0050000Y0190000D01*
X0052500Y0192500D01*
X0057500Y0192500D01*
X0060000Y0190000D01*
X0062500Y0192500D01*
X0067500Y0192500D01*
X0070000Y0190000D01*
X0072500Y0192500D01*
X0077500Y0192500D01*
X0080000Y0190000D01*
X0082500Y0192500D01*
X0087500Y0192500D01*
X0090000Y0190000D01*
X0092500Y0192500D01*
X0097500Y0192500D01*
X0100000Y0190000D01*
X0102500Y0192500D01*
X0107500Y0192500D01*
X0110000Y0190000D01*
X0112500Y0192500D01*
X0117500Y0192500D01*
X0120000Y0190000D01*
X0122500Y0192500D01*
X0127500Y0192500D01*
X0130000Y0190000D01*
X0132500Y0192500D01*
X0137500Y0192500D01*
X0140000Y0190000D01*
X0142500Y0192500D01*
X0147500Y0192500D01*
X0150000Y0190000D01*
X0152500Y0192500D01*
X0157500Y0192500D01*
X0160000Y0190000D01*
X0162500Y0192500D01*
X0167500Y0192500D01*
X0170000Y0190000D01*
X0172500Y0192500D01*
X0177500Y0192500D01*
X0180000Y0190000D01*
X0180000Y0185000D01*
X0177500Y0182500D01*
X0180000Y0185000D02*
X0180000Y0190000D01*
X0187070Y0036640D02*
X0190610Y0036640D01*
X0194140Y0033110D01*
X0194140Y0029570D01*
X0190610Y0026040D01*
X0187070Y0026040D01*
X0187070Y0022500D01*
X0183540Y0018960D01*
X0180000Y0018960D01*
X0176460Y0022500D01*
X0176460Y0026040D01*
X0180000Y0029570D01*
X0183540Y0029570D01*
X0183540Y0033110D01*
X0187070Y0036640D01*
X0177500Y0015000D02*
X0172500Y0015000D01*
X0170000Y0012500D01*
X0167500Y0015000D01*
X0162500Y0015000D01*
X0160000Y0012500D01*
X0157500Y0015000D01*
X0152500Y0015000D01*
X0150000Y0012500D01*
X0147500Y0015000D01*
X0142500Y0015000D01*
X0140000Y0012500D01*
X0137500Y0015000D01*
X0132500Y0015000D01*
X0130000Y0012500D01*
X0127500Y0015000D01*
X0122500Y0015000D01*
X0120000Y0012500D01*
X0117500Y0015000D01*
X0112500Y0015000D01*
X0110000Y0012500D01*
X0107500Y0015000D01*
X0102500Y0015000D01*
X0100000Y0012500D01*
X0097500Y0015000D01*
X0092500Y0015000D01*
X0090000Y0012500D01*
X0087500Y0015000D01*
X0082500Y0015000D01*
X0080000Y0012500D01*
X0077500Y0015000D01*
X0072500Y0015000D01*
X0070000Y0012500D01*
X0067500Y0015000D01*
X0062500Y0015000D01*
X0060000Y0012500D01*
X0057500Y0015000D01*
X0052500Y0015000D01*
X0050000Y0012500D01*
X0047500Y0015000D01*
X0042500Y0015000D01*
X0040000Y0012500D01*
X0037500Y0015000D01*
X0032500Y0015000D01*
X0030000Y0012500D01*
X0027500Y0015000D01*
X0022500Y0015000D01*
X0020000Y0012500D01*
X0020000Y0007500D01*
X0022500Y0005000D01*
X0027500Y0005000D01*
X0030000Y0007500D01*
X0032500Y0005000D01*
X0037500Y0005000D01*
X0040000Y0007500D01*
X0042500Y0005000D01*
X0047500Y0005000D01*
X0050000Y0007500D01*
X0052500Y0005000D01*
X0057500Y0005000D01*
X0060000Y0007500D01*
X0062500Y0005000D01*
X0067500Y0005000D01*
X0070000Y0007500D01*
X0072500Y0005000D01*
X0077500Y0005000D01*
X0080000Y0007500D01*
X0082500Y0005000D01*
X0087500Y0005000D01*
X0090000Y0007500D01*
X0092500Y0005000D01*
X0097500Y0005000D01*
X0100000Y0007500D01*
X0102500Y0005000D01*
X0107500Y0005000D01*
X0110000Y0007500D01*
X0112500Y0005000D01*
X0117500Y0005000D01*
X0120000Y0007500D01*
X0122500Y0005000D01*
X0127500Y0005000D01*
X0130000Y0007500D01*
X0132500Y0005000D01*
X0137500Y0005000D01*
X0140000Y0007500D01*
X0142500Y0005000D01*
X0147500Y0005000D01*
X0150000Y0007500D01*
X0152500Y0005000D01*
X0157500Y0005000D01*
X0160000Y0007500D01*
X0162500Y0005000D01*
X0167500Y0005000D01*
X0170000Y0007500D01*
X0172500Y0005000D01*
X0177500Y0005000D01*
X0180000Y0007500D01*
X0180000Y0012500D01*
X0177500Y0015000D01*
X0180000Y0012500D02*
X0180000Y0007500D01*
X0021770Y0022200D02*
X0021770Y0025730D01*
X0018230Y0029270D01*
X0014700Y0029270D01*
X0014700Y0032800D01*
X0011160Y0036340D01*
X0007630Y0036340D01*
X0004090Y0032800D01*
X0004090Y0029270D01*
X0007630Y0025730D01*
X0011160Y0025730D01*
X0011160Y0022200D01*
X0014700Y0018660D01*
X0018230Y0018660D01*
X0021770Y0022200D01*
X0020000Y0012500D02*
X0020000Y0007500D01*
X0008960Y0157500D02*
X0003960Y0157500D01*
X0001460Y0160000D01*
X0001460Y0165000D01*
X0003960Y0167500D01*
X0001460Y0170000D01*
X0001460Y0175000D01*
X0003960Y0177500D01*
X0008960Y0177500D01*
X0011460Y0175000D01*
X0011460Y0170000D01*
X0008960Y0167500D01*
X0011460Y0165000D01*
X0011460Y0160000D01*
X0008960Y0157500D01*
X0020000Y0185000D02*
X0020000Y0190000D01*
D79*
X0000000Y0073500D02*
X0196850Y0073500D01*
X0198750Y0073500D02*
X0196850Y0096976D02*
X0196530Y0097170D01*
X0196210Y0097410D01*
X0195920Y0097670D01*
X0195660Y0097960D01*
X0195420Y0098280D01*
X0195220Y0098610D01*
X0195050Y0098970D01*
X0194920Y0099340D01*
X0194830Y0099720D01*
X0194770Y0100110D01*
X0194750Y0100500D01*
X0194770Y0100890D01*
X0194830Y0101280D01*
X0194920Y0101660D01*
X0195050Y0102030D01*
X0195220Y0102390D01*
X0195420Y0102720D01*
X0195660Y0103040D01*
X0195920Y0103330D01*
X0196210Y0103590D01*
X0196530Y0103830D01*
X0196850Y0104024D01*
X0196860Y0104030D02*
X0000000Y0126500D02*
X0196850Y0126500D01*
X-001250Y0126500D02*
D91*
X0190140Y0051910D03*
X0194860Y0051910D03*
D34*
X0192500Y0051910D03*
D79*
X0000000Y0000000D02*
G75*
%LPD*%
D79*
X0000000Y0000000D02*
X0000000Y0196850D01*
X0196850Y0196850D01*
X0196850Y0000000D01*
X0000000Y0000000D01*
X0004090Y0010000D02*
X0004110Y0010480D01*
X0004170Y0010960D01*
X0004270Y0011430D01*
X0004400Y0011890D01*
X0004580Y0012340D01*
X0004780Y0012780D01*
X0005030Y0013200D01*
X0005310Y0013590D01*
X0005610Y0013960D01*
X0005950Y0014300D01*
X0006320Y0014620D01*
X0006700Y0014910D01*
X0007110Y0015160D01*
X0007540Y0015380D01*
X0007990Y0015560D01*
X0008450Y0015700D01*
X0008920Y0015810D01*
X0009400Y0015880D01*
X0009880Y0015910D01*
X0010360Y0015900D01*
X0010840Y0015850D01*
X0011320Y0015760D01*
X0011780Y0015640D01*
X0012230Y0015470D01*
X0012670Y0015270D01*
X0013090Y0015040D01*
X0013490Y0014770D01*
X0013870Y0014470D01*
X0014220Y0014140D01*
X0014540Y0013780D01*
X0014840Y0013400D01*
X0015100Y0012990D01*
X0015320Y0012560D01*
X0015520Y0012120D01*
X0015670Y0011670D01*
X0015790Y0011200D01*
X0015870Y0010720D01*
X0015910Y0010240D01*
X0015910Y0009760D01*
X0015870Y0009280D01*
X0015790Y0008800D01*
X0015670Y0008330D01*
X0015520Y0007880D01*
X0015320Y0007440D01*
X0015100Y0007010D01*
X0014840Y0006600D01*
X0014540Y0006220D01*
X0014220Y0005860D01*
X0013870Y0005530D01*
X0013490Y0005230D01*
X0013090Y0004960D01*
X0012670Y0004730D01*
X0012230Y0004530D01*
X0011780Y0004360D01*
X0011320Y0004240D01*
X0010840Y0004150D01*
X0010360Y0004100D01*
X0009880Y0004090D01*
X0009400Y0004120D01*
X0008920Y0004190D01*
X0008450Y0004300D01*
X0007990Y0004440D01*
X0007540Y0004620D01*
X0007110Y0004840D01*
X0006700Y0005090D01*
X0006320Y0005380D01*
X0005950Y0005700D01*
X0005610Y0006040D01*
X0005310Y0006410D01*
X0005030Y0006800D01*
X0004780Y0007220D01*
X0004580Y0007660D01*
X0004400Y0008110D01*
X0004270Y0008570D01*
X0004170Y0009040D01*
X0004110Y0009520D01*
X0004090Y0010000D01*
X0004090Y0187500D02*
X0004110Y0187980D01*
X0004170Y0188460D01*
X0004270Y0188930D01*
X0004400Y0189390D01*
X0004580Y0189840D01*
X0004780Y0190280D01*
X0005030Y0190700D01*
X0005310Y0191090D01*
X0005610Y0191460D01*
X0005950Y0191800D01*
X0006320Y0192120D01*
X0006700Y0192410D01*
X0007110Y0192660D01*
X0007540Y0192880D01*
X0007990Y0193060D01*
X0008450Y0193200D01*
X0008920Y0193310D01*
X0009400Y0193380D01*
X0009880Y0193410D01*
X0010360Y0193400D01*
X0010840Y0193350D01*
X0011320Y0193260D01*
X0011780Y0193140D01*
X0012230Y0192970D01*
X0012670Y0192770D01*
X0013090Y0192540D01*
X0013490Y0192270D01*
X0013870Y0191970D01*
X0014220Y0191640D01*
X0014540Y0191280D01*
X0014840Y0190900D01*
X0015100Y0190490D01*
X0015320Y0190060D01*
X0015520Y0189620D01*
X0015670Y0189170D01*
X0015790Y0188700D01*
X0015870Y0188220D01*
X0015910Y0187740D01*
X0015910Y0187260D01*
X0015870Y0186780D01*
X0015790Y0186300D01*
X0015670Y0185830D01*
X0015520Y0185380D01*
X0015320Y0184940D01*
X0015100Y0184510D01*
X0014840Y0184100D01*
X0014540Y0183720D01*
X0014220Y0183360D01*
X0013870Y0183030D01*
X0013490Y0182730D01*
X0013090Y0182460D01*
X0012670Y0182230D01*
X0012230Y0182030D01*
X0011780Y0181860D01*
X0011320Y0181740D01*
X0010840Y0181650D01*
X0010360Y0181600D01*
X0009880Y0181590D01*
X0009400Y0181620D01*
X0008920Y0181690D01*
X0008450Y0181800D01*
X0007990Y0181940D01*
X0007540Y0182120D01*
X0007110Y0182340D01*
X0006700Y0182590D01*
X0006320Y0182880D01*
X0005950Y0183200D01*
X0005610Y0183540D01*
X0005310Y0183910D01*
X0005030Y0184300D01*
X0004780Y0184720D01*
X0004580Y0185160D01*
X0004400Y0185610D01*
X0004270Y0186070D01*
X0004170Y0186540D01*
X0004110Y0187020D01*
X0004090Y0187500D01*
X0181590Y0187500D02*
X0181610Y0187980D01*
X0181670Y0188460D01*
X0181770Y0188930D01*
X0181900Y0189390D01*
X0182080Y0189840D01*
X0182280Y0190280D01*
X0182530Y0190700D01*
X0182810Y0191090D01*
X0183110Y0191460D01*
X0183450Y0191800D01*
X0183820Y0192120D01*
X0184200Y0192410D01*
X0184610Y0192660D01*
X0185040Y0192880D01*
X0185490Y0193060D01*
X0185950Y0193200D01*
X0186420Y0193310D01*
X0186900Y0193380D01*
X0187380Y0193410D01*
X0187860Y0193400D01*
X0188340Y0193350D01*
X0188820Y0193260D01*
X0189280Y0193140D01*
X0189730Y0192970D01*
X0190170Y0192770D01*
X0190590Y0192540D01*
X0190990Y0192270D01*
X0191370Y0191970D01*
X0191720Y0191640D01*
X0192040Y0191280D01*
X0192340Y0190900D01*
X0192600Y0190490D01*
X0192820Y0190060D01*
X0193020Y0189620D01*
X0193170Y0189170D01*
X0193290Y0188700D01*
X0193370Y0188220D01*
X0193410Y0187740D01*
X0193410Y0187260D01*
X0193370Y0186780D01*
X0193290Y0186300D01*
X0193170Y0185830D01*
X0193020Y0185380D01*
X0192820Y0184940D01*
X0192600Y0184510D01*
X0192340Y0184100D01*
X0192040Y0183720D01*
X0191720Y0183360D01*
X0191370Y0183030D01*
X0190990Y0182730D01*
X0190590Y0182460D01*
X0190170Y0182230D01*
X0189730Y0182030D01*
X0189280Y0181860D01*
X0188820Y0181740D01*
X0188340Y0181650D01*
X0187860Y0181600D01*
X0187380Y0181590D01*
X0186900Y0181620D01*
X0186420Y0181690D01*
X0185950Y0181800D01*
X0185490Y0181940D01*
X0185040Y0182120D01*
X0184610Y0182340D01*
X0184200Y0182590D01*
X0183820Y0182880D01*
X0183450Y0183200D01*
X0183110Y0183540D01*
X0182810Y0183910D01*
X0182530Y0184300D01*
X0182280Y0184720D01*
X0182080Y0185160D01*
X0181900Y0185610D01*
X0181770Y0186070D01*
X0181670Y0186540D01*
X0181610Y0187020D01*
X0181590Y0187500D01*
X0181590Y0010000D02*
X0181610Y0010480D01*
X0181670Y0010960D01*
X0181770Y0011430D01*
X0181900Y0011890D01*
X0182080Y0012340D01*
X0182280Y0012780D01*
X0182530Y0013200D01*
X0182810Y0013590D01*
X0183110Y0013960D01*
X0183450Y0014300D01*
X0183820Y0014620D01*
X0184200Y0014910D01*
X0184610Y0015160D01*
X0185040Y0015380D01*
X0185490Y0015560D01*
X0185950Y0015700D01*
X0186420Y0015810D01*
X0186900Y0015880D01*
X0187380Y0015910D01*
X0187860Y0015900D01*
X0188340Y0015850D01*
X0188820Y0015760D01*
X0189280Y0015640D01*
X0189730Y0015470D01*
X0190170Y0015270D01*
X0190590Y0015040D01*
X0190990Y0014770D01*
X0191370Y0014470D01*
X0191720Y0014140D01*
X0192040Y0013780D01*
X0192340Y0013400D01*
X0192600Y0012990D01*
X0192820Y0012560D01*
X0193020Y0012120D01*
X0193170Y0011670D01*
X0193290Y0011200D01*
X0193370Y0010720D01*
X0193410Y0010240D01*
X0193410Y0009760D01*
X0193370Y0009280D01*
X0193290Y0008800D01*
X0193170Y0008330D01*
X0193020Y0007880D01*
X0192820Y0007440D01*
X0192600Y0007010D01*
X0192340Y0006600D01*
X0192040Y0006220D01*
X0191720Y0005860D01*
X0191370Y0005530D01*
X0190990Y0005230D01*
X0190590Y0004960D01*
X0190170Y0004730D01*
X0189730Y0004530D01*
X0189280Y0004360D01*
X0188820Y0004240D01*
X0188340Y0004150D01*
X0187860Y0004100D01*
X0187380Y0004090D01*
X0186900Y0004120D01*
X0186420Y0004190D01*
X0185950Y0004300D01*
X0185490Y0004440D01*
X0185040Y0004620D01*
X0184610Y0004840D01*
X0184200Y0005090D01*
X0183820Y0005380D01*
X0183450Y0005700D01*
X0183110Y0006040D01*
X0182810Y0006410D01*
X0182530Y0006800D01*
X0182280Y0007220D01*
X0182080Y0007660D01*
X0181900Y0008110D01*
X0181770Y0008570D01*
X0181670Y0009040D01*
X0181610Y0009520D01*
X0181590Y0010000D01*
X0196850Y0000000D02*
G75*
%LPD*%
D79*
X0196850Y0000000D02*
X0196850Y0196850D01*
X0393700Y0196850D01*
X0393700Y0000000D01*
X0196850Y0000000D01*
X0200940Y0010000D02*
X0200960Y0010480D01*
X0201020Y0010960D01*
X0201120Y0011430D01*
X0201250Y0011890D01*
X0201430Y0012340D01*
X0201630Y0012780D01*
X0201880Y0013200D01*
X0202160Y0013590D01*
X0202460Y0013960D01*
X0202800Y0014300D01*
X0203170Y0014620D01*
X0203550Y0014910D01*
X0203960Y0015160D01*
X0204390Y0015380D01*
X0204840Y0015560D01*
X0205300Y0015700D01*
X0205770Y0015810D01*
X0206250Y0015880D01*
X0206730Y0015910D01*
X0207210Y0015900D01*
X0207690Y0015850D01*
X0208170Y0015760D01*
X0208630Y0015640D01*
X0209080Y0015470D01*
X0209520Y0015270D01*
X0209940Y0015040D01*
X0210340Y0014770D01*
X0210720Y0014470D01*
X0211070Y0014140D01*
X0211390Y0013780D01*
X0211690Y0013400D01*
X0211950Y0012990D01*
X0212170Y0012560D01*
X0212370Y0012120D01*
X0212520Y0011670D01*
X0212640Y0011200D01*
X0212720Y0010720D01*
X0212760Y0010240D01*
X0212760Y0009760D01*
X0212720Y0009280D01*
X0212640Y0008800D01*
X0212520Y0008330D01*
X0212370Y0007880D01*
X0212170Y0007440D01*
X0211950Y0007010D01*
X0211690Y0006600D01*
X0211390Y0006220D01*
X0211070Y0005860D01*
X0210720Y0005530D01*
X0210340Y0005230D01*
X0209940Y0004960D01*
X0209520Y0004730D01*
X0209080Y0004530D01*
X0208630Y0004360D01*
X0208170Y0004240D01*
X0207690Y0004150D01*
X0207210Y0004100D01*
X0206730Y0004090D01*
X0206250Y0004120D01*
X0205770Y0004190D01*
X0205300Y0004300D01*
X0204840Y0004440D01*
X0204390Y0004620D01*
X0203960Y0004840D01*
X0203550Y0005090D01*
X0203170Y0005380D01*
X0202800Y0005700D01*
X0202460Y0006040D01*
X0202160Y0006410D01*
X0201880Y0006800D01*
X0201630Y0007220D01*
X0201430Y0007660D01*
X0201250Y0008110D01*
X0201120Y0008570D01*
X0201020Y0009040D01*
X0200960Y0009520D01*
X0200940Y0010000D01*
X0200940Y0187500D02*
X0200960Y0187980D01*
X0201020Y0188460D01*
X0201120Y0188930D01*
X0201250Y0189390D01*
X0201430Y0189840D01*
X0201630Y0190280D01*
X0201880Y0190700D01*
X0202160Y0191090D01*
X0202460Y0191460D01*
X0202800Y0191800D01*
X0203170Y0192120D01*
X0203550Y0192410D01*
X0203960Y0192660D01*
X0204390Y0192880D01*
X0204840Y0193060D01*
X0205300Y0193200D01*
X0205770Y0193310D01*
X0206250Y0193380D01*
X0206730Y0193410D01*
X0207210Y0193400D01*
X0207690Y0193350D01*
X0208170Y0193260D01*
X0208630Y0193140D01*
X0209080Y0192970D01*
X0209520Y0192770D01*
X0209940Y0192540D01*
X0210340Y0192270D01*
X0210720Y0191970D01*
X0211070Y0191640D01*
X0211390Y0191280D01*
X0211690Y0190900D01*
X0211950Y0190490D01*
X0212170Y0190060D01*
X0212370Y0189620D01*
X0212520Y0189170D01*
X0212640Y0188700D01*
X0212720Y0188220D01*
X0212760Y0187740D01*
X0212760Y0187260D01*
X0212720Y0186780D01*
X0212640Y0186300D01*
X0212520Y0185830D01*
X0212370Y0185380D01*
X0212170Y0184940D01*
X0211950Y0184510D01*
X0211690Y0184100D01*
X0211390Y0183720D01*
X0211070Y0183360D01*
X0210720Y0183030D01*
X0210340Y0182730D01*
X0209940Y0182460D01*
X0209520Y0182230D01*
X0209080Y0182030D01*
X0208630Y0181860D01*
X0208170Y0181740D01*
X0207690Y0181650D01*
X0207210Y0181600D01*
X0206730Y0181590D01*
X0206250Y0181620D01*
X0205770Y0181690D01*
X0205300Y0181800D01*
X0204840Y0181940D01*
X0204390Y0182120D01*
X0203960Y0182340D01*
X0203550Y0182590D01*
X0203170Y0182880D01*
X0202800Y0183200D01*
X0202460Y0183540D01*
X0202160Y0183910D01*
X0201880Y0184300D01*
X0201630Y0184720D01*
X0201430Y0185160D01*
X0201250Y0185610D01*
X0201120Y0186070D01*
X0201020Y0186540D01*
X0200960Y0187020D01*
X0200940Y0187500D01*
X0378440Y0187500D02*
X0378460Y0187980D01*
X0378520Y0188460D01*
X0378620Y0188930D01*
X0378750Y0189390D01*
X0378930Y0189840D01*
X0379130Y0190280D01*
X0379380Y0190700D01*
X0379660Y0191090D01*
X0379960Y0191460D01*
X0380300Y0191800D01*
X0380670Y0192120D01*
X0381050Y0192410D01*
X0381460Y0192660D01*
X0381890Y0192880D01*
X0382340Y0193060D01*
X0382800Y0193200D01*
X0383270Y0193310D01*
X0383750Y0193380D01*
X0384230Y0193410D01*
X0384710Y0193400D01*
X0385190Y0193350D01*
X0385670Y0193260D01*
X0386130Y0193140D01*
X0386580Y0192970D01*
X0387020Y0192770D01*
X0387440Y0192540D01*
X0387840Y0192270D01*
X0388220Y0191970D01*
X0388570Y0191640D01*
X0388890Y0191280D01*
X0389190Y0190900D01*
X0389450Y0190490D01*
X0389670Y0190060D01*
X0389870Y0189620D01*
X0390020Y0189170D01*
X0390140Y0188700D01*
X0390220Y0188220D01*
X0390260Y0187740D01*
X0390260Y0187260D01*
X0390220Y0186780D01*
X0390140Y0186300D01*
X0390020Y0185830D01*
X0389870Y0185380D01*
X0389670Y0184940D01*
X0389450Y0184510D01*
X0389190Y0184100D01*
X0388890Y0183720D01*
X0388570Y0183360D01*
X0388220Y0183030D01*
X0387840Y0182730D01*
X0387440Y0182460D01*
X0387020Y0182230D01*
X0386580Y0182030D01*
X0386130Y0181860D01*
X0385670Y0181740D01*
X0385190Y0181650D01*
X0384710Y0181600D01*
X0384230Y0181590D01*
X0383750Y0181620D01*
X0383270Y0181690D01*
X0382800Y0181800D01*
X0382340Y0181940D01*
X0381890Y0182120D01*
X0381460Y0182340D01*
X0381050Y0182590D01*
X0380670Y0182880D01*
X0380300Y0183200D01*
X0379960Y0183540D01*
X0379660Y0183910D01*
X0379380Y0184300D01*
X0379130Y0184720D01*
X0378930Y0185160D01*
X0378750Y0185610D01*
X0378620Y0186070D01*
X0378520Y0186540D01*
X0378460Y0187020D01*
X0378440Y0187500D01*
X0378440Y0010000D02*
X0378460Y0010480D01*
X0378520Y0010960D01*
X0378620Y0011430D01*
X0378750Y0011890D01*
X0378930Y0012340D01*
X0379130Y0012780D01*
X0379380Y0013200D01*
X0379660Y0013590D01*
X0379960Y0013960D01*
X0380300Y0014300D01*
X0380670Y0014620D01*
X0381050Y0014910D01*
X0381460Y0015160D01*
X0381890Y0015380D01*
X0382340Y0015560D01*
X0382800Y0015700D01*
X0383270Y0015810D01*
X0383750Y0015880D01*
X0384230Y0015910D01*
X0384710Y0015900D01*
X0385190Y0015850D01*
X0385670Y0015760D01*
X0386130Y0015640D01*
X0386580Y0015470D01*
X0387020Y0015270D01*
X0387440Y0015040D01*
X0387840Y0014770D01*
X0388220Y0014470D01*
X0388570Y0014140D01*
X0388890Y0013780D01*
X0389190Y0013400D01*
X0389450Y0012990D01*
X0389670Y0012560D01*
X0389870Y0012120D01*
X0390020Y0011670D01*
X0390140Y0011200D01*
X0390220Y0010720D01*
X0390260Y0010240D01*
X0390260Y0009760D01*
X0390220Y0009280D01*
X0390140Y0008800D01*
X0390020Y0008330D01*
X0389870Y0007880D01*
X0389670Y0007440D01*
X0389450Y0007010D01*
X0389190Y0006600D01*
X0388890Y0006220D01*
X0388570Y0005860D01*
X0388220Y0005530D01*
X0387840Y0005230D01*
X0387440Y0004960D01*
X0387020Y0004730D01*
X0386580Y0004530D01*
X0386130Y0004360D01*
X0385670Y0004240D01*
X0385190Y0004150D01*
X0384710Y0004100D01*
X0384230Y0004090D01*
X0383750Y0004120D01*
X0383270Y0004190D01*
X0382800Y0004300D01*
X0382340Y0004440D01*
X0381890Y0004620D01*
X0381460Y0004840D01*
X0381050Y0005090D01*
X0380670Y0005380D01*
X0380300Y0005700D01*
X0379960Y0006040D01*
X0379660Y0006410D01*
X0379380Y0006800D01*
X0379130Y0007220D01*
X0378930Y0007660D01*
X0378750Y0008110D01*
X0378620Y0008570D01*
X0378520Y0009040D01*
X0378460Y0009520D01*
X0378440Y0010000D01*
D33*
X0393100Y0001250D02*
X0393100Y0196250D01*
X0198100Y0196250D01*
X0198100Y0001250D01*
X0393100Y0001250D01*
X0294350Y0072500D02*
X0286850Y0072500D01*
X0286850Y0067500D01*
X0284350Y0065000D01*
X0221850Y0065000D01*
X0219350Y0067500D01*
X0219350Y0077500D01*
X0221850Y0080000D01*
X0284350Y0080000D01*
X0286850Y0077500D01*
X0286850Y0072500D01*
X0231850Y0060000D02*
X0231850Y0055000D01*
X0224350Y0047500D01*
X0216850Y0047500D01*
X0214350Y0050000D01*
X0211850Y0047500D01*
X0214350Y0047500D01*
X0214350Y0050000D02*
X0214350Y0060000D01*
X0216850Y0062500D01*
X0229350Y0062500D01*
X0231850Y0060000D01*
X0211850Y0050000D02*
X0211850Y0047500D01*
D79*
X0219050Y0066450D02*
X0218280Y0067220D01*
X0221350Y0070290D01*
X0221350Y0067220D01*
X0220590Y0066450D01*
X0219050Y0066450D01*
X0218280Y0067220D02*
X0218280Y0070290D01*
X0219050Y0071050D01*
X0220590Y0071050D01*
X0221350Y0070290D01*
X0220590Y0073950D02*
X0217520Y0073950D01*
X0219050Y0073950D02*
X0219050Y0078550D01*
X0217520Y0077020D01*
X0225310Y0085990D02*
X0226080Y0085990D01*
X0226840Y0086760D01*
X0226840Y0088290D01*
X0227610Y0089060D01*
X0228380Y0089060D01*
X0229150Y0088290D01*
X0229150Y0086760D01*
X0228380Y0085990D01*
X0225310Y0085990D02*
X0224540Y0086760D01*
X0224540Y0088290D01*
X0225310Y0089060D01*
X0226840Y0090600D02*
X0226840Y0093670D01*
X0224540Y0092900D02*
X0226840Y0090600D01*
X0229150Y0092900D02*
X0224540Y0092900D01*
X0219150Y0092630D02*
X0216080Y0092630D01*
X0216080Y0094160D02*
X0216080Y0094930D01*
X0216080Y0094160D02*
X0217610Y0092630D01*
X0216840Y0091090D02*
X0215310Y0091090D01*
X0214540Y0090320D01*
X0214540Y0088020D01*
X0219150Y0088020D01*
X0217610Y0088020D02*
X0217610Y0090320D01*
X0216840Y0091090D01*
X0211650Y0090320D02*
X0211650Y0088020D01*
X0207040Y0088020D01*
X0207040Y0090320D01*
X0207810Y0091090D01*
X0208580Y0091090D01*
X0209340Y0090320D01*
X0209340Y0088020D01*
X0209340Y0090320D02*
X0210110Y0091090D01*
X0210880Y0091090D01*
X0211650Y0090320D01*
X0210880Y0092630D02*
X0209340Y0092630D01*
X0208580Y0093390D01*
X0208580Y0094930D01*
X0209340Y0095700D01*
X0210110Y0095700D01*
X0210110Y0092630D01*
X0210880Y0092630D02*
X0211650Y0093390D01*
X0211650Y0094930D01*
X0211650Y0097230D02*
X0208580Y0097230D01*
X0208580Y0099530D01*
X0209340Y0100300D01*
X0211650Y0100300D01*
X0213770Y0102600D02*
X0214540Y0102600D01*
X0216080Y0102600D02*
X0219910Y0102600D01*
X0220680Y0101830D01*
X0220680Y0101070D01*
X0218380Y0099530D02*
X0216840Y0099530D01*
X0216080Y0098760D01*
X0216080Y0097230D01*
X0216840Y0096460D01*
X0218380Y0096460D01*
X0219150Y0097230D01*
X0219150Y0098760D01*
X0218380Y0099530D01*
X0218380Y0104140D02*
X0216840Y0104140D01*
X0216080Y0104900D01*
X0216080Y0106440D01*
X0216840Y0107210D01*
X0217610Y0107210D01*
X0217610Y0104140D01*
X0218380Y0104140D02*
X0219150Y0104900D01*
X0219150Y0106440D01*
X0218380Y0108740D02*
X0216840Y0108740D01*
X0216080Y0109510D01*
X0216080Y0111810D01*
X0216080Y0113340D02*
X0216080Y0114880D01*
X0215310Y0114110D02*
X0218380Y0114110D01*
X0219150Y0114880D01*
X0219150Y0116410D02*
X0218380Y0116410D01*
X0218380Y0117180D01*
X0219150Y0117180D01*
X0219150Y0116410D01*
X0216840Y0116410D02*
X0216080Y0116410D01*
X0216080Y0117180D01*
X0216840Y0117180D01*
X0216840Y0116410D01*
X0219150Y0111810D02*
X0219150Y0109510D01*
X0218380Y0108740D01*
X0211650Y0107970D02*
X0210110Y0109510D01*
X0207040Y0109510D01*
X0207040Y0106440D02*
X0210110Y0106440D01*
X0211650Y0107970D01*
X0211650Y0111040D02*
X0211650Y0111810D01*
X0210880Y0111810D01*
X0210880Y0111040D01*
X0211650Y0111040D01*
X0211650Y0117950D02*
X0207040Y0117950D01*
X0207040Y0120250D01*
X0207810Y0121020D01*
X0208580Y0121020D01*
X0209340Y0120250D01*
X0209340Y0117950D01*
X0209340Y0120250D02*
X0210110Y0121020D01*
X0210880Y0121020D01*
X0211650Y0120250D01*
X0211650Y0117950D01*
X0211650Y0122550D02*
X0208580Y0122550D01*
X0210110Y0122550D02*
X0208580Y0124090D01*
X0208580Y0124850D01*
X0209340Y0126390D02*
X0210880Y0126390D01*
X0211650Y0127160D01*
X0211650Y0128690D01*
X0210880Y0129460D01*
X0209340Y0129460D01*
X0208580Y0128690D01*
X0208580Y0127160D01*
X0209340Y0126390D01*
X0208580Y0130990D02*
X0210880Y0130990D01*
X0211650Y0131760D01*
X0210880Y0132530D01*
X0211650Y0133290D01*
X0210880Y0134060D01*
X0208580Y0134060D01*
X0208580Y0135600D02*
X0208580Y0137900D01*
X0209340Y0138670D01*
X0211650Y0138670D01*
X0211650Y0135600D02*
X0208580Y0135600D01*
X0215310Y0133290D02*
X0218380Y0133290D01*
X0219150Y0134060D01*
X0218380Y0135600D02*
X0217610Y0136360D01*
X0217610Y0138670D01*
X0216840Y0138670D02*
X0219150Y0138670D01*
X0219150Y0136360D01*
X0218380Y0135600D01*
X0216080Y0136360D02*
X0216080Y0137900D01*
X0216840Y0138670D01*
X0216080Y0134060D02*
X0216080Y0132530D01*
X0216840Y0130990D02*
X0217610Y0130990D01*
X0217610Y0127920D01*
X0216840Y0127920D02*
X0216080Y0128690D01*
X0216080Y0130220D01*
X0216840Y0130990D01*
X0219150Y0130220D02*
X0219150Y0128690D01*
X0218380Y0127920D01*
X0216840Y0127920D01*
X0215310Y0126390D02*
X0218380Y0123320D01*
X0219150Y0123320D01*
X0219150Y0126390D01*
X0215310Y0126390D02*
X0214540Y0126390D01*
X0214540Y0123320D01*
X0234540Y0093670D02*
X0234540Y0090600D01*
X0236840Y0090600D01*
X0236080Y0092130D01*
X0236080Y0092900D01*
X0236840Y0093670D01*
X0238380Y0093670D01*
X0239150Y0092900D01*
X0239150Y0091360D01*
X0238380Y0090600D01*
X0238380Y0089060D02*
X0239150Y0088290D01*
X0239150Y0086760D01*
X0238380Y0085990D01*
X0236840Y0086760D02*
X0236840Y0088290D01*
X0237610Y0089060D01*
X0238380Y0089060D01*
X0236840Y0086760D02*
X0236080Y0085990D01*
X0235310Y0085990D01*
X0234540Y0086760D01*
X0234540Y0088290D01*
X0235310Y0089060D01*
X0244540Y0088290D02*
X0244540Y0086760D01*
X0245310Y0085990D01*
X0246080Y0085990D01*
X0246840Y0086760D01*
X0246840Y0088290D01*
X0247610Y0089060D01*
X0248380Y0089060D01*
X0249150Y0088290D01*
X0249150Y0086760D01*
X0248380Y0085990D01*
X0245310Y0089060D02*
X0244540Y0088290D01*
X0246840Y0090600D02*
X0246840Y0092900D01*
X0247610Y0093670D01*
X0248380Y0093670D01*
X0249150Y0092900D01*
X0249150Y0091360D01*
X0248380Y0090600D01*
X0246840Y0090600D01*
X0245310Y0092130D01*
X0244540Y0093670D01*
X0254540Y0093670D02*
X0254540Y0090600D01*
X0255310Y0089060D02*
X0254540Y0088290D01*
X0254540Y0086760D01*
X0255310Y0085990D01*
X0256080Y0085990D01*
X0256840Y0086760D01*
X0256840Y0088290D01*
X0257610Y0089060D01*
X0258380Y0089060D01*
X0259150Y0088290D01*
X0259150Y0086760D01*
X0258380Y0085990D01*
X0258380Y0090600D02*
X0259150Y0090600D01*
X0258380Y0090600D02*
X0255310Y0093670D01*
X0254540Y0093670D01*
X0255110Y0078550D02*
X0254350Y0077790D01*
X0254350Y0077020D01*
X0255110Y0076250D01*
X0256650Y0076250D01*
X0257420Y0075480D01*
X0257420Y0074720D01*
X0256650Y0073950D01*
X0255110Y0073950D01*
X0254350Y0074720D01*
X0255110Y0071050D02*
X0256650Y0071050D01*
X0255880Y0071050D02*
X0255880Y0066450D01*
X0255110Y0066450D02*
X0256650Y0066450D01*
X0262790Y0067220D02*
X0263560Y0066450D01*
X0265090Y0066450D01*
X0265860Y0067220D01*
X0265860Y0068750D01*
X0264320Y0068750D01*
X0262790Y0067220D02*
X0262790Y0070290D01*
X0263560Y0071050D01*
X0265090Y0071050D01*
X0265860Y0070290D01*
X0266620Y0073950D02*
X0265090Y0075480D01*
X0265860Y0075480D02*
X0263560Y0075480D01*
X0263560Y0073950D02*
X0263560Y0078550D01*
X0265860Y0078550D01*
X0266620Y0077790D01*
X0266620Y0076250D01*
X0265860Y0075480D01*
X0272760Y0073950D02*
X0274300Y0075480D01*
X0275830Y0073950D01*
X0275830Y0078550D01*
X0272760Y0078550D02*
X0272760Y0073950D01*
X0272760Y0071050D02*
X0272000Y0070290D01*
X0272000Y0067220D01*
X0272760Y0066450D01*
X0274300Y0066450D01*
X0275070Y0067220D01*
X0275070Y0068750D01*
X0273530Y0068750D01*
X0275070Y0070290D02*
X0274300Y0071050D01*
X0272760Y0071050D01*
X0281200Y0071050D02*
X0281200Y0067980D01*
X0282740Y0066450D01*
X0284270Y0067980D01*
X0284270Y0071050D01*
X0283510Y0073950D02*
X0285040Y0075480D01*
X0285040Y0078550D01*
X0281970Y0078550D02*
X0281970Y0075480D01*
X0283510Y0073950D01*
X0257420Y0077790D02*
X0256650Y0078550D01*
X0255110Y0078550D01*
X0248210Y0078550D02*
X0248210Y0077790D01*
X0245140Y0074720D01*
X0245140Y0073950D01*
X0247440Y0070290D02*
X0248980Y0071050D01*
X0247440Y0070290D02*
X0245910Y0068750D01*
X0248210Y0068750D01*
X0248980Y0067980D01*
X0248980Y0067220D01*
X0248210Y0066450D01*
X0246670Y0066450D01*
X0245910Y0067220D01*
X0245910Y0068750D01*
X0239770Y0068750D02*
X0236700Y0068750D01*
X0239000Y0071050D01*
X0239000Y0066450D01*
X0238230Y0073950D02*
X0236700Y0073950D01*
X0235930Y0074720D01*
X0235930Y0076250D02*
X0237470Y0077020D01*
X0238230Y0077020D01*
X0239000Y0076250D01*
X0239000Y0074720D01*
X0238230Y0073950D01*
X0235930Y0076250D02*
X0235930Y0078550D01*
X0239000Y0078550D01*
X0245140Y0078550D02*
X0248210Y0078550D01*
X0229790Y0077790D02*
X0229790Y0077020D01*
X0229030Y0076250D01*
X0229790Y0075480D01*
X0229790Y0074720D01*
X0229030Y0073950D01*
X0227490Y0073950D01*
X0226720Y0074720D01*
X0228260Y0076250D02*
X0229030Y0076250D01*
X0229790Y0077790D02*
X0229030Y0078550D01*
X0227490Y0078550D01*
X0226720Y0077790D01*
X0228260Y0071050D02*
X0227490Y0070290D01*
X0228260Y0071050D02*
X0229790Y0071050D01*
X0230560Y0070290D01*
X0230560Y0069520D01*
X0227490Y0066450D01*
X0230560Y0066450D01*
X0267040Y0172240D02*
X0267040Y0174540D01*
X0267810Y0175310D01*
X0270880Y0175310D01*
X0271650Y0174540D01*
X0271650Y0172240D01*
X0267040Y0172240D01*
X0267810Y0176850D02*
X0267040Y0177610D01*
X0267040Y0179150D01*
X0267810Y0179920D01*
X0270880Y0176850D01*
X0271650Y0177610D01*
X0271650Y0179150D01*
X0270880Y0179920D01*
X0267810Y0179920D01*
X0267810Y0176850D02*
X0270880Y0176850D01*
X0277040Y0178380D02*
X0281650Y0178380D01*
X0281650Y0176850D02*
X0281650Y0179920D01*
X0278580Y0176850D02*
X0277040Y0178380D01*
X0277810Y0175310D02*
X0277040Y0174540D01*
X0277040Y0172240D01*
X0281650Y0172240D01*
X0281650Y0174540D01*
X0280880Y0175310D01*
X0277810Y0175310D01*
X0287040Y0174540D02*
X0287040Y0172240D01*
X0291650Y0172240D01*
X0291650Y0174540D01*
X0290880Y0175310D01*
X0287810Y0175310D01*
X0287040Y0174540D01*
X0287810Y0176850D02*
X0287040Y0177610D01*
X0287040Y0179150D01*
X0287810Y0179920D01*
X0288580Y0179920D01*
X0291650Y0176850D01*
X0291650Y0179920D01*
X0297040Y0179150D02*
X0297040Y0177610D01*
X0297810Y0176850D01*
X0297810Y0175310D02*
X0297040Y0174540D01*
X0297040Y0172240D01*
X0301650Y0172240D01*
X0301650Y0174540D01*
X0300880Y0175310D01*
X0297810Y0175310D01*
X0300880Y0176850D02*
X0301650Y0177610D01*
X0301650Y0179150D01*
X0300880Y0179920D01*
X0300110Y0179920D01*
X0299340Y0179150D01*
X0299340Y0178380D01*
X0299340Y0179150D02*
X0298580Y0179920D01*
X0297810Y0179920D01*
X0297040Y0179150D01*
X0307040Y0179150D02*
X0309340Y0176850D01*
X0309340Y0179920D01*
X0307040Y0179150D02*
X0311650Y0179150D01*
X0310880Y0175310D02*
X0307810Y0175310D01*
X0307040Y0174540D01*
X0307040Y0172240D01*
X0311650Y0172240D01*
X0311650Y0174540D01*
X0310880Y0175310D01*
X0317040Y0174540D02*
X0317040Y0172240D01*
X0321650Y0172240D01*
X0321650Y0174540D01*
X0320880Y0175310D01*
X0317810Y0175310D01*
X0317040Y0174540D01*
X0317040Y0176850D02*
X0319340Y0176850D01*
X0318580Y0178380D01*
X0318580Y0179150D01*
X0319340Y0179920D01*
X0320880Y0179920D01*
X0321650Y0179150D01*
X0321650Y0177610D01*
X0320880Y0176850D01*
X0317040Y0176850D02*
X0317040Y0179920D01*
X0327040Y0179920D02*
X0327810Y0178380D01*
X0329340Y0176850D01*
X0329340Y0179150D01*
X0330110Y0179920D01*
X0330880Y0179920D01*
X0331650Y0179150D01*
X0331650Y0177610D01*
X0330880Y0176850D01*
X0329340Y0176850D01*
X0327810Y0175310D02*
X0327040Y0174540D01*
X0327040Y0172240D01*
X0331650Y0172240D01*
X0331650Y0174540D01*
X0330880Y0175310D01*
X0327810Y0175310D01*
X0337040Y0174540D02*
X0337040Y0172240D01*
X0341650Y0172240D01*
X0341650Y0174540D01*
X0340880Y0175310D01*
X0337810Y0175310D01*
X0337040Y0174540D01*
X0337040Y0176850D02*
X0337040Y0179920D01*
X0337810Y0179920D01*
X0340880Y0176850D01*
X0341650Y0176850D01*
X0347040Y0176850D02*
X0347040Y0179150D01*
X0347810Y0179920D01*
X0349340Y0179920D01*
X0350110Y0179150D01*
X0350110Y0176850D01*
X0350110Y0178380D02*
X0351650Y0179920D01*
X0351650Y0176850D02*
X0347040Y0176850D01*
X0347040Y0175310D02*
X0351650Y0175310D01*
X0350110Y0173780D01*
X0351650Y0172240D01*
X0347040Y0172240D01*
X0357040Y0172240D02*
X0357040Y0174540D01*
X0357810Y0175310D01*
X0359340Y0175310D01*
X0360110Y0174540D01*
X0360110Y0172240D01*
X0361650Y0172240D02*
X0357040Y0172240D01*
X0360110Y0173780D02*
X0361650Y0175310D01*
X0361650Y0176850D02*
X0361650Y0179150D01*
X0360880Y0179920D01*
X0357810Y0179920D01*
X0357040Y0179150D01*
X0357040Y0176850D01*
X0361650Y0176850D01*
D79*
X0378230Y0133240D02*
X0378230Y0130770D01*
X0377000Y0132000D02*
X0379460Y0132000D01*
X0378230Y0103240D02*
X0378230Y0100770D01*
X0377000Y0102000D02*
X0379460Y0102000D01*
X0378230Y0073240D02*
X0378230Y0070770D01*
X0377000Y0072000D02*
X0379460Y0072000D01*
X0378230Y0043240D02*
X0378230Y0040770D01*
X0377000Y0042000D02*
X0379460Y0042000D01*
X0254460Y0094500D02*
X0252000Y0094500D01*
X0253230Y0093270D02*
X0253230Y0095740D01*
X0244460Y0094500D02*
X0242000Y0094500D01*
X0243230Y0093270D02*
X0243230Y0095740D01*
X0234460Y0094500D02*
X0232000Y0094500D01*
X0233230Y0093270D02*
X0233230Y0095740D01*
X0224460Y0094500D02*
X0222000Y0094500D01*
X0223230Y0093270D02*
X0223230Y0095740D01*
X0224360Y0061390D02*
X0225600Y0061390D01*
X0224980Y0061390D02*
X0224980Y0057690D01*
X0224360Y0057690D02*
X0225600Y0057690D01*
X0228050Y0057690D02*
X0228050Y0061390D01*
X0226820Y0061390D02*
X0229290Y0061390D01*
X0223150Y0060160D02*
X0223150Y0057690D01*
X0223150Y0059540D02*
X0220680Y0059540D01*
X0220680Y0060160D02*
X0221910Y0061390D01*
X0223150Y0060160D01*
X0220680Y0060160D02*
X0220680Y0057690D01*
X0219460Y0057690D02*
X0219460Y0061390D01*
X0217000Y0061390D02*
X0217000Y0057690D01*
X0218230Y0058920D01*
X0219460Y0057690D01*
X0219460Y0052310D02*
X0218230Y0051080D01*
X0217000Y0052310D01*
X0217000Y0048610D01*
X0219460Y0048610D02*
X0219460Y0052310D01*
X0220680Y0051080D02*
X0221910Y0052310D01*
X0221910Y0048610D01*
X0220680Y0048610D02*
X0223150Y0048610D01*
X0220800Y0143610D02*
X0220800Y0147310D01*
X0222030Y0147310D02*
X0219560Y0147310D01*
X0215880Y0147310D02*
X0215880Y0143610D01*
X0218350Y0143610D01*
X0214660Y0143610D02*
X0214660Y0146080D01*
X0213430Y0147310D01*
X0212200Y0146080D01*
X0212200Y0143610D01*
X0210980Y0143610D02*
X0210980Y0147310D01*
X0210980Y0145460D02*
X0208510Y0145460D01*
X0208510Y0143610D02*
X0208510Y0147310D01*
X0212200Y0145460D02*
X0214660Y0145460D01*
X0214660Y0152690D02*
X0213420Y0152690D01*
X0214040Y0152690D02*
X0214040Y0156390D01*
X0213420Y0156390D02*
X0214660Y0156390D01*
X0215880Y0156390D02*
X0218350Y0152690D01*
X0218350Y0156390D01*
X0219560Y0156390D02*
X0222030Y0156390D01*
X0220800Y0156390D02*
X0220800Y0152690D01*
X0215880Y0152690D02*
X0215880Y0156390D01*
D44*
X0211850Y0157500D02*
X0209350Y0160000D01*
X0209350Y0175000D01*
X0211850Y0177500D01*
X0221850Y0177500D01*
X0224350Y0175000D01*
X0224350Y0157500D01*
X0211850Y0157500D01*
X0206850Y0152500D01*
X0206850Y0142500D01*
X0224350Y0142500D01*
X0224350Y0157500D01*
D79*
X0236680Y0164200D02*
X0236680Y0125410D01*
X0236680Y0125400D02*
X0236730Y0125200D01*
X0236810Y0125010D01*
X0236920Y0124830D01*
X0237050Y0124670D01*
X0237210Y0124540D01*
X0237380Y0124430D01*
X0237570Y0124350D01*
X0237770Y0124300D01*
X0237980Y0124280D01*
X0238190Y0124290D01*
X0238180Y0124300D02*
X0250510Y0124300D01*
X0250740Y0124320D01*
X0250970Y0124370D01*
X0251190Y0124460D01*
X0251390Y0124590D01*
X0251570Y0124740D01*
X0251720Y0124920D01*
X0251850Y0125120D01*
X0251940Y0125340D01*
X0251990Y0125570D01*
X0252010Y0125800D01*
X0252010Y0164200D01*
X0251960Y0164440D01*
X0251880Y0164670D01*
X0251770Y0164880D01*
X0251630Y0165080D01*
X0251460Y0165260D01*
X0251270Y0165410D01*
X0251060Y0165540D01*
X0250840Y0165630D01*
X0250600Y0165690D01*
X0250360Y0165710D01*
X0250110Y0165700D01*
X0250060Y0165700D02*
X0246750Y0165700D01*
X0246750Y0165500D02*
X0246730Y0165200D01*
X0246680Y0164900D01*
X0246590Y0164610D01*
X0246460Y0164340D01*
X0246310Y0164080D01*
X0246120Y0163840D01*
X0245910Y0163630D01*
X0245670Y0163440D01*
X0245410Y0163290D01*
X0245140Y0163160D01*
X0244850Y0163070D01*
X0244550Y0163020D01*
X0244250Y0163000D01*
X0243950Y0163020D01*
X0243650Y0163070D01*
X0243360Y0163160D01*
X0243090Y0163290D01*
X0242830Y0163440D01*
X0242590Y0163630D01*
X0242380Y0163840D01*
X0242190Y0164080D01*
X0242040Y0164340D01*
X0241910Y0164610D01*
X0241820Y0164900D01*
X0241770Y0165200D01*
X0241750Y0165500D01*
X0241750Y0165700D02*
X0237790Y0165700D01*
X0237790Y0165710D02*
X0237590Y0165660D01*
X0237400Y0165580D01*
X0237220Y0165470D01*
X0237060Y0165340D01*
X0236930Y0165180D01*
X0236820Y0165010D01*
X0236740Y0164820D01*
X0236690Y0164620D01*
X0236670Y0164410D01*
X0236680Y0164200D01*
X0234350Y0182500D02*
X0229350Y0182500D01*
X0226850Y0185000D01*
X0224350Y0182500D01*
X0219350Y0182500D01*
X0216850Y0185000D01*
X0216850Y0190000D01*
X0219350Y0192500D01*
X0224350Y0192500D01*
X0226850Y0190000D01*
X0229350Y0192500D01*
X0234350Y0192500D01*
X0236850Y0190000D01*
X0239350Y0192500D01*
X0244350Y0192500D01*
X0246850Y0190000D01*
X0249350Y0192500D01*
X0254350Y0192500D01*
X0256850Y0190000D01*
X0259350Y0192500D01*
X0264350Y0192500D01*
X0266850Y0190000D01*
X0269350Y0192500D01*
X0274350Y0192500D01*
X0276850Y0190000D01*
X0279350Y0192500D01*
X0284350Y0192500D01*
X0286850Y0190000D01*
X0289350Y0192500D01*
X0294350Y0192500D01*
X0296850Y0190000D01*
X0299350Y0192500D01*
X0304350Y0192500D01*
X0306850Y0190000D01*
X0309350Y0192500D01*
X0314350Y0192500D01*
X0316850Y0190000D01*
X0319350Y0192500D01*
X0324350Y0192500D01*
X0326850Y0190000D01*
X0329350Y0192500D01*
X0334350Y0192500D01*
X0336850Y0190000D01*
X0339350Y0192500D01*
X0344350Y0192500D01*
X0346850Y0190000D01*
X0349350Y0192500D01*
X0354350Y0192500D01*
X0356850Y0190000D01*
X0359350Y0192500D01*
X0364350Y0192500D01*
X0366850Y0190000D01*
X0369350Y0192500D01*
X0374350Y0192500D01*
X0376850Y0190000D01*
X0376850Y0185000D01*
X0374350Y0182500D01*
X0369350Y0182500D01*
X0366850Y0185000D01*
X0364350Y0182500D01*
X0359350Y0182500D01*
X0356850Y0185000D01*
X0354350Y0182500D01*
X0349350Y0182500D01*
X0346850Y0185000D01*
X0344350Y0182500D01*
X0339350Y0182500D01*
X0336850Y0185000D01*
X0334350Y0182500D01*
X0329350Y0182500D01*
X0326850Y0185000D01*
X0324350Y0182500D01*
X0319350Y0182500D01*
X0316850Y0185000D01*
X0314350Y0182500D01*
X0309350Y0182500D01*
X0306850Y0185000D01*
X0304350Y0182500D01*
X0299350Y0182500D01*
X0296850Y0185000D01*
X0294350Y0182500D01*
X0289350Y0182500D01*
X0286850Y0185000D01*
X0284350Y0182500D01*
X0279350Y0182500D01*
X0276850Y0185000D01*
X0274350Y0182500D01*
X0269350Y0182500D01*
X0266850Y0185000D01*
X0264350Y0182500D01*
X0259350Y0182500D01*
X0256850Y0185000D01*
X0254350Y0182500D01*
X0249350Y0182500D01*
X0246850Y0185000D01*
X0244350Y0182500D01*
X0239350Y0182500D01*
X0236850Y0185000D01*
X0234350Y0182500D01*
X0216850Y0185000D02*
X0216850Y0190000D01*
X0205810Y0177500D02*
X0200810Y0177500D01*
X0198310Y0175000D01*
X0198310Y0170000D01*
X0200810Y0167500D01*
X0198310Y0165000D01*
X0198310Y0160000D01*
X0200810Y0157500D01*
X0205810Y0157500D01*
X0208310Y0160000D01*
X0208310Y0165000D01*
X0205810Y0167500D01*
X0208310Y0170000D01*
X0208310Y0175000D01*
X0205810Y0177500D01*
X0264350Y0167500D02*
X0264350Y0162500D01*
X0266850Y0160000D01*
X0271850Y0160000D01*
X0274350Y0162500D01*
X0276850Y0160000D01*
X0281850Y0160000D01*
X0284350Y0162500D01*
X0286850Y0160000D01*
X0291850Y0160000D01*
X0294350Y0162500D01*
X0296850Y0160000D01*
X0301850Y0160000D01*
X0304350Y0162500D01*
X0306850Y0160000D01*
X0311850Y0160000D01*
X0314350Y0162500D01*
X0316850Y0160000D01*
X0321850Y0160000D01*
X0324350Y0162500D01*
X0326850Y0160000D01*
X0331850Y0160000D01*
X0334350Y0162500D01*
X0336850Y0160000D01*
X0341850Y0160000D01*
X0344350Y0162500D01*
X0346850Y0160000D01*
X0351850Y0160000D01*
X0354350Y0162500D01*
X0356850Y0160000D01*
X0361850Y0160000D01*
X0364350Y0162500D01*
X0364350Y0167500D01*
X0361850Y0170000D01*
X0356850Y0170000D01*
X0354350Y0167500D01*
X0351850Y0170000D01*
X0346850Y0170000D01*
X0344350Y0167500D01*
X0341850Y0170000D01*
X0336850Y0170000D01*
X0334350Y0167500D01*
X0331850Y0170000D01*
X0326850Y0170000D01*
X0324350Y0167500D01*
X0321850Y0170000D01*
X0316850Y0170000D01*
X0314350Y0167500D01*
X0311850Y0170000D01*
X0306850Y0170000D01*
X0304350Y0167500D01*
X0301850Y0170000D01*
X0296850Y0170000D01*
X0294350Y0167500D01*
X0291850Y0170000D01*
X0286850Y0170000D01*
X0284350Y0167500D01*
X0281850Y0170000D01*
X0276850Y0170000D01*
X0274350Y0167500D01*
X0271850Y0170000D01*
X0266850Y0170000D01*
X0264350Y0167500D01*
X0259350Y0120000D02*
X0254350Y0120000D01*
X0251850Y0117500D01*
X0249350Y0120000D01*
X0244350Y0120000D01*
X0241850Y0117500D01*
X0239350Y0120000D01*
X0234350Y0120000D01*
X0231850Y0117500D01*
X0229350Y0120000D01*
X0224350Y0120000D01*
X0221850Y0117500D01*
X0221850Y0112500D01*
X0224350Y0110000D01*
X0229350Y0110000D01*
X0231850Y0112500D01*
X0234350Y0110000D01*
X0239350Y0110000D01*
X0241850Y0112500D01*
X0244350Y0110000D01*
X0249350Y0110000D01*
X0251850Y0112500D01*
X0254350Y0110000D01*
X0259350Y0110000D01*
X0261850Y0112500D01*
X0261850Y0117500D01*
X0259350Y0120000D01*
X0213070Y0083390D02*
X0213070Y0078660D01*
X0207550Y0078660D01*
X0207550Y0061340D01*
X0213070Y0061340D01*
X0213070Y0056610D01*
X0206770Y0056610D01*
X0206770Y0083390D02*
X0213070Y0083390D01*
X0208010Y0036340D02*
X0204470Y0036340D01*
X0200940Y0032800D01*
X0200940Y0029270D01*
X0204470Y0025730D01*
X0208010Y0025730D01*
X0208010Y0022200D01*
X0211540Y0018660D01*
X0215080Y0018660D01*
X0218610Y0022200D01*
X0218610Y0025730D01*
X0215080Y0029270D01*
X0211540Y0029270D01*
X0211540Y0032800D01*
X0208010Y0036340D01*
X0219350Y0015000D02*
X0216850Y0012500D01*
X0216850Y0007500D01*
X0219350Y0005000D01*
X0224350Y0005000D01*
X0226850Y0007500D01*
X0229350Y0005000D01*
X0234350Y0005000D01*
X0236850Y0007500D01*
X0239350Y0005000D01*
X0244350Y0005000D01*
X0246850Y0007500D01*
X0249350Y0005000D01*
X0254350Y0005000D01*
X0256850Y0007500D01*
X0259350Y0005000D01*
X0264350Y0005000D01*
X0266850Y0007500D01*
X0269350Y0005000D01*
X0274350Y0005000D01*
X0276850Y0007500D01*
X0279350Y0005000D01*
X0284350Y0005000D01*
X0286850Y0007500D01*
X0289350Y0005000D01*
X0294350Y0005000D01*
X0296850Y0007500D01*
X0299350Y0005000D01*
X0304350Y0005000D01*
X0306850Y0007500D01*
X0309350Y0005000D01*
X0314350Y0005000D01*
X0316850Y0007500D01*
X0319350Y0005000D01*
X0324350Y0005000D01*
X0326850Y0007500D01*
X0329350Y0005000D01*
X0334350Y0005000D01*
X0336850Y0007500D01*
X0339350Y0005000D01*
X0344350Y0005000D01*
X0346850Y0007500D01*
X0349350Y0005000D01*
X0354350Y0005000D01*
X0356850Y0007500D01*
X0359350Y0005000D01*
X0364350Y0005000D01*
X0366850Y0007500D01*
X0369350Y0005000D01*
X0374350Y0005000D01*
X0376850Y0007500D01*
X0376850Y0012500D01*
X0374350Y0015000D01*
X0369350Y0015000D01*
X0366850Y0012500D01*
X0364350Y0015000D01*
X0359350Y0015000D01*
X0356850Y0012500D01*
X0354350Y0015000D01*
X0349350Y0015000D01*
X0346850Y0012500D01*
X0344350Y0015000D01*
X0339350Y0015000D01*
X0336850Y0012500D01*
X0334350Y0015000D01*
X0329350Y0015000D01*
X0326850Y0012500D01*
X0324350Y0015000D01*
X0319350Y0015000D01*
X0316850Y0012500D01*
X0314350Y0015000D01*
X0309350Y0015000D01*
X0306850Y0012500D01*
X0304350Y0015000D01*
X0299350Y0015000D01*
X0296850Y0012500D01*
X0294350Y0015000D01*
X0289350Y0015000D01*
X0286850Y0012500D01*
X0284350Y0015000D01*
X0279350Y0015000D01*
X0276850Y0012500D01*
X0274350Y0015000D01*
X0269350Y0015000D01*
X0266850Y0012500D01*
X0264350Y0015000D01*
X0259350Y0015000D01*
X0256850Y0012500D01*
X0254350Y0015000D01*
X0249350Y0015000D01*
X0246850Y0012500D01*
X0244350Y0015000D01*
X0239350Y0015000D01*
X0236850Y0012500D01*
X0234350Y0015000D01*
X0229350Y0015000D01*
X0226850Y0012500D01*
X0224350Y0015000D01*
X0219350Y0015000D01*
X0216850Y0012500D02*
X0216850Y0007500D01*
X0373310Y0022500D02*
X0373310Y0026040D01*
X0376850Y0029570D01*
X0380380Y0029570D01*
X0380380Y0033110D01*
X0383920Y0036640D01*
X0387450Y0036640D01*
X0390990Y0033110D01*
X0390990Y0029570D01*
X0387450Y0026040D01*
X0383920Y0026040D01*
X0383920Y0022500D01*
X0380380Y0018960D01*
X0376850Y0018960D01*
X0373310Y0022500D01*
X0376850Y0012500D02*
X0376850Y0007500D01*
X0384650Y0157200D02*
X0382150Y0159700D01*
X0382150Y0164700D01*
X0384650Y0167200D01*
X0382150Y0169700D01*
X0382150Y0174700D01*
X0384650Y0177200D01*
X0389650Y0177200D01*
X0392150Y0174700D01*
X0392150Y0169700D01*
X0389650Y0167200D01*
X0392150Y0164700D01*
X0392150Y0159700D01*
X0389650Y0157200D01*
X0384650Y0157200D01*
X0376850Y0185000D02*
X0376850Y0190000D01*
D79*
X0371850Y0150000D02*
X0366850Y0150000D01*
X0364350Y0147500D01*
X0364350Y0132500D01*
X0361850Y0130000D01*
X0356850Y0130000D01*
X0354350Y0132500D01*
X0354350Y0147500D01*
X0356850Y0150000D01*
X0361850Y0150000D01*
X0364350Y0147500D01*
X0371850Y0150000D02*
X0374350Y0147500D01*
X0374350Y0132500D01*
X0371850Y0130000D01*
X0366850Y0130000D01*
X0364350Y0132500D01*
X0354350Y0132500D02*
X0351850Y0130000D01*
X0346850Y0130000D01*
X0344350Y0132500D01*
X0344350Y0147500D01*
X0346850Y0150000D01*
X0351850Y0150000D01*
X0354350Y0147500D01*
X0344350Y0147500D02*
X0341850Y0150000D01*
X0336850Y0150000D01*
X0334350Y0147500D01*
X0334350Y0132500D01*
X0336850Y0130000D01*
X0341850Y0130000D01*
X0344350Y0132500D01*
X0334350Y0132500D02*
X0331850Y0130000D01*
X0326850Y0130000D01*
X0324350Y0132500D01*
X0324350Y0147500D01*
X0326850Y0150000D01*
X0331850Y0150000D01*
X0334350Y0147500D01*
X0324350Y0147500D02*
X0321850Y0150000D01*
X0316850Y0150000D01*
X0314350Y0147500D01*
X0314350Y0132500D01*
X0316850Y0130000D01*
X0321850Y0130000D01*
X0324350Y0132500D01*
X0314350Y0132500D02*
X0311850Y0130000D01*
X0306850Y0130000D01*
X0304350Y0132500D01*
X0304350Y0147500D01*
X0306850Y0150000D01*
X0311850Y0150000D01*
X0314350Y0147500D01*
X0304350Y0147500D02*
X0301850Y0150000D01*
X0296850Y0150000D01*
X0294350Y0147500D01*
X0294350Y0132500D01*
X0296850Y0130000D01*
X0301850Y0130000D01*
X0304350Y0132500D01*
X0306850Y0120000D02*
X0311850Y0120000D01*
X0314350Y0117500D01*
X0314350Y0102500D01*
X0316850Y0100000D01*
X0321850Y0100000D01*
X0324350Y0102500D01*
X0324350Y0117500D01*
X0326850Y0120000D01*
X0331850Y0120000D01*
X0334350Y0117500D01*
X0334350Y0102500D01*
X0336850Y0100000D01*
X0341850Y0100000D01*
X0344350Y0102500D01*
X0344350Y0117500D01*
X0346850Y0120000D01*
X0351850Y0120000D01*
X0354350Y0117500D01*
X0354350Y0102500D01*
X0356850Y0100000D01*
X0361850Y0100000D01*
X0364350Y0102500D01*
X0364350Y0117500D01*
X0366850Y0120000D01*
X0371850Y0120000D01*
X0374350Y0117500D01*
X0374350Y0102500D01*
X0371850Y0100000D01*
X0366850Y0100000D01*
X0364350Y0102500D01*
X0354350Y0102500D02*
X0351850Y0100000D01*
X0346850Y0100000D01*
X0344350Y0102500D01*
X0334350Y0102500D02*
X0331850Y0100000D01*
X0326850Y0100000D01*
X0324350Y0102500D01*
X0314350Y0102500D02*
X0311850Y0100000D01*
X0306850Y0100000D01*
X0304350Y0102500D01*
X0304350Y0117500D01*
X0306850Y0120000D01*
X0304350Y0117500D02*
X0301850Y0120000D01*
X0296850Y0120000D01*
X0294350Y0117500D01*
X0294350Y0102500D01*
X0296850Y0100000D01*
X0301850Y0100000D01*
X0304350Y0102500D01*
X0306850Y0090000D02*
X0311850Y0090000D01*
X0314350Y0087500D01*
X0314350Y0072500D01*
X0316850Y0070000D01*
X0321850Y0070000D01*
X0324350Y0072500D01*
X0324350Y0087500D01*
X0326850Y0090000D01*
X0331850Y0090000D01*
X0334350Y0087500D01*
X0334350Y0072500D01*
X0336850Y0070000D01*
X0341850Y0070000D01*
X0344350Y0072500D01*
X0344350Y0087500D01*
X0346850Y0090000D01*
X0351850Y0090000D01*
X0354350Y0087500D01*
X0354350Y0072500D01*
X0356850Y0070000D01*
X0361850Y0070000D01*
X0364350Y0072500D01*
X0364350Y0087500D01*
X0366850Y0090000D01*
X0371850Y0090000D01*
X0374350Y0087500D01*
X0374350Y0072500D01*
X0371850Y0070000D01*
X0366850Y0070000D01*
X0364350Y0072500D01*
X0354350Y0072500D02*
X0351850Y0070000D01*
X0346850Y0070000D01*
X0344350Y0072500D01*
X0334350Y0072500D02*
X0331850Y0070000D01*
X0326850Y0070000D01*
X0324350Y0072500D01*
X0314350Y0072500D02*
X0311850Y0070000D01*
X0306850Y0070000D01*
X0304350Y0072500D01*
X0304350Y0087500D01*
X0306850Y0090000D01*
X0304350Y0087500D02*
X0301850Y0090000D01*
X0296850Y0090000D01*
X0294350Y0087500D01*
X0294350Y0072500D01*
X0296850Y0070000D01*
X0301850Y0070000D01*
X0304350Y0072500D01*
X0306850Y0060000D02*
X0311850Y0060000D01*
X0314350Y0057500D01*
X0314350Y0042500D01*
X0316850Y0040000D01*
X0321850Y0040000D01*
X0324350Y0042500D01*
X0324350Y0057500D01*
X0326850Y0060000D01*
X0331850Y0060000D01*
X0334350Y0057500D01*
X0334350Y0042500D01*
X0336850Y0040000D01*
X0341850Y0040000D01*
X0344350Y0042500D01*
X0344350Y0057500D01*
X0346850Y0060000D01*
X0351850Y0060000D01*
X0354350Y0057500D01*
X0354350Y0042500D01*
X0356850Y0040000D01*
X0361850Y0040000D01*
X0364350Y0042500D01*
X0364350Y0057500D01*
X0366850Y0060000D01*
X0371850Y0060000D01*
X0374350Y0057500D01*
X0374350Y0042500D01*
X0371850Y0040000D01*
X0366850Y0040000D01*
X0364350Y0042500D01*
X0354350Y0042500D02*
X0351850Y0040000D01*
X0346850Y0040000D01*
X0344350Y0042500D01*
X0334350Y0042500D02*
X0331850Y0040000D01*
X0326850Y0040000D01*
X0324350Y0042500D01*
X0314350Y0042500D02*
X0311850Y0040000D01*
X0306850Y0040000D01*
X0304350Y0042500D01*
X0304350Y0057500D01*
X0306850Y0060000D01*
X0304350Y0057500D02*
X0301850Y0060000D01*
X0296850Y0060000D01*
X0294350Y0057500D01*
X0294350Y0042500D01*
X0296850Y0040000D01*
X0301850Y0040000D01*
X0304350Y0042500D01*
X0314350Y0057500D02*
X0316850Y0060000D01*
X0321850Y0060000D01*
X0324350Y0057500D01*
X0334350Y0057500D02*
X0336850Y0060000D01*
X0341850Y0060000D01*
X0344350Y0057500D01*
X0354350Y0057500D02*
X0356850Y0060000D01*
X0361850Y0060000D01*
X0364350Y0057500D01*
X0364350Y0087500D02*
X0361850Y0090000D01*
X0356850Y0090000D01*
X0354350Y0087500D01*
X0344350Y0087500D02*
X0341850Y0090000D01*
X0336850Y0090000D01*
X0334350Y0087500D01*
X0324350Y0087500D02*
X0321850Y0090000D01*
X0316850Y0090000D01*
X0314350Y0087500D01*
X0314350Y0117500D02*
X0316850Y0120000D01*
X0321850Y0120000D01*
X0324350Y0117500D01*
X0334350Y0117500D02*
X0336850Y0120000D01*
X0341850Y0120000D01*
X0344350Y0117500D01*
X0354350Y0117500D02*
X0356850Y0120000D01*
X0361850Y0120000D01*
X0364350Y0117500D01*
D91*
X0379480Y0110590D03*
X0384210Y0110590D03*
X0384210Y0080590D03*
X0379480Y0080590D03*
X0379480Y0050590D03*
X0384210Y0050590D03*
X0384210Y0140590D03*
X0379480Y0140590D03*
X0259210Y0103090D03*
X0254480Y0103090D03*
X0249210Y0103090D03*
X0244480Y0103090D03*
X0239210Y0103090D03*
X0234480Y0103090D03*
X0229210Y0103090D03*
X0224480Y0103090D03*
D34*
X0226850Y0103090D03*
X0236850Y0103090D03*
X0246850Y0103090D03*
X0256850Y0103090D03*
X0381850Y0110590D03*
X0381850Y0080590D03*
X0381850Y0050590D03*
X0381850Y0140590D03*
D79*
X0196850Y0000000D02*
G75*
%LPD*%
D79*
X0196850Y0000000D02*
X0196850Y0196850D01*
X0393700Y0196850D01*
X0393700Y0000000D01*
X0196850Y0000000D01*
X0200940Y0010000D02*
X0200960Y0010480D01*
X0201020Y0010960D01*
X0201120Y0011430D01*
X0201250Y0011890D01*
X0201430Y0012340D01*
X0201630Y0012780D01*
X0201880Y0013200D01*
X0202160Y0013590D01*
X0202460Y0013960D01*
X0202800Y0014300D01*
X0203170Y0014620D01*
X0203550Y0014910D01*
X0203960Y0015160D01*
X0204390Y0015380D01*
X0204840Y0015560D01*
X0205300Y0015700D01*
X0205770Y0015810D01*
X0206250Y0015880D01*
X0206730Y0015910D01*
X0207210Y0015900D01*
X0207690Y0015850D01*
X0208170Y0015760D01*
X0208630Y0015640D01*
X0209080Y0015470D01*
X0209520Y0015270D01*
X0209940Y0015040D01*
X0210340Y0014770D01*
X0210720Y0014470D01*
X0211070Y0014140D01*
X0211390Y0013780D01*
X0211690Y0013400D01*
X0211950Y0012990D01*
X0212170Y0012560D01*
X0212370Y0012120D01*
X0212520Y0011670D01*
X0212640Y0011200D01*
X0212720Y0010720D01*
X0212760Y0010240D01*
X0212760Y0009760D01*
X0212720Y0009280D01*
X0212640Y0008800D01*
X0212520Y0008330D01*
X0212370Y0007880D01*
X0212170Y0007440D01*
X0211950Y0007010D01*
X0211690Y0006600D01*
X0211390Y0006220D01*
X0211070Y0005860D01*
X0210720Y0005530D01*
X0210340Y0005230D01*
X0209940Y0004960D01*
X0209520Y0004730D01*
X0209080Y0004530D01*
X0208630Y0004360D01*
X0208170Y0004240D01*
X0207690Y0004150D01*
X0207210Y0004100D01*
X0206730Y0004090D01*
X0206250Y0004120D01*
X0205770Y0004190D01*
X0205300Y0004300D01*
X0204840Y0004440D01*
X0204390Y0004620D01*
X0203960Y0004840D01*
X0203550Y0005090D01*
X0203170Y0005380D01*
X0202800Y0005700D01*
X0202460Y0006040D01*
X0202160Y0006410D01*
X0201880Y0006800D01*
X0201630Y0007220D01*
X0201430Y0007660D01*
X0201250Y0008110D01*
X0201120Y0008570D01*
X0201020Y0009040D01*
X0200960Y0009520D01*
X0200940Y0010000D01*
X0200940Y0187500D02*
X0200960Y0187980D01*
X0201020Y0188460D01*
X0201120Y0188930D01*
X0201250Y0189390D01*
X0201430Y0189840D01*
X0201630Y0190280D01*
X0201880Y0190700D01*
X0202160Y0191090D01*
X0202460Y0191460D01*
X0202800Y0191800D01*
X0203170Y0192120D01*
X0203550Y0192410D01*
X0203960Y0192660D01*
X0204390Y0192880D01*
X0204840Y0193060D01*
X0205300Y0193200D01*
X0205770Y0193310D01*
X0206250Y0193380D01*
X0206730Y0193410D01*
X0207210Y0193400D01*
X0207690Y0193350D01*
X0208170Y0193260D01*
X0208630Y0193140D01*
X0209080Y0192970D01*
X0209520Y0192770D01*
X0209940Y0192540D01*
X0210340Y0192270D01*
X0210720Y0191970D01*
X0211070Y0191640D01*
X0211390Y0191280D01*
X0211690Y0190900D01*
X0211950Y0190490D01*
X0212170Y0190060D01*
X0212370Y0189620D01*
X0212520Y0189170D01*
X0212640Y0188700D01*
X0212720Y0188220D01*
X0212760Y0187740D01*
X0212760Y0187260D01*
X0212720Y0186780D01*
X0212640Y0186300D01*
X0212520Y0185830D01*
X0212370Y0185380D01*
X0212170Y0184940D01*
X0211950Y0184510D01*
X0211690Y0184100D01*
X0211390Y0183720D01*
X0211070Y0183360D01*
X0210720Y0183030D01*
X0210340Y0182730D01*
X0209940Y0182460D01*
X0209520Y0182230D01*
X0209080Y0182030D01*
X0208630Y0181860D01*
X0208170Y0181740D01*
X0207690Y0181650D01*
X0207210Y0181600D01*
X0206730Y0181590D01*
X0206250Y0181620D01*
X0205770Y0181690D01*
X0205300Y0181800D01*
X0204840Y0181940D01*
X0204390Y0182120D01*
X0203960Y0182340D01*
X0203550Y0182590D01*
X0203170Y0182880D01*
X0202800Y0183200D01*
X0202460Y0183540D01*
X0202160Y0183910D01*
X0201880Y0184300D01*
X0201630Y0184720D01*
X0201430Y0185160D01*
X0201250Y0185610D01*
X0201120Y0186070D01*
X0201020Y0186540D01*
X0200960Y0187020D01*
X0200940Y0187500D01*
X0378440Y0187500D02*
X0378460Y0187980D01*
X0378520Y0188460D01*
X0378620Y0188930D01*
X0378750Y0189390D01*
X0378930Y0189840D01*
X0379130Y0190280D01*
X0379380Y0190700D01*
X0379660Y0191090D01*
X0379960Y0191460D01*
X0380300Y0191800D01*
X0380670Y0192120D01*
X0381050Y0192410D01*
X0381460Y0192660D01*
X0381890Y0192880D01*
X0382340Y0193060D01*
X0382800Y0193200D01*
X0383270Y0193310D01*
X0383750Y0193380D01*
X0384230Y0193410D01*
X0384710Y0193400D01*
X0385190Y0193350D01*
X0385670Y0193260D01*
X0386130Y0193140D01*
X0386580Y0192970D01*
X0387020Y0192770D01*
X0387440Y0192540D01*
X0387840Y0192270D01*
X0388220Y0191970D01*
X0388570Y0191640D01*
X0388890Y0191280D01*
X0389190Y0190900D01*
X0389450Y0190490D01*
X0389670Y0190060D01*
X0389870Y0189620D01*
X0390020Y0189170D01*
X0390140Y0188700D01*
X0390220Y0188220D01*
X0390260Y0187740D01*
X0390260Y0187260D01*
X0390220Y0186780D01*
X0390140Y0186300D01*
X0390020Y0185830D01*
X0389870Y0185380D01*
X0389670Y0184940D01*
X0389450Y0184510D01*
X0389190Y0184100D01*
X0388890Y0183720D01*
X0388570Y0183360D01*
X0388220Y0183030D01*
X0387840Y0182730D01*
X0387440Y0182460D01*
X0387020Y0182230D01*
X0386580Y0182030D01*
X0386130Y0181860D01*
X0385670Y0181740D01*
X0385190Y0181650D01*
X0384710Y0181600D01*
X0384230Y0181590D01*
X0383750Y0181620D01*
X0383270Y0181690D01*
X0382800Y0181800D01*
X0382340Y0181940D01*
X0381890Y0182120D01*
X0381460Y0182340D01*
X0381050Y0182590D01*
X0380670Y0182880D01*
X0380300Y0183200D01*
X0379960Y0183540D01*
X0379660Y0183910D01*
X0379380Y0184300D01*
X0379130Y0184720D01*
X0378930Y0185160D01*
X0378750Y0185610D01*
X0378620Y0186070D01*
X0378520Y0186540D01*
X0378460Y0187020D01*
X0378440Y0187500D01*
X0378440Y0010000D02*
X0378460Y0010480D01*
X0378520Y0010960D01*
X0378620Y0011430D01*
X0378750Y0011890D01*
X0378930Y0012340D01*
X0379130Y0012780D01*
X0379380Y0013200D01*
X0379660Y0013590D01*
X0379960Y0013960D01*
X0380300Y0014300D01*
X0380670Y0014620D01*
X0381050Y0014910D01*
X0381460Y0015160D01*
X0381890Y0015380D01*
X0382340Y0015560D01*
X0382800Y0015700D01*
X0383270Y0015810D01*
X0383750Y0015880D01*
X0384230Y0015910D01*
X0384710Y0015900D01*
X0385190Y0015850D01*
X0385670Y0015760D01*
X0386130Y0015640D01*
X0386580Y0015470D01*
X0387020Y0015270D01*
X0387440Y0015040D01*
X0387840Y0014770D01*
X0388220Y0014470D01*
X0388570Y0014140D01*
X0388890Y0013780D01*
X0389190Y0013400D01*
X0389450Y0012990D01*
X0389670Y0012560D01*
X0389870Y0012120D01*
X0390020Y0011670D01*
X0390140Y0011200D01*
X0390220Y0010720D01*
X0390260Y0010240D01*
X0390260Y0009760D01*
X0390220Y0009280D01*
X0390140Y0008800D01*
X0390020Y0008330D01*
X0389870Y0007880D01*
X0389670Y0007440D01*
X0389450Y0007010D01*
X0389190Y0006600D01*
X0388890Y0006220D01*
X0388570Y0005860D01*
X0388220Y0005530D01*
X0387840Y0005230D01*
X0387440Y0004960D01*
X0387020Y0004730D01*
X0386580Y0004530D01*
X0386130Y0004360D01*
X0385670Y0004240D01*
X0385190Y0004150D01*
X0384710Y0004100D01*
X0384230Y0004090D01*
X0383750Y0004120D01*
X0383270Y0004190D01*
X0382800Y0004300D01*
X0382340Y0004440D01*
X0381890Y0004620D01*
X0381460Y0004840D01*
X0381050Y0005090D01*
X0380670Y0005380D01*
X0380300Y0005700D01*
X0379960Y0006040D01*
X0379660Y0006410D01*
X0379380Y0006800D01*
X0379130Y0007220D01*
X0378930Y0007660D01*
X0378750Y0008110D01*
X0378620Y0008570D01*
X0378520Y0009040D01*
X0378460Y0009520D01*
X0378440Y0010000D01*
X0000000Y0196850D02*
G75*
%LPD*%
D79*
X0000000Y0196850D02*
X0000000Y0393700D01*
X0196850Y0393700D01*
X0196850Y0196850D01*
X0000000Y0196850D01*
X0004090Y0206850D02*
X0004110Y0207330D01*
X0004170Y0207810D01*
X0004270Y0208280D01*
X0004400Y0208740D01*
X0004580Y0209190D01*
X0004780Y0209630D01*
X0005030Y0210050D01*
X0005310Y0210440D01*
X0005610Y0210810D01*
X0005950Y0211150D01*
X0006320Y0211470D01*
X0006700Y0211760D01*
X0007110Y0212010D01*
X0007540Y0212230D01*
X0007990Y0212410D01*
X0008450Y0212550D01*
X0008920Y0212660D01*
X0009400Y0212730D01*
X0009880Y0212760D01*
X0010360Y0212750D01*
X0010840Y0212700D01*
X0011320Y0212610D01*
X0011780Y0212490D01*
X0012230Y0212320D01*
X0012670Y0212120D01*
X0013090Y0211890D01*
X0013490Y0211620D01*
X0013870Y0211320D01*
X0014220Y0210990D01*
X0014540Y0210630D01*
X0014840Y0210250D01*
X0015100Y0209840D01*
X0015320Y0209410D01*
X0015520Y0208970D01*
X0015670Y0208520D01*
X0015790Y0208050D01*
X0015870Y0207570D01*
X0015910Y0207090D01*
X0015910Y0206610D01*
X0015870Y0206130D01*
X0015790Y0205650D01*
X0015670Y0205180D01*
X0015520Y0204730D01*
X0015320Y0204290D01*
X0015100Y0203860D01*
X0014840Y0203450D01*
X0014540Y0203070D01*
X0014220Y0202710D01*
X0013870Y0202380D01*
X0013490Y0202080D01*
X0013090Y0201810D01*
X0012670Y0201580D01*
X0012230Y0201380D01*
X0011780Y0201210D01*
X0011320Y0201090D01*
X0010840Y0201000D01*
X0010360Y0200950D01*
X0009880Y0200940D01*
X0009400Y0200970D01*
X0008920Y0201040D01*
X0008450Y0201150D01*
X0007990Y0201290D01*
X0007540Y0201470D01*
X0007110Y0201690D01*
X0006700Y0201940D01*
X0006320Y0202230D01*
X0005950Y0202550D01*
X0005610Y0202890D01*
X0005310Y0203260D01*
X0005030Y0203650D01*
X0004780Y0204070D01*
X0004580Y0204510D01*
X0004400Y0204960D01*
X0004270Y0205420D01*
X0004170Y0205890D01*
X0004110Y0206370D01*
X0004090Y0206850D01*
X0004090Y0384350D02*
X0004110Y0384830D01*
X0004170Y0385310D01*
X0004270Y0385780D01*
X0004400Y0386240D01*
X0004580Y0386690D01*
X0004780Y0387130D01*
X0005030Y0387550D01*
X0005310Y0387940D01*
X0005610Y0388310D01*
X0005950Y0388650D01*
X0006320Y0388970D01*
X0006700Y0389260D01*
X0007110Y0389510D01*
X0007540Y0389730D01*
X0007990Y0389910D01*
X0008450Y0390050D01*
X0008920Y0390160D01*
X0009400Y0390230D01*
X0009880Y0390260D01*
X0010360Y0390250D01*
X0010840Y0390200D01*
X0011320Y0390110D01*
X0011780Y0389990D01*
X0012230Y0389820D01*
X0012670Y0389620D01*
X0013090Y0389390D01*
X0013490Y0389120D01*
X0013870Y0388820D01*
X0014220Y0388490D01*
X0014540Y0388130D01*
X0014840Y0387750D01*
X0015100Y0387340D01*
X0015320Y0386910D01*
X0015520Y0386470D01*
X0015670Y0386020D01*
X0015790Y0385550D01*
X0015870Y0385070D01*
X0015910Y0384590D01*
X0015910Y0384110D01*
X0015870Y0383630D01*
X0015790Y0383150D01*
X0015670Y0382680D01*
X0015520Y0382230D01*
X0015320Y0381790D01*
X0015100Y0381360D01*
X0014840Y0380950D01*
X0014540Y0380570D01*
X0014220Y0380210D01*
X0013870Y0379880D01*
X0013490Y0379580D01*
X0013090Y0379310D01*
X0012670Y0379080D01*
X0012230Y0378880D01*
X0011780Y0378710D01*
X0011320Y0378590D01*
X0010840Y0378500D01*
X0010360Y0378450D01*
X0009880Y0378440D01*
X0009400Y0378470D01*
X0008920Y0378540D01*
X0008450Y0378650D01*
X0007990Y0378790D01*
X0007540Y0378970D01*
X0007110Y0379190D01*
X0006700Y0379440D01*
X0006320Y0379730D01*
X0005950Y0380050D01*
X0005610Y0380390D01*
X0005310Y0380760D01*
X0005030Y0381150D01*
X0004780Y0381570D01*
X0004580Y0382010D01*
X0004400Y0382460D01*
X0004270Y0382920D01*
X0004170Y0383390D01*
X0004110Y0383870D01*
X0004090Y0384350D01*
X0181590Y0384350D02*
X0181610Y0384830D01*
X0181670Y0385310D01*
X0181770Y0385780D01*
X0181900Y0386240D01*
X0182080Y0386690D01*
X0182280Y0387130D01*
X0182530Y0387550D01*
X0182810Y0387940D01*
X0183110Y0388310D01*
X0183450Y0388650D01*
X0183820Y0388970D01*
X0184200Y0389260D01*
X0184610Y0389510D01*
X0185040Y0389730D01*
X0185490Y0389910D01*
X0185950Y0390050D01*
X0186420Y0390160D01*
X0186900Y0390230D01*
X0187380Y0390260D01*
X0187860Y0390250D01*
X0188340Y0390200D01*
X0188820Y0390110D01*
X0189280Y0389990D01*
X0189730Y0389820D01*
X0190170Y0389620D01*
X0190590Y0389390D01*
X0190990Y0389120D01*
X0191370Y0388820D01*
X0191720Y0388490D01*
X0192040Y0388130D01*
X0192340Y0387750D01*
X0192600Y0387340D01*
X0192820Y0386910D01*
X0193020Y0386470D01*
X0193170Y0386020D01*
X0193290Y0385550D01*
X0193370Y0385070D01*
X0193410Y0384590D01*
X0193410Y0384110D01*
X0193370Y0383630D01*
X0193290Y0383150D01*
X0193170Y0382680D01*
X0193020Y0382230D01*
X0192820Y0381790D01*
X0192600Y0381360D01*
X0192340Y0380950D01*
X0192040Y0380570D01*
X0191720Y0380210D01*
X0191370Y0379880D01*
X0190990Y0379580D01*
X0190590Y0379310D01*
X0190170Y0379080D01*
X0189730Y0378880D01*
X0189280Y0378710D01*
X0188820Y0378590D01*
X0188340Y0378500D01*
X0187860Y0378450D01*
X0187380Y0378440D01*
X0186900Y0378470D01*
X0186420Y0378540D01*
X0185950Y0378650D01*
X0185490Y0378790D01*
X0185040Y0378970D01*
X0184610Y0379190D01*
X0184200Y0379440D01*
X0183820Y0379730D01*
X0183450Y0380050D01*
X0183110Y0380390D01*
X0182810Y0380760D01*
X0182530Y0381150D01*
X0182280Y0381570D01*
X0182080Y0382010D01*
X0181900Y0382460D01*
X0181770Y0382920D01*
X0181670Y0383390D01*
X0181610Y0383870D01*
X0181590Y0384350D01*
X0181590Y0206850D02*
X0181610Y0207330D01*
X0181670Y0207810D01*
X0181770Y0208280D01*
X0181900Y0208740D01*
X0182080Y0209190D01*
X0182280Y0209630D01*
X0182530Y0210050D01*
X0182810Y0210440D01*
X0183110Y0210810D01*
X0183450Y0211150D01*
X0183820Y0211470D01*
X0184200Y0211760D01*
X0184610Y0212010D01*
X0185040Y0212230D01*
X0185490Y0212410D01*
X0185950Y0212550D01*
X0186420Y0212660D01*
X0186900Y0212730D01*
X0187380Y0212760D01*
X0187860Y0212750D01*
X0188340Y0212700D01*
X0188820Y0212610D01*
X0189280Y0212490D01*
X0189730Y0212320D01*
X0190170Y0212120D01*
X0190590Y0211890D01*
X0190990Y0211620D01*
X0191370Y0211320D01*
X0191720Y0210990D01*
X0192040Y0210630D01*
X0192340Y0210250D01*
X0192600Y0209840D01*
X0192820Y0209410D01*
X0193020Y0208970D01*
X0193170Y0208520D01*
X0193290Y0208050D01*
X0193370Y0207570D01*
X0193410Y0207090D01*
X0193410Y0206610D01*
X0193370Y0206130D01*
X0193290Y0205650D01*
X0193170Y0205180D01*
X0193020Y0204730D01*
X0192820Y0204290D01*
X0192600Y0203860D01*
X0192340Y0203450D01*
X0192040Y0203070D01*
X0191720Y0202710D01*
X0191370Y0202380D01*
X0190990Y0202080D01*
X0190590Y0201810D01*
X0190170Y0201580D01*
X0189730Y0201380D01*
X0189280Y0201210D01*
X0188820Y0201090D01*
X0188340Y0201000D01*
X0187860Y0200950D01*
X0187380Y0200940D01*
X0186900Y0200970D01*
X0186420Y0201040D01*
X0185950Y0201150D01*
X0185490Y0201290D01*
X0185040Y0201470D01*
X0184610Y0201690D01*
X0184200Y0201940D01*
X0183820Y0202230D01*
X0183450Y0202550D01*
X0183110Y0202890D01*
X0182810Y0203260D01*
X0182530Y0203650D01*
X0182280Y0204070D01*
X0182080Y0204510D01*
X0181900Y0204960D01*
X0181770Y0205420D01*
X0181670Y0205890D01*
X0181610Y0206370D01*
X0181590Y0206850D01*
D79*
X0172300Y0299410D02*
X0172300Y0302480D01*
X0172300Y0300950D02*
X0167700Y0300950D01*
X0169230Y0299410D01*
X0092300Y0341910D02*
X0092300Y0344980D01*
X0092300Y0343450D02*
X0087700Y0343450D01*
X0089230Y0341910D01*
X0011330Y0313360D02*
X0011330Y0312590D01*
X0011330Y0313360D02*
X0010570Y0314130D01*
X0006730Y0314130D01*
X0005200Y0314130D02*
X0004430Y0314130D01*
X0006730Y0316430D02*
X0006730Y0317970D01*
X0007500Y0318730D01*
X0008270Y0318730D01*
X0008270Y0315660D01*
X0009030Y0315660D02*
X0007500Y0315660D01*
X0006730Y0316430D01*
X0009030Y0315660D02*
X0009800Y0316430D01*
X0009800Y0317970D01*
X0009030Y0320270D02*
X0007500Y0320270D01*
X0006730Y0321030D01*
X0006730Y0323340D01*
X0006730Y0324870D02*
X0006730Y0326410D01*
X0005960Y0325640D02*
X0009030Y0325640D01*
X0009800Y0326410D01*
X0009800Y0327940D02*
X0009030Y0327940D01*
X0009030Y0328710D01*
X0009800Y0328710D01*
X0009800Y0327940D01*
X0007500Y0327940D02*
X0006730Y0327940D01*
X0006730Y0328710D01*
X0007500Y0328710D01*
X0007500Y0327940D01*
X0009800Y0323340D02*
X0009800Y0321030D01*
X0009030Y0320270D01*
X0009030Y0311060D02*
X0007500Y0311060D01*
X0006730Y0310290D01*
X0006730Y0308760D01*
X0007500Y0307990D01*
X0009030Y0307990D01*
X0009800Y0308760D01*
X0009800Y0310290D01*
X0009030Y0311060D01*
X0006730Y0306460D02*
X0006730Y0305690D01*
X0008270Y0304150D01*
X0009800Y0304150D02*
X0006730Y0304150D01*
X0005960Y0302620D02*
X0007500Y0302620D01*
X0008270Y0301850D01*
X0008270Y0299550D01*
X0009800Y0299550D02*
X0005200Y0299550D01*
X0005200Y0301850D01*
X0005960Y0302620D01*
X0007500Y0292690D02*
X0006730Y0291930D01*
X0006730Y0289620D01*
X0009800Y0289620D01*
X0009030Y0288090D02*
X0006730Y0288090D01*
X0009030Y0288090D02*
X0009800Y0287320D01*
X0009030Y0286550D01*
X0009800Y0285790D01*
X0009030Y0285020D01*
X0006730Y0285020D01*
X0007500Y0283490D02*
X0006730Y0282720D01*
X0006730Y0281180D01*
X0007500Y0280420D01*
X0009030Y0280420D01*
X0009800Y0281180D01*
X0009800Y0282720D01*
X0009030Y0283490D01*
X0007500Y0283490D01*
X0006730Y0278880D02*
X0006730Y0278110D01*
X0008270Y0276580D01*
X0009800Y0276580D02*
X0006730Y0276580D01*
X0006730Y0275040D02*
X0007500Y0274280D01*
X0007500Y0271980D01*
X0007500Y0274280D02*
X0008270Y0275040D01*
X0009030Y0275040D01*
X0009800Y0274280D01*
X0009800Y0271980D01*
X0005200Y0271980D01*
X0005200Y0274280D01*
X0005960Y0275040D01*
X0006730Y0275040D01*
X0009030Y0265840D02*
X0009800Y0265840D01*
X0009800Y0265070D01*
X0009030Y0265070D01*
X0009030Y0265840D01*
X0008270Y0263530D02*
X0005200Y0263530D01*
X0008270Y0263530D02*
X0009800Y0262000D01*
X0008270Y0260470D01*
X0005200Y0260470D01*
X0007500Y0254330D02*
X0006730Y0253560D01*
X0006730Y0251260D01*
X0009800Y0251260D01*
X0008270Y0249720D02*
X0008270Y0246650D01*
X0009030Y0246650D02*
X0007500Y0246650D01*
X0006730Y0247420D01*
X0006730Y0248960D01*
X0007500Y0249720D01*
X0008270Y0249720D01*
X0009800Y0248960D02*
X0009800Y0247420D01*
X0009030Y0246650D01*
X0009030Y0245120D02*
X0008270Y0245120D01*
X0007500Y0244350D01*
X0007500Y0242050D01*
X0009800Y0242050D02*
X0009800Y0244350D01*
X0009030Y0245120D01*
X0007500Y0244350D02*
X0006730Y0245120D01*
X0005960Y0245120D01*
X0005200Y0244350D01*
X0005200Y0242050D01*
X0009800Y0242050D01*
X0009800Y0254330D02*
X0007500Y0254330D01*
X0007500Y0292690D02*
X0009800Y0292690D01*
X0009800Y0334850D02*
X0009800Y0337920D01*
X0009030Y0339450D02*
X0007500Y0339450D01*
X0006730Y0340220D01*
X0006730Y0341750D01*
X0007500Y0342520D01*
X0008270Y0342520D01*
X0008270Y0339450D01*
X0009030Y0339450D02*
X0009800Y0340220D01*
X0009800Y0341750D01*
X0009030Y0344820D02*
X0009800Y0345590D01*
X0009030Y0344820D02*
X0005960Y0344820D01*
X0006730Y0344050D02*
X0006730Y0345590D01*
X0006730Y0347890D02*
X0006730Y0349430D01*
X0007500Y0350190D01*
X0009800Y0350190D01*
X0009800Y0347890D01*
X0009030Y0347120D01*
X0008270Y0347890D01*
X0008270Y0350190D01*
X0005960Y0337920D02*
X0009030Y0334850D01*
X0009800Y0334850D01*
X0005200Y0334850D02*
X0005200Y0337920D01*
X0005960Y0337920D01*
D79*
X0032650Y0332400D02*
X0032650Y0329500D01*
X0032650Y0330470D02*
X0034100Y0330470D01*
X0034580Y0330950D01*
X0034580Y0331920D01*
X0034100Y0332400D01*
X0032650Y0332400D01*
X0033620Y0330470D02*
X0034580Y0329500D01*
X0035600Y0329980D02*
X0036080Y0330470D01*
X0037530Y0330470D01*
X0037530Y0330950D02*
X0037530Y0329500D01*
X0036080Y0329500D01*
X0035600Y0329980D01*
X0036080Y0331430D02*
X0037050Y0331430D01*
X0037530Y0330950D01*
X0038540Y0329500D02*
X0039510Y0329500D01*
X0039030Y0329500D02*
X0039030Y0332400D01*
X0038540Y0332400D01*
X0040510Y0331430D02*
X0040990Y0331430D01*
X0040990Y0329500D01*
X0040510Y0329500D02*
X0041470Y0329500D01*
X0042470Y0329500D02*
X0042470Y0331430D01*
X0042960Y0331430D01*
X0043440Y0330950D01*
X0043920Y0331430D01*
X0044410Y0330950D01*
X0044410Y0329500D01*
X0043440Y0329500D02*
X0043440Y0330950D01*
X0045420Y0329980D02*
X0045420Y0331920D01*
X0045900Y0332400D01*
X0046870Y0332400D01*
X0047350Y0331920D01*
X0047350Y0330950D01*
X0046870Y0330470D01*
X0046870Y0331430D01*
X0045900Y0331430D01*
X0045900Y0330470D01*
X0046870Y0330470D01*
X0047350Y0329980D02*
X0046870Y0329500D01*
X0045900Y0329500D01*
X0045420Y0329980D01*
X0048360Y0329500D02*
X0048360Y0332400D01*
X0049820Y0332400D01*
X0050300Y0331920D01*
X0050300Y0330950D01*
X0049820Y0330470D01*
X0048360Y0330470D01*
X0049330Y0330470D02*
X0050300Y0329500D01*
X0051310Y0329980D02*
X0051800Y0330470D01*
X0053250Y0330470D01*
X0053250Y0330950D02*
X0053250Y0329500D01*
X0051800Y0329500D01*
X0051310Y0329980D01*
X0051800Y0331430D02*
X0052760Y0331430D01*
X0053250Y0330950D01*
X0054260Y0329500D02*
X0055230Y0329500D01*
X0054740Y0329500D02*
X0054740Y0332400D01*
X0054260Y0332400D01*
X0056220Y0331430D02*
X0056710Y0331430D01*
X0056710Y0329500D01*
X0057190Y0329500D02*
X0056220Y0329500D01*
X0058190Y0329500D02*
X0058190Y0331430D01*
X0058670Y0331430D01*
X0059150Y0330950D01*
X0059640Y0331430D01*
X0060120Y0330950D01*
X0060120Y0329500D01*
X0059150Y0329500D02*
X0059150Y0330950D01*
X0061130Y0331430D02*
X0062100Y0331430D01*
X0061620Y0331920D02*
X0061620Y0329980D01*
X0062100Y0329500D01*
X0063100Y0329980D02*
X0063100Y0330950D01*
X0063580Y0331430D01*
X0064550Y0331430D01*
X0065030Y0330950D01*
X0065030Y0330470D01*
X0063100Y0330470D01*
X0063100Y0329980D02*
X0063580Y0329500D01*
X0064550Y0329500D01*
X0066040Y0329500D02*
X0066040Y0332400D01*
X0067500Y0331430D02*
X0066040Y0330470D01*
X0067500Y0329500D01*
X0068500Y0329500D02*
X0068980Y0329500D01*
X0068980Y0329980D01*
X0068500Y0329980D01*
X0068500Y0329500D01*
X0069970Y0329980D02*
X0070460Y0329500D01*
X0071910Y0329500D01*
X0072920Y0329980D02*
X0073400Y0329500D01*
X0074370Y0329500D01*
X0074850Y0329980D01*
X0074850Y0330950D01*
X0074370Y0331430D01*
X0073400Y0331430D01*
X0072920Y0330950D01*
X0072920Y0329980D01*
X0071910Y0331430D02*
X0070460Y0331430D01*
X0069970Y0330950D01*
X0069970Y0329980D01*
X0075870Y0329500D02*
X0075870Y0331430D01*
X0076350Y0331430D01*
X0076830Y0330950D01*
X0077320Y0331430D01*
X0077800Y0330950D01*
X0077800Y0329500D01*
X0076830Y0329500D02*
X0076830Y0330950D01*
X0056710Y0332400D02*
X0056710Y0332890D01*
X0040990Y0332890D02*
X0040990Y0332400D01*
X0112650Y0274900D02*
X0112650Y0272000D01*
X0112650Y0272970D02*
X0114100Y0272970D01*
X0114580Y0273450D01*
X0114580Y0274420D01*
X0114100Y0274900D01*
X0112650Y0274900D01*
X0113620Y0272970D02*
X0114580Y0272000D01*
X0115600Y0272480D02*
X0116080Y0272970D01*
X0117530Y0272970D01*
X0117530Y0273450D02*
X0117530Y0272000D01*
X0116080Y0272000D01*
X0115600Y0272480D01*
X0116080Y0273930D02*
X0117050Y0273930D01*
X0117530Y0273450D01*
X0118540Y0272000D02*
X0119510Y0272000D01*
X0119030Y0272000D02*
X0119030Y0274900D01*
X0118540Y0274900D01*
X0120510Y0273930D02*
X0120990Y0273930D01*
X0120990Y0272000D01*
X0120510Y0272000D02*
X0121470Y0272000D01*
X0122470Y0272000D02*
X0122470Y0273930D01*
X0122960Y0273930D01*
X0123440Y0273450D01*
X0123920Y0273930D01*
X0124410Y0273450D01*
X0124410Y0272000D01*
X0123440Y0272000D02*
X0123440Y0273450D01*
X0125420Y0272480D02*
X0125420Y0274420D01*
X0125900Y0274900D01*
X0126870Y0274900D01*
X0127350Y0274420D01*
X0127350Y0273450D01*
X0126870Y0272970D01*
X0126870Y0273930D01*
X0125900Y0273930D01*
X0125900Y0272970D01*
X0126870Y0272970D01*
X0127350Y0272480D02*
X0126870Y0272000D01*
X0125900Y0272000D01*
X0125420Y0272480D01*
X0128360Y0272000D02*
X0128360Y0274900D01*
X0129820Y0274900D01*
X0130300Y0274420D01*
X0130300Y0273450D01*
X0129820Y0272970D01*
X0128360Y0272970D01*
X0129330Y0272970D02*
X0130300Y0272000D01*
X0131310Y0272480D02*
X0131800Y0272970D01*
X0133250Y0272970D01*
X0133250Y0273450D02*
X0133250Y0272000D01*
X0131800Y0272000D01*
X0131310Y0272480D01*
X0131800Y0273930D02*
X0132760Y0273930D01*
X0133250Y0273450D01*
X0134260Y0272000D02*
X0135230Y0272000D01*
X0134740Y0272000D02*
X0134740Y0274900D01*
X0134260Y0274900D01*
X0136220Y0273930D02*
X0136710Y0273930D01*
X0136710Y0272000D01*
X0137190Y0272000D02*
X0136220Y0272000D01*
X0138190Y0272000D02*
X0138190Y0273930D01*
X0138670Y0273930D01*
X0139150Y0273450D01*
X0139640Y0273930D01*
X0140120Y0273450D01*
X0140120Y0272000D01*
X0139150Y0272000D02*
X0139150Y0273450D01*
X0141130Y0273930D02*
X0142100Y0273930D01*
X0141620Y0274420D02*
X0141620Y0272480D01*
X0142100Y0272000D01*
X0143100Y0272480D02*
X0143100Y0273450D01*
X0143580Y0273930D01*
X0144550Y0273930D01*
X0145030Y0273450D01*
X0145030Y0272970D01*
X0143100Y0272970D01*
X0143100Y0272480D02*
X0143580Y0272000D01*
X0144550Y0272000D01*
X0146040Y0272000D02*
X0146040Y0274900D01*
X0147500Y0273930D02*
X0146040Y0272970D01*
X0147500Y0272000D01*
X0148500Y0272000D02*
X0148980Y0272000D01*
X0148980Y0272480D01*
X0148500Y0272480D01*
X0148500Y0272000D01*
X0149970Y0272480D02*
X0150460Y0272000D01*
X0151910Y0272000D01*
X0152920Y0272480D02*
X0152920Y0273450D01*
X0153400Y0273930D01*
X0154370Y0273930D01*
X0154850Y0273450D01*
X0154850Y0272480D01*
X0154370Y0272000D01*
X0153400Y0272000D01*
X0152920Y0272480D01*
X0151910Y0273930D02*
X0150460Y0273930D01*
X0149970Y0273450D01*
X0149970Y0272480D01*
X0155870Y0272000D02*
X0155870Y0273930D01*
X0156350Y0273930D01*
X0156830Y0273450D01*
X0157320Y0273930D01*
X0157800Y0273450D01*
X0157800Y0272000D01*
X0156830Y0272000D02*
X0156830Y0273450D01*
X0136710Y0274900D02*
X0136710Y0275390D01*
X0120990Y0275390D02*
X0120990Y0274900D01*
D79*
X0176460Y0222890D02*
X0176460Y0219350D01*
X0180000Y0215810D01*
X0183540Y0215810D01*
X0187070Y0219350D01*
X0187070Y0222890D01*
X0190610Y0222890D01*
X0194140Y0226420D01*
X0194140Y0229960D01*
X0190610Y0233490D01*
X0187070Y0233490D01*
X0183540Y0229960D01*
X0183540Y0226420D01*
X0180000Y0226420D01*
X0176460Y0222890D01*
X0177500Y0211850D02*
X0172500Y0211850D01*
X0170000Y0209350D01*
X0167500Y0211850D01*
X0162500Y0211850D01*
X0160000Y0209350D01*
X0157500Y0211850D01*
X0152500Y0211850D01*
X0150000Y0209350D01*
X0147500Y0211850D01*
X0142500Y0211850D01*
X0140000Y0209350D01*
X0137500Y0211850D01*
X0132500Y0211850D01*
X0130000Y0209350D01*
X0127500Y0211850D01*
X0122500Y0211850D01*
X0120000Y0209350D01*
X0117500Y0211850D01*
X0112500Y0211850D01*
X0110000Y0209350D01*
X0107500Y0211850D01*
X0102500Y0211850D01*
X0100000Y0209350D01*
X0097500Y0211850D01*
X0092500Y0211850D01*
X0090000Y0209350D01*
X0087500Y0211850D01*
X0082500Y0211850D01*
X0080000Y0209350D01*
X0077500Y0211850D01*
X0072500Y0211850D01*
X0070000Y0209350D01*
X0067500Y0211850D01*
X0062500Y0211850D01*
X0060000Y0209350D01*
X0057500Y0211850D01*
X0052500Y0211850D01*
X0050000Y0209350D01*
X0047500Y0211850D01*
X0042500Y0211850D01*
X0040000Y0209350D01*
X0037500Y0211850D01*
X0032500Y0211850D01*
X0030000Y0209350D01*
X0027500Y0211850D01*
X0022500Y0211850D01*
X0020000Y0209350D01*
X0020000Y0204350D01*
X0022500Y0201850D01*
X0027500Y0201850D01*
X0030000Y0204350D01*
X0032500Y0201850D01*
X0037500Y0201850D01*
X0040000Y0204350D01*
X0042500Y0201850D01*
X0047500Y0201850D01*
X0050000Y0204350D01*
X0052500Y0201850D01*
X0057500Y0201850D01*
X0060000Y0204350D01*
X0062500Y0201850D01*
X0067500Y0201850D01*
X0070000Y0204350D01*
X0072500Y0201850D01*
X0077500Y0201850D01*
X0080000Y0204350D01*
X0082500Y0201850D01*
X0087500Y0201850D01*
X0090000Y0204350D01*
X0092500Y0201850D01*
X0097500Y0201850D01*
X0100000Y0204350D01*
X0102500Y0201850D01*
X0107500Y0201850D01*
X0110000Y0204350D01*
X0112500Y0201850D01*
X0117500Y0201850D01*
X0120000Y0204350D01*
X0122500Y0201850D01*
X0127500Y0201850D01*
X0130000Y0204350D01*
X0132500Y0201850D01*
X0137500Y0201850D01*
X0140000Y0204350D01*
X0142500Y0201850D01*
X0147500Y0201850D01*
X0150000Y0204350D01*
X0152500Y0201850D01*
X0157500Y0201850D01*
X0160000Y0204350D01*
X0162500Y0201850D01*
X0167500Y0201850D01*
X0170000Y0204350D01*
X0172500Y0201850D01*
X0177500Y0201850D01*
X0180000Y0204350D01*
X0180000Y0209350D01*
X0177500Y0211850D01*
X0180000Y0209350D02*
X0180000Y0204350D01*
X0048100Y0271250D02*
X0048100Y0274450D01*
X0045510Y0274450D01*
X0039490Y0274450D02*
X0036900Y0274450D01*
X0036900Y0271250D01*
X0011160Y0233190D02*
X0007630Y0233190D01*
X0004090Y0229650D01*
X0004090Y0226120D01*
X0007630Y0222580D01*
X0011160Y0222580D01*
X0011160Y0219050D01*
X0014700Y0215510D01*
X0018230Y0215510D01*
X0021770Y0219050D01*
X0021770Y0222580D01*
X0018230Y0226120D01*
X0014700Y0226120D01*
X0014700Y0229650D01*
X0011160Y0233190D01*
X0020000Y0209350D02*
X0020000Y0204350D01*
X0008960Y0354350D02*
X0003960Y0354350D01*
X0001460Y0356850D01*
X0001460Y0361850D01*
X0003960Y0364350D01*
X0001460Y0366850D01*
X0001460Y0371850D01*
X0003960Y0374350D01*
X0008960Y0374350D01*
X0011460Y0371850D01*
X0011460Y0366850D01*
X0008960Y0364350D01*
X0011460Y0361850D01*
X0011460Y0356850D01*
X0008960Y0354350D01*
X0022500Y0379350D02*
X0027500Y0379350D01*
X0030000Y0381850D01*
X0032500Y0379350D01*
X0037500Y0379350D01*
X0040000Y0381850D01*
X0042500Y0379350D01*
X0047500Y0379350D01*
X0050000Y0381850D01*
X0052500Y0379350D01*
X0057500Y0379350D01*
X0060000Y0381850D01*
X0062500Y0379350D01*
X0067500Y0379350D01*
X0070000Y0381850D01*
X0072500Y0379350D01*
X0077500Y0379350D01*
X0080000Y0381850D01*
X0082500Y0379350D01*
X0087500Y0379350D01*
X0090000Y0381850D01*
X0092500Y0379350D01*
X0097500Y0379350D01*
X0100000Y0381850D01*
X0102500Y0379350D01*
X0107500Y0379350D01*
X0110000Y0381850D01*
X0112500Y0379350D01*
X0117500Y0379350D01*
X0120000Y0381850D01*
X0122500Y0379350D01*
X0127500Y0379350D01*
X0130000Y0381850D01*
X0132500Y0379350D01*
X0137500Y0379350D01*
X0140000Y0381850D01*
X0142500Y0379350D01*
X0147500Y0379350D01*
X0150000Y0381850D01*
X0152500Y0379350D01*
X0157500Y0379350D01*
X0160000Y0381850D01*
X0162500Y0379350D01*
X0167500Y0379350D01*
X0170000Y0381850D01*
X0172500Y0379350D01*
X0177500Y0379350D01*
X0180000Y0381850D01*
X0180000Y0386850D01*
X0177500Y0389350D01*
X0172500Y0389350D01*
X0170000Y0386850D01*
X0167500Y0389350D01*
X0162500Y0389350D01*
X0160000Y0386850D01*
X0157500Y0389350D01*
X0152500Y0389350D01*
X0150000Y0386850D01*
X0147500Y0389350D01*
X0142500Y0389350D01*
X0140000Y0386850D01*
X0137500Y0389350D01*
X0132500Y0389350D01*
X0130000Y0386850D01*
X0127500Y0389350D01*
X0122500Y0389350D01*
X0120000Y0386850D01*
X0117500Y0389350D01*
X0112500Y0389350D01*
X0110000Y0386850D01*
X0107500Y0389350D01*
X0102500Y0389350D01*
X0100000Y0386850D01*
X0097500Y0389350D01*
X0092500Y0389350D01*
X0090000Y0386850D01*
X0087500Y0389350D01*
X0082500Y0389350D01*
X0080000Y0386850D01*
X0077500Y0389350D01*
X0072500Y0389350D01*
X0070000Y0386850D01*
X0067500Y0389350D01*
X0062500Y0389350D01*
X0060000Y0386850D01*
X0057500Y0389350D01*
X0052500Y0389350D01*
X0050000Y0386850D01*
X0047500Y0389350D01*
X0042500Y0389350D01*
X0040000Y0386850D01*
X0037500Y0389350D01*
X0032500Y0389350D01*
X0030000Y0386850D01*
X0027500Y0389350D01*
X0022500Y0389350D01*
X0020000Y0386850D01*
X0020000Y0381850D01*
X0022500Y0379350D01*
X0020000Y0381850D02*
X0020000Y0386850D01*
X0180000Y0386850D02*
X0180000Y0381850D01*
X0187800Y0374050D02*
X0192800Y0374050D01*
X0195300Y0371550D01*
X0195300Y0366550D01*
X0192800Y0364050D01*
X0195300Y0361550D01*
X0195300Y0356550D01*
X0192800Y0354050D01*
X0187800Y0354050D01*
X0185300Y0356550D01*
X0185300Y0361550D01*
X0187800Y0364050D01*
X0185300Y0366550D01*
X0185300Y0371550D01*
X0187800Y0374050D01*
D79*
X0123700Y0248100D02*
X0111300Y0248100D01*
X0111070Y0248080D01*
X0110840Y0248030D01*
X0110620Y0247940D01*
X0110420Y0247810D01*
X0110240Y0247660D01*
X0110090Y0247480D01*
X0109960Y0247280D01*
X0109870Y0247060D01*
X0109820Y0246830D01*
X0109800Y0246600D01*
X0123700Y0248100D02*
X0123930Y0248080D01*
X0124160Y0248030D01*
X0124380Y0247940D01*
X0124580Y0247810D01*
X0124760Y0247660D01*
X0124910Y0247480D01*
X0125040Y0247280D01*
X0125130Y0247060D01*
X0125180Y0246830D01*
X0125200Y0246600D01*
X0125200Y0214600D02*
X0125180Y0214370D01*
X0125130Y0214140D01*
X0125040Y0213920D01*
X0124910Y0213720D01*
X0124760Y0213540D01*
X0124580Y0213390D01*
X0124380Y0213260D01*
X0124160Y0213170D01*
X0123930Y0213120D01*
X0123700Y0213100D01*
X0119500Y0213100D01*
X0115500Y0213100D01*
X0111300Y0213100D01*
X0111070Y0213120D01*
X0110840Y0213170D01*
X0110620Y0213260D01*
X0110420Y0213390D01*
X0110240Y0213540D01*
X0110090Y0213720D01*
X0109960Y0213920D01*
X0109870Y0214140D01*
X0109820Y0214370D01*
X0109800Y0214600D01*
X0115500Y0213100D02*
X0115520Y0213370D01*
X0115570Y0213640D01*
X0115670Y0213900D01*
X0115790Y0214140D01*
X0115950Y0214360D01*
X0116130Y0214560D01*
X0116350Y0214730D01*
X0116580Y0214880D01*
X0116830Y0214980D01*
X0117090Y0215060D01*
X0117360Y0215100D01*
X0117640Y0215100D01*
X0117910Y0215060D01*
X0118170Y0214980D01*
X0118420Y0214880D01*
X0118650Y0214730D01*
X0118870Y0214560D01*
X0119050Y0214360D01*
X0119210Y0214140D01*
X0119330Y0213900D01*
X0119430Y0213640D01*
X0119480Y0213370D01*
X0119500Y0213100D01*
D79*
X0123800Y0213100D02*
X0123800Y0248100D01*
D79*
X0000000Y0196850D02*
G75*
%LPD*%
D79*
X0000000Y0196850D02*
X0000000Y0393700D01*
X0196850Y0393700D01*
X0196850Y0196850D01*
X0000000Y0196850D01*
X0004090Y0206850D02*
X0004110Y0207330D01*
X0004170Y0207810D01*
X0004270Y0208280D01*
X0004400Y0208740D01*
X0004580Y0209190D01*
X0004780Y0209630D01*
X0005030Y0210050D01*
X0005310Y0210440D01*
X0005610Y0210810D01*
X0005950Y0211150D01*
X0006320Y0211470D01*
X0006700Y0211760D01*
X0007110Y0212010D01*
X0007540Y0212230D01*
X0007990Y0212410D01*
X0008450Y0212550D01*
X0008920Y0212660D01*
X0009400Y0212730D01*
X0009880Y0212760D01*
X0010360Y0212750D01*
X0010840Y0212700D01*
X0011320Y0212610D01*
X0011780Y0212490D01*
X0012230Y0212320D01*
X0012670Y0212120D01*
X0013090Y0211890D01*
X0013490Y0211620D01*
X0013870Y0211320D01*
X0014220Y0210990D01*
X0014540Y0210630D01*
X0014840Y0210250D01*
X0015100Y0209840D01*
X0015320Y0209410D01*
X0015520Y0208970D01*
X0015670Y0208520D01*
X0015790Y0208050D01*
X0015870Y0207570D01*
X0015910Y0207090D01*
X0015910Y0206610D01*
X0015870Y0206130D01*
X0015790Y0205650D01*
X0015670Y0205180D01*
X0015520Y0204730D01*
X0015320Y0204290D01*
X0015100Y0203860D01*
X0014840Y0203450D01*
X0014540Y0203070D01*
X0014220Y0202710D01*
X0013870Y0202380D01*
X0013490Y0202080D01*
X0013090Y0201810D01*
X0012670Y0201580D01*
X0012230Y0201380D01*
X0011780Y0201210D01*
X0011320Y0201090D01*
X0010840Y0201000D01*
X0010360Y0200950D01*
X0009880Y0200940D01*
X0009400Y0200970D01*
X0008920Y0201040D01*
X0008450Y0201150D01*
X0007990Y0201290D01*
X0007540Y0201470D01*
X0007110Y0201690D01*
X0006700Y0201940D01*
X0006320Y0202230D01*
X0005950Y0202550D01*
X0005610Y0202890D01*
X0005310Y0203260D01*
X0005030Y0203650D01*
X0004780Y0204070D01*
X0004580Y0204510D01*
X0004400Y0204960D01*
X0004270Y0205420D01*
X0004170Y0205890D01*
X0004110Y0206370D01*
X0004090Y0206850D01*
X0004090Y0384350D02*
X0004110Y0384830D01*
X0004170Y0385310D01*
X0004270Y0385780D01*
X0004400Y0386240D01*
X0004580Y0386690D01*
X0004780Y0387130D01*
X0005030Y0387550D01*
X0005310Y0387940D01*
X0005610Y0388310D01*
X0005950Y0388650D01*
X0006320Y0388970D01*
X0006700Y0389260D01*
X0007110Y0389510D01*
X0007540Y0389730D01*
X0007990Y0389910D01*
X0008450Y0390050D01*
X0008920Y0390160D01*
X0009400Y0390230D01*
X0009880Y0390260D01*
X0010360Y0390250D01*
X0010840Y0390200D01*
X0011320Y0390110D01*
X0011780Y0389990D01*
X0012230Y0389820D01*
X0012670Y0389620D01*
X0013090Y0389390D01*
X0013490Y0389120D01*
X0013870Y0388820D01*
X0014220Y0388490D01*
X0014540Y0388130D01*
X0014840Y0387750D01*
X0015100Y0387340D01*
X0015320Y0386910D01*
X0015520Y0386470D01*
X0015670Y0386020D01*
X0015790Y0385550D01*
X0015870Y0385070D01*
X0015910Y0384590D01*
X0015910Y0384110D01*
X0015870Y0383630D01*
X0015790Y0383150D01*
X0015670Y0382680D01*
X0015520Y0382230D01*
X0015320Y0381790D01*
X0015100Y0381360D01*
X0014840Y0380950D01*
X0014540Y0380570D01*
X0014220Y0380210D01*
X0013870Y0379880D01*
X0013490Y0379580D01*
X0013090Y0379310D01*
X0012670Y0379080D01*
X0012230Y0378880D01*
X0011780Y0378710D01*
X0011320Y0378590D01*
X0010840Y0378500D01*
X0010360Y0378450D01*
X0009880Y0378440D01*
X0009400Y0378470D01*
X0008920Y0378540D01*
X0008450Y0378650D01*
X0007990Y0378790D01*
X0007540Y0378970D01*
X0007110Y0379190D01*
X0006700Y0379440D01*
X0006320Y0379730D01*
X0005950Y0380050D01*
X0005610Y0380390D01*
X0005310Y0380760D01*
X0005030Y0381150D01*
X0004780Y0381570D01*
X0004580Y0382010D01*
X0004400Y0382460D01*
X0004270Y0382920D01*
X0004170Y0383390D01*
X0004110Y0383870D01*
X0004090Y0384350D01*
X0181590Y0384350D02*
X0181610Y0384830D01*
X0181670Y0385310D01*
X0181770Y0385780D01*
X0181900Y0386240D01*
X0182080Y0386690D01*
X0182280Y0387130D01*
X0182530Y0387550D01*
X0182810Y0387940D01*
X0183110Y0388310D01*
X0183450Y0388650D01*
X0183820Y0388970D01*
X0184200Y0389260D01*
X0184610Y0389510D01*
X0185040Y0389730D01*
X0185490Y0389910D01*
X0185950Y0390050D01*
X0186420Y0390160D01*
X0186900Y0390230D01*
X0187380Y0390260D01*
X0187860Y0390250D01*
X0188340Y0390200D01*
X0188820Y0390110D01*
X0189280Y0389990D01*
X0189730Y0389820D01*
X0190170Y0389620D01*
X0190590Y0389390D01*
X0190990Y0389120D01*
X0191370Y0388820D01*
X0191720Y0388490D01*
X0192040Y0388130D01*
X0192340Y0387750D01*
X0192600Y0387340D01*
X0192820Y0386910D01*
X0193020Y0386470D01*
X0193170Y0386020D01*
X0193290Y0385550D01*
X0193370Y0385070D01*
X0193410Y0384590D01*
X0193410Y0384110D01*
X0193370Y0383630D01*
X0193290Y0383150D01*
X0193170Y0382680D01*
X0193020Y0382230D01*
X0192820Y0381790D01*
X0192600Y0381360D01*
X0192340Y0380950D01*
X0192040Y0380570D01*
X0191720Y0380210D01*
X0191370Y0379880D01*
X0190990Y0379580D01*
X0190590Y0379310D01*
X0190170Y0379080D01*
X0189730Y0378880D01*
X0189280Y0378710D01*
X0188820Y0378590D01*
X0188340Y0378500D01*
X0187860Y0378450D01*
X0187380Y0378440D01*
X0186900Y0378470D01*
X0186420Y0378540D01*
X0185950Y0378650D01*
X0185490Y0378790D01*
X0185040Y0378970D01*
X0184610Y0379190D01*
X0184200Y0379440D01*
X0183820Y0379730D01*
X0183450Y0380050D01*
X0183110Y0380390D01*
X0182810Y0380760D01*
X0182530Y0381150D01*
X0182280Y0381570D01*
X0182080Y0382010D01*
X0181900Y0382460D01*
X0181770Y0382920D01*
X0181670Y0383390D01*
X0181610Y0383870D01*
X0181590Y0384350D01*
X0181590Y0206850D02*
X0181610Y0207330D01*
X0181670Y0207810D01*
X0181770Y0208280D01*
X0181900Y0208740D01*
X0182080Y0209190D01*
X0182280Y0209630D01*
X0182530Y0210050D01*
X0182810Y0210440D01*
X0183110Y0210810D01*
X0183450Y0211150D01*
X0183820Y0211470D01*
X0184200Y0211760D01*
X0184610Y0212010D01*
X0185040Y0212230D01*
X0185490Y0212410D01*
X0185950Y0212550D01*
X0186420Y0212660D01*
X0186900Y0212730D01*
X0187380Y0212760D01*
X0187860Y0212750D01*
X0188340Y0212700D01*
X0188820Y0212610D01*
X0189280Y0212490D01*
X0189730Y0212320D01*
X0190170Y0212120D01*
X0190590Y0211890D01*
X0190990Y0211620D01*
X0191370Y0211320D01*
X0191720Y0210990D01*
X0192040Y0210630D01*
X0192340Y0210250D01*
X0192600Y0209840D01*
X0192820Y0209410D01*
X0193020Y0208970D01*
X0193170Y0208520D01*
X0193290Y0208050D01*
X0193370Y0207570D01*
X0193410Y0207090D01*
X0193410Y0206610D01*
X0193370Y0206130D01*
X0193290Y0205650D01*
X0193170Y0205180D01*
X0193020Y0204730D01*
X0192820Y0204290D01*
X0192600Y0203860D01*
X0192340Y0203450D01*
X0192040Y0203070D01*
X0191720Y0202710D01*
X0191370Y0202380D01*
X0190990Y0202080D01*
X0190590Y0201810D01*
X0190170Y0201580D01*
X0189730Y0201380D01*
X0189280Y0201210D01*
X0188820Y0201090D01*
X0188340Y0201000D01*
X0187860Y0200950D01*
X0187380Y0200940D01*
X0186900Y0200970D01*
X0186420Y0201040D01*
X0185950Y0201150D01*
X0185490Y0201290D01*
X0185040Y0201470D01*
X0184610Y0201690D01*
X0184200Y0201940D01*
X0183820Y0202230D01*
X0183450Y0202550D01*
X0183110Y0202890D01*
X0182810Y0203260D01*
X0182530Y0203650D01*
X0182280Y0204070D01*
X0182080Y0204510D01*
X0181900Y0204960D01*
X0181770Y0205420D01*
X0181670Y0205890D01*
X0181610Y0206370D01*
X0181590Y0206850D01*
X0196850Y0196850D02*
G75*
%LPD*%
D79*
X0196850Y0196850D02*
X0196850Y0393700D01*
X0393700Y0393700D01*
X0393700Y0196850D01*
X0196850Y0196850D01*
X0200940Y0206850D02*
X0200960Y0207330D01*
X0201020Y0207810D01*
X0201120Y0208280D01*
X0201250Y0208740D01*
X0201430Y0209190D01*
X0201630Y0209630D01*
X0201880Y0210050D01*
X0202160Y0210440D01*
X0202460Y0210810D01*
X0202800Y0211150D01*
X0203170Y0211470D01*
X0203550Y0211760D01*
X0203960Y0212010D01*
X0204390Y0212230D01*
X0204840Y0212410D01*
X0205300Y0212550D01*
X0205770Y0212660D01*
X0206250Y0212730D01*
X0206730Y0212760D01*
X0207210Y0212750D01*
X0207690Y0212700D01*
X0208170Y0212610D01*
X0208630Y0212490D01*
X0209080Y0212320D01*
X0209520Y0212120D01*
X0209940Y0211890D01*
X0210340Y0211620D01*
X0210720Y0211320D01*
X0211070Y0210990D01*
X0211390Y0210630D01*
X0211690Y0210250D01*
X0211950Y0209840D01*
X0212170Y0209410D01*
X0212370Y0208970D01*
X0212520Y0208520D01*
X0212640Y0208050D01*
X0212720Y0207570D01*
X0212760Y0207090D01*
X0212760Y0206610D01*
X0212720Y0206130D01*
X0212640Y0205650D01*
X0212520Y0205180D01*
X0212370Y0204730D01*
X0212170Y0204290D01*
X0211950Y0203860D01*
X0211690Y0203450D01*
X0211390Y0203070D01*
X0211070Y0202710D01*
X0210720Y0202380D01*
X0210340Y0202080D01*
X0209940Y0201810D01*
X0209520Y0201580D01*
X0209080Y0201380D01*
X0208630Y0201210D01*
X0208170Y0201090D01*
X0207690Y0201000D01*
X0207210Y0200950D01*
X0206730Y0200940D01*
X0206250Y0200970D01*
X0205770Y0201040D01*
X0205300Y0201150D01*
X0204840Y0201290D01*
X0204390Y0201470D01*
X0203960Y0201690D01*
X0203550Y0201940D01*
X0203170Y0202230D01*
X0202800Y0202550D01*
X0202460Y0202890D01*
X0202160Y0203260D01*
X0201880Y0203650D01*
X0201630Y0204070D01*
X0201430Y0204510D01*
X0201250Y0204960D01*
X0201120Y0205420D01*
X0201020Y0205890D01*
X0200960Y0206370D01*
X0200940Y0206850D01*
X0200940Y0384350D02*
X0200960Y0384830D01*
X0201020Y0385310D01*
X0201120Y0385780D01*
X0201250Y0386240D01*
X0201430Y0386690D01*
X0201630Y0387130D01*
X0201880Y0387550D01*
X0202160Y0387940D01*
X0202460Y0388310D01*
X0202800Y0388650D01*
X0203170Y0388970D01*
X0203550Y0389260D01*
X0203960Y0389510D01*
X0204390Y0389730D01*
X0204840Y0389910D01*
X0205300Y0390050D01*
X0205770Y0390160D01*
X0206250Y0390230D01*
X0206730Y0390260D01*
X0207210Y0390250D01*
X0207690Y0390200D01*
X0208170Y0390110D01*
X0208630Y0389990D01*
X0209080Y0389820D01*
X0209520Y0389620D01*
X0209940Y0389390D01*
X0210340Y0389120D01*
X0210720Y0388820D01*
X0211070Y0388490D01*
X0211390Y0388130D01*
X0211690Y0387750D01*
X0211950Y0387340D01*
X0212170Y0386910D01*
X0212370Y0386470D01*
X0212520Y0386020D01*
X0212640Y0385550D01*
X0212720Y0385070D01*
X0212760Y0384590D01*
X0212760Y0384110D01*
X0212720Y0383630D01*
X0212640Y0383150D01*
X0212520Y0382680D01*
X0212370Y0382230D01*
X0212170Y0381790D01*
X0211950Y0381360D01*
X0211690Y0380950D01*
X0211390Y0380570D01*
X0211070Y0380210D01*
X0210720Y0379880D01*
X0210340Y0379580D01*
X0209940Y0379310D01*
X0209520Y0379080D01*
X0209080Y0378880D01*
X0208630Y0378710D01*
X0208170Y0378590D01*
X0207690Y0378500D01*
X0207210Y0378450D01*
X0206730Y0378440D01*
X0206250Y0378470D01*
X0205770Y0378540D01*
X0205300Y0378650D01*
X0204840Y0378790D01*
X0204390Y0378970D01*
X0203960Y0379190D01*
X0203550Y0379440D01*
X0203170Y0379730D01*
X0202800Y0380050D01*
X0202460Y0380390D01*
X0202160Y0380760D01*
X0201880Y0381150D01*
X0201630Y0381570D01*
X0201430Y0382010D01*
X0201250Y0382460D01*
X0201120Y0382920D01*
X0201020Y0383390D01*
X0200960Y0383870D01*
X0200940Y0384350D01*
X0378440Y0384350D02*
X0378460Y0384830D01*
X0378520Y0385310D01*
X0378620Y0385780D01*
X0378750Y0386240D01*
X0378930Y0386690D01*
X0379130Y0387130D01*
X0379380Y0387550D01*
X0379660Y0387940D01*
X0379960Y0388310D01*
X0380300Y0388650D01*
X0380670Y0388970D01*
X0381050Y0389260D01*
X0381460Y0389510D01*
X0381890Y0389730D01*
X0382340Y0389910D01*
X0382800Y0390050D01*
X0383270Y0390160D01*
X0383750Y0390230D01*
X0384230Y0390260D01*
X0384710Y0390250D01*
X0385190Y0390200D01*
X0385670Y0390110D01*
X0386130Y0389990D01*
X0386580Y0389820D01*
X0387020Y0389620D01*
X0387440Y0389390D01*
X0387840Y0389120D01*
X0388220Y0388820D01*
X0388570Y0388490D01*
X0388890Y0388130D01*
X0389190Y0387750D01*
X0389450Y0387340D01*
X0389670Y0386910D01*
X0389870Y0386470D01*
X0390020Y0386020D01*
X0390140Y0385550D01*
X0390220Y0385070D01*
X0390260Y0384590D01*
X0390260Y0384110D01*
X0390220Y0383630D01*
X0390140Y0383150D01*
X0390020Y0382680D01*
X0389870Y0382230D01*
X0389670Y0381790D01*
X0389450Y0381360D01*
X0389190Y0380950D01*
X0388890Y0380570D01*
X0388570Y0380210D01*
X0388220Y0379880D01*
X0387840Y0379580D01*
X0387440Y0379310D01*
X0387020Y0379080D01*
X0386580Y0378880D01*
X0386130Y0378710D01*
X0385670Y0378590D01*
X0385190Y0378500D01*
X0384710Y0378450D01*
X0384230Y0378440D01*
X0383750Y0378470D01*
X0383270Y0378540D01*
X0382800Y0378650D01*
X0382340Y0378790D01*
X0381890Y0378970D01*
X0381460Y0379190D01*
X0381050Y0379440D01*
X0380670Y0379730D01*
X0380300Y0380050D01*
X0379960Y0380390D01*
X0379660Y0380760D01*
X0379380Y0381150D01*
X0379130Y0381570D01*
X0378930Y0382010D01*
X0378750Y0382460D01*
X0378620Y0382920D01*
X0378520Y0383390D01*
X0378460Y0383870D01*
X0378440Y0384350D01*
X0378440Y0206850D02*
X0378460Y0207330D01*
X0378520Y0207810D01*
X0378620Y0208280D01*
X0378750Y0208740D01*
X0378930Y0209190D01*
X0379130Y0209630D01*
X0379380Y0210050D01*
X0379660Y0210440D01*
X0379960Y0210810D01*
X0380300Y0211150D01*
X0380670Y0211470D01*
X0381050Y0211760D01*
X0381460Y0212010D01*
X0381890Y0212230D01*
X0382340Y0212410D01*
X0382800Y0212550D01*
X0383270Y0212660D01*
X0383750Y0212730D01*
X0384230Y0212760D01*
X0384710Y0212750D01*
X0385190Y0212700D01*
X0385670Y0212610D01*
X0386130Y0212490D01*
X0386580Y0212320D01*
X0387020Y0212120D01*
X0387440Y0211890D01*
X0387840Y0211620D01*
X0388220Y0211320D01*
X0388570Y0210990D01*
X0388890Y0210630D01*
X0389190Y0210250D01*
X0389450Y0209840D01*
X0389670Y0209410D01*
X0389870Y0208970D01*
X0390020Y0208520D01*
X0390140Y0208050D01*
X0390220Y0207570D01*
X0390260Y0207090D01*
X0390260Y0206610D01*
X0390220Y0206130D01*
X0390140Y0205650D01*
X0390020Y0205180D01*
X0389870Y0204730D01*
X0389670Y0204290D01*
X0389450Y0203860D01*
X0389190Y0203450D01*
X0388890Y0203070D01*
X0388570Y0202710D01*
X0388220Y0202380D01*
X0387840Y0202080D01*
X0387440Y0201810D01*
X0387020Y0201580D01*
X0386580Y0201380D01*
X0386130Y0201210D01*
X0385670Y0201090D01*
X0385190Y0201000D01*
X0384710Y0200950D01*
X0384230Y0200940D01*
X0383750Y0200970D01*
X0383270Y0201040D01*
X0382800Y0201150D01*
X0382340Y0201290D01*
X0381890Y0201470D01*
X0381460Y0201690D01*
X0381050Y0201940D01*
X0380670Y0202230D01*
X0380300Y0202550D01*
X0379960Y0202890D01*
X0379660Y0203260D01*
X0379380Y0203650D01*
X0379130Y0204070D01*
X0378930Y0204510D01*
X0378750Y0204960D01*
X0378620Y0205420D01*
X0378520Y0205890D01*
X0378460Y0206370D01*
X0378440Y0206850D01*
D79*
X0361700Y0322000D02*
X0358790Y0322000D01*
X0358790Y0323450D01*
X0359280Y0323930D01*
X0359760Y0323930D01*
X0360240Y0323450D01*
X0360240Y0322000D01*
X0360240Y0323450D02*
X0360730Y0323930D01*
X0361210Y0323930D01*
X0361700Y0323450D01*
X0361700Y0322000D01*
X0361210Y0324950D02*
X0360240Y0324950D01*
X0359760Y0325430D01*
X0359760Y0326400D01*
X0360240Y0326880D01*
X0360730Y0326880D01*
X0360730Y0324950D01*
X0361210Y0324950D02*
X0361700Y0325430D01*
X0361700Y0326400D01*
X0361700Y0327890D02*
X0359760Y0327890D01*
X0359760Y0329340D01*
X0360240Y0329830D01*
X0361700Y0329830D01*
X0360730Y0333790D02*
X0358790Y0333790D01*
X0358790Y0335720D02*
X0360730Y0335720D01*
X0361700Y0334750D01*
X0360730Y0333790D01*
X0361210Y0336730D02*
X0361210Y0337220D01*
X0361700Y0337220D01*
X0361700Y0336730D01*
X0361210Y0336730D01*
X0361700Y0341150D02*
X0358790Y0341150D01*
X0358790Y0342600D01*
X0359280Y0343090D01*
X0359760Y0343090D01*
X0360240Y0342600D01*
X0360240Y0341150D01*
X0360240Y0342600D02*
X0360730Y0343090D01*
X0361210Y0343090D01*
X0361700Y0342600D01*
X0361700Y0341150D01*
X0361700Y0344100D02*
X0359760Y0344100D01*
X0359760Y0345070D02*
X0359760Y0345550D01*
X0359760Y0345070D02*
X0360730Y0344100D01*
X0361210Y0346550D02*
X0361700Y0347040D01*
X0361700Y0348010D01*
X0361210Y0348490D01*
X0360240Y0348490D01*
X0359760Y0348010D01*
X0359760Y0347040D01*
X0360240Y0346550D01*
X0361210Y0346550D01*
X0361210Y0349500D02*
X0359760Y0349500D01*
X0361210Y0349500D02*
X0361700Y0349980D01*
X0361210Y0350470D01*
X0361700Y0350950D01*
X0361210Y0351440D01*
X0359760Y0351440D01*
X0359760Y0352450D02*
X0359760Y0353900D01*
X0360240Y0354380D01*
X0361700Y0354380D01*
X0361700Y0352450D02*
X0359760Y0352450D01*
X0273480Y0356780D02*
X0273480Y0357750D01*
X0272520Y0357750D01*
X0273480Y0356780D02*
X0273000Y0356300D01*
X0272030Y0356300D01*
X0271550Y0356780D01*
X0271550Y0358720D01*
X0272030Y0359200D01*
X0273000Y0359200D01*
X0273480Y0358720D01*
X0270540Y0358230D02*
X0270540Y0356300D01*
X0270540Y0357750D02*
X0268600Y0357750D01*
X0268600Y0358230D02*
X0269570Y0359200D01*
X0270540Y0358230D01*
X0268600Y0358230D02*
X0268600Y0356300D01*
X0266620Y0356300D02*
X0266620Y0359200D01*
X0265660Y0359200D02*
X0267590Y0359200D01*
X0264640Y0359200D02*
X0263680Y0359200D01*
X0264160Y0359200D02*
X0264160Y0356780D01*
X0263680Y0356300D01*
X0263190Y0356300D01*
X0262710Y0356780D01*
X0207230Y0260020D02*
X0204100Y0256880D01*
X0207230Y0260020D01*
X0205660Y0260020D02*
X0205660Y0256880D01*
X0205660Y0260020D01*
X0204100Y0260020D02*
X0207230Y0256880D01*
X0204100Y0260020D01*
X0204100Y0258450D02*
X0207230Y0258450D01*
X0204100Y0258450D01*
D53*
X0214100Y0342850D02*
X0218000Y0342850D01*
X0218000Y0346750D01*
X0214100Y0346750D01*
X0214100Y0342850D01*
D33*
X0259290Y0326460D02*
X0259290Y0275280D01*
X0260270Y0274290D01*
X0313420Y0274290D01*
X0314400Y0275280D01*
X0314400Y0328420D01*
X0313420Y0329410D01*
X0262240Y0329410D01*
X0259290Y0326460D01*
X0198100Y0393100D02*
X0198100Y0198100D01*
X0393100Y0198100D01*
X0393100Y0393100D01*
X0198100Y0393100D01*
D79*
X0216850Y0386850D02*
X0216850Y0381850D01*
X0219350Y0379350D01*
X0224350Y0379350D01*
X0226850Y0381850D01*
X0229350Y0379350D01*
X0234350Y0379350D01*
X0236850Y0381850D01*
X0239350Y0379350D01*
X0244350Y0379350D01*
X0246850Y0381850D01*
X0249350Y0379350D01*
X0254350Y0379350D01*
X0256850Y0381850D01*
X0259350Y0379350D01*
X0264350Y0379350D01*
X0266850Y0381850D01*
X0269350Y0379350D01*
X0274350Y0379350D01*
X0276850Y0381850D01*
X0279350Y0379350D01*
X0284350Y0379350D01*
X0286850Y0381850D01*
X0289350Y0379350D01*
X0294350Y0379350D01*
X0296850Y0381850D01*
X0299350Y0379350D01*
X0304350Y0379350D01*
X0306850Y0381850D01*
X0309350Y0379350D01*
X0314350Y0379350D01*
X0316850Y0381850D01*
X0319350Y0379350D01*
X0324350Y0379350D01*
X0326850Y0381850D01*
X0329350Y0379350D01*
X0334350Y0379350D01*
X0336850Y0381850D01*
X0339350Y0379350D01*
X0344350Y0379350D01*
X0346850Y0381850D01*
X0349350Y0379350D01*
X0354350Y0379350D01*
X0356850Y0381850D01*
X0359350Y0379350D01*
X0364350Y0379350D01*
X0366850Y0381850D01*
X0369350Y0379350D01*
X0374350Y0379350D01*
X0376850Y0381850D01*
X0376850Y0386850D01*
X0374350Y0389350D01*
X0369350Y0389350D01*
X0366850Y0386850D01*
X0364350Y0389350D01*
X0359350Y0389350D01*
X0356850Y0386850D01*
X0354350Y0389350D01*
X0349350Y0389350D01*
X0346850Y0386850D01*
X0344350Y0389350D01*
X0339350Y0389350D01*
X0336850Y0386850D01*
X0334350Y0389350D01*
X0329350Y0389350D01*
X0326850Y0386850D01*
X0324350Y0389350D01*
X0319350Y0389350D01*
X0316850Y0386850D01*
X0314350Y0389350D01*
X0309350Y0389350D01*
X0306850Y0386850D01*
X0304350Y0389350D01*
X0299350Y0389350D01*
X0296850Y0386850D01*
X0294350Y0389350D01*
X0289350Y0389350D01*
X0286850Y0386850D01*
X0284350Y0389350D01*
X0279350Y0389350D01*
X0276850Y0386850D01*
X0274350Y0389350D01*
X0269350Y0389350D01*
X0266850Y0386850D01*
X0264350Y0389350D01*
X0259350Y0389350D01*
X0256850Y0386850D01*
X0254350Y0389350D01*
X0249350Y0389350D01*
X0246850Y0386850D01*
X0244350Y0389350D01*
X0239350Y0389350D01*
X0236850Y0386850D01*
X0234350Y0389350D01*
X0229350Y0389350D01*
X0226850Y0386850D01*
X0224350Y0389350D01*
X0219350Y0389350D01*
X0216850Y0386850D01*
X0216850Y0381850D01*
X0208310Y0371850D02*
X0208310Y0366850D01*
X0205810Y0364350D01*
X0208310Y0361850D01*
X0208310Y0356850D01*
X0205810Y0354350D01*
X0200810Y0354350D01*
X0198310Y0356850D01*
X0198310Y0361850D01*
X0200810Y0364350D01*
X0198310Y0366850D01*
X0198310Y0371850D01*
X0200810Y0374350D01*
X0205810Y0374350D01*
X0208310Y0371850D01*
X0206440Y0359950D02*
X0203640Y0357150D01*
X0204340Y0357850D02*
X0206440Y0355750D01*
X0203640Y0355750D02*
X0203640Y0359950D01*
X0201840Y0355750D02*
X0199040Y0355750D01*
X0199040Y0359950D01*
X0197240Y0359250D02*
X0197240Y0358550D01*
X0196850Y0358160D01*
X0196540Y0357850D02*
X0196850Y0356060D02*
X0197240Y0356450D01*
X0197240Y0357150D01*
X0196850Y0357540D01*
X0196540Y0357850D02*
X0197240Y0359250D02*
X0196850Y0359640D01*
X0196540Y0359950D02*
X0214350Y0346850D02*
X0219350Y0346850D01*
X0221850Y0306850D02*
X0219350Y0304350D01*
X0219350Y0299350D01*
X0221850Y0296850D01*
X0219350Y0294350D01*
X0219350Y0289350D01*
X0221850Y0286850D01*
X0226850Y0286850D01*
X0229350Y0289350D01*
X0229350Y0294350D01*
X0226850Y0296850D01*
X0229350Y0299350D01*
X0229350Y0304350D01*
X0226850Y0306850D01*
X0221850Y0306850D01*
X0206440Y0292950D02*
X0206440Y0288750D01*
X0203640Y0292950D01*
X0203640Y0288750D01*
X0201840Y0288750D02*
X0200440Y0290150D01*
X0201140Y0290150D02*
X0199040Y0290150D01*
X0199040Y0288750D02*
X0199040Y0292950D01*
X0201140Y0292950D01*
X0201840Y0292250D01*
X0201840Y0290850D01*
X0201140Y0290150D01*
X0197390Y0288990D02*
X0197390Y0262210D01*
X0208020Y0262210D02*
X0214320Y0262210D01*
X0214320Y0266940D01*
X0208800Y0266940D01*
X0208800Y0284260D01*
X0214320Y0284260D01*
X0214320Y0288990D01*
X0208020Y0288990D01*
X0197240Y0289450D02*
X0197240Y0290850D01*
X0196850Y0290850D01*
X0195830Y0290850D02*
X0196850Y0289060D02*
X0197240Y0289450D01*
X0197240Y0292250D02*
X0196850Y0292640D01*
X0196540Y0292950D02*
X0204470Y0233190D02*
X0200940Y0229650D01*
X0200940Y0226120D01*
X0204470Y0222580D01*
X0208010Y0222580D01*
X0208010Y0219050D01*
X0211540Y0215510D01*
X0215080Y0215510D01*
X0218610Y0219050D01*
X0218610Y0222580D01*
X0215080Y0226120D01*
X0211540Y0226120D01*
X0211540Y0229650D01*
X0208010Y0233190D01*
X0204470Y0233190D01*
X0219350Y0211850D02*
X0216850Y0209350D01*
X0216850Y0204350D01*
X0219350Y0201850D01*
X0224350Y0201850D01*
X0226850Y0204350D01*
X0229350Y0201850D01*
X0234350Y0201850D01*
X0236850Y0204350D01*
X0239350Y0201850D01*
X0244350Y0201850D01*
X0246850Y0204350D01*
X0249350Y0201850D01*
X0254350Y0201850D01*
X0256850Y0204350D01*
X0259350Y0201850D01*
X0264350Y0201850D01*
X0266850Y0204350D01*
X0269350Y0201850D01*
X0274350Y0201850D01*
X0276850Y0204350D01*
X0279350Y0201850D01*
X0284350Y0201850D01*
X0286850Y0204350D01*
X0289350Y0201850D01*
X0294350Y0201850D01*
X0296850Y0204350D01*
X0299350Y0201850D01*
X0304350Y0201850D01*
X0306850Y0204350D01*
X0309350Y0201850D01*
X0314350Y0201850D01*
X0316850Y0204350D01*
X0319350Y0201850D01*
X0324350Y0201850D01*
X0326850Y0204350D01*
X0329350Y0201850D01*
X0334350Y0201850D01*
X0336850Y0204350D01*
X0339350Y0201850D01*
X0344350Y0201850D01*
X0346850Y0204350D01*
X0349350Y0201850D01*
X0354350Y0201850D01*
X0356850Y0204350D01*
X0359350Y0201850D01*
X0364350Y0201850D01*
X0366850Y0204350D01*
X0369350Y0201850D01*
X0374350Y0201850D01*
X0376850Y0204350D01*
X0376850Y0209350D01*
X0374350Y0211850D01*
X0369350Y0211850D01*
X0366850Y0209350D01*
X0364350Y0211850D01*
X0359350Y0211850D01*
X0356850Y0209350D01*
X0354350Y0211850D01*
X0349350Y0211850D01*
X0346850Y0209350D01*
X0344350Y0211850D01*
X0339350Y0211850D01*
X0336850Y0209350D01*
X0334350Y0211850D01*
X0329350Y0211850D01*
X0326850Y0209350D01*
X0324350Y0211850D01*
X0319350Y0211850D01*
X0316850Y0209350D01*
X0314350Y0211850D01*
X0309350Y0211850D01*
X0306850Y0209350D01*
X0304350Y0211850D01*
X0299350Y0211850D01*
X0296850Y0209350D01*
X0294350Y0211850D01*
X0289350Y0211850D01*
X0286850Y0209350D01*
X0284350Y0211850D01*
X0279350Y0211850D01*
X0276850Y0209350D01*
X0274350Y0211850D01*
X0269350Y0211850D01*
X0266850Y0209350D01*
X0264350Y0211850D01*
X0259350Y0211850D01*
X0256850Y0209350D01*
X0254350Y0211850D01*
X0249350Y0211850D01*
X0246850Y0209350D01*
X0244350Y0211850D01*
X0239350Y0211850D01*
X0236850Y0209350D01*
X0234350Y0211850D01*
X0229350Y0211850D01*
X0226850Y0209350D01*
X0224350Y0211850D01*
X0219350Y0211850D01*
X0216850Y0209350D02*
X0216850Y0204350D01*
X0274350Y0256850D02*
X0274350Y0261850D01*
X0276850Y0264350D01*
X0281850Y0264350D01*
X0284350Y0261850D01*
X0286850Y0264350D01*
X0291850Y0264350D01*
X0294350Y0261850D01*
X0294350Y0256850D01*
X0291850Y0254350D01*
X0286850Y0254350D01*
X0284350Y0256850D01*
X0281850Y0254350D01*
X0276850Y0254350D01*
X0274350Y0256850D01*
X0373310Y0222890D02*
X0373310Y0219350D01*
X0376850Y0215810D01*
X0380380Y0215810D01*
X0383920Y0219350D01*
X0383920Y0222890D01*
X0387450Y0222890D01*
X0390990Y0226420D01*
X0390990Y0229960D01*
X0387450Y0233490D01*
X0383920Y0233490D01*
X0380380Y0229960D01*
X0380380Y0226420D01*
X0376850Y0226420D01*
X0373310Y0222890D01*
X0376850Y0209350D02*
X0376850Y0204350D01*
X0377630Y0283750D02*
X0379040Y0283750D01*
X0379740Y0284450D01*
X0379740Y0285850D01*
X0378330Y0285850D01*
X0376930Y0287250D02*
X0376930Y0284450D01*
X0377630Y0283750D01*
X0376930Y0287250D02*
X0377630Y0287950D01*
X0379040Y0287950D01*
X0379740Y0287250D01*
X0381540Y0287950D02*
X0381540Y0283750D01*
X0381540Y0285150D02*
X0383640Y0285150D01*
X0384340Y0285850D01*
X0384340Y0287250D01*
X0383640Y0287950D01*
X0381540Y0287950D01*
X0382940Y0285150D02*
X0384340Y0283750D01*
X0386140Y0283750D02*
X0386140Y0287950D01*
X0388940Y0283750D01*
X0388940Y0287950D01*
X0388940Y0350750D02*
X0386840Y0352850D01*
X0386140Y0352150D02*
X0388940Y0354950D01*
X0389650Y0354050D02*
X0392150Y0356550D01*
X0392150Y0361550D01*
X0389650Y0364050D01*
X0392150Y0366550D01*
X0392150Y0371550D01*
X0389650Y0374050D01*
X0384650Y0374050D01*
X0382150Y0371550D01*
X0382150Y0366550D01*
X0384650Y0364050D01*
X0382150Y0361550D01*
X0382150Y0356550D01*
X0384650Y0354050D01*
X0389650Y0354050D01*
X0386140Y0354950D02*
X0386140Y0350750D01*
X0384340Y0350750D02*
X0381540Y0350750D01*
X0381540Y0354950D01*
X0379740Y0354250D02*
X0379740Y0353550D01*
X0379040Y0352850D01*
X0376930Y0352850D01*
X0376930Y0350750D02*
X0379040Y0350750D01*
X0379740Y0351450D01*
X0379740Y0352150D01*
X0379040Y0352850D01*
X0379740Y0354250D02*
X0379040Y0354950D01*
X0376930Y0354950D01*
X0376930Y0350750D01*
X0376850Y0381850D02*
X0376850Y0386850D01*
D79*
X0261850Y0366850D02*
X0261850Y0351850D01*
X0259350Y0349350D01*
X0254350Y0349350D01*
X0251850Y0351850D01*
X0251850Y0366850D01*
X0254350Y0369350D01*
X0259350Y0369350D01*
X0261850Y0366850D01*
X0251850Y0366850D02*
X0249350Y0369350D01*
X0244350Y0369350D01*
X0241850Y0366850D01*
X0241850Y0351850D01*
X0244350Y0349350D01*
X0249350Y0349350D01*
X0251850Y0351850D01*
X0241850Y0351850D02*
X0239350Y0349350D01*
X0234350Y0349350D01*
X0231850Y0351850D01*
X0231850Y0366850D01*
X0234350Y0369350D01*
X0239350Y0369350D01*
X0241850Y0366850D01*
X0231850Y0366850D02*
X0229350Y0369350D01*
X0224350Y0369350D01*
X0221850Y0366850D01*
X0221850Y0351850D01*
X0224350Y0349350D01*
X0229350Y0349350D01*
X0231850Y0351850D01*
X0221850Y0351850D02*
X0219350Y0349350D01*
X0214350Y0349350D01*
X0211850Y0351850D01*
X0211850Y0366850D01*
X0214350Y0369350D01*
X0219350Y0369350D01*
X0221850Y0366850D01*
X0220650Y0257350D02*
X0220670Y0257140D01*
X0220720Y0256940D01*
X0220810Y0256750D01*
X0220930Y0256580D01*
X0221080Y0256430D01*
X0221250Y0256310D01*
X0221440Y0256220D01*
X0221640Y0256170D01*
X0221850Y0256150D01*
X0222060Y0256170D01*
X0222260Y0256220D01*
X0222450Y0256310D01*
X0222620Y0256430D01*
X0222770Y0256580D01*
X0222890Y0256750D01*
X0222980Y0256940D01*
X0223030Y0257140D01*
X0223050Y0257350D01*
X0220650Y0257350D01*
X0211250Y0257350D01*
X0211250Y0256350D01*
X0211250Y0252350D02*
X0211250Y0251350D01*
X0211250Y0247350D02*
X0211250Y0246350D01*
X0211250Y0242350D02*
X0211250Y0241350D01*
X0211250Y0237350D02*
X0211250Y0236350D01*
X0232450Y0236350D01*
X0232450Y0237350D01*
X0232450Y0241350D02*
X0232450Y0242350D01*
X0232450Y0246350D02*
X0232450Y0247350D01*
X0232450Y0251350D02*
X0232450Y0252350D01*
X0232450Y0256350D02*
X0232450Y0257350D01*
X0223050Y0257350D01*
X0223030Y0257140D01*
X0222980Y0256940D01*
X0222890Y0256750D01*
X0222770Y0256580D01*
X0222620Y0256430D01*
X0222450Y0256310D01*
X0222260Y0256220D01*
X0222060Y0256170D01*
X0221850Y0256150D01*
X0221640Y0256170D01*
X0221440Y0256220D01*
X0221250Y0256310D01*
X0221080Y0256430D01*
X0220930Y0256580D01*
X0220810Y0256750D01*
X0220720Y0256940D01*
X0220670Y0257140D01*
X0220650Y0257350D01*
X0349350Y0257350D02*
X0349350Y0253150D01*
X0349370Y0252920D01*
X0349420Y0252690D01*
X0349510Y0252470D01*
X0349640Y0252270D01*
X0349790Y0252090D01*
X0349970Y0251940D01*
X0350170Y0251810D01*
X0350390Y0251720D01*
X0350620Y0251670D01*
X0350850Y0251650D01*
X0349350Y0257350D02*
X0349350Y0261350D01*
X0349350Y0265550D01*
X0349370Y0265780D01*
X0349420Y0266010D01*
X0349510Y0266230D01*
X0349640Y0266430D01*
X0349790Y0266610D01*
X0349970Y0266760D01*
X0350170Y0266890D01*
X0350390Y0266980D01*
X0350620Y0267030D01*
X0350850Y0267050D01*
X0349350Y0261350D02*
X0349620Y0261330D01*
X0349890Y0261280D01*
X0350150Y0261180D01*
X0350390Y0261060D01*
X0350610Y0260900D01*
X0350810Y0260720D01*
X0350980Y0260500D01*
X0351130Y0260270D01*
X0351230Y0260020D01*
X0351310Y0259760D01*
X0351350Y0259490D01*
X0351350Y0259210D01*
X0351310Y0258940D01*
X0351230Y0258680D01*
X0351130Y0258430D01*
X0350980Y0258200D01*
X0350810Y0257980D01*
X0350610Y0257800D01*
X0350390Y0257640D01*
X0350150Y0257520D01*
X0349890Y0257420D01*
X0349620Y0257370D01*
X0349350Y0257350D01*
X0387850Y0251650D02*
X0388080Y0251670D01*
X0388310Y0251720D01*
X0388530Y0251810D01*
X0388730Y0251940D01*
X0388910Y0252090D01*
X0389060Y0252270D01*
X0389190Y0252470D01*
X0389280Y0252690D01*
X0389330Y0252920D01*
X0389350Y0253150D01*
X0389350Y0265550D01*
X0389330Y0265780D01*
X0389280Y0266010D01*
X0389190Y0266230D01*
X0389060Y0266430D01*
X0388910Y0266610D01*
X0388730Y0266760D01*
X0388530Y0266890D01*
X0388310Y0266980D01*
X0388080Y0267030D01*
X0387850Y0267050D01*
D75*
X0256060Y0328170D03*
D79*
X0260100Y0331530D02*
X0261600Y0331530D01*
X0261600Y0331030D02*
X0261600Y0332030D01*
X0261350Y0332510D02*
X0260350Y0333510D01*
X0261350Y0333510D01*
X0261600Y0333260D01*
X0261600Y0332760D01*
X0261350Y0332510D01*
X0260350Y0332510D01*
X0260100Y0332760D01*
X0260100Y0333260D01*
X0260350Y0333510D01*
X0260350Y0333980D02*
X0260100Y0334230D01*
X0260100Y0334730D01*
X0260350Y0334980D01*
X0261350Y0333980D01*
X0261600Y0334230D01*
X0261600Y0334730D01*
X0261350Y0334980D01*
X0260350Y0334980D01*
X0260350Y0333980D02*
X0261350Y0333980D01*
X0260100Y0331530D02*
X0260600Y0331030D01*
X0312070Y0331430D02*
X0312070Y0332430D01*
X0312320Y0332430D01*
X0313320Y0331430D01*
X0313570Y0331430D01*
X0313320Y0332900D02*
X0313570Y0333150D01*
X0313570Y0333650D01*
X0313320Y0333900D01*
X0313070Y0333900D01*
X0312820Y0333650D01*
X0312820Y0332900D01*
X0313320Y0332900D01*
X0312820Y0332900D02*
X0312320Y0333400D01*
X0312070Y0333900D01*
X0316420Y0328600D02*
X0317420Y0328600D01*
X0317420Y0328350D01*
X0316420Y0327350D01*
X0316420Y0327100D01*
X0317900Y0327350D02*
X0318150Y0327100D01*
X0318650Y0327100D01*
X0318900Y0327350D01*
X0318900Y0327850D01*
X0318650Y0328100D01*
X0318400Y0328100D01*
X0317900Y0327850D01*
X0317900Y0328600D01*
X0318900Y0328600D01*
X0318000Y0276240D02*
X0318000Y0274730D01*
X0317500Y0274730D02*
X0318500Y0274730D01*
X0317500Y0275740D02*
X0318000Y0276240D01*
X0317030Y0276240D02*
X0316030Y0276240D01*
X0316030Y0275490D01*
X0316530Y0275740D01*
X0316780Y0275740D01*
X0317030Y0275490D01*
X0317030Y0274980D01*
X0316780Y0274730D01*
X0316280Y0274730D01*
X0316030Y0274980D01*
X0313570Y0273020D02*
X0313570Y0272520D01*
X0313320Y0272270D01*
X0312320Y0273270D01*
X0313320Y0273270D01*
X0313570Y0273020D01*
X0313320Y0272270D02*
X0312320Y0272270D01*
X0312070Y0272520D01*
X0312070Y0273020D01*
X0312320Y0273270D01*
X0312070Y0271800D02*
X0312070Y0270800D01*
X0312820Y0270800D01*
X0312570Y0271300D01*
X0312570Y0271550D01*
X0312820Y0271800D01*
X0313320Y0271800D01*
X0313570Y0271550D01*
X0313570Y0271050D01*
X0313320Y0270800D01*
X0261990Y0270400D02*
X0260990Y0271400D01*
X0260740Y0271400D01*
X0260490Y0271150D01*
X0260490Y0270650D01*
X0260740Y0270400D01*
X0261990Y0270400D02*
X0261990Y0271400D01*
X0261740Y0271880D02*
X0261990Y0272130D01*
X0261990Y0272630D01*
X0261740Y0272880D01*
X0261490Y0272880D01*
X0261240Y0272630D01*
X0261240Y0271880D01*
X0261740Y0271880D01*
X0261240Y0271880D02*
X0260740Y0272380D01*
X0260490Y0272880D01*
X0256690Y0275770D02*
X0256440Y0275520D01*
X0255940Y0275520D01*
X0255690Y0275770D01*
X0255690Y0276270D02*
X0256190Y0276520D01*
X0256440Y0276520D01*
X0256690Y0276270D01*
X0256690Y0275770D01*
X0255690Y0276270D02*
X0255690Y0277020D01*
X0256690Y0277020D01*
X0255220Y0276770D02*
X0254970Y0277020D01*
X0254470Y0277020D01*
X0254220Y0276770D01*
X0255220Y0276770D02*
X0255220Y0276520D01*
X0254220Y0275520D01*
X0255220Y0275520D01*
D51*
X0236850Y0354350D03*
D79*
X0209350Y0354350D02*
X0209350Y0294350D01*
X0199350Y0294350D01*
X0199350Y0354350D01*
X0209350Y0354350D01*
X0198100Y0352840D02*
X0197650Y0353290D01*
X0196850Y0353290D01*
X0195840Y0353290D02*
X0196850Y0351490D02*
X0198100Y0351490D01*
X0198100Y0352840D01*
X0198100Y0350350D02*
X0196850Y0350350D01*
X0195390Y0350350D02*
X0196850Y0349520D02*
X0198100Y0350350D01*
X0198100Y0348550D02*
X0196850Y0348550D01*
X0195390Y0348550D02*
X0196850Y0345600D02*
X0197650Y0345600D01*
X0198100Y0346050D01*
X0198100Y0346950D01*
X0197650Y0347400D01*
X0196850Y0347400D01*
X0196740Y0347400D02*
X0197190Y0343290D02*
X0197650Y0343290D01*
X0198100Y0342840D01*
X0198100Y0341940D01*
X0197650Y0341490D01*
X0196850Y0342950D02*
X0197190Y0343290D01*
X0196850Y0339450D02*
X0198100Y0339450D01*
X0197650Y0337400D02*
X0198100Y0336950D01*
X0198100Y0336050D01*
X0197650Y0335600D01*
X0196850Y0335600D01*
X0195840Y0335600D02*
X0196850Y0331490D02*
X0197650Y0331490D01*
X0198100Y0331940D01*
X0198100Y0332840D01*
X0197650Y0333290D01*
X0197650Y0330350D02*
X0198100Y0329900D01*
X0198100Y0329000D01*
X0197650Y0328550D01*
X0196850Y0328550D01*
X0195840Y0328550D02*
X0196850Y0327400D02*
X0197190Y0327400D01*
X0198100Y0326500D01*
X0197190Y0325600D01*
X0196850Y0325600D01*
X0195390Y0325600D02*
X0196850Y0321940D02*
X0198100Y0321940D01*
X0198100Y0321490D02*
X0198100Y0322390D01*
X0198100Y0320350D02*
X0196850Y0319520D01*
X0195390Y0318550D02*
X0196850Y0317290D02*
X0197190Y0316950D01*
X0197190Y0315600D01*
X0197190Y0316500D02*
X0198100Y0317400D01*
X0198100Y0318550D02*
X0196850Y0319380D01*
X0195390Y0320350D02*
X0196850Y0315600D02*
X0198100Y0315600D01*
X0197650Y0313290D02*
X0196850Y0313290D01*
X0195840Y0313290D02*
X0196850Y0311490D02*
X0197650Y0311490D01*
X0198100Y0311940D01*
X0198100Y0312840D01*
X0197650Y0313290D01*
X0198100Y0310350D02*
X0196850Y0309520D01*
X0195390Y0308550D02*
X0196850Y0306500D02*
X0198100Y0306500D01*
X0198100Y0308550D02*
X0196850Y0309380D01*
X0195390Y0310350D02*
X0196850Y0303180D02*
X0197190Y0302840D01*
X0197190Y0301490D01*
X0197190Y0302390D02*
X0198100Y0303290D01*
X0198100Y0301490D02*
X0196850Y0301490D01*
X0195390Y0301490D02*
X0196850Y0299450D02*
X0198100Y0299450D01*
X0197650Y0297400D02*
X0196850Y0297400D01*
X0195840Y0297400D02*
X0196850Y0295600D02*
X0198100Y0295600D01*
X0198100Y0296950D01*
X0197650Y0297400D01*
X0377890Y0296490D02*
X0377890Y0297840D01*
X0378340Y0298290D01*
X0379240Y0298290D01*
X0379690Y0297840D01*
X0379690Y0296490D01*
X0379690Y0297390D02*
X0380600Y0298290D01*
X0380600Y0296490D02*
X0377890Y0296490D01*
X0377890Y0295350D02*
X0377890Y0293550D01*
X0377890Y0294450D02*
X0380600Y0294450D01*
X0380150Y0292400D02*
X0378340Y0292400D01*
X0377890Y0291950D01*
X0377890Y0290600D01*
X0380600Y0290600D01*
X0380600Y0291950D01*
X0380150Y0292400D01*
X0381850Y0289350D02*
X0391850Y0289350D01*
X0391850Y0349350D01*
X0381850Y0349350D01*
X0381850Y0289350D01*
X0377890Y0300600D02*
X0377890Y0302400D01*
X0377890Y0301500D02*
X0380600Y0301500D01*
X0380600Y0303550D02*
X0377890Y0305350D01*
X0378340Y0306490D02*
X0380150Y0306490D01*
X0380600Y0306940D01*
X0380600Y0307840D01*
X0380150Y0308290D01*
X0378340Y0308290D01*
X0377890Y0307840D01*
X0377890Y0306940D01*
X0378340Y0306490D01*
X0380600Y0305350D02*
X0377890Y0303550D01*
X0377890Y0310600D02*
X0377890Y0311950D01*
X0378340Y0312400D01*
X0379240Y0312400D01*
X0379690Y0311950D01*
X0379690Y0310600D01*
X0379690Y0311500D02*
X0380600Y0312400D01*
X0380600Y0313550D02*
X0377890Y0315350D01*
X0377890Y0316490D02*
X0377890Y0317390D01*
X0377890Y0316940D02*
X0380600Y0316940D01*
X0380600Y0316490D02*
X0380600Y0317390D01*
X0380600Y0315350D02*
X0377890Y0313550D01*
X0377890Y0310600D02*
X0380600Y0310600D01*
X0379690Y0320600D02*
X0377890Y0320600D01*
X0377890Y0322400D02*
X0379690Y0322400D01*
X0380600Y0321500D01*
X0379690Y0320600D01*
X0380150Y0323550D02*
X0378340Y0323550D01*
X0377890Y0324000D01*
X0377890Y0324900D01*
X0378340Y0325350D01*
X0378340Y0326490D02*
X0380150Y0326490D01*
X0380600Y0326940D01*
X0380600Y0327840D01*
X0380150Y0328290D01*
X0378340Y0328290D02*
X0377890Y0327840D01*
X0377890Y0326940D01*
X0378340Y0326490D01*
X0380150Y0325350D02*
X0380600Y0324900D01*
X0380600Y0324000D01*
X0380150Y0323550D01*
X0380150Y0330600D02*
X0378340Y0330600D01*
X0377890Y0331050D01*
X0377890Y0331950D01*
X0378340Y0332400D01*
X0377890Y0333550D02*
X0377890Y0335350D01*
X0377890Y0334450D02*
X0380600Y0334450D01*
X0380150Y0336490D02*
X0380600Y0336940D01*
X0380600Y0337840D01*
X0380150Y0338290D01*
X0379690Y0338290D01*
X0379240Y0337840D01*
X0379240Y0336940D01*
X0378790Y0336490D01*
X0378340Y0336490D01*
X0377890Y0336940D01*
X0377890Y0337840D01*
X0378340Y0338290D01*
X0378340Y0340600D02*
X0380150Y0340600D01*
X0380600Y0341050D01*
X0380600Y0341950D01*
X0380150Y0342400D01*
X0379240Y0342400D01*
X0379240Y0341500D01*
X0378340Y0340600D02*
X0377890Y0341050D01*
X0377890Y0341950D01*
X0378340Y0342400D01*
X0377890Y0343550D02*
X0380600Y0345350D01*
X0377890Y0345350D01*
X0377890Y0346490D02*
X0377890Y0347840D01*
X0378340Y0348290D01*
X0380150Y0348290D01*
X0380600Y0347840D01*
X0380600Y0346490D01*
X0377890Y0346490D01*
X0377890Y0343550D02*
X0380600Y0343550D01*
X0380150Y0332400D02*
X0380600Y0331950D01*
X0380600Y0331050D01*
X0380150Y0330600D01*
D79*
X0389350Y0253050D02*
X0349350Y0253050D01*
D79*
X0196850Y0196850D02*
G75*
%LPD*%
D79*
X0196850Y0196850D02*
X0196850Y0393700D01*
X0393700Y0393700D01*
X0393700Y0196850D01*
X0196850Y0196850D01*
X0200940Y0206850D02*
X0200960Y0207330D01*
X0201020Y0207810D01*
X0201120Y0208280D01*
X0201250Y0208740D01*
X0201430Y0209190D01*
X0201630Y0209630D01*
X0201880Y0210050D01*
X0202160Y0210440D01*
X0202460Y0210810D01*
X0202800Y0211150D01*
X0203170Y0211470D01*
X0203550Y0211760D01*
X0203960Y0212010D01*
X0204390Y0212230D01*
X0204840Y0212410D01*
X0205300Y0212550D01*
X0205770Y0212660D01*
X0206250Y0212730D01*
X0206730Y0212760D01*
X0207210Y0212750D01*
X0207690Y0212700D01*
X0208170Y0212610D01*
X0208630Y0212490D01*
X0209080Y0212320D01*
X0209520Y0212120D01*
X0209940Y0211890D01*
X0210340Y0211620D01*
X0210720Y0211320D01*
X0211070Y0210990D01*
X0211390Y0210630D01*
X0211690Y0210250D01*
X0211950Y0209840D01*
X0212170Y0209410D01*
X0212370Y0208970D01*
X0212520Y0208520D01*
X0212640Y0208050D01*
X0212720Y0207570D01*
X0212760Y0207090D01*
X0212760Y0206610D01*
X0212720Y0206130D01*
X0212640Y0205650D01*
X0212520Y0205180D01*
X0212370Y0204730D01*
X0212170Y0204290D01*
X0211950Y0203860D01*
X0211690Y0203450D01*
X0211390Y0203070D01*
X0211070Y0202710D01*
X0210720Y0202380D01*
X0210340Y0202080D01*
X0209940Y0201810D01*
X0209520Y0201580D01*
X0209080Y0201380D01*
X0208630Y0201210D01*
X0208170Y0201090D01*
X0207690Y0201000D01*
X0207210Y0200950D01*
X0206730Y0200940D01*
X0206250Y0200970D01*
X0205770Y0201040D01*
X0205300Y0201150D01*
X0204840Y0201290D01*
X0204390Y0201470D01*
X0203960Y0201690D01*
X0203550Y0201940D01*
X0203170Y0202230D01*
X0202800Y0202550D01*
X0202460Y0202890D01*
X0202160Y0203260D01*
X0201880Y0203650D01*
X0201630Y0204070D01*
X0201430Y0204510D01*
X0201250Y0204960D01*
X0201120Y0205420D01*
X0201020Y0205890D01*
X0200960Y0206370D01*
X0200940Y0206850D01*
X0200940Y0384350D02*
X0200960Y0384830D01*
X0201020Y0385310D01*
X0201120Y0385780D01*
X0201250Y0386240D01*
X0201430Y0386690D01*
X0201630Y0387130D01*
X0201880Y0387550D01*
X0202160Y0387940D01*
X0202460Y0388310D01*
X0202800Y0388650D01*
X0203170Y0388970D01*
X0203550Y0389260D01*
X0203960Y0389510D01*
X0204390Y0389730D01*
X0204840Y0389910D01*
X0205300Y0390050D01*
X0205770Y0390160D01*
X0206250Y0390230D01*
X0206730Y0390260D01*
X0207210Y0390250D01*
X0207690Y0390200D01*
X0208170Y0390110D01*
X0208630Y0389990D01*
X0209080Y0389820D01*
X0209520Y0389620D01*
X0209940Y0389390D01*
X0210340Y0389120D01*
X0210720Y0388820D01*
X0211070Y0388490D01*
X0211390Y0388130D01*
X0211690Y0387750D01*
X0211950Y0387340D01*
X0212170Y0386910D01*
X0212370Y0386470D01*
X0212520Y0386020D01*
X0212640Y0385550D01*
X0212720Y0385070D01*
X0212760Y0384590D01*
X0212760Y0384110D01*
X0212720Y0383630D01*
X0212640Y0383150D01*
X0212520Y0382680D01*
X0212370Y0382230D01*
X0212170Y0381790D01*
X0211950Y0381360D01*
X0211690Y0380950D01*
X0211390Y0380570D01*
X0211070Y0380210D01*
X0210720Y0379880D01*
X0210340Y0379580D01*
X0209940Y0379310D01*
X0209520Y0379080D01*
X0209080Y0378880D01*
X0208630Y0378710D01*
X0208170Y0378590D01*
X0207690Y0378500D01*
X0207210Y0378450D01*
X0206730Y0378440D01*
X0206250Y0378470D01*
X0205770Y0378540D01*
X0205300Y0378650D01*
X0204840Y0378790D01*
X0204390Y0378970D01*
X0203960Y0379190D01*
X0203550Y0379440D01*
X0203170Y0379730D01*
X0202800Y0380050D01*
X0202460Y0380390D01*
X0202160Y0380760D01*
X0201880Y0381150D01*
X0201630Y0381570D01*
X0201430Y0382010D01*
X0201250Y0382460D01*
X0201120Y0382920D01*
X0201020Y0383390D01*
X0200960Y0383870D01*
X0200940Y0384350D01*
X0378440Y0384350D02*
X0378460Y0384830D01*
X0378520Y0385310D01*
X0378620Y0385780D01*
X0378750Y0386240D01*
X0378930Y0386690D01*
X0379130Y0387130D01*
X0379380Y0387550D01*
X0379660Y0387940D01*
X0379960Y0388310D01*
X0380300Y0388650D01*
X0380670Y0388970D01*
X0381050Y0389260D01*
X0381460Y0389510D01*
X0381890Y0389730D01*
X0382340Y0389910D01*
X0382800Y0390050D01*
X0383270Y0390160D01*
X0383750Y0390230D01*
X0384230Y0390260D01*
X0384710Y0390250D01*
X0385190Y0390200D01*
X0385670Y0390110D01*
X0386130Y0389990D01*
X0386580Y0389820D01*
X0387020Y0389620D01*
X0387440Y0389390D01*
X0387840Y0389120D01*
X0388220Y0388820D01*
X0388570Y0388490D01*
X0388890Y0388130D01*
X0389190Y0387750D01*
X0389450Y0387340D01*
X0389670Y0386910D01*
X0389870Y0386470D01*
X0390020Y0386020D01*
X0390140Y0385550D01*
X0390220Y0385070D01*
X0390260Y0384590D01*
X0390260Y0384110D01*
X0390220Y0383630D01*
X0390140Y0383150D01*
X0390020Y0382680D01*
X0389870Y0382230D01*
X0389670Y0381790D01*
X0389450Y0381360D01*
X0389190Y0380950D01*
X0388890Y0380570D01*
X0388570Y0380210D01*
X0388220Y0379880D01*
X0387840Y0379580D01*
X0387440Y0379310D01*
X0387020Y0379080D01*
X0386580Y0378880D01*
X0386130Y0378710D01*
X0385670Y0378590D01*
X0385190Y0378500D01*
X0384710Y0378450D01*
X0384230Y0378440D01*
X0383750Y0378470D01*
X0383270Y0378540D01*
X0382800Y0378650D01*
X0382340Y0378790D01*
X0381890Y0378970D01*
X0381460Y0379190D01*
X0381050Y0379440D01*
X0380670Y0379730D01*
X0380300Y0380050D01*
X0379960Y0380390D01*
X0379660Y0380760D01*
X0379380Y0381150D01*
X0379130Y0381570D01*
X0378930Y0382010D01*
X0378750Y0382460D01*
X0378620Y0382920D01*
X0378520Y0383390D01*
X0378460Y0383870D01*
X0378440Y0384350D01*
X0378440Y0206850D02*
X0378460Y0207330D01*
X0378520Y0207810D01*
X0378620Y0208280D01*
X0378750Y0208740D01*
X0378930Y0209190D01*
X0379130Y0209630D01*
X0379380Y0210050D01*
X0379660Y0210440D01*
X0379960Y0210810D01*
X0380300Y0211150D01*
X0380670Y0211470D01*
X0381050Y0211760D01*
X0381460Y0212010D01*
X0381890Y0212230D01*
X0382340Y0212410D01*
X0382800Y0212550D01*
X0383270Y0212660D01*
X0383750Y0212730D01*
X0384230Y0212760D01*
X0384710Y0212750D01*
X0385190Y0212700D01*
X0385670Y0212610D01*
X0386130Y0212490D01*
X0386580Y0212320D01*
X0387020Y0212120D01*
X0387440Y0211890D01*
X0387840Y0211620D01*
X0388220Y0211320D01*
X0388570Y0210990D01*
X0388890Y0210630D01*
X0389190Y0210250D01*
X0389450Y0209840D01*
X0389670Y0209410D01*
X0389870Y0208970D01*
X0390020Y0208520D01*
X0390140Y0208050D01*
X0390220Y0207570D01*
X0390260Y0207090D01*
X0390260Y0206610D01*
X0390220Y0206130D01*
X0390140Y0205650D01*
X0390020Y0205180D01*
X0389870Y0204730D01*
X0389670Y0204290D01*
X0389450Y0203860D01*
X0389190Y0203450D01*
X0388890Y0203070D01*
X0388570Y0202710D01*
X0388220Y0202380D01*
X0387840Y0202080D01*
X0387440Y0201810D01*
X0387020Y0201580D01*
X0386580Y0201380D01*
X0386130Y0201210D01*
X0385670Y0201090D01*
X0385190Y0201000D01*
X0384710Y0200950D01*
X0384230Y0200940D01*
X0383750Y0200970D01*
X0383270Y0201040D01*
X0382800Y0201150D01*
X0382340Y0201290D01*
X0381890Y0201470D01*
X0381460Y0201690D01*
X0381050Y0201940D01*
X0380670Y0202230D01*
X0380300Y0202550D01*
X0379960Y0202890D01*
X0379660Y0203260D01*
X0379380Y0203650D01*
X0379130Y0204070D01*
X0378930Y0204510D01*
X0378750Y0204960D01*
X0378620Y0205420D01*
X0378520Y0205890D01*
X0378460Y0206370D01*
X0378440Y0206850D01*
D79*
X0012900Y0000400D02*
X0000400Y0000400D01*
X0000400Y0012900D01*
X0393300Y0012900D02*
X0393300Y0000400D01*
X0380800Y0000400D01*
X0380800Y0393300D02*
X0393300Y0393300D01*
X0393300Y0380800D01*
X0000400Y0380800D02*
X0000400Y0393300D01*
X0012900Y0393300D01*
M02*
