G75*
G70*
%OFA0B0*%
%FSLAX25Y25*%
%IPPOS*%
%LPD*%
%AMOC8*
5,1,8,0,0,1.08239X$1,22.5*
%
%ADD33C,0.01000*%
%ADD79C,0.00800*%
X0000000Y0000000D02*
G75*
%LPD*%
D79*
X0000000Y0000000D02*
X0000000Y0196850D01*
X0196850Y0196850D01*
X0196850Y0000000D01*
X0000000Y0000000D01*
X0004090Y0010000D02*
X0004110Y0010480D01*
X0004170Y0010960D01*
X0004270Y0011430D01*
X0004400Y0011890D01*
X0004580Y0012340D01*
X0004780Y0012780D01*
X0005030Y0013200D01*
X0005310Y0013590D01*
X0005610Y0013960D01*
X0005950Y0014300D01*
X0006320Y0014620D01*
X0006700Y0014910D01*
X0007110Y0015160D01*
X0007540Y0015380D01*
X0007990Y0015560D01*
X0008450Y0015700D01*
X0008920Y0015810D01*
X0009400Y0015880D01*
X0009880Y0015910D01*
X0010360Y0015900D01*
X0010840Y0015850D01*
X0011320Y0015760D01*
X0011780Y0015640D01*
X0012230Y0015470D01*
X0012670Y0015270D01*
X0013090Y0015040D01*
X0013490Y0014770D01*
X0013870Y0014470D01*
X0014220Y0014140D01*
X0014540Y0013780D01*
X0014840Y0013400D01*
X0015100Y0012990D01*
X0015320Y0012560D01*
X0015520Y0012120D01*
X0015670Y0011670D01*
X0015790Y0011200D01*
X0015870Y0010720D01*
X0015910Y0010240D01*
X0015910Y0009760D01*
X0015870Y0009280D01*
X0015790Y0008800D01*
X0015670Y0008330D01*
X0015520Y0007880D01*
X0015320Y0007440D01*
X0015100Y0007010D01*
X0014840Y0006600D01*
X0014540Y0006220D01*
X0014220Y0005860D01*
X0013870Y0005530D01*
X0013490Y0005230D01*
X0013090Y0004960D01*
X0012670Y0004730D01*
X0012230Y0004530D01*
X0011780Y0004360D01*
X0011320Y0004240D01*
X0010840Y0004150D01*
X0010360Y0004100D01*
X0009880Y0004090D01*
X0009400Y0004120D01*
X0008920Y0004190D01*
X0008450Y0004300D01*
X0007990Y0004440D01*
X0007540Y0004620D01*
X0007110Y0004840D01*
X0006700Y0005090D01*
X0006320Y0005380D01*
X0005950Y0005700D01*
X0005610Y0006040D01*
X0005310Y0006410D01*
X0005030Y0006800D01*
X0004780Y0007220D01*
X0004580Y0007660D01*
X0004400Y0008110D01*
X0004270Y0008570D01*
X0004170Y0009040D01*
X0004110Y0009520D01*
X0004090Y0010000D01*
X0004090Y0187500D02*
X0004110Y0187980D01*
X0004170Y0188460D01*
X0004270Y0188930D01*
X0004400Y0189390D01*
X0004580Y0189840D01*
X0004780Y0190280D01*
X0005030Y0190700D01*
X0005310Y0191090D01*
X0005610Y0191460D01*
X0005950Y0191800D01*
X0006320Y0192120D01*
X0006700Y0192410D01*
X0007110Y0192660D01*
X0007540Y0192880D01*
X0007990Y0193060D01*
X0008450Y0193200D01*
X0008920Y0193310D01*
X0009400Y0193380D01*
X0009880Y0193410D01*
X0010360Y0193400D01*
X0010840Y0193350D01*
X0011320Y0193260D01*
X0011780Y0193140D01*
X0012230Y0192970D01*
X0012670Y0192770D01*
X0013090Y0192540D01*
X0013490Y0192270D01*
X0013870Y0191970D01*
X0014220Y0191640D01*
X0014540Y0191280D01*
X0014840Y0190900D01*
X0015100Y0190490D01*
X0015320Y0190060D01*
X0015520Y0189620D01*
X0015670Y0189170D01*
X0015790Y0188700D01*
X0015870Y0188220D01*
X0015910Y0187740D01*
X0015910Y0187260D01*
X0015870Y0186780D01*
X0015790Y0186300D01*
X0015670Y0185830D01*
X0015520Y0185380D01*
X0015320Y0184940D01*
X0015100Y0184510D01*
X0014840Y0184100D01*
X0014540Y0183720D01*
X0014220Y0183360D01*
X0013870Y0183030D01*
X0013490Y0182730D01*
X0013090Y0182460D01*
X0012670Y0182230D01*
X0012230Y0182030D01*
X0011780Y0181860D01*
X0011320Y0181740D01*
X0010840Y0181650D01*
X0010360Y0181600D01*
X0009880Y0181590D01*
X0009400Y0181620D01*
X0008920Y0181690D01*
X0008450Y0181800D01*
X0007990Y0181940D01*
X0007540Y0182120D01*
X0007110Y0182340D01*
X0006700Y0182590D01*
X0006320Y0182880D01*
X0005950Y0183200D01*
X0005610Y0183540D01*
X0005310Y0183910D01*
X0005030Y0184300D01*
X0004780Y0184720D01*
X0004580Y0185160D01*
X0004400Y0185610D01*
X0004270Y0186070D01*
X0004170Y0186540D01*
X0004110Y0187020D01*
X0004090Y0187500D01*
X0181590Y0187500D02*
X0181610Y0187980D01*
X0181670Y0188460D01*
X0181770Y0188930D01*
X0181900Y0189390D01*
X0182080Y0189840D01*
X0182280Y0190280D01*
X0182530Y0190700D01*
X0182810Y0191090D01*
X0183110Y0191460D01*
X0183450Y0191800D01*
X0183820Y0192120D01*
X0184200Y0192410D01*
X0184610Y0192660D01*
X0185040Y0192880D01*
X0185490Y0193060D01*
X0185950Y0193200D01*
X0186420Y0193310D01*
X0186900Y0193380D01*
X0187380Y0193410D01*
X0187860Y0193400D01*
X0188340Y0193350D01*
X0188820Y0193260D01*
X0189280Y0193140D01*
X0189730Y0192970D01*
X0190170Y0192770D01*
X0190590Y0192540D01*
X0190990Y0192270D01*
X0191370Y0191970D01*
X0191720Y0191640D01*
X0192040Y0191280D01*
X0192340Y0190900D01*
X0192600Y0190490D01*
X0192820Y0190060D01*
X0193020Y0189620D01*
X0193170Y0189170D01*
X0193290Y0188700D01*
X0193370Y0188220D01*
X0193410Y0187740D01*
X0193410Y0187260D01*
X0193370Y0186780D01*
X0193290Y0186300D01*
X0193170Y0185830D01*
X0193020Y0185380D01*
X0192820Y0184940D01*
X0192600Y0184510D01*
X0192340Y0184100D01*
X0192040Y0183720D01*
X0191720Y0183360D01*
X0191370Y0183030D01*
X0190990Y0182730D01*
X0190590Y0182460D01*
X0190170Y0182230D01*
X0189730Y0182030D01*
X0189280Y0181860D01*
X0188820Y0181740D01*
X0188340Y0181650D01*
X0187860Y0181600D01*
X0187380Y0181590D01*
X0186900Y0181620D01*
X0186420Y0181690D01*
X0185950Y0181800D01*
X0185490Y0181940D01*
X0185040Y0182120D01*
X0184610Y0182340D01*
X0184200Y0182590D01*
X0183820Y0182880D01*
X0183450Y0183200D01*
X0183110Y0183540D01*
X0182810Y0183910D01*
X0182530Y0184300D01*
X0182280Y0184720D01*
X0182080Y0185160D01*
X0181900Y0185610D01*
X0181770Y0186070D01*
X0181670Y0186540D01*
X0181610Y0187020D01*
X0181590Y0187500D01*
X0181590Y0010000D02*
X0181610Y0010480D01*
X0181670Y0010960D01*
X0181770Y0011430D01*
X0181900Y0011890D01*
X0182080Y0012340D01*
X0182280Y0012780D01*
X0182530Y0013200D01*
X0182810Y0013590D01*
X0183110Y0013960D01*
X0183450Y0014300D01*
X0183820Y0014620D01*
X0184200Y0014910D01*
X0184610Y0015160D01*
X0185040Y0015380D01*
X0185490Y0015560D01*
X0185950Y0015700D01*
X0186420Y0015810D01*
X0186900Y0015880D01*
X0187380Y0015910D01*
X0187860Y0015900D01*
X0188340Y0015850D01*
X0188820Y0015760D01*
X0189280Y0015640D01*
X0189730Y0015470D01*
X0190170Y0015270D01*
X0190590Y0015040D01*
X0190990Y0014770D01*
X0191370Y0014470D01*
X0191720Y0014140D01*
X0192040Y0013780D01*
X0192340Y0013400D01*
X0192600Y0012990D01*
X0192820Y0012560D01*
X0193020Y0012120D01*
X0193170Y0011670D01*
X0193290Y0011200D01*
X0193370Y0010720D01*
X0193410Y0010240D01*
X0193410Y0009760D01*
X0193370Y0009280D01*
X0193290Y0008800D01*
X0193170Y0008330D01*
X0193020Y0007880D01*
X0192820Y0007440D01*
X0192600Y0007010D01*
X0192340Y0006600D01*
X0192040Y0006220D01*
X0191720Y0005860D01*
X0191370Y0005530D01*
X0190990Y0005230D01*
X0190590Y0004960D01*
X0190170Y0004730D01*
X0189730Y0004530D01*
X0189280Y0004360D01*
X0188820Y0004240D01*
X0188340Y0004150D01*
X0187860Y0004100D01*
X0187380Y0004090D01*
X0186900Y0004120D01*
X0186420Y0004190D01*
X0185950Y0004300D01*
X0185490Y0004440D01*
X0185040Y0004620D01*
X0184610Y0004840D01*
X0184200Y0005090D01*
X0183820Y0005380D01*
X0183450Y0005700D01*
X0183110Y0006040D01*
X0182810Y0006410D01*
X0182530Y0006800D01*
X0182280Y0007220D01*
X0182080Y0007660D01*
X0181900Y0008110D01*
X0181770Y0008570D01*
X0181670Y0009040D01*
X0181610Y0009520D01*
X0181590Y0010000D01*
D79*
X0000000Y0000000D02*
G75*
%LPD*%
D79*
X0000000Y0000000D02*
X0000000Y0196850D01*
X0196850Y0196850D01*
X0196850Y0000000D01*
X0000000Y0000000D01*
X0004090Y0010000D02*
X0004110Y0010480D01*
X0004170Y0010960D01*
X0004270Y0011430D01*
X0004400Y0011890D01*
X0004580Y0012340D01*
X0004780Y0012780D01*
X0005030Y0013200D01*
X0005310Y0013590D01*
X0005610Y0013960D01*
X0005950Y0014300D01*
X0006320Y0014620D01*
X0006700Y0014910D01*
X0007110Y0015160D01*
X0007540Y0015380D01*
X0007990Y0015560D01*
X0008450Y0015700D01*
X0008920Y0015810D01*
X0009400Y0015880D01*
X0009880Y0015910D01*
X0010360Y0015900D01*
X0010840Y0015850D01*
X0011320Y0015760D01*
X0011780Y0015640D01*
X0012230Y0015470D01*
X0012670Y0015270D01*
X0013090Y0015040D01*
X0013490Y0014770D01*
X0013870Y0014470D01*
X0014220Y0014140D01*
X0014540Y0013780D01*
X0014840Y0013400D01*
X0015100Y0012990D01*
X0015320Y0012560D01*
X0015520Y0012120D01*
X0015670Y0011670D01*
X0015790Y0011200D01*
X0015870Y0010720D01*
X0015910Y0010240D01*
X0015910Y0009760D01*
X0015870Y0009280D01*
X0015790Y0008800D01*
X0015670Y0008330D01*
X0015520Y0007880D01*
X0015320Y0007440D01*
X0015100Y0007010D01*
X0014840Y0006600D01*
X0014540Y0006220D01*
X0014220Y0005860D01*
X0013870Y0005530D01*
X0013490Y0005230D01*
X0013090Y0004960D01*
X0012670Y0004730D01*
X0012230Y0004530D01*
X0011780Y0004360D01*
X0011320Y0004240D01*
X0010840Y0004150D01*
X0010360Y0004100D01*
X0009880Y0004090D01*
X0009400Y0004120D01*
X0008920Y0004190D01*
X0008450Y0004300D01*
X0007990Y0004440D01*
X0007540Y0004620D01*
X0007110Y0004840D01*
X0006700Y0005090D01*
X0006320Y0005380D01*
X0005950Y0005700D01*
X0005610Y0006040D01*
X0005310Y0006410D01*
X0005030Y0006800D01*
X0004780Y0007220D01*
X0004580Y0007660D01*
X0004400Y0008110D01*
X0004270Y0008570D01*
X0004170Y0009040D01*
X0004110Y0009520D01*
X0004090Y0010000D01*
X0004090Y0187500D02*
X0004110Y0187980D01*
X0004170Y0188460D01*
X0004270Y0188930D01*
X0004400Y0189390D01*
X0004580Y0189840D01*
X0004780Y0190280D01*
X0005030Y0190700D01*
X0005310Y0191090D01*
X0005610Y0191460D01*
X0005950Y0191800D01*
X0006320Y0192120D01*
X0006700Y0192410D01*
X0007110Y0192660D01*
X0007540Y0192880D01*
X0007990Y0193060D01*
X0008450Y0193200D01*
X0008920Y0193310D01*
X0009400Y0193380D01*
X0009880Y0193410D01*
X0010360Y0193400D01*
X0010840Y0193350D01*
X0011320Y0193260D01*
X0011780Y0193140D01*
X0012230Y0192970D01*
X0012670Y0192770D01*
X0013090Y0192540D01*
X0013490Y0192270D01*
X0013870Y0191970D01*
X0014220Y0191640D01*
X0014540Y0191280D01*
X0014840Y0190900D01*
X0015100Y0190490D01*
X0015320Y0190060D01*
X0015520Y0189620D01*
X0015670Y0189170D01*
X0015790Y0188700D01*
X0015870Y0188220D01*
X0015910Y0187740D01*
X0015910Y0187260D01*
X0015870Y0186780D01*
X0015790Y0186300D01*
X0015670Y0185830D01*
X0015520Y0185380D01*
X0015320Y0184940D01*
X0015100Y0184510D01*
X0014840Y0184100D01*
X0014540Y0183720D01*
X0014220Y0183360D01*
X0013870Y0183030D01*
X0013490Y0182730D01*
X0013090Y0182460D01*
X0012670Y0182230D01*
X0012230Y0182030D01*
X0011780Y0181860D01*
X0011320Y0181740D01*
X0010840Y0181650D01*
X0010360Y0181600D01*
X0009880Y0181590D01*
X0009400Y0181620D01*
X0008920Y0181690D01*
X0008450Y0181800D01*
X0007990Y0181940D01*
X0007540Y0182120D01*
X0007110Y0182340D01*
X0006700Y0182590D01*
X0006320Y0182880D01*
X0005950Y0183200D01*
X0005610Y0183540D01*
X0005310Y0183910D01*
X0005030Y0184300D01*
X0004780Y0184720D01*
X0004580Y0185160D01*
X0004400Y0185610D01*
X0004270Y0186070D01*
X0004170Y0186540D01*
X0004110Y0187020D01*
X0004090Y0187500D01*
X0181590Y0187500D02*
X0181610Y0187980D01*
X0181670Y0188460D01*
X0181770Y0188930D01*
X0181900Y0189390D01*
X0182080Y0189840D01*
X0182280Y0190280D01*
X0182530Y0190700D01*
X0182810Y0191090D01*
X0183110Y0191460D01*
X0183450Y0191800D01*
X0183820Y0192120D01*
X0184200Y0192410D01*
X0184610Y0192660D01*
X0185040Y0192880D01*
X0185490Y0193060D01*
X0185950Y0193200D01*
X0186420Y0193310D01*
X0186900Y0193380D01*
X0187380Y0193410D01*
X0187860Y0193400D01*
X0188340Y0193350D01*
X0188820Y0193260D01*
X0189280Y0193140D01*
X0189730Y0192970D01*
X0190170Y0192770D01*
X0190590Y0192540D01*
X0190990Y0192270D01*
X0191370Y0191970D01*
X0191720Y0191640D01*
X0192040Y0191280D01*
X0192340Y0190900D01*
X0192600Y0190490D01*
X0192820Y0190060D01*
X0193020Y0189620D01*
X0193170Y0189170D01*
X0193290Y0188700D01*
X0193370Y0188220D01*
X0193410Y0187740D01*
X0193410Y0187260D01*
X0193370Y0186780D01*
X0193290Y0186300D01*
X0193170Y0185830D01*
X0193020Y0185380D01*
X0192820Y0184940D01*
X0192600Y0184510D01*
X0192340Y0184100D01*
X0192040Y0183720D01*
X0191720Y0183360D01*
X0191370Y0183030D01*
X0190990Y0182730D01*
X0190590Y0182460D01*
X0190170Y0182230D01*
X0189730Y0182030D01*
X0189280Y0181860D01*
X0188820Y0181740D01*
X0188340Y0181650D01*
X0187860Y0181600D01*
X0187380Y0181590D01*
X0186900Y0181620D01*
X0186420Y0181690D01*
X0185950Y0181800D01*
X0185490Y0181940D01*
X0185040Y0182120D01*
X0184610Y0182340D01*
X0184200Y0182590D01*
X0183820Y0182880D01*
X0183450Y0183200D01*
X0183110Y0183540D01*
X0182810Y0183910D01*
X0182530Y0184300D01*
X0182280Y0184720D01*
X0182080Y0185160D01*
X0181900Y0185610D01*
X0181770Y0186070D01*
X0181670Y0186540D01*
X0181610Y0187020D01*
X0181590Y0187500D01*
X0181590Y0010000D02*
X0181610Y0010480D01*
X0181670Y0010960D01*
X0181770Y0011430D01*
X0181900Y0011890D01*
X0182080Y0012340D01*
X0182280Y0012780D01*
X0182530Y0013200D01*
X0182810Y0013590D01*
X0183110Y0013960D01*
X0183450Y0014300D01*
X0183820Y0014620D01*
X0184200Y0014910D01*
X0184610Y0015160D01*
X0185040Y0015380D01*
X0185490Y0015560D01*
X0185950Y0015700D01*
X0186420Y0015810D01*
X0186900Y0015880D01*
X0187380Y0015910D01*
X0187860Y0015900D01*
X0188340Y0015850D01*
X0188820Y0015760D01*
X0189280Y0015640D01*
X0189730Y0015470D01*
X0190170Y0015270D01*
X0190590Y0015040D01*
X0190990Y0014770D01*
X0191370Y0014470D01*
X0191720Y0014140D01*
X0192040Y0013780D01*
X0192340Y0013400D01*
X0192600Y0012990D01*
X0192820Y0012560D01*
X0193020Y0012120D01*
X0193170Y0011670D01*
X0193290Y0011200D01*
X0193370Y0010720D01*
X0193410Y0010240D01*
X0193410Y0009760D01*
X0193370Y0009280D01*
X0193290Y0008800D01*
X0193170Y0008330D01*
X0193020Y0007880D01*
X0192820Y0007440D01*
X0192600Y0007010D01*
X0192340Y0006600D01*
X0192040Y0006220D01*
X0191720Y0005860D01*
X0191370Y0005530D01*
X0190990Y0005230D01*
X0190590Y0004960D01*
X0190170Y0004730D01*
X0189730Y0004530D01*
X0189280Y0004360D01*
X0188820Y0004240D01*
X0188340Y0004150D01*
X0187860Y0004100D01*
X0187380Y0004090D01*
X0186900Y0004120D01*
X0186420Y0004190D01*
X0185950Y0004300D01*
X0185490Y0004440D01*
X0185040Y0004620D01*
X0184610Y0004840D01*
X0184200Y0005090D01*
X0183820Y0005380D01*
X0183450Y0005700D01*
X0183110Y0006040D01*
X0182810Y0006410D01*
X0182530Y0006800D01*
X0182280Y0007220D01*
X0182080Y0007660D01*
X0181900Y0008110D01*
X0181770Y0008570D01*
X0181670Y0009040D01*
X0181610Y0009520D01*
X0181590Y0010000D01*
X0196850Y0000000D02*
G75*
%LPD*%
D79*
X0196850Y0000000D02*
X0196850Y0196850D01*
X0393700Y0196850D01*
X0393700Y0000000D01*
X0196850Y0000000D01*
X0200940Y0010000D02*
X0200960Y0010480D01*
X0201020Y0010960D01*
X0201120Y0011430D01*
X0201250Y0011890D01*
X0201430Y0012340D01*
X0201630Y0012780D01*
X0201880Y0013200D01*
X0202160Y0013590D01*
X0202460Y0013960D01*
X0202800Y0014300D01*
X0203170Y0014620D01*
X0203550Y0014910D01*
X0203960Y0015160D01*
X0204390Y0015380D01*
X0204840Y0015560D01*
X0205300Y0015700D01*
X0205770Y0015810D01*
X0206250Y0015880D01*
X0206730Y0015910D01*
X0207210Y0015900D01*
X0207690Y0015850D01*
X0208170Y0015760D01*
X0208630Y0015640D01*
X0209080Y0015470D01*
X0209520Y0015270D01*
X0209940Y0015040D01*
X0210340Y0014770D01*
X0210720Y0014470D01*
X0211070Y0014140D01*
X0211390Y0013780D01*
X0211690Y0013400D01*
X0211950Y0012990D01*
X0212170Y0012560D01*
X0212370Y0012120D01*
X0212520Y0011670D01*
X0212640Y0011200D01*
X0212720Y0010720D01*
X0212760Y0010240D01*
X0212760Y0009760D01*
X0212720Y0009280D01*
X0212640Y0008800D01*
X0212520Y0008330D01*
X0212370Y0007880D01*
X0212170Y0007440D01*
X0211950Y0007010D01*
X0211690Y0006600D01*
X0211390Y0006220D01*
X0211070Y0005860D01*
X0210720Y0005530D01*
X0210340Y0005230D01*
X0209940Y0004960D01*
X0209520Y0004730D01*
X0209080Y0004530D01*
X0208630Y0004360D01*
X0208170Y0004240D01*
X0207690Y0004150D01*
X0207210Y0004100D01*
X0206730Y0004090D01*
X0206250Y0004120D01*
X0205770Y0004190D01*
X0205300Y0004300D01*
X0204840Y0004440D01*
X0204390Y0004620D01*
X0203960Y0004840D01*
X0203550Y0005090D01*
X0203170Y0005380D01*
X0202800Y0005700D01*
X0202460Y0006040D01*
X0202160Y0006410D01*
X0201880Y0006800D01*
X0201630Y0007220D01*
X0201430Y0007660D01*
X0201250Y0008110D01*
X0201120Y0008570D01*
X0201020Y0009040D01*
X0200960Y0009520D01*
X0200940Y0010000D01*
X0200940Y0187500D02*
X0200960Y0187980D01*
X0201020Y0188460D01*
X0201120Y0188930D01*
X0201250Y0189390D01*
X0201430Y0189840D01*
X0201630Y0190280D01*
X0201880Y0190700D01*
X0202160Y0191090D01*
X0202460Y0191460D01*
X0202800Y0191800D01*
X0203170Y0192120D01*
X0203550Y0192410D01*
X0203960Y0192660D01*
X0204390Y0192880D01*
X0204840Y0193060D01*
X0205300Y0193200D01*
X0205770Y0193310D01*
X0206250Y0193380D01*
X0206730Y0193410D01*
X0207210Y0193400D01*
X0207690Y0193350D01*
X0208170Y0193260D01*
X0208630Y0193140D01*
X0209080Y0192970D01*
X0209520Y0192770D01*
X0209940Y0192540D01*
X0210340Y0192270D01*
X0210720Y0191970D01*
X0211070Y0191640D01*
X0211390Y0191280D01*
X0211690Y0190900D01*
X0211950Y0190490D01*
X0212170Y0190060D01*
X0212370Y0189620D01*
X0212520Y0189170D01*
X0212640Y0188700D01*
X0212720Y0188220D01*
X0212760Y0187740D01*
X0212760Y0187260D01*
X0212720Y0186780D01*
X0212640Y0186300D01*
X0212520Y0185830D01*
X0212370Y0185380D01*
X0212170Y0184940D01*
X0211950Y0184510D01*
X0211690Y0184100D01*
X0211390Y0183720D01*
X0211070Y0183360D01*
X0210720Y0183030D01*
X0210340Y0182730D01*
X0209940Y0182460D01*
X0209520Y0182230D01*
X0209080Y0182030D01*
X0208630Y0181860D01*
X0208170Y0181740D01*
X0207690Y0181650D01*
X0207210Y0181600D01*
X0206730Y0181590D01*
X0206250Y0181620D01*
X0205770Y0181690D01*
X0205300Y0181800D01*
X0204840Y0181940D01*
X0204390Y0182120D01*
X0203960Y0182340D01*
X0203550Y0182590D01*
X0203170Y0182880D01*
X0202800Y0183200D01*
X0202460Y0183540D01*
X0202160Y0183910D01*
X0201880Y0184300D01*
X0201630Y0184720D01*
X0201430Y0185160D01*
X0201250Y0185610D01*
X0201120Y0186070D01*
X0201020Y0186540D01*
X0200960Y0187020D01*
X0200940Y0187500D01*
X0378440Y0187500D02*
X0378460Y0187980D01*
X0378520Y0188460D01*
X0378620Y0188930D01*
X0378750Y0189390D01*
X0378930Y0189840D01*
X0379130Y0190280D01*
X0379380Y0190700D01*
X0379660Y0191090D01*
X0379960Y0191460D01*
X0380300Y0191800D01*
X0380670Y0192120D01*
X0381050Y0192410D01*
X0381460Y0192660D01*
X0381890Y0192880D01*
X0382340Y0193060D01*
X0382800Y0193200D01*
X0383270Y0193310D01*
X0383750Y0193380D01*
X0384230Y0193410D01*
X0384710Y0193400D01*
X0385190Y0193350D01*
X0385670Y0193260D01*
X0386130Y0193140D01*
X0386580Y0192970D01*
X0387020Y0192770D01*
X0387440Y0192540D01*
X0387840Y0192270D01*
X0388220Y0191970D01*
X0388570Y0191640D01*
X0388890Y0191280D01*
X0389190Y0190900D01*
X0389450Y0190490D01*
X0389670Y0190060D01*
X0389870Y0189620D01*
X0390020Y0189170D01*
X0390140Y0188700D01*
X0390220Y0188220D01*
X0390260Y0187740D01*
X0390260Y0187260D01*
X0390220Y0186780D01*
X0390140Y0186300D01*
X0390020Y0185830D01*
X0389870Y0185380D01*
X0389670Y0184940D01*
X0389450Y0184510D01*
X0389190Y0184100D01*
X0388890Y0183720D01*
X0388570Y0183360D01*
X0388220Y0183030D01*
X0387840Y0182730D01*
X0387440Y0182460D01*
X0387020Y0182230D01*
X0386580Y0182030D01*
X0386130Y0181860D01*
X0385670Y0181740D01*
X0385190Y0181650D01*
X0384710Y0181600D01*
X0384230Y0181590D01*
X0383750Y0181620D01*
X0383270Y0181690D01*
X0382800Y0181800D01*
X0382340Y0181940D01*
X0381890Y0182120D01*
X0381460Y0182340D01*
X0381050Y0182590D01*
X0380670Y0182880D01*
X0380300Y0183200D01*
X0379960Y0183540D01*
X0379660Y0183910D01*
X0379380Y0184300D01*
X0379130Y0184720D01*
X0378930Y0185160D01*
X0378750Y0185610D01*
X0378620Y0186070D01*
X0378520Y0186540D01*
X0378460Y0187020D01*
X0378440Y0187500D01*
X0378440Y0010000D02*
X0378460Y0010480D01*
X0378520Y0010960D01*
X0378620Y0011430D01*
X0378750Y0011890D01*
X0378930Y0012340D01*
X0379130Y0012780D01*
X0379380Y0013200D01*
X0379660Y0013590D01*
X0379960Y0013960D01*
X0380300Y0014300D01*
X0380670Y0014620D01*
X0381050Y0014910D01*
X0381460Y0015160D01*
X0381890Y0015380D01*
X0382340Y0015560D01*
X0382800Y0015700D01*
X0383270Y0015810D01*
X0383750Y0015880D01*
X0384230Y0015910D01*
X0384710Y0015900D01*
X0385190Y0015850D01*
X0385670Y0015760D01*
X0386130Y0015640D01*
X0386580Y0015470D01*
X0387020Y0015270D01*
X0387440Y0015040D01*
X0387840Y0014770D01*
X0388220Y0014470D01*
X0388570Y0014140D01*
X0388890Y0013780D01*
X0389190Y0013400D01*
X0389450Y0012990D01*
X0389670Y0012560D01*
X0389870Y0012120D01*
X0390020Y0011670D01*
X0390140Y0011200D01*
X0390220Y0010720D01*
X0390260Y0010240D01*
X0390260Y0009760D01*
X0390220Y0009280D01*
X0390140Y0008800D01*
X0390020Y0008330D01*
X0389870Y0007880D01*
X0389670Y0007440D01*
X0389450Y0007010D01*
X0389190Y0006600D01*
X0388890Y0006220D01*
X0388570Y0005860D01*
X0388220Y0005530D01*
X0387840Y0005230D01*
X0387440Y0004960D01*
X0387020Y0004730D01*
X0386580Y0004530D01*
X0386130Y0004360D01*
X0385670Y0004240D01*
X0385190Y0004150D01*
X0384710Y0004100D01*
X0384230Y0004090D01*
X0383750Y0004120D01*
X0383270Y0004190D01*
X0382800Y0004300D01*
X0382340Y0004440D01*
X0381890Y0004620D01*
X0381460Y0004840D01*
X0381050Y0005090D01*
X0380670Y0005380D01*
X0380300Y0005700D01*
X0379960Y0006040D01*
X0379660Y0006410D01*
X0379380Y0006800D01*
X0379130Y0007220D01*
X0378930Y0007660D01*
X0378750Y0008110D01*
X0378620Y0008570D01*
X0378520Y0009040D01*
X0378460Y0009520D01*
X0378440Y0010000D01*
D79*
X0196850Y0000000D02*
G75*
%LPD*%
D79*
X0196850Y0000000D02*
X0196850Y0196850D01*
X0393700Y0196850D01*
X0393700Y0000000D01*
X0196850Y0000000D01*
X0200940Y0010000D02*
X0200960Y0010480D01*
X0201020Y0010960D01*
X0201120Y0011430D01*
X0201250Y0011890D01*
X0201430Y0012340D01*
X0201630Y0012780D01*
X0201880Y0013200D01*
X0202160Y0013590D01*
X0202460Y0013960D01*
X0202800Y0014300D01*
X0203170Y0014620D01*
X0203550Y0014910D01*
X0203960Y0015160D01*
X0204390Y0015380D01*
X0204840Y0015560D01*
X0205300Y0015700D01*
X0205770Y0015810D01*
X0206250Y0015880D01*
X0206730Y0015910D01*
X0207210Y0015900D01*
X0207690Y0015850D01*
X0208170Y0015760D01*
X0208630Y0015640D01*
X0209080Y0015470D01*
X0209520Y0015270D01*
X0209940Y0015040D01*
X0210340Y0014770D01*
X0210720Y0014470D01*
X0211070Y0014140D01*
X0211390Y0013780D01*
X0211690Y0013400D01*
X0211950Y0012990D01*
X0212170Y0012560D01*
X0212370Y0012120D01*
X0212520Y0011670D01*
X0212640Y0011200D01*
X0212720Y0010720D01*
X0212760Y0010240D01*
X0212760Y0009760D01*
X0212720Y0009280D01*
X0212640Y0008800D01*
X0212520Y0008330D01*
X0212370Y0007880D01*
X0212170Y0007440D01*
X0211950Y0007010D01*
X0211690Y0006600D01*
X0211390Y0006220D01*
X0211070Y0005860D01*
X0210720Y0005530D01*
X0210340Y0005230D01*
X0209940Y0004960D01*
X0209520Y0004730D01*
X0209080Y0004530D01*
X0208630Y0004360D01*
X0208170Y0004240D01*
X0207690Y0004150D01*
X0207210Y0004100D01*
X0206730Y0004090D01*
X0206250Y0004120D01*
X0205770Y0004190D01*
X0205300Y0004300D01*
X0204840Y0004440D01*
X0204390Y0004620D01*
X0203960Y0004840D01*
X0203550Y0005090D01*
X0203170Y0005380D01*
X0202800Y0005700D01*
X0202460Y0006040D01*
X0202160Y0006410D01*
X0201880Y0006800D01*
X0201630Y0007220D01*
X0201430Y0007660D01*
X0201250Y0008110D01*
X0201120Y0008570D01*
X0201020Y0009040D01*
X0200960Y0009520D01*
X0200940Y0010000D01*
X0200940Y0187500D02*
X0200960Y0187980D01*
X0201020Y0188460D01*
X0201120Y0188930D01*
X0201250Y0189390D01*
X0201430Y0189840D01*
X0201630Y0190280D01*
X0201880Y0190700D01*
X0202160Y0191090D01*
X0202460Y0191460D01*
X0202800Y0191800D01*
X0203170Y0192120D01*
X0203550Y0192410D01*
X0203960Y0192660D01*
X0204390Y0192880D01*
X0204840Y0193060D01*
X0205300Y0193200D01*
X0205770Y0193310D01*
X0206250Y0193380D01*
X0206730Y0193410D01*
X0207210Y0193400D01*
X0207690Y0193350D01*
X0208170Y0193260D01*
X0208630Y0193140D01*
X0209080Y0192970D01*
X0209520Y0192770D01*
X0209940Y0192540D01*
X0210340Y0192270D01*
X0210720Y0191970D01*
X0211070Y0191640D01*
X0211390Y0191280D01*
X0211690Y0190900D01*
X0211950Y0190490D01*
X0212170Y0190060D01*
X0212370Y0189620D01*
X0212520Y0189170D01*
X0212640Y0188700D01*
X0212720Y0188220D01*
X0212760Y0187740D01*
X0212760Y0187260D01*
X0212720Y0186780D01*
X0212640Y0186300D01*
X0212520Y0185830D01*
X0212370Y0185380D01*
X0212170Y0184940D01*
X0211950Y0184510D01*
X0211690Y0184100D01*
X0211390Y0183720D01*
X0211070Y0183360D01*
X0210720Y0183030D01*
X0210340Y0182730D01*
X0209940Y0182460D01*
X0209520Y0182230D01*
X0209080Y0182030D01*
X0208630Y0181860D01*
X0208170Y0181740D01*
X0207690Y0181650D01*
X0207210Y0181600D01*
X0206730Y0181590D01*
X0206250Y0181620D01*
X0205770Y0181690D01*
X0205300Y0181800D01*
X0204840Y0181940D01*
X0204390Y0182120D01*
X0203960Y0182340D01*
X0203550Y0182590D01*
X0203170Y0182880D01*
X0202800Y0183200D01*
X0202460Y0183540D01*
X0202160Y0183910D01*
X0201880Y0184300D01*
X0201630Y0184720D01*
X0201430Y0185160D01*
X0201250Y0185610D01*
X0201120Y0186070D01*
X0201020Y0186540D01*
X0200960Y0187020D01*
X0200940Y0187500D01*
X0378440Y0187500D02*
X0378460Y0187980D01*
X0378520Y0188460D01*
X0378620Y0188930D01*
X0378750Y0189390D01*
X0378930Y0189840D01*
X0379130Y0190280D01*
X0379380Y0190700D01*
X0379660Y0191090D01*
X0379960Y0191460D01*
X0380300Y0191800D01*
X0380670Y0192120D01*
X0381050Y0192410D01*
X0381460Y0192660D01*
X0381890Y0192880D01*
X0382340Y0193060D01*
X0382800Y0193200D01*
X0383270Y0193310D01*
X0383750Y0193380D01*
X0384230Y0193410D01*
X0384710Y0193400D01*
X0385190Y0193350D01*
X0385670Y0193260D01*
X0386130Y0193140D01*
X0386580Y0192970D01*
X0387020Y0192770D01*
X0387440Y0192540D01*
X0387840Y0192270D01*
X0388220Y0191970D01*
X0388570Y0191640D01*
X0388890Y0191280D01*
X0389190Y0190900D01*
X0389450Y0190490D01*
X0389670Y0190060D01*
X0389870Y0189620D01*
X0390020Y0189170D01*
X0390140Y0188700D01*
X0390220Y0188220D01*
X0390260Y0187740D01*
X0390260Y0187260D01*
X0390220Y0186780D01*
X0390140Y0186300D01*
X0390020Y0185830D01*
X0389870Y0185380D01*
X0389670Y0184940D01*
X0389450Y0184510D01*
X0389190Y0184100D01*
X0388890Y0183720D01*
X0388570Y0183360D01*
X0388220Y0183030D01*
X0387840Y0182730D01*
X0387440Y0182460D01*
X0387020Y0182230D01*
X0386580Y0182030D01*
X0386130Y0181860D01*
X0385670Y0181740D01*
X0385190Y0181650D01*
X0384710Y0181600D01*
X0384230Y0181590D01*
X0383750Y0181620D01*
X0383270Y0181690D01*
X0382800Y0181800D01*
X0382340Y0181940D01*
X0381890Y0182120D01*
X0381460Y0182340D01*
X0381050Y0182590D01*
X0380670Y0182880D01*
X0380300Y0183200D01*
X0379960Y0183540D01*
X0379660Y0183910D01*
X0379380Y0184300D01*
X0379130Y0184720D01*
X0378930Y0185160D01*
X0378750Y0185610D01*
X0378620Y0186070D01*
X0378520Y0186540D01*
X0378460Y0187020D01*
X0378440Y0187500D01*
X0378440Y0010000D02*
X0378460Y0010480D01*
X0378520Y0010960D01*
X0378620Y0011430D01*
X0378750Y0011890D01*
X0378930Y0012340D01*
X0379130Y0012780D01*
X0379380Y0013200D01*
X0379660Y0013590D01*
X0379960Y0013960D01*
X0380300Y0014300D01*
X0380670Y0014620D01*
X0381050Y0014910D01*
X0381460Y0015160D01*
X0381890Y0015380D01*
X0382340Y0015560D01*
X0382800Y0015700D01*
X0383270Y0015810D01*
X0383750Y0015880D01*
X0384230Y0015910D01*
X0384710Y0015900D01*
X0385190Y0015850D01*
X0385670Y0015760D01*
X0386130Y0015640D01*
X0386580Y0015470D01*
X0387020Y0015270D01*
X0387440Y0015040D01*
X0387840Y0014770D01*
X0388220Y0014470D01*
X0388570Y0014140D01*
X0388890Y0013780D01*
X0389190Y0013400D01*
X0389450Y0012990D01*
X0389670Y0012560D01*
X0389870Y0012120D01*
X0390020Y0011670D01*
X0390140Y0011200D01*
X0390220Y0010720D01*
X0390260Y0010240D01*
X0390260Y0009760D01*
X0390220Y0009280D01*
X0390140Y0008800D01*
X0390020Y0008330D01*
X0389870Y0007880D01*
X0389670Y0007440D01*
X0389450Y0007010D01*
X0389190Y0006600D01*
X0388890Y0006220D01*
X0388570Y0005860D01*
X0388220Y0005530D01*
X0387840Y0005230D01*
X0387440Y0004960D01*
X0387020Y0004730D01*
X0386580Y0004530D01*
X0386130Y0004360D01*
X0385670Y0004240D01*
X0385190Y0004150D01*
X0384710Y0004100D01*
X0384230Y0004090D01*
X0383750Y0004120D01*
X0383270Y0004190D01*
X0382800Y0004300D01*
X0382340Y0004440D01*
X0381890Y0004620D01*
X0381460Y0004840D01*
X0381050Y0005090D01*
X0380670Y0005380D01*
X0380300Y0005700D01*
X0379960Y0006040D01*
X0379660Y0006410D01*
X0379380Y0006800D01*
X0379130Y0007220D01*
X0378930Y0007660D01*
X0378750Y0008110D01*
X0378620Y0008570D01*
X0378520Y0009040D01*
X0378460Y0009520D01*
X0378440Y0010000D01*
X0000000Y0196850D02*
G75*
%LPD*%
D79*
X0000000Y0196850D02*
X0000000Y0393700D01*
X0196850Y0393700D01*
X0196850Y0196850D01*
X0000000Y0196850D01*
X0004090Y0206850D02*
X0004110Y0207330D01*
X0004170Y0207810D01*
X0004270Y0208280D01*
X0004400Y0208740D01*
X0004580Y0209190D01*
X0004780Y0209630D01*
X0005030Y0210050D01*
X0005310Y0210440D01*
X0005610Y0210810D01*
X0005950Y0211150D01*
X0006320Y0211470D01*
X0006700Y0211760D01*
X0007110Y0212010D01*
X0007540Y0212230D01*
X0007990Y0212410D01*
X0008450Y0212550D01*
X0008920Y0212660D01*
X0009400Y0212730D01*
X0009880Y0212760D01*
X0010360Y0212750D01*
X0010840Y0212700D01*
X0011320Y0212610D01*
X0011780Y0212490D01*
X0012230Y0212320D01*
X0012670Y0212120D01*
X0013090Y0211890D01*
X0013490Y0211620D01*
X0013870Y0211320D01*
X0014220Y0210990D01*
X0014540Y0210630D01*
X0014840Y0210250D01*
X0015100Y0209840D01*
X0015320Y0209410D01*
X0015520Y0208970D01*
X0015670Y0208520D01*
X0015790Y0208050D01*
X0015870Y0207570D01*
X0015910Y0207090D01*
X0015910Y0206610D01*
X0015870Y0206130D01*
X0015790Y0205650D01*
X0015670Y0205180D01*
X0015520Y0204730D01*
X0015320Y0204290D01*
X0015100Y0203860D01*
X0014840Y0203450D01*
X0014540Y0203070D01*
X0014220Y0202710D01*
X0013870Y0202380D01*
X0013490Y0202080D01*
X0013090Y0201810D01*
X0012670Y0201580D01*
X0012230Y0201380D01*
X0011780Y0201210D01*
X0011320Y0201090D01*
X0010840Y0201000D01*
X0010360Y0200950D01*
X0009880Y0200940D01*
X0009400Y0200970D01*
X0008920Y0201040D01*
X0008450Y0201150D01*
X0007990Y0201290D01*
X0007540Y0201470D01*
X0007110Y0201690D01*
X0006700Y0201940D01*
X0006320Y0202230D01*
X0005950Y0202550D01*
X0005610Y0202890D01*
X0005310Y0203260D01*
X0005030Y0203650D01*
X0004780Y0204070D01*
X0004580Y0204510D01*
X0004400Y0204960D01*
X0004270Y0205420D01*
X0004170Y0205890D01*
X0004110Y0206370D01*
X0004090Y0206850D01*
X0004090Y0384350D02*
X0004110Y0384830D01*
X0004170Y0385310D01*
X0004270Y0385780D01*
X0004400Y0386240D01*
X0004580Y0386690D01*
X0004780Y0387130D01*
X0005030Y0387550D01*
X0005310Y0387940D01*
X0005610Y0388310D01*
X0005950Y0388650D01*
X0006320Y0388970D01*
X0006700Y0389260D01*
X0007110Y0389510D01*
X0007540Y0389730D01*
X0007990Y0389910D01*
X0008450Y0390050D01*
X0008920Y0390160D01*
X0009400Y0390230D01*
X0009880Y0390260D01*
X0010360Y0390250D01*
X0010840Y0390200D01*
X0011320Y0390110D01*
X0011780Y0389990D01*
X0012230Y0389820D01*
X0012670Y0389620D01*
X0013090Y0389390D01*
X0013490Y0389120D01*
X0013870Y0388820D01*
X0014220Y0388490D01*
X0014540Y0388130D01*
X0014840Y0387750D01*
X0015100Y0387340D01*
X0015320Y0386910D01*
X0015520Y0386470D01*
X0015670Y0386020D01*
X0015790Y0385550D01*
X0015870Y0385070D01*
X0015910Y0384590D01*
X0015910Y0384110D01*
X0015870Y0383630D01*
X0015790Y0383150D01*
X0015670Y0382680D01*
X0015520Y0382230D01*
X0015320Y0381790D01*
X0015100Y0381360D01*
X0014840Y0380950D01*
X0014540Y0380570D01*
X0014220Y0380210D01*
X0013870Y0379880D01*
X0013490Y0379580D01*
X0013090Y0379310D01*
X0012670Y0379080D01*
X0012230Y0378880D01*
X0011780Y0378710D01*
X0011320Y0378590D01*
X0010840Y0378500D01*
X0010360Y0378450D01*
X0009880Y0378440D01*
X0009400Y0378470D01*
X0008920Y0378540D01*
X0008450Y0378650D01*
X0007990Y0378790D01*
X0007540Y0378970D01*
X0007110Y0379190D01*
X0006700Y0379440D01*
X0006320Y0379730D01*
X0005950Y0380050D01*
X0005610Y0380390D01*
X0005310Y0380760D01*
X0005030Y0381150D01*
X0004780Y0381570D01*
X0004580Y0382010D01*
X0004400Y0382460D01*
X0004270Y0382920D01*
X0004170Y0383390D01*
X0004110Y0383870D01*
X0004090Y0384350D01*
X0181590Y0384350D02*
X0181610Y0384830D01*
X0181670Y0385310D01*
X0181770Y0385780D01*
X0181900Y0386240D01*
X0182080Y0386690D01*
X0182280Y0387130D01*
X0182530Y0387550D01*
X0182810Y0387940D01*
X0183110Y0388310D01*
X0183450Y0388650D01*
X0183820Y0388970D01*
X0184200Y0389260D01*
X0184610Y0389510D01*
X0185040Y0389730D01*
X0185490Y0389910D01*
X0185950Y0390050D01*
X0186420Y0390160D01*
X0186900Y0390230D01*
X0187380Y0390260D01*
X0187860Y0390250D01*
X0188340Y0390200D01*
X0188820Y0390110D01*
X0189280Y0389990D01*
X0189730Y0389820D01*
X0190170Y0389620D01*
X0190590Y0389390D01*
X0190990Y0389120D01*
X0191370Y0388820D01*
X0191720Y0388490D01*
X0192040Y0388130D01*
X0192340Y0387750D01*
X0192600Y0387340D01*
X0192820Y0386910D01*
X0193020Y0386470D01*
X0193170Y0386020D01*
X0193290Y0385550D01*
X0193370Y0385070D01*
X0193410Y0384590D01*
X0193410Y0384110D01*
X0193370Y0383630D01*
X0193290Y0383150D01*
X0193170Y0382680D01*
X0193020Y0382230D01*
X0192820Y0381790D01*
X0192600Y0381360D01*
X0192340Y0380950D01*
X0192040Y0380570D01*
X0191720Y0380210D01*
X0191370Y0379880D01*
X0190990Y0379580D01*
X0190590Y0379310D01*
X0190170Y0379080D01*
X0189730Y0378880D01*
X0189280Y0378710D01*
X0188820Y0378590D01*
X0188340Y0378500D01*
X0187860Y0378450D01*
X0187380Y0378440D01*
X0186900Y0378470D01*
X0186420Y0378540D01*
X0185950Y0378650D01*
X0185490Y0378790D01*
X0185040Y0378970D01*
X0184610Y0379190D01*
X0184200Y0379440D01*
X0183820Y0379730D01*
X0183450Y0380050D01*
X0183110Y0380390D01*
X0182810Y0380760D01*
X0182530Y0381150D01*
X0182280Y0381570D01*
X0182080Y0382010D01*
X0181900Y0382460D01*
X0181770Y0382920D01*
X0181670Y0383390D01*
X0181610Y0383870D01*
X0181590Y0384350D01*
X0181590Y0206850D02*
X0181610Y0207330D01*
X0181670Y0207810D01*
X0181770Y0208280D01*
X0181900Y0208740D01*
X0182080Y0209190D01*
X0182280Y0209630D01*
X0182530Y0210050D01*
X0182810Y0210440D01*
X0183110Y0210810D01*
X0183450Y0211150D01*
X0183820Y0211470D01*
X0184200Y0211760D01*
X0184610Y0212010D01*
X0185040Y0212230D01*
X0185490Y0212410D01*
X0185950Y0212550D01*
X0186420Y0212660D01*
X0186900Y0212730D01*
X0187380Y0212760D01*
X0187860Y0212750D01*
X0188340Y0212700D01*
X0188820Y0212610D01*
X0189280Y0212490D01*
X0189730Y0212320D01*
X0190170Y0212120D01*
X0190590Y0211890D01*
X0190990Y0211620D01*
X0191370Y0211320D01*
X0191720Y0210990D01*
X0192040Y0210630D01*
X0192340Y0210250D01*
X0192600Y0209840D01*
X0192820Y0209410D01*
X0193020Y0208970D01*
X0193170Y0208520D01*
X0193290Y0208050D01*
X0193370Y0207570D01*
X0193410Y0207090D01*
X0193410Y0206610D01*
X0193370Y0206130D01*
X0193290Y0205650D01*
X0193170Y0205180D01*
X0193020Y0204730D01*
X0192820Y0204290D01*
X0192600Y0203860D01*
X0192340Y0203450D01*
X0192040Y0203070D01*
X0191720Y0202710D01*
X0191370Y0202380D01*
X0190990Y0202080D01*
X0190590Y0201810D01*
X0190170Y0201580D01*
X0189730Y0201380D01*
X0189280Y0201210D01*
X0188820Y0201090D01*
X0188340Y0201000D01*
X0187860Y0200950D01*
X0187380Y0200940D01*
X0186900Y0200970D01*
X0186420Y0201040D01*
X0185950Y0201150D01*
X0185490Y0201290D01*
X0185040Y0201470D01*
X0184610Y0201690D01*
X0184200Y0201940D01*
X0183820Y0202230D01*
X0183450Y0202550D01*
X0183110Y0202890D01*
X0182810Y0203260D01*
X0182530Y0203650D01*
X0182280Y0204070D01*
X0182080Y0204510D01*
X0181900Y0204960D01*
X0181770Y0205420D01*
X0181670Y0205890D01*
X0181610Y0206370D01*
X0181590Y0206850D01*
D33*
X0196250Y0198100D02*
X0001250Y0198100D01*
X0001250Y0393100D01*
X0196250Y0393100D01*
X0196250Y0198100D01*
D79*
X0000000Y0196850D02*
G75*
%LPD*%
D79*
X0000000Y0196850D02*
X0000000Y0393700D01*
X0196850Y0393700D01*
X0196850Y0196850D01*
X0000000Y0196850D01*
X0004090Y0206850D02*
X0004110Y0207330D01*
X0004170Y0207810D01*
X0004270Y0208280D01*
X0004400Y0208740D01*
X0004580Y0209190D01*
X0004780Y0209630D01*
X0005030Y0210050D01*
X0005310Y0210440D01*
X0005610Y0210810D01*
X0005950Y0211150D01*
X0006320Y0211470D01*
X0006700Y0211760D01*
X0007110Y0212010D01*
X0007540Y0212230D01*
X0007990Y0212410D01*
X0008450Y0212550D01*
X0008920Y0212660D01*
X0009400Y0212730D01*
X0009880Y0212760D01*
X0010360Y0212750D01*
X0010840Y0212700D01*
X0011320Y0212610D01*
X0011780Y0212490D01*
X0012230Y0212320D01*
X0012670Y0212120D01*
X0013090Y0211890D01*
X0013490Y0211620D01*
X0013870Y0211320D01*
X0014220Y0210990D01*
X0014540Y0210630D01*
X0014840Y0210250D01*
X0015100Y0209840D01*
X0015320Y0209410D01*
X0015520Y0208970D01*
X0015670Y0208520D01*
X0015790Y0208050D01*
X0015870Y0207570D01*
X0015910Y0207090D01*
X0015910Y0206610D01*
X0015870Y0206130D01*
X0015790Y0205650D01*
X0015670Y0205180D01*
X0015520Y0204730D01*
X0015320Y0204290D01*
X0015100Y0203860D01*
X0014840Y0203450D01*
X0014540Y0203070D01*
X0014220Y0202710D01*
X0013870Y0202380D01*
X0013490Y0202080D01*
X0013090Y0201810D01*
X0012670Y0201580D01*
X0012230Y0201380D01*
X0011780Y0201210D01*
X0011320Y0201090D01*
X0010840Y0201000D01*
X0010360Y0200950D01*
X0009880Y0200940D01*
X0009400Y0200970D01*
X0008920Y0201040D01*
X0008450Y0201150D01*
X0007990Y0201290D01*
X0007540Y0201470D01*
X0007110Y0201690D01*
X0006700Y0201940D01*
X0006320Y0202230D01*
X0005950Y0202550D01*
X0005610Y0202890D01*
X0005310Y0203260D01*
X0005030Y0203650D01*
X0004780Y0204070D01*
X0004580Y0204510D01*
X0004400Y0204960D01*
X0004270Y0205420D01*
X0004170Y0205890D01*
X0004110Y0206370D01*
X0004090Y0206850D01*
X0004090Y0384350D02*
X0004110Y0384830D01*
X0004170Y0385310D01*
X0004270Y0385780D01*
X0004400Y0386240D01*
X0004580Y0386690D01*
X0004780Y0387130D01*
X0005030Y0387550D01*
X0005310Y0387940D01*
X0005610Y0388310D01*
X0005950Y0388650D01*
X0006320Y0388970D01*
X0006700Y0389260D01*
X0007110Y0389510D01*
X0007540Y0389730D01*
X0007990Y0389910D01*
X0008450Y0390050D01*
X0008920Y0390160D01*
X0009400Y0390230D01*
X0009880Y0390260D01*
X0010360Y0390250D01*
X0010840Y0390200D01*
X0011320Y0390110D01*
X0011780Y0389990D01*
X0012230Y0389820D01*
X0012670Y0389620D01*
X0013090Y0389390D01*
X0013490Y0389120D01*
X0013870Y0388820D01*
X0014220Y0388490D01*
X0014540Y0388130D01*
X0014840Y0387750D01*
X0015100Y0387340D01*
X0015320Y0386910D01*
X0015520Y0386470D01*
X0015670Y0386020D01*
X0015790Y0385550D01*
X0015870Y0385070D01*
X0015910Y0384590D01*
X0015910Y0384110D01*
X0015870Y0383630D01*
X0015790Y0383150D01*
X0015670Y0382680D01*
X0015520Y0382230D01*
X0015320Y0381790D01*
X0015100Y0381360D01*
X0014840Y0380950D01*
X0014540Y0380570D01*
X0014220Y0380210D01*
X0013870Y0379880D01*
X0013490Y0379580D01*
X0013090Y0379310D01*
X0012670Y0379080D01*
X0012230Y0378880D01*
X0011780Y0378710D01*
X0011320Y0378590D01*
X0010840Y0378500D01*
X0010360Y0378450D01*
X0009880Y0378440D01*
X0009400Y0378470D01*
X0008920Y0378540D01*
X0008450Y0378650D01*
X0007990Y0378790D01*
X0007540Y0378970D01*
X0007110Y0379190D01*
X0006700Y0379440D01*
X0006320Y0379730D01*
X0005950Y0380050D01*
X0005610Y0380390D01*
X0005310Y0380760D01*
X0005030Y0381150D01*
X0004780Y0381570D01*
X0004580Y0382010D01*
X0004400Y0382460D01*
X0004270Y0382920D01*
X0004170Y0383390D01*
X0004110Y0383870D01*
X0004090Y0384350D01*
X0181590Y0384350D02*
X0181610Y0384830D01*
X0181670Y0385310D01*
X0181770Y0385780D01*
X0181900Y0386240D01*
X0182080Y0386690D01*
X0182280Y0387130D01*
X0182530Y0387550D01*
X0182810Y0387940D01*
X0183110Y0388310D01*
X0183450Y0388650D01*
X0183820Y0388970D01*
X0184200Y0389260D01*
X0184610Y0389510D01*
X0185040Y0389730D01*
X0185490Y0389910D01*
X0185950Y0390050D01*
X0186420Y0390160D01*
X0186900Y0390230D01*
X0187380Y0390260D01*
X0187860Y0390250D01*
X0188340Y0390200D01*
X0188820Y0390110D01*
X0189280Y0389990D01*
X0189730Y0389820D01*
X0190170Y0389620D01*
X0190590Y0389390D01*
X0190990Y0389120D01*
X0191370Y0388820D01*
X0191720Y0388490D01*
X0192040Y0388130D01*
X0192340Y0387750D01*
X0192600Y0387340D01*
X0192820Y0386910D01*
X0193020Y0386470D01*
X0193170Y0386020D01*
X0193290Y0385550D01*
X0193370Y0385070D01*
X0193410Y0384590D01*
X0193410Y0384110D01*
X0193370Y0383630D01*
X0193290Y0383150D01*
X0193170Y0382680D01*
X0193020Y0382230D01*
X0192820Y0381790D01*
X0192600Y0381360D01*
X0192340Y0380950D01*
X0192040Y0380570D01*
X0191720Y0380210D01*
X0191370Y0379880D01*
X0190990Y0379580D01*
X0190590Y0379310D01*
X0190170Y0379080D01*
X0189730Y0378880D01*
X0189280Y0378710D01*
X0188820Y0378590D01*
X0188340Y0378500D01*
X0187860Y0378450D01*
X0187380Y0378440D01*
X0186900Y0378470D01*
X0186420Y0378540D01*
X0185950Y0378650D01*
X0185490Y0378790D01*
X0185040Y0378970D01*
X0184610Y0379190D01*
X0184200Y0379440D01*
X0183820Y0379730D01*
X0183450Y0380050D01*
X0183110Y0380390D01*
X0182810Y0380760D01*
X0182530Y0381150D01*
X0182280Y0381570D01*
X0182080Y0382010D01*
X0181900Y0382460D01*
X0181770Y0382920D01*
X0181670Y0383390D01*
X0181610Y0383870D01*
X0181590Y0384350D01*
X0181590Y0206850D02*
X0181610Y0207330D01*
X0181670Y0207810D01*
X0181770Y0208280D01*
X0181900Y0208740D01*
X0182080Y0209190D01*
X0182280Y0209630D01*
X0182530Y0210050D01*
X0182810Y0210440D01*
X0183110Y0210810D01*
X0183450Y0211150D01*
X0183820Y0211470D01*
X0184200Y0211760D01*
X0184610Y0212010D01*
X0185040Y0212230D01*
X0185490Y0212410D01*
X0185950Y0212550D01*
X0186420Y0212660D01*
X0186900Y0212730D01*
X0187380Y0212760D01*
X0187860Y0212750D01*
X0188340Y0212700D01*
X0188820Y0212610D01*
X0189280Y0212490D01*
X0189730Y0212320D01*
X0190170Y0212120D01*
X0190590Y0211890D01*
X0190990Y0211620D01*
X0191370Y0211320D01*
X0191720Y0210990D01*
X0192040Y0210630D01*
X0192340Y0210250D01*
X0192600Y0209840D01*
X0192820Y0209410D01*
X0193020Y0208970D01*
X0193170Y0208520D01*
X0193290Y0208050D01*
X0193370Y0207570D01*
X0193410Y0207090D01*
X0193410Y0206610D01*
X0193370Y0206130D01*
X0193290Y0205650D01*
X0193170Y0205180D01*
X0193020Y0204730D01*
X0192820Y0204290D01*
X0192600Y0203860D01*
X0192340Y0203450D01*
X0192040Y0203070D01*
X0191720Y0202710D01*
X0191370Y0202380D01*
X0190990Y0202080D01*
X0190590Y0201810D01*
X0190170Y0201580D01*
X0189730Y0201380D01*
X0189280Y0201210D01*
X0188820Y0201090D01*
X0188340Y0201000D01*
X0187860Y0200950D01*
X0187380Y0200940D01*
X0186900Y0200970D01*
X0186420Y0201040D01*
X0185950Y0201150D01*
X0185490Y0201290D01*
X0185040Y0201470D01*
X0184610Y0201690D01*
X0184200Y0201940D01*
X0183820Y0202230D01*
X0183450Y0202550D01*
X0183110Y0202890D01*
X0182810Y0203260D01*
X0182530Y0203650D01*
X0182280Y0204070D01*
X0182080Y0204510D01*
X0181900Y0204960D01*
X0181770Y0205420D01*
X0181670Y0205890D01*
X0181610Y0206370D01*
X0181590Y0206850D01*
X0196850Y0196850D02*
G75*
%LPD*%
D79*
X0196850Y0196850D02*
X0196850Y0393700D01*
X0393700Y0393700D01*
X0393700Y0196850D01*
X0196850Y0196850D01*
X0200940Y0206850D02*
X0200960Y0207330D01*
X0201020Y0207810D01*
X0201120Y0208280D01*
X0201250Y0208740D01*
X0201430Y0209190D01*
X0201630Y0209630D01*
X0201880Y0210050D01*
X0202160Y0210440D01*
X0202460Y0210810D01*
X0202800Y0211150D01*
X0203170Y0211470D01*
X0203550Y0211760D01*
X0203960Y0212010D01*
X0204390Y0212230D01*
X0204840Y0212410D01*
X0205300Y0212550D01*
X0205770Y0212660D01*
X0206250Y0212730D01*
X0206730Y0212760D01*
X0207210Y0212750D01*
X0207690Y0212700D01*
X0208170Y0212610D01*
X0208630Y0212490D01*
X0209080Y0212320D01*
X0209520Y0212120D01*
X0209940Y0211890D01*
X0210340Y0211620D01*
X0210720Y0211320D01*
X0211070Y0210990D01*
X0211390Y0210630D01*
X0211690Y0210250D01*
X0211950Y0209840D01*
X0212170Y0209410D01*
X0212370Y0208970D01*
X0212520Y0208520D01*
X0212640Y0208050D01*
X0212720Y0207570D01*
X0212760Y0207090D01*
X0212760Y0206610D01*
X0212720Y0206130D01*
X0212640Y0205650D01*
X0212520Y0205180D01*
X0212370Y0204730D01*
X0212170Y0204290D01*
X0211950Y0203860D01*
X0211690Y0203450D01*
X0211390Y0203070D01*
X0211070Y0202710D01*
X0210720Y0202380D01*
X0210340Y0202080D01*
X0209940Y0201810D01*
X0209520Y0201580D01*
X0209080Y0201380D01*
X0208630Y0201210D01*
X0208170Y0201090D01*
X0207690Y0201000D01*
X0207210Y0200950D01*
X0206730Y0200940D01*
X0206250Y0200970D01*
X0205770Y0201040D01*
X0205300Y0201150D01*
X0204840Y0201290D01*
X0204390Y0201470D01*
X0203960Y0201690D01*
X0203550Y0201940D01*
X0203170Y0202230D01*
X0202800Y0202550D01*
X0202460Y0202890D01*
X0202160Y0203260D01*
X0201880Y0203650D01*
X0201630Y0204070D01*
X0201430Y0204510D01*
X0201250Y0204960D01*
X0201120Y0205420D01*
X0201020Y0205890D01*
X0200960Y0206370D01*
X0200940Y0206850D01*
X0200940Y0384350D02*
X0200960Y0384830D01*
X0201020Y0385310D01*
X0201120Y0385780D01*
X0201250Y0386240D01*
X0201430Y0386690D01*
X0201630Y0387130D01*
X0201880Y0387550D01*
X0202160Y0387940D01*
X0202460Y0388310D01*
X0202800Y0388650D01*
X0203170Y0388970D01*
X0203550Y0389260D01*
X0203960Y0389510D01*
X0204390Y0389730D01*
X0204840Y0389910D01*
X0205300Y0390050D01*
X0205770Y0390160D01*
X0206250Y0390230D01*
X0206730Y0390260D01*
X0207210Y0390250D01*
X0207690Y0390200D01*
X0208170Y0390110D01*
X0208630Y0389990D01*
X0209080Y0389820D01*
X0209520Y0389620D01*
X0209940Y0389390D01*
X0210340Y0389120D01*
X0210720Y0388820D01*
X0211070Y0388490D01*
X0211390Y0388130D01*
X0211690Y0387750D01*
X0211950Y0387340D01*
X0212170Y0386910D01*
X0212370Y0386470D01*
X0212520Y0386020D01*
X0212640Y0385550D01*
X0212720Y0385070D01*
X0212760Y0384590D01*
X0212760Y0384110D01*
X0212720Y0383630D01*
X0212640Y0383150D01*
X0212520Y0382680D01*
X0212370Y0382230D01*
X0212170Y0381790D01*
X0211950Y0381360D01*
X0211690Y0380950D01*
X0211390Y0380570D01*
X0211070Y0380210D01*
X0210720Y0379880D01*
X0210340Y0379580D01*
X0209940Y0379310D01*
X0209520Y0379080D01*
X0209080Y0378880D01*
X0208630Y0378710D01*
X0208170Y0378590D01*
X0207690Y0378500D01*
X0207210Y0378450D01*
X0206730Y0378440D01*
X0206250Y0378470D01*
X0205770Y0378540D01*
X0205300Y0378650D01*
X0204840Y0378790D01*
X0204390Y0378970D01*
X0203960Y0379190D01*
X0203550Y0379440D01*
X0203170Y0379730D01*
X0202800Y0380050D01*
X0202460Y0380390D01*
X0202160Y0380760D01*
X0201880Y0381150D01*
X0201630Y0381570D01*
X0201430Y0382010D01*
X0201250Y0382460D01*
X0201120Y0382920D01*
X0201020Y0383390D01*
X0200960Y0383870D01*
X0200940Y0384350D01*
X0378440Y0384350D02*
X0378460Y0384830D01*
X0378520Y0385310D01*
X0378620Y0385780D01*
X0378750Y0386240D01*
X0378930Y0386690D01*
X0379130Y0387130D01*
X0379380Y0387550D01*
X0379660Y0387940D01*
X0379960Y0388310D01*
X0380300Y0388650D01*
X0380670Y0388970D01*
X0381050Y0389260D01*
X0381460Y0389510D01*
X0381890Y0389730D01*
X0382340Y0389910D01*
X0382800Y0390050D01*
X0383270Y0390160D01*
X0383750Y0390230D01*
X0384230Y0390260D01*
X0384710Y0390250D01*
X0385190Y0390200D01*
X0385670Y0390110D01*
X0386130Y0389990D01*
X0386580Y0389820D01*
X0387020Y0389620D01*
X0387440Y0389390D01*
X0387840Y0389120D01*
X0388220Y0388820D01*
X0388570Y0388490D01*
X0388890Y0388130D01*
X0389190Y0387750D01*
X0389450Y0387340D01*
X0389670Y0386910D01*
X0389870Y0386470D01*
X0390020Y0386020D01*
X0390140Y0385550D01*
X0390220Y0385070D01*
X0390260Y0384590D01*
X0390260Y0384110D01*
X0390220Y0383630D01*
X0390140Y0383150D01*
X0390020Y0382680D01*
X0389870Y0382230D01*
X0389670Y0381790D01*
X0389450Y0381360D01*
X0389190Y0380950D01*
X0388890Y0380570D01*
X0388570Y0380210D01*
X0388220Y0379880D01*
X0387840Y0379580D01*
X0387440Y0379310D01*
X0387020Y0379080D01*
X0386580Y0378880D01*
X0386130Y0378710D01*
X0385670Y0378590D01*
X0385190Y0378500D01*
X0384710Y0378450D01*
X0384230Y0378440D01*
X0383750Y0378470D01*
X0383270Y0378540D01*
X0382800Y0378650D01*
X0382340Y0378790D01*
X0381890Y0378970D01*
X0381460Y0379190D01*
X0381050Y0379440D01*
X0380670Y0379730D01*
X0380300Y0380050D01*
X0379960Y0380390D01*
X0379660Y0380760D01*
X0379380Y0381150D01*
X0379130Y0381570D01*
X0378930Y0382010D01*
X0378750Y0382460D01*
X0378620Y0382920D01*
X0378520Y0383390D01*
X0378460Y0383870D01*
X0378440Y0384350D01*
X0378440Y0206850D02*
X0378460Y0207330D01*
X0378520Y0207810D01*
X0378620Y0208280D01*
X0378750Y0208740D01*
X0378930Y0209190D01*
X0379130Y0209630D01*
X0379380Y0210050D01*
X0379660Y0210440D01*
X0379960Y0210810D01*
X0380300Y0211150D01*
X0380670Y0211470D01*
X0381050Y0211760D01*
X0381460Y0212010D01*
X0381890Y0212230D01*
X0382340Y0212410D01*
X0382800Y0212550D01*
X0383270Y0212660D01*
X0383750Y0212730D01*
X0384230Y0212760D01*
X0384710Y0212750D01*
X0385190Y0212700D01*
X0385670Y0212610D01*
X0386130Y0212490D01*
X0386580Y0212320D01*
X0387020Y0212120D01*
X0387440Y0211890D01*
X0387840Y0211620D01*
X0388220Y0211320D01*
X0388570Y0210990D01*
X0388890Y0210630D01*
X0389190Y0210250D01*
X0389450Y0209840D01*
X0389670Y0209410D01*
X0389870Y0208970D01*
X0390020Y0208520D01*
X0390140Y0208050D01*
X0390220Y0207570D01*
X0390260Y0207090D01*
X0390260Y0206610D01*
X0390220Y0206130D01*
X0390140Y0205650D01*
X0390020Y0205180D01*
X0389870Y0204730D01*
X0389670Y0204290D01*
X0389450Y0203860D01*
X0389190Y0203450D01*
X0388890Y0203070D01*
X0388570Y0202710D01*
X0388220Y0202380D01*
X0387840Y0202080D01*
X0387440Y0201810D01*
X0387020Y0201580D01*
X0386580Y0201380D01*
X0386130Y0201210D01*
X0385670Y0201090D01*
X0385190Y0201000D01*
X0384710Y0200950D01*
X0384230Y0200940D01*
X0383750Y0200970D01*
X0383270Y0201040D01*
X0382800Y0201150D01*
X0382340Y0201290D01*
X0381890Y0201470D01*
X0381460Y0201690D01*
X0381050Y0201940D01*
X0380670Y0202230D01*
X0380300Y0202550D01*
X0379960Y0202890D01*
X0379660Y0203260D01*
X0379380Y0203650D01*
X0379130Y0204070D01*
X0378930Y0204510D01*
X0378750Y0204960D01*
X0378620Y0205420D01*
X0378520Y0205890D01*
X0378460Y0206370D01*
X0378440Y0206850D01*
D79*
X0366650Y0344550D02*
X0366650Y0349150D01*
X0364340Y0349150D01*
X0363580Y0348390D01*
X0363580Y0346850D01*
X0364340Y0346080D01*
X0366650Y0346080D01*
X0362040Y0346080D02*
X0360510Y0347620D01*
X0359740Y0347620D01*
X0358200Y0346850D02*
X0358200Y0345320D01*
X0357440Y0344550D01*
X0355900Y0344550D01*
X0355140Y0345320D01*
X0355140Y0346850D01*
X0355900Y0347620D01*
X0357440Y0347620D01*
X0358200Y0346850D01*
X0362040Y0347620D02*
X0362040Y0344550D01*
X0353600Y0343020D02*
X0352830Y0343020D01*
X0352070Y0343780D01*
X0352070Y0347620D01*
X0352070Y0349150D02*
X0352070Y0349920D01*
X0349760Y0347620D02*
X0350530Y0346850D01*
X0350530Y0345320D01*
X0349760Y0344550D01*
X0348230Y0344550D01*
X0347460Y0346080D02*
X0350530Y0346080D01*
X0349760Y0347620D02*
X0348230Y0347620D01*
X0347460Y0346850D01*
X0347460Y0346080D01*
X0345930Y0345320D02*
X0345160Y0344550D01*
X0342860Y0344550D01*
X0340560Y0345320D02*
X0339790Y0344550D01*
X0340560Y0345320D02*
X0340560Y0348390D01*
X0341320Y0347620D02*
X0339790Y0347620D01*
X0338250Y0347620D02*
X0338250Y0346850D01*
X0337490Y0346850D01*
X0337490Y0347620D01*
X0338250Y0347620D01*
X0338250Y0345320D02*
X0337490Y0345320D01*
X0337490Y0344550D01*
X0338250Y0344550D01*
X0338250Y0345320D01*
X0342860Y0347620D02*
X0345160Y0347620D01*
X0345930Y0346850D01*
X0345930Y0345320D01*
X0331350Y0345320D02*
X0331350Y0344550D01*
X0328280Y0344550D01*
X0326740Y0345320D02*
X0326740Y0346850D01*
X0325980Y0347620D01*
X0324440Y0347620D01*
X0323680Y0346850D01*
X0323680Y0346080D01*
X0326740Y0346080D01*
X0326740Y0345320D02*
X0325980Y0344550D01*
X0324440Y0344550D01*
X0321370Y0345320D02*
X0320610Y0344550D01*
X0321370Y0345320D02*
X0321370Y0348390D01*
X0322140Y0347620D02*
X0320610Y0347620D01*
X0318300Y0347620D02*
X0316770Y0347620D01*
X0316000Y0346850D01*
X0316000Y0344550D01*
X0318300Y0344550D01*
X0319070Y0345320D01*
X0318300Y0346080D01*
X0316000Y0346080D01*
X0328280Y0348390D02*
X0331350Y0345320D01*
X0328280Y0348390D02*
X0328280Y0349150D01*
X0331350Y0349150D01*
D79*
X0196850Y0196850D02*
G75*
%LPD*%
D79*
X0196850Y0196850D02*
X0196850Y0393700D01*
X0393700Y0393700D01*
X0393700Y0196850D01*
X0196850Y0196850D01*
X0200940Y0206850D02*
X0200960Y0207330D01*
X0201020Y0207810D01*
X0201120Y0208280D01*
X0201250Y0208740D01*
X0201430Y0209190D01*
X0201630Y0209630D01*
X0201880Y0210050D01*
X0202160Y0210440D01*
X0202460Y0210810D01*
X0202800Y0211150D01*
X0203170Y0211470D01*
X0203550Y0211760D01*
X0203960Y0212010D01*
X0204390Y0212230D01*
X0204840Y0212410D01*
X0205300Y0212550D01*
X0205770Y0212660D01*
X0206250Y0212730D01*
X0206730Y0212760D01*
X0207210Y0212750D01*
X0207690Y0212700D01*
X0208170Y0212610D01*
X0208630Y0212490D01*
X0209080Y0212320D01*
X0209520Y0212120D01*
X0209940Y0211890D01*
X0210340Y0211620D01*
X0210720Y0211320D01*
X0211070Y0210990D01*
X0211390Y0210630D01*
X0211690Y0210250D01*
X0211950Y0209840D01*
X0212170Y0209410D01*
X0212370Y0208970D01*
X0212520Y0208520D01*
X0212640Y0208050D01*
X0212720Y0207570D01*
X0212760Y0207090D01*
X0212760Y0206610D01*
X0212720Y0206130D01*
X0212640Y0205650D01*
X0212520Y0205180D01*
X0212370Y0204730D01*
X0212170Y0204290D01*
X0211950Y0203860D01*
X0211690Y0203450D01*
X0211390Y0203070D01*
X0211070Y0202710D01*
X0210720Y0202380D01*
X0210340Y0202080D01*
X0209940Y0201810D01*
X0209520Y0201580D01*
X0209080Y0201380D01*
X0208630Y0201210D01*
X0208170Y0201090D01*
X0207690Y0201000D01*
X0207210Y0200950D01*
X0206730Y0200940D01*
X0206250Y0200970D01*
X0205770Y0201040D01*
X0205300Y0201150D01*
X0204840Y0201290D01*
X0204390Y0201470D01*
X0203960Y0201690D01*
X0203550Y0201940D01*
X0203170Y0202230D01*
X0202800Y0202550D01*
X0202460Y0202890D01*
X0202160Y0203260D01*
X0201880Y0203650D01*
X0201630Y0204070D01*
X0201430Y0204510D01*
X0201250Y0204960D01*
X0201120Y0205420D01*
X0201020Y0205890D01*
X0200960Y0206370D01*
X0200940Y0206850D01*
X0200940Y0384350D02*
X0200960Y0384830D01*
X0201020Y0385310D01*
X0201120Y0385780D01*
X0201250Y0386240D01*
X0201430Y0386690D01*
X0201630Y0387130D01*
X0201880Y0387550D01*
X0202160Y0387940D01*
X0202460Y0388310D01*
X0202800Y0388650D01*
X0203170Y0388970D01*
X0203550Y0389260D01*
X0203960Y0389510D01*
X0204390Y0389730D01*
X0204840Y0389910D01*
X0205300Y0390050D01*
X0205770Y0390160D01*
X0206250Y0390230D01*
X0206730Y0390260D01*
X0207210Y0390250D01*
X0207690Y0390200D01*
X0208170Y0390110D01*
X0208630Y0389990D01*
X0209080Y0389820D01*
X0209520Y0389620D01*
X0209940Y0389390D01*
X0210340Y0389120D01*
X0210720Y0388820D01*
X0211070Y0388490D01*
X0211390Y0388130D01*
X0211690Y0387750D01*
X0211950Y0387340D01*
X0212170Y0386910D01*
X0212370Y0386470D01*
X0212520Y0386020D01*
X0212640Y0385550D01*
X0212720Y0385070D01*
X0212760Y0384590D01*
X0212760Y0384110D01*
X0212720Y0383630D01*
X0212640Y0383150D01*
X0212520Y0382680D01*
X0212370Y0382230D01*
X0212170Y0381790D01*
X0211950Y0381360D01*
X0211690Y0380950D01*
X0211390Y0380570D01*
X0211070Y0380210D01*
X0210720Y0379880D01*
X0210340Y0379580D01*
X0209940Y0379310D01*
X0209520Y0379080D01*
X0209080Y0378880D01*
X0208630Y0378710D01*
X0208170Y0378590D01*
X0207690Y0378500D01*
X0207210Y0378450D01*
X0206730Y0378440D01*
X0206250Y0378470D01*
X0205770Y0378540D01*
X0205300Y0378650D01*
X0204840Y0378790D01*
X0204390Y0378970D01*
X0203960Y0379190D01*
X0203550Y0379440D01*
X0203170Y0379730D01*
X0202800Y0380050D01*
X0202460Y0380390D01*
X0202160Y0380760D01*
X0201880Y0381150D01*
X0201630Y0381570D01*
X0201430Y0382010D01*
X0201250Y0382460D01*
X0201120Y0382920D01*
X0201020Y0383390D01*
X0200960Y0383870D01*
X0200940Y0384350D01*
X0378440Y0384350D02*
X0378460Y0384830D01*
X0378520Y0385310D01*
X0378620Y0385780D01*
X0378750Y0386240D01*
X0378930Y0386690D01*
X0379130Y0387130D01*
X0379380Y0387550D01*
X0379660Y0387940D01*
X0379960Y0388310D01*
X0380300Y0388650D01*
X0380670Y0388970D01*
X0381050Y0389260D01*
X0381460Y0389510D01*
X0381890Y0389730D01*
X0382340Y0389910D01*
X0382800Y0390050D01*
X0383270Y0390160D01*
X0383750Y0390230D01*
X0384230Y0390260D01*
X0384710Y0390250D01*
X0385190Y0390200D01*
X0385670Y0390110D01*
X0386130Y0389990D01*
X0386580Y0389820D01*
X0387020Y0389620D01*
X0387440Y0389390D01*
X0387840Y0389120D01*
X0388220Y0388820D01*
X0388570Y0388490D01*
X0388890Y0388130D01*
X0389190Y0387750D01*
X0389450Y0387340D01*
X0389670Y0386910D01*
X0389870Y0386470D01*
X0390020Y0386020D01*
X0390140Y0385550D01*
X0390220Y0385070D01*
X0390260Y0384590D01*
X0390260Y0384110D01*
X0390220Y0383630D01*
X0390140Y0383150D01*
X0390020Y0382680D01*
X0389870Y0382230D01*
X0389670Y0381790D01*
X0389450Y0381360D01*
X0389190Y0380950D01*
X0388890Y0380570D01*
X0388570Y0380210D01*
X0388220Y0379880D01*
X0387840Y0379580D01*
X0387440Y0379310D01*
X0387020Y0379080D01*
X0386580Y0378880D01*
X0386130Y0378710D01*
X0385670Y0378590D01*
X0385190Y0378500D01*
X0384710Y0378450D01*
X0384230Y0378440D01*
X0383750Y0378470D01*
X0383270Y0378540D01*
X0382800Y0378650D01*
X0382340Y0378790D01*
X0381890Y0378970D01*
X0381460Y0379190D01*
X0381050Y0379440D01*
X0380670Y0379730D01*
X0380300Y0380050D01*
X0379960Y0380390D01*
X0379660Y0380760D01*
X0379380Y0381150D01*
X0379130Y0381570D01*
X0378930Y0382010D01*
X0378750Y0382460D01*
X0378620Y0382920D01*
X0378520Y0383390D01*
X0378460Y0383870D01*
X0378440Y0384350D01*
X0378440Y0206850D02*
X0378460Y0207330D01*
X0378520Y0207810D01*
X0378620Y0208280D01*
X0378750Y0208740D01*
X0378930Y0209190D01*
X0379130Y0209630D01*
X0379380Y0210050D01*
X0379660Y0210440D01*
X0379960Y0210810D01*
X0380300Y0211150D01*
X0380670Y0211470D01*
X0381050Y0211760D01*
X0381460Y0212010D01*
X0381890Y0212230D01*
X0382340Y0212410D01*
X0382800Y0212550D01*
X0383270Y0212660D01*
X0383750Y0212730D01*
X0384230Y0212760D01*
X0384710Y0212750D01*
X0385190Y0212700D01*
X0385670Y0212610D01*
X0386130Y0212490D01*
X0386580Y0212320D01*
X0387020Y0212120D01*
X0387440Y0211890D01*
X0387840Y0211620D01*
X0388220Y0211320D01*
X0388570Y0210990D01*
X0388890Y0210630D01*
X0389190Y0210250D01*
X0389450Y0209840D01*
X0389670Y0209410D01*
X0389870Y0208970D01*
X0390020Y0208520D01*
X0390140Y0208050D01*
X0390220Y0207570D01*
X0390260Y0207090D01*
X0390260Y0206610D01*
X0390220Y0206130D01*
X0390140Y0205650D01*
X0390020Y0205180D01*
X0389870Y0204730D01*
X0389670Y0204290D01*
X0389450Y0203860D01*
X0389190Y0203450D01*
X0388890Y0203070D01*
X0388570Y0202710D01*
X0388220Y0202380D01*
X0387840Y0202080D01*
X0387440Y0201810D01*
X0387020Y0201580D01*
X0386580Y0201380D01*
X0386130Y0201210D01*
X0385670Y0201090D01*
X0385190Y0201000D01*
X0384710Y0200950D01*
X0384230Y0200940D01*
X0383750Y0200970D01*
X0383270Y0201040D01*
X0382800Y0201150D01*
X0382340Y0201290D01*
X0381890Y0201470D01*
X0381460Y0201690D01*
X0381050Y0201940D01*
X0380670Y0202230D01*
X0380300Y0202550D01*
X0379960Y0202890D01*
X0379660Y0203260D01*
X0379380Y0203650D01*
X0379130Y0204070D01*
X0378930Y0204510D01*
X0378750Y0204960D01*
X0378620Y0205420D01*
X0378520Y0205890D01*
X0378460Y0206370D01*
X0378440Y0206850D01*
D79*
X0012900Y0000400D02*
X0000400Y0000400D01*
X0000400Y0012900D01*
X0393300Y0012900D02*
X0393300Y0000400D01*
X0380800Y0000400D01*
X0380800Y0393300D02*
X0393300Y0393300D01*
X0393300Y0380800D01*
X0000400Y0380800D02*
X0000400Y0393300D01*
X0012900Y0393300D01*
M02*
