M48
INCH,TZ
%
T01C0.023800
X2375Y2875
X2750Y3750
X2750Y4250
X2750Y4750
X2750Y5750
X4875Y5125
X5875Y5125
X6875Y5125
X7875Y5125
X8875Y5125
X9875Y5125
X10875Y5125
X11875Y5125
X12250Y4250
X11750Y3750
X10750Y3250
X10750Y2750
X10750Y2250
X13000Y5750
X17125Y5000
X19250Y4875
X17125Y2750
X4250Y2750
X3750Y3250
X4375Y8250
X4375Y9500
X18000Y17250
X18000Y16250
X24185Y3750
X25185Y3750
X24435Y5500
X25435Y6000
X27185Y2500
X30435Y3250
X38185Y5750
X38185Y8750
X38185Y11750
X38185Y14750
X28685Y13000
X26435Y15750
X25935Y17625
X23935Y14750
X22935Y13250
X22935Y12750
X21810Y6500
X3000Y25060
X4625Y26685
X9250Y26435
X13000Y25185
X13125Y24560
X13500Y25685
X14500Y24685
X14500Y23935
X14500Y23060
X16500Y22935
X17000Y22185
X18500Y24435
X17000Y25685
X16500Y25685
X10375Y30935
X9500Y30685
X2250Y35185
X5000Y21685
X10000Y21560
X26685Y32435
X26185Y30435
X24185Y30185
X24185Y29435
X23185Y28435
X23935Y27435
X23435Y26435
X23185Y25935
X22810Y25435
X22685Y24935
X22685Y23935
X22435Y23185
X23185Y22935
X24185Y21685
X26185Y22185
X27185Y22685
X28185Y23685
X29185Y23185
X31185Y25435
X31685Y25435
X32185Y25435
X32685Y25435
X32810Y25935
X32435Y26310
X35310Y25435
X36185Y23685
X36435Y22685
X37435Y23685
X38685Y24310
X35185Y29685
X35185Y30935
X36810Y30560
X32685Y35435
X33185Y36185
X33685Y36685
X34685Y37185
X29935Y32685
X31185Y30185
X27685Y27685
X25185Y24185
X21685Y24935
X21435Y25935
X20935Y23810
X25935Y25185
X25560Y26685
X26685Y29185
X27935Y29435
X26435Y31185
X27935Y32185
X25685Y33060
X22185Y33435
X21435Y32435
X22185Y27685
X26185Y23685
X30685Y27685
X35685Y27685
X36810Y28935
T02C0.032000
X375Y13000
X1375Y13000
X2375Y13000
X3375Y13000
X4375Y13000
X5375Y13000
X6375Y13000
X7375Y13000
X8375Y13000
X9375Y13000
X10375Y13000
X11375Y13000
X12375Y13000
X13375Y13000
X14375Y13000
X15375Y13000
X16375Y13000
X17375Y13000
X18375Y13000
X19375Y13000
X18375Y7000
X17375Y7000
X16375Y7000
X15375Y7000
X14375Y7000
X13375Y7000
X12375Y7000
X11375Y7000
X10375Y7000
X9375Y7000
X8375Y7000
X7375Y7000
X6375Y7000
X5375Y7000
X4375Y7000
X3375Y7000
X2375Y7000
X1375Y7000
X375Y7000
X19375Y7000
T03C0.039700
X1646Y2396
X939Y3104
X2500Y1000
X3500Y1000
X4500Y1000
X5500Y1000
X6500Y1000
X7500Y1000
X8500Y1000
X9500Y1000
X10500Y1000
X11500Y1000
X12500Y1000
X13500Y1000
X14500Y1000
X15500Y1000
X16500Y1000
X17500Y1000
X18177Y2427
X18884Y3134
X19030Y16220
X19030Y17220
X17500Y18750
X16500Y18750
X15500Y18750
X14500Y18750
X13500Y18750
X12500Y18750
X11500Y18750
X10500Y18750
X9500Y18750
X8500Y18750
X7500Y18750
X6500Y18750
X5500Y18750
X4500Y18750
X3500Y18750
X2500Y18750
X646Y17250
X646Y16250
X21331Y2396
X20624Y3104
X22185Y1000
X23185Y1000
X24185Y1000
X25185Y1000
X26185Y1000
X27185Y1000
X28185Y1000
X29185Y1000
X30185Y1000
X31185Y1000
X32185Y1000
X33185Y1000
X34185Y1000
X35185Y1000
X36185Y1000
X37185Y1000
X37861Y2427
X38568Y3134
X36935Y4500
X36935Y5500
X35935Y5500
X35935Y4500
X34935Y4500
X33935Y4500
X33935Y5500
X34935Y5500
X32935Y5500
X32935Y4500
X31935Y4500
X31935Y5500
X30935Y5500
X30935Y4500
X29935Y4500
X29935Y5500
X29935Y7500
X30935Y7500
X31935Y7500
X32935Y7500
X33935Y7500
X34935Y7500
X35935Y7500
X36935Y7500
X36935Y8500
X35935Y8500
X34935Y8500
X33935Y8500
X32935Y8500
X31935Y8500
X30935Y8500
X29935Y8500
X29935Y10500
X30935Y10500
X31935Y10500
X32935Y10500
X33935Y10500
X34935Y10500
X35935Y10500
X36935Y10500
X36935Y11500
X35935Y11500
X34935Y11500
X33935Y11500
X32935Y11500
X31935Y11500
X30935Y11500
X29935Y11500
X29935Y13500
X30935Y13500
X31935Y13500
X32935Y13500
X33935Y13500
X34935Y13500
X35935Y13500
X36935Y13500
X36935Y14500
X35935Y14500
X34935Y14500
X33935Y14500
X32935Y14500
X31935Y14500
X30935Y14500
X29935Y14500
X29935Y16500
X30935Y16500
X31935Y16500
X32935Y16500
X33935Y16500
X34935Y16500
X35935Y16500
X36185Y18750
X35185Y18750
X34185Y18750
X33185Y18750
X32185Y18750
X31185Y18750
X30185Y18750
X29185Y18750
X28185Y18750
X27185Y18750
X26185Y18750
X25185Y18750
X24185Y18750
X23185Y18750
X22185Y18750
X20331Y17250
X20331Y16250
X22685Y11500
X23685Y11500
X24685Y11500
X25685Y11500
X26935Y16500
X27935Y16500
X28935Y16500
X37185Y18750
X38715Y17220
X38715Y16220
X646Y36935
X646Y35935
X2500Y38435
X3500Y38435
X4500Y38435
X5500Y38435
X6500Y38435
X7500Y38435
X8500Y38435
X9500Y38435
X10500Y38435
X11500Y38435
X12500Y38435
X13500Y38435
X14500Y38435
X15500Y38435
X16500Y38435
X17500Y38435
X19030Y36905
X19030Y35905
X18884Y22819
X18177Y22112
X17500Y20685
X16500Y20685
X15500Y20685
X14500Y20685
X13500Y20685
X12500Y20685
X11500Y20685
X10500Y20685
X9500Y20685
X8500Y20685
X7500Y20685
X6500Y20685
X5500Y20685
X4500Y20685
X3500Y20685
X2500Y20685
X1646Y22081
X939Y22789
X21331Y22081
X20624Y22789
X22185Y20685
X23185Y20685
X24185Y20685
X25185Y20685
X26185Y20685
X27185Y20685
X28185Y20685
X29185Y20685
X30185Y20685
X31185Y20685
X32185Y20685
X33185Y20685
X34185Y20685
X35185Y20685
X36185Y20685
X37185Y20685
X37861Y22112
X38568Y22819
X38685Y30435
X38685Y31435
X38685Y32435
X38685Y33435
X38685Y34435
X38715Y35905
X38715Y36905
X37185Y38435
X36185Y38435
X35185Y38435
X34185Y38435
X33185Y38435
X32185Y38435
X31185Y38435
X30185Y38435
X29185Y38435
X28185Y38435
X27185Y38435
X26185Y38435
X25185Y38435
X24185Y38435
X23185Y38435
X22185Y38435
X20331Y36935
X20331Y35935
X20435Y34935
X20435Y33935
X20435Y32935
X20435Y31935
X20435Y30935
X22435Y30185
X22435Y29185
X27935Y25935
X28935Y25935
X25685Y35435
X25685Y36435
X24685Y36435
X24685Y35435
X23685Y35435
X23685Y36435
X22685Y36435
X22685Y35435
X21685Y35435
X21685Y36435
X20435Y29935
X38685Y29435
T04C0.118100
X1000Y18750
X18750Y18750
X18750Y1000
X1000Y1000
X20685Y18750
X38435Y18750
X38435Y1000
X20685Y1000
X1000Y20685
X1000Y38435
X18750Y38435
X18750Y20685
X20685Y38435
X38435Y38435
X38435Y20685
X20685Y20685
M30
