G75*
%MOIN*%
%OFA0B0*%
%FSLAX24Y24*%
%IPPOS*%
%LPD*%
%AMOC8*
5,1,8,0,0,1.08239X$1,22.5*
%
%ADD10C,0.0000*%
%ADD11C,0.0740*%
%ADD12R,0.0591X0.0512*%
%ADD13R,0.0512X0.0591*%
%ADD14OC8,0.0356*%
%ADD15C,0.0120*%
%ADD16C,0.0100*%
D10*
X000100Y000100D02*
X000100Y019785D01*
X019785Y019785D01*
X019785Y000100D01*
X000100Y000100D01*
X000509Y001100D02*
X000511Y001148D01*
X000517Y001196D01*
X000527Y001243D01*
X000540Y001289D01*
X000558Y001334D01*
X000578Y001378D01*
X000603Y001420D01*
X000631Y001459D01*
X000661Y001496D01*
X000695Y001530D01*
X000732Y001562D01*
X000770Y001591D01*
X000811Y001616D01*
X000854Y001638D01*
X000899Y001656D01*
X000945Y001670D01*
X000992Y001681D01*
X001040Y001688D01*
X001088Y001691D01*
X001136Y001690D01*
X001184Y001685D01*
X001232Y001676D01*
X001278Y001664D01*
X001323Y001647D01*
X001367Y001627D01*
X001409Y001604D01*
X001449Y001577D01*
X001487Y001547D01*
X001522Y001514D01*
X001554Y001478D01*
X001584Y001440D01*
X001610Y001399D01*
X001632Y001356D01*
X001652Y001312D01*
X001667Y001267D01*
X001679Y001220D01*
X001687Y001172D01*
X001691Y001124D01*
X001691Y001076D01*
X001687Y001028D01*
X001679Y000980D01*
X001667Y000933D01*
X001652Y000888D01*
X001632Y000844D01*
X001610Y000801D01*
X001584Y000760D01*
X001554Y000722D01*
X001522Y000686D01*
X001487Y000653D01*
X001449Y000623D01*
X001409Y000596D01*
X001367Y000573D01*
X001323Y000553D01*
X001278Y000536D01*
X001232Y000524D01*
X001184Y000515D01*
X001136Y000510D01*
X001088Y000509D01*
X001040Y000512D01*
X000992Y000519D01*
X000945Y000530D01*
X000899Y000544D01*
X000854Y000562D01*
X000811Y000584D01*
X000770Y000609D01*
X000732Y000638D01*
X000695Y000670D01*
X000661Y000704D01*
X000631Y000741D01*
X000603Y000780D01*
X000578Y000822D01*
X000558Y000866D01*
X000540Y000911D01*
X000527Y000957D01*
X000517Y001004D01*
X000511Y001052D01*
X000509Y001100D01*
X000509Y018850D02*
X000511Y018898D01*
X000517Y018946D01*
X000527Y018993D01*
X000540Y019039D01*
X000558Y019084D01*
X000578Y019128D01*
X000603Y019170D01*
X000631Y019209D01*
X000661Y019246D01*
X000695Y019280D01*
X000732Y019312D01*
X000770Y019341D01*
X000811Y019366D01*
X000854Y019388D01*
X000899Y019406D01*
X000945Y019420D01*
X000992Y019431D01*
X001040Y019438D01*
X001088Y019441D01*
X001136Y019440D01*
X001184Y019435D01*
X001232Y019426D01*
X001278Y019414D01*
X001323Y019397D01*
X001367Y019377D01*
X001409Y019354D01*
X001449Y019327D01*
X001487Y019297D01*
X001522Y019264D01*
X001554Y019228D01*
X001584Y019190D01*
X001610Y019149D01*
X001632Y019106D01*
X001652Y019062D01*
X001667Y019017D01*
X001679Y018970D01*
X001687Y018922D01*
X001691Y018874D01*
X001691Y018826D01*
X001687Y018778D01*
X001679Y018730D01*
X001667Y018683D01*
X001652Y018638D01*
X001632Y018594D01*
X001610Y018551D01*
X001584Y018510D01*
X001554Y018472D01*
X001522Y018436D01*
X001487Y018403D01*
X001449Y018373D01*
X001409Y018346D01*
X001367Y018323D01*
X001323Y018303D01*
X001278Y018286D01*
X001232Y018274D01*
X001184Y018265D01*
X001136Y018260D01*
X001088Y018259D01*
X001040Y018262D01*
X000992Y018269D01*
X000945Y018280D01*
X000899Y018294D01*
X000854Y018312D01*
X000811Y018334D01*
X000770Y018359D01*
X000732Y018388D01*
X000695Y018420D01*
X000661Y018454D01*
X000631Y018491D01*
X000603Y018530D01*
X000578Y018572D01*
X000558Y018616D01*
X000540Y018661D01*
X000527Y018707D01*
X000517Y018754D01*
X000511Y018802D01*
X000509Y018850D01*
X018259Y018850D02*
X018261Y018898D01*
X018267Y018946D01*
X018277Y018993D01*
X018290Y019039D01*
X018308Y019084D01*
X018328Y019128D01*
X018353Y019170D01*
X018381Y019209D01*
X018411Y019246D01*
X018445Y019280D01*
X018482Y019312D01*
X018520Y019341D01*
X018561Y019366D01*
X018604Y019388D01*
X018649Y019406D01*
X018695Y019420D01*
X018742Y019431D01*
X018790Y019438D01*
X018838Y019441D01*
X018886Y019440D01*
X018934Y019435D01*
X018982Y019426D01*
X019028Y019414D01*
X019073Y019397D01*
X019117Y019377D01*
X019159Y019354D01*
X019199Y019327D01*
X019237Y019297D01*
X019272Y019264D01*
X019304Y019228D01*
X019334Y019190D01*
X019360Y019149D01*
X019382Y019106D01*
X019402Y019062D01*
X019417Y019017D01*
X019429Y018970D01*
X019437Y018922D01*
X019441Y018874D01*
X019441Y018826D01*
X019437Y018778D01*
X019429Y018730D01*
X019417Y018683D01*
X019402Y018638D01*
X019382Y018594D01*
X019360Y018551D01*
X019334Y018510D01*
X019304Y018472D01*
X019272Y018436D01*
X019237Y018403D01*
X019199Y018373D01*
X019159Y018346D01*
X019117Y018323D01*
X019073Y018303D01*
X019028Y018286D01*
X018982Y018274D01*
X018934Y018265D01*
X018886Y018260D01*
X018838Y018259D01*
X018790Y018262D01*
X018742Y018269D01*
X018695Y018280D01*
X018649Y018294D01*
X018604Y018312D01*
X018561Y018334D01*
X018520Y018359D01*
X018482Y018388D01*
X018445Y018420D01*
X018411Y018454D01*
X018381Y018491D01*
X018353Y018530D01*
X018328Y018572D01*
X018308Y018616D01*
X018290Y018661D01*
X018277Y018707D01*
X018267Y018754D01*
X018261Y018802D01*
X018259Y018850D01*
X018259Y001100D02*
X018261Y001148D01*
X018267Y001196D01*
X018277Y001243D01*
X018290Y001289D01*
X018308Y001334D01*
X018328Y001378D01*
X018353Y001420D01*
X018381Y001459D01*
X018411Y001496D01*
X018445Y001530D01*
X018482Y001562D01*
X018520Y001591D01*
X018561Y001616D01*
X018604Y001638D01*
X018649Y001656D01*
X018695Y001670D01*
X018742Y001681D01*
X018790Y001688D01*
X018838Y001691D01*
X018886Y001690D01*
X018934Y001685D01*
X018982Y001676D01*
X019028Y001664D01*
X019073Y001647D01*
X019117Y001627D01*
X019159Y001604D01*
X019199Y001577D01*
X019237Y001547D01*
X019272Y001514D01*
X019304Y001478D01*
X019334Y001440D01*
X019360Y001399D01*
X019382Y001356D01*
X019402Y001312D01*
X019417Y001267D01*
X019429Y001220D01*
X019437Y001172D01*
X019441Y001124D01*
X019441Y001076D01*
X019437Y001028D01*
X019429Y000980D01*
X019417Y000933D01*
X019402Y000888D01*
X019382Y000844D01*
X019360Y000801D01*
X019334Y000760D01*
X019304Y000722D01*
X019272Y000686D01*
X019237Y000653D01*
X019199Y000623D01*
X019159Y000596D01*
X019117Y000573D01*
X019073Y000553D01*
X019028Y000536D01*
X018982Y000524D01*
X018934Y000515D01*
X018886Y000510D01*
X018838Y000509D01*
X018790Y000512D01*
X018742Y000519D01*
X018695Y000530D01*
X018649Y000544D01*
X018604Y000562D01*
X018561Y000584D01*
X018520Y000609D01*
X018482Y000638D01*
X018445Y000670D01*
X018411Y000704D01*
X018381Y000741D01*
X018353Y000780D01*
X018328Y000822D01*
X018308Y000866D01*
X018290Y000911D01*
X018277Y000957D01*
X018267Y001004D01*
X018261Y001052D01*
X018259Y001100D01*
D11*
X017600Y001100D03*
X016600Y001100D03*
X015600Y001100D03*
X014600Y001100D03*
X013600Y001100D03*
X012600Y001100D03*
X011600Y001100D03*
X010600Y001100D03*
X009600Y001100D03*
X008600Y001100D03*
X007600Y001100D03*
X006600Y001100D03*
X005600Y001100D03*
X004600Y001100D03*
X003600Y001100D03*
X002600Y001100D03*
X001746Y002496D03*
X001039Y003204D03*
X000746Y016350D03*
X000746Y017350D03*
X002600Y018850D03*
X003600Y018850D03*
X004600Y018850D03*
X005600Y018850D03*
X006600Y018850D03*
X007600Y018850D03*
X008600Y018850D03*
X009600Y018850D03*
X010600Y018850D03*
X011600Y018850D03*
X012600Y018850D03*
X013600Y018850D03*
X014600Y018850D03*
X015600Y018850D03*
X016600Y018850D03*
X017600Y018850D03*
X019130Y017320D03*
X019130Y016320D03*
X018984Y003234D03*
X018277Y002527D03*
D12*
X017100Y007476D03*
X017100Y008224D03*
X011850Y003724D03*
X011850Y002976D03*
D13*
X009224Y011100D03*
X008476Y011100D03*
D14*
X009600Y011100D03*
X010475Y011350D03*
X009350Y006850D03*
X013100Y005600D03*
X013225Y004975D03*
X013600Y006100D03*
X014600Y005100D03*
X014600Y004350D03*
X014600Y003475D03*
X016600Y003350D03*
X017100Y002600D03*
X018600Y004850D03*
X017100Y006100D03*
X016600Y006100D03*
X010100Y001975D03*
X005100Y002100D03*
X003100Y005475D03*
X004725Y007100D03*
X002350Y015600D03*
D15*
X002600Y015600D01*
X001211Y016216D02*
X018654Y016216D01*
X018650Y016224D02*
X018723Y016048D01*
X018858Y015913D01*
X019035Y015840D01*
X019226Y015840D01*
X019350Y015891D01*
X019350Y003547D01*
X019256Y003641D01*
X019079Y003714D01*
X018888Y003714D01*
X018712Y003641D01*
X018577Y003506D01*
X018504Y003329D01*
X018504Y003138D01*
X018577Y002962D01*
X018712Y002827D01*
X018888Y002754D01*
X019079Y002754D01*
X019256Y002827D01*
X019350Y002921D01*
X019350Y002600D01*
X018530Y001780D01*
X018425Y001736D01*
X018214Y001525D01*
X018170Y001420D01*
X018100Y001350D01*
X018100Y001276D01*
X018091Y001303D01*
X018053Y001378D01*
X018004Y001445D01*
X017945Y001504D01*
X017878Y001553D01*
X017803Y001591D01*
X017724Y001617D01*
X017642Y001630D01*
X017640Y001630D01*
X017640Y001140D01*
X017560Y001140D01*
X017560Y001630D01*
X017558Y001630D01*
X017476Y001617D01*
X017397Y001591D01*
X017322Y001553D01*
X017255Y001504D01*
X017196Y001445D01*
X017147Y001378D01*
X017109Y001303D01*
X017083Y001224D01*
X017079Y001198D01*
X017007Y001372D01*
X016872Y001507D01*
X016695Y001580D01*
X016505Y001580D01*
X016328Y001507D01*
X016193Y001372D01*
X016120Y001195D01*
X016120Y001005D01*
X016193Y000828D01*
X016328Y000693D01*
X016505Y000620D01*
X016695Y000620D01*
X016872Y000693D01*
X017007Y000828D01*
X017079Y001002D01*
X017083Y000976D01*
X017109Y000897D01*
X017147Y000822D01*
X017196Y000755D01*
X017255Y000696D01*
X017322Y000647D01*
X017397Y000609D01*
X017424Y000600D01*
X010776Y000600D01*
X010803Y000609D01*
X010878Y000647D01*
X010945Y000696D01*
X011004Y000755D01*
X011053Y000822D01*
X011091Y000897D01*
X011117Y000976D01*
X011121Y001002D01*
X011193Y000828D01*
X011328Y000693D01*
X011505Y000620D01*
X011695Y000620D01*
X011872Y000693D01*
X012007Y000828D01*
X012080Y001005D01*
X012080Y001195D01*
X012007Y001372D01*
X011872Y001507D01*
X011695Y001580D01*
X011505Y001580D01*
X011328Y001507D01*
X011193Y001372D01*
X011121Y001198D01*
X011117Y001224D01*
X011091Y001303D01*
X011053Y001378D01*
X011004Y001445D01*
X010945Y001504D01*
X010878Y001553D01*
X010803Y001591D01*
X010724Y001617D01*
X010642Y001630D01*
X010640Y001630D01*
X010640Y001140D01*
X010560Y001140D01*
X010560Y001630D01*
X010558Y001630D01*
X010476Y001617D01*
X010397Y001591D01*
X010322Y001553D01*
X010255Y001504D01*
X010196Y001445D01*
X010147Y001378D01*
X010109Y001303D01*
X010083Y001224D01*
X010079Y001198D01*
X010007Y001372D01*
X009872Y001507D01*
X009695Y001580D01*
X009505Y001580D01*
X009328Y001507D01*
X009193Y001372D01*
X009120Y001195D01*
X009120Y001005D01*
X009193Y000828D01*
X009328Y000693D01*
X009505Y000620D01*
X009695Y000620D01*
X009872Y000693D01*
X010007Y000828D01*
X010079Y001002D01*
X010083Y000976D01*
X010109Y000897D01*
X010147Y000822D01*
X010196Y000755D01*
X010255Y000696D01*
X010322Y000647D01*
X010397Y000609D01*
X010424Y000600D01*
X002350Y000600D01*
X002100Y000850D01*
X002100Y001350D01*
X000600Y002850D01*
X000600Y003010D01*
X000632Y002932D01*
X000767Y002797D01*
X000944Y002724D01*
X001135Y002724D01*
X001311Y002797D01*
X001446Y002932D01*
X001519Y003108D01*
X001519Y003299D01*
X001446Y003475D01*
X001311Y003610D01*
X001135Y003684D01*
X000944Y003684D01*
X000767Y003610D01*
X000632Y003475D01*
X000600Y003397D01*
X000600Y015891D01*
X000651Y015870D01*
X000842Y015870D01*
X001018Y015943D01*
X001153Y016078D01*
X001226Y016255D01*
X001226Y016445D01*
X001153Y016622D01*
X001018Y016757D01*
X000842Y016830D01*
X000651Y016830D01*
X000600Y016809D01*
X000600Y016891D01*
X000651Y016870D01*
X000842Y016870D01*
X001018Y016943D01*
X001153Y017078D01*
X001226Y017255D01*
X001226Y017445D01*
X001153Y017622D01*
X001138Y017638D01*
X018770Y017638D01*
X018723Y017592D02*
X018650Y017415D01*
X018650Y017224D01*
X018723Y017048D01*
X018858Y016913D01*
X019035Y016840D01*
X019226Y016840D01*
X019350Y016891D01*
X019350Y016748D01*
X019226Y016800D01*
X019035Y016800D01*
X018858Y016727D01*
X018723Y016592D01*
X018650Y016415D01*
X018650Y016224D01*
X018650Y016335D02*
X001226Y016335D01*
X001223Y016453D02*
X018666Y016453D01*
X018715Y016572D02*
X001174Y016572D01*
X001085Y016690D02*
X018822Y016690D01*
X018844Y016927D02*
X000980Y016927D01*
X000894Y016809D02*
X019350Y016809D01*
X018726Y017046D02*
X001121Y017046D01*
X001189Y017164D02*
X018675Y017164D01*
X018650Y017283D02*
X001226Y017283D01*
X001226Y017401D02*
X018650Y017401D01*
X018694Y017520D02*
X001196Y017520D01*
X001138Y017638D02*
X002100Y018600D01*
X002100Y019100D01*
X002350Y019350D01*
X017850Y019350D01*
X018100Y019100D01*
X018100Y019001D01*
X018099Y018999D01*
X018099Y018701D01*
X018100Y018699D01*
X018100Y018600D01*
X018170Y018530D01*
X018214Y018425D01*
X018425Y018214D01*
X018530Y018170D01*
X018940Y017760D01*
X018858Y017727D01*
X018723Y017592D01*
X018931Y017757D02*
X001257Y017757D01*
X001375Y017875D02*
X018825Y017875D01*
X018706Y017994D02*
X001494Y017994D01*
X001612Y018112D02*
X018588Y018112D01*
X018408Y018231D02*
X001731Y018231D01*
X001849Y018349D02*
X018290Y018349D01*
X018196Y018468D02*
X017896Y018468D01*
X017872Y018443D02*
X018007Y018578D01*
X018080Y018755D01*
X018080Y018945D01*
X018007Y019122D01*
X017872Y019257D01*
X017695Y019330D01*
X017505Y019330D01*
X017328Y019257D01*
X017193Y019122D01*
X017120Y018945D01*
X017120Y018755D01*
X017193Y018578D01*
X017328Y018443D01*
X017505Y018370D01*
X017695Y018370D01*
X017872Y018443D01*
X018010Y018586D02*
X018114Y018586D01*
X018099Y018705D02*
X018059Y018705D01*
X018080Y018823D02*
X018099Y018823D01*
X018099Y018942D02*
X018080Y018942D01*
X018100Y019060D02*
X018033Y019060D01*
X018021Y019179D02*
X017950Y019179D01*
X017903Y019297D02*
X017775Y019297D01*
X017425Y019297D02*
X016775Y019297D01*
X016695Y019330D02*
X016872Y019257D01*
X017007Y019122D01*
X017080Y018945D01*
X017080Y018755D01*
X017007Y018578D01*
X016872Y018443D01*
X016695Y018370D01*
X016505Y018370D01*
X016328Y018443D01*
X016193Y018578D01*
X016120Y018755D01*
X016120Y018945D01*
X016193Y019122D01*
X016328Y019257D01*
X016505Y019330D01*
X016695Y019330D01*
X016425Y019297D02*
X015775Y019297D01*
X015695Y019330D02*
X015872Y019257D01*
X016007Y019122D01*
X016080Y018945D01*
X016080Y018755D01*
X016007Y018578D01*
X015872Y018443D01*
X015695Y018370D01*
X015505Y018370D01*
X015328Y018443D01*
X015193Y018578D01*
X015120Y018755D01*
X015120Y018945D01*
X015193Y019122D01*
X015328Y019257D01*
X015505Y019330D01*
X015695Y019330D01*
X015425Y019297D02*
X014775Y019297D01*
X014695Y019330D02*
X014872Y019257D01*
X015007Y019122D01*
X015080Y018945D01*
X015080Y018755D01*
X015007Y018578D01*
X014872Y018443D01*
X014695Y018370D01*
X014505Y018370D01*
X014328Y018443D01*
X014193Y018578D01*
X014120Y018755D01*
X014120Y018945D01*
X014193Y019122D01*
X014328Y019257D01*
X014505Y019330D01*
X014695Y019330D01*
X014425Y019297D02*
X013775Y019297D01*
X013695Y019330D02*
X013872Y019257D01*
X014007Y019122D01*
X014080Y018945D01*
X014080Y018755D01*
X014007Y018578D01*
X013872Y018443D01*
X013695Y018370D01*
X013505Y018370D01*
X013328Y018443D01*
X013193Y018578D01*
X013120Y018755D01*
X013120Y018945D01*
X013193Y019122D01*
X013328Y019257D01*
X013505Y019330D01*
X013695Y019330D01*
X013425Y019297D02*
X012775Y019297D01*
X012695Y019330D02*
X012872Y019257D01*
X013007Y019122D01*
X013080Y018945D01*
X013080Y018755D01*
X013007Y018578D01*
X012872Y018443D01*
X012695Y018370D01*
X012505Y018370D01*
X012328Y018443D01*
X012193Y018578D01*
X012120Y018755D01*
X012120Y018945D01*
X012193Y019122D01*
X012328Y019257D01*
X012505Y019330D01*
X012695Y019330D01*
X012425Y019297D02*
X011775Y019297D01*
X011695Y019330D02*
X011872Y019257D01*
X012007Y019122D01*
X012080Y018945D01*
X012080Y018755D01*
X012007Y018578D01*
X011872Y018443D01*
X011695Y018370D01*
X011505Y018370D01*
X011328Y018443D01*
X011193Y018578D01*
X011120Y018755D01*
X011120Y018945D01*
X011193Y019122D01*
X011328Y019257D01*
X011505Y019330D01*
X011695Y019330D01*
X011425Y019297D02*
X010775Y019297D01*
X010695Y019330D02*
X010872Y019257D01*
X011007Y019122D01*
X011080Y018945D01*
X011080Y018755D01*
X011007Y018578D01*
X010872Y018443D01*
X010695Y018370D01*
X010505Y018370D01*
X010328Y018443D01*
X010193Y018578D01*
X010120Y018755D01*
X010120Y018945D01*
X010193Y019122D01*
X010328Y019257D01*
X010505Y019330D01*
X010695Y019330D01*
X010425Y019297D02*
X009775Y019297D01*
X009695Y019330D02*
X009872Y019257D01*
X010007Y019122D01*
X010080Y018945D01*
X010080Y018755D01*
X010007Y018578D01*
X009872Y018443D01*
X009695Y018370D01*
X009505Y018370D01*
X009328Y018443D01*
X009193Y018578D01*
X009120Y018755D01*
X009120Y018945D01*
X009193Y019122D01*
X009328Y019257D01*
X009505Y019330D01*
X009695Y019330D01*
X009425Y019297D02*
X008775Y019297D01*
X008695Y019330D02*
X008872Y019257D01*
X009007Y019122D01*
X009080Y018945D01*
X009080Y018755D01*
X009007Y018578D01*
X008872Y018443D01*
X008695Y018370D01*
X008505Y018370D01*
X008328Y018443D01*
X008193Y018578D01*
X008120Y018755D01*
X008120Y018945D01*
X008193Y019122D01*
X008328Y019257D01*
X008505Y019330D01*
X008695Y019330D01*
X008425Y019297D02*
X007775Y019297D01*
X007695Y019330D02*
X007872Y019257D01*
X008007Y019122D01*
X008080Y018945D01*
X008080Y018755D01*
X008007Y018578D01*
X007872Y018443D01*
X007695Y018370D01*
X007505Y018370D01*
X007328Y018443D01*
X007193Y018578D01*
X007120Y018755D01*
X007120Y018945D01*
X007193Y019122D01*
X007328Y019257D01*
X007505Y019330D01*
X007695Y019330D01*
X007425Y019297D02*
X006775Y019297D01*
X006695Y019330D02*
X006872Y019257D01*
X007007Y019122D01*
X007080Y018945D01*
X007080Y018755D01*
X007007Y018578D01*
X006872Y018443D01*
X006695Y018370D01*
X006505Y018370D01*
X006328Y018443D01*
X006193Y018578D01*
X006120Y018755D01*
X006120Y018945D01*
X006193Y019122D01*
X006328Y019257D01*
X006505Y019330D01*
X006695Y019330D01*
X006425Y019297D02*
X005775Y019297D01*
X005695Y019330D02*
X005872Y019257D01*
X006007Y019122D01*
X006080Y018945D01*
X006080Y018755D01*
X006007Y018578D01*
X005872Y018443D01*
X005695Y018370D01*
X005505Y018370D01*
X005328Y018443D01*
X005193Y018578D01*
X005120Y018755D01*
X005120Y018945D01*
X005193Y019122D01*
X005328Y019257D01*
X005505Y019330D01*
X005695Y019330D01*
X005425Y019297D02*
X004775Y019297D01*
X004695Y019330D02*
X004872Y019257D01*
X005007Y019122D01*
X005080Y018945D01*
X005080Y018755D01*
X005007Y018578D01*
X004872Y018443D01*
X004695Y018370D01*
X004505Y018370D01*
X004328Y018443D01*
X004193Y018578D01*
X004120Y018755D01*
X004120Y018945D01*
X004193Y019122D01*
X004328Y019257D01*
X004505Y019330D01*
X004695Y019330D01*
X004425Y019297D02*
X003775Y019297D01*
X003695Y019330D02*
X003505Y019330D01*
X003328Y019257D01*
X003193Y019122D01*
X003120Y018945D01*
X003120Y018755D01*
X003193Y018578D01*
X003328Y018443D01*
X003505Y018370D01*
X003695Y018370D01*
X003872Y018443D01*
X004007Y018578D01*
X004080Y018755D01*
X004080Y018945D01*
X004007Y019122D01*
X003872Y019257D01*
X003695Y019330D01*
X003425Y019297D02*
X002775Y019297D01*
X002695Y019330D02*
X002505Y019330D01*
X002328Y019257D01*
X002193Y019122D01*
X002120Y018945D01*
X002120Y018755D01*
X002193Y018578D01*
X002328Y018443D01*
X002505Y018370D01*
X002695Y018370D01*
X002872Y018443D01*
X003007Y018578D01*
X003080Y018755D01*
X003080Y018945D01*
X003007Y019122D01*
X002872Y019257D01*
X002695Y019330D01*
X002425Y019297D02*
X002297Y019297D01*
X002250Y019179D02*
X002179Y019179D01*
X002167Y019060D02*
X002100Y019060D01*
X002100Y018942D02*
X002120Y018942D01*
X002120Y018823D02*
X002100Y018823D01*
X002100Y018705D02*
X002141Y018705D01*
X002190Y018586D02*
X002086Y018586D01*
X001968Y018468D02*
X002304Y018468D01*
X002896Y018468D02*
X003304Y018468D01*
X003190Y018586D02*
X003010Y018586D01*
X003059Y018705D02*
X003141Y018705D01*
X003120Y018823D02*
X003080Y018823D01*
X003080Y018942D02*
X003120Y018942D01*
X003167Y019060D02*
X003033Y019060D01*
X002950Y019179D02*
X003250Y019179D01*
X003950Y019179D02*
X004250Y019179D01*
X004167Y019060D02*
X004033Y019060D01*
X004080Y018942D02*
X004120Y018942D01*
X004120Y018823D02*
X004080Y018823D01*
X004059Y018705D02*
X004141Y018705D01*
X004190Y018586D02*
X004010Y018586D01*
X003896Y018468D02*
X004304Y018468D01*
X004896Y018468D02*
X005304Y018468D01*
X005190Y018586D02*
X005010Y018586D01*
X005059Y018705D02*
X005141Y018705D01*
X005120Y018823D02*
X005080Y018823D01*
X005080Y018942D02*
X005120Y018942D01*
X005167Y019060D02*
X005033Y019060D01*
X004950Y019179D02*
X005250Y019179D01*
X005950Y019179D02*
X006250Y019179D01*
X006167Y019060D02*
X006033Y019060D01*
X006080Y018942D02*
X006120Y018942D01*
X006120Y018823D02*
X006080Y018823D01*
X006059Y018705D02*
X006141Y018705D01*
X006190Y018586D02*
X006010Y018586D01*
X005896Y018468D02*
X006304Y018468D01*
X006896Y018468D02*
X007304Y018468D01*
X007190Y018586D02*
X007010Y018586D01*
X007059Y018705D02*
X007141Y018705D01*
X007120Y018823D02*
X007080Y018823D01*
X007080Y018942D02*
X007120Y018942D01*
X007167Y019060D02*
X007033Y019060D01*
X006950Y019179D02*
X007250Y019179D01*
X007950Y019179D02*
X008250Y019179D01*
X008167Y019060D02*
X008033Y019060D01*
X008080Y018942D02*
X008120Y018942D01*
X008120Y018823D02*
X008080Y018823D01*
X008059Y018705D02*
X008141Y018705D01*
X008190Y018586D02*
X008010Y018586D01*
X007896Y018468D02*
X008304Y018468D01*
X008896Y018468D02*
X009304Y018468D01*
X009190Y018586D02*
X009010Y018586D01*
X009059Y018705D02*
X009141Y018705D01*
X009120Y018823D02*
X009080Y018823D01*
X009080Y018942D02*
X009120Y018942D01*
X009167Y019060D02*
X009033Y019060D01*
X008950Y019179D02*
X009250Y019179D01*
X009950Y019179D02*
X010250Y019179D01*
X010167Y019060D02*
X010033Y019060D01*
X010080Y018942D02*
X010120Y018942D01*
X010120Y018823D02*
X010080Y018823D01*
X010059Y018705D02*
X010141Y018705D01*
X010190Y018586D02*
X010010Y018586D01*
X009896Y018468D02*
X010304Y018468D01*
X010896Y018468D02*
X011304Y018468D01*
X011190Y018586D02*
X011010Y018586D01*
X011059Y018705D02*
X011141Y018705D01*
X011120Y018823D02*
X011080Y018823D01*
X011080Y018942D02*
X011120Y018942D01*
X011167Y019060D02*
X011033Y019060D01*
X010950Y019179D02*
X011250Y019179D01*
X011950Y019179D02*
X012250Y019179D01*
X012167Y019060D02*
X012033Y019060D01*
X012080Y018942D02*
X012120Y018942D01*
X012120Y018823D02*
X012080Y018823D01*
X012059Y018705D02*
X012141Y018705D01*
X012190Y018586D02*
X012010Y018586D01*
X011896Y018468D02*
X012304Y018468D01*
X012896Y018468D02*
X013304Y018468D01*
X013190Y018586D02*
X013010Y018586D01*
X013059Y018705D02*
X013141Y018705D01*
X013120Y018823D02*
X013080Y018823D01*
X013080Y018942D02*
X013120Y018942D01*
X013167Y019060D02*
X013033Y019060D01*
X012950Y019179D02*
X013250Y019179D01*
X013950Y019179D02*
X014250Y019179D01*
X014167Y019060D02*
X014033Y019060D01*
X014080Y018942D02*
X014120Y018942D01*
X014120Y018823D02*
X014080Y018823D01*
X014059Y018705D02*
X014141Y018705D01*
X014190Y018586D02*
X014010Y018586D01*
X013896Y018468D02*
X014304Y018468D01*
X014896Y018468D02*
X015304Y018468D01*
X015190Y018586D02*
X015010Y018586D01*
X015059Y018705D02*
X015141Y018705D01*
X015120Y018823D02*
X015080Y018823D01*
X015080Y018942D02*
X015120Y018942D01*
X015167Y019060D02*
X015033Y019060D01*
X014950Y019179D02*
X015250Y019179D01*
X015950Y019179D02*
X016250Y019179D01*
X016167Y019060D02*
X016033Y019060D01*
X016080Y018942D02*
X016120Y018942D01*
X016120Y018823D02*
X016080Y018823D01*
X016059Y018705D02*
X016141Y018705D01*
X016190Y018586D02*
X016010Y018586D01*
X015896Y018468D02*
X016304Y018468D01*
X016896Y018468D02*
X017304Y018468D01*
X017190Y018586D02*
X017010Y018586D01*
X017059Y018705D02*
X017141Y018705D01*
X017120Y018823D02*
X017080Y018823D01*
X017080Y018942D02*
X017120Y018942D01*
X017167Y019060D02*
X017033Y019060D01*
X016950Y019179D02*
X017250Y019179D01*
X018703Y016098D02*
X001161Y016098D01*
X001054Y015979D02*
X018792Y015979D01*
X018984Y015861D02*
X000600Y015861D01*
X000600Y015742D02*
X019350Y015742D01*
X019350Y015624D02*
X000600Y015624D01*
X000600Y015505D02*
X019350Y015505D01*
X019350Y015387D02*
X000600Y015387D01*
X000600Y015268D02*
X019350Y015268D01*
X019350Y015150D02*
X000600Y015150D01*
X000600Y015031D02*
X019350Y015031D01*
X019350Y014913D02*
X000600Y014913D01*
X000600Y014794D02*
X019350Y014794D01*
X019350Y014676D02*
X000600Y014676D01*
X000600Y014557D02*
X019350Y014557D01*
X019350Y014439D02*
X000600Y014439D01*
X000600Y014320D02*
X019350Y014320D01*
X019350Y014202D02*
X000600Y014202D01*
X000600Y014083D02*
X019350Y014083D01*
X019350Y013965D02*
X000600Y013965D01*
X000600Y013846D02*
X019350Y013846D01*
X019350Y013728D02*
X000600Y013728D01*
X000600Y013609D02*
X019350Y013609D01*
X019350Y013491D02*
X000600Y013491D01*
X000600Y013372D02*
X019350Y013372D01*
X019350Y013254D02*
X000600Y013254D01*
X000600Y013135D02*
X019350Y013135D01*
X019350Y013017D02*
X000600Y013017D01*
X000600Y012898D02*
X019350Y012898D01*
X019350Y012780D02*
X000600Y012780D01*
X000600Y012661D02*
X019350Y012661D01*
X019350Y012543D02*
X000600Y012543D01*
X000600Y012424D02*
X019350Y012424D01*
X019350Y012306D02*
X000600Y012306D01*
X000600Y012187D02*
X019350Y012187D01*
X019350Y012069D02*
X000600Y012069D01*
X000600Y011950D02*
X019350Y011950D01*
X019350Y011832D02*
X000600Y011832D01*
X000600Y011713D02*
X019350Y011713D01*
X019350Y011595D02*
X000600Y011595D01*
X000600Y011476D02*
X008082Y011476D01*
X008092Y011494D02*
X008071Y011457D01*
X008060Y011416D01*
X008060Y011160D01*
X008416Y011160D01*
X008416Y011555D01*
X008199Y011555D01*
X008158Y011544D01*
X008122Y011523D01*
X008092Y011494D01*
X008060Y011358D02*
X000600Y011358D01*
X000600Y011239D02*
X008060Y011239D01*
X008060Y011040D02*
X008060Y010784D01*
X008071Y010743D01*
X008092Y010706D01*
X008122Y010677D01*
X008158Y010656D01*
X008199Y010645D01*
X008416Y010645D01*
X008416Y011040D01*
X008536Y011040D01*
X008536Y010645D01*
X008753Y010645D01*
X008794Y010656D01*
X008830Y010677D01*
X008860Y010706D01*
X008879Y010739D01*
X008923Y010695D01*
X009525Y010695D01*
X009590Y010759D01*
X009590Y010812D01*
X009719Y010812D01*
X009888Y010981D01*
X009888Y011219D01*
X009719Y011388D01*
X009590Y011388D01*
X009590Y011441D01*
X009525Y011505D01*
X008923Y011505D01*
X008879Y011461D01*
X008860Y011494D01*
X008830Y011523D01*
X008794Y011544D01*
X008753Y011555D01*
X008536Y011555D01*
X008536Y011160D01*
X008416Y011160D01*
X008416Y011040D01*
X008060Y011040D01*
X008060Y011002D02*
X000600Y011002D01*
X000600Y010884D02*
X008060Y010884D01*
X008065Y010765D02*
X000600Y010765D01*
X000600Y010647D02*
X008192Y010647D01*
X008416Y010647D02*
X008536Y010647D01*
X008536Y010765D02*
X008416Y010765D01*
X008416Y010884D02*
X008536Y010884D01*
X008536Y011002D02*
X008416Y011002D01*
X008416Y011121D02*
X000600Y011121D01*
X000600Y010528D02*
X019350Y010528D01*
X019350Y010410D02*
X000600Y010410D01*
X000600Y010291D02*
X019350Y010291D01*
X019350Y010173D02*
X000600Y010173D01*
X000600Y010054D02*
X019350Y010054D01*
X019350Y009936D02*
X000600Y009936D01*
X000600Y009817D02*
X019350Y009817D01*
X019350Y009699D02*
X000600Y009699D01*
X000600Y009580D02*
X019350Y009580D01*
X019350Y009462D02*
X000600Y009462D01*
X000600Y009343D02*
X019350Y009343D01*
X019350Y009225D02*
X000600Y009225D01*
X000600Y009106D02*
X019350Y009106D01*
X019350Y008988D02*
X000600Y008988D01*
X000600Y008869D02*
X019350Y008869D01*
X019350Y008751D02*
X000600Y008751D01*
X000600Y008632D02*
X016754Y008632D01*
X016743Y008629D02*
X016706Y008608D01*
X016677Y008578D01*
X016656Y008542D01*
X016645Y008501D01*
X016645Y008284D01*
X017040Y008284D01*
X017040Y008164D01*
X016645Y008164D01*
X016645Y007947D01*
X016656Y007906D01*
X016677Y007870D01*
X016706Y007840D01*
X016739Y007821D01*
X016695Y007777D01*
X016695Y007175D01*
X016759Y007110D01*
X016930Y007110D01*
X016930Y006337D01*
X016850Y006257D01*
X016719Y006388D01*
X016481Y006388D01*
X016312Y006219D01*
X016312Y005981D01*
X016430Y005863D01*
X016430Y003587D01*
X016312Y003469D01*
X016312Y003231D01*
X016481Y003062D01*
X016719Y003062D01*
X016888Y003231D01*
X016888Y003469D01*
X016770Y003587D01*
X016770Y005863D01*
X016850Y005943D01*
X016930Y005863D01*
X016930Y002837D01*
X016812Y002719D01*
X016812Y002481D01*
X016981Y002312D01*
X017219Y002312D01*
X017388Y002481D01*
X017388Y002719D01*
X017270Y002837D01*
X017270Y005863D01*
X017388Y005981D01*
X017388Y006219D01*
X017270Y006337D01*
X017270Y007110D01*
X017441Y007110D01*
X017505Y007175D01*
X017505Y007777D01*
X017461Y007821D01*
X017494Y007840D01*
X017523Y007870D01*
X017544Y007906D01*
X017555Y007947D01*
X017555Y008164D01*
X017160Y008164D01*
X017160Y008284D01*
X017555Y008284D01*
X017555Y008501D01*
X017544Y008542D01*
X017523Y008578D01*
X017494Y008608D01*
X017457Y008629D01*
X017416Y008640D01*
X017160Y008640D01*
X017160Y008284D01*
X017040Y008284D01*
X017040Y008640D01*
X016784Y008640D01*
X016743Y008629D01*
X016648Y008514D02*
X000600Y008514D01*
X000600Y008395D02*
X016645Y008395D01*
X016645Y008158D02*
X000600Y008158D01*
X000600Y008040D02*
X016645Y008040D01*
X016652Y007921D02*
X000600Y007921D01*
X000600Y007803D02*
X016720Y007803D01*
X016695Y007684D02*
X000600Y007684D01*
X000600Y007566D02*
X016695Y007566D01*
X016695Y007447D02*
X000600Y007447D01*
X000600Y007329D02*
X016695Y007329D01*
X016695Y007210D02*
X000600Y007210D01*
X000600Y007092D02*
X009184Y007092D01*
X009231Y007138D02*
X009062Y006969D01*
X009062Y006731D01*
X009231Y006562D01*
X009469Y006562D01*
X009587Y006680D01*
X012280Y006680D01*
X012930Y006030D01*
X012930Y005837D01*
X012812Y005719D01*
X012812Y005481D01*
X012981Y005312D01*
X013180Y005312D01*
X014312Y004369D01*
X014312Y004231D01*
X014481Y004062D01*
X014719Y004062D01*
X014888Y004231D01*
X014888Y004469D01*
X014719Y004638D01*
X014520Y004638D01*
X013388Y005581D01*
X013388Y005719D01*
X013270Y005837D01*
X013270Y006170D01*
X013170Y006270D01*
X012420Y007020D01*
X009587Y007020D01*
X009469Y007138D01*
X009231Y007138D01*
X009066Y006973D02*
X000600Y006973D01*
X000600Y006855D02*
X009062Y006855D01*
X009062Y006736D02*
X000600Y006736D01*
X000600Y006618D02*
X009175Y006618D01*
X009350Y006850D02*
X012350Y006850D01*
X013100Y006100D01*
X013100Y005600D01*
X014600Y004350D01*
X014888Y004366D02*
X016430Y004366D01*
X016430Y004248D02*
X014888Y004248D01*
X014786Y004129D02*
X016430Y004129D01*
X016430Y004011D02*
X012303Y004011D01*
X012305Y004001D02*
X012294Y004042D01*
X012273Y004078D01*
X012244Y004108D01*
X012207Y004129D01*
X012166Y004140D01*
X011910Y004140D01*
X011910Y003784D01*
X012305Y003784D01*
X012305Y004001D01*
X012305Y003892D02*
X016430Y003892D01*
X016430Y003774D02*
X011910Y003774D01*
X011910Y003784D02*
X011910Y003664D01*
X012305Y003664D01*
X012305Y003447D01*
X012294Y003406D01*
X012273Y003370D01*
X012244Y003340D01*
X012211Y003321D01*
X012255Y003277D01*
X012255Y002675D01*
X012191Y002610D01*
X012020Y002610D01*
X012020Y002030D01*
X011920Y001930D01*
X011795Y001805D01*
X010337Y001805D01*
X010219Y001687D01*
X009981Y001687D01*
X009812Y001856D01*
X009812Y001930D01*
X005337Y001930D01*
X005219Y001812D01*
X004981Y001812D01*
X004812Y001981D01*
X004812Y002219D01*
X004981Y002388D01*
X005219Y002388D01*
X005337Y002270D01*
X010045Y002270D01*
X010052Y002263D01*
X010219Y002263D01*
X010337Y002145D01*
X011655Y002145D01*
X011680Y002170D01*
X011680Y002610D01*
X011509Y002610D01*
X011445Y002675D01*
X011445Y003277D01*
X011489Y003321D01*
X011456Y003340D01*
X011427Y003370D01*
X011406Y003406D01*
X011395Y003447D01*
X011395Y003664D01*
X011790Y003664D01*
X011790Y003784D01*
X011395Y003784D01*
X011395Y004001D01*
X011406Y004042D01*
X011427Y004078D01*
X011456Y004108D01*
X011493Y004129D01*
X011534Y004140D01*
X011790Y004140D01*
X011790Y003784D01*
X011910Y003784D01*
X011910Y003892D02*
X011790Y003892D01*
X011790Y003774D02*
X000600Y003774D01*
X000600Y003892D02*
X011395Y003892D01*
X011397Y004011D02*
X000600Y004011D01*
X000600Y004129D02*
X011493Y004129D01*
X011790Y004129D02*
X011910Y004129D01*
X011910Y004011D02*
X011790Y004011D01*
X012207Y004129D02*
X014414Y004129D01*
X014312Y004248D02*
X000600Y004248D01*
X000600Y004366D02*
X014312Y004366D01*
X014173Y004485D02*
X000600Y004485D01*
X000600Y004603D02*
X014031Y004603D01*
X013889Y004722D02*
X000600Y004722D01*
X000600Y004840D02*
X013746Y004840D01*
X013604Y004959D02*
X000600Y004959D01*
X000600Y005077D02*
X013462Y005077D01*
X013320Y005196D02*
X000600Y005196D01*
X000600Y005314D02*
X012979Y005314D01*
X012860Y005433D02*
X000600Y005433D01*
X000600Y005551D02*
X012812Y005551D01*
X012812Y005670D02*
X000600Y005670D01*
X000600Y005788D02*
X012881Y005788D01*
X012930Y005907D02*
X000600Y005907D01*
X000600Y006025D02*
X012930Y006025D01*
X012816Y006144D02*
X000600Y006144D01*
X000600Y006262D02*
X012698Y006262D01*
X012579Y006381D02*
X000600Y006381D01*
X000600Y006499D02*
X012461Y006499D01*
X012342Y006618D02*
X009525Y006618D01*
X009516Y007092D02*
X016930Y007092D01*
X016930Y006973D02*
X012467Y006973D01*
X012586Y006855D02*
X016930Y006855D01*
X016930Y006736D02*
X012704Y006736D01*
X012823Y006618D02*
X016930Y006618D01*
X016930Y006499D02*
X012941Y006499D01*
X013060Y006381D02*
X013473Y006381D01*
X013481Y006388D02*
X013312Y006219D01*
X013312Y005981D01*
X013481Y005812D01*
X013648Y005812D01*
X014312Y005148D01*
X014312Y004981D01*
X014481Y004812D01*
X014719Y004812D01*
X014888Y004981D01*
X014888Y005219D01*
X014719Y005388D01*
X014552Y005388D01*
X013888Y006052D01*
X013888Y006219D01*
X013719Y006388D01*
X013481Y006388D01*
X013355Y006262D02*
X013178Y006262D01*
X013270Y006144D02*
X013312Y006144D01*
X013312Y006025D02*
X013270Y006025D01*
X013270Y005907D02*
X013386Y005907D01*
X013319Y005788D02*
X013672Y005788D01*
X013790Y005670D02*
X013388Y005670D01*
X013424Y005551D02*
X013909Y005551D01*
X014027Y005433D02*
X013567Y005433D01*
X013709Y005314D02*
X014146Y005314D01*
X014264Y005196D02*
X013851Y005196D01*
X013993Y005077D02*
X014312Y005077D01*
X014334Y004959D02*
X014135Y004959D01*
X014278Y004840D02*
X014453Y004840D01*
X014420Y004722D02*
X016430Y004722D01*
X016430Y004840D02*
X014747Y004840D01*
X014866Y004959D02*
X016430Y004959D01*
X016430Y005077D02*
X014888Y005077D01*
X014888Y005196D02*
X016430Y005196D01*
X016430Y005314D02*
X014793Y005314D01*
X014600Y005100D02*
X013600Y006100D01*
X013888Y006144D02*
X016312Y006144D01*
X016312Y006025D02*
X013915Y006025D01*
X014034Y005907D02*
X016386Y005907D01*
X016430Y005788D02*
X014152Y005788D01*
X014271Y005670D02*
X016430Y005670D01*
X016430Y005551D02*
X014389Y005551D01*
X014508Y005433D02*
X016430Y005433D01*
X016770Y005433D02*
X016930Y005433D01*
X016930Y005551D02*
X016770Y005551D01*
X016770Y005670D02*
X016930Y005670D01*
X016930Y005788D02*
X016770Y005788D01*
X016814Y005907D02*
X016886Y005907D01*
X017100Y006100D02*
X017100Y007476D01*
X017270Y007092D02*
X019350Y007092D01*
X019350Y007210D02*
X017505Y007210D01*
X017505Y007329D02*
X019350Y007329D01*
X019350Y007447D02*
X017505Y007447D01*
X017505Y007566D02*
X019350Y007566D01*
X019350Y007684D02*
X017505Y007684D01*
X017480Y007803D02*
X019350Y007803D01*
X019350Y007921D02*
X017548Y007921D01*
X017555Y008040D02*
X019350Y008040D01*
X019350Y008158D02*
X017555Y008158D01*
X017555Y008395D02*
X019350Y008395D01*
X019350Y008277D02*
X017160Y008277D01*
X017160Y008395D02*
X017040Y008395D01*
X017040Y008277D02*
X000600Y008277D01*
X000600Y003655D02*
X000875Y003655D01*
X000693Y003537D02*
X000600Y003537D01*
X000600Y003418D02*
X000609Y003418D01*
X000600Y002944D02*
X000627Y002944D01*
X000624Y002826D02*
X000739Y002826D01*
X000743Y002707D02*
X001314Y002707D01*
X001340Y002768D02*
X001266Y002592D01*
X001266Y002401D01*
X001340Y002225D01*
X001475Y002090D01*
X001651Y002016D01*
X001842Y002016D01*
X002018Y002090D01*
X002153Y002225D01*
X002226Y002401D01*
X002226Y002592D01*
X002153Y002768D01*
X002018Y002903D01*
X001842Y002976D01*
X001651Y002976D01*
X001475Y002903D01*
X001340Y002768D01*
X001340Y002826D02*
X001397Y002826D01*
X001451Y002944D02*
X001573Y002944D01*
X001500Y003063D02*
X011445Y003063D01*
X011445Y003181D02*
X001519Y003181D01*
X001519Y003300D02*
X011467Y003300D01*
X011403Y003418D02*
X001470Y003418D01*
X001385Y003537D02*
X011395Y003537D01*
X011395Y003655D02*
X001204Y003655D01*
X001920Y002944D02*
X011445Y002944D01*
X011445Y002826D02*
X002096Y002826D01*
X002179Y002707D02*
X011445Y002707D01*
X011680Y002589D02*
X002226Y002589D01*
X002226Y002470D02*
X011680Y002470D01*
X011680Y002352D02*
X005256Y002352D01*
X005100Y002100D02*
X009975Y002100D01*
X010100Y001975D01*
X011725Y001975D01*
X011850Y002100D01*
X011850Y002976D01*
X012020Y002589D02*
X014430Y002589D01*
X014430Y002707D02*
X012255Y002707D01*
X012255Y002826D02*
X014430Y002826D01*
X014430Y002944D02*
X012255Y002944D01*
X012255Y003063D02*
X014430Y003063D01*
X014430Y003181D02*
X012255Y003181D01*
X012233Y003300D02*
X014368Y003300D01*
X014312Y003356D02*
X014430Y003238D01*
X014430Y001549D01*
X014328Y001507D01*
X014193Y001372D01*
X014120Y001195D01*
X014120Y001005D01*
X014193Y000828D01*
X014328Y000693D01*
X014505Y000620D01*
X014695Y000620D01*
X014872Y000693D01*
X015007Y000828D01*
X015080Y001005D01*
X015080Y001195D01*
X015007Y001372D01*
X014872Y001507D01*
X014770Y001549D01*
X014770Y003238D01*
X014888Y003356D01*
X014888Y003594D01*
X014719Y003763D01*
X014481Y003763D01*
X014312Y003594D01*
X014312Y003356D01*
X014312Y003418D02*
X012297Y003418D01*
X012305Y003537D02*
X014312Y003537D01*
X014373Y003655D02*
X012305Y003655D01*
X012020Y002470D02*
X014430Y002470D01*
X014430Y002352D02*
X012020Y002352D01*
X012020Y002233D02*
X014430Y002233D01*
X014430Y002115D02*
X012020Y002115D01*
X011986Y001996D02*
X014430Y001996D01*
X014430Y001878D02*
X011868Y001878D01*
X011835Y001522D02*
X012365Y001522D01*
X012328Y001507D02*
X012505Y001580D01*
X012695Y001580D01*
X012872Y001507D01*
X013007Y001372D01*
X013080Y001195D01*
X013080Y001005D01*
X013007Y000828D01*
X012872Y000693D01*
X012695Y000620D01*
X012505Y000620D01*
X012328Y000693D01*
X012193Y000828D01*
X012120Y001005D01*
X012120Y001195D01*
X012193Y001372D01*
X012328Y001507D01*
X012225Y001404D02*
X011975Y001404D01*
X012043Y001285D02*
X012157Y001285D01*
X012120Y001167D02*
X012080Y001167D01*
X012080Y001048D02*
X012120Y001048D01*
X012151Y000930D02*
X012049Y000930D01*
X011990Y000811D02*
X012210Y000811D01*
X012329Y000693D02*
X011871Y000693D01*
X011329Y000693D02*
X010941Y000693D01*
X011045Y000811D02*
X011210Y000811D01*
X011151Y000930D02*
X011102Y000930D01*
X011097Y001285D02*
X011157Y001285D01*
X011225Y001404D02*
X011035Y001404D01*
X010921Y001522D02*
X011365Y001522D01*
X010640Y001522D02*
X010560Y001522D01*
X010560Y001404D02*
X010640Y001404D01*
X010640Y001285D02*
X010560Y001285D01*
X010560Y001167D02*
X010640Y001167D01*
X010279Y001522D02*
X009835Y001522D01*
X009975Y001404D02*
X010165Y001404D01*
X010103Y001285D02*
X010043Y001285D01*
X010049Y000930D02*
X010098Y000930D01*
X010155Y000811D02*
X009990Y000811D01*
X009871Y000693D02*
X010259Y000693D01*
X009365Y001522D02*
X008835Y001522D01*
X008872Y001507D02*
X008695Y001580D01*
X008505Y001580D01*
X008328Y001507D01*
X008193Y001372D01*
X008120Y001195D01*
X008120Y001005D01*
X008193Y000828D01*
X008328Y000693D01*
X008505Y000620D01*
X008695Y000620D01*
X008872Y000693D01*
X009007Y000828D01*
X009080Y001005D01*
X009080Y001195D01*
X009007Y001372D01*
X008872Y001507D01*
X008975Y001404D02*
X009225Y001404D01*
X009157Y001285D02*
X009043Y001285D01*
X009080Y001167D02*
X009120Y001167D01*
X009120Y001048D02*
X009080Y001048D01*
X009049Y000930D02*
X009151Y000930D01*
X009210Y000811D02*
X008990Y000811D01*
X008871Y000693D02*
X009329Y000693D01*
X008365Y001522D02*
X007835Y001522D01*
X007872Y001507D02*
X007695Y001580D01*
X007505Y001580D01*
X007328Y001507D01*
X007193Y001372D01*
X007120Y001195D01*
X007120Y001005D01*
X007193Y000828D01*
X007328Y000693D01*
X007505Y000620D01*
X007695Y000620D01*
X007872Y000693D01*
X008007Y000828D01*
X008080Y001005D01*
X008080Y001195D01*
X008007Y001372D01*
X007872Y001507D01*
X007975Y001404D02*
X008225Y001404D01*
X008157Y001285D02*
X008043Y001285D01*
X008080Y001167D02*
X008120Y001167D01*
X008120Y001048D02*
X008080Y001048D01*
X008049Y000930D02*
X008151Y000930D01*
X008210Y000811D02*
X007990Y000811D01*
X007871Y000693D02*
X008329Y000693D01*
X007365Y001522D02*
X006835Y001522D01*
X006872Y001507D02*
X006695Y001580D01*
X006505Y001580D01*
X006328Y001507D01*
X006193Y001372D01*
X006120Y001195D01*
X006120Y001005D01*
X006193Y000828D01*
X006328Y000693D01*
X006505Y000620D01*
X006695Y000620D01*
X006872Y000693D01*
X007007Y000828D01*
X007080Y001005D01*
X007080Y001195D01*
X007007Y001372D01*
X006872Y001507D01*
X006975Y001404D02*
X007225Y001404D01*
X007157Y001285D02*
X007043Y001285D01*
X007080Y001167D02*
X007120Y001167D01*
X007120Y001048D02*
X007080Y001048D01*
X007049Y000930D02*
X007151Y000930D01*
X007210Y000811D02*
X006990Y000811D01*
X006871Y000693D02*
X007329Y000693D01*
X006365Y001522D02*
X005835Y001522D01*
X005872Y001507D02*
X005695Y001580D01*
X005505Y001580D01*
X005328Y001507D01*
X005193Y001372D01*
X005120Y001195D01*
X005120Y001005D01*
X005193Y000828D01*
X005328Y000693D01*
X005505Y000620D01*
X005695Y000620D01*
X005872Y000693D01*
X006007Y000828D01*
X006080Y001005D01*
X006080Y001195D01*
X006007Y001372D01*
X005872Y001507D01*
X005975Y001404D02*
X006225Y001404D01*
X006157Y001285D02*
X006043Y001285D01*
X006080Y001167D02*
X006120Y001167D01*
X006120Y001048D02*
X006080Y001048D01*
X006049Y000930D02*
X006151Y000930D01*
X006210Y000811D02*
X005990Y000811D01*
X005871Y000693D02*
X006329Y000693D01*
X005329Y000693D02*
X004871Y000693D01*
X004872Y000693D02*
X005007Y000828D01*
X005080Y001005D01*
X005080Y001195D01*
X005007Y001372D01*
X004872Y001507D01*
X004695Y001580D01*
X004505Y001580D01*
X004328Y001507D01*
X004193Y001372D01*
X004120Y001195D01*
X004120Y001005D01*
X004193Y000828D01*
X004328Y000693D01*
X004505Y000620D01*
X004695Y000620D01*
X004872Y000693D01*
X004990Y000811D02*
X005210Y000811D01*
X005151Y000930D02*
X005049Y000930D01*
X005080Y001048D02*
X005120Y001048D01*
X005120Y001167D02*
X005080Y001167D01*
X005043Y001285D02*
X005157Y001285D01*
X005225Y001404D02*
X004975Y001404D01*
X004835Y001522D02*
X005365Y001522D01*
X005285Y001878D02*
X009812Y001878D01*
X009909Y001759D02*
X001691Y001759D01*
X001809Y001641D02*
X014430Y001641D01*
X014430Y001759D02*
X010291Y001759D01*
X010249Y002233D02*
X011680Y002233D01*
X012835Y001522D02*
X013365Y001522D01*
X013328Y001507D02*
X013193Y001372D01*
X013120Y001195D01*
X013120Y001005D01*
X013193Y000828D01*
X013328Y000693D01*
X013505Y000620D01*
X013695Y000620D01*
X013872Y000693D01*
X014007Y000828D01*
X014080Y001005D01*
X014080Y001195D01*
X014007Y001372D01*
X013872Y001507D01*
X013695Y001580D01*
X013505Y001580D01*
X013328Y001507D01*
X013225Y001404D02*
X012975Y001404D01*
X013043Y001285D02*
X013157Y001285D01*
X013120Y001167D02*
X013080Y001167D01*
X013080Y001048D02*
X013120Y001048D01*
X013151Y000930D02*
X013049Y000930D01*
X012990Y000811D02*
X013210Y000811D01*
X013329Y000693D02*
X012871Y000693D01*
X013871Y000693D02*
X014329Y000693D01*
X014210Y000811D02*
X013990Y000811D01*
X014049Y000930D02*
X014151Y000930D01*
X014120Y001048D02*
X014080Y001048D01*
X014080Y001167D02*
X014120Y001167D01*
X014157Y001285D02*
X014043Y001285D01*
X013975Y001404D02*
X014225Y001404D01*
X014365Y001522D02*
X013835Y001522D01*
X014600Y001100D02*
X014600Y003475D01*
X014827Y003655D02*
X016430Y003655D01*
X016379Y003537D02*
X014888Y003537D01*
X014888Y003418D02*
X016312Y003418D01*
X016312Y003300D02*
X014832Y003300D01*
X014770Y003181D02*
X016362Y003181D01*
X016480Y003063D02*
X014770Y003063D01*
X014770Y002944D02*
X016930Y002944D01*
X016930Y003063D02*
X016720Y003063D01*
X016838Y003181D02*
X016930Y003181D01*
X016930Y003300D02*
X016888Y003300D01*
X016888Y003418D02*
X016930Y003418D01*
X016930Y003537D02*
X016821Y003537D01*
X016770Y003655D02*
X016930Y003655D01*
X016930Y003774D02*
X016770Y003774D01*
X016770Y003892D02*
X016930Y003892D01*
X016930Y004011D02*
X016770Y004011D01*
X016770Y004129D02*
X016930Y004129D01*
X016930Y004248D02*
X016770Y004248D01*
X016770Y004366D02*
X016930Y004366D01*
X016930Y004485D02*
X016770Y004485D01*
X016770Y004603D02*
X016930Y004603D01*
X016930Y004722D02*
X016770Y004722D01*
X016770Y004840D02*
X016930Y004840D01*
X016930Y004959D02*
X016770Y004959D01*
X016770Y005077D02*
X016930Y005077D01*
X016930Y005196D02*
X016770Y005196D01*
X016770Y005314D02*
X016930Y005314D01*
X017270Y005314D02*
X019350Y005314D01*
X019350Y005196D02*
X017270Y005196D01*
X017270Y005077D02*
X019350Y005077D01*
X019350Y004959D02*
X017270Y004959D01*
X017270Y004840D02*
X019350Y004840D01*
X019350Y004722D02*
X017270Y004722D01*
X017270Y004603D02*
X019350Y004603D01*
X019350Y004485D02*
X017270Y004485D01*
X017270Y004366D02*
X019350Y004366D01*
X019350Y004248D02*
X017270Y004248D01*
X017270Y004129D02*
X019350Y004129D01*
X019350Y004011D02*
X017270Y004011D01*
X017270Y003892D02*
X019350Y003892D01*
X019350Y003774D02*
X017270Y003774D01*
X017270Y003655D02*
X018746Y003655D01*
X018608Y003537D02*
X017270Y003537D01*
X017270Y003418D02*
X018541Y003418D01*
X018504Y003300D02*
X017270Y003300D01*
X017270Y003181D02*
X018504Y003181D01*
X018535Y003063D02*
X017270Y003063D01*
X017270Y002944D02*
X018030Y002944D01*
X018005Y002934D02*
X017870Y002799D01*
X017797Y002622D01*
X017797Y002431D01*
X017870Y002255D01*
X018005Y002120D01*
X018181Y002047D01*
X018372Y002047D01*
X018549Y002120D01*
X018684Y002255D01*
X018757Y002431D01*
X018757Y002622D01*
X018684Y002799D01*
X018549Y002934D01*
X018372Y003007D01*
X018181Y003007D01*
X018005Y002934D01*
X017897Y002826D02*
X017282Y002826D01*
X017388Y002707D02*
X017832Y002707D01*
X017797Y002589D02*
X017388Y002589D01*
X017377Y002470D02*
X017797Y002470D01*
X017830Y002352D02*
X017259Y002352D01*
X016941Y002352D02*
X014770Y002352D01*
X014770Y002470D02*
X016823Y002470D01*
X016812Y002589D02*
X014770Y002589D01*
X014770Y002707D02*
X016812Y002707D01*
X016918Y002826D02*
X014770Y002826D01*
X014770Y002233D02*
X017892Y002233D01*
X018018Y002115D02*
X014770Y002115D01*
X014770Y001996D02*
X018746Y001996D01*
X018628Y001878D02*
X014770Y001878D01*
X014770Y001759D02*
X018480Y001759D01*
X018329Y001641D02*
X014770Y001641D01*
X014835Y001522D02*
X015365Y001522D01*
X015328Y001507D02*
X015193Y001372D01*
X015120Y001195D01*
X015120Y001005D01*
X015193Y000828D01*
X015328Y000693D01*
X015505Y000620D01*
X015695Y000620D01*
X015872Y000693D01*
X016007Y000828D01*
X016080Y001005D01*
X016080Y001195D01*
X016007Y001372D01*
X015872Y001507D01*
X015695Y001580D01*
X015505Y001580D01*
X015328Y001507D01*
X015225Y001404D02*
X014975Y001404D01*
X015043Y001285D02*
X015157Y001285D01*
X015120Y001167D02*
X015080Y001167D01*
X015080Y001048D02*
X015120Y001048D01*
X015151Y000930D02*
X015049Y000930D01*
X014990Y000811D02*
X015210Y000811D01*
X015329Y000693D02*
X014871Y000693D01*
X015871Y000693D02*
X016329Y000693D01*
X016210Y000811D02*
X015990Y000811D01*
X016049Y000930D02*
X016151Y000930D01*
X016120Y001048D02*
X016080Y001048D01*
X016080Y001167D02*
X016120Y001167D01*
X016157Y001285D02*
X016043Y001285D01*
X015975Y001404D02*
X016225Y001404D01*
X016365Y001522D02*
X015835Y001522D01*
X016835Y001522D02*
X017279Y001522D01*
X017165Y001404D02*
X016975Y001404D01*
X017043Y001285D02*
X017103Y001285D01*
X017098Y000930D02*
X017049Y000930D01*
X016990Y000811D02*
X017155Y000811D01*
X017259Y000693D02*
X016871Y000693D01*
X017560Y001167D02*
X017640Y001167D01*
X017640Y001285D02*
X017560Y001285D01*
X017560Y001404D02*
X017640Y001404D01*
X017640Y001522D02*
X017560Y001522D01*
X017921Y001522D02*
X018212Y001522D01*
X018154Y001404D02*
X018035Y001404D01*
X018097Y001285D02*
X018100Y001285D01*
X018536Y002115D02*
X018865Y002115D01*
X018983Y002233D02*
X018662Y002233D01*
X018724Y002352D02*
X019102Y002352D01*
X019220Y002470D02*
X018757Y002470D01*
X018757Y002589D02*
X019339Y002589D01*
X019350Y002707D02*
X018722Y002707D01*
X018715Y002826D02*
X018657Y002826D01*
X018595Y002944D02*
X018524Y002944D01*
X019252Y002826D02*
X019350Y002826D01*
X019350Y003655D02*
X019221Y003655D01*
X019350Y005433D02*
X017270Y005433D01*
X017270Y005551D02*
X019350Y005551D01*
X019350Y005670D02*
X017270Y005670D01*
X017270Y005788D02*
X019350Y005788D01*
X019350Y005907D02*
X017314Y005907D01*
X017388Y006025D02*
X019350Y006025D01*
X019350Y006144D02*
X017388Y006144D01*
X017345Y006262D02*
X019350Y006262D01*
X019350Y006381D02*
X017270Y006381D01*
X017270Y006499D02*
X019350Y006499D01*
X019350Y006618D02*
X017270Y006618D01*
X017270Y006736D02*
X019350Y006736D01*
X019350Y006855D02*
X017270Y006855D01*
X017270Y006973D02*
X019350Y006973D01*
X019350Y008514D02*
X017552Y008514D01*
X017446Y008632D02*
X019350Y008632D01*
X019350Y010647D02*
X008760Y010647D01*
X008536Y011239D02*
X008416Y011239D01*
X008416Y011358D02*
X008536Y011358D01*
X008536Y011476D02*
X008416Y011476D01*
X008870Y011476D02*
X008893Y011476D01*
X009555Y011476D02*
X019350Y011476D01*
X019350Y011358D02*
X009750Y011358D01*
X009868Y011239D02*
X019350Y011239D01*
X019350Y011121D02*
X009888Y011121D01*
X009888Y011002D02*
X019350Y011002D01*
X019350Y010884D02*
X009791Y010884D01*
X009590Y010765D02*
X019350Y010765D01*
X017160Y008632D02*
X017040Y008632D01*
X017040Y008514D02*
X017160Y008514D01*
X016930Y006381D02*
X016727Y006381D01*
X016845Y006262D02*
X016855Y006262D01*
X017100Y006100D02*
X017100Y002600D01*
X016600Y003350D02*
X016600Y006100D01*
X016355Y006262D02*
X013845Y006262D01*
X013727Y006381D02*
X016473Y006381D01*
X016430Y004603D02*
X014754Y004603D01*
X014873Y004485D02*
X016430Y004485D01*
X013225Y004975D02*
X012600Y004975D01*
X010600Y011350D02*
X010475Y011350D01*
X019276Y015861D02*
X019350Y015861D01*
X004944Y002352D02*
X002206Y002352D01*
X002157Y002233D02*
X004826Y002233D01*
X004812Y002115D02*
X002043Y002115D01*
X001572Y001878D02*
X004915Y001878D01*
X004812Y001996D02*
X001454Y001996D01*
X001450Y002115D02*
X001335Y002115D01*
X001336Y002233D02*
X001217Y002233D01*
X001287Y002352D02*
X001098Y002352D01*
X000980Y002470D02*
X001266Y002470D01*
X001266Y002589D02*
X000861Y002589D01*
X001928Y001522D02*
X002365Y001522D01*
X002328Y001507D02*
X002193Y001372D01*
X002120Y001195D01*
X002120Y001005D01*
X002193Y000828D01*
X002328Y000693D01*
X002505Y000620D01*
X002695Y000620D01*
X002872Y000693D01*
X003007Y000828D01*
X003080Y001005D01*
X003080Y001195D01*
X003007Y001372D01*
X002872Y001507D01*
X002695Y001580D01*
X002505Y001580D01*
X002328Y001507D01*
X002225Y001404D02*
X002046Y001404D01*
X002100Y001285D02*
X002157Y001285D01*
X002120Y001167D02*
X002100Y001167D01*
X002100Y001048D02*
X002120Y001048D01*
X002100Y000930D02*
X002151Y000930D01*
X002139Y000811D02*
X002210Y000811D01*
X002257Y000693D02*
X002329Y000693D01*
X002871Y000693D02*
X003329Y000693D01*
X003328Y000693D02*
X003505Y000620D01*
X003695Y000620D01*
X003872Y000693D01*
X004007Y000828D01*
X004080Y001005D01*
X004080Y001195D01*
X004007Y001372D01*
X003872Y001507D01*
X003695Y001580D01*
X003505Y001580D01*
X003328Y001507D01*
X003193Y001372D01*
X003120Y001195D01*
X003120Y001005D01*
X003193Y000828D01*
X003328Y000693D01*
X003210Y000811D02*
X002990Y000811D01*
X003049Y000930D02*
X003151Y000930D01*
X003120Y001048D02*
X003080Y001048D01*
X003080Y001167D02*
X003120Y001167D01*
X003157Y001285D02*
X003043Y001285D01*
X002975Y001404D02*
X003225Y001404D01*
X003365Y001522D02*
X002835Y001522D01*
X003835Y001522D02*
X004365Y001522D01*
X004225Y001404D02*
X003975Y001404D01*
X004043Y001285D02*
X004157Y001285D01*
X004120Y001167D02*
X004080Y001167D01*
X004080Y001048D02*
X004120Y001048D01*
X004151Y000930D02*
X004049Y000930D01*
X003990Y000811D02*
X004210Y000811D01*
X004329Y000693D02*
X003871Y000693D01*
D16*
X009224Y011100D02*
X009600Y011100D01*
M02*
