%
M48
M72
T01C0.0236
T02C0.0400
T03C0.1181
%
T01
X3100Y5475
X4725Y7100
X9350Y6850
X13100Y5600
X13225Y4975
X13600Y6100
X14600Y5100
X14600Y4350
X14600Y3475
X16600Y3350
X17100Y2600
X18600Y4850
X17100Y6100
X16600Y6100
X10475Y11350
X9600Y11100
X2350Y15600
X5100Y2100
X10100Y1975
T02
X746Y17350
X746Y16350
X2600Y18850
X3600Y18850
X4600Y18850
X5600Y18850
X6600Y18850
X7600Y18850
X8600Y18850
X9600Y18850
X10600Y18850
X11600Y18850
X12600Y18850
X13600Y18850
X14600Y18850
X15600Y18850
X16600Y18850
X17600Y18850
X19130Y17320
X19130Y16320
X18984Y3234
X18277Y2527
X17600Y1100
X16600Y1100
X15600Y1100
X14600Y1100
X13600Y1100
X12600Y1100
X11600Y1100
X10600Y1100
X9600Y1100
X8600Y1100
X7600Y1100
X6600Y1100
X5600Y1100
X4600Y1100
X3600Y1100
X2600Y1100
X1746Y2496
X1039Y3204
T03
X1100Y1100
X1100Y18850
X18850Y18850
X18850Y1100
M30
