G75*
%MOIN*%
%OFA0B0*%
%FSLAX24Y24*%
%IPPOS*%
%LPD*%
%AMOC8*
5,1,8,0,0,1.08239X$1,22.5*
%
%ADD10C,0.0000*%
%ADD11C,0.0040*%
%ADD12C,0.0030*%
%ADD13C,0.0080*%
%ADD14C,0.0060*%
%ADD15C,0.0020*%
D10*
X000100Y000100D02*
X000100Y019785D01*
X019785Y019785D01*
X019785Y000100D01*
X000100Y000100D01*
X000509Y001100D02*
X000511Y001148D01*
X000517Y001196D01*
X000527Y001243D01*
X000540Y001289D01*
X000558Y001334D01*
X000578Y001378D01*
X000603Y001420D01*
X000631Y001459D01*
X000661Y001496D01*
X000695Y001530D01*
X000732Y001562D01*
X000770Y001591D01*
X000811Y001616D01*
X000854Y001638D01*
X000899Y001656D01*
X000945Y001670D01*
X000992Y001681D01*
X001040Y001688D01*
X001088Y001691D01*
X001136Y001690D01*
X001184Y001685D01*
X001232Y001676D01*
X001278Y001664D01*
X001323Y001647D01*
X001367Y001627D01*
X001409Y001604D01*
X001449Y001577D01*
X001487Y001547D01*
X001522Y001514D01*
X001554Y001478D01*
X001584Y001440D01*
X001610Y001399D01*
X001632Y001356D01*
X001652Y001312D01*
X001667Y001267D01*
X001679Y001220D01*
X001687Y001172D01*
X001691Y001124D01*
X001691Y001076D01*
X001687Y001028D01*
X001679Y000980D01*
X001667Y000933D01*
X001652Y000888D01*
X001632Y000844D01*
X001610Y000801D01*
X001584Y000760D01*
X001554Y000722D01*
X001522Y000686D01*
X001487Y000653D01*
X001449Y000623D01*
X001409Y000596D01*
X001367Y000573D01*
X001323Y000553D01*
X001278Y000536D01*
X001232Y000524D01*
X001184Y000515D01*
X001136Y000510D01*
X001088Y000509D01*
X001040Y000512D01*
X000992Y000519D01*
X000945Y000530D01*
X000899Y000544D01*
X000854Y000562D01*
X000811Y000584D01*
X000770Y000609D01*
X000732Y000638D01*
X000695Y000670D01*
X000661Y000704D01*
X000631Y000741D01*
X000603Y000780D01*
X000578Y000822D01*
X000558Y000866D01*
X000540Y000911D01*
X000527Y000957D01*
X000517Y001004D01*
X000511Y001052D01*
X000509Y001100D01*
X000509Y018850D02*
X000511Y018898D01*
X000517Y018946D01*
X000527Y018993D01*
X000540Y019039D01*
X000558Y019084D01*
X000578Y019128D01*
X000603Y019170D01*
X000631Y019209D01*
X000661Y019246D01*
X000695Y019280D01*
X000732Y019312D01*
X000770Y019341D01*
X000811Y019366D01*
X000854Y019388D01*
X000899Y019406D01*
X000945Y019420D01*
X000992Y019431D01*
X001040Y019438D01*
X001088Y019441D01*
X001136Y019440D01*
X001184Y019435D01*
X001232Y019426D01*
X001278Y019414D01*
X001323Y019397D01*
X001367Y019377D01*
X001409Y019354D01*
X001449Y019327D01*
X001487Y019297D01*
X001522Y019264D01*
X001554Y019228D01*
X001584Y019190D01*
X001610Y019149D01*
X001632Y019106D01*
X001652Y019062D01*
X001667Y019017D01*
X001679Y018970D01*
X001687Y018922D01*
X001691Y018874D01*
X001691Y018826D01*
X001687Y018778D01*
X001679Y018730D01*
X001667Y018683D01*
X001652Y018638D01*
X001632Y018594D01*
X001610Y018551D01*
X001584Y018510D01*
X001554Y018472D01*
X001522Y018436D01*
X001487Y018403D01*
X001449Y018373D01*
X001409Y018346D01*
X001367Y018323D01*
X001323Y018303D01*
X001278Y018286D01*
X001232Y018274D01*
X001184Y018265D01*
X001136Y018260D01*
X001088Y018259D01*
X001040Y018262D01*
X000992Y018269D01*
X000945Y018280D01*
X000899Y018294D01*
X000854Y018312D01*
X000811Y018334D01*
X000770Y018359D01*
X000732Y018388D01*
X000695Y018420D01*
X000661Y018454D01*
X000631Y018491D01*
X000603Y018530D01*
X000578Y018572D01*
X000558Y018616D01*
X000540Y018661D01*
X000527Y018707D01*
X000517Y018754D01*
X000511Y018802D01*
X000509Y018850D01*
X018259Y018850D02*
X018261Y018898D01*
X018267Y018946D01*
X018277Y018993D01*
X018290Y019039D01*
X018308Y019084D01*
X018328Y019128D01*
X018353Y019170D01*
X018381Y019209D01*
X018411Y019246D01*
X018445Y019280D01*
X018482Y019312D01*
X018520Y019341D01*
X018561Y019366D01*
X018604Y019388D01*
X018649Y019406D01*
X018695Y019420D01*
X018742Y019431D01*
X018790Y019438D01*
X018838Y019441D01*
X018886Y019440D01*
X018934Y019435D01*
X018982Y019426D01*
X019028Y019414D01*
X019073Y019397D01*
X019117Y019377D01*
X019159Y019354D01*
X019199Y019327D01*
X019237Y019297D01*
X019272Y019264D01*
X019304Y019228D01*
X019334Y019190D01*
X019360Y019149D01*
X019382Y019106D01*
X019402Y019062D01*
X019417Y019017D01*
X019429Y018970D01*
X019437Y018922D01*
X019441Y018874D01*
X019441Y018826D01*
X019437Y018778D01*
X019429Y018730D01*
X019417Y018683D01*
X019402Y018638D01*
X019382Y018594D01*
X019360Y018551D01*
X019334Y018510D01*
X019304Y018472D01*
X019272Y018436D01*
X019237Y018403D01*
X019199Y018373D01*
X019159Y018346D01*
X019117Y018323D01*
X019073Y018303D01*
X019028Y018286D01*
X018982Y018274D01*
X018934Y018265D01*
X018886Y018260D01*
X018838Y018259D01*
X018790Y018262D01*
X018742Y018269D01*
X018695Y018280D01*
X018649Y018294D01*
X018604Y018312D01*
X018561Y018334D01*
X018520Y018359D01*
X018482Y018388D01*
X018445Y018420D01*
X018411Y018454D01*
X018381Y018491D01*
X018353Y018530D01*
X018328Y018572D01*
X018308Y018616D01*
X018290Y018661D01*
X018277Y018707D01*
X018267Y018754D01*
X018261Y018802D01*
X018259Y018850D01*
X018259Y001100D02*
X018261Y001148D01*
X018267Y001196D01*
X018277Y001243D01*
X018290Y001289D01*
X018308Y001334D01*
X018328Y001378D01*
X018353Y001420D01*
X018381Y001459D01*
X018411Y001496D01*
X018445Y001530D01*
X018482Y001562D01*
X018520Y001591D01*
X018561Y001616D01*
X018604Y001638D01*
X018649Y001656D01*
X018695Y001670D01*
X018742Y001681D01*
X018790Y001688D01*
X018838Y001691D01*
X018886Y001690D01*
X018934Y001685D01*
X018982Y001676D01*
X019028Y001664D01*
X019073Y001647D01*
X019117Y001627D01*
X019159Y001604D01*
X019199Y001577D01*
X019237Y001547D01*
X019272Y001514D01*
X019304Y001478D01*
X019334Y001440D01*
X019360Y001399D01*
X019382Y001356D01*
X019402Y001312D01*
X019417Y001267D01*
X019429Y001220D01*
X019437Y001172D01*
X019441Y001124D01*
X019441Y001076D01*
X019437Y001028D01*
X019429Y000980D01*
X019417Y000933D01*
X019402Y000888D01*
X019382Y000844D01*
X019360Y000801D01*
X019334Y000760D01*
X019304Y000722D01*
X019272Y000686D01*
X019237Y000653D01*
X019199Y000623D01*
X019159Y000596D01*
X019117Y000573D01*
X019073Y000553D01*
X019028Y000536D01*
X018982Y000524D01*
X018934Y000515D01*
X018886Y000510D01*
X018838Y000509D01*
X018790Y000512D01*
X018742Y000519D01*
X018695Y000530D01*
X018649Y000544D01*
X018604Y000562D01*
X018561Y000584D01*
X018520Y000609D01*
X018482Y000638D01*
X018445Y000670D01*
X018411Y000704D01*
X018381Y000741D01*
X018353Y000780D01*
X018328Y000822D01*
X018308Y000866D01*
X018290Y000911D01*
X018277Y000957D01*
X018267Y001004D01*
X018261Y001052D01*
X018259Y001100D01*
D11*
X017330Y010356D02*
X017330Y010663D01*
X017330Y010510D02*
X016870Y010510D01*
X017023Y010356D01*
X009330Y014606D02*
X009330Y014913D01*
X009330Y014760D02*
X008870Y014760D01*
X009023Y014606D01*
X001233Y011751D02*
X001233Y011674D01*
X001233Y011751D02*
X001157Y011828D01*
X000773Y011828D01*
X000620Y011828D02*
X000543Y011828D01*
X000773Y012058D02*
X000773Y012212D01*
X000850Y012288D01*
X000927Y012288D01*
X000927Y011981D01*
X001003Y011981D02*
X000850Y011981D01*
X000773Y012058D01*
X001003Y011981D02*
X001080Y012058D01*
X001080Y012212D01*
X001003Y012442D02*
X000850Y012442D01*
X000773Y012518D01*
X000773Y012749D01*
X000773Y012902D02*
X000773Y013056D01*
X000696Y012979D02*
X001003Y012979D01*
X001080Y013056D01*
X001080Y013209D02*
X001003Y013209D01*
X001003Y013286D01*
X001080Y013286D01*
X001080Y013209D01*
X000850Y013209D02*
X000773Y013209D01*
X000773Y013286D01*
X000850Y013286D01*
X000850Y013209D01*
X001080Y012749D02*
X001080Y012518D01*
X001003Y012442D01*
X001003Y011521D02*
X000850Y011521D01*
X000773Y011444D01*
X000773Y011291D01*
X000850Y011214D01*
X001003Y011214D01*
X001080Y011291D01*
X001080Y011444D01*
X001003Y011521D01*
X000773Y011061D02*
X000773Y010984D01*
X000927Y010830D01*
X001080Y010830D02*
X000773Y010830D01*
X000696Y010677D02*
X000850Y010677D01*
X000927Y010600D01*
X000927Y010370D01*
X001080Y010370D02*
X000620Y010370D01*
X000620Y010600D01*
X000696Y010677D01*
X000850Y009684D02*
X000773Y009608D01*
X000773Y009377D01*
X001080Y009377D01*
X001003Y009224D02*
X000773Y009224D01*
X001003Y009224D02*
X001080Y009147D01*
X001003Y009070D01*
X001080Y008994D01*
X001003Y008917D01*
X000773Y008917D01*
X000850Y008764D02*
X000773Y008687D01*
X000773Y008533D01*
X000850Y008457D01*
X001003Y008457D01*
X001080Y008533D01*
X001080Y008687D01*
X001003Y008764D01*
X000850Y008764D01*
X000773Y008303D02*
X000773Y008226D01*
X000927Y008073D01*
X001080Y008073D02*
X000773Y008073D01*
X000773Y007919D02*
X000850Y007843D01*
X000850Y007613D01*
X000850Y007843D02*
X000927Y007919D01*
X001003Y007919D01*
X001080Y007843D01*
X001080Y007613D01*
X000620Y007613D01*
X000620Y007843D01*
X000696Y007919D01*
X000773Y007919D01*
X001003Y006999D02*
X001080Y006999D01*
X001080Y006922D01*
X001003Y006922D01*
X001003Y006999D01*
X000927Y006768D02*
X000620Y006768D01*
X000927Y006768D02*
X001080Y006615D01*
X000927Y006462D01*
X000620Y006462D01*
X000850Y005848D02*
X000773Y005771D01*
X000773Y005541D01*
X001080Y005541D01*
X000927Y005387D02*
X000927Y005080D01*
X001003Y005080D02*
X000850Y005080D01*
X000773Y005157D01*
X000773Y005311D01*
X000850Y005387D01*
X000927Y005387D01*
X001080Y005311D02*
X001080Y005157D01*
X001003Y005080D01*
X001003Y004927D02*
X000927Y004927D01*
X000850Y004850D01*
X000850Y004620D01*
X001080Y004620D02*
X001080Y004850D01*
X001003Y004927D01*
X000850Y004850D02*
X000773Y004927D01*
X000696Y004927D01*
X000620Y004850D01*
X000620Y004620D01*
X001080Y004620D01*
X001080Y005848D02*
X000850Y005848D01*
X000850Y009684D02*
X001080Y009684D01*
X001080Y013900D02*
X001080Y014207D01*
X001003Y014360D02*
X000850Y014360D01*
X000773Y014437D01*
X000773Y014590D01*
X000850Y014667D01*
X000927Y014667D01*
X000927Y014360D01*
X001003Y014360D02*
X001080Y014437D01*
X001080Y014590D01*
X001003Y014897D02*
X001080Y014974D01*
X001003Y014897D02*
X000696Y014897D01*
X000773Y014820D02*
X000773Y014974D01*
X000773Y015204D02*
X000773Y015358D01*
X000850Y015434D01*
X001080Y015434D01*
X001080Y015204D01*
X001003Y015127D01*
X000927Y015204D01*
X000927Y015434D01*
X000696Y014207D02*
X001003Y013900D01*
X001080Y013900D01*
X000620Y013900D02*
X000620Y014207D01*
X000696Y014207D01*
D12*
X003365Y013655D02*
X003365Y013365D01*
X003365Y013462D02*
X003510Y013462D01*
X003558Y013510D01*
X003558Y013607D01*
X003510Y013655D01*
X003365Y013655D01*
X003462Y013462D02*
X003558Y013365D01*
X003660Y013413D02*
X003708Y013462D01*
X003853Y013462D01*
X003853Y013510D02*
X003853Y013365D01*
X003708Y013365D01*
X003660Y013413D01*
X003708Y013558D02*
X003805Y013558D01*
X003853Y013510D01*
X003954Y013365D02*
X004051Y013365D01*
X004003Y013365D02*
X004003Y013655D01*
X003954Y013655D01*
X004151Y013558D02*
X004199Y013558D01*
X004199Y013365D01*
X004151Y013365D02*
X004247Y013365D01*
X004347Y013365D02*
X004347Y013558D01*
X004396Y013558D01*
X004444Y013510D01*
X004492Y013558D01*
X004541Y013510D01*
X004541Y013365D01*
X004444Y013365D02*
X004444Y013510D01*
X004642Y013413D02*
X004642Y013607D01*
X004690Y013655D01*
X004787Y013655D01*
X004835Y013607D01*
X004835Y013510D01*
X004787Y013462D01*
X004787Y013558D01*
X004690Y013558D01*
X004690Y013462D01*
X004787Y013462D01*
X004835Y013413D02*
X004787Y013365D01*
X004690Y013365D01*
X004642Y013413D01*
X004936Y013365D02*
X004936Y013655D01*
X005082Y013655D01*
X005130Y013607D01*
X005130Y013510D01*
X005082Y013462D01*
X004936Y013462D01*
X005033Y013462D02*
X005130Y013365D01*
X005231Y013413D02*
X005280Y013462D01*
X005425Y013462D01*
X005425Y013510D02*
X005425Y013365D01*
X005280Y013365D01*
X005231Y013413D01*
X005280Y013558D02*
X005376Y013558D01*
X005425Y013510D01*
X005526Y013365D02*
X005623Y013365D01*
X005574Y013365D02*
X005574Y013655D01*
X005526Y013655D01*
X005722Y013558D02*
X005771Y013558D01*
X005771Y013365D01*
X005819Y013365D02*
X005722Y013365D01*
X005919Y013365D02*
X005919Y013558D01*
X005967Y013558D01*
X006015Y013510D01*
X006064Y013558D01*
X006112Y013510D01*
X006112Y013365D01*
X006015Y013365D02*
X006015Y013510D01*
X006213Y013558D02*
X006310Y013558D01*
X006262Y013607D02*
X006262Y013413D01*
X006310Y013365D01*
X006410Y013413D02*
X006410Y013510D01*
X006458Y013558D01*
X006555Y013558D01*
X006603Y013510D01*
X006603Y013462D01*
X006410Y013462D01*
X006410Y013413D02*
X006458Y013365D01*
X006555Y013365D01*
X006704Y013365D02*
X006704Y013655D01*
X006850Y013558D02*
X006704Y013462D01*
X006850Y013365D01*
X006950Y013365D02*
X006998Y013365D01*
X006998Y013413D01*
X006950Y013413D01*
X006950Y013365D01*
X007097Y013413D02*
X007146Y013365D01*
X007291Y013365D01*
X007392Y013413D02*
X007440Y013365D01*
X007537Y013365D01*
X007585Y013413D01*
X007585Y013510D01*
X007537Y013558D01*
X007440Y013558D01*
X007392Y013510D01*
X007392Y013413D01*
X007291Y013558D02*
X007146Y013558D01*
X007097Y013510D01*
X007097Y013413D01*
X007687Y013365D02*
X007687Y013558D01*
X007735Y013558D01*
X007783Y013510D01*
X007832Y013558D01*
X007880Y013510D01*
X007880Y013365D01*
X007783Y013365D02*
X007783Y013510D01*
X005771Y013655D02*
X005771Y013704D01*
X004199Y013704D02*
X004199Y013655D01*
X011365Y007905D02*
X011365Y007615D01*
X011365Y007712D02*
X011510Y007712D01*
X011558Y007760D01*
X011558Y007857D01*
X011510Y007905D01*
X011365Y007905D01*
X011462Y007712D02*
X011558Y007615D01*
X011660Y007663D02*
X011708Y007712D01*
X011853Y007712D01*
X011853Y007760D02*
X011853Y007615D01*
X011708Y007615D01*
X011660Y007663D01*
X011708Y007808D02*
X011805Y007808D01*
X011853Y007760D01*
X011954Y007615D02*
X012051Y007615D01*
X012003Y007615D02*
X012003Y007905D01*
X011954Y007905D01*
X012151Y007808D02*
X012199Y007808D01*
X012199Y007615D01*
X012151Y007615D02*
X012247Y007615D01*
X012347Y007615D02*
X012347Y007808D01*
X012396Y007808D01*
X012444Y007760D01*
X012492Y007808D01*
X012541Y007760D01*
X012541Y007615D01*
X012444Y007615D02*
X012444Y007760D01*
X012642Y007663D02*
X012642Y007857D01*
X012690Y007905D01*
X012787Y007905D01*
X012835Y007857D01*
X012835Y007760D01*
X012787Y007712D01*
X012787Y007808D01*
X012690Y007808D01*
X012690Y007712D01*
X012787Y007712D01*
X012835Y007663D02*
X012787Y007615D01*
X012690Y007615D01*
X012642Y007663D01*
X012936Y007615D02*
X012936Y007905D01*
X013082Y007905D01*
X013130Y007857D01*
X013130Y007760D01*
X013082Y007712D01*
X012936Y007712D01*
X013033Y007712D02*
X013130Y007615D01*
X013231Y007663D02*
X013280Y007712D01*
X013425Y007712D01*
X013425Y007760D02*
X013425Y007615D01*
X013280Y007615D01*
X013231Y007663D01*
X013280Y007808D02*
X013376Y007808D01*
X013425Y007760D01*
X013526Y007615D02*
X013623Y007615D01*
X013574Y007615D02*
X013574Y007905D01*
X013526Y007905D01*
X013722Y007808D02*
X013771Y007808D01*
X013771Y007615D01*
X013819Y007615D02*
X013722Y007615D01*
X013919Y007615D02*
X013919Y007808D01*
X013967Y007808D01*
X014015Y007760D01*
X014064Y007808D01*
X014112Y007760D01*
X014112Y007615D01*
X014015Y007615D02*
X014015Y007760D01*
X014213Y007808D02*
X014310Y007808D01*
X014262Y007857D02*
X014262Y007663D01*
X014310Y007615D01*
X014410Y007663D02*
X014410Y007760D01*
X014458Y007808D01*
X014555Y007808D01*
X014603Y007760D01*
X014603Y007712D01*
X014410Y007712D01*
X014410Y007663D02*
X014458Y007615D01*
X014555Y007615D01*
X014704Y007615D02*
X014704Y007905D01*
X014850Y007808D02*
X014704Y007712D01*
X014850Y007615D01*
X014950Y007615D02*
X014998Y007615D01*
X014998Y007663D01*
X014950Y007663D01*
X014950Y007615D01*
X015097Y007663D02*
X015146Y007615D01*
X015291Y007615D01*
X015392Y007663D02*
X015392Y007760D01*
X015440Y007808D01*
X015537Y007808D01*
X015585Y007760D01*
X015585Y007663D01*
X015537Y007615D01*
X015440Y007615D01*
X015392Y007663D01*
X015291Y007808D02*
X015146Y007808D01*
X015097Y007760D01*
X015097Y007663D01*
X015687Y007615D02*
X015687Y007808D01*
X015735Y007808D01*
X015783Y007760D01*
X015832Y007808D01*
X015880Y007760D01*
X015880Y007615D01*
X015783Y007615D02*
X015783Y007760D01*
X013771Y007905D02*
X013771Y007954D01*
X012199Y007954D02*
X012199Y007905D01*
D13*
X017746Y002704D02*
X017746Y002350D01*
X018100Y001996D01*
X018454Y001996D01*
X018807Y002350D01*
X018807Y002704D01*
X019161Y002704D01*
X019514Y003057D01*
X019514Y003411D01*
X019161Y003764D01*
X018807Y003764D01*
X018454Y003411D01*
X018454Y003057D01*
X018100Y003057D01*
X017746Y002704D01*
X017850Y001600D02*
X017350Y001600D01*
X017100Y001350D01*
X016850Y001600D01*
X016350Y001600D01*
X016100Y001350D01*
X015850Y001600D01*
X015350Y001600D01*
X015100Y001350D01*
X014850Y001600D01*
X014350Y001600D01*
X014100Y001350D01*
X013850Y001600D01*
X013350Y001600D01*
X013100Y001350D01*
X012850Y001600D01*
X012350Y001600D01*
X012100Y001350D01*
X011850Y001600D01*
X011350Y001600D01*
X011100Y001350D01*
X010850Y001600D01*
X010350Y001600D01*
X010100Y001350D01*
X009850Y001600D01*
X009350Y001600D01*
X009100Y001350D01*
X008850Y001600D01*
X008350Y001600D01*
X008100Y001350D01*
X007850Y001600D01*
X007350Y001600D01*
X007100Y001350D01*
X006850Y001600D01*
X006350Y001600D01*
X006100Y001350D01*
X005850Y001600D01*
X005350Y001600D01*
X005100Y001350D01*
X004850Y001600D01*
X004350Y001600D01*
X004100Y001350D01*
X003850Y001600D01*
X003350Y001600D01*
X003100Y001350D01*
X002850Y001600D01*
X002350Y001600D01*
X002100Y001350D01*
X002100Y000850D01*
X002350Y000600D01*
X002850Y000600D01*
X003100Y000850D01*
X003350Y000600D01*
X003850Y000600D01*
X004100Y000850D01*
X004350Y000600D01*
X004850Y000600D01*
X005100Y000850D01*
X005350Y000600D01*
X005850Y000600D01*
X006100Y000850D01*
X006350Y000600D01*
X006850Y000600D01*
X007100Y000850D01*
X007350Y000600D01*
X007850Y000600D01*
X008100Y000850D01*
X008350Y000600D01*
X008850Y000600D01*
X009100Y000850D01*
X009350Y000600D01*
X009850Y000600D01*
X010100Y000850D01*
X010350Y000600D01*
X010850Y000600D01*
X011100Y000850D01*
X011350Y000600D01*
X011850Y000600D01*
X012100Y000850D01*
X012350Y000600D01*
X012850Y000600D01*
X013100Y000850D01*
X013350Y000600D01*
X013850Y000600D01*
X014100Y000850D01*
X014350Y000600D01*
X014850Y000600D01*
X015100Y000850D01*
X015350Y000600D01*
X015850Y000600D01*
X016100Y000850D01*
X016350Y000600D01*
X016850Y000600D01*
X017100Y000850D01*
X017350Y000600D01*
X017850Y000600D01*
X018100Y000850D01*
X018100Y001350D01*
X017850Y001600D01*
X018100Y001350D02*
X018100Y000850D01*
X004910Y007540D02*
X004910Y007860D01*
X004651Y007860D01*
X004049Y007860D02*
X003790Y007860D01*
X003790Y007540D01*
X001216Y003734D02*
X000863Y003734D01*
X000509Y003380D01*
X000509Y003027D01*
X000863Y002673D01*
X001216Y002673D01*
X001216Y002320D01*
X001570Y001966D01*
X001923Y001966D01*
X002277Y002320D01*
X002277Y002673D01*
X001923Y003027D01*
X001570Y003027D01*
X001570Y003380D01*
X001216Y003734D01*
X002100Y001350D02*
X002100Y000850D01*
X000996Y015850D02*
X000496Y015850D01*
X000246Y016100D01*
X000246Y016600D01*
X000496Y016850D01*
X000246Y017100D01*
X000246Y017600D01*
X000496Y017850D01*
X000996Y017850D01*
X001246Y017600D01*
X001246Y017100D01*
X000996Y016850D01*
X001246Y016600D01*
X001246Y016100D01*
X000996Y015850D01*
X002350Y018350D02*
X002850Y018350D01*
X003100Y018600D01*
X003350Y018350D01*
X003850Y018350D01*
X004100Y018600D01*
X004350Y018350D01*
X004850Y018350D01*
X005100Y018600D01*
X005350Y018350D01*
X005850Y018350D01*
X006100Y018600D01*
X006350Y018350D01*
X006850Y018350D01*
X007100Y018600D01*
X007350Y018350D01*
X007850Y018350D01*
X008100Y018600D01*
X008350Y018350D01*
X008850Y018350D01*
X009100Y018600D01*
X009350Y018350D01*
X009850Y018350D01*
X010100Y018600D01*
X010350Y018350D01*
X010850Y018350D01*
X011100Y018600D01*
X011350Y018350D01*
X011850Y018350D01*
X012100Y018600D01*
X012350Y018350D01*
X012850Y018350D01*
X013100Y018600D01*
X013350Y018350D01*
X013850Y018350D01*
X014100Y018600D01*
X014350Y018350D01*
X014850Y018350D01*
X015100Y018600D01*
X015350Y018350D01*
X015850Y018350D01*
X016100Y018600D01*
X016350Y018350D01*
X016850Y018350D01*
X017100Y018600D01*
X017350Y018350D01*
X017850Y018350D01*
X018100Y018600D01*
X018100Y019100D01*
X017850Y019350D01*
X017350Y019350D01*
X017100Y019100D01*
X016850Y019350D01*
X016350Y019350D01*
X016100Y019100D01*
X015850Y019350D01*
X015350Y019350D01*
X015100Y019100D01*
X014850Y019350D01*
X014350Y019350D01*
X014100Y019100D01*
X013850Y019350D01*
X013350Y019350D01*
X013100Y019100D01*
X012850Y019350D01*
X012350Y019350D01*
X012100Y019100D01*
X011850Y019350D01*
X011350Y019350D01*
X011100Y019100D01*
X010850Y019350D01*
X010350Y019350D01*
X010100Y019100D01*
X009850Y019350D01*
X009350Y019350D01*
X009100Y019100D01*
X008850Y019350D01*
X008350Y019350D01*
X008100Y019100D01*
X007850Y019350D01*
X007350Y019350D01*
X007100Y019100D01*
X006850Y019350D01*
X006350Y019350D01*
X006100Y019100D01*
X005850Y019350D01*
X005350Y019350D01*
X005100Y019100D01*
X004850Y019350D01*
X004350Y019350D01*
X004100Y019100D01*
X003850Y019350D01*
X003350Y019350D01*
X003100Y019100D01*
X002850Y019350D01*
X002350Y019350D01*
X002100Y019100D01*
X002100Y018600D01*
X002350Y018350D01*
X002100Y018600D02*
X002100Y019100D01*
X018100Y019100D02*
X018100Y018600D01*
X018880Y017820D02*
X019380Y017820D01*
X019630Y017570D01*
X019630Y017070D01*
X019380Y016820D01*
X019630Y016570D01*
X019630Y016070D01*
X019380Y015820D01*
X018880Y015820D01*
X018630Y016070D01*
X018630Y016570D01*
X018880Y016820D01*
X018630Y017070D01*
X018630Y017570D01*
X018880Y017820D01*
D14*
X012470Y005225D02*
X011230Y005225D01*
X011207Y005223D01*
X011184Y005218D01*
X011162Y005209D01*
X011142Y005196D01*
X011124Y005181D01*
X011109Y005163D01*
X011096Y005143D01*
X011087Y005121D01*
X011082Y005098D01*
X011080Y005075D01*
X012470Y005225D02*
X012493Y005223D01*
X012516Y005218D01*
X012538Y005209D01*
X012558Y005196D01*
X012576Y005181D01*
X012591Y005163D01*
X012604Y005143D01*
X012613Y005121D01*
X012618Y005098D01*
X012620Y005075D01*
X012620Y001875D02*
X012618Y001852D01*
X012613Y001829D01*
X012604Y001807D01*
X012591Y001787D01*
X012576Y001769D01*
X012558Y001754D01*
X012538Y001741D01*
X012516Y001732D01*
X012493Y001727D01*
X012470Y001725D01*
X012050Y001725D01*
X011650Y001725D01*
X011230Y001725D01*
X011207Y001727D01*
X011184Y001732D01*
X011162Y001741D01*
X011142Y001754D01*
X011124Y001769D01*
X011109Y001787D01*
X011096Y001807D01*
X011087Y001829D01*
X011082Y001852D01*
X011080Y001875D01*
X011650Y001725D02*
X011652Y001752D01*
X011657Y001779D01*
X011667Y001805D01*
X011679Y001829D01*
X011695Y001851D01*
X011713Y001871D01*
X011735Y001888D01*
X011758Y001903D01*
X011783Y001913D01*
X011809Y001921D01*
X011836Y001925D01*
X011864Y001925D01*
X011891Y001921D01*
X011917Y001913D01*
X011942Y001903D01*
X011965Y001888D01*
X011987Y001871D01*
X012005Y001851D01*
X012021Y001829D01*
X012033Y001805D01*
X012043Y001779D01*
X012048Y001752D01*
X012050Y001725D01*
D15*
X012480Y001725D02*
X012480Y005225D01*
M02*
